<?xml version="1.0" encoding="utf-8"?>
<!-- Generator: Adobe Illustrator 22.0.1, SVG Export Plug-In . SVG Version: 6.00 Build 0)  -->
<svg version="1.1" id="Layer_1" xmlns="http://www.w3.org/2000/svg" xmlns:xlink="http://www.w3.org/1999/xlink" x="0px" y="0px"
	 viewBox="0 0 301 301" style="enable-background:new 0 0 301 301;" xml:space="preserve">
<style type="text/css">
	.st0{opacity:0;fill:#FFFFFF;}
	.st1{fill:#FFFFFF;}
	.st2{opacity:0.1;}
</style>
<title>icon-process-manager</title>
<g>
	<path class="st0" d="M301,301H0V0h301V301z M1,300h299V1H1V300z"/>
	<g>
		<g>
			<path class="st1" d="M231.6,87.2H124.2l-9.7-15.8H74.8c-4.2,0-7.7,3.8-7.7,8.4L63.4,107h40.5h32.5h101.2V93.1
				C237.6,89.8,234.9,87.2,231.6,87.2z"/>
			<path class="st1" d="M235.6,116.9v107.5c0,1.8-1.5,3.3-3.3,3.3H68.7c-1.8,0-3.3-1.5-3.3-3.3V116.9H235.6 M237.6,114.9H63.4v109.5
				c0,2.9,2.4,5.3,5.3,5.3h163.6c2.9,0,5.3-2.4,5.3-5.3V114.9L237.6,114.9z"/>
		</g>
		<g>
			<path class="st1" d="M203.5,135.9v20.4h-32.6v-20.4H203.5 M204.9,133.9h-35.5c-0.3,0-0.6,0.3-0.6,0.6v23.3c0,0.3,0.3,0.6,0.6,0.6
				h35.5c0.3,0,0.6-0.3,0.6-0.6v-23.3C205.5,134.1,205.2,133.9,204.9,133.9L204.9,133.9z"/>
			<path class="st1" d="M130.2,161.5V182H97.5v-20.4H130.2 M131.6,159.5H96.1c-0.3,0-0.6,0.3-0.6,0.6v23.3c0,0.3,0.3,0.6,0.6,0.6
				h35.5c0.3,0,0.6-0.3,0.6-0.6v-23.3C132.2,159.8,131.9,159.5,131.6,159.5L131.6,159.5z"/>
			<path class="st1" d="M203.5,186v20.4h-32.6V186H203.5 M204.9,184h-35.5c-0.3,0-0.6,0.3-0.6,0.6v23.3c0,0.3,0.3,0.6,0.6,0.6h35.5
				c0.3,0,0.6-0.3,0.6-0.6v-23.3C205.5,184.2,205.2,184,204.9,184L204.9,184z"/>
			<g class="st2">
				<g>
					<path class="st1" d="M168.8,157.7v-23.3c0-0.3,0.3-0.6,0.6-0.6h35.5c0.3,0,0.6,0.3,0.6,0.6v23.3c0,0.3-0.3,0.6-0.6,0.6h-35.5
						C169.1,158.3,168.8,158.1,168.8,157.7z"/>
				</g>
				<g>
					<path class="st1" d="M95.5,183.4v-23.3c0-0.3,0.3-0.6,0.6-0.6h35.5c0.3,0,0.6,0.3,0.6,0.6v23.3c0,0.3-0.3,0.6-0.6,0.6H96.1
						C95.8,184,95.5,183.7,95.5,183.4z"/>
				</g>
				<g>
					<path class="st1" d="M168.8,207.8v-23.3c0-0.3,0.3-0.6,0.6-0.6h35.5c0.3,0,0.6,0.3,0.6,0.6v23.3c0,0.3-0.3,0.6-0.6,0.6h-35.5
						C169.1,208.4,168.8,208.1,168.8,207.8z"/>
				</g>
			</g>
			<path class="st1" d="M168.8,195.2h-17.3v-46.9h17.3c0.6,0,1-0.4,1-1s-0.4-1-1-1h-18.3c-0.6,0-1,0.4-1,1v23.4h-17.3
				c-0.6,0-1,0.4-1,1s0.4,1,1,1h17.3v23.4c0,0.6,0.4,1,1,1h18.3c0.6,0,1-0.4,1-1S169.4,195.2,168.8,195.2z"/>
		</g>
		<g>
			<path class="st1" d="M188.1,150.5h-1.8V142h1.8V150.5z"/>
		</g>
		<g>
			<path class="st1" d="M185.4,200.5h-1.8V192h1.8V200.5z"/>
			<path class="st1" d="M189.9,200.5h-1.8V192h1.8V200.5z"/>
		</g>
	</g>
</g>
</svg>
