<?xml version="1.0" encoding="utf-8"?>
<!-- Generator: Adobe Illustrator 22.0.1, SVG Export Plug-In . SVG Version: 6.00 Build 0)  -->
<svg version="1.1" id="Layer_1" xmlns="http://www.w3.org/2000/svg" xmlns:xlink="http://www.w3.org/1999/xlink" x="0px" y="0px"
	 viewBox="0 0 301 301" style="enable-background:new 0 0 301 301;" xml:space="preserve">
<style type="text/css">
	.st0{opacity:0;fill:#FFFFFF;}
	.st1{fill:#FFFFFF;}
	.st2{opacity:0.1;fill:#FFFFFF;enable-background:new    ;}
</style>
<title>icon-quick-view</title>
<g id="Layer_2_1_">
	<g id="Layer_1-2">
		<path class="st0" d="M301,301H0V0h301V301z M1,300h299V1H1V300z"/>
		<path class="st1" d="M144.1,222.8H75.3c-8.3,0-15-6.7-15-15V75.9c0-8.3,6.7-15,15-15h50.7c0.3,0,0.5,0.1,0.7,0.3l46.2,46.1
			c0.2,0.2,0.3,0.4,0.3,0.7v26.1c0,0.6-0.4,1-1,1s-1-0.4-1-1v-25.7l-45.6-45.5H75.3c-7.2,0-13,5.8-13,13v131.8c0,7.2,5.8,13,13,13
			h68.8c0.6,0,1,0.4,1,1S144.6,222.8,144.1,222.8z"/>
		<path class="st1" d="M172.1,109.1h-32.2c-8.3,0-15-6.7-15-15V62c0-0.6,0.4-1,1-1s1,0.4,1,1v32.1c0,7.2,5.8,13,13,13h32.2
			c0.6,0,1,0.4,1,1S172.7,109.1,172.1,109.1z"/>
		<path class="st1" d="M125.6,189H89.3c-0.6,0-1-0.4-1-1s0.4-1,1-1h36.3c0.6,0,1,0.4,1,1S126.2,189,125.6,189z"/>
		<path class="st1" d="M132.1,158.2H89.3c-0.6,0-1-0.4-1-1s0.4-1,1-1h42.8c0.6,0,1,0.4,1,1S132.6,158.2,132.1,158.2z"/>
		<path class="st1" d="M119.4,127.5H89.3c-0.6,0-1-0.4-1-1s0.4-1,1-1h30.1c0.6,0,1,0.4,1,1S120,127.5,119.4,127.5z"/>
		<path class="st1" d="M186.6,224.7c-20.9,0-38-17.2-38-38.3c0-21.1,17-38.3,38-38.3c20.9,0,38,17.2,38,38.3
			C224.6,207.5,207.6,224.7,186.6,224.7z M186.6,150c-19.8,0-36,16.3-36,36.3c0,20,16.1,36.3,36,36.3s36-16.3,36-36.3
			C222.6,166.3,206.5,150,186.6,150z"/>
		<path class="st1" d="M239.7,240c-0.3,0-0.5-0.1-0.7-0.3L212.5,213c-0.4-0.4-0.4-1,0-1.4c0.4-0.4,1-0.4,1.4,0l26.5,26.8
			c0.4,0.4,0.4,1,0,1.4C240.2,240,240,240,239.7,240z"/>
		<ellipse class="st2" cx="186.6" cy="186.3" rx="37" ry="37.3"/>
	</g>
</g>
</svg>
