<?xml version="1.0" encoding="utf-8"?>
<!-- Generator: Adobe Illustrator 22.0.1, SVG Export Plug-In . SVG Version: 6.00 Build 0)  -->
<svg version="1.1" id="Layer_1" xmlns="http://www.w3.org/2000/svg" xmlns:xlink="http://www.w3.org/1999/xlink" x="0px" y="0px"
	 viewBox="0 0 286.7 208.1" style="enable-background:new 0 0 286.7 208.1;" xml:space="preserve">
<style type="text/css">
	.st0{fill:none;stroke:#000000;stroke-width:3;stroke-linecap:round;stroke-linejoin:round;stroke-miterlimit:10;}
	.st1{opacity:0.2;}
	.st2{fill:#707D91;}
	.st3{opacity:0.2;fill:#707D91;enable-background:new    ;}
	.st4{fill:none;stroke:#000000;stroke-linecap:round;stroke-linejoin:round;stroke-miterlimit:10;}
	.st5{fill:none;stroke:#000000;stroke-miterlimit:10;}
</style>
<title>icon-cx-ux</title>
<g>
	<g>
		<g>
			<g>
				<path class="st0" d="M214.2,144.4h-197c-8.6,0-15.7-7.1-15.7-15.7V17.2c0-8.6,7.1-15.7,15.7-15.7h206.5
					c8.6,0,15.7,7.1,15.7,15.7v41.3"/>
				<line class="st0" x1="120.5" y1="145.7" x2="120.5" y2="187.5"/>
				<line class="st0" x1="77.5" y1="187.5" x2="164.8" y2="187.5"/>
			</g>
			<g>
				<path d="M78.3,30c1.4,0,2.7,1.1,2.7,2.7c0,1.4-1.1,2.7-2.7,2.7c-1.4,0-2.7-1.1-2.7-2.7C75.8,31.1,76.9,30,78.3,30z"/>
			</g>
			<g>
				<path d="M68.7,30c1.4,0,2.7,1.1,2.7,2.7c0,1.4-1.1,2.7-2.7,2.7c-1.4,0-2.7-1.1-2.7-2.7C66.1,31.1,67.2,30,68.7,30z"/>
			</g>
			<g>
				<path d="M59,30c1.4,0,2.7,1.1,2.7,2.7c0,1.4-1.1,2.7-2.7,2.7c-1.4,0-2.7-1.1-2.7-2.7C56.4,31.1,57.6,30,59,30z"/>
			</g>
			<g>
				<g>
					<g class="st1">
						<path class="st2" d="M71.4,58.3h24.8c0.9,0,1.5-0.9,1.5-1.9v-6.2c0-1.1-0.6-1.9-1.5-1.9H71.4c-0.9,0-1.5,0.9-1.5,1.9v6.2
							C69.9,57.5,70.5,58.3,71.4,58.3z"/>
						<path class="st2" d="M109.4,58.3h24.8c0.9,0,1.5-0.9,1.5-1.9v-6.2c0-1.1-0.6-1.9-1.5-1.9h-24.8c-0.9,0-1.5,0.9-1.5,1.9v6.2
							C107.8,57.5,108.5,58.3,109.4,58.3z"/>
						<path class="st2" d="M147.3,58.3h24.8c0.9,0,1.5-0.9,1.5-1.9v-6.2c0-1.1-0.6-1.9-1.5-1.9h-24.8c-0.9,0-1.5,0.9-1.5,1.9v6.2
							C145.8,57.5,146.4,58.3,147.3,58.3z"/>
					</g>
					<path class="st3" d="M171.8,65.9h-100c-1,0-1.9,0.9-1.9,1.9v19c0,1,0.9,1.9,1.9,1.9h100c1,0,1.9-0.9,1.9-1.9v-19
						C173.7,66.8,172.8,65.9,171.8,65.9z"/>
					<g>
						<path class="st3" d="M151.9,106.4h16.8c2.7,0,4.8-2.2,4.8-4.8v-0.4c0-2.7-2.2-4.8-4.8-4.8h-16.8c-2.7,0-4.8,2.2-4.8,4.8v0.4
							C147.1,104.3,149.2,106.4,151.9,106.4z"/>
						<circle class="st4" cx="74.3" cy="102" r="4.4"/>
						<circle class="st4" cx="90.7" cy="102" r="4.4"/>
						<circle cx="90.7" cy="102" r="2"/>
						<circle class="st4" cx="107.2" cy="102" r="4.4"/>
						<path class="st4" d="M151.9,106.4h16.8c2.7,0,4.8-2.2,4.8-4.8v-0.4c0-2.7-2.2-4.8-4.8-4.8h-16.8c-2.7,0-4.8,2.2-4.8,4.8v0.4
							C147.1,104.3,149.2,106.4,151.9,106.4z"/>
					</g>
					<g>
						<path class="st5" d="M71.4,58.3h24.8c0.9,0,1.5-0.9,1.5-1.9v-6.2c0-1.1-0.6-1.9-1.5-1.9H71.4c-0.9,0-1.5,0.9-1.5,1.9v6.2
							C69.9,57.5,70.5,58.3,71.4,58.3z"/>
						<path class="st5" d="M109.4,58.3h24.8c0.9,0,1.5-0.9,1.5-1.9v-6.2c0-1.1-0.6-1.9-1.5-1.9h-24.8c-0.9,0-1.5,0.9-1.5,1.9v6.2
							C107.8,57.5,108.5,58.3,109.4,58.3z"/>
						<path class="st5" d="M147.3,58.3h24.8c0.9,0,1.5-0.9,1.5-1.9v-6.2c0-1.1-0.6-1.9-1.5-1.9h-24.8c-0.9,0-1.5,0.9-1.5,1.9v6.2
							C145.8,57.5,146.4,58.3,147.3,58.3z"/>
					</g>
					<path class="st5" d="M171.8,65.9h-100c-1,0-1.9,0.9-1.9,1.9v19c0,1,0.9,1.9,1.9,1.9h100c1,0,1.9-0.9,1.9-1.9v-19
						C173.7,66.8,172.8,65.9,171.8,65.9z"/>
				</g>
			</g>
			<path class="st0" d="M189.5,27.3"/>
			<rect x="50.5" y="24" class="st0" width="141.3" height="97.5"/>
		</g>
		<g>
			<g>
				<path class="st0" d="M278.1,59.6l-55.6-0.1c-3.9,0-7.1,3.2-7.1,7.1l-0.1,132.8c0,3.9,3.2,7.1,7.1,7.1l55.6,0.1
					c3.9,0,7.1-3.2,7.1-7.1l0.1-132.8C285.2,62.8,282,59.6,278.1,59.6z"/>
				<line class="st4" x1="215.4" y1="76.1" x2="285.1" y2="76.1"/>
				<line class="st4" x1="215.4" y1="187.5" x2="285.1" y2="187.5"/>
				<g>
					<path d="M247.5,67.8L247.5,67.8h12.2c0.8-0.6,1.4,0,1.4,0.9c0,0.8-0.6,1.4-1.5,1.6l0,0h-12.2c-0.8-0.3-1.4-0.9-1.4-1.6
						C245.9,67.8,246.6,67.2,247.5,67.8z"/>
					<circle cx="240.6" cy="68.7" r="1.6"/>
				</g>
				<path class="st4" d="M250.1,201.4L250.1,201.4c-1.4,0-2.7-0.5-3.5-1.5c-1-1-1.5-2.3-1.5-3.5c0-2.8,2.3-5.1,5.1-5.1l0,0
					c2.8,0,5.1,2.3,5.1,5.1S252.9,201.4,250.1,201.4z"/>
			</g>
		</g>
	</g>
	<g>
		<g class="st1">
			<path class="st2" d="M229.2,97.6h42c1.3,0,2.4-0.9,2.4-1.9v-6.2c0-1.1-1-1.9-2.4-1.9h-42c-1.3,0-2.4,0.9-2.4,1.9v6.2
				C226.8,96.7,227.8,97.6,229.2,97.6z"/>
		</g>
		<g class="st1">
			<path class="st2" d="M229.2,112.8h42c1.3,0,2.4-0.9,2.4-1.9v-6.2c0-1.1-1-1.9-2.4-1.9h-42c-1.3,0-2.4,0.9-2.4,1.9v6.2
				C226.8,111.9,227.8,112.8,229.2,112.8z"/>
		</g>
		<g class="st1">
			<path class="st2" d="M229.2,145.7h42c1.3,0,2.4-0.9,2.4-1.9v-24.1c0-1-1-1.9-2.4-1.9h-42c-1.3,0-2.4,0.9-2.4,1.9v24.1
				C226.8,144.8,227.8,145.7,229.2,145.7z"/>
		</g>
		<path class="st3" d="M232.3,176.1h36c3,0,5.4-2.4,5.4-5.4v-0.5c0-3-2.4-5.4-5.4-5.4h-36c-3,0-5.4,2.4-5.4,5.4v0.5
			C226.8,173.7,229.2,176.1,232.3,176.1z"/>
		<g>
			<path class="st5" d="M229.2,97.6h42c1.3,0,2.4-0.9,2.4-1.9v-6.2c0-1.1-1-1.9-2.4-1.9h-42c-1.3,0-2.4,0.9-2.4,1.9v6.2
				C226.8,96.7,227.8,97.6,229.2,97.6z"/>
		</g>
		<g>
			<path class="st5" d="M229.2,112.8h42c1.3,0,2.4-0.9,2.4-1.9v-6.2c0-1.1-1-1.9-2.4-1.9h-42c-1.3,0-2.4,0.9-2.4,1.9v6.2
				C226.8,111.9,227.8,112.8,229.2,112.8z"/>
		</g>
		<g>
			<path class="st5" d="M229.2,145.7h42c1.3,0,2.4-0.9,2.4-1.9v-24.1c0-1-1-1.9-2.4-1.9h-42c-1.3,0-2.4,0.9-2.4,1.9v24.1
				C226.8,144.8,227.8,145.7,229.2,145.7z"/>
		</g>
		<g>
			<circle class="st4" cx="234.4" cy="154.5" r="3.8"/>
			<circle class="st4" cx="266.1" cy="154.5" r="3.8"/>
			<g>
				<circle class="st4" cx="249.6" cy="154.5" r="3.8"/>
				<circle cx="249.6" cy="154.5" r="1.9"/>
			</g>
		</g>
		<path class="st4" d="M232.3,176.1h36c3,0,5.4-2.4,5.4-5.4v-0.5c0-3-2.4-5.4-5.4-5.4h-36c-3,0-5.4,2.4-5.4,5.4v0.5
			C226.8,173.7,229.2,176.1,232.3,176.1z"/>
	</g>
</g>
</svg>
