<?xml version="1.0" encoding="utf-8"?>
<!-- Generator: Adobe Illustrator 22.0.1, SVG Export Plug-In . SVG Version: 6.00 Build 0)  -->
<svg version="1.1" id="Layer_1" xmlns="http://www.w3.org/2000/svg" xmlns:xlink="http://www.w3.org/1999/xlink" x="0px" y="0px"
	 viewBox="0 0 300 200" style="enable-background:new 0 0 300 200;" xml:space="preserve">
<style type="text/css">
	.st0{fill:#FFFFFF;}
	.st1{fill:none;stroke:#000000;stroke-miterlimit:10;}
	.st2{fill:none;stroke:#000000;stroke-width:3;stroke-miterlimit:10;}
	.st3{opacity:0.15;fill:#707D91;enable-background:new    ;}
</style>
<rect class="st0" width="300" height="200"/>
<title>icon-time-market</title>
<g>
	<g>
		<line class="st1" x1="152.9" y1="47.7" x2="152.9" y2="58"/>
		<line class="st1" x1="152.9" y1="171.8" x2="152.9" y2="182.1"/>
		<line class="st1" x1="220.1" y1="114.9" x2="209.9" y2="114.9"/>
		<line class="st1" x1="96.1" y1="114.9" x2="85.8" y2="114.9"/>
		<line class="st1" x1="200.4" y1="162.4" x2="193.1" y2="155.1"/>
		<line class="st1" x1="112.8" y1="74.7" x2="105.4" y2="67.4"/>
		<line class="st1" x1="105.4" y1="162.4" x2="112.8" y2="155.1"/>
		<line class="st1" x1="193.1" y1="74.7" x2="200.4" y2="67.4"/>
	</g>
	<g>
		<path d="M163.6,123.4c0-2.5-0.8-4.6-2.5-6.2c-1.6-1.6-4.5-3.1-8.7-4.6c-5.1-1.6-8.7-3.5-10.8-5.7s-3.1-5.1-3.1-8.6
			c0-3.7,1.1-6.7,3.4-9c2.3-2.3,5.4-3.6,9.3-3.9v-6.9h3.5v6.9c4,0.4,7.1,1.9,9.3,4.5s3.3,6.2,3.3,10.7h-4.1c0-3.6-0.9-6.4-2.8-8.5
			c-1.9-2.1-4.4-3.2-7.6-3.2c-3.2,0-5.7,0.8-7.6,2.5c-1.8,1.7-2.7,4-2.7,6.8c0,2.7,0.8,4.9,2.5,6.4s4.5,3,8.5,4.3
			c4,1.4,6.9,2.7,8.7,3.9c1.8,1.2,3.2,2.7,4.1,4.4c0.9,1.7,1.3,3.7,1.3,6.1c0,3.7-1.2,6.7-3.5,9s-5.5,3.6-9.6,3.9v6.5h-3.4v-6.4
			c-4.6-0.3-8.1-1.7-10.6-4.3s-3.8-6.1-3.8-10.6h4.1c0,3.5,1,6.3,3.1,8.3c2.1,2,5,3,8.7,3c3.2,0,5.9-0.9,7.9-2.6
			C162.6,128.4,163.6,126.2,163.6,123.4z"/>
	</g>
	<path class="st2" d="M69.1,114.9c0,46.2,37.4,83.6,83.6,83.6s83.6-37.4,83.6-83.6S199,31.3,152.8,31.3h-3.4"/>
	<path class="st3" d="M197.4,43.4l3.9-5c0.5-0.6,1.4-0.8,2-0.3l11.4,8.9c0.6,0.5,0.7,1.4,0.2,2.1l-3.9,5L197.4,43.4z"/>
	<path class="st3" d="M156.6,22.6h-5.9c-0.8,0-1.4,0.6-1.4,1.4v5.9c0,0.8,0.6,1.4,1.4,1.4h5.9c0.8,0,1.4-0.6,1.4-1.4V24
		C158.1,23.2,157.4,22.6,156.6,22.6z"/>
	<path class="st3" d="M163.9,22.6h-20.5c-0.5,0-0.9-0.4-0.9-0.9v-6c0-0.5,0.4-0.9,0.9-0.9h20.5c0.5,0,0.9,0.4,0.9,0.9v6
		C164.9,22.2,164.4,22.6,163.9,22.6z"/>
	<polygon points="68.8,108.3 62.1,121.3 76.8,120.5 	"/>
	<path class="st2" d="M197.4,43.4l3.9-5c0.5-0.6,1.4-0.8,2-0.3l11.4,8.9c0.6,0.5,0.7,1.4,0.2,2.1l-3.9,5"/>
	<path class="st2" d="M156.6,22.6h-5.9c-0.8,0-1.4,0.6-1.4,1.4v5.9c0,0.8,0.6,1.4,1.4,1.4h5.9c0.8,0,1.4-0.6,1.4-1.4V24
		C158.1,23.2,157.4,22.6,156.6,22.6z"/>
	<path class="st2" d="M163.9,22.6h-20.5c-0.5,0-0.9-0.4-0.9-0.9v-6c0-0.5,0.4-0.9,0.9-0.9h20.5c0.5,0,0.9,0.4,0.9,0.9v6
		C164.9,22.2,164.4,22.6,163.9,22.6z"/>
</g>
</svg>
