<?xml version="1.0" encoding="utf-8"?>
<!-- Generator: Adobe Illustrator 22.0.1, SVG Export Plug-In . SVG Version: 6.00 Build 0)  -->
<svg version="1.1" id="Layer_1" xmlns="http://www.w3.org/2000/svg" xmlns:xlink="http://www.w3.org/1999/xlink" x="0px" y="0px"
	 viewBox="0 0 300 200" style="enable-background:new 0 0 300 200;" xml:space="preserve">
<style type="text/css">
	.st0{fill:#FFFFFF;}
	.st1{fill:none;stroke:#000000;stroke-width:3;stroke-linecap:round;stroke-linejoin:round;stroke-miterlimit:10;}
	.st2{opacity:0.2;}
	.st3{fill:#707D91;}
	.st4{opacity:0.2;fill:#707D91;enable-background:new    ;}
	.st5{fill:none;stroke:#000000;stroke-linecap:round;stroke-linejoin:round;stroke-miterlimit:10;}
	.st6{fill:none;stroke:#000000;stroke-miterlimit:10;}
</style>
<rect class="st0" width="300" height="200"/>
<title>icon-cx-ux</title>
<g>
	<g>
		<g>
			<g>
				<path class="st1" d="M206,149.4H50.4c-6.8,0-12.4-5.6-12.4-12.4V48.9c0-6.8,5.6-12.4,12.4-12.4h163.1c6.8,0,12.4,5.6,12.4,12.4
					v32.6"/>
				<line class="st1" x1="132" y1="150.4" x2="132" y2="183.4"/>
				<line class="st1" x1="98" y1="183.4" x2="167" y2="183.4"/>
			</g>
			<g>
				<path d="M186.5,56.9V72v5.7V130h-108V77.7V72V56.9H186.5 M186.6,53.9H78.4c-1.6,0-2.9,1.3-2.9,2.9V72v5.7V130
					c0,1.6,1.3,2.9,2.9,2.9h108.2c1.6,0,2.9-1.3,2.9-2.9V77.7V72V56.9C189.5,55.2,188.2,53.9,186.6,53.9L186.6,53.9z"/>
			</g>
			<g>
				<path d="M98.7,59c1.1,0,2.1,0.9,2.1,2.1c0,1.1-0.9,2.1-2.1,2.1c-1.1,0-2.1-0.9-2.1-2.1C96.7,60,97.6,59,98.7,59z"/>
			</g>
			<g>
				<path d="M91.1,59c1.1,0,2.1,0.9,2.1,2.1c0,1.1-0.9,2.1-2.1,2.1c-1.1,0-2.1-0.9-2.1-2.1C89,60,89.9,59,91.1,59z"/>
			</g>
			<g>
				<path d="M83.4,59c1.1,0,2.1,0.9,2.1,2.1c0,1.1-0.9,2.1-2.1,2.1c-1.1,0-2.1-0.9-2.1-2.1C81.4,60,82.2,59,83.4,59z"/>
			</g>
			<g>
				<g>
					<g class="st2">
						<path class="st3" d="M93.2,81.4h19.6c0.7,0,1.2-0.7,1.2-1.5V75c0-0.9-0.5-1.5-1.2-1.5H93.2c-0.7,0-1.2,0.7-1.2,1.5v4.9
							C92,80.7,92.5,81.4,93.2,81.4z"/>
						<path class="st3" d="M123.2,81.4h19.6c0.7,0,1.2-0.7,1.2-1.5V75c0-0.9-0.5-1.5-1.2-1.5h-19.6c-0.7,0-1.2,0.7-1.2,1.5v4.9
							C122,80.7,122.5,81.4,123.2,81.4z"/>
						<path class="st3" d="M153.2,81.4h19.6c0.7,0,1.2-0.7,1.2-1.5V75c0-0.9-0.5-1.5-1.2-1.5h-19.6c-0.7,0-1.2,0.7-1.2,1.5v4.9
							C152,80.7,152.5,81.4,153.2,81.4z"/>
					</g>
					<path class="st4" d="M172.5,87.4h-79c-0.8,0-1.5,0.7-1.5,1.5v15c0,0.8,0.7,1.5,1.5,1.5h79c0.8,0,1.5-0.7,1.5-1.5v-15
						C174,88.1,173.3,87.4,172.5,87.4z"/>
					<g>
						<path class="st4" d="M156.8,119.4h13.4c2.1,0,3.8-1.7,3.8-3.8v-0.3c0-2.1-1.7-3.8-3.8-3.8h-13.3c-2.1,0-3.8,1.7-3.8,3.8v0.3
							C153,117.7,154.7,119.4,156.8,119.4z"/>
						<circle class="st5" cx="95.5" cy="115.9" r="3.5"/>
						<circle class="st5" cx="108.5" cy="115.9" r="3.5"/>
						<circle cx="108.5" cy="115.9" r="1.6"/>
						<circle class="st5" cx="121.5" cy="115.9" r="3.5"/>
						<path class="st5" d="M156.8,119.4h13.4c2.1,0,3.8-1.7,3.8-3.8v-0.3c0-2.1-1.7-3.8-3.8-3.8h-13.3c-2.1,0-3.8,1.7-3.8,3.8v0.3
							C153,117.7,154.7,119.4,156.8,119.4z"/>
					</g>
					<g>
						<path class="st6" d="M93.2,81.4h19.6c0.7,0,1.2-0.7,1.2-1.5V75c0-0.9-0.5-1.5-1.2-1.5H93.2c-0.7,0-1.2,0.7-1.2,1.5v4.9
							C92,80.7,92.5,81.4,93.2,81.4z"/>
						<path class="st6" d="M123.2,81.4h19.6c0.7,0,1.2-0.7,1.2-1.5V75c0-0.9-0.5-1.5-1.2-1.5h-19.6c-0.7,0-1.2,0.7-1.2,1.5v4.9
							C122,80.7,122.5,81.4,123.2,81.4z"/>
						<path class="st6" d="M153.2,81.4h19.6c0.7,0,1.2-0.7,1.2-1.5V75c0-0.9-0.5-1.5-1.2-1.5h-19.6c-0.7,0-1.2,0.7-1.2,1.5v4.9
							C152,80.7,152.5,81.4,153.2,81.4z"/>
					</g>
					<path class="st6" d="M172.5,87.4h-79c-0.8,0-1.5,0.7-1.5,1.5v15c0,0.8,0.7,1.5,1.5,1.5h79c0.8,0,1.5-0.7,1.5-1.5v-15
						C174,88.1,173.3,87.4,172.5,87.4z"/>
				</g>
			</g>
		</g>
		<g>
			<g>
				<path class="st1" d="M256.4,82.4l-43.9-0.1c-3.1,0-5.6,2.5-5.6,5.6l-0.1,104.9c0,3.1,2.5,5.6,5.6,5.6l43.9,0.1
					c3.1,0,5.6-2.5,5.6-5.6L262,88C262,85,259.5,82.4,256.4,82.4z"/>
				<line class="st5" x1="207" y1="95.4" x2="261.9" y2="95.4"/>
				<line class="st5" x1="207" y1="183.4" x2="261.9" y2="183.4"/>
				<g>
					<path d="M232.3,88.9L232.3,88.9h9.6c0.6-0.5,1.1,0,1.1,0.7c0,0.6-0.5,1.1-1.2,1.3l0,0h-9.6c-0.6-0.2-1.1-0.7-1.1-1.3
						C231.1,89,231.6,88.4,232.3,88.9z"/>
					<circle cx="226.9" cy="89.6" r="1.3"/>
				</g>
				<path class="st5" d="M234.4,194.4L234.4,194.4c-1.1,0-2.1-0.4-2.8-1.2s-1.2-1.8-1.2-2.8c0-2.2,1.8-4,4-4l0,0c2.2,0,4,1.8,4,4
					C238.4,192.6,236.6,194.4,234.4,194.4z"/>
			</g>
		</g>
	</g>
	<g>
		<g class="st2">
			<path class="st3" d="M217.9,112.4h33.2c1,0,1.9-0.7,1.9-1.5V106c0-0.9-0.8-1.5-1.9-1.5h-33.2c-1,0-1.9,0.7-1.9,1.5v4.9
				C216,111.7,216.8,112.4,217.9,112.4z"/>
		</g>
		<g class="st2">
			<path class="st3" d="M217.9,124.4h33.2c1,0,1.9-0.7,1.9-1.5V118c0-0.9-0.8-1.5-1.9-1.5h-33.2c-1,0-1.9,0.7-1.9,1.5v4.9
				C216,123.7,216.8,124.4,217.9,124.4z"/>
		</g>
		<g class="st2">
			<path class="st3" d="M217.9,150.4h33.2c1,0,1.9-0.7,1.9-1.5v-19c0-0.8-0.8-1.5-1.9-1.5h-33.2c-1,0-1.9,0.7-1.9,1.5v19
				C216,149.8,216.8,150.4,217.9,150.4z"/>
		</g>
		<path class="st4" d="M220.3,174.4h28.4c2.4,0,4.3-1.9,4.3-4.3v-0.4c0-2.4-1.9-4.3-4.3-4.3h-28.4c-2.4,0-4.3,1.9-4.3,4.3v0.4
			C216,172.5,217.9,174.4,220.3,174.4z"/>
		<g>
			<path class="st6" d="M217.9,112.4h33.2c1,0,1.9-0.7,1.9-1.5V106c0-0.9-0.8-1.5-1.9-1.5h-33.2c-1,0-1.9,0.7-1.9,1.5v4.9
				C216,111.7,216.8,112.4,217.9,112.4z"/>
		</g>
		<g>
			<path class="st6" d="M217.9,124.4h33.2c1,0,1.9-0.7,1.9-1.5V118c0-0.9-0.8-1.5-1.9-1.5h-33.2c-1,0-1.9,0.7-1.9,1.5v4.9
				C216,123.7,216.8,124.4,217.9,124.4z"/>
		</g>
		<g>
			<path class="st6" d="M217.9,150.4h33.2c1,0,1.9-0.7,1.9-1.5v-19c0-0.8-0.8-1.5-1.9-1.5h-33.2c-1,0-1.9,0.7-1.9,1.5v19
				C216,149.8,216.8,150.4,217.9,150.4z"/>
		</g>
		<g>
			<ellipse transform="matrix(0.1602 -0.9871 0.9871 0.1602 31.03 351.2713)" class="st5" cx="222" cy="157.4" rx="3" ry="3"/>
			<circle class="st5" cx="246.9" cy="157.4" r="3"/>
			<g>
				<circle class="st5" cx="233.9" cy="157.4" r="3"/>
				<circle cx="233.9" cy="157.4" r="1.5"/>
			</g>
		</g>
		<path class="st5" d="M220.3,174.4h28.4c2.4,0,4.3-1.9,4.3-4.3v-0.4c0-2.4-1.9-4.3-4.3-4.3h-28.4c-2.4,0-4.3,1.9-4.3,4.3v0.4
			C216,172.5,217.9,174.4,220.3,174.4z"/>
	</g>
</g>
</svg>
