<?xml version="1.0" encoding="utf-8"?>
<!-- Generator: Adobe Illustrator 22.0.1, SVG Export Plug-In . SVG Version: 6.00 Build 0)  -->
<svg version="1.1" id="Layer_1" xmlns="http://www.w3.org/2000/svg" xmlns:xlink="http://www.w3.org/1999/xlink" x="0px" y="0px"
	 viewBox="0 0 301 301" style="enable-background:new 0 0 301 301;" xml:space="preserve">
<style type="text/css">
	.st0{fill:#FFFFFF;}
	.st1{fill:#566066;}
</style>
<g id="Layer_2_1_">
	<g id="Layer_1-2">
		<g>
			<circle class="st0" cx="150.5" cy="150.5" r="150.5"/>
		</g>
		<path class="st1" d="M82.3,76.2H57.4c-0.6,0-1,0.4-1,1v25.5c0,0.6,0.4,1,1,1h24.9c0.6,0,1-0.4,1-1V77.2
			C83.3,76.6,82.9,76.2,82.3,76.2z"/>
		<path class="st1" d="M162.5,103.7H97.9c-0.6,0-1-0.4-1-1V77.2c0-0.6,0.4-1,1-1h64.6c0.6,0,1,0.4,1,1v25.5
			C163.5,103.3,163.1,103.7,162.5,103.7z M98.9,101.7h62.6V78.2H98.9V101.7z"/>
		<path class="st1" d="M243.5,103.7h-64.6c-0.6,0-1-0.4-1-1V77.2c0-0.6,0.4-1,1-1h64.6c0.6,0,1,0.4,1,1v25.5
			C244.5,103.3,244.1,103.7,243.5,103.7z M179.9,101.7h62.6V78.2h-62.6V101.7z"/>
		<path class="st1" d="M82.3,116.6H57.4c-0.6,0-1,0.4-1,1v25.5c0,0.6,0.4,1,1,1h24.9c0.6,0,1-0.4,1-1v-25.5
			C83.3,117,82.9,116.6,82.3,116.6z"/>
		<path class="st1" d="M162.5,144.1H97.9c-0.6,0-1-0.4-1-1v-25.5c0-0.6,0.4-1,1-1h64.6c0.6,0,1,0.4,1,1v25.5
			C163.5,143.7,163.1,144.1,162.5,144.1z M98.9,142.1h62.6v-23.5H98.9V142.1z"/>
		<path class="st1" d="M243.5,144.1h-64.6c-0.6,0-1-0.4-1-1v-25.5c0-0.6,0.4-1,1-1h64.6c0.6,0,1,0.4,1,1v25.5
			C244.5,143.7,244.1,144.1,243.5,144.1z M179.9,142.1h62.6v-23.5h-62.6V142.1z"/>
		<path class="st1" d="M82.3,157H57.4c-0.6,0-1,0.4-1,1v25.4c0,0.6,0.4,1,1,1h24.9c0.6,0,1-0.4,1-1V158
			C83.3,157.4,82.9,157,82.3,157z"/>
		<path class="st1" d="M162.5,184.4H97.9c-0.6,0-1-0.4-1-1V158c0-0.6,0.4-1,1-1h64.6c0.6,0,1,0.4,1,1v25.4
			C163.5,184,163.1,184.4,162.5,184.4z M98.9,182.4h62.6V159H98.9V182.4z"/>
		<path class="st1" d="M243.5,184.4h-64.6c-0.6,0-1-0.4-1-1V158c0-0.6,0.4-1,1-1h64.6c0.6,0,1,0.4,1,1v25.4
			C244.5,184,244.1,184.4,243.5,184.4z M179.9,182.4h62.6V159h-62.6V182.4z"/>
		<path class="st1" d="M82.3,224.8H57.4c-0.6,0-1-0.4-1-1v-25.4c0-0.6,0.4-1,1-1h24.9c0.6,0,1,0.4,1,1v25.4
			C83.3,224.4,82.9,224.8,82.3,224.8z M58.4,222.8h22.9v-23.4H58.4V222.8z"/>
		<path class="st1" d="M162.5,224.8H97.9c-0.6,0-1-0.4-1-1v-25.4c0-0.6,0.4-1,1-1h64.6c0.6,0,1,0.4,1,1v25.4
			C163.5,224.4,163.1,224.8,162.5,224.8z M98.9,222.8h62.6v-23.4H98.9V222.8z"/>
		<path class="st1" d="M243.5,224.8h-64.6c-0.6,0-1-0.4-1-1v-25.4c0-0.6,0.4-1,1-1h64.6c0.6,0,1,0.4,1,1v25.4
			C244.5,224.4,244.1,224.8,243.5,224.8z M179.9,222.8h62.6v-23.4h-62.6V222.8z"/>
		<path class="st0" d="M68.5,96.5c-0.3,0-0.5-0.1-0.7-0.3l-5-5.3c-0.4-0.4-0.4-1,0-1.4s1-0.4,1.4,0l4.2,4.4l7.1-10.2
			c0.3-0.5,0.9-0.6,1.4-0.2c0.5,0.3,0.6,0.9,0.2,1.4l-7.8,11.2C69.1,96.3,68.9,96.5,68.5,96.5L68.5,96.5z"/>
		<path class="st0" d="M68.5,136.9c-0.3,0-0.5-0.1-0.7-0.3l-5-5.3c-0.4-0.4-0.4-1,0-1.4s1-0.4,1.4,0l4.2,4.4l7.1-10.2
			c0.3-0.5,0.9-0.6,1.4-0.2c0.5,0.3,0.6,0.9,0.2,1.4l-7.8,11.2C69.1,136.7,68.9,136.9,68.5,136.9L68.5,136.9z"/>
		<path class="st0" d="M68.5,177.3c-0.3,0-0.5-0.1-0.7-0.3l-5-5.3c-0.4-0.4-0.4-1,0-1.4s1-0.4,1.4,0l4.2,4.4l7.1-10.2
			c0.3-0.5,0.9-0.6,1.4-0.2c0.5,0.3,0.6,0.9,0.2,1.4l-7.8,11.2C69.1,177.1,68.9,177.3,68.5,177.3L68.5,177.3z"/>
	</g>
</g>
</svg>
