<?xml version="1.0" encoding="utf-8"?>
<!-- Generator: Adobe Illustrator 22.0.1, SVG Export Plug-In . SVG Version: 6.00 Build 0)  -->
<svg version="1.1" id="Layer_1" xmlns="http://www.w3.org/2000/svg" xmlns:xlink="http://www.w3.org/1999/xlink" x="0px" y="0px"
	 viewBox="0 0 301 301" style="enable-background:new 0 0 301 301;" xml:space="preserve">
<style type="text/css">
	.st0{opacity:0;fill:#FFFFFF;}
	.st1{fill:#FFFFFF;}
	.st2{opacity:0.1;}
</style>
<title>icon-quick-mass-approval</title>
<g>
	<path class="st0" d="M301,301H0V0h301V301z M1,300h299V1H1V300z"/>
	<g>
		<path class="st1" d="M142.6,92.7h-36.2c-0.6,0-1-0.4-1-1s0.4-1,1-1h36.2c0.6,0,1,0.4,1,1S143.2,92.7,142.6,92.7z"/>
		<path class="st1" d="M91.6,92.7H55.3c-0.6,0-1-0.4-1-1s0.4-1,1-1h36.3c0.6,0,1,0.4,1,1S92.2,92.7,91.6,92.7z"/>
		<path class="st1" d="M142.6,122.1h-36.2c-0.6,0-1-0.4-1-1s0.4-1,1-1h36.2c0.6,0,1,0.4,1,1S143.2,122.1,142.6,122.1z"/>
		<path class="st1" d="M91.6,122.1H55.3c-0.6,0-1-0.4-1-1s0.4-1,1-1h36.3c0.6,0,1,0.4,1,1S92.2,122.1,91.6,122.1z"/>
		<path class="st1" d="M142.6,151.5h-36.2c-0.6,0-1-0.4-1-1s0.4-1,1-1h36.2c0.6,0,1,0.4,1,1S143.2,151.5,142.6,151.5z"/>
		<path class="st1" d="M91.6,151.5H55.3c-0.6,0-1-0.4-1-1s0.4-1,1-1h36.3c0.6,0,1,0.4,1,1S92.2,151.5,91.6,151.5z"/>
		<path class="st1" d="M142.6,180.9h-36.2c-0.6,0-1-0.4-1-1s0.4-1,1-1h36.2c0.6,0,1,0.4,1,1S143.2,180.9,142.6,180.9z"/>
		<path class="st1" d="M91.6,180.9H55.3c-0.6,0-1-0.4-1-1s0.4-1,1-1h36.3c0.6,0,1,0.4,1,1S92.2,180.9,91.6,180.9z"/>
		<path class="st1" d="M142.6,210.3h-36.2c-0.6,0-1-0.4-1-1s0.4-1,1-1h36.2c0.6,0,1,0.4,1,1S143.2,210.3,142.6,210.3z"/>
		<path class="st1" d="M91.6,210.3H55.3c-0.6,0-1-0.4-1-1s0.4-1,1-1h36.3c0.6,0,1,0.4,1,1S92.2,210.3,91.6,210.3z"/>
		<g>
			<path class="st1" d="M189.2,81.9h-27.3c-3.5,0-6.4,2.9-6.4,6.4v6.9c0,3.5,2.9,6.4,6.4,6.4h27.3c3.5,0,6.4-2.9,6.4-6.4v-6.9
				C195.6,84.8,192.7,81.9,189.2,81.9z M193.6,95.2c0,2.5-1.9,4.4-4.4,4.4h-27.3c-2.4,0-4.4-2-4.4-4.4v-6.9c0-2.4,2-4.4,4.4-4.4
				h27.3c2.4,0,4.4,2,4.4,4.4V95.2z"/>
			<path class="st1" d="M240.2,81.9h-27.3c-3.5,0-6.4,2.9-6.4,6.4v6.9c0,3.5,2.9,6.4,6.4,6.4h27.3c1.8,0,3.5-0.7,4.7-2
				c1.2-1.2,1.8-2.8,1.7-4.4v-6.9C246.6,84.8,243.7,81.9,240.2,81.9z"/>
			<path class="st1" d="M189.2,111.3h-27.3c-3.5,0-6.4,2.9-6.4,6.4v6.9c0,3.5,2.9,6.4,6.4,6.4h27.3c3.5,0,6.4-2.9,6.4-6.4v-6.9
				C195.6,114.2,192.7,111.3,189.2,111.3z M193.6,124.6c0,2.5-1.9,4.4-4.4,4.4h-27.3c-2.4,0-4.4-2-4.4-4.4v-6.9c0-2.4,2-4.4,4.4-4.4
				h27.3c2.4,0,4.4,2,4.4,4.4V124.6z"/>
			<path class="st1" d="M240.2,111.3h-27.3c-3.5,0-6.4,2.9-6.4,6.4v6.9c0,3.5,2.9,6.4,6.4,6.4h27.3c1.8,0,3.5-0.7,4.7-2
				c1.2-1.2,1.8-2.8,1.7-4.4v-6.9C246.6,114.2,243.7,111.3,240.2,111.3z"/>
			<path class="st1" d="M189.2,140.6h-27.3c-3.5,0-6.4,2.9-6.4,6.4v7c0,3.5,2.9,6.4,6.4,6.4h27.3c3.6,0,6.4-2.9,6.4-6.5V147
				C195.6,143.5,192.7,140.6,189.2,140.6z"/>
			<path class="st1" d="M240.2,140.6h-27.3c-3.5,0-6.4,2.9-6.4,6.4v7c0,3.5,2.9,6.4,6.4,6.4h27.3c1.7,0,3.4-0.7,4.6-2
				c1.2-1.2,1.8-2.9,1.8-4.5V147C246.6,143.5,243.7,140.6,240.2,140.6z M243.4,157.1c-0.8,0.9-2,1.3-3.2,1.3h-27.3
				c-2.4,0-4.4-2-4.4-4.4v-7c0-2.4,2-4.4,4.4-4.4h27.3c2.4,0,4.4,2,4.4,4.4l0,6.9C244.6,155.1,244.2,156.2,243.4,157.1z"/>
			<path class="st1" d="M189.2,170.1h-27.3c-3.5,0-6.4,2.9-6.4,6.4v6.9c0,3.5,2.9,6.4,6.4,6.4h27.3c3.5,0,6.4-2.9,6.4-6.4v-6.9
				C195.6,173,192.7,170.1,189.2,170.1z M193.6,183.4c0,2.5-1.9,4.4-4.4,4.4h-27.3c-2.4,0-4.4-2-4.4-4.4v-6.9c0-2.4,2-4.4,4.4-4.4
				h27.3c2.4,0,4.4,2,4.4,4.4V183.4z"/>
			<path class="st1" d="M240.2,170.1h-27.3c-3.5,0-6.4,2.9-6.4,6.4v6.9c0,3.5,2.9,6.4,6.4,6.4h27.3c1.8,0,3.5-0.7,4.7-2
				c1.2-1.2,1.8-2.8,1.7-4.4v-6.9C246.6,173,243.7,170.1,240.2,170.1z"/>
			<path class="st1" d="M189.2,199.5h-27.3c-3.5,0-6.4,2.9-6.4,6.4v6.9c0,3.5,2.9,6.4,6.4,6.4h27.3c3.5,0,6.4-2.9,6.4-6.4v-6.9
				C195.6,202.4,192.7,199.5,189.2,199.5z"/>
			<path class="st1" d="M240.2,199.5h-27.3c-3.5,0-6.4,2.9-6.4,6.4v6.9c0,3.5,2.9,6.4,6.4,6.4h27.3c1.8,0,3.5-0.7,4.7-2
				c1.2-1.2,1.8-2.8,1.7-4.4v-6.9C246.6,202.4,243.7,199.5,240.2,199.5z M243.4,215.8c-0.8,0.9-2,1.4-3.2,1.4h-27.3
				c-2.4,0-4.4-2-4.4-4.4v-6.9c0-2.4,2-4.4,4.4-4.4h27.3c2.4,0,4.4,2,4.4,4.4l0,6.9C244.6,214,244.2,215,243.4,215.8z"/>
		</g>
		<g class="st2">
			<path class="st1" d="M189.2,100.6h-27.3c-3,0-5.4-2.5-5.4-5.4v-6.9c0-3,2.5-5.4,5.4-5.4h27.3c3,0,5.4,2.5,5.4,5.4v6.9
				C194.6,98.2,192.2,100.6,189.2,100.6z"/>
			<path class="st1" d="M189.2,130h-27.3c-3,0-5.4-2.5-5.4-5.4v-6.9c0-3,2.5-5.4,5.4-5.4h27.3c3,0,5.4,2.5,5.4,5.4v6.9
				C194.6,127.6,192.2,130,189.2,130z"/>
			<path class="st1" d="M240.2,159.4h-27.3c-3,0-5.4-2.5-5.4-5.4v-7c0-3,2.5-5.4,5.4-5.4h27.3c3,0,5.4,2.5,5.4,5.4v6.9
				C245.7,157,243.2,159.4,240.2,159.4z"/>
			<path class="st1" d="M189.2,188.8h-27.3c-3,0-5.4-2.5-5.4-5.4v-6.9c0-3,2.5-5.4,5.4-5.4h27.3c3,0,5.4,2.5,5.4,5.4v6.9
				C194.6,186.4,192.2,188.8,189.2,188.8z"/>
			<path class="st1" d="M240.2,218.2h-27.3c-3,0-5.4-2.5-5.4-5.4v-6.9c0-3,2.5-5.4,5.4-5.4h27.3c3,0,5.4,2.5,5.4,5.4v6.9
				C245.7,215.8,243.2,218.2,240.2,218.2z"/>
		</g>
	</g>
</g>
</svg>
