<?xml version="1.0" encoding="utf-8"?>
<!-- Generator: Adobe Illustrator 22.0.1, SVG Export Plug-In . SVG Version: 6.00 Build 0)  -->
<svg version="1.1" id="Layer_1" xmlns="http://www.w3.org/2000/svg" xmlns:xlink="http://www.w3.org/1999/xlink" x="0px" y="0px"
	 viewBox="0 0 230.1 244.4" style="enable-background:new 0 0 230.1 244.4;" xml:space="preserve">
<style type="text/css">
	.st0{fill:none;stroke:#000000;stroke-miterlimit:10;}
	.st1{fill:none;stroke:#000000;stroke-width:3;stroke-miterlimit:10;}
	.st2{opacity:0.15;fill:#707D91;enable-background:new    ;}
</style>
<title>icon-time-market</title>
<g>
	<g>
		<line class="st0" x1="119.2" y1="44.8" x2="119.2" y2="58.4"/>
		<line class="st0" x1="119.2" y1="207.8" x2="119.2" y2="221.3"/>
		<line class="st0" x1="207.5" y1="133.1" x2="194" y2="133.1"/>
		<line class="st0" x1="44.5" y1="133.1" x2="31" y2="133.1"/>
		<line class="st0" x1="181.6" y1="195.5" x2="172" y2="185.9"/>
		<line class="st0" x1="66.4" y1="80.3" x2="56.9" y2="70.7"/>
		<line class="st0" x1="56.9" y1="195.5" x2="66.4" y2="185.9"/>
		<line class="st0" x1="172" y1="80.3" x2="181.6" y2="70.7"/>
	</g>
	<g>
		<path d="M133.3,144.2c0-3.3-1.1-6-3.3-8.1c-2.1-2.1-5.9-4.1-11.4-6c-6.7-2.1-11.4-4.6-14.2-7.5c-2.8-2.9-4.1-6.7-4.1-11.3
			c0-4.9,1.4-8.8,4.5-11.8s7.1-4.7,12.2-5.1v-9.1h4.6v9.1c5.3,0.5,9.3,2.5,12.2,5.9c2.9,3.4,4.3,8.1,4.3,14.1h-5.4
			c0-4.7-1.2-8.4-3.7-11.2c-2.4-2.9-5.6-4.2-9.8-4.2c-4.2,0-7.5,1.1-10,3.3c-2.4,2.2-3.5,5.3-3.5,8.9c0,3.5,1.1,6.4,3.3,8.4
			c2.2,2,5.9,3.9,11.2,5.6c5.3,1.8,9.1,3.5,11.4,5.1c2.4,1.6,4.2,3.5,5.4,5.8c1.2,2.2,1.7,4.9,1.7,8c0,4.9-1.6,8.8-4.6,11.8
			c-3,3-7.2,4.7-12.6,5.1v8.5H117v-8.4c-6-0.4-10.6-2.2-13.9-5.6c-3.3-3.4-5-8-5-13.9h5.4c0,4.6,1.3,8.3,4.1,10.9
			c2.8,2.6,6.6,3.9,11.4,3.9c4.2,0,7.7-1.2,10.4-3.4C132,150.8,133.3,147.9,133.3,144.2z"/>
	</g>
	<path class="st1" d="M9.2,133.1c0,60.7,49.1,109.8,109.8,109.8s109.7-49.2,109.7-109.8S179.5,23.3,118.8,23.3h-4.5"/>
	<path class="st2" d="M177.5,39.2l5.1-6.6c0.7-0.8,1.8-1.1,2.6-0.4l15,11.7c0.8,0.7,0.9,1.8,0.3,2.8l-5.1,6.6L177.5,39.2z"/>
	<path class="st2" d="M124.1,11.9h-7.7c-1.1,0-1.8,0.8-1.8,1.8v7.7c0,1.1,0.8,1.8,1.8,1.8h7.7c1.1,0,1.8-0.8,1.8-1.8v-7.7
		C125.9,12.7,125.1,11.9,124.1,11.9z"/>
	<path class="st2" d="M133.7,11.7h-26.9c-0.7,0-1.2-0.5-1.2-1.2V2.7c0-0.7,0.5-1.2,1.2-1.2h26.9c0.7,0,1.2,0.5,1.2,1.2v7.9
		C134.9,11.2,134.3,11.7,133.7,11.7z"/>
	<polygon points="8.7,124.4 0,141.5 19.2,140.4 	"/>
	<path class="st1" d="M177.5,39.2l5.1-6.6c0.7-0.8,1.8-1.1,2.6-0.4l15,11.7c0.8,0.7,0.9,1.8,0.3,2.8l-5.1,6.6"/>
	<path class="st1" d="M124.1,11.9h-7.7c-1.1,0-1.8,0.8-1.8,1.8v7.7c0,1.1,0.8,1.8,1.8,1.8h7.7c1.1,0,1.8-0.8,1.8-1.8v-7.7
		C125.9,12.7,125.1,11.9,124.1,11.9z"/>
	<path class="st1" d="M133.7,11.7h-26.9c-0.7,0-1.2-0.5-1.2-1.2V2.7c0-0.7,0.5-1.2,1.2-1.2h26.9c0.7,0,1.2,0.5,1.2,1.2v7.9
		C134.9,11.2,134.3,11.7,133.7,11.7z"/>
</g>
</svg>
