<?xml version="1.0" encoding="utf-8"?>
<!-- Generator: Adobe Illustrator 22.0.1, SVG Export Plug-In . SVG Version: 6.00 Build 0)  -->
<svg version="1.1" id="Layer_1" xmlns="http://www.w3.org/2000/svg" xmlns:xlink="http://www.w3.org/1999/xlink" x="0px" y="0px"
	 viewBox="0 0 140 84" style="enable-background:new 0 0 140 84;" xml:space="preserve">
<style type="text/css">
	.st0{fill:#FFFFFF;}
	.st1{fill:none;stroke:#000000;stroke-width:3;stroke-linecap:round;stroke-linejoin:round;stroke-miterlimit:10;}
	.st2{fill:#FFFFFF;stroke:#000000;stroke-width:3;stroke-linecap:round;stroke-linejoin:round;stroke-miterlimit:10;}
	.st3{fill:none;stroke:#000000;stroke-linecap:round;stroke-linejoin:round;stroke-miterlimit:10;}
	.st4{fill:#E2E5E9;stroke:#000000;stroke-linecap:round;stroke-linejoin:round;stroke-miterlimit:10;}
</style>
<title>icon-doc</title>
<rect class="st0" width="140" height="84"/>
<g>
	<path class="st1" d="M63.8,54H33.1c-2.2,0-4-1.8-4-4V7.2c0-2.2,1.8-4,4-4h30.8c2.2,0,4,1.8,4,4V50C67.8,52.2,66,54,63.8,54z"/>
	<path class="st2" d="M73.9,64.1H43.1c-2.2,0-4-1.8-4-4V17.2c0-2.2,1.8-4,4-4h30.8c2.2,0,4,1.8,4,4v42.8
		C77.9,62.3,76.1,64.1,73.9,64.1z"/>
	<g>
		<line class="st3" x1="46.4" y1="26.6" x2="70.5" y2="26.6"/>
		<line class="st3" x1="46.4" y1="38.7" x2="70.5" y2="38.7"/>
		<line class="st3" x1="46.4" y1="50.7" x2="70.5" y2="50.7"/>
	</g>
	<g>
		<g>
			<circle class="st4" cx="106.5" cy="42.1" r="5.5"/>
		</g>
		<line class="st3" x1="69.1" y1="75.6" x2="74.3" y2="66.9"/>
		<line class="st3" x1="94.8" y1="72.6" x2="84.2" y2="64.8"/>
		<line class="st3" x1="102" y1="45.4" x2="84.5" y2="55.9"/>
		<circle class="st4" cx="97.4" cy="74.5" r="3.4"/>
		<circle class="st4" cx="67.5" cy="78.4" r="3.4"/>
		<circle class="st4" cx="77.9" cy="60.2" r="7.7"/>
	</g>
</g>
</svg>
