<svg xmlns="http://www.w3.org/2000/svg" viewBox="0 0 160.49 121.98"><defs><style>.cls-1{fill:none;}.cls-1,.cls-2,.cls-3{stroke:#000;stroke-miterlimit:10;}.cls-2{fill:#e2e5e9;}.cls-2,.cls-3{stroke-width:3px;}</style></defs><title>icon-services-training</title><g id="Layer_2" data-name="Layer 2"><g id="Layer_1-2" data-name="Layer 1"><polyline class="cls-1" points="8.49 114.49 49.49 110.49 98.49 91.49 130.49 53.49 153.49 7.49"/><circle class="cls-2" cx="7.49" cy="114.49" r="5.99"/><circle class="cls-2" cx="49.49" cy="110.49" r="5.99"/><circle class="cls-2" cx="98.49" cy="91.49" r="5.99"/><circle class="cls-3" cx="130.5" cy="52.49" r="5.99"/><circle class="cls-2" cx="153" cy="7.49" r="5.99"/><path d="M87.05,29.21c-.1-.09-.3-.1-.72-.13-1.62-.09-3.31-.14-5.07-.14a22.5,22.5,0,0,0-6.72.9,15.43,15.43,0,0,0-5.07,2.7,19.66,19.66,0,0,0-4,4.45A49.8,49.8,0,0,0,62,43.11l-.69,1.42a36.28,36.28,0,0,0-2.41,6.1,6.81,6.81,0,0,0-.11,4,4.1,4.1,0,0,0,2.29,2.7,7.65,7.65,0,0,0,4.28.9c1,0,2,0,3.06-.11A14,14,0,0,0,71,57.71L75.79,48H68.68c-.6,0-.77-.28-.49-.85l2-4.35a1.5,1.5,0,0,1,1.33-.91H84.4c.6,0,.76.3.47.9L76.46,60.25a5,5,0,0,1-3.32,2.83C53.82,68.63,49,57.28,51.3,50.72c1.38-3.91,5.48-13.64,7.29-16.06a30,30,0,0,1,6.13-6.15,20,20,0,0,1,7.2-3.74C58.67,25.7,46.81,35.48,43.5,47.41,40,60,48,70.13,61.28,70.14S88.19,60,91.67,47.42C93.74,40,91.77,33.35,87.05,29.21Z"/></g></g></svg>