<?xml version="1.0" encoding="utf-8"?>
<!-- Generator: Adobe Illustrator 22.0.1, SVG Export Plug-In . SVG Version: 6.00 Build 0)  -->
<svg version="1.1" id="Layer_1" xmlns="http://www.w3.org/2000/svg" xmlns:xlink="http://www.w3.org/1999/xlink" x="0px" y="0px"
	 viewBox="0 0 280 180.1" style="enable-background:new 0 0 280 180.1;" xml:space="preserve">
<style type="text/css">
	.st0{fill:none;stroke:#000000;stroke-width:3;stroke-miterlimit:10;}
	.st1{opacity:0.15;}
	.st2{fill:#707D91;}
	.st3{fill:none;stroke:#000000;stroke-miterlimit:10;}
</style>
<title>icon-agility</title>
<g>
	<circle cx="132.5" cy="76.4" r="8.7"/>
	<g>
		<path d="M0,10.1v-10h2.8c0.9,0,1.6,0.2,2.3,0.6s1.2,0.9,1.5,1.6s0.5,1.5,0.6,2.4v0.6c0,0.9-0.2,1.8-0.5,2.5S5.8,9.1,5.1,9.5
			s-1.5,0.6-2.3,0.6H0z M1.3,1.2V9h1.4c1,0,1.8-0.3,2.4-0.9c0.6-0.6,0.8-1.5,0.8-2.7V4.8c0-1.1-0.3-2-0.8-2.6
			c-0.5-0.6-1.3-0.9-2.3-1H1.3z"/>
		<path d="M12.1,10.2c-1,0-1.8-0.3-2.4-1C9,8.6,8.7,7.7,8.7,6.6V6.4c0-0.7,0.1-1.4,0.4-2c0.3-0.6,0.7-1,1.2-1.4
			c0.5-0.3,1-0.5,1.6-0.5c1,0,1.7,0.3,2.2,1S15,5,15,6.2v0.5h-5c0,0.7,0.2,1.3,0.6,1.8C11,9,11.5,9.2,12.1,9.2
			c0.4,0,0.8-0.1,1.1-0.3s0.6-0.4,0.8-0.7l0.8,0.6C14.2,9.7,13.3,10.2,12.1,10.2z M11.9,3.6c-0.5,0-0.9,0.2-1.3,0.6
			C10.3,4.5,10.1,5,10,5.7h3.7V5.6c0-0.6-0.2-1.1-0.5-1.5C12.9,3.8,12.4,3.6,11.9,3.6z"/>
		<path d="M20.7,8.1c0-0.3-0.1-0.6-0.4-0.8C20.1,7.1,19.6,7,19,6.8s-1.1-0.3-1.5-0.5s-0.7-0.4-0.8-0.7s-0.3-0.6-0.3-0.9
			c0-0.6,0.3-1.1,0.8-1.5s1.2-0.6,2-0.6c0.8,0,1.5,0.2,2,0.6c0.5,0.4,0.8,1,0.8,1.7h-1.3c0-0.3-0.1-0.6-0.4-0.9s-0.7-0.4-1.1-0.4
			c-0.5,0-0.8,0.1-1.1,0.3s-0.4,0.5-0.4,0.8c0,0.3,0.1,0.5,0.4,0.7s0.7,0.3,1.3,0.4s1.1,0.3,1.5,0.5c0.4,0.2,0.7,0.4,0.9,0.7
			C21.9,7.3,22,7.6,22,8c0,0.7-0.3,1.2-0.8,1.6c-0.5,0.4-1.2,0.6-2.1,0.6c-0.6,0-1.1-0.1-1.6-0.3S16.8,9.4,16.5,9
			c-0.3-0.4-0.4-0.8-0.4-1.2h1.3c0,0.4,0.2,0.8,0.5,1c0.3,0.2,0.7,0.4,1.3,0.4c0.5,0,0.9-0.1,1.2-0.3C20.6,8.7,20.7,8.4,20.7,8.1z"
			/>
		<path d="M23.6,0.7c0-0.2,0.1-0.4,0.2-0.5C24,0.1,24.1,0,24.4,0s0.4,0.1,0.6,0.2c0.1,0.1,0.2,0.3,0.2,0.5S25.1,1.1,25,1.2
			c-0.1,0.1-0.3,0.2-0.6,0.2S24,1.4,23.8,1.2C23.7,1.1,23.6,0.9,23.6,0.7z M25,10.1h-1.3V2.7H25V10.1z"/>
		<path d="M26.7,6.3c0-1.2,0.3-2.1,0.8-2.8c0.5-0.7,1.2-1,2.1-1c0.9,0,1.6,0.3,2.1,1l0.1-0.8H33v7.2c0,1-0.3,1.7-0.9,2.3
			S30.8,13,29.9,13c-0.5,0-1.1-0.1-1.6-0.3c-0.5-0.2-0.9-0.5-1.2-0.9l0.7-0.8c0.5,0.7,1.2,1,2,1c0.6,0,1.1-0.2,1.4-0.5
			c0.3-0.3,0.5-0.8,0.5-1.5V9.3c-0.5,0.6-1.2,0.9-2.1,0.9c-0.9,0-1.6-0.3-2.1-1C27,8.5,26.7,7.5,26.7,6.3z M28,6.5
			c0,0.8,0.2,1.5,0.5,2c0.3,0.5,0.8,0.7,1.4,0.7c0.8,0,1.4-0.4,1.8-1.1V4.7c-0.4-0.7-1-1.1-1.7-1.1c-0.6,0-1.1,0.2-1.4,0.7
			C28.2,4.8,28,5.5,28,6.5z"/>
		<path d="M36.1,2.7l0,0.9c0.6-0.7,1.3-1.1,2.2-1.1c1.6,0,2.4,0.9,2.4,2.6v4.9h-1.3V5.2c0-0.5-0.1-0.9-0.4-1.2S38.5,3.6,38,3.6
			c-0.4,0-0.8,0.1-1.1,0.3c-0.3,0.2-0.6,0.5-0.7,0.9v5.3h-1.3V2.7H36.1z"/>
	</g>
	<g>
		<path d="M225.2,11.1v-10h3.3c1.1,0,1.9,0.2,2.4,0.7c0.5,0.4,0.8,1.1,0.8,2c0,0.5-0.1,0.9-0.4,1.2c-0.3,0.4-0.6,0.6-1.1,0.8
			c0.5,0.2,1,0.4,1.3,0.9c0.3,0.4,0.5,0.9,0.5,1.5c0,0.9-0.3,1.6-0.9,2.1c-0.6,0.5-1.4,0.8-2.5,0.8H225.2z M226.5,5.4h2
			c0.6,0,1-0.1,1.4-0.4c0.3-0.3,0.5-0.7,0.5-1.2c0-0.5-0.2-0.9-0.5-1.2c-0.3-0.2-0.8-0.4-1.5-0.4h-1.9V5.4z M226.5,6.4V10h2.2
			c0.6,0,1.1-0.2,1.4-0.5c0.4-0.3,0.5-0.8,0.5-1.3c0-1.2-0.7-1.8-2-1.8H226.5z"/>
		<path d="M238.3,10.4c-0.5,0.6-1.2,0.9-2.2,0.9c-0.8,0-1.4-0.2-1.8-0.7c-0.4-0.5-0.6-1.1-0.6-2V3.7h1.3v4.8c0,1.1,0.5,1.7,1.4,1.7
			c1,0,1.6-0.4,1.9-1.1V3.7h1.3v7.4h-1.2L238.3,10.4z"/>
		<path d="M245.7,9.1c0-0.3-0.1-0.6-0.4-0.8c-0.3-0.2-0.7-0.4-1.3-0.5c-0.6-0.1-1.1-0.3-1.5-0.5s-0.7-0.4-0.8-0.7
			c-0.2-0.3-0.3-0.6-0.3-0.9c0-0.6,0.3-1.1,0.8-1.5s1.2-0.6,2-0.6c0.8,0,1.5,0.2,2,0.6c0.5,0.4,0.8,1,0.8,1.7h-1.3
			c0-0.3-0.1-0.6-0.4-0.9s-0.7-0.4-1.1-0.4c-0.5,0-0.8,0.1-1.1,0.3s-0.4,0.5-0.4,0.8c0,0.3,0.1,0.5,0.4,0.7c0.2,0.2,0.7,0.3,1.3,0.4
			c0.6,0.1,1.1,0.3,1.5,0.5c0.4,0.2,0.7,0.4,0.9,0.7c0.2,0.3,0.3,0.6,0.3,1c0,0.7-0.3,1.2-0.8,1.6c-0.5,0.4-1.2,0.6-2.1,0.6
			c-0.6,0-1.1-0.1-1.6-0.3c-0.5-0.2-0.8-0.5-1.1-0.9c-0.3-0.4-0.4-0.8-0.4-1.2h1.3c0,0.4,0.2,0.8,0.5,1c0.3,0.2,0.7,0.4,1.3,0.4
			c0.5,0,0.9-0.1,1.2-0.3C245.6,9.7,245.7,9.4,245.7,9.1z"/>
		<path d="M248.7,1.7c0-0.2,0.1-0.4,0.2-0.5c0.1-0.1,0.3-0.2,0.6-0.2s0.4,0.1,0.6,0.2c0.1,0.1,0.2,0.3,0.2,0.5s-0.1,0.4-0.2,0.5
			c-0.1,0.1-0.3,0.2-0.6,0.2s-0.4-0.1-0.6-0.2C248.7,2.1,248.7,1.9,248.7,1.7z M250,11.1h-1.3V3.7h1.3V11.1z"/>
		<path d="M253.2,3.7l0,0.9c0.6-0.7,1.3-1.1,2.2-1.1c1.6,0,2.4,0.9,2.4,2.6v4.9h-1.3V6.2c0-0.5-0.1-0.9-0.4-1.2s-0.6-0.4-1.1-0.4
			c-0.4,0-0.8,0.1-1.1,0.3c-0.3,0.2-0.6,0.5-0.7,0.9v5.3H252V3.7H253.2z"/>
		<path d="M262.8,11.2c-1,0-1.8-0.3-2.4-1c-0.6-0.7-0.9-1.5-0.9-2.6V7.4c0-0.7,0.1-1.4,0.4-2c0.3-0.6,0.7-1,1.2-1.4
			c0.5-0.3,1-0.5,1.6-0.5c1,0,1.7,0.3,2.2,1s0.8,1.5,0.8,2.7v0.5h-5c0,0.7,0.2,1.3,0.6,1.8c0.4,0.4,0.9,0.7,1.6,0.7
			c0.4,0,0.8-0.1,1.1-0.3c0.3-0.2,0.6-0.4,0.8-0.7l0.8,0.6C265,10.7,264.1,11.2,262.8,11.2z M262.7,4.6c-0.5,0-0.9,0.2-1.3,0.6
			c-0.3,0.4-0.6,0.9-0.6,1.6h3.7V6.6c0-0.6-0.2-1.1-0.5-1.5C263.6,4.8,263.2,4.6,262.7,4.6z"/>
		<path d="M271.5,9.1c0-0.3-0.1-0.6-0.4-0.8c-0.3-0.2-0.7-0.4-1.3-0.5c-0.6-0.1-1.1-0.3-1.5-0.5s-0.7-0.4-0.8-0.7
			c-0.2-0.3-0.3-0.6-0.3-0.9c0-0.6,0.3-1.1,0.8-1.5s1.2-0.6,2-0.6c0.8,0,1.5,0.2,2,0.6c0.5,0.4,0.8,1,0.8,1.7h-1.3
			c0-0.3-0.1-0.6-0.4-0.9s-0.7-0.4-1.1-0.4c-0.5,0-0.8,0.1-1.1,0.3s-0.4,0.5-0.4,0.8c0,0.3,0.1,0.5,0.4,0.7c0.2,0.2,0.7,0.3,1.3,0.4
			c0.6,0.1,1.1,0.3,1.5,0.5c0.4,0.2,0.7,0.4,0.9,0.7c0.2,0.3,0.3,0.6,0.3,1c0,0.7-0.3,1.2-0.8,1.6c-0.5,0.4-1.2,0.6-2.1,0.6
			c-0.6,0-1.1-0.1-1.6-0.3c-0.5-0.2-0.8-0.5-1.1-0.9c-0.3-0.4-0.4-0.8-0.4-1.2h1.3c0,0.4,0.2,0.8,0.5,1c0.3,0.2,0.7,0.4,1.3,0.4
			c0.5,0,0.9-0.1,1.2-0.3C271.3,9.7,271.5,9.4,271.5,9.1z"/>
		<path d="M278.7,9.1c0-0.3-0.1-0.6-0.4-0.8c-0.3-0.2-0.7-0.4-1.3-0.5c-0.6-0.1-1.1-0.3-1.5-0.5s-0.7-0.4-0.8-0.7
			c-0.2-0.3-0.3-0.6-0.3-0.9c0-0.6,0.3-1.1,0.8-1.5s1.2-0.6,2-0.6c0.8,0,1.5,0.2,2,0.6c0.5,0.4,0.8,1,0.8,1.7h-1.3
			c0-0.3-0.1-0.6-0.4-0.9s-0.7-0.4-1.1-0.4c-0.5,0-0.8,0.1-1.1,0.3s-0.4,0.5-0.4,0.8c0,0.3,0.1,0.5,0.4,0.7c0.2,0.2,0.7,0.3,1.3,0.4
			c0.6,0.1,1.1,0.3,1.5,0.5c0.4,0.2,0.7,0.4,0.9,0.7c0.2,0.3,0.3,0.6,0.3,1c0,0.7-0.3,1.2-0.8,1.6c-0.5,0.4-1.2,0.6-2.1,0.6
			c-0.6,0-1.1-0.1-1.6-0.3c-0.5-0.2-0.8-0.5-1.1-0.9c-0.3-0.4-0.4-0.8-0.4-1.2h1.3c0,0.4,0.2,0.8,0.5,1c0.3,0.2,0.7,0.4,1.3,0.4
			c0.5,0,0.9-0.1,1.2-0.3C278.6,9.7,278.7,9.4,278.7,9.1z"/>
	</g>
	<g>
		<path d="M89.2,166H86v8.9h-1.3V166h-3.2v-1.1h7.7V166z"/>
		<path d="M92.8,175c-1,0-1.8-0.3-2.4-1c-0.6-0.7-0.9-1.5-0.9-2.6v-0.2c0-0.7,0.1-1.4,0.4-2c0.3-0.6,0.7-1,1.2-1.4
			c0.5-0.3,1-0.5,1.6-0.5c1,0,1.7,0.3,2.2,1s0.8,1.5,0.8,2.7v0.5h-5c0,0.7,0.2,1.3,0.6,1.8c0.4,0.4,0.9,0.7,1.6,0.7
			c0.4,0,0.8-0.1,1.1-0.3c0.3-0.2,0.6-0.4,0.8-0.7l0.8,0.6C95,174.5,94.1,175,92.8,175z M92.7,168.3c-0.5,0-0.9,0.2-1.3,0.6
			c-0.3,0.4-0.6,0.9-0.6,1.6h3.7v-0.1c0-0.6-0.2-1.1-0.5-1.5C93.6,168.5,93.2,168.3,92.7,168.3z"/>
		<path d="M100.1,173.9c0.5,0,0.8-0.1,1.2-0.4c0.3-0.3,0.5-0.6,0.6-1h1.2c0,0.4-0.2,0.8-0.4,1.2c-0.3,0.4-0.6,0.7-1.1,0.9
			c-0.4,0.2-0.9,0.3-1.4,0.3c-1,0-1.8-0.3-2.4-1c-0.6-0.7-0.9-1.6-0.9-2.8V171c0-0.7,0.1-1.4,0.4-1.9c0.3-0.6,0.6-1,1.1-1.3
			c0.5-0.3,1.1-0.5,1.8-0.5c0.8,0,1.5,0.2,2.1,0.7c0.5,0.5,0.8,1.1,0.9,1.9h-1.2c0-0.5-0.2-0.9-0.5-1.2c-0.3-0.3-0.7-0.5-1.2-0.5
			c-0.6,0-1.1,0.2-1.5,0.7c-0.4,0.5-0.5,1.1-0.5,2v0.2c0,0.9,0.2,1.5,0.5,2C99,173.7,99.5,173.9,100.1,173.9z"/>
		<path d="M105.8,168.3c0.6-0.7,1.3-1,2.2-1c1.6,0,2.4,0.9,2.4,2.6v4.9h-1.3v-4.9c0-0.5-0.1-0.9-0.4-1.2s-0.6-0.4-1.1-0.4
			c-0.4,0-0.8,0.1-1.1,0.3c-0.3,0.2-0.6,0.5-0.7,0.9v5.3h-1.3v-10.5h1.3V168.3z"/>
	</g>
	<path class="st0" d="M113.2,59.7c0,2.1,0.1,4.2,0.4,6.3C97.9,72.5,86.3,87.1,84,104.6c-17.4-7.4-29.7-24.8-29.7-44.9
		c0-27,21.9-48.8,48.8-48.8c11.1,0,21.3,3.7,29.5,9.9C120.8,29.6,113.2,43.8,113.2,59.7z"/>
	<path class="st0" d="M210.9,59.7c0,20.3-12.4,37.7-30.1,45.1c-2.2-17.4-13.7-32-29.3-38.7c0.3-2.1,0.4-4.2,0.4-6.4
		c0-15.9-7.6-30-19.4-39c8.2-6.2,18.4-9.9,29.4-9.9C189,10.8,210.9,32.7,210.9,59.7z"/>
	<g class="st1">
		<path class="st2" d="M152,59.7c0,2.2-0.1,4.3-0.4,6.4c-5.9-2.5-12.4-3.9-19.2-3.9c-6.6,0-13,1.3-18.8,3.8c-0.3-2-0.4-4.1-0.4-6.3
			c0-15.9,7.6-30,19.4-39C144.4,29.6,152,43.8,152,59.7z"/>
		<path class="st2" d="M180.8,104.8c-5.8,2.4-12.1,3.7-18.8,3.7c-11.1,0-21.3-3.7-29.4-9.9c10.2-7.7,17.2-19.3,18.9-32.5
			C167.2,72.8,178.6,87.3,180.8,104.8z"/>
		<path class="st2" d="M132.6,98.6c-8.2,6.2-18.4,9.9-29.5,9.9c-6.8,0-13.3-1.4-19.2-3.9c2.3-17.5,13.9-32.1,29.6-38.7
			C115.3,79.3,122.4,90.9,132.6,98.6z"/>
	</g>
	<path class="st0" d="M151.6,66.1c-1.7,13.3-8.8,24.8-18.9,32.5c-10.2-7.7-17.3-19.4-19-32.7c5.8-2.4,12.1-3.8,18.8-3.8
		C139.2,62.2,145.7,63.6,151.6,66.1z"/>
	<path class="st0" d="M181.2,111c0,27-21.9,48.8-48.8,48.8S83.6,138,83.6,111c0-2.2,0.1-4.3,0.4-6.4c5.9,2.5,12.4,3.9,19.2,3.9
		c11.1,0,21.3-3.7,29.5-9.9c8.2,6.2,18.4,9.9,29.4,9.9c6.7,0,13-1.3,18.8-3.7C181.1,106.8,181.2,108.9,181.2,111z"/>
	<polyline class="st3" points="204.7,35.5 224.4,15.8 279.7,15.8 	"/>
	<polyline class="st3" points="60.7,35.5 40.9,15.8 0.7,15.8 	"/>
	<polyline class="st3" points="132.3,159.9 112.6,179.6 84.3,179.6 	"/>
	<circle cx="60.5" cy="35.7" r="2.2"/>
	<circle cx="204.7" cy="35.5" r="2.2"/>
	<circle cx="132.4" cy="159.8" r="2.2"/>
</g>
</svg>
