<?xml version="1.0" encoding="utf-8"?>
<!-- Generator: Adobe Illustrator 22.0.1, SVG Export Plug-In . SVG Version: 6.00 Build 0)  -->
<svg version="1.1" id="Layer_1" xmlns="http://www.w3.org/2000/svg" xmlns:xlink="http://www.w3.org/1999/xlink" x="0px" y="0px"
	 viewBox="0 0 140 84" style="enable-background:new 0 0 140 84;" xml:space="preserve">
<style type="text/css">
	.st0{fill:#FFFFFF;}
	.st1{fill:none;stroke:#000000;stroke-width:3;stroke-linecap:round;stroke-linejoin:round;stroke-miterlimit:10;}
	.st2{fill:#FFFFFF;stroke:#000000;stroke-width:3;stroke-linecap:round;stroke-linejoin:round;stroke-miterlimit:10;}
	.st3{fill:#E2E5E9;stroke:#000000;stroke-linecap:round;stroke-linejoin:round;stroke-miterlimit:10;}
	.st4{fill:none;stroke:#000000;stroke-linecap:round;stroke-linejoin:round;stroke-miterlimit:10;}
</style>
<title>icon-webinar</title>
<rect class="st0" width="140" height="84"/>
<g>
	<g>
		<g>
			<path class="st1" d="M73.7,49.2H6.3c-1.7,0-3.1-1.4-3.1-3.1V7.8c0-1.7,1.4-3.1,3.1-3.1h67.3c1.7,0,3.1,1.4,3.1,3.1v38.3
				C76.7,47.8,75.3,49.2,73.7,49.2z"/>
			<line class="st1" x1="40" y1="49.2" x2="40" y2="62.4"/>
			<line class="st1" x1="26.5" y1="62.4" x2="53.4" y2="62.4"/>
		</g>
		<g>
			<path class="st2" d="M133.8,66.1H66.3c-1.7,0-3.1-1.4-3.1-3.1V24.8c0-1.7,1.4-3.1,3.1-3.1h67.3c1.7,0,3.1,1.4,3.1,3.1v38.3
				C136.8,64.7,135.3,66.1,133.8,66.1z"/>
			<line class="st1" x1="100" y1="66.1" x2="100" y2="79.3"/>
			<line class="st1" x1="86.5" y1="79.3" x2="113.4" y2="79.3"/>
		</g>
	</g>
	<g>
		<g>
			<path class="st3" d="M106.4,39.1v-7c0-0.3,0.3-0.6,0.6-0.6H118c0.3,0,0.6,0.3,0.6,0.6v7c0,0.3-0.3,0.6-0.6,0.6h-11.1
				C106.6,39.6,106.4,39.4,106.4,39.1z"/>
			<path class="st3" d="M81.4,47.8v-7c0-0.3,0.3-0.6,0.6-0.6H93c0.3,0,0.6,0.3,0.6,0.6v7c0,0.3-0.3,0.6-0.6,0.6H81.9
				C81.6,48.4,81.4,48.1,81.4,47.8z"/>
			<path class="st3" d="M106.4,55.9v-7c0-0.3,0.3-0.6,0.6-0.6H118c0.3,0,0.6,0.3,0.6,0.6v7c0,0.3-0.3,0.6-0.6,0.6h-11.1
				C106.6,56.5,106.4,56.2,106.4,55.9z"/>
			<line class="st4" x1="93.6" y1="44.3" x2="100" y2="44.3"/>
			<polyline class="st4" points="106.4,36.2 100,36.2 100,52.4 106.4,52.4 			"/>
		</g>
	</g>
</g>
</svg>
