<?xml version="1.0" encoding="utf-8"?>
<!-- Generator: Adobe Illustrator 22.0.1, SVG Export Plug-In . SVG Version: 6.00 Build 0)  -->
<svg version="1.1" id="Layer_1" xmlns="http://www.w3.org/2000/svg" xmlns:xlink="http://www.w3.org/1999/xlink" x="0px" y="0px"
	 viewBox="0 0 301 301" style="enable-background:new 0 0 301 301;" xml:space="preserve">
<style type="text/css">
	.st0{fill:#FFFFFF;}
	.st1{fill:#566066;}
</style>
<g>
	<circle class="st0" cx="150.5" cy="150.5" r="150.5"/>
</g>
<g id="Layer_2_1_">
	<g id="Layer_1-2">
		<path class="st1" d="M144.1,222.8H75.3c-8.3,0-15-6.7-15-15V75.9c0-8.3,6.7-15,15-15H126c0.3,0,0.5,0.1,0.7,0.3l46.2,46.1
			c0.2,0.2,0.3,0.4,0.3,0.7v26.1c0,0.6-0.4,1-1,1s-1-0.4-1-1v-25.7l-45.6-45.5H75.3c-7.2,0-13,5.8-13,13v131.9c0,7.2,5.8,13,13,13
			h68.8c0.6,0,1,0.4,1,1S144.7,222.8,144.1,222.8z"/>
		<g>
			<path class="st1" d="M172.1,108.1h-32.2c-7.7,0-14-6.3-14-14V62"/>
			<path class="st1" d="M172.1,109.1h-32.2c-8.3,0-15-6.7-15-15V62c0-0.6,0.4-1,1-1s1,0.4,1,1v32.1c0,7.2,5.8,13,13,13h32.2
				c0.6,0,1,0.4,1,1S172.7,109.1,172.1,109.1z"/>
		</g>
		<path class="st1" d="M125.6,188.9H89.3c-0.6,0-1-0.4-1-1s0.4-1,1-1h36.3c0.6,0,1,0.4,1,1S126.2,188.9,125.6,188.9z"/>
		<path class="st1" d="M132.1,158.2H89.3c-0.6,0-1-0.4-1-1s0.4-1,1-1h42.8c0.6,0,1,0.4,1,1S132.7,158.2,132.1,158.2z"/>
		<path class="st1" d="M119.4,127.5H89.3c-0.6,0-1-0.4-1-1s0.4-1,1-1h30.1c0.6,0,1,0.4,1,1S120,127.5,119.4,127.5z"/>
		<path class="st1" d="M241.8,237l-24.6-24.8c5.8-7,9.3-16,9.3-25.8c0-22.2-17.9-40.3-40-40.3s-40,18.1-40,40.3s17.9,40.3,40,40.3
			c10.2,0,19.4-3.8,26.5-10.1l24.5,24.8c0.6,0.6,1.4,0.9,2.1,0.9c0.8,0,1.5-0.3,2.1-0.9C243,240.1,243,238.2,241.8,237z
			 M152.6,186.3c0-18.9,15.3-34.3,34-34.3s34,15.4,34,34.3s-15.3,34.3-34,34.3S152.6,205.2,152.6,186.3z"/>
	</g>
</g>
</svg>
