<svg xmlns="http://www.w3.org/2000/svg" viewBox="0 0 158.48 88.1"><defs><style>.cls-1{fill:#fff;}.cls-1,.cls-2,.cls-3,.cls-4,.cls-5{stroke:#000;}.cls-1,.cls-2,.cls-3,.cls-4{stroke-miterlimit:10;}.cls-3,.cls-5{fill:none;}.cls-4{fill:#e2e5e9;stroke-width:3px;}.cls-5{stroke-linecap:round;stroke-linejoin:round;}</style></defs><title>icon-services-consulting</title><g id="Layer_2" data-name="Layer 2"><g id="Layer_1-2" data-name="Layer 1"><path class="cls-1" d="M57.28,26a7.69,7.69,0,0,0-3.39-5.47c-3.84-2.35-7.31-2-10.67-1.74-1.1.1-2.23.2-3.34.2a27.58,27.58,0,0,1-7-.8H27.76a.38.38,0,0,0-.31.16c-2,2.85-1.92,7.61-1.86,10.46,0,.66,0,1.23,0,1.64a2.67,2.67,0,0,1-.4,1.27l-.42.67a.31.31,0,0,0-.05.21l.53,12.13A7.08,7.08,0,0,0,28,50l5.93,4.62A6.7,6.7,0,0,0,38,56.09h5.71a6.74,6.74,0,0,0,4.13-1.43l5.89-4.59a7.24,7.24,0,0,0,2.73-5.4l.81-18.58Z"/><path class="cls-2" d="M55.8,5.78,57.9,4.3C53.59,2,45.28.58,40.86.5,33.1.37,28.73,3.37,26.7,6.17c-9.26,1.48-8.39,19.31-8.39,19.31,2.1,7.07,4.85,10.11,5,10.25H26l-.09-1.86.4-.64a2.76,2.76,0,0,0,.43-1.37c.09-2.07-.59-8.07,1.7-11.3h4.74a26.49,26.49,0,0,0,6.76.77c4.23,0,8.38-1.49,13.12,1.41a7,7,0,0,1,3,5l-.31,7.11h0l0,.92h2.68l0,0S71.41,16.66,55.8,5.78Z"/><path class="cls-3" d="M75.46,65.86,60.1,62l-2.69-4.4a1.42,1.42,0,0,0-2.21-.31L41.76,70.08a36.31,36.31,0,0,1,3.67,2.33V73a1.66,1.66,0,0,1-.81,1.43l.81,13.17H77a3.06,3.06,0,0,0,3-3.1V71.86A6.13,6.13,0,0,0,75.46,65.86Z"/><path class="cls-3" d="M23.09,57.64l-3.46,4.63L5,65.86a6.13,6.13,0,0,0-4.53,6V84.5a3,3,0,0,0,3,3.1H35.09l.85-13.12A1.69,1.69,0,0,1,35.09,73v-.59a36.31,36.31,0,0,1,3.67-2.33L25.31,57.33A1.43,1.43,0,0,0,23.09,57.64Z"/><rect class="cls-4" x="135.33" y="8.29" width="17.32" height="25.98" rx="0.57" ry="0.57" transform="translate(165.27 -122.71) rotate(90)"/><rect class="cls-4" x="82.12" y="26.85" width="17.32" height="25.98" rx="0.57" ry="0.57" transform="translate(130.62 -50.95) rotate(90)"/><rect class="cls-4" x="135.33" y="44.17" width="17.32" height="25.98" rx="0.57" ry="0.57" transform="translate(201.15 -86.83) rotate(90)"/><line class="cls-5" x1="103.78" y1="39.84" x2="117.39" y2="39.84"/><polyline class="cls-5" points="131 22.52 117.39 22.52 117.39 57.16 131 57.16"/></g></g></svg>