<?xml version="1.0" encoding="utf-8"?>
<!-- Generator: Adobe Illustrator 22.0.1, SVG Export Plug-In . SVG Version: 6.00 Build 0)  -->
<svg version="1.1" id="Layer_1" xmlns="http://www.w3.org/2000/svg" xmlns:xlink="http://www.w3.org/1999/xlink" x="0px" y="0px"
	 viewBox="0 0 400 281.6" style="enable-background:new 0 0 400 281.6;" xml:space="preserve">
<style type="text/css">
	.st0{fill:#707D91;}
	.st1{fill:none;stroke:#707D91;stroke-width:1.5;stroke-linecap:round;stroke-linejoin:round;stroke-miterlimit:10;}
	.st2{fill:#707D91;stroke:#707D91;stroke-width:1.5;stroke-linecap:round;stroke-linejoin:round;stroke-miterlimit:10;}
	.st3{fill:#FFFFFF;stroke:#707D91;stroke-width:1.5;stroke-linecap:round;stroke-linejoin:round;stroke-miterlimit:10;}
	.st4{fill:none;stroke:#FDFEFF;stroke-width:1.5;stroke-linecap:round;stroke-linejoin:round;stroke-miterlimit:10;}
	
		.st5{fill-rule:evenodd;clip-rule:evenodd;fill:#FFFFFF;stroke:#FDFEFF;stroke-width:1.5;stroke-linecap:round;stroke-linejoin:round;stroke-miterlimit:10;}
	
		.st6{fill-rule:evenodd;clip-rule:evenodd;fill:none;stroke:#FDFEFF;stroke-width:1.5;stroke-linecap:round;stroke-linejoin:round;stroke-miterlimit:10;}
	.st7{fill:none;stroke:#FFFFFF;stroke-linecap:round;stroke-linejoin:round;stroke-miterlimit:10;}
	.st8{fill:#FFFFFF;}
	.st9{fill:none;stroke:#707D91;stroke-width:1.5;stroke-miterlimit:10;}
	.st10{opacity:0.3;}
</style>
<g>
	<g>
		<g>
			<g>
				<path class="st0" d="M368.3,194.5c3.5-0.3,6.6-2.9,6.9-5.8c0.3-2.9-2.3-5-5.8-4.8c-3.5,0.3-6.6,2.9-6.8,5.8
					C362.3,192.6,364.8,194.8,368.3,194.5C368.3,194.5,368.3,194.5,368.3,194.5z"/>
				<path class="st0" d="M378,201c0.6-3.7-2.7-6.3-7.1-5.9c-1.8,0.2-3.6,0.3-5.3,0.5c-2.3,0.2-4.4,1.2-6.1,2.6
					c3.5,1.3,5.5,4.4,5,8.1c-0.2,1-0.3,2.1-0.5,3.1c1,0,2-0.1,3-0.2c5.9-0.7,9.5-2.4,9.7-2.6c0.1-0.1,0.3-0.1,0.4-0.2c0,0,0,0,0,0
					C377.4,204.6,377.7,202.8,378,201z"/>
			</g>
			<g>
				<g>
					<path class="st0" d="M351,198.4c4.2-0.4,7.9-3.5,8.2-7.1c0.4-3.5-2.8-6.2-7.1-5.9c-4.2,0.3-7.8,3.5-8.1,7.1
						C343.8,196.1,346.8,198.8,351,198.4C351,198.4,351,198.4,351,198.4z"/>
				</g>
				<g>
					<path class="st0" d="M354.1,199.2c-2.1,0.2-4.3,0.4-6.4,0.6c-5.3,0.5-10,4.6-10.6,9.2c-0.3,2.3-0.5,4.5-0.8,6.8
						c0,0,0,0.1,0,0.1c0.2,0,0.3,0.1,0.5,0.1c4.8,0.9,9.1,0.9,12.7,0.5c7-0.8,11.3-3,11.6-3.1c0.2-0.1,0.4-0.2,0.5-0.3
						c0,0,0,0,0.1,0c0.4-2.2,0.7-4.4,1-6.6C363.3,202,359.4,198.8,354.1,199.2L354.1,199.2z"/>
				</g>
			</g>
		</g>
		<g>
			<path class="st0" d="M332,197.5c3.5-0.3,6.5-2.9,6.8-6c0.2-3-2.4-5.3-6-5c-3.5,0.2-6.5,2.9-6.7,6
				C325.9,195.5,328.6,197.8,332,197.5C332,197.5,332,197.5,332,197.5z"/>
			<path class="st0" d="M335.3,209.2c0.3-2.6,1.6-5.1,3.8-7.2c0.5-0.5,1.1-1,1.7-1.4c-1.3-1.6-3.6-2.6-6.2-2.4
				c-1.8,0.1-3.6,0.3-5.3,0.4c-4.4,0.3-8.3,3.8-8.6,7.7c-0.2,1.9-0.4,3.8-0.5,5.8c0,0,0,0.1,0,0.1c0.1,0,0.3,0.1,0.4,0.1
				c4.1,0.8,7.7,0.9,10.6,0.6c1.4-0.1,2.7-0.3,3.8-0.6C335.1,211.3,335.2,210.2,335.3,209.2z"/>
		</g>
		<g>
			<g>
				<g>
					<path class="st1" d="M225.7,260.8c-6.6,0.2-13.3,0.3-19.9,0.3c-2.2,0-4-2-4-4.4c0-14,0.1-28,0.1-41.9c0-2.4,2-4.4,4.3-4.5
						c5.2,0,10.4,0,15.7-0.1c4.7,4.8,9.2,9.6,13.7,14.4c-0.1,2.8-0.2,5.5-0.4,8.3"/>
					<path class="st2" d="M235.6,224.5c-3.3,0.1-6.5,0.1-9.8,0.2c-2.3,0-4.2-1.9-4.2-4.4c0.1-3.4,0.2-6.8,0.2-10.2"/>
				</g>
				<g>
					<path class="st1" d="M220.7,250.2c-3.6,0.1-7.1,0.1-10.7,0.1"/>
				</g>
				<g>
					<path class="st1" d="M223,240.4c-4.3,0.1-8.5,0.1-12.8,0.2"/>
				</g>
				<g>
					<path class="st1" d="M219.4,230.7c-3,0-6.1,0.1-9.1,0.1"/>
				</g>
			</g>
			<g>
				<path class="st0" d="M243.2,240.5c-0.4,0.2-0.8,0.3-1.2,0.5c-0.4,0.2-0.7,0.3-1.1,0.5c-0.3-0.3-0.7-0.7-1.1-0.9
					c-0.2-0.1-0.3-0.2-0.5-0.3c0.1-0.4,0.1-0.8,0.2-1.1c0.1-0.6,0.2-1.2,0.3-1.8c0-0.2-0.1-0.3-0.2-0.3c-0.6-0.1-1.1-0.2-1.6-0.4
					c-0.5-0.1-1-0.3-1.6-0.4c-0.1,0-0.3,0.1-0.3,0.2c-0.1,0.3-0.3,0.6-0.4,1c-0.2,0.6-0.5,1.1-0.8,1.7c-0.5,0.1-0.9,0.1-1.4,0.2
					c-0.2,0-0.4,0.1-0.5,0.1c-0.5-0.8-1.1-1.6-1.6-2.2c-0.1-0.1-0.2-0.1-0.4,0c-1,0.6-2,1.2-2.9,1.8c-0.1,0.1-0.2,0.2-0.1,0.4
					c0.1,0.2,0.1,0.3,0.2,0.5c0.2,0.7,0.5,1.5,0.8,2.2c-0.5,0.5-0.9,1.1-1.3,1.8c-0.8-0.1-1.5-0.1-2.3-0.1c-0.1,0-0.3,0.1-0.3,0.2
					c0,0.3-0.2,0.6-0.3,0.9c-0.3,0.8-0.5,1.7-0.6,2.5c0,0.1,0,0.3,0.2,0.3c0.3,0.1,0.5,0.3,0.8,0.4c0.4,0.2,0.8,0.4,1.2,0.6
					c0,0.7,0,1.4,0.2,2c0,0,0,0.1,0,0.1c-0.6,0.5-1.2,1-1.7,1.4c0,0-0.1,0.1-0.1,0.1c-0.1,0.1-0.1,0.3-0.1,0.4c0.5,1,1,2,1.5,2.9
					c0.1,0.1,0.2,0.2,0.3,0.1c0.4-0.1,0.7-0.3,1.1-0.5c0.4-0.2,0.7-0.3,1.1-0.5c0.3,0.4,0.7,0.7,1.1,0.9c0.1,0.1,0.3,0.2,0.4,0.3
					c-0.1,0.4-0.1,0.8-0.2,1.1c-0.1,0.6-0.2,1.2-0.3,1.8c0,0.1,0.1,0.3,0.2,0.3c0.5,0.1,1,0.2,1.5,0.4c0.5,0.1,1,0.3,1.5,0.4
					c0.1,0,0.3-0.1,0.3-0.2c0.1-0.3,0.3-0.6,0.4-1c0.2-0.6,0.5-1.1,0.8-1.7c0.5,0,0.9-0.1,1.4-0.3c0.2,0,0.4-0.1,0.5-0.1
					c0.4,0.6,0.8,1.2,1.2,1.7c0.1,0.1,0.2,0.3,0.3,0.4c0.1,0.1,0.2,0.1,0.3,0c1-0.6,1.9-1.2,2.9-1.9c0.1-0.1,0.1-0.3,0.1-0.4
					c0-0.2-0.1-0.3-0.1-0.5c-0.2-0.7-0.4-1.5-0.7-2.1c0.5-0.5,1-1.1,1.3-1.8c0.7,0.1,1.5,0.1,2.3,0.1c0.1,0,0.3-0.1,0.3-0.2
					c0.1-0.3,0.2-0.6,0.3-0.9c0.3-0.8,0.5-1.7,0.7-2.6c0-0.1,0-0.1,0-0.2c-0.3-0.1-0.6-0.2-0.8-0.3c-0.4-0.2-0.8-0.3-1.2-0.5
					c0.1-0.7,0-1.4-0.1-2.1c0,0,0-0.1,0-0.1c0.6-0.5,1.2-1,1.7-1.5c0,0,0.1-0.1,0.1-0.1c0.1-0.1,0.1-0.3,0.1-0.4
					c-0.5-1-1-1.9-1.6-2.9C243.5,240.5,243.3,240.5,243.2,240.5z M238.3,249.3c-0.3,0.9-0.9,1.7-1.8,2.3l0,0
					c-1.9,1.2-4.2,0.7-5.2-1.2c-0.5-1-0.6-2.2-0.2-3.4c0.4-0.9,1-1.7,1.8-2.3c0,0,0.1,0,0.1-0.1c1.8-1.2,4.1-0.6,5.1,1.2
					c0,0,0,0,0,0C238.6,247,238.7,248.2,238.3,249.3z"/>
			</g>
		</g>
		<g>
			<g>
				<path class="st0" d="M103.5,226.4c-0.5-4.2-1-8.4-1.4-12.5c0-0.3,0.2-0.6,0.5-0.5c6.5,0.3,12.9,0.6,19.4,0.9
					c0.3,0,0.6,0.3,0.6,0.6c0.3,4.2,0.7,8.5,1.1,12.7c0,0.3-0.2,0.6-0.5,0.5c-6.4-0.3-12.7-0.7-19.1-1.1
					C103.8,227,103.5,226.7,103.5,226.4z"/>
			</g>
			<g>
				<path class="st0" d="M65.8,237.2c-0.8-4-1.6-8.1-2.4-12.1c-0.1-0.3,0.1-0.5,0.5-0.5c6.4,0.6,12.7,1.1,19.1,1.6
					c0.3,0,0.6,0.3,0.6,0.6c0.6,4.1,1.3,8.2,2,12.3c0.1,0.3-0.1,0.5-0.4,0.5c-6.2-0.6-12.5-1.2-18.7-1.8
					C66.1,237.8,65.8,237.5,65.8,237.2z"/>
			</g>
			<g>
				<path class="st0" d="M107.5,254.4c-0.7-4.2-1.3-8.4-1.9-12.5c0-0.3,0.2-0.5,0.5-0.5c6.2,0.5,12.5,0.9,18.7,1.3
					c0.3,0,0.6,0.3,0.6,0.6c0.5,4.2,1,8.5,1.5,12.7c0,0.3-0.2,0.6-0.5,0.5c-6.1-0.4-12.2-0.9-18.3-1.4
					C107.8,255,107.5,254.7,107.5,254.4z"/>
			</g>
			<path class="st1" d="M84.5,233c3.3,0.3,6.7,0.5,10,0.8"/>
			<path class="st1" d="M102.8,220.8c-3.4-0.2-6.8-0.4-10.2-0.6c1.2,9,2.5,18.1,4,27.1c3.3,0.3,6.5,0.6,9.8,0.8"/>
		</g>
		<g>
			<g>
				<g>
					<path class="st1" d="M223.4,25.3c-0.1-2.8-0.2-5.6-0.3-8.4c0-0.4-0.3-0.8-0.7-0.8c-2.7-0.1-5.4-0.1-8.1-0.1
						c-1.3,0-2.4-1.2-2.4-2.7c-0.1-3.1-0.1-6.3-0.2-9.4c0-0.4-0.3-0.7-0.7-0.8c-4.1,0-8.1-0.1-12.2-0.1c-1.3,0-2.3,1.2-2.3,2.6
						c-0.1,11.6-0.2,23.2-0.2,34.9c0,2.5,1.9,4.5,4.2,4.5c4.9,0,9.8,0,14.7,0.1"/>
					<g>
						<path class="st1" d="M200.6,11.1c2.6,0,5.1,0,7.7,0"/>
						<path class="st1" d="M200.6,18.4c3.7,0,7.3,0,11,0.1"/>
						<path class="st1" d="M200.6,25.7c6.1,0,12.2,0.1,18.3,0.2"/>
						<path class="st1" d="M200.6,33c6.2,0,12.3,0,18.5,0.1"/>
					</g>
					<path class="st1" d="M211.3,3.2c-4.2-0.1-8.4-0.1-12.6-0.1c-1.3,0-2.3,1.2-2.3,2.6c-0.1,7.8-0.1,15.5-0.2,23.3
						c0,3.5,0,7-0.1,10.4c0,0.4,0,0.7,0,1.1c0,2.5,1.9,4.5,4.2,4.5c0.3,0,0.7,0,1,0c4.5,0,9.1,0,13.6,0.1c1.6,0,3.2,0,4.9,0.1
						c2.3,0,4.2-1.9,4.1-4.4c-0.2-5.8-0.4-11.5-0.6-17.3c-0.1-2.3-0.2-4.6-0.3-7c0-0.2-0.1-0.4-0.2-0.5c-3.8-4.2-7.5-8.4-11.1-12.6
						C211.6,3.2,211.4,3.2,211.3,3.2z"/>
				</g>
				<g>
					<path class="st3" d="M201.5,40.6c-4.4,0-8.9,0-13.3,0.1c-2.3,0-4.1-1.9-4-4.3c0.2-7.5,0.4-15,0.6-22.4c0.1-2.4,1.9-4.4,4-4.4
						c4.2-0.1,8.5-0.1,12.7-0.1c2.1,0,3.9,2,3.9,4.4c0.1,7.5,0.1,15,0.2,22.5C205.6,38.6,203.8,40.6,201.5,40.6z"/>
					<path class="st1" d="M189.2,15.1c3.9,0,7.9-0.1,11.8-0.1"/>
					<path class="st1" d="M189.1,20.8c4,0,8-0.1,11.9-0.1"/>
					<path class="st1" d="M188.9,26.6c4,0,8-0.1,12-0.1"/>
				</g>
			</g>
			<g>
				<path class="st0" d="M223,50.3c-12.6-0.2-25.3-0.2-37.9-0.1c-1.2,0-2.2-1-2.2-2.3c-1.2-7.4-2.2-14.9-3.3-22.3
					c0-1.3,1-2.3,2.2-2.4c14.7-0.2,29.4-0.2,44.1,0.1c1.2,0,2.2,1.1,2.2,2.4c-0.9,7.4-2,14.8-3,22.3C225.2,49.3,224.2,50.4,223,50.3
					z"/>
			</g>
		</g>
		<g>
			<g>
				<path class="st0" d="M65.4,74.4c-10.1,0.7-20.3,1.4-30.4,2.2c-1.2,0.1-2.1-0.8-1.9-1.9c2.6-14.2,5.9-28.4,10.2-42.6
					c0.3-1.2,1.6-2.2,2.7-2.4c9.5-1.4,18.9-2.7,28.4-3.9c1.2-0.1,1.9,0.7,1.6,1.9c-3.3,14.8-6,29.5-8.1,44.3
					C67.8,73.3,66.7,74.3,65.4,74.4z"/>
			</g>
			<g>
				<g>
					<path class="st4" d="M57.8,38.3c3.4-0.4,6.7-0.8,10.1-1.2"/>
				</g>
				<path class="st5" d="M52.6,38.9c-0.4,1.5-1.9,2.8-3.4,3c-1.5,0.2-2.4-0.8-2-2.3c0.4-1.5,1.9-2.8,3.4-3
					C52.1,36.4,53,37.4,52.6,38.9z"/>
			</g>
			<g>
				<g>
					<path class="st4" d="M54.8,51.6c3.4-0.4,6.9-0.7,10.3-1"/>
				</g>
				<path class="st6" d="M49.5,52.1c-0.3,1.5-1.8,2.8-3.3,2.9c-1.5,0.2-2.5-0.9-2.2-2.4c0.3-1.5,1.8-2.8,3.3-3
					C48.9,49.6,49.8,50.7,49.5,52.1z"/>
			</g>
			<g>
				<g>
					<path class="st4" d="M52.2,64.9c3.5-0.3,7-0.6,10.5-0.9"/>
				</g>
				<path class="st6" d="M46.9,65.4c-0.3,1.5-1.7,2.8-3.3,2.9c-1.5,0.1-2.6-0.9-2.3-2.4c0.3-1.5,1.8-2.8,3.3-2.9
					C46.1,62.8,47.1,63.9,46.9,65.4z"/>
			</g>
		</g>
		<g>
			<path class="st0" d="M150.6,135.1c-8.1,0-16.3,0-24.4,0c-2.7,0-5-2.2-4.9-4.9c0.2-17.9,0.9-35.8,2.2-53.6c0.2-2.7,2.5-5,5.2-5.1
				c7.9-0.3,15.7-0.5,23.6-0.7c2.7-0.1,4.7,2.1,4.6,4.9c-0.7,18.1-1.1,36.3-1.3,54.4C155.6,132.9,153.3,135.1,150.6,135.1z"/>
			<path class="st7" d="M141,130.4c0,1.4-1.2,2.5-2.6,2.5c-1.4,0-2.6-1.1-2.6-2.5c0-1.4,1.2-2.5,2.6-2.5
				C139.9,127.9,141,129,141,130.4z"/>
			<g>
				<path class="st7" d="M139.4,74.3c1.8,0,3.5-0.1,5.3-0.1"/>
			</g>
			<path class="st8" d="M137.1,74.4c0,0.3-0.3,0.6-0.6,0.6c-0.3,0-0.6-0.3-0.6-0.6c0-0.3,0.3-0.6,0.6-0.6
				C136.9,73.8,137.1,74,137.1,74.4z"/>
			<path class="st8" d="M153.7,125.6c-10.3,0-20.6,0.1-30.9,0.2c0.2-15.9,0.9-31.9,1.9-47.8c10-0.3,20.1-0.6,30.1-0.8
				C154.3,93.4,153.9,109.5,153.7,125.6z"/>
		</g>
		<g>
			<g>
				<path class="st0" d="M256.5,119c12.7,0.1,23.3,10.4,23.3,22.8c0,12.4-10.7,22.7-23.4,22.8c-12.7,0.1-22.9-10.1-22.9-22.8
					C233.5,129.2,243.8,118.9,256.5,119 M256.5,117.5c-13.6-0.1-24.5,10.8-24.5,24.4c0,13.5,10.9,24.5,24.4,24.3
					c13.5-0.2,24.9-11.1,24.9-24.4C281.4,128.6,270,117.7,256.5,117.5C256.5,117.5,256.5,117.5,256.5,117.5z"/>
			</g>
			<g>
				<path class="st0" d="M256.5,119c6.3,0.1,11.7,10.3,11.7,22.8c0,12.5-5.4,22.8-11.7,22.8c-6.3,0.1-11.3-10.2-11.3-22.8
					C245.2,129.2,250.2,119,256.5,119 M256.5,117.5c-7.3-0.1-12.8,10.6-12.9,24.4c0,13.7,5.5,24.4,12.8,24.3
					c7.3-0.1,13.3-10.8,13.3-24.4C269.7,128.3,263.7,117.6,256.5,117.5C256.5,117.5,256.5,117.5,256.5,117.5z"/>
			</g>
			<path class="st9" d="M256,164.7c0.3-15.2,0.3-30.5,0.1-45.7"/>
			<path class="st9" d="M269.7,141.9"/>
			<path class="st9" d="M233.6,142.1c15.4,0,30.8,0,46.2,0"/>
			<path class="st9" d="M236.4,130.6c13.4,0,26.8,0.1,40.3,0.1"/>
			<path class="st9" d="M236.1,152.6c13.7,0,27.3-0.1,41-0.2"/>
		</g>
		<g>
			<g>
				<path class="st0" d="M398.1,120.8c-14.9-0.4-29.9-0.8-44.8-1.1c-1.1,0-2.1-0.9-2.1-1.9c-0.2-3.2-0.4-6.4-0.6-9.6
					c-0.1-1,0.8-1.9,1.9-1.8c14.8,0.5,29.7,1.2,44.5,1.9c1.1,0.1,2.1,0.9,2.2,1.9c0.3,3,0.6,6,0.8,9
					C400.1,120.1,399.2,120.9,398.1,120.8z"/>
				<path class="st8" d="M361.4,113.3c0.1,0.8-0.6,1.5-1.6,1.5c-0.9,0-1.7-0.7-1.8-1.6c-0.1-0.8,0.6-1.5,1.5-1.5
					C360.6,111.8,361.4,112.5,361.4,113.3z"/>
				<g>
					<path class="st8" d="M377.1,112.2c0,0.4-0.3,0.7-0.7,0.7c-0.4,0-0.8-0.3-0.8-0.7c0-0.4,0.3-0.7,0.7-0.7
						C376.7,111.5,377.1,111.9,377.1,112.2z"/>
					<path class="st8" d="M380.7,112.4c0,0.4-0.3,0.7-0.7,0.7c-0.4,0-0.8-0.3-0.8-0.7c0-0.4,0.3-0.7,0.7-0.7
						C380.3,111.7,380.7,112,380.7,112.4z"/>
					<path class="st8" d="M384.4,112.5c0,0.4-0.3,0.7-0.7,0.7c-0.4,0-0.8-0.3-0.8-0.7c0-0.4,0.3-0.7,0.7-0.7
						C384,111.8,384.3,112.1,384.4,112.5z"/>
					<path class="st8" d="M388,112.6c0,0.4-0.3,0.7-0.7,0.7c-0.4,0-0.8-0.3-0.8-0.7c0-0.4,0.3-0.7,0.7-0.7
						C387.6,111.9,387.9,112.3,388,112.6z"/>
					<path class="st8" d="M391.6,112.8c0,0.4-0.3,0.7-0.7,0.6c-0.4,0-0.8-0.3-0.8-0.7c0-0.4,0.3-0.7,0.7-0.6
						C391.2,112.1,391.6,112.4,391.6,112.8z"/>
					<path class="st8" d="M379.7,115.5c0,0.4-0.3,0.7-0.7,0.7c-0.4,0-0.8-0.3-0.8-0.7c0-0.4,0.3-0.7,0.7-0.7
						C379.3,114.8,379.7,115.1,379.7,115.5z"/>
					<path class="st8" d="M383.3,115.6c0,0.4-0.3,0.7-0.7,0.7c-0.4,0-0.8-0.3-0.8-0.7c0-0.4,0.3-0.7,0.7-0.7
						C382.9,114.9,383.3,115.2,383.3,115.6z"/>
					<path class="st8" d="M386.9,115.7c0,0.4-0.3,0.7-0.7,0.7c-0.4,0-0.8-0.3-0.8-0.7c0-0.4,0.3-0.7,0.7-0.7
						C386.5,115,386.9,115.3,386.9,115.7z"/>
					<path class="st8" d="M390.6,115.8c0,0.4-0.3,0.7-0.7,0.7c-0.4,0-0.8-0.3-0.8-0.7c0-0.4,0.3-0.7,0.7-0.7
						C390.2,115.1,390.5,115.5,390.6,115.8z"/>
					<path class="st8" d="M394.2,116c0,0.4-0.3,0.7-0.7,0.6c-0.4,0-0.8-0.3-0.8-0.7c0-0.4,0.3-0.7,0.7-0.6
						C393.8,115.3,394.2,115.6,394.2,116z"/>
				</g>
			</g>
			<g>
				<path class="st0" d="M396.8,106.3c-14.8-0.7-29.7-1.4-44.5-2c-1.1,0-2.1-0.9-2.2-2c-0.3-3.2-0.6-6.4-0.9-9.6
					c-0.1-1,0.7-1.8,1.8-1.8c14.7,0.8,29.4,1.7,44.1,2.7c1.1,0.1,2.1,0.9,2.3,1.9c0.5,3,0.9,6,1.2,9
					C398.7,105.6,397.9,106.4,396.8,106.3z"/>
				<path class="st8" d="M360.1,98.1c0.1,0.8-0.6,1.5-1.5,1.4c-0.9,0-1.7-0.8-1.8-1.6c-0.1-0.8,0.6-1.5,1.5-1.4
					C359.2,96.6,360,97.3,360.1,98.1z"/>
				<g>
					<path class="st8" d="M375.6,97.3c0,0.4-0.3,0.7-0.7,0.6c-0.4,0-0.8-0.4-0.8-0.7c0-0.4,0.3-0.7,0.7-0.6
						C375.2,96.6,375.6,97,375.6,97.3z"/>
					<path class="st8" d="M379.2,97.5c0,0.4-0.3,0.7-0.7,0.6c-0.4,0-0.8-0.3-0.8-0.7c0-0.4,0.3-0.7,0.7-0.6
						C378.8,96.8,379.1,97.2,379.2,97.5z"/>
					<path class="st8" d="M382.8,97.7c0,0.4-0.3,0.7-0.7,0.6c-0.4,0-0.8-0.3-0.8-0.7c0-0.4,0.3-0.7,0.7-0.6
						C382.4,97,382.7,97.4,382.8,97.7z"/>
					<path class="st8" d="M386.4,98c0,0.4-0.3,0.7-0.7,0.6c-0.4,0-0.8-0.3-0.8-0.7c0-0.4,0.3-0.7,0.7-0.6
						C385.9,97.3,386.3,97.6,386.4,98z"/>
					<path class="st8" d="M390,98.2c0.1,0.4-0.2,0.7-0.7,0.6c-0.4,0-0.8-0.3-0.8-0.7c-0.1-0.4,0.2-0.7,0.7-0.6
						C389.5,97.5,389.9,97.8,390,98.2z"/>
					<path class="st8" d="M378.3,100.6c0,0.4-0.3,0.7-0.7,0.6c-0.4,0-0.8-0.3-0.8-0.7c0-0.4,0.3-0.7,0.7-0.6
						C377.9,99.9,378.3,100.2,378.3,100.6z"/>
					<path class="st8" d="M381.9,100.8c0,0.4-0.3,0.7-0.7,0.6c-0.4,0-0.8-0.3-0.8-0.7c0-0.4,0.3-0.7,0.7-0.6
						C381.5,100.1,381.9,100.4,381.9,100.8z"/>
					<path class="st8" d="M385.5,101c0,0.4-0.3,0.7-0.7,0.6c-0.4,0-0.8-0.3-0.8-0.7c0-0.4,0.3-0.7,0.7-0.6
						C385.1,100.3,385.4,100.6,385.5,101z"/>
					<path class="st8" d="M389.1,101.2c0,0.4-0.3,0.7-0.7,0.6c-0.4,0-0.8-0.3-0.8-0.7c0-0.4,0.3-0.7,0.7-0.6
						C388.7,100.5,389,100.8,389.1,101.2z"/>
					<path class="st8" d="M392.7,101.4c0,0.4-0.3,0.7-0.7,0.6c-0.4,0-0.8-0.3-0.8-0.7c0-0.4,0.3-0.7,0.7-0.6
						C392.3,100.7,392.6,101,392.7,101.4z"/>
				</g>
			</g>
			<g>
				<path class="st0" d="M394.8,91.9c-14.7-1.1-29.4-2-44-2.8c-1.1-0.1-2.1-1-2.2-2c-0.4-3.2-0.8-6.4-1.3-9.6
					c-0.1-1,0.6-1.8,1.7-1.8c14.5,1,29,2.2,43.5,3.6c1.1,0.1,2.2,1,2.4,2c0.6,3,1.2,6,1.7,9C396.6,91.2,395.9,91.9,394.8,91.9z"/>
				<path class="st8" d="M358.2,82.9c0.1,0.8-0.5,1.5-1.4,1.4c-0.9-0.1-1.7-0.8-1.8-1.6c-0.1-0.8,0.5-1.5,1.4-1.4
					C357.3,81.4,358.1,82.1,358.2,82.9z"/>
				<g>
					<path class="st8" d="M373.5,82.4c0.1,0.4-0.2,0.7-0.6,0.6c-0.4,0-0.8-0.4-0.9-0.7c-0.1-0.4,0.2-0.7,0.6-0.6
						C373,81.7,373.4,82.1,373.5,82.4z"/>
					<path class="st8" d="M377,82.7c0.1,0.4-0.2,0.7-0.6,0.6c-0.4,0-0.8-0.4-0.9-0.7c-0.1-0.4,0.2-0.7,0.6-0.6
						C376.6,82,376.9,82.3,377,82.7z"/>
					<path class="st8" d="M380.6,83c0.1,0.4-0.2,0.7-0.6,0.6c-0.4,0-0.8-0.4-0.9-0.7c-0.1-0.4,0.2-0.7,0.6-0.6
						C380.1,82.3,380.5,82.6,380.6,83z"/>
					<path class="st8" d="M384.1,83.3c0.1,0.4-0.2,0.7-0.6,0.6c-0.4,0-0.8-0.4-0.9-0.7c-0.1-0.4,0.2-0.7,0.6-0.6
						C383.6,82.6,384,82.9,384.1,83.3z"/>
					<path class="st8" d="M387.6,83.6c0.1,0.4-0.2,0.6-0.6,0.6c-0.4,0-0.8-0.4-0.9-0.7c-0.1-0.4,0.2-0.6,0.6-0.6
						C387.2,82.9,387.6,83.2,387.6,83.6z"/>
					<path class="st8" d="M376.3,85.8c0.1,0.4-0.2,0.7-0.6,0.6c-0.4,0-0.8-0.4-0.9-0.7c-0.1-0.4,0.2-0.7,0.6-0.6
						C375.8,85,376.2,85.4,376.3,85.8z"/>
					<path class="st8" d="M379.8,86c0.1,0.4-0.2,0.7-0.6,0.6c-0.4,0-0.8-0.4-0.9-0.7c-0.1-0.4,0.2-0.7,0.6-0.6
						C379.4,85.3,379.8,85.6,379.8,86z"/>
					<path class="st8" d="M383.4,86.3c0.1,0.4-0.2,0.7-0.6,0.6c-0.4,0-0.8-0.4-0.9-0.7c-0.1-0.4,0.2-0.7,0.6-0.6
						C382.9,85.6,383.3,85.9,383.4,86.3z"/>
					<path class="st8" d="M386.9,86.6c0.1,0.4-0.2,0.7-0.6,0.6c-0.4,0-0.8-0.4-0.9-0.7c-0.1-0.4,0.2-0.7,0.6-0.6
						C386.5,85.9,386.9,86.2,386.9,86.6z"/>
					<path class="st8" d="M390.5,86.8c0.1,0.4-0.2,0.6-0.6,0.6c-0.4,0-0.8-0.4-0.9-0.7c-0.1-0.4,0.2-0.6,0.6-0.6
						C390,86.1,390.4,86.5,390.5,86.8z"/>
				</g>
			</g>
		</g>
		<g>
			<g>
				<path class="st0" d="M24.9,158.7c-0.7,0-1.5,0-2.2,0c-0.7,0-1.5,0-2.3,0c-6.3-0.2-11.5-1-15.2-2.1c-1.8-0.5-3.3-1.1-4.4-1.7
					c0.2,2.3,0.4,4.6,0.6,6.8c2.7,2.2,11.1,4.3,21.9,4.5c10.8,0.2,18.8-1.9,21.1-4.2c-0.2-2.4-0.4-4.8-0.5-7.2
					c-1.1,0.7-2.5,1.3-4.2,1.8C36.2,157.8,31.2,158.6,24.9,158.7L24.9,158.7z M62.7,156.5"/>
			</g>
			<g>
				<path class="st0" d="M0.2,145.4c0.1,2.3,0.3,4.6,0.4,6.8c2.4,2,9.8,3.9,19.6,4.2c0.1,0,0.2,0,0.3,0c0.3,0,0.6,0,0.8,0
					c0.4,0,0.8,0,1.2,0c0.4,0,0.8,0,1.2,0c0.3,0,0.6,0,0.8,0c0.1,0,0.2,0,0.3,0c9.7-0.3,16.8-2.2,18.9-4.4c-0.1-2.4-0.3-4.8-0.4-7.2
					c-4.1,2.6-12.9,4.1-21.4,4.2C13.5,149,4.5,147.8,0.2,145.4L0.2,145.4z M26.3,145.4"/>
			</g>
			<g>
				<path class="st0" d="M43.1,139.9c-1.1-3.3-8.6-6.3-21.7-5.9c-13,0.4-20.5,3.7-21.4,6.8C0,140.9,0,141,0,141.1
					c0,0.6,0,1.1,0.1,1.7c2.5,2.1,10.9,4,21.8,3.9c11-0.1,19.1-2.3,21.4-4.7c0-0.6,0-1.2-0.1-1.8C43.3,140.1,43.2,140,43.1,139.9
					L43.1,139.9z M63.6,139.9"/>
			</g>
			<g>
				<path class="st0" d="M1.8,164.4c0.2,2,0.5,4,0.7,6c0,0.1,0.1,0.2,0.1,0.3c1.5,3.6,10.9,6.6,22.1,6.9c11.2,0.3,19.8-2.3,20.5-6
					c0.1-0.1,0.1-0.2,0.1-0.4c-0.2-2.1-0.4-4.2-0.6-6.3c-3.4,2.2-10.5,3.9-21.1,3.7C13.1,168.4,5.6,166.5,1.8,164.4
					C1.8,164.4,1.8,164.4,1.8,164.4z M26.8,164.3"/>
			</g>
		</g>
	</g>
	<g class="st10">
		<path class="st9" d="M75.3,49.6c20.1-1.8,40.3-3.1,60.4-4c3.3-0.2,5.9,2.6,5.6,6.1c-0.4,5-0.7,9.9-1,14.9"/>
		<g>
			<path class="st9" d="M160.3,103c9-0.1,18-0.1,26.9-0.2c3.5,0,6.4,2.9,6.4,6.4c0,8.6-0.1,17.1-0.1,25.7c0,3.6,2.9,6.5,6.5,6.5
				c9.4,0,18.7,0,28.1,0"/>
		</g>
		<path class="st9" d="M23.4,180.8c1.6,13.6,4,27.2,7.2,40.8c0.8,3.2,4.2,6.1,7.5,6.5c7.6,0.9,15.3,1.7,22.9,2.5"/>
		<path class="st9" d="M230.7,34c42.3,1,84.6,4.2,126.9,9.6c3.3,0.4,6.7,3.4,7.5,6.6c1.9,7.6,3.6,15.1,5,22.7"/>
		<path class="st9" d="M345,97.1c-27.7-1.2-55.4-2.1-83.1-2.6c-3.5-0.1-6.3,2.8-6.2,6.3c0.1,4.4,0.2,8.7,0.3,13.1"/>
		<path class="st9" d="M347.1,220.6c-2.8,14.6-6.3,29.1-10.5,43.7c-1,3.3-4.3,6.4-7.4,6.9c-35.6,5.5-71.3,8.8-106.9,9.7
			c-3.1,0.1-5.5-2.8-5.4-6.3c0.1-3.1,0.2-6.1,0.3-9.2"/>
		<path class="st9" d="M256.2,169.2c-0.1,3.4-0.2,6.9-0.3,10.3c-0.1,3.5-3.1,6.4-6.6,6.5c-8.2,0.1-16.4,0.2-24.5,0.2
			c-3.5,0-6.4,2.9-6.5,6.5c-0.1,4.7-0.1,9.4-0.2,14.1"/>
		<g>
			<path class="st9" d="M353,183.8c0.9-8.3,1.5-16.6,1.8-24.9c0.1-3.3,3.1-6,6.7-6c2.4,0,4.9,0,7.3-0.1c3.6-0.1,6.6-2.7,6.6-5.9
				c0.1-7.6,0-15.1-0.3-22.7"/>
		</g>
		<g>
			<path class="st9" d="M318.2,207.3c-13.2,0.8-26.5,1.4-39.7,1.9c-3.5,0.1-6.5,3.1-6.7,6.6c-0.2,3-0.4,6-0.7,8.9
				c-0.3,3.5-3.3,6.5-6.7,6.6c-8,0.3-15.9,0.6-23.9,0.8"/>
		</g>
		<g>
			<path class="st9" d="M129.6,250c8.3,0.5,16.6,0.9,25,1.3c3.3,0.1,5.8-2.7,5.6-6.2c-0.3-5.2-0.6-10.3-0.9-15.5
				c-0.2-3.5-3.1-6.5-6.5-6.6c-8.6-0.2-17.3-0.6-25.9-0.9"/>
		</g>
		<path class="st9" d="M159.7,237.7c12.7,0.4,25.3,0.6,38,0.6"/>
		<g>
			<path class="st9" d="M21.3,130.1c0.2-6.2,0.5-12.3,1-18.5c0.3-3.2,3.4-5.9,6.9-6.1c2.4-0.1,4.8-0.2,7.2-0.3
				c1.2-0.1,2.4-0.1,3.7-0.2c3.5-0.1,6.6-2.9,7-6.2c0.6-6.6,1.4-13.2,2.4-19.8"/>
		</g>
		<g>
			<path class="st9" d="M112.5,210.3c-0.6-6.7-1.1-13.4-1.5-20c-0.2-3.5,2.5-6.2,6-6.1c5.1,0.1,10.3,0.3,15.4,0.4
				c3.5,0.1,6.3-2.7,6.2-6.3c-0.4-12.9-0.6-25.7-0.6-38.6"/>
		</g>
		<g>
			<path class="st9" d="M117.7,104.1c-9.9,0.2-19.8,0.4-29.7,0.7c-3.5,0.1-6.6,3.8-6.8,7.2c-0.6,13.7-0.8,27.5-0.5,41.2
				c0.1,3.4-2.7,6.1-6.3,6.1c-8.7-0.1-17.5-0.3-26.2-0.5"/>
		</g>
		<g>
			<path class="st9" d="M245.7,116c-0.1-9.3-0.3-18.5-0.6-27.8c-0.1-3.5-3.1-6.5-6.6-6.5c-9.3-0.1-18.6-0.2-28-0.2
				c-3.5,0-6.4-2.9-6.4-6.5c0-6.9,0-13.7-0.1-20.6"/>
		</g>
		<g>
			<path class="st9" d="M150.1,25c0.5-6.1,1.1-12.1,1.7-18.2c0.3-3.5-1.9-6.3-5-6c-17.2,1.1-34.4,2.8-51.5,4.9
				c-8.2,1-16.4,2.2-24.6,3.5c-3.1,0.5-6.5,3.6-7.4,6.9c-0.8,2.8-1.6,5.6-2.4,8.4"/>
			<path class="st9" d="M177.1,34.2c-7.3,0.1-14.5,0.3-21.8,0.6c-3.3,0.1-5.8-2.6-5.5-6.2c0.1-1.2,0.2-2.4,0.3-3.7"/>
		</g>
	</g>
</g>
</svg>
