<?xml version="1.0" encoding="utf-8"?>
<!-- Generator: Adobe Illustrator 22.0.1, SVG Export Plug-In . SVG Version: 6.00 Build 0)  -->
<svg version="1.1" id="Layer_1" xmlns="http://www.w3.org/2000/svg" xmlns:xlink="http://www.w3.org/1999/xlink" x="0px" y="0px"
	 viewBox="0 0 32 32" style="enable-background:new 0 0 32 32;" xml:space="preserve">
<style type="text/css">
	.st0{fill:#696E75;}
</style>
<title>logo</title>
<path class="st0" d="M19.5,12.9c0.7-0.1,1.3-0.4,1.7-1v0.9h1.5v-8h-1.5v6c-0.2,0.2-0.6,0.6-0.9,0.6S20,11.3,20,11V4.8h-1.5v6.7
	C18.5,12.3,18.8,12.9,19.5,12.9z"/>
<path class="st0" d="M13,10.8c-0.2,1,0.6,2,1.6,2.2c0.2,0,0.3,0,0.5,0c1.1,0.1,2.1-0.8,2.1-1.9c0-0.1,0-0.2,0-0.3v-4
	c0-1.1-0.9-2.1-2-2.1c0,0-0.1,0-0.1,0C14,4.7,13.1,5.5,13,6.6c0,0.1,0,0.2,0,0.3V10.8z M14.5,7c0-0.4,0.2-0.8,0.6-0.8
	s0.6,0.3,0.6,0.8v3.7c0,0.4-0.2,0.8-0.6,0.8c-0.4,0-0.7-0.3-0.7-0.7c0,0,0,0,0-0.1V7z"/>
<polygon class="st0" points="9.4,12.8 11.1,12.8 11.1,8.4 13,2 11.3,2 10.3,6.3 9.1,2 7.4,2 9.4,8.4 "/>
<path class="st0" d="M24.7,14.6H7.3c-1.9,0-3.4,1.5-3.4,3.4v8.6c0,1.9,1.5,3.4,3.4,3.4h17.5c1.9,0,3.4-1.5,3.4-3.4V18
	C28.1,16.1,26.6,14.6,24.7,14.6z M9.6,27.5H8v-8.8H6.4v-1.5h4.9v1.5H9.6V27.5z M15.2,27.5h-1.4v-0.8c-0.2,0.3-0.5,0.5-0.8,0.7
	c-0.8,0.4-1.8,0.4-1.8-1.1v-6.3h1.4v5.8c0,0.3,0.1,0.5,0.4,0.5s0.6-0.4,0.8-0.6v-5.8h1.4V27.5z M20.7,25.9c0,0.9-0.4,1.7-1.3,1.7
	c-0.5,0-1-0.2-1.3-0.7v0.6h-1.4V17.2h1.4v3.3c0.3-0.4,0.7-0.7,1.2-0.7c1,0,1.4,0.9,1.4,1.9V25.9z M25.9,23.9h-2.7v1.4
	c0,0.6,0,1.1,0.6,1.1s0.6-0.4,0.6-1.1v-0.5h1.5v0.6c0,1.5-0.6,2.4-2.1,2.4s-2-1-2-2.4v-3.4c-0.1-1.2,0.8-2.2,1.9-2.2
	c0.1,0,0.1,0,0.2,0c1.4,0,2,0.9,2,2.2L25.9,23.9z"/>
<path class="st0" d="M23.8,21c-0.5,0-0.6,0.4-0.6,0.9v0.8h1.2v-0.8C24.4,21.4,24.3,21,23.8,21z"/>
<path class="st0" d="M18.3,21c-0.1,0.1-0.2,0.1-0.3,0.2V26c0.1,0.1,0.2,0.2,0.3,0.3c0.2,0.1,0.5,0.1,0.7-0.1
	c0.1-0.2,0.1-0.3,0.1-0.5v-3.9c0-0.2,0-0.4-0.1-0.6C18.9,21,18.6,20.9,18.3,21z"/>
</svg>
