<?xml version="1.0" encoding="utf-8"?>
<!-- Generator: Adobe Illustrator 22.0.1, SVG Export Plug-In . SVG Version: 6.00 Build 0)  -->
<svg version="1.1" id="Layer_1" xmlns="http://www.w3.org/2000/svg" xmlns:xlink="http://www.w3.org/1999/xlink" x="0px" y="0px"
	 viewBox="0 0 1396 208" style="enable-background:new 0 0 1396 208;" xml:space="preserve">
<style type="text/css">
	.st0{fill:#EC1C24;}
	.st1{fill:#D9272E;}
	.st2{fill:#A8112C;}
	.st3{fill:#B3B5B7;}
	.st4{fill:#446EBF;}
	.st5{fill:#0095D6;}
	.st6{fill:#FFFFFF;}
	.st7{fill:#CF0A2C;}
	.st8{fill:#1A3B69;}
	.st9{fill:#99CA49;}
	.st10{fill:#FF0000;}
	.st11{fill:none;stroke:#231F20;stroke-width:0.65;stroke-linecap:round;stroke-miterlimit:2.61;}
	.st12{fill:#EE3E42;}
	.st13{fill:#00529C;}
	.st14{fill:url(#SVGID_1_);}
	.st15{fill:#00468F;}
	.st16{fill:#4A63AD;}
	.st17{fill:#CEAA7A;}
	.st18{fill:#B1BA1E;}
	.st19{fill:#005186;}
	.st20{fill:#0082CA;}
	.st21{fill:#860419;}
	.st22{fill:#8F192D;}
	.st23{fill:#8E162B;}
	.st24{fill:#FCB62F;}
	.st25{fill:#840117;}
</style>
<title>logos-customers</title>
<path class="st0" d="M126.1,28.7l6.4-18.2h5.2v18.2H126.1z M138.4,28.7h11.6l-6.4-18.2h-5.2V28.7z M150.2,29.4h-11.8v10.8h6.3
	l2.6,7.4h9.3L150.2,29.4z M137.6,29.4h-11.8l-6.4,18.2h9.3l2.6-7.4h6.3V29.4z M169.9,10.5h-10.8v18.2h10.8V10.5z M170.6,29.4v18.2
	h3.3c6.1,0,11.1-5,11.1-11.1c0-2.6-0.9-5.1-2.5-7.1L170.6,29.4z M170.6,28.7h11.3c-1.1-1.1-2.4-2-3.9-2.6c4-2.3,5.4-7.3,3.2-11.4
	c-1.5-2.6-4.3-4.3-7.3-4.3h-3.3L170.6,28.7z M169.9,29.4h-10.8v18.2h10.8V29.4z M198.8,10.5H188v18.2h10.8L198.8,10.5z M199.5,29.4
	v18.2h3.3c6.1,0,11.1-5,11.1-11.1c0-2.6-0.9-5.1-2.5-7.1L199.5,29.4z M199.5,28.7h11.3c-1.1-1.1-2.4-2-3.8-2.6
	c4-2.3,5.4-7.3,3.2-11.4c-1.5-2.6-4.3-4.3-7.3-4.3h-3.3L199.5,28.7z M198.8,29.4H188v18.2h10.8L198.8,29.4z"/>
<path class="st1" d="M442.9,30.7c0-0.6,0.3-0.8,0.9-0.4l2.3,1.3c0-0.4,0.4-0.6,1-0.5l1.3,0.3l-0.5-1.2c-0.3-0.7,0-1,0.3-1.1
	l-0.7-0.5c-0.6-0.4-0.5-0.8,0.1-1.1l1.8-0.8c-0.4-0.2-0.6-0.8-0.3-1.2c0,0,0-0.1,0.1-0.1c0.4-0.6,1-1.4,1-1.4h-1.8
	c-0.4,0-0.8-0.3-0.8-0.8c0,0,0-0.1,0-0.1c0,0-1.1,0.8-1.8,1.3s-1.2,0-1.1-0.7c0.1-1.2,0.3-2.4,0.3-2.4c-0.4,0.3-1,0.2-1.3-0.2
	c0-0.1-0.1-0.1-0.1-0.2l-1-2.1l-1,2.1c-0.2,0.5-0.7,0.7-1.2,0.5c-0.1,0-0.1-0.1-0.2-0.1c0,0,0.1,1.3,0.3,2.4
	c0.1,0.7-0.5,1.2-1.1,0.7s-1.8-1.3-1.8-1.3c0.1,0.4-0.3,0.8-0.7,0.9c0,0-0.1,0-0.1,0H435c0,0,0.6,0.8,1,1.4c0.3,0.4,0.2,0.9-0.2,1.2
	c0,0-0.1,0-0.1,0.1l1.8,0.8c0.6,0.2,0.7,0.6,0.1,1.1l-0.7,0.5c0.3,0.1,0.6,0.4,0.3,1.1l-0.5,1.2L438,31c0.7-0.1,1,0.1,1,0.5l2.3-1.3
	c0.6-0.3,0.9-0.2,0.9,0.4v1.6c0,0.8-0.1,1.7-0.5,2.4c-4.8-0.5-8.3-4.8-7.8-9.6s4.8-8.3,9.6-7.8s8.3,4.8,7.8,9.6
	c-0.4,4.1-3.7,7.4-7.8,7.8v1.1c5-0.4,8.9-4.5,9-9.5c0-5.5-4.5-10-10-10s-10,4.5-10,10c0.1,4.6,3.5,8.6,8.1,9.3
	c0.6,0,1.2,0.3,1.7,0.8c0.5-1.2,0.7-2.6,0.6-3.9C442.9,32.5,442.9,31.2,442.9,30.7z"/>
<path class="st1" d="M324.9,31.3V21.2h4.9c2.6,0,3.8,1.1,3.9,2.5c0.1,0.6-0.1,1.3-0.6,1.8c-0.4,0.5-0.9,0.9-1.5,1.1l3.8,4.8h-2.8
	l-3.3-4.2h-2.2v4.2L324.9,31.3z M327.1,25.8h1c2.8,0,3.3-0.5,3.3-1.8s-1.2-1.5-3-1.5h-1.3L327.1,25.8z"/>
<path class="st1" d="M302.6,31.3l4.4-10.1h2.7l4.4,10.1h-2.8l-1.2-2.7h-4.7l-1.2,2.7H302.6z M306.1,27.3h3.5l-1.8-4L306.1,27.3z"/>
<path class="st1" d="M317.3,31.3V21.2h2.4v10.1H317.3z"/>
<path class="st1" d="M352.5,31c-1.3,0.5-2.8,0.7-4.2,0.7c-1.7,0.1-3.4-0.4-4.7-1.4c-1.1-1-1.8-2.5-1.7-4c-0.1-1.5,0.5-3,1.7-4
	c1.4-1,3.1-1.5,4.9-1.4c1.3,0,2.7,0.1,4,0.4v1.7c-1.3-0.4-2.6-0.6-3.9-0.7c-1.1-0.1-2.2,0.3-3,1c-0.7,0.8-1.1,1.8-1.1,2.9
	c-0.1,1.1,0.3,2.1,1.1,2.9c0.9,0.7,2,1.1,3.1,1c1.3,0,2.5-0.3,3.7-0.8L352.5,31z"/>
<path class="st1" d="M355.4,31.3l4.5-10.1h2.7l4.4,10.1h-2.8l-1.2-2.7h-4.7l-1.2,2.7H355.4z M358.9,27.3h3.5l-1.8-4L358.9,27.3z"/>
<path class="st1" d="M384.7,31.3l4.5-10.1h2.7l4.4,10.1h-2.8l-1.2-2.7h-4.7l-1.2,2.7H384.7z M388.2,27.3h3.5l-1.8-4L388.2,27.3z"/>
<path class="st1" d="M412.6,31.3l4.4-10.1h2.7l4.4,10.1h-2.8l-1.2-2.7h-4.7l-1.2,2.7H412.6z M416.1,27.3h3.5l-1.8-4L416.1,27.3z"/>
<path class="st1" d="M370.3,31.3V21.2h2.7l6.4,7.2v-7.2h1.9v10.1h-2.5l-6.6-7.6v7.6H370.3z"/>
<path class="st1" d="M399.6,31.3V21.2h4.9c1.5-0.1,2.9,0.4,4,1.3c1,0.9,1.5,2.3,1.4,3.6c0.1,1.5-0.5,2.9-1.5,3.9
	c-1.2,1-2.7,1.5-4.2,1.4L399.6,31.3z M402,29.9h1.8c1,0.1,2-0.2,2.8-0.9c0.7-0.8,1-1.8,0.9-2.8c0-0.9-0.2-1.7-0.7-2.4
	c-0.3-0.4-0.7-0.7-1.2-0.9c-0.7-0.2-1.4-0.3-2.1-0.3H402V29.9z"/>
<path class="st2" d="M606.5,14.6c-1.2,0.3-2.4,0.7-3.7,1L595.3,1h-6.8l-15.2,29.2l0,0h6.5c6-4,12.4-7.5,18.9-10.5l5.2,10.5h6.3
	l-6.5-12.8c1.1-0.5,2.3-1,3.4-1.5L606.5,14.6L606.5,14.6z M583.1,23.3l8.8-17.7l5.7,11.6C592.6,18.8,587.7,20.8,583.1,23.3z"/>
<path class="st2" d="M571.2,48.1h4L579,53h3.2l-4-5c0.9,0,1.8-0.4,2.5-1c0.7-0.7,1.1-1.6,1.1-2.7c0.1-1.2-0.5-2.4-1.5-3
	c-1.2-0.6-2.5-0.8-3.8-0.7h-7.8V53h2.6V48.1z M571.2,46.1v-3.4h4.9c2,0,3.1,0.3,3.1,1.7s-1,1.7-3.1,1.7L571.2,46.1z"/>
<polygon class="st2" points="610.5,50.4 605.6,40.6 602.8,40.6 609.1,53 611.8,53 618.2,40.6 615.4,40.6 610.5,50.4 "/>
<polygon class="st2" points="590.2,45.5 590.2,42.7 599,42.7 599,40.6 587.7,40.6 587.7,53 599,53 599,50.9 590.2,50.9 590.2,47.7 
	596.9,47.7 596.9,45.5 590.2,45.5 "/>
<path class="st2" d="M561.6,47.6l1.4-0.6l-0.3-0.6l-1.5,0.4l-3.2-6.2h-2.9L548.7,53h2.8c0,0,5-3.1,8-4.5l2.1,4.5h2.7L561.6,47.6
	L561.6,47.6z M552.9,50l3.7-7.3l2.3,4.8C556.9,48.1,554.9,49,552.9,50L552.9,50z"/>
<path class="st2" d="M632.3,47.6l1.4-0.6l-0.3-0.6l-1.5,0.4l-3.2-6.2h-2.9L619.4,53h2.8c0,0,5-3.1,8-4.5l2.1,4.5h2.7L632.3,47.6
	L632.3,47.6z M623.6,50l3.7-7.3l2.3,4.8C627.6,48.1,625.5,49,623.6,50L623.6,50z"/>
<g id="g612">
	<path id="path614" class="st3" d="M766.1,38h-3.9v9.8h2.8v-3.2h1.2c2.3,0,3.5-1.1,3.5-3.4S768.5,38,766.1,38 M765,40.3h0.2
		c1,0,1.6,0,1.6,1s-0.6,1-1.6,1H765V40.3z"/>
</g>
<g id="g616">
	<path id="path618" class="st3" d="M774.6,44.6c0,0.9-0.3,1.2-1,1.2s-1-0.3-1-1.2V41H770v4c0,2,1.2,2.9,3.6,2.9s3.6-1,3.6-2.9v-4
		h-2.6L774.6,44.6z"/>
</g>
<g id="g620">
	<path id="path622" class="st3" d="M782.1,40.8c-0.7,0-1.3,0.2-1.8,0.6V37h-2.6v10.8h2.6v-0.5c0.5,0.4,1.1,0.7,1.8,0.7
		c2-0.1,3.5-1.9,3.3-3.9C785.3,42.3,783.9,40.9,782.1,40.8 M782.8,44.4c0,0.7-0.6,1.3-1.3,1.3c-0.7,0-1.3-0.6-1.3-1.3
		c0-0.7,0.6-1.3,1.3-1.3C782.2,43.1,782.8,43.7,782.8,44.4"/>
</g>
<path id="path624" class="st3" d="M785.8,47.8h2.6V37h-2.6V47.8z"/>
<path id="path626" class="st3" d="M788.9,47.8h2.6V41h-2.6V47.8z"/>
<g id="g630">
	<g id="g636">
		<path id="path638" class="st3" d="M790.2,37.2c-0.8,0-1.5,0.6-1.5,1.5c0,0.8,0.6,1.4,1.5,1.4c0.8,0,1.5-0.6,1.5-1.5
			C791.7,37.9,791,37.2,790.2,37.2L790.2,37.2"/>
	</g>
	<g id="g640">
		<path id="path642" class="st3" d="M795.6,40.8c-2,0-3.6,1.6-3.6,3.6c0,2,1.6,3.6,3.5,3.6c0.6,0,1.2-0.1,1.7-0.4h0.1v-2.4l-0.3,0.2
			c-0.3,0.2-0.6,0.4-1,0.4c-0.8,0-1.4-0.5-1.4-1.3c0,0,0-0.1,0-0.1c0-0.8,0.6-1.4,1.4-1.4c0.4,0,0.8,0.2,1.1,0.4l0.3,0.2v-2.4h-0.1
			C796.7,41,796.1,40.8,795.6,40.8"/>
	</g>
</g>
<g id="g644">
	<path id="path646" class="st3" d="M819.7,38h-2.8v9.8h5.8v-2.5h-3L819.7,38z"/>
</g>
<g id="g650">
	<g id="g656">
		<path id="path658" class="st3" d="M824.4,37.2c-0.8,0-1.5,0.6-1.5,1.5c0,0.8,0.6,1.4,1.5,1.4c0.8,0,1.5-0.6,1.5-1.5
			C825.8,37.9,825.2,37.2,824.4,37.2L824.4,37.2"/>
	</g>
</g>
<path id="path660" class="st3" d="M823.1,47.8h2.6V41h-2.6V47.8z"/>
<g id="g664">
	<g id="g670">
		<path id="path672" class="st3" d="M830.6,40.8c-0.7,0-1.3,0.2-1.8,0.6V37h-2.6v10.8h2.6v-0.5c0.5,0.4,1.1,0.7,1.8,0.7
			c2-0.1,3.5-1.9,3.3-3.9C833.7,42.3,832.3,40.9,830.6,40.8 M831.2,44.4c0,0.7-0.6,1.3-1.3,1.3c-0.7,0-1.3-0.6-1.3-1.3
			c0-0.7,0.6-1.3,1.3-1.3C830.7,43.1,831.2,43.7,831.2,44.4"/>
	</g>
	<g id="g674">
		<path id="path676" class="st3" d="M844.5,41.4c-0.5-0.4-1.2-0.6-1.8-0.6c-1.5,0-2.7,0.9-3.2,2.3V41h-0.6c-0.7,0-1.5,0.3-2,0.8V41
			h-2.6v6.8h2.6V45c0-1.2,0.4-1.8,1.4-1.8c0.3,0,0.6,0,0.9,0.2l0.1,0.1c-0.1,0.3-0.1,0.6-0.1,0.9c-0.1,1.9,1.4,3.5,3.3,3.6
			c0,0,0.1,0,0.1,0c0.7,0,1.3-0.2,1.8-0.7v0.5h2.6V41h-2.6V41.4z M844.6,44.4c0,0.7-0.6,1.3-1.3,1.3c-0.7,0-1.3-0.6-1.3-1.3
			c0-0.7,0.6-1.3,1.3-1.3C844,43.1,844.6,43.7,844.6,44.4"/>
	</g>
	<g id="g678">
		<path id="path680" class="st3" d="M858.8,41l-1.6,3.1l-1.6-3.1h-3.5c-0.8-0.1-1.5,0.3-2,0.8V41h-2.6v6.8h2.6V45
			c0-1.2,0.4-1.8,1.4-1.8c0.3,0,0.6,0,0.9,0.2l0.2,0.1v-2.1l3,5.3l-2.2,4.3h2.9l5.3-10H858.8z"/>
	</g>
	<g id="g682">
		<path id="path684" class="st4" d="M782.5,23.3l7.4-5.8V33L782.5,23.3z M764.9,23.3c-0.8-0.8-1.8-1.4-2.8-1.9
			c1.1-0.4,2-1.1,2.8-1.9c0.6-0.6,1-1.3,1.3-2v7.7C765.9,24.5,765.5,23.8,764.9,23.3 M757,17.6c-0.7,0.9-1.8,0.9-2.8,0.9h-1.6v-4.3
			h1.6c0.7,0,1.4,0,2,0.2c0.7,0.3,1.2,1.1,1.2,1.9C757.4,16.8,757.3,17.2,757,17.6 M756.2,28.4c-0.7,0.2-1.3,0.3-2,0.2h-1.6v-4.3
			h1.6c1,0,2.1,0,2.8,0.9c0.7,1,0.5,2.3-0.5,3C756.4,28.3,756.3,28.3,756.2,28.4 M842.6,18.7c-1.3-1.6-3.3-2.6-5.4-2.5
			c-2.6,0.1-4.9,1.3-6.5,3.4l0.1-3h-17.3l-2.6,9.6l-2.8-9.6h-9.1V7.7h-9.2v8.9H780l-4.8,3.8V7.7h-9.1v5.1c-0.2-0.6-0.6-1.3-1-1.8
			c-0.6-0.7-1.2-1.3-2-1.8c-2.3-1.4-4.6-1.5-7.2-1.5h-12.4v27.5H756c2.6,0,4.9-0.1,7.2-1.5c0.8-0.5,1.4-1.1,2-1.8
			c0.4-0.5,0.8-1.2,1-1.8v5h9v-5.2l1-0.9l5,6h17.9V18.4l7.2,15.6l-6.6,13.8h9.8l12.9-29.2v16.5h9.2v-9.6c-0.1-0.7,0.2-1.4,0.7-1.9
			c0.3-0.2,0.6-0.3,0.9-0.3c0.8,0,1.5,0.5,1.6,1.4c0,0.3,0,0.6,0,0.8v9.6h9.2V24.6C843.9,22.6,843.9,20.4,842.6,18.7"/>
	</g>
</g>
<path class="st5" d="M986.7,52.7h54.3c5.3,0,10.2-4.1,10.2-9.1c0-24.1-21.6-36.2-37.3-36.2s-37.3,12.1-37.3,36.2
	C976.6,48.5,980.7,52.7,986.7,52.7L986.7,52.7z"/>
<path class="st6" d="M1007.5,41.1c-1.7,3.9-4.5,6.5-8.7,6.5c-7.2,0-11.9-6.5-11.9-13.9c0-2.8,0.8-5.5,2.5-7.7c1.6-1.9,4-3,6.5-2.8
	c3.7-0.1,7.2,2.1,8.6,5.5l0.3-0.1l-1.8-7.9c-0.3,0.6-0.9,0.9-1.5,0.9l-1.3-0.1l-4.3-0.4c-3.5,0-7,0.8-9.8,3.2
	c-2.6,2.6-4,6.1-3.9,9.8c-0.1,4.5,1.7,8.9,5.1,12c3.2,2.9,7.4,3.8,11.5,3.8l4.8-0.2c0.4-0.1,0.9,0,1.3,0.1l3-8.5L1007.5,41.1z"/>
<path class="st6" d="M1041.3,22v-0.4h-9.7V22c2.6,0.4,2.6,2.8,2.6,5.1v9.3c-0.4-0.2-0.9-0.3-1.3-0.2c-0.4,0-0.7,0-1.1,0.2
	c-1.8-2.4-4.9-4-7.9-4.9c2.6-1.3,6.6-2.9,6.6-6.2c0-3.5-4.5-3.6-7.1-3.6h-16.2V22c2.8,0.4,2.8,2.8,2.9,5.1v17c0,2.3,0,4.5-2.9,4.8
	v0.4h11.1c3.3,0,7,0,10.1-1.1l0.3-0.1c0.9,0.9,2.1,1.3,3.4,1.3c0.3,0,0.6,0,0.8,0h8.4v-0.4c-0.6-0.1-1.1-0.3-1.5-0.6l0,0l-0.8-1.3
	c-0.3-1-0.4-2.1-0.3-3.2V26.9C1038.6,24.6,1038.7,22.4,1041.3,22z M1014.8,27c-0.1-0.9,0.1-1.8,0.4-2.6c0.7-0.8,3.2-0.8,4.3-0.8
	c1.8,0,5.6,0,5.6,2.4c0,3.6-7.4,5.8-10.3,6.6L1014.8,27z M1025.2,46c-2,1.2-4.7,1.4-7,1.4c-3.2,0-3.4-0.6-3.4-3.3v-9.4l6.7-2.4
	c3.4,1.4,6.9,4.3,6.9,8.1C1028.3,42.7,1027.1,44.8,1025.2,46z"/>
<path class="st5" d="M1035.8,48.5h3.6l-2-3.1c0.6-0.9,0.8-1.9,0.8-3c0-0.3,0-0.6,0-0.9h-1.2c0.1,0.3,0.1,0.7,0.1,1
	c0,0.6-0.1,1.3-0.4,1.8l-2.2-3.4c0.6-0.5,1-1.2,1-2c0-1.3-1.1-2.4-2.4-2.4c-0.1,0-0.1,0-0.2,0c-1.5-0.1-2.9,1.1-3,2.6
	c0,0.1,0,0.1,0,0.2l1,1.9c-2,1.1-2.9,2.2-2.9,3.8c0,2.1,1.8,3.7,3.9,3.7c0,0,0.1,0,0.1,0c1.2,0,2.3-0.4,3.2-1.1l0.6,0.8L1035.8,48.5
	z M1034.4,46.6c-0.3,0.2-0.7,0.3-1.1,0.3c-1.3-0.1-2.3-1.1-2.3-2.4c0-0.6,0.3-1.2,0.9-1.5L1034.4,46.6L1034.4,46.6z M1032.4,38
	c0.4-0.4,1.1-0.4,1.5,0.1c0.2,0.2,0.3,0.4,0.3,0.7c0,0.4-0.3,0.8-0.7,1L1032.4,38z"/>
<path class="st7" d="M1194,38.5c-5.8,7.2-16.4,8.4-23.6,2.6c-7.2-5.8-8.4-16.4-2.6-23.6c3.2-4,8-6.3,13.1-6.3c5.1,0,10,2.3,13.1,6.4
	l-0.5,0.3c-5.6-6-14.9-6.3-20.9-0.7s-6.3,14.9-0.7,20.9c2.8,3,6.7,4.7,10.8,4.7c4,0,7.9-1.6,10.7-4.5L1194,38.5L1194,38.5z"/>
<path d="M1199.1,19.9c-5.3,0-8.3,3.5-8.3,8.1s3,8,8.3,8c4.3,0.2,7.9-3.1,8.2-7.3c0-0.2,0-0.4,0-0.7c0.2-4.3-3.2-7.9-7.5-8.1
	C1199.5,19.9,1199.3,19.9,1199.1,19.9z M1199.1,33.1c-2.7,0.1-4.9-2.1-5-4.8c0-0.1,0-0.1,0-0.2c-0.1-2.7,2-5,4.7-5.1s5,2,5.1,4.7
	c0,0.1,0,0.3,0,0.4C1203.9,30.8,1201.7,33,1199.1,33.1L1199.1,33.1z M1245.2,31c-0.9,1.4-2.5,2.2-4.1,2.1c-2.7,0.1-4.9-2-5-4.7
	c0-0.1,0-0.2,0-0.3c-0.1-2.8,2-5.1,4.8-5.2c1.7-0.1,3.3,0.7,4.3,2.1l2.5-1.6c-1.4-2.3-3.9-3.6-6.6-3.5c-5,0-8.3,3.3-8.3,8.1
	s3.3,8,8.3,8c2.7,0.2,5.2-1.2,6.6-3.5L1245.2,31z M1187.3,31.2c-1.8,2.4-5.1,2.8-7.4,1.1c-1.3-1-2.1-2.6-2.1-4.2
	c-0.1-2.8,2-5.2,4.9-5.4c0.1,0,0.2,0,0.3,0c1.7,0,3.4,0.8,4.4,2.1l2.6-1.6c-0.2-0.3-2-3.6-6.9-3.6c-5.3,0-8.7,3.5-8.7,8.5
	c0,4.9,3.4,8.4,8.7,8.4c2.8,0.2,5.5-1.2,6.9-3.6L1187.3,31.2L1187.3,31.2z M1285.7,20.3l0.2-4.3l-3.4,1.7l-0.1,2.6h-2.5v2.6h2.5v8.7
	c0,3.1,1.8,4.5,4.1,4.5c0.8,0,1.6-0.1,2.3-0.3l0.4-2.6c-0.5,0.2-1,0.3-1.5,0.2c-1.3,0-2.1-0.5-2.1-2v-8.5h3.2v-2.6L1285.7,20.3z
	 M1261.9,20.3c0,0-0.1,1.5-0.1,1.7l0,0c-1.3-1.4-3.1-2.1-5-2.1c-4.3-0.2-7.9,3.1-8.1,7.3c0,0.3,0,0.5,0,0.8c-0.2,4.2,3.1,7.8,7.4,8
	c0.2,0,0.5,0,0.7,0c1.9,0,3.7-0.7,5-2.1l0,0l0.1,1.7h3.3V20.2L1261.9,20.3z M1257.2,33.1c-2.7,0.1-5-1.9-5.1-4.6c0-0.1,0-0.2,0-0.4
	c0-2.8,2.3-5.1,5.1-5.1s5.1,2.3,5.1,5.1c0.1,2.7-2.1,4.9-4.8,5C1257.4,33.1,1257.3,33.1,1257.2,33.1L1257.2,33.1z M1227.4,35.7V26
	c0-2.1-1.1-3.2-2.9-3.2s-2.9,1.2-2.9,3.2v9.7h-3.3V26c0-2.1-1.1-3.2-2.8-3.2c-1.9,0-2.9,1.2-2.9,3.2v9.7h-3.3V20.2h3.1v1.5h0.1
	c0.9-1.2,2.4-1.9,3.9-1.8c1.7-0.1,3.2,0.8,4,2.2c1.1-1.5,2.8-2.3,4.6-2.2c3.6,0,5.6,2.2,5.6,5.4v10.4L1227.4,35.7z M1274.7,26.5
	c2.6,0.9,4.3,2.3,4.3,4.6c0,3.2-2.7,4.9-6.4,4.9c-2,0.1-3.9-0.4-5.6-1.4l1.3-2.5c1.4,0.7,2.9,1.1,4.5,1.2c1.7,0,2.9-0.7,2.9-1.8
	c0-0.9-0.7-1.6-2.3-2.1l-1.8-0.6c-2.1-0.7-3.8-2.1-3.8-4.5c0-2.6,2.4-4.4,5.7-4.4c1.8-0.1,3.5,0.4,5,1.3l-1.2,2.4
	c-1.2-0.6-2.5-1-3.8-1c-1.7,0-2.3,0.7-2.3,1.5s0.6,1.3,2,1.9L1274.7,26.5L1274.7,26.5z M1292.1,34.5c0.9,0,1.6,0.7,1.6,1.6
	s-0.7,1.6-1.6,1.6c-0.9,0-1.6-0.7-1.6-1.6c0,0,0,0,0,0C1290.5,35.2,1291.2,34.5,1292.1,34.5z M1292.1,34.7c0.7,0,1.3,0.6,1.3,1.3
	s-0.6,1.3-1.3,1.3c-0.7,0-1.3-0.6-1.3-1.3c0,0,0,0,0,0C1290.8,35.3,1291.4,34.7,1292.1,34.7z M1292.8,37h-0.3l-0.3-0.8h-0.5V37h-0.3
	v-1.8h0.8c0.2,0,0.3,0,0.5,0.2c0.1,0.1,0.2,0.2,0.2,0.4c0,0.2-0.1,0.4-0.3,0.5L1292.8,37L1292.8,37z M1291.8,36h0.4
	c0.1,0,0.2,0,0.3-0.1c0.1-0.1,0.1-0.1,0.1-0.2c0-0.1,0-0.1-0.1-0.2c-0.1-0.1-0.2-0.1-0.2-0.1h-0.4V36L1291.8,36z"/>
<path class="st8" d="M46.4,99.6v12.6H48V99.6H46.4 M45.8,95.8c0,0.4,0.2,0.7,0.4,0.9c0.5,0.6,1.4,0.6,2,0c0,0,0,0,0,0
	c0.2-0.2,0.4-0.6,0.4-0.9c0-0.4-0.1-0.7-0.4-1c-0.3-0.3-0.6-0.4-1-0.4c-0.4,0-0.7,0.1-1,0.4C45.9,95.1,45.8,95.5,45.8,95.8
	L45.8,95.8z M51.1,94.8v17.4h1.6V94.8L51.1,94.8z M39.1,100c-2.5-1.2-5.5-0.7-7.4,1.3c-1.3,1.2-1.9,2.9-1.9,4.7
	c0,1.8,0.6,3.5,1.9,4.7c1.9,1.9,4.9,2.5,7.3,1.3c0.9-0.4,1.7-1.1,2.3-1.9v2.2h1.6V99.6h-1.6v2.4C40.7,101.2,40,100.5,39.1,100z
	 M33.9,101.6c0.8-0.4,1.6-0.7,2.5-0.6c1.3-0.1,2.7,0.5,3.6,1.5c1.6,1.7,1.9,4.2,0.8,6.2c-0.4,0.8-1.1,1.4-1.8,1.8
	c-0.8,0.4-1.6,0.7-2.5,0.7c-0.9,0-1.7-0.2-2.5-0.7c-0.8-0.5-1.4-1.1-1.8-1.9c-0.4-0.8-0.7-1.7-0.7-2.6c0-0.9,0.2-1.7,0.7-2.5
	C32.6,102.6,33.2,102,33.9,101.6L33.9,101.6z M15.9,96.9c1.8-0.1,3.5,0.1,5.3,0.5c1.4,0.4,2.5,1.2,3.3,2.4c0.8,1.3,1.2,2.7,1.2,4.2
	c0.1,1.4-0.3,2.8-1.1,4c-0.7,1.1-1.8,1.9-3,2.2c-1.6,0.4-3.2,0.5-4.9,0.4h-2V96.9H15.9z M13,95.2v17h5.4c1.7,0.1,3.4-0.2,5-0.9
	c1.2-0.7,2.2-1.7,2.9-2.9c1.6-3,1.5-6.7-0.3-9.6c-0.9-1.4-2.3-2.5-3.9-3c-1.8-0.5-3.7-0.7-5.5-0.6L13,95.2z M143.3,100.3
	c-0.7-0.7-1.7-1-2.7-1c-1.4,0-2.7,0.6-3.7,1.6l0.2-1.3h-3l-1.7,12.6h3.1l0.6-4.4c0.1-1.2,0.4-2.4,0.8-3.6c0.3-0.6,0.7-1.1,1.2-1.5
	c0.5-0.3,1-0.5,1.6-0.5c0.5,0,0.9,0.1,1.2,0.4c0.3,0.3,0.5,0.7,0.4,1.2l-0.1,1.6l-0.9,6.9h3.1l0.9-7.1l0.2-2.2
	C144.3,102,144,101.1,143.3,100.3z M126.6,103.3c0.6,0.6,0.9,1.4,0.8,2.2c0,1.1-0.3,2.1-1,2.9c-0.7,0.9-1.8,1.3-2.9,1.3
	c-0.8,0-1.6-0.3-2.1-0.8c-0.5-0.6-0.8-1.4-0.8-2.2c0-1,0.4-2,1-2.9c0.7-0.9,1.7-1.4,2.8-1.3C125.2,102.5,126,102.8,126.6,103.3
	L126.6,103.3z M113,99.6l-1.7,12.6h3.1l1.7-12.6H113z M119.1,102.3c-1,1.3-1.5,2.9-1.5,4.5c-0.2,2.9,2,5.5,4.9,5.7
	c0.3,0,0.6,0,0.8,0c1.9,0.1,3.7-0.7,5.1-2c2.1-2.1,2.6-5.3,1.3-8c-0.5-0.9-1.2-1.6-2.1-2.1c-0.9-0.5-2-0.8-3-0.8h-7.5l-0.4,2.7
	L119.1,102.3z M116.5,95.1c-0.4-0.4-0.9-0.6-1.4-0.6c-0.5,0-1,0.2-1.3,0.6c-0.4,0.4-0.6,0.8-0.6,1.3c0.1,1,0.9,1.9,1.9,1.9
	c0.5,0,1-0.2,1.4-0.6c0.4-0.3,0.6-0.8,0.6-1.3C117,95.9,116.8,95.4,116.5,95.1L116.5,95.1z M109.3,99.6L110,95h-3.1l-0.6,4.7h-1.5
	l-0.4,2.7h1.5l-1.3,9.9h3.1l1.3-9.9h2l0.4-2.7L109.3,99.6z M98.9,103.3c0.6,0.6,0.9,1.4,0.8,2.2c0,1.1-0.3,2.1-1,2.9
	c-0.7,0.9-1.8,1.3-2.9,1.3c-0.8,0-1.6-0.3-2.1-0.8c-0.5-0.6-0.8-1.4-0.8-2.2c0-1,0.4-2,1-2.9c0.7-0.9,1.7-1.4,2.8-1.3
	C97.6,102.5,98.4,102.8,98.9,103.3L98.9,103.3z M97,99.6c-1.9,0-3.7,0.7-5,2c-1.4,1.3-2.2,3.2-2.1,5.1c-0.2,3,2.1,5.6,5.1,5.7
	c0.2,0,0.5,0,0.7,0c1.9,0,3.7-0.7,5.1-2c1.3-1.3,2-3.1,2-4.9c0-1.1-0.2-2.2-0.8-3.1l-0.1-0.2h1.5l0.3-2.7h-6.3L97,99.6z M76.4,104
	l-0.1,1.4l-0.9,6.9h3.1l0.6-4.8c0.1-1.1,0.3-2.2,0.7-3.2c0.3-0.6,0.7-1.1,1.2-1.5c0.5-0.4,1-0.6,1.6-0.6c0.5,0,0.9,0.1,1.2,0.5
	c0.3,0.4,0.5,0.9,0.5,1.4l-0.2,1.7l-0.9,6.5h3.1l1-7.5l0.1-1.6c0-1-0.3-2-1-2.8c-0.7-0.7-1.6-1.1-2.6-1.1c-0.8,0-1.7,0.2-2.4,0.6
	c-0.8,0.4-1.5,1-2,1.7c-0.2-0.5-0.4-0.9-0.8-1.2c-0.3-0.3-0.7-0.6-1.2-0.7c-0.5-0.2-1-0.3-1.6-0.3c-1.4,0-2.8,0.6-3.7,1.7l0.2-1.4
	h-3.1l-1.7,12.6h3.1l0.7-5.4c0.1-0.9,0.3-1.9,0.7-2.7c0.3-0.6,0.7-1,1.2-1.4c0.5-0.3,1-0.5,1.5-0.5c0.5,0,0.9,0.2,1.3,0.5
	C76.3,103.1,76.5,103.5,76.4,104z M65,99.6l-4.2,9.7l-4.3-9.7h-1.7l5.2,11.6l-2.4,5.6h1.7l7.5-17.2H65z"/>
<path d="M250.4,101.8c1.5,0,2.7,1.3,2.7,2.8c0,0,0,0.1,0,0.1h-5.6c-0.1-1.6,1.2-2.9,2.7-2.9C250.3,101.8,250.3,101.8,250.4,101.8z
	 M256.3,110.5c-0.6,0.2-1.2,0.4-1.8,0.5c-0.7,0.2-1.5,0.2-2.2,0.2c-2.4,0-4.3-0.8-4.6-2.7H258c0.1-0.7,0.2-1.5,0.2-2.2
	c0-4.4-2.2-8.4-7.8-8.4c-5.4,0-8.3,4.2-8.3,9c0,5.5,3.8,8.6,9.2,8.6c1.1,0,2.1-0.1,3.2-0.3c0.9-0.2,1.8-0.4,2.6-0.8L256.3,110.5z"/>
<path d="M331,101.8c1.5,0,2.7,1.3,2.7,2.8c0,0,0,0.1,0,0.1h-5.5c-0.1-1.6,1.2-2.9,2.7-2.9C330.9,101.8,330.9,101.8,331,101.8z
	 M336.9,110.5c-0.6,0.2-1.2,0.4-1.8,0.5c-0.7,0.2-1.5,0.2-2.2,0.2c-2.4,0-4.3-0.8-4.6-2.7h10.4c0.1-0.7,0.2-1.5,0.2-2.2
	c0-4.4-2.2-8.4-7.8-8.4c-5.4,0-8.3,4.2-8.3,9c0,5.5,3.8,8.6,9.2,8.6c1.1,0,2.1-0.1,3.2-0.3c0.9-0.2,1.8-0.4,2.6-0.8L336.9,110.5z"/>
<path d="M260.7,92.3v22.8h5.6V92.3H260.7z"/>
<path d="M277.7,111.3c-1.8,0-3-1.8-3-4.6c0-2.2,0.8-4.6,3-4.6s2.9,2.5,2.9,4.6C280.6,109.5,279.5,111.3,277.7,111.3z M277.6,115.5
	c4.4,0,8.8-2.8,8.8-8.9c0-3.7-2.2-8.6-8.6-8.6c-6.6,0-9,4.8-9,8.9c-0.2,4.6,3.3,8.5,7.9,8.7C277,115.5,277.3,115.5,277.6,115.5
	L277.6,115.5z"/>
<path d="M288.9,98.3v16.8h5.6V98.3H288.9z"/>
<path d="M288.9,92.3v4.4h5.6v-4.4H288.9z"/>
<path d="M299,93.7v4.6h-2.2v4.2h2.2v6.9c0,3.8,1.7,6.1,5.7,6.1c0.8,0,1.6-0.1,2.4-0.2c0.6-0.1,1.1-0.2,1.6-0.3c0,0,0-4.4,0-4.4
	c-0.6,0.1-1.3,0.2-1.9,0.3c-0.6,0-1.2-0.2-1.6-0.6c-0.4-0.5-0.6-1.2-0.6-1.8v-6h3.6v-4.1h-3.7v-5.2L299,93.7z"/>
<path d="M312,93.7v4.6h-2.2v4.2h2.2v6.9c0,3.8,1.7,6.1,5.7,6.1c0.8,0,1.6-0.1,2.4-0.2c0.6-0.1,1.1-0.2,1.6-0.3c0,0,0-4.4,0-4.4
	c-0.6,0.1-1.3,0.2-1.9,0.3c-0.6,0-1.2-0.2-1.6-0.6c-0.4-0.5-0.6-1.2-0.6-1.8v-6h3.6v-4.1h-3.6v-5.2L312,93.7z"/>
<circle class="st9" cx="344.4" cy="112.4" r="3.1"/>
<path d="M220.4,115.2h6.4c0.4,0,1,0,1.4,0c8.7-0.4,12.4-5.6,12.4-11.6c0-7.4-5-11.6-13.7-11.6c-2.2,0-4.2,0.1-6.4,0.3L220.4,115.2z
	 M228.5,110.6c-0.2,0-0.6,0-0.8,0h-1.8v-14c0.6-0.1,1.4-0.1,1.9-0.1c3.3,0,6.8,2.1,6.8,7C234.6,108.7,231.3,110.4,228.5,110.6
	L228.5,110.6z"/>
<g id="_4IUZWY">
	<path d="M454.3,74.6c-0.4,2.2-0.8,4.5-1.2,6.8c-0.1,0.4-0.2,0.5-0.6,0.5c-2.6,0-5.1,0-7.7,0c-0.3,0-0.5,0-0.5,0.4
		c-0.3,1.9-0.6,3.8-1,5.7c-0.1,0.4,0,0.5,0.4,0.5c2.4,0,4.9,0,7.3,0c0.4,0,0.5,0,0.4,0.5c-0.4,2.1-0.8,4.2-1.1,6.3
		c0,0.3-0.1,0.4-0.5,0.4c-2.5,0-4.9,0-7.4,0c-0.4,0-0.5,0.1-0.5,0.5c-0.4,2.3-0.8,4.6-1.2,6.9c-0.1,0.3,0,0.4,0.3,0.4h8.3
		c0.4,0,0.5,0,0.5,0.5c-0.4,2.1-0.8,4.2-1.1,6.3c0,0.3-0.1,0.4-0.5,0.4c-5,0-10.1,0-15.1,0c-0.3,0-0.4-0.1-0.3-0.4
		c0.8-4.7,1.6-9.3,2.5-14s1.7-9.6,2.5-14.4c0.4-2.3,0.8-4.5,1.2-6.8c0-0.1,0.1-0.2,0.1-0.4L454.3,74.6z"/>
	<path class="st10" d="M507.5,104.2c0.4-0.1,0.9-0.2,1.2-0.4c1.2-0.5,2.4-1,3.6-1.4c0.1-0.1,0.3-0.1,0.3-0.2c1.3-0.5,2.7-1,4-1.6
		c0.6-0.2,1.2-0.4,1.7-0.8c0.5,0.2,0.8-0.2,1.2-0.3c2.3-0.9,4.6-1.8,6.9-2.8c0.4-0.2,0.9-0.3,1.4-0.3c-0.8,0.5-1.7,1-2.7,1.3
		l-5.7,2.5c-0.1,0-0.2,0.1-0.2,0.2s-0.3,0.1-0.4,0.1l-5.2,2.4c-0.2,0-0.3,0-0.5,0.1l-6.1,2.9c-0.2,0.1-0.3,0.2-0.5,0.4
		c-0.1,0-0.3,0.1-0.4,0.1l-5,2.4l-1,0.5c-0.9,0.4-1.8,0.8-2.6,1.3c-1.5,0.8-3,1.5-4.5,2.3c-1.9,1-3.8,2-5.7,3
		c-3.3,1.8-6.5,3.5-9.8,5.3c-2.8,1.5-5.5,3.1-8.2,4.6l-8.9,5.2c-0.3,0.1-0.6,0.2-0.9,0.1c-1.1-0.1-2.2-0.1-3.3,0.1
		c-3.2,0.4-6.4,1-9.6,1.5c-2.9,0.5-5.8,1.1-8.6,1.7l-8.2,1.7l-1.4,0.3c-0.2-0.1-0.4,0.1-0.6-0.1c0.7-0.3,1.4-0.6,2.1-0.9l9.2-3.8
		l7.8-3.2l9.7-3.9l9.2-3.7l12.2-4.9l11.8-4.7c0.1-0.1,0.3-0.1,0.3-0.2l0.4-0.2l3.5-1.4c0,0,0.1,0,0.1-0.1l0,0c0.7-0.2,1.4-0.4,2-0.7
		c1.1-0.4,2.2-0.9,3.3-1.3c0.2-0.1,0.4-0.1,0.4-0.4c0.5-0.1,1.1-0.2,1.5-0.5C503.6,105.7,505.5,104.9,507.5,104.2z"/>
	<path d="M494.4,109.4l-3.5,1.4l-0.4,0.2c-0.8,0-1.7,0-2.5-0.3c-1.6-0.5-2.8-1.9-3-3.6c-0.1-1.3-0.1-2.6,0.2-3.9
		c0-0.4,0-0.9,0.2-1.1s0.8-0.1,1.2-0.1c0.9,0,1.8,0,2.7,0c0.3,0,0.4,0.1,0.4,0.4c-0.2,0.9-0.3,1.8-0.3,2.7c0,0.5,0.4,1,0.9,1.2
		c0.6,0.2,1.2,0.1,1.6-0.4c1.2-1.4,1.2-3.4,0-4.8c-0.7-0.7-1.6-1.4-2.4-2.1c-1.9-1.6-2.8-4.2-2.4-6.6c0.2-1.6,0.7-3.2,1.5-4.6
		c1.5-2.3,4.4-3.4,7.1-2.7c1.6,0.5,2.8,1.9,3.1,3.5c0.2,1.3,0.2,2.6,0,3.9c0,0.3-0.2,0.3-0.4,0.3c-1.1,0-2.3,0-3.5,0
		c-0.4,0-0.5-0.1-0.4-0.5c0.1-0.6,0.1-1.1,0.1-1.7c0-0.6-0.3-1.1-0.9-1.3c-0.6-0.2-1.3,0.1-1.7,0.6c-0.9,1.3-0.7,3,0.5,4
		c0.8,0.7,1.6,1.4,2.4,2c1.6,1.2,2.4,3.1,2.3,5.1c0,1.9-0.4,3.8-1.2,5.6c-0.4,0.9-1,1.7-1.7,2.4l0,0L494.4,109.4z"/>
	<path d="M456.7,94.1c0.5-0.7,1.1-1.4,1.7-1.9c1.2-0.9,2.9-0.9,4.1,0c0.9,0.7,1.4,1.9,1.1,3c-0.7,4.2-1.4,8.3-2,12.5
		c-0.1,0.8-0.3,1.6-0.4,2.4c0,0.3-0.1,0.4-0.5,0.4c-1.2,0-2.5,0-3.7,0c-0.4,0-0.5-0.1-0.4-0.5c0.3-1.8,0.6-3.7,0.9-5.5
		c0.4-2.4,0.8-4.8,1.2-7.2c0-0.1,0-0.3,0-0.4c0-0.5,0-0.9-0.6-1.2c-0.5-0.1-1.1,0.1-1.5,0.5c-0.3,0.4-0.4,0.9-0.5,1.4
		c-0.7,4.1-1.3,8.2-2,12.3c0,0.3-0.2,0.4-0.5,0.4c-1.2,0-2.5,0-3.7,0c-0.4,0-0.5-0.1-0.4-0.4c0.5-2.8,0.9-5.5,1.4-8.3
		c0.5-3.1,1-6.1,1.5-9.2c0.1-0.4,0.2-0.5,0.6-0.5c1,0,2.1,0,3.2,0c0.6,0,0.6,0,0.5,0.6C456.8,93.1,456.7,93.6,456.7,94.1
		C456.6,94.1,456.6,94.1,456.7,94.1C456.6,94.3,456.6,94.2,456.7,94.1L456.7,94.1z"/>
	<path d="M471.6,102.1h-3.4c-0.1,0-0.3,0-0.3,0.2c-0.1,1.2-0.5,2.4-0.5,3.6c0,0.7,0.3,1.2,0.8,1.3c0.6,0.2,1.3-0.1,1.6-0.7
		c0.3-0.7,0.5-1.4,0.6-2.1c0-0.3,0.2-0.4,0.4-0.4h3.6c0.1,0,0.3-0.1,0.3,0.2c-0.1,1.7-0.7,3.4-1.8,4.7c-1.5,1.6-3.6,2.3-5.8,2
		c-1.4,0-2.7-0.7-3.5-1.8c-0.7-1.1-0.9-2.3-0.7-3.6c0.4-2.9,0.9-5.8,1.3-8.6c0.2-1.3,0.7-2.5,1.5-3.5c1.2-1.4,3.1-2.2,4.9-2.1
		c1.1-0.1,2.3,0.1,3.3,0.6c1.5,0.8,2.3,2.5,2,4.1c-0.2,1.9-0.6,3.7-0.8,5.6c0,0.3-0.2,0.3-0.4,0.3L471.6,102.1L471.6,102.1z
		 M470,98.6L470,98.6h1.2c0.1,0,0.3,0,0.3-0.2c0.1-0.7,0.2-1.4,0.3-2.1c0-0.8-0.5-1.4-1.1-1.4c-0.7,0-1.2,0.4-1.5,1
		c-0.3,0.8-0.5,1.6-0.6,2.5c0,0.2,0.1,0.2,0.2,0.2L470,98.6z"/>
	<path d="M507.5,104.2c-1.9,0.8-3.8,1.6-5.8,2.3c-0.5,0.3-1,0.4-1.5,0.5c-0.1-3-0.1-6.1-0.2-9.1c0-1.8-0.1-3.6-0.2-5.4
		c0-0.4,0.1-0.5,0.4-0.5c1.2,0,2.4,0,3.5,0c0.4,0,0.4,0.1,0.4,0.4c-0.1,3.6-0.2,7.2-0.4,10.8c0,0.2,0,0.3,0.1,0.5
		c0.2-0.7,0.4-1.3,0.6-2c0.9-3.1,1.7-6.2,2.6-9.3c0.1-0.3,0.2-0.4,0.5-0.4c1.1,0,2.3,0,3.5,0c0.3,0,0.4,0,0.3,0.4
		C510,96.3,508.7,100.3,507.5,104.2z"/>
	<path d="M481.8,94.4c0.3-0.1,0.3-0.3,0.4-0.4c0.5-1.1,1.4-1.9,2.6-2.3c0.4-0.1,0.8-0.3,1.1-0.2s0,0.7,0,1c-0.2,1.5-0.5,3.1-0.7,4.6
		c0,0.3-0.1,0.3-0.4,0.3c-0.6-0.1-1.2-0.1-1.8,0c-0.6,0.1-1.1,0.5-1.3,1c-0.2,0.7-0.4,1.5-0.5,2.3c-0.5,3.2-1,6.3-1.5,9.5
		c0,0.2-0.1,0.3-0.3,0.3h-4.2c-0.3,0-0.3-0.1-0.2-0.3c0.5-3.3,1.1-6.6,1.6-9.8c0.4-2.7,0.9-5.3,1.3-7.9c0-0.3,0.1-0.4,0.4-0.4
		c1.2,0,2.5,0,3.7,0c0.3,0,0.4,0.1,0.3,0.4C482.1,93,482,93.7,481.8,94.4z"/>
	<path d="M513.7,102.8l5.2-2.4c0.1-0.1,0.3-0.1,0.4-0.1c1.4,1.1,2,2.9,1.7,4.7c-0.1,1.9-1,3.7-2.5,4.9c-1.9,1.4-4.3,1.7-6.5,0.8
		c-1.3-0.4-2.2-1.6-2.3-3c-0.1-0.8-0.1-1.7,0-2.5c0-0.2,0.1-0.3,0.4-0.3c1.1,0,2.3,0,3.4,0c0.3,0,0.4,0,0.3,0.3c0,0.4,0,0.7,0,1.1
		c0,0.6,0.2,1.1,0.8,1.2c0.6,0.2,1.3,0,1.7-0.5c0.5-0.5,0.6-1.2,0.5-1.9c-0.1-0.4-0.3-0.7-0.6-0.9
		C515.3,103.8,514.5,103.4,513.7,102.8z"/>
	<path d="M518.4,99.7c-0.5,0.3-1.1,0.6-1.7,0.8c-1.3,0.6-2.7,1.1-4,1.6c-1.2-1-1.8-2.4-1.7-3.9c0-1.8,0.7-3.6,2-4.8
		c1.8-1.7,4.5-2.2,6.8-1.3c1.6,0.8,2.5,2.5,2.3,4.3c-0.1,1.3-0.1,1.3-1.3,1.3c-0.8,0-1.6,0-2.5,0c-0.3,0-0.4-0.1-0.4-0.4
		c0-0.3,0-0.6,0-0.9c0.1-0.6-0.4-1.2-1-1.3c-0.3,0-0.6,0.1-0.9,0.3c-0.8,0.5-1.1,1.6-0.6,2.5c0.1,0.1,0.2,0.3,0.3,0.4
		c0.8,0.6,1.6,1.1,2.4,1.5L518.4,99.7z"/>
	<path d="M500.2,109.3l1-0.5l5-2.4c0.1-0.1,0.3-0.1,0.4-0.1c-0.1,0.7-0.3,1.4-0.6,2c-0.5,1.5-1,3-1.6,4.4c-0.3,0.6-0.6,1.2-1,1.8
		c-1.2,1.7-3.2,2.6-5.3,2.2c-0.9-0.1-0.9-0.1-0.8-1s0.3-1.7,0.4-2.6c0-0.3,0.1-0.4,0.5-0.3c0.2,0,0.3,0.1,0.5,0.1
		c0.7,0.1,1.3-0.4,1.4-1c0-0.1,0-0.1,0-0.2C500.3,110.8,500.2,110.1,500.2,109.3z"/>
	<path d="M521.9,110.5v-1.9h0.8c0.1,0,0.3,0,0.4,0.1c0.1,0,0.2,0.1,0.2,0.2c0.1,0.1,0.1,0.2,0.1,0.3c0,0.1,0,0.3-0.1,0.3
		c-0.1,0.1-0.2,0.2-0.4,0.2c0.1,0,0.1,0.1,0.2,0.2c0.1,0.1,0.2,0.2,0.2,0.3l0.2,0.4h-0.5l-0.3-0.4c-0.1-0.1-0.1-0.2-0.2-0.3
		c0,0-0.1-0.1-0.1-0.1h-0.2h-0.1v0.8L521.9,110.5z M522.2,109.4h0.3c0.1,0,0.2,0,0.3,0c0,0,0.1,0,0.1-0.1c0,0,0-0.1,0-0.1
		c0-0.1,0-0.1,0-0.2c0,0-0.1-0.1-0.1-0.1h-0.6L522.2,109.4z"/>
	<path d="M522.6,111.5c-1,0-1.9-0.9-1.9-1.9s0.9-1.9,1.9-1.9c1,0,1.9,0.9,1.9,1.9C524.5,110.6,523.7,111.5,522.6,111.5z
		 M522.6,108.2c-0.8,0-1.4,0.6-1.4,1.4c0,0.8,0.6,1.4,1.4,1.4c0.8,0,1.4-0.6,1.4-1.4c0,0,0,0,0,0C524,108.8,523.4,108.2,522.6,108.2
		z"/>
</g>
<path d="M475.8,126.2c0.5-0.1,1-0.1,1.5-0.1c0.5-0.1,1.1,0.1,1.5,0.4c0.3,0.2,0.3,0.6,0.2,0.9c-0.1,0.4-0.4,0.7-0.8,0.9
	c-0.6,0.3-1.3,0.5-2,0.5c-0.2,0-0.4,0-0.6,0l-0.6,1.7h-0.8L475.8,126.2z M475.8,128.3c0.2,0,0.4,0,0.6,0c0.9,0,1.6-0.3,1.8-0.9
	s-0.2-0.8-1.1-0.8c-0.2,0-0.5,0-0.8,0L475.8,128.3z"/>
<path d="M483.2,128.9c-0.5,1.1-1.6,1.7-2.8,1.7c-1.2,0-1.8-0.6-1.5-1.6c0.5-1.1,1.6-1.7,2.7-1.7C482.9,127.3,483.5,128,483.2,128.9z
	 M479.8,128.9c-0.2,0.4-0.1,0.9,0.4,1.1c0.2,0.1,0.3,0.1,0.5,0.1c0.8,0,1.5-0.5,1.8-1.2c0.2-0.4,0.1-0.9-0.3-1.1
	c-0.2-0.1-0.3-0.1-0.5-0.1C480.7,127.7,480,128.2,479.8,128.9L479.8,128.9z"/>
<path d="M485,127.4v1.6c0,0.3,0,0.7,0,1l0,0c0.2-0.3,0.5-0.6,0.7-1l1.3-1.6h0.7l0.1,1.6c0,0.3,0,0.7,0,1l0,0c0.2-0.3,0.4-0.7,0.7-1
	l1.2-1.6h0.8l-2.5,3.1h-0.7l-0.1-1.5c0-0.3,0-0.7,0-1l0,0c-0.2,0.3-0.5,0.7-0.8,1l-1.2,1.5h-0.7l-0.2-3.1L485,127.4z"/>
<path d="M491,129c-0.3,0.8,0.3,1.1,1.1,1.1c0.4,0,0.8,0,1.2-0.2v0.4c-0.5,0.1-1,0.2-1.5,0.2c-1.3,0-1.9-0.6-1.5-1.6
	c0.4-1.1,1.5-1.7,2.6-1.7c1.4,0,1.5,0.9,1.2,1.5c0,0.1-0.1,0.2-0.1,0.3H491z M493.5,128.6c0.1-0.4,0.1-0.9-0.8-0.9
	c-0.6,0-1.2,0.4-1.5,0.9H493.5z"/>
<path d="M495.2,128.4c0.1-0.4,0.2-0.7,0.3-1h0.7l-0.2,0.6l0,0c0.4-0.4,0.9-0.7,1.4-0.7h0.2l-0.2,0.5h-0.3c-0.5,0-1,0.3-1.3,0.7
	c-0.1,0.1-0.1,0.2-0.1,0.3l-0.6,1.7h-0.8L495.2,128.4z"/>
<path d="M496.6,130.8l4.2-4.7h0.6l-4.2,4.7H496.6z"/>
<path d="M502,126.2h3.2l-0.2,0.5h-2.5l-0.5,1.5h2.3l-0.2,0.5H502l-0.7,2h-0.8L502,126.2z"/>
<path d="M508.4,129.6c-0.1,0.3-0.2,0.6-0.3,0.9h-0.7l0.1-0.5l0,0c-0.5,0.4-1,0.6-1.6,0.6c-0.7,0-1.4-0.3-1-1.4l0.7-1.8h0.8l-0.6,1.7
	c-0.2,0.6-0.1,1,0.6,1c0.5,0,0.9-0.2,1.2-0.5c0.1-0.1,0.1-0.2,0.2-0.3l0.7-1.9h0.8L508.4,129.6z"/>
<path d="M511,125.9h0.8l-1.7,4.6h-0.8L511,125.9z"/>
<path d="M513.1,125.9h0.8l-1.7,4.6h-0.8L513.1,125.9z"/>
<path d="M515.6,129.8c0.4,0.2,0.8,0.3,1.3,0.3c0.8,0,1.4-0.3,1.5-0.7s-0.1-0.6-0.8-0.9c-0.9-0.2-1.4-0.6-1.1-1.2
	c0.5-0.8,1.4-1.3,2.4-1.2c0.4,0,0.9,0.1,1.2,0.2l-0.4,0.5c-0.3-0.1-0.7-0.2-1.1-0.2c-0.8,0-1.3,0.4-1.4,0.7s0.1,0.6,0.9,0.8
	c0.9,0.3,1.3,0.6,1.1,1.3s-1.1,1.2-2.6,1.2c-0.5,0-1-0.1-1.4-0.3L515.6,129.8z"/>
<path d="M524.4,128.9c-0.5,1.1-1.6,1.7-2.8,1.7c-1.2,0-1.8-0.6-1.5-1.6c0.5-1.1,1.6-1.7,2.7-1.7C524.1,127.3,524.7,128,524.4,128.9z
	 M521,128.9c-0.2,0.4-0.1,0.9,0.4,1.1c0.2,0.1,0.3,0.1,0.5,0.1c0.8,0,1.5-0.5,1.8-1.2c0.2-0.4,0.1-0.9-0.3-1.1
	c-0.2-0.1-0.3-0.1-0.5-0.1C521.9,127.7,521.3,128.2,521,128.9L521,128.9z"/>
<path d="M526.5,125.9h0.8l-1.7,4.6h-0.8L526.5,125.9z"/>
<path d="M530.8,129.6c-0.1,0.3-0.2,0.6-0.3,0.9h-0.7l0.2-0.5l0,0c-0.5,0.4-1,0.6-1.6,0.6c-0.7,0-1.4-0.3-1-1.4l0.7-1.8h0.8l-0.6,1.7
	c-0.2,0.6-0.1,1,0.6,1c0.5,0,0.9-0.2,1.2-0.5c0.1-0.1,0.1-0.2,0.2-0.3l0.7-1.9h0.8L530.8,129.6z"/>
<path d="M534.2,126.5l-0.3,0.9h1.1l-0.2,0.4h-1.1l-0.6,1.7c-0.1,0.4-0.1,0.6,0.4,0.6c0.2,0,0.3,0,0.5,0l-0.1,0.4
	c-0.2,0.1-0.5,0.1-0.7,0.1c-0.3,0-0.6-0.1-0.8-0.2c-0.2-0.2-0.1-0.4,0-0.8l0.6-1.7h-0.7l0.2-0.4h0.7l0.3-0.8L534.2,126.5z"/>
<path d="M534.8,130.5l1.1-3.1h0.8l-1.1,3.1H534.8z M537.1,126.5c-0.1,0.2-0.4,0.4-0.6,0.3c-0.3,0-0.4-0.2-0.3-0.3
	c0.1-0.2,0.4-0.4,0.6-0.4C537,126.1,537.2,126.3,537.1,126.5z"/>
<path d="M541.3,128.9c-0.5,1.1-1.6,1.7-2.8,1.7c-1.2,0-1.8-0.6-1.5-1.6c0.5-1.1,1.6-1.7,2.7-1.7C541.1,127.3,541.7,128,541.3,128.9z
	 M537.9,128.9c-0.2,0.4-0.1,0.9,0.4,1.1c0.2,0.1,0.3,0.1,0.5,0.1c0.8,0,1.5-0.5,1.8-1.2c0.2-0.4,0.1-0.9-0.3-1.1
	c-0.2-0.1-0.3-0.1-0.5-0.1C538.9,127.7,538.2,128.2,537.9,128.9L537.9,128.9z"/>
<path d="M542.6,128.2c0.1-0.3,0.2-0.6,0.3-0.8h0.7l-0.1,0.5l0,0c0.5-0.4,1-0.6,1.6-0.6c0.6,0,1.4,0.3,1,1.3l-0.7,1.9h-0.8l0.7-1.8
	c0.2-0.5,0.1-0.9-0.7-0.9c-0.5,0-0.9,0.2-1.3,0.6c-0.1,0.1-0.1,0.2-0.2,0.3l-0.7,1.9h-0.8L542.6,128.2z"/>
<path d="M546.8,129.9c0.3,0.2,0.7,0.2,1,0.2c0.6,0,0.9-0.2,1-0.5s-0.1-0.4-0.6-0.6c-0.7-0.2-1-0.5-0.8-0.9c0.4-0.6,1.1-1,1.8-0.9
	c0.3,0,0.7,0.1,1,0.2l-0.3,0.4c-0.3-0.1-0.5-0.2-0.8-0.2c-0.4,0-0.7,0.1-0.9,0.4c-0.1,0.3,0.1,0.4,0.6,0.5c0.7,0.2,1,0.5,0.8,0.9
	s-0.9,0.9-2,0.9c-0.4,0-0.8-0.1-1.1-0.2L546.8,129.9z"/>
<path d="M663.3,117.4c4.7-2.1,12.1-13.6,13.5-16.7c-0.8,0-4.8,0.1-4.8,3.7c-0.8-0.1-1.3-0.8-1.2-1.6c0-1.4,1.5-3,6.6-3
	c2.1-3.4,5.4-8,7.6-9.6c0.9-0.6,1-0.5,0.4,0.2c-0.7,1-1.8,2.5-2.8,4.3c-1.8,3-3.7,7-6.1,11c-2,3.3-4.4,6.3-7.3,8.9
	c-1.8,1.6-4,2.8-6.3,3.5C662.1,118.2,662.2,117.7,663.3,117.4L663.3,117.4z M698.3,83.3c-3,0-5.8,1.1-8.1,3c-3-1.2-8.9-4.9-15.2-4.9
	c-7.6,0-12.5,4.8-12.5,10c0,4.2,3.6,7.1,7.6,7.1c6,0,6.9-4.3,6.9-4.8c0-0.3-0.1-0.9-0.4-1.1c-0.2-0.1-0.3-0.1-0.3,0.1
	c0,1.6-3.1,5-7,5c-8.8,0-5.2-15.5,4.5-15.5c5.3,0,11,3.5,15,5.3c-2.6,2.8-5.3,6.6-9.3,14.5c-5.5,10.8-12.7,17.6-20.7,17.6
	c-4.3,0-8.9-2.8-8.9-9.8c0-11.8,15.6-15,15.6-2.9c0,4.9-3.4,7.5-6.3,7.6c-3.2,0-3.9-2-3.9-3.9c0-4,2-4.7,1-4.7
	c-3.5,0-4.3,9.2,3.4,9.2c4.9,0,7.9-4.3,7.9-8.6c0.1-4-2.5-7.9-8.6-7.9c-7.6,0-11.5,5.5-11.5,10.9s3.8,10.7,11.8,10.7
	c6.4,0,10.5-2.8,14.1-6.1c4-3.7,6.4-8.5,8.5-13.2c0.9,0.2,1.8,0.2,2.8,0.2c-0.2,0.6-0.4,2.2,0.2,2.2c0.2,0,0.1-0.5,0.5-1.3
	c0.5-1.1,1.5-1.6,3.4-2.9c0.8-0.6,0.5-1.4-0.4-1.4c-1.7,0-2.4,2.7-4.4,2.7c-0.5-0.1-1.2-0.2-1.6-0.2c1.3-3.2,4.5-9.6,7.4-12.2
	c1.2,0.5,5.4,2.6,8.4,2.6C705.4,90.6,706.4,83.3,698.3,83.3L698.3,83.3z M698.2,83.9c6,0,6.3,5.3,0.5,5.3c-2.9,0-5.9-1.7-7.6-2.4
	C693,85.1,695.6,84,698.2,83.9L698.2,83.9z M776.8,98.6V99l-6.8,0.2c0,0-2.3,3.4-4.3,6.5c-0.3,0.4-1.7,2.5-2.4,3.8
	c-1.2,2.2-4.3,7.1-1.2,8.2c0.4,0.2,1.2,0.5,0.9,0.8c-0.5,0.3-1,0.5-1.6,0.5c-5.8,0-1.8-7.6,0.5-10.5l0,0c-0.7,0.8-3.3,4.1-6,4.1
	c-1,0.1-2-0.6-2.1-1.7c0-0.1,0-0.2,0-0.2c0-3.1,5.9-7.9,3.5-7.9c-0.6,0.1-1.2,0.4-1.7,0.8c-1.6,1.1-3,2.4-4.2,4
	c-1.8,2.4-3.4,4.8-3.4,4.8l-2.6,0.1c0,0,4.7-7.1,4.8-7.3c-1.2,1.1-3.6,1.8-4.8,0.4c-0.2,2.8-4,7.2-7.1,7.2c-2.6,0-3.2-2.6-2.5-4.7
	c-2,2.5-4,4.3-6,4.3c-1.1,0-2-0.9-2-2c0,0,0-0.1,0-0.1c0-2.2,3.9-5.6,3.9-7c0-0.2-0.1-0.5-0.5-0.5c-0.9,0.1-1.8,0.6-2.5,1.2
	c-1.7,1.5-3.2,3.3-4.3,5.3c-0.7,1-0.6,1-2.1,3.1h-2.6l5.2-7.8c0.4-0.5,1.3-1.9,0.2-1.9c-1.7,0-4.5,2.5-6.8,5.7c-0.9,1.4-2.8,4-2.8,4
	h-2.6l4.8-7.2c-0.7,0.4-1.5,0.6-2.4,0.6c-0.7,0.1-1.4-0.5-1.5-1.2c0-0.1,0-0.2,0-0.3c0-0.8,0.6-1.6,1.4-1.8l0,0
	c-2.3,0.1-5.5,3.1-8.6,7.8c-0.8,1.2-1.4,2.1-1.4,2.1h-2.6c0,0,1.2-1.7,2.5-3.7l0,0c-0.2,0.2-3.4,3.8-5.4,3.8c-1.8,0-2.2-1.8-1.9-3.4
	c0,0-2.4,3.4-4.7,3.4c-1.7,0-2.4-1.7-2.2-3.1c0,0,0,0.1-0.1,0.1c0,0,0,0,0,0c-0.3,0.5-2.2,3.1-4.6,3.1c-5.3,0-1.4-10.3,4.8-10.3
	c1.6,0,2.4,0.6,2.4,2c0.4-0.6,1.3-1.9,1.3-1.9h2.6c0,0-2.7,4-4,6c-1,1.4-1.6,3.5-0.3,3.5c2.2,0,4.3-3.4,6.1-6
	c1.3-1.9,2.4-3.5,2.4-3.5h2.6c0,0-2.4,3.7-4.2,6.3c-1.4,1.9-1.2,3.2-0.3,3.2c1.8,0,6-4.2,8.2-7.5c0.8-1.2,1.4-2.1,1.4-2.1h2.6
	l-1.8,2.7v0.1c1.9-1.9,4-3,5-3c2.4,0,2.1,2.4,1,3.2c1-0.2,1.9-0.7,2.5-1.4l1.1-1.5h2.7l-1.6,2.6l0,0c2.1-2.1,3.7-2.6,4.8-2.6
	c2.7,0,1.5,2.6,1.5,2.6l0,0c0.4-0.5,2.3-2.6,4.5-2.6c1.4,0,1.9,0.6,1.9,1.7c0.1,1.4-1.2,3.1-2.9,5.9c-0.5,0.8-1.3,2-0.3,2
	c2.4,0,6.8-6.3,6.9-6.5c1.5-2.1,3.4-3.4,5.8-3.4c1.2,0.1,2.3,1,2.4,2.2c1.3,3.6,5,0.7,6.3-1.1c0.2-0.2,0.4-0.5,0.5-0.8h2.6l-1.8,2.7
	c0.3-0.3,2.6-2.8,4.9-2.8c0.9-0.1,1.7,0.6,1.8,1.6c0,0.1,0,0.2,0,0.4c0,1.8-2.2,4.3-3.1,6s-0.2,2.1,1.7,0.9c2.3-1.5,4.4-4.3,7-7.9
	c0.9-1.3,2-2.8,2.8-4c-2.5,0-23.5,0.5-23.5,0.5l-1.2-1.2l25.1-0.1c0,0,2.3-3.8,4.2-3.8h0.2c0.3,0,0.2,0.2,0,0.4
	c-0.8,1.3-2.3,3.4-2.3,3.4L776.8,98.6z M686.5,112c2.9,0,8.5-8.8,5.2-8.8C689.1,103.2,683.3,112,686.5,112z M705,97.8
	c-0.8,0-1.4,0.6-1.5,1.3c0,0,0,0.1,0,0.1c0,0.8,0.6,1.4,1.4,1.4c0,0,0,0,0,0c0.8,0,1.4-0.6,1.4-1.4C706.4,98.5,705.8,97.9,705,97.8
	C705,97.8,705,97.8,705,97.8z M738.8,106.5c-1.6,2.4-2.4,5-1.5,5.5s3-1,4.6-3.4s2.4-5,1.5-5.5S740.4,104.1,738.8,106.5L738.8,106.5z
	"/>
<line class="st11" x1="660.2" y1="117.4" x2="729.9" y2="117.4"/>
<path d="M659.8,124.1C659.9,124.1,659.9,124.1,659.8,124.1l0.1-1.5c-0.1-0.2-0.1-0.3-0.3-0.3c-0.1,0-0.2-0.1-0.2-0.1h-0.2
	c0-0.1,0.1-0.1,0.2-0.1h1.8c0.1,0,0.2,0,0.2,0.1h-0.2c-0.1,0-0.1,0.1-0.2,0.1c-0.2,0-0.2,0.1-0.2,0.3c-0.1,0.4-0.1,0.9-0.1,1.3v1
	c0,0.4,0,0.8,0.1,1.2c0,0.2,0.1,0.3,0.2,0.4h0.3c0.1,0,0.2,0,0.2,0.1h-2.1c0-0.1,0-0.1,0.1-0.1h0.2c0.2-0.1,0.2-0.2,0.2-0.4
	c0.1-0.4,0.1-0.8,0.1-1.2v-0.5c0-0.1,0-0.1-0.1-0.1h-2.4c0,0-0.1,0-0.1,0.1c0,0,0,0,0,0v0.5c0,0.4,0,0.8,0.1,1.2
	c0,0.2,0.1,0.3,0.2,0.4h0.3c0.1,0,0.2,0,0.2,0.1h-2c0-0.1,0-0.1,0.1-0.1h0.2c0.2-0.1,0.2-0.2,0.2-0.4c0.1-0.4,0.1-0.8,0.1-1.2v-2.4
	c0-0.2-0.1-0.3-0.3-0.3c-0.1,0-0.2-0.1-0.2-0.1h-0.2c0-0.1,0.1-0.1,0.2-0.1h1.8c0.1,0,0.2,0,0.2,0.1h-0.2c0,0-0.1,0.1-0.2,0.1
	c-0.2,0-0.2,0.1-0.2,0.3c-0.1,0.4-0.1,0.9-0.1,1.3v0.1c0,0,0,0.1,0.1,0.1c0,0,0,0,0,0L659.8,124.1z"/>
<path d="M662.5,124.5c0-1.3,1.1-2.4,2.4-2.4c0.1,0,0.2,0,0.2,0c1.7,0,2.7,0.8,2.7,2.2c0,1.4-1.1,2.5-2.5,2.4c-0.1,0-0.1,0-0.2,0
	c-1.3,0.2-2.5-0.7-2.6-2C662.5,124.7,662.5,124.6,662.5,124.5L662.5,124.5z M667,124.6c0.1-1.1-0.8-2.1-1.9-2.1c0,0,0,0-0.1,0
	c-0.8,0-1.6,0.4-1.6,1.8c-0.1,1.1,0.7,2.1,1.8,2.2c0.1,0,0.2,0,0.2,0C665.9,126.5,667,126.3,667,124.6L667,124.6z"/>
<path d="M670.7,122.5l-1,0.1c-0.4,0-0.5,0-0.6,0.2s-0.2,0.2-0.2,0.2c0,0,0,0.1-0.1,0.1c0,0,0,0,0,0v-0.2c0-0.1,0.1-0.6,0.1-0.7
	l0.1-0.1c0.1,0,0.2,0.1,0.3,0.1h3.2c0.2,0,0.4,0,0.6-0.1c0.1,0,0.1,0.1,0.1,0.2v0.7c0,0,0,0.1-0.1,0.1c0,0,0,0,0,0
	c-0.1,0-0.1,0-0.1-0.1v-0.1c0-0.2-0.2-0.3-0.8-0.3l-0.8-0.1v2.5c0,0.4,0,0.8,0.1,1.2c0,0.2,0,0.3,0.2,0.4h0.3c0.1,0,0.2,0,0.2,0.1
	h-2.1c0-0.1,0.1-0.1,0.2-0.1h0.2c0.1-0.1,0.2-0.2,0.2-0.4c0.1-0.4,0.1-0.8,0.1-1.2L670.7,122.5L670.7,122.5z"/>
<path d="M675,124v-1.3c0-0.2-0.1-0.3-0.2-0.3s-0.2-0.1-0.3-0.1h-0.1c0-0.1,0-0.1,0.2-0.1h2.8l0.1-0.1c0,0,0.1,0,0.1,0.1c0,0,0,0,0,0
	c0,0.1-0.1,0.3-0.1,0.4c0,0.1,0,0.3-0.1,0.4v0c-0.1,0-0.1,0-0.1-0.1c0-0.1,0-0.2-0.1-0.2c0-0.1-0.1-0.2-0.4-0.2
	c-0.3-0.1-0.6-0.1-0.9-0.1c-0.1,0-0.1,0-0.1,0.1v1.5c0,0,0,0.1,0.1,0.1c0,0,0,0,0,0h1c0.2-0.1,0.3-0.1,0.3-0.2s0.1-0.1,0.2-0.1v0.5
	c-0.1,0.1-0.1,0.3-0.1,0.4s0,0.1-0.1,0.1l0,0c0-0.1,0-0.2-0.1-0.2c0-0.2-0.1-0.2-0.3-0.2h-1v1.4c0,0.4,0.2,0.5,0.8,0.5
	c0.2,0,0.4,0,0.6-0.1c0.2-0.1,0.3-0.2,0.3-0.4c0-0.1,0-0.2,0.1-0.2s0.1,0.1,0.1,0.2s-0.1,0.5-0.1,0.7s-0.2,0.2-0.4,0.2
	c-1,0-1.5-0.1-1.8-0.1h-0.9c0-0.1,0-0.1,0.1-0.1h0.3c0.1-0.1,0.2-0.2,0.2-0.4L675,124L675,124z"/>
<path d="M680.6,125c0,0.8,0,1.2,0.2,1.2s0.2,0.2,0.8,0.2c0.3,0,0.5,0,0.8-0.2c0.1-0.1,0.1-0.2,0.2-0.4c0,0,0.1-0.1,0.1,0
	c0,0,0,0,0,0c0,0.2-0.1,0.5-0.2,0.7c0,0.2-0.1,0.2-0.4,0.2c-0.9,0-1.4-0.1-1.9-0.1h-0.9c0-0.1,0-0.1,0.1-0.1h0.2
	c0.2-0.1,0.2-0.2,0.2-0.4v-3.6c0-0.2-0.1-0.3-0.3-0.3c0,0-0.1-0.1-0.2-0.1h-0.2c0-0.1,0.1-0.1,0.2-0.1h1.8c0.1,0,0.2,0,0.2,0.1h-0.2
	c-0.1,0-0.2,0.1-0.2,0.1s-0.2,0.1-0.2,0.3L680.6,125L680.6,125z"/>
<path d="M684.1,126.6c-0.1,0-0.1-0.1-0.2-0.2c0-0.4,0.1-0.7,0.1-0.8s0-0.2,0.1-0.2s0.1,0.1,0.1,0.2c0,0.1,0,0.2,0.1,0.3
	c0.1,0.5,0.5,0.6,0.9,0.6c0.4,0,0.8-0.3,0.8-0.7c0-0.3-0.1-0.6-0.6-1l-0.3-0.2c-0.8-0.5-1-0.9-1-1.4c0-0.7,0.6-1.2,1.5-1.2
	c0.4,0,0.7,0.1,0.8,0.1c0,0,0.1,0,0.1,0.1c0,0,0,0,0,0v0.7c0,0.1,0,0.2-0.1,0.2s-0.1,0-0.1-0.1c0-0.2,0-0.3-0.2-0.5
	c-0.2-0.2-0.4-0.2-0.7-0.2c-0.5,0-0.8,0.2-0.8,0.6c0,0.2,0.2,0.5,0.7,0.8l0.2,0.2c0.8,0.5,1.1,0.9,1.1,1.5c0,0.4-0.2,0.8-0.6,1
	c-0.3,0.2-0.7,0.3-1.1,0.2C684.8,126.8,684.4,126.7,684.1,126.6L684.1,126.6z"/>
<path d="M691.8,124.1c-0.2-0.2-0.4-0.6-0.4-0.9c0-0.5,0.5-1.1,1.6-1.1c0.3,0,0.5,0,0.8,0.2c0.2,0,0.2,0.1,0.2,0.2s-0.1,0.6-0.1,0.8
	l-0.1,0.1c-0.1,0-0.1,0-0.1-0.1c0-0.2-0.1-0.4-0.2-0.5c-0.2-0.2-0.5-0.3-0.8-0.3c-0.4,0-0.7,0.3-0.7,0.7c0,0.6,0.5,1.1,1.1,1.6
	c0.4,0.4,0.7,0.7,1.2,1c0.2-0.3,0.3-0.6,0.3-0.9c0-0.1,0-0.2-0.1-0.3c-0.1-0.1-0.2-0.1-0.4-0.1h-0.1c0-0.1,0.1-0.1,0.2-0.1h0.8
	c0.2,0,0.2,0.1,0.2,0.2c-0.1,0.5-0.3,1-0.7,1.4c0.3,0.2,0.6,0.4,0.9,0.6c0.2,0.1,0.4,0.2,0.7,0.2c0.1,0,0.1,0,0.1,0.1h-0.7
	c-0.5,0-1.1-0.1-1.5-0.5c-0.4,0.4-1,0.6-1.5,0.5c-1.4,0-1.8-0.8-1.8-1.3C690.8,124.8,691.2,124.3,691.8,124.1L691.8,124.1z
	 M693.8,126.1c-0.4-0.3-1-0.9-1.2-1.1c-0.3-0.2-0.5-0.5-0.7-0.8c-0.3,0.2-0.5,0.6-0.5,0.9c0,0.6,0.5,1.2,1.1,1.2c0,0,0.1,0,0.1,0
	C693.1,126.4,693.4,126.3,693.8,126.1L693.8,126.1z"/>
<path d="M699.6,124v-1.3c0-0.2-0.1-0.3-0.2-0.3s-0.2-0.1-0.3-0.1h0c0-0.1,0-0.1,0.2-0.1h1.8c0.4,0,0.8,0.1,1.2,0.2
	c0.3,0.2,0.4,0.5,0.5,0.8c0,0.5-0.2,0.8-0.9,1.4c0.6,0.6,1.1,1.2,1.5,1.5c0.2,0.2,0.4,0.4,0.7,0.5h0.2c0,0,0.1,0,0.1,0.1
	c0,0,0,0,0,0h-0.8c-0.2,0-0.5,0-0.7-0.1c-0.4-0.2-0.7-0.6-0.9-0.9c-0.2-0.3-0.5-0.7-0.6-0.8h-0.8v0.1c0,0.4,0,0.9,0.1,1.3
	c0,0.2,0.1,0.3,0.2,0.4h0.3c0.1,0,0.1,0,0.1,0.1h-2c0-0.1,0-0.1,0.1-0.1h0.2c0.2-0.1,0.3-0.2,0.2-0.4L699.6,124L699.6,124z
	 M700.3,124.5C700.3,124.5,700.3,124.5,700.3,124.5c0.2,0.1,0.4,0.2,0.6,0.2c0.2,0,0.3,0,0.5-0.1c0.3-0.2,0.4-0.6,0.4-0.9
	c0-0.6-0.4-1-0.9-1.1c0,0,0,0-0.1,0h-0.4c0,0-0.1,0-0.1,0.1c0,0,0,0,0,0L700.3,124.5L700.3,124.5z"/>
<path d="M705.2,124v-1.3c0-0.2-0.1-0.3-0.3-0.3c-0.1,0-0.1-0.1-0.2-0.1h-0.1c0-0.1,0-0.1,0.1-0.1h2.8c0.1,0,0.1-0.1,0.2-0.1v0.5
	c0,0.1-0.1,0.3-0.1,0.4s0,0.1-0.1,0.1V123c0-0.1-0.1-0.1-0.1-0.2c-0.1-0.1-0.1-0.2-0.5-0.2c-0.3-0.1-0.6-0.1-0.9-0.1v1.7h1.1
	c0.2-0.1,0.2-0.1,0.3-0.2c0,0,0.1,0,0.1-0.1c0,0,0,0,0,0c0.1,0,0.1,0,0.1,0.1c-0.1,0.1-0.1,0.3-0.1,0.5v0.4c0,0.1,0,0.1-0.1,0.1
	h-0.1v-0.2c0-0.2-0.2-0.2-0.4-0.2H706v1.4c0,0.4,0.1,0.5,0.8,0.5c0.2,0,0.4,0,0.6-0.1c0.2-0.1,0.3-0.2,0.3-0.4c0-0.1,0-0.2,0.1-0.2
	v0.2c0,0.2,0,0.5-0.1,0.7c0,0.2-0.1,0.2-0.3,0.2c-1,0-1.5-0.1-1.8-0.1h-0.9c0-0.1,0-0.1,0.1-0.1h0.3c0.2-0.1,0.2-0.2,0.2-0.4
	L705.2,124L705.2,124z"/>
<path d="M710,126.6c-0.1,0-0.1-0.1-0.2-0.2c0-0.4,0.1-0.7,0.1-0.8s0-0.2,0.1-0.2s0.1,0.1,0.1,0.2v0.3c0.1,0.4,0.6,0.7,1,0.6
	c0.4,0,0.8-0.3,0.8-0.7c0-0.3-0.1-0.6-0.6-1l-0.3-0.2c-0.8-0.5-1-0.9-1-1.4c0-0.7,0.6-1.2,1.5-1.2c0.4,0,0.7,0.1,0.8,0.1
	c0,0,0.1,0,0.1,0.1c0,0,0,0,0,0v0.7c0,0.1,0,0.2-0.1,0.2s-0.1,0-0.1-0.1c0-0.2,0-0.3-0.2-0.5c-0.2-0.2-0.4-0.2-0.7-0.2
	c-0.5,0-0.8,0.2-0.8,0.6c0,0.2,0.2,0.5,0.7,0.8l0.2,0.2c0.8,0.5,1.1,0.9,1.1,1.5c0,0.4-0.2,0.8-0.6,1c-0.3,0.2-0.7,0.3-1.1,0.2
	C710.6,126.8,710.3,126.7,710,126.6L710,126.6z"/>
<path d="M714.4,124.5c0-1.3,1-2.4,2.4-2.4c0.1,0,0.2,0,0.3,0c1.6,0,2.6,0.8,2.6,2.2c0,1.4-1.1,2.5-2.5,2.4c-0.1,0-0.1,0-0.2,0
	c-1.3,0.2-2.4-0.7-2.6-2C714.4,124.7,714.4,124.6,714.4,124.5L714.4,124.5z M718.7,124.6c0.1-1.1-0.8-2.1-1.9-2.1c0,0,0,0-0.1,0
	c-0.8,0-1.6,0.4-1.6,1.8c-0.1,1.1,0.7,2.1,1.8,2.2c0.1,0,0.2,0,0.2,0C717.7,126.5,718.8,126.3,718.7,124.6L718.7,124.6z"/>
<path d="M721.5,124v-1.3c0-0.2-0.1-0.3-0.3-0.3c-0.1,0-0.1-0.1-0.2-0.1h-0.1c0-0.1,0-0.1,0.1-0.1h1.8c0.4,0,0.8,0.1,1.2,0.2
	c0.2,0.2,0.4,0.5,0.4,0.8c0,0.5-0.2,0.8-0.8,1.4c0.6,0.6,1.1,1.2,1.5,1.5c0.2,0.2,0.4,0.4,0.7,0.5h0.2c0.1,0,0.1,0,0.1,0.1h-0.7
	c-0.2,0-0.5,0-0.7-0.1c-0.4-0.2-0.7-0.6-0.9-0.9c-0.2-0.3-0.5-0.7-0.6-0.8h-0.8v0.1c0,0.4,0,0.9,0.1,1.3c0,0.2,0,0.3,0.2,0.4h0.3
	c0.1,0,0.1,0,0.1,0.1h-2c0-0.1,0-0.1,0.1-0.1h0.2c0.2-0.1,0.2-0.2,0.2-0.4L721.5,124L721.5,124z M722.2,124.5
	C722.2,124.5,722.2,124.5,722.2,124.5c0.2,0.1,0.4,0.2,0.5,0.2c0.3,0,0.4,0,0.5-0.1c0.3-0.2,0.4-0.6,0.4-0.9c0-0.6-0.4-1-0.9-1.1
	c0,0,0,0-0.1,0h-0.3c0,0-0.1,0-0.1,0.1c0,0,0,0,0,0L722.2,124.5L722.2,124.5z"/>
<path d="M727.6,122.5l-0.9,0.1c-0.4,0-0.5,0-0.6,0.2s-0.2,0.2-0.2,0.2c0,0,0,0.1-0.1,0.1c0,0,0,0,0,0c0,0-0.1-0.1-0.1-0.2
	c0-0.1,0.2-0.6,0.2-0.7c0,0,0-0.1,0.1-0.1c0,0,0,0,0,0c0.1,0,0.2,0.1,0.3,0.1h3.2c0.2,0,0.4,0,0.6-0.1c0.1,0,0.1,0.1,0.1,0.2
	s-0.1,0.5-0.1,0.7v0c-0.1,0-0.1,0-0.1-0.1v-0.1c-0.1-0.2-0.2-0.3-0.8-0.3l-0.8-0.1v3.7c0.1,0.2,0.1,0.3,0.3,0.4h0.3
	c0.1,0,0.1,0,0.1,0.1H727c0-0.1,0-0.1,0.1-0.1h0.2c0.2-0.1,0.3-0.2,0.2-0.4L727.6,122.5L727.6,122.5z"/>
<path d="M731.5,126.6c-0.2,0-0.2-0.1-0.2-0.2c0-0.4,0.1-0.7,0.1-0.8s0-0.2,0.1-0.2c0,0,0.1,0.1,0.1,0.2v0.3c0.1,0.4,0.5,0.6,0.9,0.6
	c0.6,0,0.9-0.4,0.9-0.7s-0.2-0.6-0.7-1l-0.2-0.2c-0.8-0.5-1-0.9-1-1.4c0-0.7,0.6-1.2,1.5-1.2c0.4,0,0.7,0.1,0.8,0.1
	c0,0,0.1,0,0.1,0.1c0,0,0,0,0,0v0.7c0,0.1,0,0.1-0.1,0.2c-0.1,0-0.1,0-0.1-0.1c0-0.2-0.1-0.3-0.2-0.5c-0.2-0.2-0.5-0.2-0.8-0.2
	c-0.5,0-0.8,0.2-0.8,0.6c0,0.2,0.2,0.5,0.7,0.8l0.2,0.2c0.8,0.5,1.1,0.9,1.1,1.5c0,0.4-0.2,0.8-0.6,1c-0.3,0.2-0.7,0.3-1.1,0.2
	C732.1,126.8,731.8,126.7,731.5,126.6L731.5,126.6z"/>
<path class="st12" d="M870.3,101.5c-0.7,0.7-1.1,1.7-1.2,2.7c0,2.2,1.3,4,3.6,4c3,0,3.6-3.1,3.6-4.6c0-0.2,0-0.3,0-0.5l0,0
	c0.9-0.2,1.7-0.5,2.4-1l0,0c0,1.5,0.1,2.9,0.1,3.6c0,2.1,0.1,2.3,0.8,2.3s1.1-1.4,1.7-2.7c0.8-1.7,1.5-3.3,2-3.3
	c0.9,0-0.7,6.1,1.5,6.1c1.5,0,3.8-6.2,4.8-6.2c0.8,0-0.8,6.2,0.9,6.2c1.3,0,3.4-6.3,4.1-6.3s-0.8,6.3,1.4,6.3c2,0,3.6-5.2,4.2-5.2
	c0.3,0,0.8,0.7,1.1,1.7l0,0c-0.6,0.6-1,1.5-1.1,2.3c0,0.6,0.5,1.2,1.1,1.2c0,0,0.1,0,0.1,0c1.2-0.2,2-1.3,1.8-2.4
	c0-0.7-0.1-1.4-0.4-2l0,0c1.2-1.2,2.7-2.1,4.3-2.6c-0.6,0.7-1.7,1.3-1.7,3.3c0,2.1,1.6,3.8,3.7,3.8c0,0,0.1,0,0.1,0
	c3,0,3.6-3.2,3.6-4.4c0-0.4-0.1-0.8-0.2-1.2l0,0c1-0.5,1.8-1.2,2.1-1.2c0.6,0,0.4,1.9,0.4,3.8c0,1.5-0.2,3,0.9,3c0.8,0,1.2-1.6,2-3
	s1.7-3.3,2-3.3s0.3,3,0.3,3.5c0,0.7-0.1,3,1.4,3c1,0,2.9-2.8,2.9-3.2c0-0.2,0-0.2-0.2-0.2s-1.3,1.9-1.8,1.9c-0.7,0-0.2-2.4-0.2-4.3
	c0-0.8,0.1-2.6-1.2-2.6c-1.7,0-3.3,4.7-3.8,4.7s0.7-4.6-1.4-4.6c-0.8,0-2.1,1.2-3.5,1.8l0,0c-0.4-0.9-1.3-1.5-2.3-1.5
	c-0.6,0-1.1,0.4-1.1,1c0,0.9,0.8,1.7,1.8,1.6c0,0,0,0,0.1,0c0.3,0,0.7-0.1,1-0.2l0,0c0.1,0.3,0.2,0.7,0.2,1c0.1,1.4-0.9,2.6-2.3,2.7
	c-1.4-0.2-2.4-1.4-2.2-2.8c0-2.5,1.5-2.9,1.5-3.4c0-0.2-0.2-0.3-0.5-0.3c-1.7,0-4,1.4-5.8,3l0,0c-0.1-0.1-0.1-0.2-0.2-0.3
	c-1.7-2.4-1-3-1.5-3s-3,6.7-4,6.7c-1.3,0,1.1-6.5-1.4-6.5c-2,0-3.1,5.1-3.8,5.1s0.7-5.1-1.4-5.1c-1.5,0-3.8,6.1-4.8,6.1
	c-0.8,0,0.8-6-1.2-6s-3.3,4.7-3.8,4.7s-0.3-1.5-0.3-4.2l0,0c1.6-1.6,2.5-3.8,2.6-6c0-1-0.5-1.8-1.4-1.8c-1.8,0-2.9,2.9-2.9,6
	c0,0.7,0,1.6,0,2.5l0,0c-0.6,0.5-1.3,0.8-2.1,0.9h-0.4c-0.3-1.1-1.2-1.9-2.3-2c-0.6,0-1.1,0.5-1.2,1.1c0,0.8,0.7,1.5,2.8,1.6l0,0
	c0.1,0.3,0.1,0.5,0.1,0.8c0,1.2-0.9,2.8-2.4,2.8c-1.3,0-2.3-1.5-2.3-3.2c0-1.1,0.5-2.2,1.4-2.9c0-0.1,0-0.2-0.1-0.2
	c-1.4,0-3.7,1.5-5.8,3.8l0,0c-0.3-2.2-0.5-4.4-0.5-6.6c-0.1-1.6,0.1-3.2,0.7-4.7c0-0.2-0.1-0.3-0.4-0.3c-0.8,0-6.3,2.4-6.3,7.9
	c-0.1,2.9,1.4,5.6,3.8,7.2l0,0c-1.6,2.4-2.7,5-2.7,7.2c0,1.3,0.5,2.5,1.5,2.5c1.5,0,4.4-3.2,4.4-9.7c0-1-0.1-2-0.2-2.9l0,0
	c1.1-1.2,2.4-2.3,3.9-3.2L870.3,101.5z M985.8,102.2L985.8,102.2c-0.3-0.5-0.7-1-1.2-1c-0.2,0-0.4,0.2-0.4,0.4c0,0.4,0.4,0.6,1,0.6
	C985.4,102.2,985.6,102.2,985.8,102.2L985.8,102.2z M938,107.2c0.3-0.4,0.6-0.8,0.9-1.2l0,0c-0.4-1.7-0.6-3.4-0.8-5.2
	c0-3.9,1.7-6.7,1.7-7.3c0-0.4,0.1-0.5-0.2-0.5s-4.1,1.7-4.1,7.5C935.6,103,936.4,105.4,938,107.2L938,107.2z M937.7,107.6
	c-0.5-0.4-1.1-1.1-1.8-1.7s-2.4,0-3.9,0.3l0,0c-0.1,0.9-0.4,1.7-0.7,1.7s-0.3-0.7-0.5-1.5l0,0c-0.5,0.1-1,0.2-1.6,0.2
	c-1,0-3.4-0.5-3.4-2c0-0.9,1-1.2,1.9-1.2c1.3,0,2.4,0.6,3.2,1.6c0-0.9-0.4-1.8-1-2.6c0-0.2,1.2-0.7,1.3-0.7c0.5,0,0.9,2.1,0.9,3.6
	c0,0.1,0,0.1,0,0.2l0,0c1.1-0.3,2.2-0.4,3.3-0.4c-1-1.4-1.4-3.1-1.4-4.8c0-5.4,5.4-7.9,6.2-7.9c0.4,0,0.5,0.1,0.5,0.3
	c-0.6,1.5-0.8,3.1-0.7,4.7c0,2.2,0.2,4.4,0.5,6.6l0,0c2.2-2.2,4.5-3.8,5.8-3.8c0,0,0.1,0.1,0.1,0.2c-0.9,0.7-1.4,1.8-1.4,2.9
	c0,1.7,1,3.2,2.3,3.2c1.5,0,2.4-1.6,2.4-2.8c0-0.3,0-0.5-0.1-0.8l0,0c-2.1,0-2.8-0.8-2.8-1.6c0.1-0.6,0.6-1.1,1.2-1.1
	c1.1,0.1,2.1,0.9,2.3,2h0.4c0.8-0.1,1.5-0.4,2.1-0.9l0,0c0-0.9,0-1.8,0-2.5c0-3.2,1.1-6,2.9-6c0.9,0,1.4,0.8,1.4,1.8
	c-0.1,2.2-1,4.4-2.6,6l0,0c0,2.7-0.1,4.2,0.3,4.2s1.9-4.7,3.8-4.7s0.3,6,1.2,6c1,0,3.3-6.1,4.8-6.1c2.1,0,0.7,5.1,1.4,5.1
	s1.9-5.1,3.8-5.1c2.5,0,0.2,6.5,1.4,6.5c1,0,3.5-6.7,4-6.7s-0.2,0.5,1.5,3c0.1,0.1,0.1,0.2,0.2,0.3l0,0c1.8-1.6,4.1-3,5.8-3
	c0.3,0,0.5,0,0.5,0.3c0,0.5-1.5,0.9-1.5,3.4c-0.1,1.4,0.9,2.6,2.2,2.8c1.4-0.1,2.4-1.3,2.3-2.7c0-0.3-0.1-0.7-0.2-1l0,0
	c-0.3,0.1-0.7,0.1-1,0.2c-0.9,0.1-1.8-0.6-1.9-1.5c0,0,0-0.1,0-0.1c0-0.6,0.5-1,1.1-1c1,0,1.9,0.6,2.3,1.5l0,0
	c1.4-0.6,2.7-1.8,3.5-1.8c2.1,0,0.9,4.6,1.4,4.6s2.1-4.7,3.8-4.7c1.3,0,1.2,1.8,1.2,2.6c0,1.8-0.4,4.3,0.2,4.3
	c0.5,0,1.6-1.9,1.8-1.9s0.2,0,0.2,0.2c0,0.4-1.9,3.2-2.9,3.2c-1.5,0-1.4-2.3-1.4-3c0-0.6,0.2-3.5-0.3-3.5s-1.2,1.9-2,3.3s-1.2,3-2,3
	c-1.1,0-0.9-1.5-0.9-3c0-1.9,0.2-3.8-0.4-3.8c-0.3,0-1,0.7-2.1,1.2l0,0c0.1,0.4,0.2,0.8,0.2,1.2c0,1.2-0.6,4.4-3.6,4.4
	c-2.1,0-3.8-1.6-3.8-3.7c0,0,0-0.1,0-0.1c0-2,1.1-2.6,1.8-3.3c-1.6,0.5-3.1,1.4-4.3,2.6l0,0c0.2,0.6,0.4,1.3,0.4,2
	c0.1,1.2-0.7,2.2-1.8,2.4c-0.6,0-1.2-0.5-1.2-1.1c0,0,0-0.1,0-0.1c0.1-0.9,0.5-1.7,1.1-2.3l0,0c-0.3-1-0.8-1.7-1.1-1.7
	c-0.5,0-2.2,5.2-4.2,5.2c-2.2,0-0.7-6.3-1.4-6.3s-2.9,6.1-4.1,6.1c-1.7,0-0.2-6.2-1-6.2c-1,0-3.3,6.2-4.8,6.2
	c-2.2,0-0.5-6.1-1.5-6.1c-0.5,0-1.3,1.7-2,3.3c-0.6,1.3-1,2.7-1.7,2.7s-0.8-0.2-0.8-2.3c0-0.7,0-2.1-0.1-3.6l0,0
	c-0.7,0.5-1.5,0.8-2.4,1l0,0c0,0.2,0,0.3,0,0.5c0,1.5-0.6,4.6-3.6,4.6c-2.3,0-3.6-1.8-3.6-4c0-1,0.4-1.9,1.1-2.7
	c-1.4,0.9-2.7,2-3.9,3.2l0,0c0.1,1,0.2,1.9,0.2,2.9c0,6.5-2.8,9.7-4.4,9.7c-1,0-1.5-1.3-1.5-2.5C935,112.5,936.1,109.9,937.7,107.6
	L937.7,107.6z M975.7,105.1L975.7,105.1c-0.3,0.4-0.6,1-0.6,1.5c0,0.4,0.1,0.7,0.3,0.7s0.5-0.3,0.5-0.7
	C975.9,106.1,975.8,105.6,975.7,105.1L975.7,105.1z M954.5,99.8L954.5,99.8c1.1-1.4,1.7-3.1,1.7-4.8c0-0.9-0.1-1.5-0.5-1.5
	C954.4,93.5,954.5,98.2,954.5,99.8L954.5,99.8z M949.4,102.4L949.4,102.4c-0.2-0.6-0.6-1-1.1-1c-0.2,0-0.3,0.1-0.3,0.3c0,0,0,0,0,0
	C947.9,102.2,948.6,102.3,949.4,102.4z M939,106.5L939,106.5c-1.8,2.1-2.8,4.6-3,7.3c0,0.8,0,2,1.1,2c1.4,0,2.4-2.1,2.4-5
	C939.4,109.4,939.3,107.9,939,106.5L939,106.5z M930.5,105.9L930.5,105.9c-0.3-1.1-1.3-1.9-2.4-1.9c-0.4,0-0.6,0.3-0.6,0.7
	c0,0.7,1.2,1.2,2.2,1.2C930,105.9,930.3,105.9,930.5,105.9L930.5,105.9z M911.6,102.2c-0.2,0-0.4,0.1-0.6,0.1c-0.6,0-1-0.2-1-0.6
	c0-0.2,0.2-0.4,0.4-0.4C910.9,101.2,911.3,101.6,911.6,102.2L911.6,102.2z M901.6,105.2c0.1,0.5,0.2,1,0.2,1.5
	c0,0.4-0.2,0.7-0.5,0.7s-0.3-0.3-0.3-0.7C901,106.1,901.3,105.6,901.6,105.2z M880.4,99.8c0-1.6-0.1-6.2,1.1-6.2
	c0.5,0,0.5,0.5,0.5,1.5C882,96.8,881.4,98.5,880.4,99.8L880.4,99.8z M875.2,102.4c-0.8,0-1.5-0.2-1.5-0.7c0-0.2,0.2-0.3,0.3-0.3
	c0,0,0,0,0,0C874.6,101.4,875,101.8,875.2,102.4L875.2,102.4z M864.7,106c-0.3,0.4-0.6,0.8-0.9,1.2l0,0c-1.6-1.8-2.4-4.2-2.5-6.6
	c0-5.8,3.9-7.5,4.1-7.5s0.2,0.1,0.2,0.5c0,0.6-1.7,3.4-1.7,7.3C864.1,102.6,864.3,104.3,864.7,106L864.7,106L864.7,106z
	 M864.8,106.6c0.3,1.4,0.5,2.9,0.5,4.4c0,2.9-1,5-2.4,5c-1.1,0-1.1-1.2-1.1-2C862,111.3,863.1,108.7,864.8,106.6L864.8,106.6z"/>
<g>
	<polygon class="st13" points="1107.4,115.1 1106.2,112.2 1105.2,115.1 1107.4,115.1 	"/>
	<polygon class="st13" points="1144.2,115.1 1143.9,109.2 1142.1,115.1 1144.2,115.1 	"/>
	<path class="st13" d="M1123,104.1V86.8h-20v17.5l0.7-2.2l0.2-0.5h5.8l-0.3,0.9l-1.8,5.9l6.6-6.6l0.2-0.2h7.4l-1.3,1.2l-9.1,8.5
		l1.8,3.8h6.6L1123,104.1L1123,104.1z"/>
	<path class="st13" d="M1125.1,86.8v14.8h4c3.1,0,6.3-0.1,7.9,1.9c0.9,1.1,1.2,2.7,0.8,4.8c-0.3,1.9-2,6.4-10.1,6.4h-2.6l-0.1,0.4
		v0.1h12l4-13l0.2-0.5h3.8V86.8H1125.1z"/>
	<polygon class="st13" points="1155.9,115.1 1157.5,109.7 1154,115.1 1155.9,115.1 	"/>
	<path class="st13" d="M1161.5,115.1h2.3c0-1.2,0.2-2.4,0.6-3.5c0.6-2.2,1.6-4.2,2.9-6.1V86.8h-20v14.8h1.4l0.1,0.7
		c0.4,4.2,0.5,8.3,0.5,12.5c2.3-4.5,4.9-8.8,7.9-12.8l0.2-0.3h7.6l-0.2,0.9L1161.5,115.1L1161.5,115.1z"/>
	<path class="st13" d="M1169.4,86.8v16.4c2-1.5,4.5-2.2,7-2.1c3,0,5.3,1,6.6,2.8c1,1.4,1.2,3.1,0.7,4.7l-0.2,0.5h-5.5l0.5-1
		c0,0,0-0.1,0-0.1s0-0.2,0.1-0.2c0.2-0.5,0.2-1.1-0.1-1.6c-0.7-0.6-1.6-0.9-2.5-0.8c-2.9-0.1-4.8,1.9-6.1,6.5
		c-0.3,0.8-0.4,1.7-0.5,2.5v0.7h7v-0.1h-4.3l0.3-0.9l0.9-2.9l0.2-0.5h9.6l-0.3,0.9l-1,3.5h7.6V86.8H1169.4z"/>
	<polygon class="st13" points="1155.9,115.1 1157.5,109.7 1154,115.1 1155.9,115.1 	"/>
	<path class="st13" d="M1164,101.6h-6.7l-0.2,0.3c-3,4.1-5.6,8.4-7.9,12.8c0.1-4.2-0.1-8.3-0.5-12.5l-0.1-0.7h-7.4l-0.2,0.5
		l-5.8,19.1l-0.3,0.9h5.1l0.2-0.5l3.7-12.4l0.7,12.3v0.7h4.8l0.2-0.3l7.8-12.2l-3.4,11.6l-0.3,0.9h6l0.1-0.5l4.8-19.1l0.2-0.9
		L1164,101.6z"/>
	<path class="st6" d="M1159.2,121.4h-4.4l4.9-16.4l-10.6,16.4h-3.7l-1-16.4l-4.8,16.4h-3.6l5.8-19.1h6.2c0,0,0.9,9.8,0.2,16.5
		c0,0,1.8-5.9,9.5-16.5h6.3L1159.2,121.4L1159.2,121.4z"/>
	<path class="st13" d="M1183,104c-1.3-1.8-3.6-2.8-6.6-2.8c-4.4,0-9.3,1.2-12,10.4c-1.2,4-0.2,6.5,0.8,7.8c1.7,2.1,4.3,3.3,7,3.2
		c2.5,0,5-0.3,7.5-0.9l0.3-0.1l0.1-0.3l2.7-9.7l0.3-0.9h-9.6l-0.2,0.5l-0.9,2.9l-0.3,0.9h4.3l-1,3.2c-0.8,0.2-1.6,0.3-2.4,0.3
		c-1.1,0.1-2.2-0.3-3-1.1c-0.8-1.1-0.8-2.9-0.1-5.4c1.3-4.6,3.2-6.6,6.1-6.5c0.9-0.1,1.8,0.2,2.5,0.8c0.3,0.5,0.3,1.1,0.1,1.6
		c0,0.1,0,0.2-0.1,0.2s0,0.1,0,0.1l-0.5,1h5.6l0.2-0.5C1184.3,107.1,1184,105.3,1183,104z"/>
	<path class="st6" d="M1183,108.5h-3.9c0.1-0.2,0.1-0.3,0.1-0.5c0.7-2.3-0.7-3.2-3.2-3.3c-3.6-0.2-5.6,2.7-6.9,7
		c-1.3,4.6-0.2,7.5,3.8,7.5c3.2,0,3-0.7,3-0.7l1.3-4.2h-4.3l0.9-2.9h8.1l-2.7,9.7c-2.4,0.6-4.8,0.9-7.2,0.8c-3.8,0-9.4-2.6-7.1-10.1
		c2.8-9,7.5-9.9,11.4-9.9C1182,101.9,1184,105.5,1183,108.5L1183,108.5z"/>
	<path class="st13" d="M1121.7,101.6h-7.4l-0.2,0.2l-6.6,6.6l1.8-5.9l0.3-0.9h-5.8l-0.2,0.5l-5.7,19.1l-0.3,0.9h5.8l0.1-0.6
		c0.1-0.3,1.3-4.4,2.7-8.9l3.6,9l0.2,0.4h6.3l-0.5-1l-4.6-9.8l9.1-8.5L1121.7,101.6L1121.7,101.6z"/>
	<path class="st6" d="M1102.9,121.4h-4.3l5.7-19.1h4.3C1108.6,102.3,1102.9,121,1102.9,121.4z"/>
	<polygon class="st6" points="1106.2,110.8 1106.2,110.8 1114.6,102.3 1119.8,102.3 1110.4,111.2 1115.2,121.4 1110.5,121.4 
		1106.2,110.7 1106.2,110.8 	"/>
	<path class="st13" d="M1137.1,103.5c-1.6-1.9-4.8-1.9-7.9-1.9h-5.4l-0.2,0.5l-5.8,19.1l-0.3,0.9h5.5l0.2-0.5l2.1-7h2.6
		c8,0,9.7-4.5,10.1-6.4C1138.3,106.2,1138,104.6,1137.1,103.5L1137.1,103.5z"/>
	<path class="st6" d="M1137.2,108.1c-0.6,3.1-3.3,5.8-9.4,5.8h-3.2l-2.3,7.6h-3.9l5.8-19.1h4.9
		C1133.5,102.3,1138.3,102.2,1137.2,108.1L1137.2,108.1z"/>
	<path class="st13" d="M1125.4,111.1c1.4,0,2.5,0,3.4,0c2.9-0.1,3.8-1,4.4-3c1.1-3.4-1.8-3-6.1-3L1125.4,111.1z"/>
</g>
<path id="path21908" d="M1198.2,152.1l-6.6,6.6l20.8,20.8l20.8-20.8l-6.6-6.6l-14.2,14.2L1198.2,152.1z M1238.7,152.2v29.4h29.4
	v-9.3H1248v-20.1H1238.7L1238.7,152.2z M1191.6,200.4l6.6,6.6l14.2-14.2l14.2,14.2l6.6-6.6l-20.8-20.8L1191.6,200.4z"/>
<linearGradient id="SVGID_1_" gradientUnits="userSpaceOnUse" x1="110.6372" y1="48.2645" x2="215.3972" y2="48.2645" gradientTransform="matrix(1 0 0 -1 0 210)">
	<stop  offset="0.1" style="stop-color:#5EB0B4"/>
	<stop  offset="0.3" style="stop-color:#2E95CF"/>
	<stop  offset="0.42" style="stop-color:#00468F"/>
	<stop  offset="0.55" style="stop-color:#DD003D"/>
	<stop  offset="0.84" style="stop-color:#E97400"/>
</linearGradient>
<path class="st14" d="M213.9,179.4h-8.6l-0.1-0.1l-7.6-7.5c-0.3-0.3-0.8-0.4-1.2-0.2c-0.4,0.2-0.7,0.6-0.7,1v6.8h-2.2v-16.9
	c0-0.3-0.1-0.6-0.3-0.8l-6.3-5.9c-0.2-0.2-0.5-0.3-0.8-0.3H183c-0.6,0-1.1,0.5-1.1,1.1v22.8h-2.2v-36.6c0-0.4-0.3-0.8-0.7-1
	c-0.4-0.2-0.9-0.1-1.2,0.2l-10.4,10.6c-0.2,0.2-0.3,0.5-0.3,0.8v8.2l-4.3-3.2c-0.4-0.3-0.9-0.3-1.3,0l-9.7,7.8
	c-0.3,0.2-0.4,0.5-0.4,0.9v12.4h-2.2v-6.8c0.1-2.6-1.9-4.8-4.5-4.9s-4.8,1.9-4.9,4.5c0,0.1,0,0.3,0,0.4v6.8h-2.2v-4.6
	c0.1-2-1.5-3.8-3.5-3.9s-3.8,1.5-3.9,3.5c0,0.1,0,0.3,0,0.4v4.6h-2.2v-0.2c0-0.9,0-2.1,0-2.6c-0.1-1.8-1.7-3.1-3.5-3
	c-1.6,0.1-2.9,1.4-3,3v2.8h-9.7c-0.6,0-1.1,0.5-1.1,1.1c0,0.6,0.5,1.1,1.1,1.1c0,0,0,0,0,0h10.8c0.6,0,1.1-0.5,1.1-1.1v-3.7
	c0.1-0.5,0.5-0.9,1-1c0.5,0,1,0.5,1,1c0,0.3,0,3.7,0,3.7c0,0.6,0.5,1.1,1.1,1.1h4.4c0.6,0,1.1-0.5,1.1-1.1v-5.7
	c-0.1-0.8,0.4-1.6,1.3-1.7c0.8-0.1,1.6,0.4,1.7,1.3c0,0.2,0,0.3,0,0.5v5.7c0,0.6,0.5,1.1,1.1,1.1h4.4c0.6,0,1.1-0.5,1.1-1.1v-7.9
	c-0.2-1.4,0.9-2.7,2.3-2.8c1.4-0.2,2.7,0.9,2.8,2.3c0,0.2,0,0.4,0,0.6v7.9c0,0.6,0.5,1.1,1.1,1.1h4.4c0.6,0,1.1-0.5,1.1-1.1v-13
	l0.1-0.1l8.6-6.9l4.9,3.7v16.2c0,0.6,0.5,1.1,1.1,1.1h4.4c0.6,0,1.1-0.5,1.1-1.1v-13.5c0-0.3-0.2-0.7-0.4-0.9l-3.9-2.9v-9.4l0.1-0.1
	l8.2-8.3v35.1c0,0.6,0.5,1.1,1.1,1.1h4.5c0.6,0,1.1-0.5,1.1-1.1v-22.8h1.6l0.1,0.1l5.6,5.3v17.5c0,0.6,0.5,1.1,1.1,1.1h4.4
	c0.6,0,1.1-0.5,1.1-1.1v-5.3l6.1,6c0.2,0.2,0.5,0.3,0.8,0.3h9.1c0.6,0,1.1-0.5,1.1-1.1S214.5,179.4,213.9,179.4
	C213.9,179.4,213.9,179.4,213.9,179.4L213.9,179.4z M171.5,167.6v11.9h-2.2V166L171.5,167.6z"/>
<path class="st15" d="M98.6,192.1c-1.9-0.6-2.8-1-2.8-2.1s1.3-1.3,2.4-1.3c1,0,1.9,0.3,2.8,0.8c0.3,0.2,0.8,0.1,1-0.3c0,0,0,0,0,0
	l0.3-0.7c0.2-0.3,0.1-0.7-0.2-0.9c-1.2-0.7-2.5-1.1-3.8-1.1c-2.8,0-4.7,1.4-4.7,3.6c0,2.8,2.3,3.5,4.2,4.1s2.8,1,2.8,2.1
	s-1.4,1.6-2.7,1.6c-1.3-0.1-2.5-0.6-3.4-1.4c-0.2-0.2-0.4-0.2-0.6-0.2c-0.2,0-0.4,0.2-0.5,0.3l-0.4,0.6c-0.2,0.3-0.1,0.6,0.1,0.9
	c1.3,1.3,3,2,4.8,2c2.9,0,4.9-1.5,4.9-3.8C102.9,193.5,100.5,192.8,98.6,192.1"/>
<path class="st15" d="M111.6,187c-0.1-0.3-0.4-0.4-0.7-0.4h-0.8c-0.3,0-0.5,0.2-0.7,0.4l-5.5,12.1c-0.2,0.4,0,0.8,0.4,0.9
	c0.1,0,0.2,0.1,0.3,0.1h0.8c0.3,0,0.5-0.2,0.7-0.4l1.4-3h6.2l1.4,3c0.1,0.3,0.4,0.4,0.7,0.4h0.8c0.4,0,0.7-0.3,0.7-0.7
	c0-0.1,0-0.2-0.1-0.3L111.6,187z M108.4,194.5l2.1-4.6l2.1,4.6H108.4z"/>
<path class="st15" d="M120.7,186.6H120c-0.4,0-0.7,0.3-0.7,0.7v12.1c0,0.4,0.3,0.7,0.7,0.7c0,0,0,0,0,0h0.7c0.4,0,0.7-0.3,0.7-0.7
	c0,0,0,0,0,0v-12.1C121.4,186.9,121.1,186.6,120.7,186.6"/>
<path class="st15" d="M135.8,186.6h-0.7c-0.4,0-0.7,0.3-0.7,0.7c0,0,0,0,0,0v8.8l-6.8-9.2c-0.1-0.2-0.4-0.3-0.6-0.3h-0.8
	c-0.4,0-0.7,0.3-0.7,0.7l0,0v12.1c0,0.4,0.3,0.7,0.7,0.7c0,0,0,0,0,0h0.7c0.4,0,0.7-0.3,0.7-0.7c0,0,0,0,0,0v-8.8l6.8,9.2
	c0.1,0.2,0.4,0.3,0.6,0.3h0.9c0.4,0,0.7-0.3,0.7-0.7c0,0,0,0,0,0v-12.1C136.5,186.9,136.2,186.6,135.8,186.6
	C135.8,186.6,135.8,186.6,135.8,186.6"/>
<path class="st15" d="M148.3,186.6h-8.9c-0.4,0-0.7,0.3-0.7,0.7v0v0.7c0,0.4,0.3,0.7,0.7,0.7h3.4v10.7c0,0.4,0.3,0.7,0.7,0.7l0,0
	h0.7c0.4,0,0.7-0.3,0.7-0.7c0,0,0,0,0,0v-10.7h3.4c0.4,0,0.7-0.3,0.7-0.7c0,0,0,0,0,0v-0.7C149,186.9,148.7,186.6,148.3,186.6"/>
<path class="st15" d="M153.6,193.2h-3.9c-0.4,0-0.7,0.3-0.7,0.7v0.6c0,0.4,0.3,0.7,0.7,0.7l0,0h3.9c0.4,0,0.7-0.3,0.7-0.7
	c0,0,0,0,0,0v-0.6C154.3,193.5,154,193.2,153.6,193.2L153.6,193.2"/>
<path class="st15" d="M168.6,192.7h-2.8c-0.4,0-0.7,0.3-0.7,0.7c0,0,0,0,0,0v0.7c0,0.4,0.3,0.7,0.7,0.7l0,0h1.4v2.2
	c-0.8,0.6-1.9,0.9-2.9,0.9c-2.6,0-4.7-2.1-4.7-4.7s2.1-4.7,4.7-4.7c1.2,0,2.4,0.4,3.4,1.2c0.3,0.2,0.7,0.2,1-0.1l0.4-0.5
	c0.2-0.3,0.2-0.7-0.1-1c-1.3-1.1-3-1.8-4.7-1.8c-3.7,0-6.8,3-6.8,6.8c0,3.7,3,6.8,6.8,6.8c0,0,0,0,0,0c1.7,0,3.4-0.6,4.8-1.8
	c0.2-0.1,0.2-0.3,0.2-0.5v-4.4C169.3,193,169,192.7,168.6,192.7L168.6,192.7"/>
<path class="st15" d="M178.8,186.6c-3.7,0.1-6.7,3.3-6.6,7s3.3,6.7,7,6.6c3.7-0.1,6.6-3.1,6.6-6.8
	C185.7,189.5,182.6,186.5,178.8,186.6C178.8,186.6,178.8,186.6,178.8,186.6 M178.8,198c-2.6-0.1-4.6-2.2-4.5-4.8
	c0.1-2.6,2.2-4.6,4.8-4.5c2.5,0.1,4.5,2.1,4.5,4.6C183.5,195.9,181.4,198,178.8,198"/>
<path class="st15" d="M197.2,193c0.8-0.7,1.2-1.7,1.1-2.7c0-2.3-1.7-3.7-4.5-3.7h-4.9c-0.4,0-0.7,0.3-0.7,0.7v0v12.1
	c0,0.4,0.3,0.7,0.7,0.7h0h5c3.2,0,5.1-1.5,5.1-4C199,194.8,198.3,193.6,197.2,193 M193.8,192.1h-3.5v-3.4h3.5c1.1,0,2.4,0.3,2.4,1.7
	C196.2,191.5,195.4,192.1,193.8,192.1 M190.3,194.2h3.5c1.1,0,3,0.2,3,1.9s-1.6,1.9-3,1.9h-3.5V194.2z"/>
<path class="st15" d="M207.7,187c-0.1-0.3-0.4-0.4-0.6-0.4h-0.8c-0.3,0-0.5,0.2-0.6,0.4l-5.5,12.1c-0.2,0.4,0,0.8,0.4,0.9
	c0.1,0,0.2,0.1,0.3,0.1h0.8c0.3,0,0.5-0.2,0.6-0.4l1.4-3h6.1l1.4,3c0.1,0.3,0.4,0.4,0.6,0.4h0.8c0.4,0,0.7-0.3,0.7-0.7
	c0-0.1,0-0.2-0.1-0.3L207.7,187z M204.6,194.5l2.1-4.6l2.1,4.6H204.6z"/>
<path class="st15" d="M216.8,186.6h-0.7c-0.4,0-0.7,0.3-0.7,0.7v12.1c0,0.4,0.3,0.7,0.7,0.7l0,0h0.7c0.4,0,0.7-0.3,0.7-0.7l0,0
	v-12.1C217.5,186.9,217.2,186.6,216.8,186.6"/>
<path class="st15" d="M231.9,186.6h-0.7c-0.4,0-0.7,0.3-0.7,0.7v0v8.8l-6.8-9.2c-0.1-0.2-0.4-0.3-0.6-0.3h-0.9
	c-0.4,0-0.7,0.3-0.7,0.7v12.1c0,0.4,0.3,0.7,0.7,0.7l0,0h0.7c0.4,0,0.7-0.3,0.7-0.7c0,0,0,0,0,0v-8.8l6.8,9.2
	c0.1,0.2,0.4,0.3,0.6,0.3h0.9c0.4,0,0.7-0.3,0.7-0.7c0,0,0,0,0,0v-12.1C232.6,186.9,232.3,186.6,231.9,186.6L231.9,186.6"/>
<rect x="358.5" y="172.5" class="st16" width="1.6" height="10.6"/>
<path class="st16" d="M341.5,173.8c-2.2-0.1-4,1.7-4.1,3.9s1.7,4,3.9,4.1s4-1.7,4.1-3.9c0,0,0-0.1,0-0.1c0.1-2.1-1.6-3.9-3.8-4
	C341.6,173.8,341.6,173.8,341.5,173.8z M341.6,172.4c3,0,5.4,2.4,5.4,5.4c0,3-2.4,5.4-5.4,5.4c-3,0-5.4-2.4-5.4-5.4
	c0-3,2.3-5.4,5.3-5.4C341.5,172.4,341.6,172.4,341.6,172.4L341.6,172.4z"/>
<path class="st16" d="M308.8,173.7c-0.9-0.1-1.6,0.6-1.7,1.4c0,0.1,0,0.2,0,0.3c0.1,0.4,0.3,0.8,0.7,1c0.2,0.1,0.4,0.2,0.7,0.3
	l1.1,0.4c0.7,0.2,1.3,0.5,1.9,0.9c0.6,0.5,0.9,1.2,0.9,2c0,1.9-1.5,3.4-3.4,3.4c-0.1,0-0.1,0-0.2,0c-1.9,0.1-3.5-1.4-3.6-3.2
	c0,0,0,0,0,0h1.5c0,1.1,1,2,2.1,1.9c0,0,0,0,0,0c1,0.1,1.9-0.7,2-1.7c0,0,0-0.1,0-0.1c0-0.6-0.3-1.1-0.9-1.4
	c-0.2-0.1-0.4-0.2-0.6-0.2l-0.8-0.3c-0.6-0.2-1.1-0.4-1.6-0.6c-0.8-0.4-1.3-1.3-1.2-2.2c0-1.7,1.4-3.1,3.1-3.1c0.1,0,0.2,0,0.2,0
	c1.7,0,3,1.3,3.2,2.9h-1.5C310.4,174.3,309.7,173.6,308.8,173.7z"/>
<path class="st16" d="M350.7,172.5h5v1.4h-4.5v3.5h4.5v1.4h-4.5v4.3h-1.6v-9.6c0-0.6,0.4-1,1-1C350.6,172.5,350.6,172.5,350.7,172.5
	z"/>
<path class="st16" d="M326.9,174.9v8.2h-1.6v-9.7c0-0.6,0.5-1.1,1.1-1.1c0.4,0,0.7,0.2,0.9,0.5c1.5,2.5,4.4,7.2,4.7,7.8v-8.2h1.6
	v9.7c0,0.6-0.5,1.1-1.1,1.1c-0.4,0-0.7-0.2-0.9-0.5C330,180.2,327.2,175.5,326.9,174.9z"/>
<path class="st16" d="M318.3,174.4l-1.6,4.3h3.1L318.3,174.4z M316.3,180.1l-1.1,3h-1.6l3.8-10.1c0.2-0.6,0.8-0.8,1.4-0.6
	c0.3,0.1,0.5,0.3,0.6,0.6l3.8,10.1h-1.6l-1.1-3L316.3,180.1z"/>
<path class="st17" d="M449.3,175.8c-3-4.3-6.2-0.5-9.6-1s-3.4-5,0.6-5.4h0.3C444.6,169.5,448.1,172.1,449.3,175.8z"/>
<path class="st16" d="M449.4,176.1c1.4,4.9-1.4,9.9-6.3,11.3c-2.9,0.8-6,0.2-8.3-1.8c0.6,0.2,1.3,0.4,2,0.4
	C445,186,441.5,175,449.4,176.1z"/>
<path class="st18" d="M437.2,184.9c-1.1,0.7-3,0.5-4.2-1.2c-0.3-0.4-0.5-0.8-0.7-1.2c-0.6-1.2-0.9-2.5-0.9-3.9c0-0.4,0-0.7,0.1-1.1
	c2,2.7,4.3,2.6,5.8,3.5c1.1,0.7,1.4,2.1,0.7,3.2C437.8,184.4,437.6,184.7,437.2,184.9L437.2,184.9z"/>
<path class="st17" d="M373.4,174.1c-0.1-0.4-0.3-0.7-0.6-1c-0.3-0.3-0.7-0.6-1.1-0.7c-0.5-0.2-1.1-0.3-1.7-0.2h-3.9v11h1.4v-4.7h1.9
	c0.5,0,1,0,1.4-0.1c0.5-0.1,0.9-0.3,1.3-0.5c0.4-0.2,0.8-0.6,1-1c0.3-0.5,0.4-1,0.4-1.6C373.6,174.9,373.5,174.5,373.4,174.1z
	 M372,176.2c-0.1,0.2-0.3,0.4-0.5,0.6c-0.2,0.2-0.5,0.3-0.8,0.3c-0.4,0.1-0.8,0.1-1.1,0.1h-1.9v-3.7h2.2c0.6-0.1,1.3,0.1,1.8,0.5
	c0.4,0.3,0.6,0.8,0.5,1.3C372.1,175.6,372.1,175.9,372,176.2z"/>
<polygon class="st17" points="391.4,173.5 394.6,173.5 394.6,183.1 396,183.1 396,173.5 399.1,173.5 399.1,172.1 391.4,172.1 "/>
<path class="st17" d="M407.2,181.8v1.3H400v-10.1c0-0.6,0.4-1,1-1h6.1v1.3h-5.7v3.3h5.1v1.3h-5.1v3.7L407.2,181.8z"/>
<path class="st17" d="M415.2,178.7c0,0.5,0,1.1-0.1,1.6c-0.1,0.4-0.2,0.7-0.5,1.1c-0.2,0.3-0.5,0.5-0.8,0.6
	c-0.4,0.1-0.8,0.2-1.3,0.2c-0.8,0.1-1.5-0.2-2-0.8c-0.5-0.8-0.7-1.7-0.6-2.7v-6.5h-1.4v6.8c-0.1,1.2,0.3,2.3,1,3.3
	c0.8,0.8,1.9,1.3,3.1,1.2c1.1,0.1,2.3-0.3,3.1-1.2c0.7-0.9,1.1-2.1,1-3.3v-6.8h-1.4V178.7z"/>
<path class="st17" d="M421.1,172.3h1.1c0.5,0,1,0,1.5,0.1c0.7,0.1,1.3,0.5,1.8,1c0.5,0.5,0.7,1.2,0.7,1.8c0,0.6-0.2,1.1-0.5,1.6
	c-0.3,0.5-0.8,0.8-1.3,1c-0.6,0.2-1.2,0.3-1.9,0.3h-0.2l0.1,0.1l4.1,4.7h-1.8l-4.1-4.8v-1.4h1.4c0.6,0,1.1,0,1.7-0.2
	c0.3-0.1,0.6-0.3,0.8-0.6c0.2-0.3,0.3-0.6,0.3-0.9c0-0.3-0.1-0.6-0.3-0.9c-0.2-0.3-0.5-0.5-0.8-0.6c-0.5-0.1-1-0.2-1.4-0.2h-2.1v9.5
	h-1.4v-9.8c0-0.6,0.4-1,1-1L421.1,172.3z"/>
<path class="st17" d="M379.4,172.9c-0.2-0.6-0.8-0.8-1.4-0.6c-0.3,0.1-0.5,0.3-0.6,0.6l-3.8,10.1h1.6l1.1-3h4.2l1.1,3h1.6
	L379.4,172.9z M376.9,178.6l1.6-4.3l1.6,4.3L376.9,178.6z"/>
<path class="st17" d="M387.2,173.5c-0.9-0.1-1.6,0.6-1.7,1.4c0,0.1,0,0.2,0,0.3c0.1,0.4,0.3,0.8,0.7,1c0.2,0.1,0.4,0.2,0.7,0.3
	l1.1,0.4c0.7,0.2,1.3,0.5,1.9,0.9c0.6,0.5,0.9,1.2,0.9,2c0,1.9-1.5,3.4-3.4,3.4c-0.1,0-0.1,0-0.2,0c-1.9,0.1-3.5-1.4-3.6-3.2
	c0,0,0,0,0,0h1.5c0,1.1,1,2,2.1,1.9c0,0,0,0,0,0c1,0.1,1.9-0.7,2-1.7c0,0,0-0.1,0-0.1c0-0.6-0.3-1.1-0.9-1.4
	c-0.2-0.1-0.4-0.2-0.6-0.2l-0.8-0.3c-0.6-0.2-1.1-0.4-1.6-0.6c-0.8-0.4-1.3-1.3-1.2-2.2c0-1.7,1.4-3.1,3.1-3.1c0.1,0,0.2,0,0.2,0
	c1.7,0,3,1.3,3.2,2.9h-1.5C388.8,174.2,388.1,173.5,387.2,173.5z"/>
<polygon class="st19" points="535.8,168.8 520.7,168.8 520.7,174 525.9,174 525.9,190.5 532.8,190.5 532.8,174 539.2,174 
	535.8,168.8 "/>
<polygon class="st19" points="553.4,184.9 546.1,184.9 546.1,182.4 553.2,182.4 553.2,177 546.1,177 546.1,174 553.2,174 
	553.2,168.8 539.4,168.8 539.4,190.6 553.4,190.6 553.4,184.9 "/>
<polygon class="st19" points="574.6,168.8 567.7,168.8 564.5,173.2 561,168.8 553.4,168.8 560.6,179.4 553.8,190.5 560.3,190.5 
	564.2,185 568.1,190.5 575.7,190.5 567.9,178.8 574.6,168.8 "/>
<path class="st19" d="M593.4,168.6v22h6.7V174h1.3c3.6-0.2,3.6,6.3-0.7,6.3c-0.2,0,6.9,10.4,6.9,10.4h7.3c-0.1,0-6.3-10-6.4-9.9
	c0.9-0.4,2.4-2.9,2.4-5.3c0-3.3-3.1-6.8-7.7-6.8L593.4,168.6z"/>
<path class="st19" d="M634.3,179.7c0.1-6.3-5-11.5-11.3-11.6c-6.3-0.1-11.5,5-11.6,11.3c-0.1,6.3,5,11.5,11.3,11.6c0,0,0.1,0,0.1,0
	c6.2,0.1,11.3-4.8,11.4-11C634.3,179.9,634.3,179.8,634.3,179.7L634.3,179.7z M627.7,179.7c-0.1,2.7-2.3,4.8-5,4.7
	c-2.7-0.1-4.8-2.3-4.7-5c0.1-2.6,2.2-4.7,4.8-4.7c2.6-0.1,4.7,1.9,4.8,4.4C627.7,179.3,627.7,179.5,627.7,179.7z"/>
<polygon class="st19" points="654.9,168.7 648.6,168.7 648.6,178.2 642.1,168.7 635.8,168.7 635.8,190.5 642.3,190.5 642.3,180.1 
	649.5,190.5 655,190.5 654.9,168.7 "/>
<polygon class="st19" points="589.9,168.7 574.7,168.7 574.7,173.9 580,173.9 580,190.4 586.9,190.4 586.9,173.9 593.3,173.9 
	589.9,168.7 "/>
<path class="st20" d="M743.3,173.9c0,0.9,0.7,1.6,1.6,1.6c0.6,0,1.1-0.3,1.4-0.8c5-9,13.8-14.9,23.7-14.9c8.7,0,17.5,5.4,23.2,13.4
	c-2.8,3.9-6.3,7.2-10.4,9.7c1.1-1.6,1.6-3.5,1.7-5.4c0-7.4-6.5-13.4-14.5-13.4c-9.3-0.1-16.9,7.3-17.1,16.6c0,11.5,9.7,21,22.2,22.3
	h0.2c0.9,0,1.6-0.6,1.7-1.5c0-0.9-0.6-1.6-1.5-1.7c-10.9-1.1-19.4-9.3-19.4-19.1c0.2-7.5,6.4-13.5,13.9-13.4
	c6.2,0,11.2,4.6,11.2,10.2c-0.1,4.4-3.6,7.9-8,8c-4.1,0-7.5-2.9-7.5-6.4c0-2.4,1.9-4.3,4.3-4.3l0,0c1.8,0,3.4,1.3,3.7,3.1
	c0.2,0.9,1,1.5,1.9,1.3s1.5-1,1.3-1.9c-0.6-3.3-3.5-5.7-6.8-5.8c-4.1,0-7.5,3.4-7.5,7.5c0,5.3,4.8,9.6,10.7,9.6
	c8.2,0,17.7-6.1,23.8-15.5c-6.2-9.8-16.6-16.6-27.1-16.6c-11.2,0-21,6.6-26.5,16.6C743.5,173.4,743.4,173.7,743.3,173.9"/>
<path class="st20" d="M806.9,158.6v9.6c0.1,0.7-0.5,1.4-1.2,1.4c-0.1,0-0.1,0-0.2,0l0,0c-0.7,0.1-1.4-0.5-1.4-1.2c0-0.1,0-0.1,0-0.2
	v-9.6h-2.6c-0.5,0.1-0.9-0.3-1-0.8c0-0.1,0-0.1,0-0.2l0,0c-0.1-0.5,0.3-0.9,0.8-1c0.1,0,0.1,0,0.2,0h8.1c0.5-0.1,0.9,0.3,1,0.8
	c0,0.1,0,0.1,0,0.2l0,0c0.1,0.5-0.3,0.9-0.8,1c-0.1,0-0.1,0-0.2,0H806.9z"/>
<path class="st20" d="M814.5,168.4c0.1,0.7-0.4,1.3-1.1,1.3c-0.1,0-0.2,0-0.2,0l0,0c-0.7,0.1-1.3-0.4-1.3-1.1c0-0.1,0-0.1,0-0.2
	v-7.3c0-0.9,0.4-1.4,1.3-1.4h0c0.9,0,1.4,0.6,1.4,1.9L814.5,168.4z M813.2,159.1c-0.8,0-1.5-0.6-1.5-1.4c0,0,0,0,0,0
	c0-0.8,0.7-1.5,1.5-1.5c0,0,0,0,0,0c0.8,0,1.5,0.6,1.5,1.4c0,0,0,0,0,0C814.6,158.4,814,159.1,813.2,159.1
	C813.2,159.1,813.2,159.1,813.2,159.1"/>
<path class="st20" d="M819.5,162.3v6.1c0.1,0.7-0.4,1.3-1.1,1.3c-0.1,0-0.2,0-0.2,0l0,0c-0.7,0.1-1.3-0.4-1.3-1.1c0-0.1,0-0.2,0-0.2
	v-7.3c0-0.9,0.4-1.4,1.3-1.4h0c0.7,0,1.1,0.3,1.3,1.2c1-0.8,2.2-1.2,3.5-1.2c1-0.1,1.9,0.4,2.3,1.2c1-0.8,2.3-1.2,3.6-1.2
	c1.4,0,2.5,0.6,2.5,2.7v6c0.1,0.7-0.4,1.3-1.1,1.3c-0.1,0-0.2,0-0.2,0l0,0c-0.7,0.1-1.3-0.4-1.3-1.1c0-0.1,0-0.2,0-0.2v-5.3
	c0-0.9-0.3-1.2-1.1-1.2c-0.7,0-1.4,0.2-2.1,0.5v6c0.1,0.7-0.4,1.3-1.1,1.3c-0.1,0-0.2,0-0.2,0l0,0c-0.7,0.1-1.3-0.4-1.3-1.1
	c0-0.1,0-0.2,0-0.2v-5.3c0-0.9-0.3-1.2-1.1-1.2c-0.7,0-1.4,0.2-2.1,0.4"/>
<path class="st20" d="M835.9,163.7h3.6c-0.1-1.7-0.6-2.3-1.7-2.3S836.1,161.9,835.9,163.7 M835.9,165.3c0.1,2,1.1,2.5,2.6,2.5
	s2-0.8,2.7-0.8s0.8,0.3,0.8,0.9v0c0,0.5-0.3,1-0.8,1.2c-1,0.4-2,0.6-3.1,0.6c-3.2,0-5-1.9-5-5s2-5.1,4.8-5.1c3,0,4.4,1.9,4.4,4.4
	c0,0.8-0.4,1.2-1.3,1.2L835.9,165.3z"/>
<path class="st20" d="M813.8,173.6c0.2-0.8,0.6-1.2,1.3-1.2h0.1c1,0,1.4,0.7,1.2,1.6l-2.4,10c-0.3,1.3-0.9,1.7-1.9,1.7h-0.1
	c-1,0-1.6-0.4-1.9-1.7l-1.6-7l0,0l-1.6,7c-0.1,1-0.9,1.7-1.9,1.7c0,0,0,0,0,0h-0.1c-1,0-1.6-0.4-1.9-1.7l-2.3-9.7
	c-0.2-1.1,0.2-1.9,1.3-1.9h0.1c0.7,0,1.4,0.6,1.4,1.3l1.8,8.2l0,0l1.9-8.1c0.2-1,0.7-1.4,1.5-1.4l0,0c0.8,0,1.3,0.4,1.5,1.4l2,8.1
	l0,0L813.8,173.6z"/>
<path class="st20" d="M822.4,183.2v-1.9c-0.5-0.1-0.9-0.1-1.4-0.1c-1.1,0-1.8,0.4-1.8,1.4s0.6,1.4,1.5,1.4
	C821.3,183.9,821.9,183.7,822.4,183.2 M822.5,184.6c-0.7,0.8-1.8,1.2-2.8,1.1c-1.6,0.2-3-0.9-3.2-2.5c0-0.1,0-0.3,0-0.4
	c0-2.1,1.6-3.1,3.9-3.1c0.7,0,1.3,0.1,2,0.2V179c0-0.9-0.5-1.4-1.8-1.4c-1.5,0-1.8,0.8-2.5,0.8c-0.5,0-0.8-0.4-0.8-0.9
	c0,0,0,0,0-0.1v-0.1c0-0.6,0.4-1.1,1-1.3c0.9-0.3,1.9-0.5,2.8-0.5c2.7,0,4.1,0.9,4.1,3.1v5.5c0,0.9-0.3,1.4-1.2,1.4h-0.1
	C823.3,185.7,822.7,185.2,822.5,184.6"/>
<path class="st20" d="M829.9,176.9c0.6-0.7,1.5-1.2,2.5-1.3c0.6,0,1,0.3,1,1.1v0.1c0,0.8-0.4,1.2-1.2,1.2c-0.8,0-1.5,0.2-2.2,0.4
	v5.8c0.1,0.7-0.4,1.3-1.1,1.3c-0.1,0-0.2,0-0.2,0l0,0c-0.7,0.1-1.3-0.4-1.3-1.1c0-0.1,0-0.1,0-0.2V177c0-0.9,0.4-1.4,1.3-1.4h0.1
	C829.3,175.6,829.8,176,829.9,176.9"/>
<path class="st20" d="M837.5,178.2v6.1c0.1,0.7-0.4,1.3-1.1,1.3c-0.1,0-0.2,0-0.2,0l0,0c-0.7,0.1-1.3-0.4-1.3-1.1c0-0.1,0-0.2,0-0.2
	V177c0-0.9,0.4-1.4,1.3-1.4l0,0c0.7,0,1.1,0.3,1.3,1.2c1.1-0.8,2.3-1.2,3.6-1.2c1.4,0,2.6,0.5,2.6,2.8v6c0.1,0.7-0.4,1.3-1.1,1.3
	c-0.1,0-0.2,0-0.2,0l0,0c-0.7,0.1-1.3-0.4-1.4-1.1c0-0.1,0-0.2,0-0.2V179c0-1-0.4-1.3-1.2-1.3C839,177.8,838.3,177.9,837.5,178.2"/>
<path class="st20" d="M848.2,179.6h3.6c-0.1-1.7-0.6-2.3-1.7-2.3S848.4,177.8,848.2,179.6 M848.2,181.3c0.1,2,1.1,2.5,2.6,2.5
	s2-0.8,2.7-0.8s0.8,0.3,0.8,0.9v0.1c0,0.5-0.3,1-0.8,1.2c-1,0.4-2,0.6-3.1,0.6c-3.2,0-5-1.9-5-5s2-5.1,4.8-5.1c3,0,4.4,1.9,4.4,4.4
	c0.1,0.6-0.4,1.2-1,1.2c-0.1,0-0.2,0-0.3,0L848.2,181.3z"/>
<path class="st20" d="M858.9,176.9c0.6-0.7,1.5-1.2,2.5-1.3c0.6,0,1,0.3,1,1.1v0.1c0,0.8-0.4,1.2-1.2,1.2c-0.8,0-1.5,0.2-2.2,0.4
	v5.8c0.1,0.7-0.4,1.3-1.1,1.3c-0.1,0-0.2,0-0.2,0l0,0c-0.7,0.1-1.3-0.4-1.3-1.1c0-0.1,0-0.1,0-0.2V177c0-0.9,0.4-1.4,1.3-1.4h0.1
	C858.3,175.6,858.7,176,858.9,176.9"/>
<path class="st20" d="M806.6,201.6c-3.8,0-6.2-2.5-6.2-6.6s2.7-6.7,6.5-6.7c1,0,1.9,0.1,2.8,0.5c0.6,0.2,1,0.8,1,1.4v0.1
	c0.1,0.5-0.3,1-0.9,1.1c0,0-0.1,0-0.1,0c-0.8,0-1.3-1-3-1c-2.1,0-3.4,1.6-3.4,4.5c0,3.2,1.1,4.7,3.4,4.7c2.1,0,2.3-1.3,3.2-1.3
	c0.5,0,1,0.4,1,0.9c0,0,0,0.1,0,0.1v0.1c0,0.7-0.4,1.2-1.2,1.6C808.6,201.4,807.6,201.6,806.6,201.6"/>
<path class="st20" d="M818.1,199.1v-1.9c-0.5-0.1-0.9-0.1-1.4-0.1c-1.1,0-1.8,0.4-1.8,1.3s0.6,1.4,1.5,1.4
	C817,199.8,817.6,199.6,818.1,199.1 M818.2,200.5c-0.7,0.8-1.8,1.2-2.8,1.1c-1.8,0-3.2-1-3.2-2.9s1.6-3.1,3.9-3.1
	c0.7,0,1.3,0.1,2,0.2v-0.9c0-0.9-0.5-1.4-1.8-1.4c-1.5,0-1.8,0.8-2.5,0.8c-0.5,0-0.8-0.4-0.8-0.9c0,0,0,0,0-0.1v-0.1
	c0-0.6,0.4-1.2,1-1.3c0.9-0.3,1.9-0.5,2.8-0.5c2.7,0,4.1,0.9,4.1,3.2v5.5c0,0.9-0.3,1.4-1.2,1.4h-0.1c-0.6,0-1.2-0.4-1.3-1.1"/>
<path class="st20" d="M825.7,194.1v5c0.5,0.4,1.1,0.6,1.8,0.6c1.1,0,2.2-0.5,2.2-3s-1-3.1-2.2-3.1
	C826.9,193.6,826.3,193.8,825.7,194.1 M825.7,190.2v2.4c0.8-0.7,1.9-1.1,3-1.1c1.9,0,3.8,1.2,3.8,4.9s-2.1,5.2-4.2,5.2
	c-1,0-2-0.3-2.8-0.9c-0.2,0.5-0.7,0.9-1.2,0.9h-0.1c-0.7,0-1.2-0.4-1.2-1.4v-10.5c0-0.9,0.4-1.4,1.3-1.4h0.1
	C825.4,188.3,825.7,188.9,825.7,190.2"/>
<path class="st20" d="M837,190.2v10c0.1,0.7-0.4,1.3-1.1,1.3c-0.1,0-0.1,0-0.2,0l0,0c-0.7,0.1-1.3-0.4-1.3-1.1c0-0.1,0-0.1,0-0.2
	v-10.6c0-0.9,0.4-1.4,1.3-1.4h0.1C836.6,188.3,837,188.9,837,190.2"/>
<path class="st20" d="M841.5,195.5h3.6c-0.1-1.7-0.6-2.3-1.7-2.3S841.7,193.7,841.5,195.5 M841.5,197.2c0.1,2,1.1,2.5,2.6,2.5
	s2-0.8,2.7-0.8s0.8,0.3,0.8,0.9v0.1c0,0.5-0.3,1-0.8,1.2c-1,0.4-2,0.6-3.1,0.6c-3.2,0-5-1.9-5-5s2-5.1,4.8-5.1c3,0,4.4,1.9,4.4,4.4
	c0,0.8-0.4,1.2-1.3,1.2L841.5,197.2z"/>
<path class="st20" d="M851,193.4h0.3c0.2,0,0.3-0.1,0.3-0.3s-0.1-0.3-0.3-0.3H851V193.4z M852.1,194.2c0.1,0.1,0.1,0.3-0.1,0.3
	c0,0-0.1,0-0.2,0l0,0c-0.1,0-0.2-0.1-0.3-0.2l-0.3-0.6H851v0.6c0,0.1-0.1,0.2-0.2,0.3c0,0,0,0-0.1,0l0,0c-0.1,0-0.3-0.1-0.3-0.2
	c0,0,0,0,0-0.1v-1.5c0-0.2,0.1-0.3,0.3-0.4c0,0,0,0,0.1,0h0.5c0.6,0,0.8,0.2,0.8,0.7c0,0.2-0.1,0.5-0.4,0.6L852.1,194.2z
	 M851.3,195.2c0.9,0,1.6-0.7,1.6-1.6s-0.7-1.6-1.6-1.6c-0.9,0-1.6,0.7-1.6,1.6c0,0,0,0,0,0c-0.1,0.8,0.6,1.6,1.4,1.6
	C851.1,195.2,851.2,195.2,851.3,195.2 M851.3,195.6c-1.1,0-2-0.9-2-2s0.9-2,2-2s2,0.9,2,2S852.4,195.6,851.3,195.6"/>
<g id="E8DabR">
	<path class="st21" d="M1023.2,174h1.5l-3-4.7l-0.9,1.4h1v5.4h-11.1v-5.4h1l-1-1.4l-3,4.7h1.7v5.1h-10V174h1.8c0.1,0,0.2,0,0.2-0.1
		l5.7-9.3l0.1-0.1h-1.4v-5.2h9.9v5.2h-1.4l2,3.1l2-3.1h-1.4v-5.2h9.9v5.2h-1.5l0.1,0.2l5.8,9.3c0,0.1,0.1,0.2,0.2,0.1h1.8v5.1h-10
		L1023.2,174z M1006.6,174.6l4.1-6.5l2.1,3.4h-1.4v3.8h9.7v-3.9h-1.3l2-3.3l4,6.5h-2v3.8h8.8v-3.8c-0.6,0-1.1,0-1.7,0
		c-0.2,0-0.3-0.1-0.4-0.2l-6.4-10.4l-0.1-0.2h2.1v-4h-8.5v4h2l-3.3,5.4l-3.3-5.4h2v-4h-8.5v4h2l-0.1,0.2l-6.5,10.5
		c0,0.1-0.1,0.1-0.2,0.1h-1.7v3.8h8.7v-3.8L1006.6,174.6z"/>
	<path class="st22" d="M1034.2,178.5h0.2l0.1,0.6l0.1-0.6h0.2v0.8h-0.2V179l0,0l-0.1,0.4c-0.1,0.1-0.2,0-0.2-0.1
		c0-0.1,0-0.2-0.1-0.3v0.4h-0.2L1034.2,178.5z"/>
	<path class="st23" d="M1033.5,178.7c-0.1-0.1,0-0.1,0.1-0.1c0.5,0,0.5,0,0.5,0.1h-0.2v0.6h-0.2v-0.6L1033.5,178.7z"/>
	<path class="st24" d="M1006.6,174.6h2v3.8h-8.7v-3.8h1.7c0.1,0,0.2,0,0.2-0.1l6.5-10.5l0.1-0.2h-2v-4h8.5v4h-2l3.3,5.4l3.3-5.4h-2
		v-4h8.5v4h-2.1l0.1,0.2l6.4,10.4c0.1,0.1,0.2,0.2,0.4,0.2c0.6,0,1.1,0,1.7,0v3.8h-8.8v-3.8h2l-4-6.5l-2,3.3h1.3v3.9h-9.7v-3.8h1.4
		l-2.1-3.4L1006.6,174.6z M1016.3,170.3l-4.4-7h2.4v-2.8h-7.3v2.8h2.6l-0.1,0.2c-2.3,3.8-4.7,7.5-7,11.3c-0.2,0.4-0.6,0.6-1,0.5
		c-0.3,0-0.6,0-0.9,0v2.6h7.4v-2.8h-2.5l5.1-8.2l3.2,5.1h-1.9v2.7h8.5V172h-1.9l3.1-5l5.3,8.3h-2.6v2.6h7.6v-2.6h-1.3
		c-0.1,0-0.2-0.1-0.3-0.2l-7.5-11.7l-0.1-0.2h2.8v-2.8h-7.3v2.8h2.4L1016.3,170.3z"/>
	<path class="st25" d="M1016.3,170.3l4.4-7h-2.4v-2.8h7.3v2.8h-2.8l0.1,0.2l7.5,11.7c0.1,0.1,0.2,0.2,0.3,0.2h1.3v2.6h-7.6v-2.6h2.6
		l-5.3-8.3l-3.1,5h1.9v2.7h-8.5V172h1.9l-3.2-5.1l-5.1,8.2h2.5v2.8h-7.4v-2.6c0.3,0,0.6,0,0.9,0c0.4,0.1,0.8-0.1,1-0.5
		c2.3-3.8,4.7-7.5,7-11.3l0.1-0.2h-2.6v-2.8h7.3v2.8h-2.4L1016.3,170.3z"/>
</g>
<path class="st25" d="M1087.7,194.9l1.1-2.9l1.1,2.9H1087.7L1087.7,194.9z M1091.7,196.9l-2.6-6.5h-0.2c0,0-2.2,5.7-2.4,6.3
	s-0.6,0.8-0.8,0.8v0.3h2v-0.3c-0.3,0-0.6-0.2-0.6-0.5c0-0.1,0-0.2,0-0.3l0.5-1.3h2.6l0.5,1.3c0,0.1,0.1,0.2,0.1,0.3
	c0,0.3-0.2,0.5-0.7,0.5v0.3h2.6v-0.3C1092.1,197.5,1091.8,197.3,1091.7,196.9"/>
<path class="st25" d="M1038.8,188.4v-0.3h-2.3l-2.9,7.9l-3-7.9h-2.3v0.3c1,0,1.2,0.5,1.2,1.5v6c0,1.4-0.4,1.7-1.2,1.7v0.3h3v-0.3
	c-0.8,0-1.2-0.4-1.2-1.7v-6.2l3.1,8.2h0.3l3.1-8.4v6.4c0,1.4-0.3,1.7-1.2,1.7v0.3h3.4v-0.3c-0.8,0-1.2-0.4-1.2-1.7v-6.1
	C1037.6,188.7,1038.2,188.5,1038.8,188.4"/>
<path id="path3025" class="st25" d="M1014.6,197.6c-1.4,0-2.2-1.3-2.2-3.4s0.8-3.4,2.2-3.4s2.2,1.3,2.2,3.4
	S1015.9,197.6,1014.6,197.6z M1014.6,190.4c-1.8,0-3.3,1.5-3.3,3.8s1.5,3.8,3.3,3.8s3.3-1.5,3.3-3.8S1016.4,190.4,1014.6,190.4"/>
<path class="st25" d="M1024.2,190.5h-5.3v0.3c0.6,0,0.9,0.3,0.9,0.9v4.9c0,0.7-0.3,1-0.9,1v0.3h2.8v-0.3c-0.5,0.1-0.9-0.2-0.9-0.7
	c0-0.1,0-0.2,0-0.3v-2.4h1.5c0.6,0,0.9,0.3,1,1h0.2v-2.5h-0.3c0,0.7-0.4,1-1,1h-1.6v-2.4c0-0.3,0.2-0.3,0.4-0.3h1.5
	c0.9,0,1.2,0.4,1.4,1.2h0.2L1024.2,190.5"/>
<path id="path3029" class="st25" d="M999.7,190.5l0.1,1.9h-0.2c-0.2-1.2-0.5-1.4-2.1-1.4v5.6c-0.1,0.5,0.2,0.9,0.6,1
	c0.1,0,0.2,0,0.4,0v0.3h-3v-0.3c0.5,0.1,0.9-0.2,1-0.6c0-0.1,0-0.2,0-0.4V191c-1.6,0-1.9,0.2-2.1,1.4H994l0.1-1.9L999.7,190.5"/>
<path class="st25" d="M1005.4,190.8v-0.3h2.2v0.3c-0.4,0.1-0.8,0.3-1,0.7l-1.8,3v2.1c0,0.7,0.3,1,1,1v0.3h-3.1v-0.3c0.8,0,1-0.2,1-1
	v-2l-1.9-3.1c-0.2-0.4-0.6-0.6-1-0.7v-0.3h2.9v0.3c-0.4,0-0.7,0.2-0.7,0.4c0,0.1,0,0.3,0.1,0.4l1.5,2.4l1.4-2.5
	c0-0.1,0.1-0.2,0.1-0.2C1006.1,191.1,1005.9,190.8,1005.4,190.8"/>
<path id="path3033" class="st25" d="M988,190.4l0.2,2.4H988c-0.4-1.2-1-1.9-1.8-1.9c-0.5,0-1,0.3-1,0.9c0,0,0,0.1,0,0.1
	c0,0.6,0.5,1,1.1,1.4l1.2,0.8c0.6,0.4,1,1.1,1.1,1.9c0,1.1-0.8,2-1.9,2.1c0,0-0.1,0-0.1,0c-0.7,0-1.2-0.4-1.5-0.4
	c-0.2,0-0.3,0.2-0.3,0.4h-0.2l-0.3-2.4h0.3c0.5,1.2,1.1,2,2,2c0.6,0,1.2-0.5,1.2-1.1c0,0,0-0.1,0-0.1c0-0.6-0.3-1.1-0.8-1.3l-1.5-1
	c-0.6-0.4-0.9-1-0.9-1.8c-0.1-1,0.7-1.8,1.6-1.8c0.1,0,0.1,0,0.2,0c0.5,0,1,0.3,1.3,0.3c0.2,0,0.3-0.1,0.3-0.3c0,0,0,0,0,0
	L988,190.4"/>
<path id="path3037" class="st25" d="M975.3,195.9c-0.2,0.9-1,1.5-1.9,1.4h-1.2c-0.4,0-0.6-0.1-0.6-0.5v-2.6h1.6c0.6,0,0.9,0.3,1,1
	h0.2v-2.5h-0.3c0,0.7-0.4,1-1,1h-1.6v-2.4c0-0.3,0.2-0.3,0.4-0.3h1.4c0.9,0,1.2,0.4,1.4,1.2h0.3l-0.1-1.6h-5.3v0.3
	c0.6,0,0.9,0.3,0.9,0.9v4.9c0,0.7-0.3,1-0.9,1v0.3h5.4l0.5-1.9L975.3,195.9"/>
<path class="st25" d="M978.5,194v-2.5c0-0.5,0.1-0.6,0.7-0.6c1.2,0,1.7,0.6,1.7,1.5c0,1.1-0.8,1.6-2.1,1.6H978.5z M982.3,197.2
	c-0.2-0.2-1.8-2.4-2.2-2.9c1.3-0.3,1.8-0.9,1.8-1.9c0-1.1-0.9-1.9-2.4-1.9h-2.9v0.3c0.6,0,0.9,0.3,0.9,0.9v4.9c0,0.7-0.3,1-0.9,1
	v0.3h2.8v-0.3c-0.6,0-0.9-0.3-0.9-1v-2.1h0.5l2.4,3.4h1.6v-0.2C982.7,197.6,982.4,197.5,982.3,197.2"/>
<path id="path3041" class="st25" d="M959.8,191.7c-0.1-0.5,0.2-0.9,0.7-1c0.1,0,0.2,0,0.3,0v-0.3h-3v0.3c0.5-0.1,0.9,0.2,1,0.7
	c0,0.1,0,0.2,0,0.3v4.9c0.1,0.5-0.2,0.9-0.6,1c-0.1,0-0.2,0-0.4,0v0.3h3v-0.3c-0.5,0.1-0.9-0.2-1-0.6c0-0.1,0-0.2,0-0.4V191.7"/>
<path class="st25" d="M964.6,190.8v-0.3h-2.7v0.3c0.3,0,0.7,0.2,0.9,0.8l2.7,6.4h0.2c0,0,2.1-5.9,2.3-6.4s0.5-0.8,0.8-0.8v-0.3h-2.1
	v0.3c0.5,0,0.7,0.2,0.7,0.6c0,0.1,0,0.2-0.1,0.3l-1.5,4.4l-1.8-4.4c0-0.1-0.1-0.2-0.1-0.3C963.9,191,964.2,190.8,964.6,190.8"/>
<path class="st25" d="M940,188.4c0.8,0,1.2,0.4,1.2,1.5v4.5c0,2.3,1.3,3.5,3.4,3.5c1.7,0.1,3.2-1.2,3.3-2.9c0-0.2,0-0.3,0-0.5v-4.9
	c0-0.8,0.2-1.3,1.1-1.3v-0.3h-2.9v0.3c0.8,0,1.2,0.4,1.2,1.4s0.1,3.6,0.1,5.1c-0.1,1.4-1.4,2.5-2.8,2.4c-1.3-0.1-2.3-1.2-2.4-2.5
	v-5.1c0-0.8,0.3-1.3,1.1-1.3v-0.3H940V188.4"/>
<path id="path3047" class="st25" d="M953.9,190.5v0.3c0.6,0,0.9,0.4,0.9,1.1v3.9l-3.8-5.2h-1.7v0.3c0.3,0,0.5,0.1,0.7,0.3l0.2,0.3
	v4.9c0,0.8-0.3,1.3-1,1.3v0.3h2.3v-0.3c-0.6,0-0.9-0.4-0.9-1V192l4.4,5.9h0.2V192c0-0.9,0.4-1.3,1-1.3v-0.3L953.9,190.5"/>
<path id="path3047-2" class="st25" d="M1048.6,190.5v0.3c0.6,0,0.9,0.4,0.9,1.1v3.9l-3.8-5.2h-1.7v0.3c0.3,0,0.5,0.1,0.7,0.3
	l0.2,0.3v4.9c0,0.8-0.3,1.3-0.9,1.3v0.3h2.3v-0.3c-0.6,0-0.9-0.4-0.9-1V192l4.4,5.9h0.2V192c0-0.9,0.4-1.3,1-1.3v-0.3L1048.6,190.5"
	/>
<path id="path3047-3" class="st25" d="M1056.7,190.5v0.3c0.6,0,0.9,0.4,0.9,1.1v3.9l-3.8-5.2h-1.7v0.3c0.3,0,0.5,0.1,0.7,0.3
	l0.2,0.3v4.9c0,0.8-0.3,1.3-0.9,1.3v0.3h2.3v-0.3c-0.6,0-0.9-0.4-0.9-1V192l4.4,5.9h0.2V192c0-0.9,0.4-1.3,1-1.3v-0.3L1056.7,190.5"
	/>
<path id="path3041-2" class="st25" d="M992.1,191.7c-0.1-0.5,0.2-0.9,0.7-1c0.1,0,0.2,0,0.3,0v-0.3h-3v0.3c0.5-0.1,0.9,0.2,1,0.7
	c0,0.1,0,0.2,0,0.3v4.9c0.1,0.5-0.2,0.9-0.6,1c-0.1,0-0.2,0-0.4,0v0.3h2.9v-0.3c-0.5,0.1-0.9-0.2-1-0.6c0-0.1,0-0.2,0-0.4
	L992.1,191.7"/>
<path id="path3041-3" class="st25" d="M1041.6,191.7c-0.1-0.5,0.2-0.9,0.7-1c0.1,0,0.2,0,0.3,0v-0.3h-2.9v0.3c0.5-0.1,0.9,0.2,1,0.7
	c0,0.1,0,0.2,0,0.3v4.9c0.1,0.5-0.2,0.9-0.6,1c-0.1,0-0.2,0-0.4,0v0.3h2.9v-0.3c-0.5,0.1-0.9-0.2-1-0.6c0-0.1,0-0.2,0-0.4V191.7"/>
<path id="path3037-2" class="st25" d="M1065.7,195.9c-0.2,0.9-1,1.5-1.9,1.4h-1.2c-0.4,0-0.6-0.1-0.6-0.5v-2.6h1.6
	c0.6,0,0.9,0.3,1,1h0.2v-2.5h-0.3c0,0.7-0.4,1-1,1h-1.6v-2.4c0-0.3,0.2-0.3,0.4-0.3h1.4c0.9,0,1.2,0.4,1.4,1.2h0.2l-0.1-1.6h-5.3
	v0.3c0.6,0,0.9,0.3,0.9,0.9v4.9c0,0.7-0.3,1-0.9,1v0.3h5.4l0.5-1.9L1065.7,195.9"/>
<path id="path3033-2" class="st25" d="M1071.2,190.4l0.2,2.4h-0.3c-0.4-1.2-1-1.9-1.8-1.9c-0.5,0-1,0.3-1,0.9c0,0,0,0.1,0,0.1
	c0,0.6,0.5,1,1.1,1.4l1.2,0.8c0.6,0.4,1,1.1,1.1,1.9c0,1.1-0.8,2-1.9,2.1c0,0-0.1,0-0.1,0c-0.7,0-1.2-0.4-1.5-0.4
	c-0.2,0-0.3,0.2-0.3,0.4h-0.2l-0.3-2.4h0.3c0.4,1.2,1.1,2,2,2c0.6,0,1.2-0.5,1.2-1.1c0,0,0-0.1,0-0.1c0-0.6-0.3-1.1-0.8-1.3l-1.4-1
	c-0.6-0.4-0.9-1-0.9-1.8c-0.1-1,0.7-1.8,1.6-1.8c0.1,0,0.1,0,0.2,0c0.5,0,1,0.3,1.3,0.3c0.2,0,0.3-0.1,0.3-0.3c0,0,0,0,0,0
	L1071.2,190.4"/>
<path id="path3029-2" class="st25" d="M1086,190.5l0.1,1.9h-0.2c-0.2-1.2-0.5-1.4-2.1-1.4v5.6c-0.1,0.5,0.2,0.9,0.6,1
	c0.1,0,0.2,0,0.4,0v0.3h-2.9v-0.3c0.5,0.1,0.9-0.2,1-0.6c0-0.1,0-0.2,0-0.4V191c-1.6,0-1.9,0.2-2.1,1.4h-0.2l0.1-1.9L1086,190.5"/>
<path id="path3025-2" class="st25" d="M1076.2,197.6c-1.4,0-2.2-1.3-2.2-3.4s0.8-3.4,2.2-3.4s2.2,1.3,2.2,3.4
	S1077.6,197.6,1076.2,197.6z M1076.2,190.4c-1.8,0-3.3,1.5-3.3,3.8s1.5,3.8,3.3,3.8s3.3-1.5,3.3-3.8S1078.1,190.4,1076.2,190.4"/>
<g>
	<g id="text">
		<polygon points="1334,140 1334.7,140 1334.7,143.8 1334,143.8 1334,145.3 1337,145.3 1337,143.8 1336.2,143.8 1336.2,140 
			1337,140 1337,138.5 1334,138.5 		"/>
		<polygon points="1311.8,140 1313.7,140 1313.7,145.3 1315.3,145.3 1315.3,140 1317.2,140 1317.2,138.5 1311.8,138.5 		"/>
		<polygon points="1307.2,140 1307.9,140 1307.9,143.8 1307.2,143.8 1307.2,145.3 1310.2,145.3 1310.2,143.8 1309.4,143.8 
			1309.4,140 1310.2,140 1310.2,138.5 1307.2,138.5 		"/>
		<polygon points="1301.6,141.5 1299.9,138.5 1298.2,138.5 1298.2,145.3 1299.7,145.3 1299.7,141.2 1301.6,144.6 1303.4,141.2 
			1303.4,145.3 1304.9,145.3 1304.9,138.5 1303.3,138.5 		"/>
		<path d="M1321.4,141.2c-1-0.3-1.6-0.4-1.6-0.8c0-0.4,0.3-0.7,1-0.7c0.6,0,1.2,0.3,1.7,0.7l0.8-1.1c-0.7-0.5-1.6-0.8-2.5-0.8
			c-1.6,0-2.6,1-2.6,2.1c0,1.4,1.4,2,2.6,2.2c0.8,0.1,1.4,0.4,1.4,0.8c0,0.4-0.4,0.6-1.1,0.6s-1.6-0.4-2.2-0.9l-1,1.1
			c1,0.8,2.1,1.2,3.2,1.2c2.4,0,2.8-1.5,2.8-2C1323.9,142.1,1322.8,141.5,1321.4,141.2z"/>
		<path d="M1330.1,142.5c0,0.8-0.7,1.5-1.5,1.5s-1.5-0.7-1.5-1.5v-4h-1.5v4c0,1.7,1.3,3,3,3c1.7,0,3-1.3,3-3v-4h-1.5V142.5
			L1330.1,142.5z"/>
		<path d="M1344.9,141.5l-1.2,1.2l-2.2-2.2c-0.1-0.1-0.2-0.2-0.2-0.4c0-0.1,0-0.3,0.2-0.4c0.1-0.1,0.2-0.2,0.4-0.2
			c0.1,0,0.3,0,0.4,0.2c0.1,0.1,0.2,0.2,0.2,0.4v0.3h1.1v-0.3c0-0.5-0.2-0.9-0.5-1.2c-0.3-0.3-0.8-0.5-1.2-0.5
			c-0.4,0-0.9,0.2-1.2,0.5c-0.3,0.3-0.5,0.8-0.5,1.2c0,0.4,0.2,0.9,0.5,1.2l0.1,0.1l-0.4,0.4c-0.4,0.4-0.6,0.8-0.6,1.4
			s0.2,1,0.6,1.4c0.4,0.4,0.8,0.6,1.4,0.6s1-0.2,1.4-0.6l0.4-0.4l1.2,1.2l0.8-0.8l-1.2-1.2l1.2-1.2L1344.9,141.5z M1342.6,144
			c-0.1,0.1-0.4,0.3-0.6,0.3c-0.2,0-0.5-0.1-0.6-0.3c-0.1-0.1-0.3-0.4-0.3-0.6s0.1-0.5,0.3-0.6l0.4-0.4l1.2,1.2L1342.6,144z"/>
		<rect x="1362.6" y="143.8" width="1.5" height="1.5"/>
		<path d="M1358.3,138.3c-2,0-3.6,1.6-3.6,3.6s1.6,3.6,3.6,3.6s3.6-1.6,3.6-3.6C1361.9,139.9,1360.3,138.3,1358.3,138.3z
			 M1358.3,144c-1.1,0-2.1-0.9-2.1-2.1c0-1.1,0.9-2.1,2.1-2.1c1.1,0,2.1,0.9,2.1,2.1C1360.4,143.1,1359.5,144,1358.3,144z"/>
		<path d="M1351.5,139.8c0.6,0,1,0.2,1.3,0.5l1-1c-0.6-0.6-1.5-0.9-2.4-0.9c-1,0-1.9,0.4-2.5,1c-0.7,0.7-1,1.6-1,2.5
			c0,1,0.4,1.9,1,2.5c0.7,0.7,1.6,1,2.5,1s1.8-0.4,2.4-0.9l-1-1c-0.4,0.3-0.8,0.5-1.3,0.5c-0.6,0-1-0.2-1.5-0.7
			c-0.4-0.4-0.7-0.9-0.7-1.5s0.2-1,0.7-1.5C1350.5,140.1,1350.9,139.8,1351.5,139.8z"/>
	</g>
	<g id="symbol">
		<rect x="1320.6" y="94.6" width="18.9" height="4.8"/>
		<path d="M1358.5,88.5l-5.1,5l-20-20.1l5.1-5l-3.4-3.4l-5.1,5.1l-5-5.1l-3.4,3.4l5.1,5.1l-20.2,20.1l-4.9-5.1l-3.4,3.4l5.1,5.1
			l-5.1,5l3.4,3.4l5-5.1l20.1,20.1l-5.1,5.1l3.4,3.4l5.1-5.1l5.1,5.1l3.4-3.4l-5.1-5.1l20.1-20.1l5.1,5.1l3.4-3.4l-5.1-5.1l5.1-5.1
			L1358.5,88.5z M1339.5,107.6l-9.5,9.5l-9.4-9.5l-10.7-10.7l10.7-10.6l9.5-9.5l9.4,9.5l0,0l0,0l10.7,10.6L1339.5,107.6z"/>
		<rect x="1320.6" y="102.9" width="18.9" height="4.8"/>
		<polygon points="1339.5,91 1339.5,86.3 1339.5,86.3 1320.6,86.3 1320.6,91 		"/>
	</g>
</g>
</svg>
