<?xml version="1.0" encoding="utf-8"?>
<!-- Generator: Adobe Illustrator 22.0.1, SVG Export Plug-In . SVG Version: 6.00 Build 0)  -->
<svg version="1.1" id="Layer_1" xmlns="http://www.w3.org/2000/svg" xmlns:xlink="http://www.w3.org/1999/xlink" x="0px" y="0px"
	 viewBox="0 0 345.3 52.8" style="enable-background:new 0 0 345.3 52.8;" xml:space="preserve">
<style type="text/css">
	.st0{fill:#696E75;}
</style>
<g>
	<path class="st0" d="M314.2,31.3l5.1-17.4l0,0l5.1,17.4H314.2z M330.2,51.8h15.1L329.9,1.2h-21.1l-15.4,50.6h15.1l2.7-9.6h16.8
		L330.2,51.8z"/>
	<path class="st0" d="M64.9,26.4c0-2.9,0-4.5,0.2-5.7c0.4-8,3.5-8.8,9.6-8.8s9,1,9.6,8.8c0,1.4,0.2,2.9,0.2,5.7s0,4.5-0.2,5.7
		c-0.4,7.6-3.5,8.8-9.6,8.8s-9-1-9.6-8.8C64.9,30.9,64.9,29.3,64.9,26.4 M74.7,52.8c15.3,0,22.7-2.7,23.9-16.6
		c0.2-3.3,0.2-6.6,0.2-9.8s0-6.5-0.2-9.8C97.4,2.7,90.1,0,74.7,0C59.4,0,52,2.7,50.8,16.6c-0.2,3.3-0.2,6.6-0.2,9.8s0,6.5,0.2,9.8
		C51.8,50.1,59.2,52.8,74.7,52.8"/>
	<polygon class="st0" points="0,1.2 0,13.9 15.3,13.9 15.3,51.8 30.5,51.8 30.5,13.9 45.8,13.9 45.8,1.2 	"/>
	<rect x="218.6" y="1.2" class="st0" width="14.3" height="50.6"/>
	<polygon class="st0" points="175,19.7 175,1.2 160.7,1.2 160.7,51.8 175,51.8 175,32.5 191.8,32.5 191.8,51.8 206.1,51.8 
		206.1,1.2 191.8,1.2 191.8,19.7 	"/>
	<path class="st0" d="M260.1,12.9h10c2.7,0,4.1,1.4,4.1,4.1c0,2.7-1.6,4.1-4.1,4.1h-10V12.9z M260.1,31.1h10c3.9,0,4.9,1.8,4.9,4.7
		s-1.6,4.7-4.9,4.7h-10V31.1z M280.4,25.4c6.5-1.6,8.2-5.5,8.2-10.9c0-11.3-7-13.3-17-13.3h-25.8v50.6H273
		c12.5,0,16.8-5.3,16.8-13.7C289.6,32.5,288.4,27.4,280.4,25.4"/>
	<path class="st0" d="M107,35.4h13.7c0,2.3,0.4,4.1,1.6,5.1c1.4,1.2,2.7,1.4,6.6,1.4c3.9,0,8.2,0,8.2-4.9c0-3.7-2.3-4.7-6.8-4.9
		c-10.8-0.6-14.9-1-19-3.9c-2.7-2-4.1-5.9-4.1-11.5c0-9.2,3.3-12.3,7.6-14.5c4.9-2.2,23.7-2.2,28.5,0c6.5,2.9,6.6,9.2,6.6,15.1
		h-13.7c0-3.1-0.6-3.7-1.4-4.5c-1.4-1.4-3.5-1.6-6.5-1.6c-3.5,0-7.4,0.2-7.4,4.5c0,3.3,1.4,4.7,5.1,4.9c5.1,0.2,15.1,0.6,18.8,2.7
		c5.1,2.9,6.5,7,6.5,13.5c0,9.6-3.3,12.1-8.2,14.3c-5.5,2.3-23.7,2.3-29.5-0.2C107,48.1,107,42.2,107,35.4"/>
</g>
</svg>
