<?xml version="1.0" encoding="utf-8"?>
<!-- Generator: Adobe Illustrator 22.0.1, SVG Export Plug-In . SVG Version: 6.00 Build 0)  -->
<svg version="1.1" id="Layer_1" xmlns="http://www.w3.org/2000/svg" xmlns:xlink="http://www.w3.org/1999/xlink" x="0px" y="0px"
	 viewBox="0 0 111.3 111.3" style="enable-background:new 0 0 111.3 111.3;" xml:space="preserve">
<style type="text/css">
	.st0{fill:#696E75;}
</style>
<path class="st0" d="M55.6,111.3C25,111.3-0.1,86.6,0,55.5C0.1,24.8,24.9-0.1,55.8,0c30.6,0.1,55.5,24.8,55.5,55.7
	C111.3,86.7,86.2,111.4,55.6,111.3z M94.9,24.6c-1-2.2-7.5-8.1-11.9-11c-7.9-5.1-16.7-7.8-26.1-8c-17.6-0.4-32.5,8.8-40.4,19
	c1.4,0,2.8,0,4.1,0c1.4,0,2.8,0,4.1,0c1.4,0,2.7,0,4.1,0s2.7,0,4.1,0c1.4,0,2.7,0,4.1,0c1.4,0,2.8,0,4.1,0c1.4,0,2.7,0,4.1,0
	c1.4,0,2.7,0,4.1,0c1.4,0,2.8,0,4.1,0c1.4,0,2.7,0,4.1,0c-0.1,0.5-7.2,18.2-11,27.6c-3.7,9.1-7.4,18.3-11.1,27.6c0.4,0,0.6,0,0.9,0
	c20.8,0,41.7,0,62.5,0c0.1,0,0.3,0,0.4,0c0.2-0.1,0.4-0.1,0.5-0.2c0.4-0.6,0.8-1.1,1.1-1.7c0.9-1.8,1.7-3.7,2.4-5.7
	c1.2-3.5,2.1-7.1,2.4-10.9c0.1-1.4,0.3-2.8,0.3-4.2c0.1-2,0-4-0.2-6c-0.2-1.5-0.3-3-0.6-4.5c-0.6-3.1-1.4-6.2-2.6-9.2
	c-0.7-1.9-1.6-3.7-2.5-5.5c-0.2-0.3-0.4-0.4-0.7-0.4c-0.3,0-0.6,0-0.9,0c-7.8,0-15.6,0-23.4,0c-0.7,0-0.7,0-0.7,0.7
	c0,5.2,0,10.4,0,15.7c0,0.7,0,0.7,0.7,0.7c0.1,0,0.2,0,0.3,0c3.9,0,7.9,0,11.8,0c0.2,0,0.5,0,0.8,0c0,0.3,0,0.5,0,0.7
	c0,1.8,0,3.5,0,5.3c0,0.9,0.1,0.9-0.9,0.9c-4,0-8,0-11.9,0c-0.1,0-0.3,0-0.4,0c-0.2,0-0.3,0.1-0.3,0.3c0,0.1,0,0.3,0,0.4
	c0,2.1,0,4.3,0,6.4c0,3.8,0,7.7,0,11.5c0,0.2,0,0.5-0.1,0.7c-0.3,0-0.5,0-0.8,0c-4.5,0-8.9,0-13.4,0c-1,0-0.9,0.1-0.9-0.9
	c0-7,0-14,0-21c0-9.2,0-18.4,0-27.5c0-0.3,0-0.5,0-0.9C71.2,24.6,83,24.6,94.9,24.6z M38.6,31.6c-0.3,0-0.4,0-0.6,0
	c-0.5,0-1.1,0-1.6,0c-7.9,0-15.9,0-23.8,0c-0.5,0-0.8,0.2-1,0.6c-0.5,1.1-1,2.1-1.5,3.1c-2.5,5.6-3.9,11.5-4.3,17.6
	c-0.1,2.6-0.1,5.2,0.2,7.7c0.2,2.2,0.6,4.3,1.1,6.5c1.7,7,4.7,13.4,9.1,19.1c0.1,0.1,0.1,0.2,0.3,0.3C23.8,68.2,31.2,50,38.6,31.6z
	 M16.6,86.8c20.8,26.4,60.1,24.2,78.5,0C69,86.8,42.8,86.8,16.6,86.8z"/>
</svg>
