<?xml version="1.0" encoding="utf-8"?>
<!-- Generator: Adobe Illustrator 22.0.1, SVG Export Plug-In . SVG Version: 6.00 Build 0)  -->
<svg version="1.1" id="Layer_1" xmlns="http://www.w3.org/2000/svg" xmlns:xlink="http://www.w3.org/1999/xlink" x="0px" y="0px"
	 viewBox="0 0 202 20.8" style="enable-background:new 0 0 202 20.8;" xml:space="preserve">
<style type="text/css">
	.st0{fill:#696E75;}
</style>
<g>
	<path class="st0" d="M57.2,0.4l-9.2,16H0l9.3-16h19.9l-8.1,14h8l8.1-14C37.2,0.4,57.2,0.4,57.2,0.4z M59.9,16.3h20l2.9-4.9h8
		l-2.9,4.9h20l9.2-16h-48L59.9,16.3z M92,9.4h-8l4-7h8L92,9.4z M119.6,16.2h20.1l2.8-4.9h28l6.3-11h-47.9L119.6,16.2z M143.8,9.2
		l4-7h8l-4.1,7H143.8z M158.7,16.1h0.3l1.3-3.6H160L158.7,16.1z M159.8,16.1h0.3l1.1-3l1,3h0.4l1.3-3.6h-0.3l-1.1,3.1l-1-3.1h-0.4
		L159.8,16.1z M167.1,12.7c-0.2-0.2-0.5-0.3-0.9-0.3c-0.6,0-1.1,0.2-1.5,0.6s-0.7,0.8-0.9,1.3s-0.2,0.9-0.1,1.3
		c0.1,0.4,0.5,0.6,1.1,0.6c0.4,0,0.8-0.1,1.2-0.4c0.4-0.3,0.7-0.6,0.9-1.1h-0.3c-0.1,0.3-0.4,0.6-0.7,0.8s-0.6,0.3-0.9,0.3
		c-0.5,0-0.8-0.2-0.9-0.5c-0.1-0.3-0.1-0.7,0.1-1.1c0.1-0.4,0.4-0.8,0.7-1.1s0.7-0.5,1.2-0.5c0.3,0,0.5,0.1,0.6,0.2
		c0.1,0.1,0.2,0.4,0.2,0.7h0.3C167.4,13.2,167.4,12.9,167.1,12.7z M167.6,16.1l0.2-0.5h-0.4l-0.2,0.5H167.6z M181.6,13.5
		c-0.3-1-0.4-2-0.4-3c0-0.5,0-0.9,0.1-1.4c0.1-0.4,0.2-0.9,0.3-1.3h8.3c-0.1,0.2-0.2,0.4-0.3,0.8h-6c0,0.1,0,0.2-0.1,0.2
		s0,0.1,0,0.3h5.8c-0.1,0.2-0.2,0.5-0.4,0.8c-1.1,0-2,0-2.7,0s-1.3,0-1.9,0c-0.6,0-0.9,0-1,0c0,0.1,0,0.2,0,0.3s0,0.2,0,0.3
		c0,0.6,0.1,1.1,0.2,1.7c0.1,0.5,0.3,1.1,0.5,1.5c0.8-0.1,1.7-0.3,2.6-0.7c1-0.4,1.8-0.9,2.4-1.6c0.6-0.7,1-1.5,1.4-2.3
		s0.5-1.3,0.6-1.3h10.8c0.1,0.4,0.2,0.9,0.3,1.3c0,0.4,0.1,0.9,0.1,1.4c0,0.8-0.1,1.7-0.3,2.5s-0.5,1.6-0.8,2.3
		c-0.1-0.1-0.3-0.3-0.6-0.6s-0.6-0.6-1-0.9c0.2-0.5,0.4-1,0.5-1.6c0.1-0.5,0.2-1.1,0.2-1.7c0-0.1,0-0.2,0-0.3s0-0.2,0-0.3H194
		l-0.4,1.1c1,0.6,1.9,1.2,2.7,1.8c0.9,0.6,1.6,1.2,2.2,1.7c0.6,0.5,1.1,1,1.5,1.3c0.4,0.4,0.6,0.6,0.6,0.6c-0.5,0.7-1,1.3-1.6,1.9
		s-1.3,1.1-2,1.5s-1.5,0.7-2.4,0.9S192.9,21,192,21c-0.8,0-1.6-0.1-2.3-0.3c-0.8-0.2-1.5-0.4-2.1-0.7c-0.7-0.3-1.3-0.7-1.9-1.2
		s-1.1-1-1.6-1.5c0.5-0.1,0.9-0.2,1.2-0.2c0.3-0.1,0.7-0.1,1.2-0.3c0.7,0.7,1.6,1.2,2.5,1.5c0.9,0.4,1.9,0.6,3,0.6s2.1-0.2,3.1-0.6
		s1.8-0.9,2.6-1.6c-0.7-0.6-1.4-1.1-2-1.5c-0.7-0.4-1.3-0.7-1.8-1s-1.1-0.5-1.8-0.7c-0.9,0.5-1.8,0.9-2.6,1.2s-1.7,0.6-2.7,0.9
		c-1,0.3-2.1,0.5-3.2,0.6h-0.1C182.3,15.3,181.9,14.4,181.6,13.5z M183.4,4c0.6-0.8,1.4-1.5,2.2-2.1s1.8-1.1,2.8-1.4
		s2.1-0.5,3.2-0.5s2.2,0.2,3.2,0.5s1.9,0.8,2.8,1.4c0.8,0.6,1.6,1.3,2.2,2.1c0.6,0.8,1.2,1.7,1.5,2.7H199c-0.3-0.7-0.8-1.3-1.3-1.9
		s-1.1-1-1.7-1.5s-1.3-0.7-2.1-1S192.4,2,191.6,2s-1.6,0.1-2.3,0.3s-1.5,0.5-2.1,0.9s-1.2,0.9-1.7,1.5s-0.9,1.2-1.3,1.9h-2.3
		C182.2,5.7,182.7,4.8,183.4,4z M184.4,10.7h3.9c-0.2,0.2-0.6,0.6-1.1,0.9c-0.5,0.4-1.4,0.6-2.5,0.8
		C184.4,11.7,184.3,11.2,184.4,10.7z M186.9,4.9c0.5-0.5,1.2-0.9,2.1-1.2c0.9-0.4,1.9-0.5,3.1-0.5c0.1,0-0.3,0.2-1.2,0.7
		c-0.8,0.5-1,1.4-0.5,2.9h-5C185.8,5.9,186.3,5.3,186.9,4.9z M195.4,16.6c-0.3,0.3-0.8,0.5-1.4,0.7s-1.2,0.4-2,0.4
		c-0.7,0-1.5,0-2.3-0.2s-1.7-0.6-2.5-1.2c-0.1,0,0.4-0.1,1.3-0.4s1.9-0.7,3.1-1.3c0.1,0,0.6,0.2,1.5,0.6
		C194,15.5,194.8,16,195.4,16.6z M191.1,5.6c0-0.4,0.2-0.8,0.5-1.1c0.3-0.3,0.7-0.5,1.2-0.5c0.4,0,0.8,0.2,1.1,0.5s0.5,0.7,0.5,1.1
		s-0.2,0.8-0.5,1.1c-0.3,0.3-0.7,0.5-1.1,0.5c-0.5,0-0.9-0.2-1.2-0.5C191.2,6.4,191.1,6,191.1,5.6z M194.3,3.6
		c-0.1,0,0.1,0.2,0.6,0.7s0.5,1.3,0.1,2.4h2.9c-0.1-0.1-0.5-0.6-1-1.3C196.4,4.7,195.5,4.1,194.3,3.6z M198.9,10.7
		c0,0,0,0.3-0.1,0.9c-0.1,0.6-0.2,1.1-0.5,1.5c-1.5-1.1-2.6-1.9-3.3-2.4C195,10.7,198.9,10.7,198.9,10.7z"/>
</g>
</svg>
