<?xml version="1.0" encoding="utf-8"?>
<!-- Generator: Adobe Illustrator 22.0.1, SVG Export Plug-In . SVG Version: 6.00 Build 0)  -->
<svg version="1.1" id="Layer_1" xmlns="http://www.w3.org/2000/svg" xmlns:xlink="http://www.w3.org/1999/xlink" x="0px" y="0px"
	 viewBox="0 0 545.5 273.2" style="enable-background:new 0 0 545.5 273.2;" xml:space="preserve">
<style type="text/css">
	.st0{fill:#FFFFFF;}
</style>
<title>logos-customers-m</title>
<g>
	<path class="st0" d="M47.3,43.2c-9.2,11.4-25.9,13.2-37.3,4S-3.2,21.3,6,9.9C10.9,3.7,18.5,0,26.5,0c8.1,0,15.8,3.7,20.8,10.1
		l-0.8,0.5C37.6,1.3,22.9,1,13.6,9.9S4,33.4,12.9,42.7s23.6,9.6,32.9,0.7c0.3-0.2,0.5-0.5,0.7-0.7L47.3,43.2L47.3,43.2z"/>
	<path class="st0" d="M55.3,13.8c-8.4,0-13.1,5.6-13.1,12.8s4.7,12.6,13,12.6c6.8,0.4,12.5-4.8,12.9-11.6c0-0.3,0-0.7,0-1
		c0.3-6.8-5-12.5-11.8-12.8C56,13.8,55.6,13.8,55.3,13.8z M55.3,34.6c-4.3,0.1-7.8-3.3-7.9-7.5c0-0.1,0-0.2,0-0.4
		c-0.2-4.3,3.1-7.9,7.4-8.1s7.9,3.1,8.1,7.4c0,0.2,0,0.5,0,0.7C62.8,31,59.5,34.5,55.3,34.6L55.3,34.6z M128.1,31.3
		c-1.4,2.2-3.9,3.4-6.5,3.2c-4.2,0.1-7.8-3.2-7.9-7.4c0-0.2,0-0.3,0-0.5c-0.2-4.4,3.2-8,7.6-8.2c2.7-0.1,5.2,1.2,6.8,3.4l3.9-2.5
		c-2.2-3.6-6.2-5.7-10.5-5.5c-7.9,0-13.2,5.2-13.2,12.8s5.2,12.6,13.2,12.6c4.2,0.2,8.2-1.9,10.4-5.5L128.1,31.3z M36.7,31.6
		c-2.8,3.7-8.1,4.5-11.8,1.7c-2.1-1.6-3.4-4.1-3.4-6.7c-0.2-4.5,3.2-8.3,7.7-8.5h0.5c2.7,0,5.3,1.3,6.9,3.5l4-2.6
		c-0.3-0.5-3.2-5.8-11-5.8c-8.2,0-13.6,5.5-13.6,13.4c0,7.7,5.4,13.3,13.7,13.3c4.5,0.3,8.7-1.9,11-5.8L36.7,31.6L36.7,31.6z
		 M192.1,14.4l0.3-6.8l-5.4,2.6l-0.1,4.2H183v4h3.9v13.7c0,5,2.9,7.2,6.5,7.2c1.2,0,2.5-0.1,3.6-0.5l0.6-4.2
		c-0.7,0.3-1.5,0.4-2.4,0.4c-2.1,0-3.3-0.8-3.3-3.2V18.4h5.1v-4H192.1z M154.5,14.4c0,0-0.1,2.4-0.1,2.8l0,0
		c-2.1-2.1-4.9-3.3-7.9-3.3c-6.7-0.3-12.5,4.8-12.8,11.6c0,0.4,0,0.8,0,1.2c-0.3,6.7,5,12.4,11.7,12.6c0.4,0,0.8,0,1.1,0
		c3,0.1,5.8-1.1,7.9-3.3l0,0l0.1,2.8h5.2V14.4H154.5z M147,34.6c-4.3,0.2-7.9-3.1-8.1-7.3c0-0.2,0-0.4,0-0.6c0-4.5,3.6-8.1,8.1-8.1
		s8.1,3.6,8.1,8.1l0,0c0.1,4.3-3.3,7.8-7.5,7.9l0,0H147L147,34.6z M100,38.8V23.5c0-3.3-1.7-5.1-4.6-5.1s-4.6,2-4.6,5.1v15.3h-5.2
		V23.5c0-3.3-1.7-5.1-4.4-5.1c-3,0-4.6,2-4.6,5.1v15.3h-5.2V14.4h5v2.4h0.1c1.5-1.9,3.7-2.9,6.1-2.9c2.6-0.1,5.1,1.2,6.3,3.5
		c1.7-2.3,4.4-3.6,7.3-3.5c5.6,0,8.9,3.5,8.9,8.5v16.4H100z M174.7,24.3c4.2,1.5,6.8,3.7,6.8,7.3c0,5.1-4.3,7.7-10,7.7
		c-3.1,0.1-6.2-0.6-8.9-2.2l2.1-3.9c2.2,1.2,4.6,1.8,7,1.8c2.6,0,4.6-1.2,4.6-2.9c0-1.4-1-2.5-3.6-3.4l-2.9-0.9c-3.3-1-6-3.3-6-7
		c0-4.2,3.8-6.9,9-6.9c2.8-0.1,5.5,0.6,7.9,2.1l-2,3.8c-1.8-1-3.9-1.6-6-1.6c-2.6,0-3.6,1.2-3.6,2.4s0.9,2.1,3.2,3L174.7,24.3
		L174.7,24.3z M202.3,36.8c1.4,0,2.5,1.1,2.5,2.5s-1.1,2.5-2.5,2.5s-2.5-1.1-2.5-2.5l0,0C199.8,38,200.9,36.9,202.3,36.8L202.3,36.8
		z M202.3,37.2c1.2,0,2.1,0.9,2.1,2.1s-0.9,2.1-2.1,2.1c-1.2,0-2.1-0.9-2.1-2.1l0,0C200.2,38.2,201.1,37.2,202.3,37.2L202.3,37.2z
		 M203.5,40.8h-0.6l-0.4-1.2h-0.7v1.2h-0.5v-2.9h1.2c0.3,0,0.5,0.1,0.8,0.2c0.2,0.2,0.2,0.4,0.2,0.6c0,0.3-0.2,0.7-0.5,0.8
		L203.5,40.8L203.5,40.8z M201.8,39.2h0.6c0.1,0,0.3,0,0.4-0.1c0.1-0.1,0.1-0.2,0.1-0.3s0-0.2-0.1-0.3s-0.2-0.1-0.4-0.1h-0.7
		C201.8,38.3,201.8,39.2,201.8,39.2z"/>
</g>
<g>
	<path class="st0" d="M402.2,122.3c2.2,0,4,1.9,4,4.1l0,0v0.1H398c-0.1-2.3,1.7-4.2,4-4.3h0.2V122.3z M410.9,135.2
		c-0.9,0.3-1.8,0.5-2.7,0.7c-1.1,0.2-2.2,0.3-3.3,0.3c-3.6,0-6.4-1.2-6.9-4h15.4c0.2-1.1,0.3-2.2,0.3-3.3c0-6.5-3.2-12.4-11.4-12.4
		c-8,0-12.2,6.3-12.2,13.3c0,8.1,5.6,12.7,13.5,12.7c1.6,0,3.1-0.1,4.7-0.4c1.3-0.3,2.6-0.7,3.8-1.2L410.9,135.2z"/>
	<path class="st0" d="M521.2,122.3c2.2,0,4,1.9,4,4.1l0,0v0.1H517c-0.1-2.3,1.7-4.2,4-4.3h0.2V122.3z M529.9,135.2
		c-0.9,0.3-1.8,0.5-2.7,0.7c-1.1,0.2-2.2,0.3-3.3,0.3c-3.6,0-6.4-1.2-6.9-4h15.3c0.2-1.1,0.3-2.2,0.3-3.3c0-6.5-3.2-12.4-11.4-12.4
		c-8,0-12.2,6.3-12.2,13.3c0,8.1,5.6,12.7,13.5,12.7c1.6,0,3.1-0.1,4.7-0.4c1.3-0.3,2.6-0.7,3.8-1.2L529.9,135.2z"/>
	<path class="st0" d="M417.5,108.3V142h8.3v-33.7H417.5z"/>
	<path class="st0" d="M442.5,136.3c-2.7,0-4.4-2.7-4.4-6.8c0-3.3,1.2-6.8,4.5-6.8s4.3,3.6,4.3,6.8
		C446.9,133.7,445.1,136.3,442.5,136.3z M442.4,142.5c6.5,0,13-4.1,13-13.2c0-5.4-3.2-12.7-12.6-12.7c-9.7,0-13.3,7.1-13.3,13.1
		c-0.3,6.7,4.9,12.5,11.6,12.8C441.5,142.5,441.9,142.5,442.4,142.5L442.4,142.5z"/>
	<path class="st0" d="M459.1,117.1V142h8.3v-24.9H459.1z"/>
	<path class="st0" d="M459.1,108.3v6.4h8.3v-6.4H459.1z"/>
	<path class="st0" d="M474,110.4v6.8h-3.2v6.2h3.2v10.2c0,5.6,2.5,9,8.4,9c1.2,0,2.3-0.1,3.5-0.3c0.8-0.1,1.6-0.3,2.4-0.5v-6.5
		c-0.9,0.2-1.9,0.3-2.8,0.4s-1.7-0.2-2.4-0.8c-0.6-0.8-1-1.7-0.9-2.7v-8.8h5.4v-6.1h-5.5v-7.7L474,110.4z"/>
	<path class="st0" d="M493.2,110.4v6.8H490v6.2h3.2v10.2c0,5.6,2.5,9,8.4,9c1.2,0,2.3-0.1,3.5-0.3c0.8-0.1,1.6-0.3,2.4-0.5v-6.5
		c-0.9,0.2-1.9,0.3-2.8,0.4s-1.7-0.2-2.4-0.8c-0.6-0.8-1-1.7-0.9-2.7v-8.8h5.4v-6.1h-5.4v-7.7L493.2,110.4z"/>
	<circle class="st0" cx="540.9" cy="137.9" r="4.6"/>
	<path class="st0" d="M357.9,142h11.4c12.9-0.7,18.2-8.3,18.2-17.1c0-11-7.4-17.2-20.2-17.2c-3.3,0-6.2,0.1-9.4,0.4V142z
		 M369.9,135.3h-3.8v-20.7c0.9-0.1,2.1-0.1,2.9-0.1c4.8,0,10,3.1,10,10.3C379,132.4,374.1,135,369.9,135.3L369.9,135.3z"/>
</g>
<g>
	<path class="st0" d="M305.8,24.4l-2.3-2.1l-2.2,2.1l-12.6-12.6l1.9-2l-2.1-2.3l-2,2l-1.9-2l-2.3,2.3l2,2l-12.8,12.6l-2.1-2.1
		l-2.1,2.1l2.1,2.1l-2.1,2.3l2.1,2.2l2.1-2.2l12.8,12.5l-2,2l2.3,2.2l1.9-1.9l2,1.9l2.1-2.2l-1.9-2l12.6-12.6l2.1,2.2l2.3-2.2
		l-2.1-2.3L305.8,24.4L305.8,24.4z M286.4,39.3l-12.6-12.8L286.4,14l12.8,12.6L286.4,39.3z M280.5,33.3h11.8v-3.2h-11.7L280.5,33.3
		L280.5,33.3z M280.5,28.2h11.8v-3h-11.7L280.5,28.2z M280.5,22.9h11.8V20h-11.7L280.5,22.9z"/>
	<path class="st0" d="M347,33.2h4.7V19.8H347V33.2z M338.4,19.8l-4,6.9v-6.9h-6.7l-8.6,13.5h5.3l5.3-9.2v9.2h5.7l5.5-9v9h4.3V19.8
		H338.4z M369.7,19.8h-16.3v4h5.9v9.5h4.6v-9.5h5.9L369.7,19.8L369.7,19.8z"/>
	<path class="st0" d="M408.9,33.2h4.6V19.8H409L408.9,33.2z M402.6,19.8V28c0,0.9-0.3,1.3-1.1,1.3h-5.9c-0.9,0-1.1-0.4-1.1-1.3v-8.2
		h-4.6v8.6c0,3.8,1.7,4.9,4.6,4.9h8.2c2.9,0,4.6-1,4.6-4.9v-8.6H402.6z M375,19.8c-2.7,0-4,1.3-4,3.6V25c0,1.4,1,3.2,3.8,3.2h7
		c0.7-0.1,1.3,0.4,1.4,1.1c0,0.6-0.4,1-1.3,1h-5.1c-0.9,0-1.3-0.2-1.4-1.4h-4.5c0,2.3,0,4.7,4.2,4.7h9c1.9,0.1,3.5-1.4,3.6-3.2
		c0-0.2,0-0.4,0-0.6v-1.6c0.2-1.8-1.2-3.4-3-3.6c-0.2,0-0.4,0-0.6,0h-7.6c-0.7,0-1.1-0.4-1.1-0.9s0.6-0.9,1.7-0.9h10.5v-3.3
		L375,19.8z"/>
	<path class="st0" d="M520.1,19.8h-16.3v4h5.9v9.5h4.6v-9.5h5.9L520.1,19.8z M499.8,29.5v-9.8h-4.6v13.5h13.5v-3.8L499.8,29.5z
		 M536,19.8h-14v13.5h14.2c2.1,0,3.8-1.7,3.8-3.8c0-0.1,0-0.1,0-0.2v-5.9c-0.1-2-1.8-3.6-3.8-3.6H536z M535.3,28.5
		c0,1-0.4,1.3-1.3,1.3h-7.6v-6.4h7.5c0.7,0,1.4,0.5,1.4,1.3c0,0.1,0,0.1,0,0.2L535.3,28.5L535.3,28.5z M541.2,33.2h4.3v-3.8h-4.3
		V33.2L541.2,33.2z"/>
	<path class="st0" d="M478.3,33.2h4.2v-3.8h-4.2V33.2z M488.5,33.2v-3.8h-4.6v7.5C483.9,36.9,488.5,37.2,488.5,33.2L488.5,33.2z
		 M473,19.8h-10.9c-2-0.1-3.7,1.4-3.8,3.4l0,0c0,0.1,0,0.3,0,0.4v6c-0.1,1.9,1.4,3.5,3.4,3.6l0,0H473c1.9,0.2,3.6-1.1,3.8-3
		c0-0.2,0-0.4,0-0.6v-6c0.1-2-1.4-3.7-3.4-3.8l0,0L473,19.8z M472.3,28.6c0,0.5-0.4,0.8-0.9,0.9h-7.7c-0.5,0-0.8-0.4-0.9-0.9v-4.2
		c-0.1-0.6,0.3-1.2,1-1.3c0.1,0,0.2,0,0.3,0h6.9c0.6-0.1,1.2,0.3,1.3,1c0,0.1,0,0.2,0,0.3L472.3,28.6L472.3,28.6z M451.8,27.9v0.5
		c0,0.5-0.3,0.8-0.8,0.9l0,0h-6.5c-0.5,0-0.9-0.4-1-0.9v-4c0-1,0.4-1.3,1.3-1.3h11.6v-3.3h-13.5c-2.1-0.1-3.9,1.5-4,3.6
		c0,0.1,0,0.3,0,0.4v5.7c-0.1,2,1.4,3.7,3.4,3.8c0.2,0,0.4,0,0.6,0h9.6c2,0.1,3.7-1.4,3.8-3.3c0-0.2,0-0.3,0-0.5V28L451.8,27.9z
		 M434.7,30.8l-2.6-1.3v-2.3h-3.4v0.4l-0.1,0.2l-4.9-2.4c-0.3-0.1-0.3-0.3-0.3-0.4s0.3-0.3,0.4-0.3h2.9c0.6-0.1,1.2,0.4,1.3,1h3.5
		v-1c-0.1-1.6-1.4-2.8-2.9-2.8l0,0h-0.3h-5.6c-1.5-0.2-2.8,0.9-3,2.4c0,0.2,0,0.4,0,0.6c-0.1,0.6,0.2,1.2,0.6,1.6
		c-1,0.4-1.6,1.4-1.7,2.4v1.4c-0.1,1.5,0.9,2.7,2.4,2.9c0.2,0,0.4,0,0.6,0h8c0.8,0,1.6-0.3,2.3-0.9l1.9,0.9L434.7,30.8L434.7,30.8z
		 M422.1,29.4c0-0.6,0.1-1,0.9-1h1l3.8,2h-4.9C422.3,30.4,422.1,29.8,422.1,29.4L422.1,29.4z"/>
</g>
<g>
	<rect x="101.5" y="113.5" class="st0" width="3" height="20.2"/>
	<path class="st0" d="M69.2,116.1c-4.2-0.1-7.7,3.2-7.8,7.4c-0.1,4.2,3.2,7.7,7.4,7.8c4.2,0.1,7.7-3.2,7.8-7.4c0-0.1,0-0.1,0-0.2
		c0.1-4.1-3.1-7.5-7.1-7.6l0,0C69.5,116.1,69.2,116.1,69.2,116.1z M69.3,113.3c5.7,0.1,10.2,4.7,10.1,10.4
		c-0.1,5.6-4.7,10.2-10.3,10.1c-5.6-0.1-10.2-4.7-10.1-10.3c0.1-5.6,4.6-10.1,10.1-10.1L69.3,113.3L69.3,113.3z"/>
	<path class="st0" d="M7,115.8c-1.7-0.1-3.1,1.1-3.2,2.8c0,0.1,0,0.3,0,0.4c0.1,0.8,0.5,1.5,1.2,1.9c0.4,0.2,0.8,0.4,1.2,0.5l2,0.7
		c1.3,0.4,2.5,0.9,3.6,1.7c1.1,1,1.7,2.4,1.7,3.8c0,3.5-2.9,6.4-6.4,6.4H6.8c-3.6,0.2-6.6-2.6-6.8-6.2v-0.1h2.9
		c0.1,2.1,1.8,3.7,3.9,3.7l0,0l0,0c1.9,0.2,3.6-1.3,3.8-3.2c0,0,0-0.1,0-0.2c0-1.1-0.6-2.2-1.6-2.6c-0.4-0.2-0.8-0.4-1.2-0.5
		l-1.6-0.5c-1.1-0.3-2.1-0.7-3.1-1.2c-1.5-0.8-2.4-2.4-2.4-4.1c0-3.2,2.6-5.9,5.8-5.9l0,0h0.4c3.1,0,5.7,2.4,6,5.5h-2.8
		C10.1,117,8.7,115.8,7,115.8z"/>
	<path class="st0" d="M86.5,113.5H96v2.7h-8.5v6.6H96v2.7h-8.5v8.2h-3v-18.2c-0.1-1,0.7-1.9,1.8-2l0,0H86.5z"/>
	<path class="st0" d="M41.4,118.2v15.5h-3v-18.3c0-1.1,0.9-2.1,2-2.1l0,0c0.7,0,1.4,0.4,1.8,1c2.9,4.8,8.3,13.7,8.9,14.7v-15.5h3
		v18.4c0,1.1-0.9,2.1-2,2.1l0,0c-0.7,0-1.4-0.4-1.8-1C47.4,128.2,42,119.2,41.4,118.2z"/>
	<path class="st0" d="M25.1,117.3l-3,8.2h6L25.1,117.3z M21.1,128.1l-2.1,5.7h-3l7.2-19.2c0.4-1,1.5-1.6,2.6-1.2
		c0.6,0.2,1,0.6,1.2,1.2l7.3,19.2h-3l-2.1-5.7L21.1,128.1z"/>
	<path class="st0" d="M274,119.9c-5.6-8.2-11.9-1-18.2-1.9s-6.5-9.5,1.2-10.2h0.6C265.1,107.9,271.7,112.8,274,119.9z"/>
	<path class="st0" d="M274.2,120.4c2.6,9.2-2.7,18.9-12,21.5c-5.5,1.6-11.5,0.3-15.9-3.3c1.2,0.5,2.5,0.7,3.8,0.7
		C265.8,139.3,259.2,118.4,274.2,120.4z"/>
	<path class="st0" d="M251.1,137.1c-2.2,1.3-5.7,0.9-8-2.4c-0.5-0.7-1-1.4-1.4-2.2c-1.1-2.3-1.7-4.8-1.7-7.4c0-0.7,0-1.4,0.1-2.1
		c3.8,5.1,8.1,5,10.9,6.6c2,1.3,2.7,3.9,1.4,6C252.1,136.3,251.6,136.8,251.1,137.1L251.1,137.1z"/>
	<path class="st0" d="M129.7,116.7c-0.2-0.7-0.6-1.4-1.1-1.9c-0.6-0.6-1.3-1.1-2.1-1.3c-1-0.3-2.1-0.5-3.2-0.5H116v20.9h2.7V125h3.6
		c0.9,0,1.8-0.1,2.7-0.3c0.9-0.2,1.7-0.5,2.5-0.9c0.8-0.5,1.4-1.1,1.9-1.9c0.5-0.9,0.7-2,0.7-3C130,118.2,129.9,117.4,129.7,116.7z
		 M127,120.7c-0.2,0.4-0.5,0.8-0.9,1.1c-0.5,0.3-1,0.5-1.5,0.6c-0.7,0.1-1.5,0.2-2.2,0.2h-3.7v-7.1h4.2c1.2-0.1,2.4,0.2,3.4,0.9
		c0.7,0.6,1.1,1.6,1,2.5C127.3,119.5,127.2,120.1,127,120.7L127,120.7z"/>
	<polygon class="st0" points="164,115.4 170,115.4 170,133.8 172.7,133.8 172.7,115.4 178.7,115.4 178.7,112.9 164,112.9 	"/>
	<path class="st0" d="M194.1,131.3v2.5h-13.8v-19.1c0-1,0.9-1.9,1.9-1.9h11.7v2.5h-10.8v6.3h9.8v2.5h-9.8v7.1L194.1,131.3z"/>
	<path class="st0" d="M209.3,125.3c0,1-0.1,2-0.3,3c-0.1,0.7-0.4,1.4-0.9,2c-0.4,0.5-0.9,0.9-1.5,1.2c-0.8,0.3-1.6,0.4-2.4,0.4
		c-1.4,0.1-2.8-0.4-3.8-1.5c-0.9-1.5-1.4-3.3-1.2-5.1v-12.4h-2.7v12.9c-0.1,2.2,0.5,4.5,1.9,6.2c1.5,1.6,3.7,2.4,5.9,2.3
		c2.2,0.2,4.3-0.7,5.8-2.2c1.4-1.8,2.1-4,1.9-6.3v-12.9h-2.7V125.3z"/>
	<path class="st0" d="M220.5,113.2h2.1c1,0,2,0.1,2.9,0.2c1.3,0.3,2.5,0.9,3.3,1.9c0.9,0.9,1.3,2.2,1.3,3.5c0,1.1-0.3,2.1-0.9,3
		c-0.6,0.9-1.5,1.5-2.6,1.9s-2.3,0.6-3.5,0.7h-0.4l0.2,0.3l7.7,9h-3.4l-7.8-9.1v-2.7h2.6c1.1,0,2.1-0.1,3.2-0.4
		c0.6-0.2,1.1-0.6,1.5-1.1s0.6-1.1,0.6-1.7s-0.2-1.2-0.6-1.7c-0.4-0.5-0.9-0.9-1.4-1.1c-0.9-0.3-1.8-0.4-2.7-0.3h-4v18h-2.7V115
		c0-1,0.9-1.9,1.9-1.9L220.5,113.2z"/>
	<path class="st0" d="M141.2,114.3c-0.3-1-1.5-1.6-2.5-1.3c-0.6,0.2-1.1,0.7-1.3,1.3l-7.2,19.2h3.1l2.1-5.7h7.9l2.1,5.7h3.1
		L141.2,114.3z M136.3,125.2l3-8.2l3,8.2H136.3z"/>
	<path class="st0" d="M155.9,115.6c-1.7-0.1-3.1,1.1-3.2,2.8c0,0.1,0,0.3,0,0.4c0.1,0.8,0.6,1.4,1.3,1.8c0.4,0.2,0.8,0.4,1.2,0.5
		l2,0.7c1.3,0.4,2.5,1,3.6,1.8c1.1,1,1.7,2.4,1.7,3.8c0,3.5-2.9,6.4-6.4,6.4h-0.3c-3.6,0.2-6.6-2.6-6.8-6.2l0,0v-0.1h2.8
		c0.1,2.1,1.8,3.7,3.9,3.7l0,0l0,0c1.9,0.2,3.6-1.3,3.8-3.2c0,0,0-0.1,0-0.2c0-1.1-0.6-2.2-1.6-2.6c-0.4-0.2-0.8-0.4-1.2-0.5
		l-1.6-0.5c-1.1-0.3-2.1-0.7-3.1-1.2c-1.5-0.8-2.4-2.4-2.4-4.1c0-3.2,2.6-5.9,5.8-5.9l0,0h0.5c3.1,0,5.7,2.4,6,5.5H159
		C158.9,116.8,157.6,115.6,155.9,115.6z"/>
</g>
<g>
	<path class="st0" d="M525.7,244.5c0-1.3,0.7-1.5,1.9-0.8l4.6,2.6c0-0.7,0.7-1.3,2-1l2.7,0.6l-1.1-2.5c-0.6-1.4,0-2,0.6-2.3l-1.4-1
		c-1.2-0.9-0.9-1.7,0.2-2.2l3.6-1.6c-0.9-0.5-1.2-1.6-0.7-2.5c0-0.1,0.1-0.1,0.1-0.2c0.8-1.2,2-2.9,2-2.9h-3.7
		c-0.9,0-1.6-0.7-1.7-1.6c0-0.1,0-0.2,0-0.2s-2.2,1.5-3.7,2.6s-2.5,0-2.3-1.5c0.3-2.4,0.6-5,0.6-5c-0.8,0.6-2,0.4-2.6-0.4
		c-0.1-0.1-0.2-0.2-0.2-0.4l-2-4.2l-2,4.2c-0.4,1-1.5,1.4-2.4,1c-0.1-0.1-0.3-0.1-0.4-0.2c0,0,0.3,2.6,0.6,5c0.2,1.5-1,2.4-2.3,1.5
		s-3.7-2.6-3.7-2.6c0.1,0.9-0.5,1.7-1.4,1.8c-0.1,0-0.2,0-0.2,0h-3.3c0,0,1.2,1.7,2,2.9c0.6,0.8,0.4,1.9-0.3,2.5
		c-0.1,0.1-0.1,0.1-0.2,0.1l3.6,1.6c1.2,0.5,1.5,1.3,0.2,2.2l-1.4,1c0.6,0.2,1.2,0.9,0.6,2.3l-1.1,2.5l2.7-0.7c1.4-0.3,2,0.3,2,1
		l4.6-2.6c1.2-0.7,1.9-0.5,1.9,0.8v3.2c0.1,1.7-0.3,3.4-1,4.9c-9.9-1-17-9.9-16-19.7s9.9-17,19.7-16c9.9,1,17,9.9,16,19.7
		c-0.9,8.5-7.6,15.1-16,16v2.3c10.2-0.7,18.2-9.1,18.4-19.4c0-11.3-9.2-20.5-20.5-20.5s-20.5,9.2-20.5,20.5
		c0.2,9.5,7.1,17.5,16.5,19.1c1.3,0.1,2.5,0.6,3.4,1.6c0.9-2.5,1.4-5.2,1.2-7.9C525.7,248.3,525.7,245.5,525.7,244.5z"/>
	<path class="st0" d="M284.2,245.9v-20.8h10.1c5.4,0,7.8,2.3,8,5.2c0.1,1.3-0.3,2.6-1.1,3.7c-0.8,1-1.9,1.8-3.1,2.2l7.7,9.7h-5.7
		l-6.8-8.6h-4.6v8.6L284.2,245.9z M288.7,234.6h2c5.6,0,6.8-0.9,6.8-3.6c0-2.7-2.5-3.1-6.1-3.1h-2.7L288.7,234.6z"/>
	<path class="st0" d="M238.5,245.9l9-20.8h5.5l9,20.8h-5.7l-2.4-5.6h-9.6l-2.5,5.6H238.5z M245.7,237.6h7.2l-3.6-8.2L245.7,237.6z"
		/>
	<path class="st0" d="M268.6,245.9v-20.8h4.9v20.8H268.6z"/>
	<path class="st0" d="M340.6,245.2c-2.8,1-5.7,1.5-8.6,1.4c-3.5,0.2-6.9-0.8-9.6-2.9c-2.4-2.1-3.6-5.1-3.4-8.2
		c-0.2-3.1,1.1-6.2,3.5-8.2c2.9-2.1,6.4-3.1,9.9-2.8c2.8,0,5.5,0.3,8.2,0.8v3.4c-2.6-0.8-5.3-1.3-8-1.4c-2.2-0.2-4.4,0.6-6.1,2
		c-1.5,1.6-2.3,3.8-2.2,6c-0.1,2.2,0.7,4.4,2.3,5.9c1.8,1.5,4.1,2.2,6.5,2c2.6,0,5.2-0.5,7.6-1.6L340.6,245.2z"/>
	<path class="st0" d="M346.6,245.9l9.1-20.8h5.5l9,20.8h-5.7l-2.4-5.6h-9.6l-2.5,5.6H346.6z M353.8,237.6h7.2l-3.6-8.2L353.8,237.6z
		"/>
	<path class="st0" d="M406.7,245.9l9.1-20.8h5.5l9,20.8h-5.7l-2.4-5.6h-9.6l-2.5,5.6H406.7z M413.9,237.6h7.2l-3.6-8.2L413.9,237.6z
		"/>
	<path class="st0" d="M463.7,245.9l9-20.8h5.5l9,20.8h-5.7l-2.4-5.6h-9.6l-2.5,5.6H463.7z M470.9,237.6h7.2l-3.6-8.2L470.9,237.6z"
		/>
	<path class="st0" d="M377.2,245.9v-20.8h5.6l13,14.8v-14.8h4v20.8h-5.1l-13.5-15.5v15.5H377.2z"/>
	<path class="st0" d="M437.2,245.9v-20.8h10.1c3-0.2,5.9,0.7,8.3,2.6c2,1.9,3.1,4.6,2.9,7.4c0.2,3-0.9,5.9-3.1,8
		c-2.4,2-5.5,3-8.6,2.8H437.2z M442.1,242.9h3.6c2.1,0.2,4.1-0.5,5.7-1.9c1.4-1.6,2.1-3.6,1.9-5.7c0.1-1.8-0.5-3.5-1.5-5
		c-0.6-0.9-1.5-1.5-2.5-1.9c-1.4-0.4-2.8-0.6-4.3-0.5h-2.9L442.1,242.9L442.1,242.9z"/>
</g>
<g>
	<path class="st0" d="M0,226.6c0,1.4,1.2,2.6,2.6,2.6c0.9,0,1.8-0.5,2.2-1.3c8-14.5,22.1-24,38.1-24c14,0,28.1,8.6,37.3,21.5
		c-4.4,6.3-10.1,11.6-16.7,15.5c1.7-2.6,2.6-5.6,2.7-8.7c0-11.9-10.4-21.5-23.2-21.5c-14.9-0.2-27.2,11.7-27.4,26.6
		c0,18.5,15.6,33.7,35.7,35.9h0.3c1.4,0.1,2.6-1,2.7-2.4c0.1-1.4-1-2.6-2.4-2.7c-17.5-1.8-31.1-14.9-31.1-30.7
		c0.2-12.1,10.2-21.7,22.4-21.5c10,0,18,7.3,18,16.3c-0.2,7-5.8,12.6-12.8,12.8c-6.6,0-12-4.6-12-10.3c0-3.8,3.1-6.9,6.9-6.9l0,0
		c2.9,0,5.4,2.1,5.9,5c0.2,1.4,1.6,2.3,3,2.1s2.3-1.6,2.1-3c-1-5.3-5.6-9.2-11-9.2c-6.6,0-12,5.4-12,12c0,8.5,7.7,15.5,17.2,15.5
		c13.2,0,28.5-9.9,38.3-24.9c-9.9-15.8-26.7-26.6-43.5-26.6c-18,0-33.7,10.6-42.6,26.6C0.2,225.7,0.1,226.1,0,226.6"/>
	<path class="st0" d="M102.1,202v15.5c0.1,1.2-0.8,2.2-2,2.3c-0.1,0-0.2,0-0.4,0l0,0c-1.2,0.1-2.2-0.8-2.3-2c0-0.1,0-0.2,0-0.3V202
		h-4.2c-0.8,0.1-1.5-0.5-1.6-1.3c0-0.1,0-0.2,0-0.3l0,0c-0.1-0.8,0.5-1.5,1.3-1.6c0.1,0,0.2,0,0.3,0h13.1c0.8-0.1,1.5,0.5,1.6,1.3
		c0,0.1,0,0.2,0,0.3l0,0c0.1,0.8-0.5,1.5-1.3,1.6c-0.1,0-0.2,0-0.3,0H102.1z"/>
	<path class="st0" d="M114.3,217.6c0.1,1.1-0.7,2-1.8,2.2c-0.1,0-0.2,0-0.4,0l0,0c-1.1,0.1-2.1-0.7-2.2-1.8c0-0.1,0-0.2,0-0.3V206
		c0-1.5,0.6-2.2,2.1-2.2h0.1c1.5,0,2.2,0.9,2.2,3.1L114.3,217.6z M112.1,202.7c-1.3,0-2.4-1-2.4-2.3l0,0c0-1.3,1.1-2.4,2.4-2.3l0,0
		c1.3,0,2.4,1,2.4,2.3l0,0C114.5,201.7,113.5,202.7,112.1,202.7C112.2,202.7,112.2,202.7,112.1,202.7"/>
	<path class="st0" d="M122.3,207.9v9.7c0.1,1.1-0.7,2-1.8,2.2c-0.1,0-0.2,0-0.4,0l0,0c-1.1,0.1-2-0.7-2.2-1.8c0-0.1,0-0.2,0-0.4V206
		c0-1.5,0.6-2.2,2.1-2.2h0.1c1.1,0,1.8,0.5,2.1,1.9c1.6-1.2,3.6-1.9,5.6-1.9c1.5-0.2,3,0.6,3.7,2c1.7-1.3,3.7-2,5.8-2
		c2.2,0,4.1,1,4.1,4.4v9.6c0.1,1.1-0.7,2-1.8,2.2c-0.1,0-0.2,0-0.4,0l0,0c-1.1,0.1-2-0.7-2.2-1.8c0-0.1,0-0.2,0-0.4v-8.4
		c0-1.5-0.5-2-1.8-2c-1.2,0-2.3,0.3-3.4,0.7v9.6c0.1,1.1-0.7,2-1.8,2.2c-0.1,0-0.2,0-0.4,0l0,0c-1.1,0.1-2-0.7-2.2-1.8
		c0-0.1,0-0.2,0-0.4v-8.4c0-1.5-0.5-2-1.8-2c-1.2,0.1-2.3,0.3-3.4,0.7"/>
	<path class="st0" d="M148.6,210.1h5.8c-0.1-2.8-1-3.7-2.7-3.7S149,207.2,148.6,210.1 M148.6,212.8c0.2,3.2,1.7,4,4.1,4
		c2.4,0,3.2-1.3,4.3-1.3s1.3,0.5,1.3,1.5l0,0c0,0.8-0.6,1.6-1.3,1.9c-1.5,0.7-3.2,1-4.9,0.9c-5.2,0-8-3.1-8-8c0-5,3.3-8.2,7.7-8.2
		c4.8,0,7,3,7,7.1c0,1.3-0.7,2-2.1,2L148.6,212.8z"/>
	<path class="st0" d="M113.1,226c0.3-1.3,1-1.9,2-1.9h0.1c1.6,0,2.2,1.2,1.9,2.6l-3.8,16c-0.5,2-1.5,2.7-3.1,2.7H110
		c-1.6,0-2.6-0.7-3.1-2.7l-2.6-11.2l0,0l-2.6,11.2c-0.1,1.6-1.5,2.8-3,2.7l0,0h-0.2c-1.6,0-2.6-0.7-3.1-2.7l-3.7-15.5
		c-0.4-1.7,0.3-3,2-3h0.1c1.2,0,2.2,0.9,2.3,2.1l2.8,13.2l0,0l3.1-13c0.4-1.6,1.2-2.3,2.5-2.3l0,0c1.3,0,2.1,0.7,2.5,2.3l3.2,13l0,0
		L113.1,226z"/>
	<path class="st0" d="M126.9,241.4v-3c-0.7-0.1-1.5-0.2-2.2-0.2c-1.8,0-2.9,0.6-2.9,2.2s1,2.2,2.5,2.2
		C125.2,242.6,126.2,242.2,126.9,241.4 M127.1,243.7c-1.2,1.2-2.9,1.9-4.6,1.8c-2.5,0.3-4.8-1.5-5.1-4c0-0.2,0-0.5,0-0.7
		c0-3.3,2.6-4.9,6.3-4.9c1.1,0,2.2,0.1,3.2,0.4v-1.5c0-1.4-0.8-2.2-2.9-2.2c-2.5,0-2.9,1.2-4.1,1.2c-0.8,0-1.3-0.7-1.3-1.4v-0.1
		v-0.1c0-1,0.6-1.8,1.6-2c1.5-0.5,3-0.8,4.5-0.8c4.4,0,6.6,1.4,6.6,5.1v8.8c0,1.5-0.5,2.2-1.9,2.2h-0.1c-1,0-1.9-0.7-2.1-1.7"/>
	<path class="st0" d="M139,231.4c1-1.2,2.4-1.9,4-2.1c1,0,1.6,0.5,1.6,1.8v0.1c0,1.3-0.6,1.9-1.9,2c-1.2,0.1-2.4,0.3-3.5,0.7v9.4
		c0.1,1.1-0.7,2-1.8,2.2c-0.1,0-0.2,0-0.4,0l0,0c-1.1,0.1-2.1-0.7-2.2-1.8c0-0.1,0-0.2,0-0.4v-11.7c0-1.5,0.6-2.2,2.1-2.2h0.1
		c1,0,1.8,0.7,2.1,2.1"/>
	<path class="st0" d="M151.3,233.5v9.7c0.1,1.1-0.7,2-1.8,2.2c-0.1,0-0.2,0-0.4,0l0,0c-1.1,0.1-2-0.7-2.2-1.8c0-0.1,0-0.2,0-0.4
		v-11.7c0-1.5,0.6-2.2,2.1-2.2l0,0c1.1,0,1.8,0.5,2.1,1.9c1.7-1.2,3.7-1.9,5.8-2c2.3,0,4.2,0.9,4.2,4.4v9.6c0.1,1.1-0.7,2-1.8,2.2
		c-0.1,0-0.2,0-0.4,0l0,0c-1.1,0.1-2.1-0.7-2.2-1.8c0-0.1,0-0.3,0-0.4v-8.5c0-1.6-0.6-2-1.9-2C153.7,232.7,152.5,232.9,151.3,233.5"
		/>
	<path class="st0" d="M168.4,235.7h5.8c-0.1-2.8-1-3.7-2.7-3.7S168.7,232.7,168.4,235.7 M168.4,238.3c0.2,3.2,1.7,4,4.1,4
		c2.4,0,3.2-1.3,4.3-1.3s1.3,0.5,1.3,1.5v0.1c0,0.8-0.5,1.6-1.3,1.9c-1.5,0.7-3.2,1-4.9,0.9c-5.2,0-8-3.1-8-8s3.3-8.2,7.7-8.2
		c4.8,0,7,3,7,7.1c0.1,1-0.7,1.9-1.7,2c-0.1,0-0.3,0-0.4,0H168.4z"/>
	<path class="st0" d="M185.5,231.4c1-1.2,2.4-1.9,4-2.1c1,0,1.6,0.5,1.6,1.8v0.1c0,1.3-0.6,1.9-1.9,2c-1.2,0.1-2.4,0.3-3.5,0.7v9.4
		c0.1,1.1-0.7,2-1.8,2.2c-0.1,0-0.2,0-0.4,0l0,0c-1.1,0.1-2.1-0.7-2.2-1.8c0-0.1,0-0.2,0-0.4v-11.7c0-1.5,0.6-2.2,2.1-2.2h0.1
		c1,0,1.8,0.7,2.1,2.1"/>
	<path class="st0" d="M101.6,271c-6.1,0-10-4-10-10.7c0-6.7,4.3-10.8,10.4-10.8c1.5-0.1,3.1,0.2,4.5,0.8c1,0.3,1.6,1.3,1.6,2.3v0.1
		c0.1,0.9-0.5,1.7-1.4,1.8c-0.1,0-0.1,0-0.2,0c-1.3,0-2.1-1.6-4.8-1.6c-3.4,0-5.5,2.6-5.5,7.2c0,5.1,1.8,7.5,5.4,7.5
		c3.3,0,3.6-2.1,5.1-2.1c0.8-0.1,1.6,0.6,1.6,1.4c0,0.1,0,0.1,0,0.2v0.1c0,1.1-0.6,1.9-2,2.6C104.8,270.6,103.2,270.9,101.6,271"/>
	<path class="st0" d="M120,267v-3c-0.7-0.1-1.5-0.2-2.2-0.2c-1.8,0-2.9,0.6-2.9,2.2s1,2.2,2.5,2.2C118.3,268.1,119.3,267.7,120,267
		 M120.2,269.2c-1.2,1.2-2.8,1.9-4.5,1.7c-2.9,0-5.1-1.6-5.1-4.7c0-3.1,2.6-4.9,6.3-4.9c1.1,0,2.2,0.1,3.2,0.4v-1.5
		c0-1.4-0.8-2.2-2.9-2.2c-2.5,0-2.9,1.2-4.1,1.2c-0.8,0-1.3-0.7-1.3-1.4v-0.1v-0.1c0-1,0.6-1.8,1.6-2c1.5-0.5,3-0.8,4.6-0.8
		c4.3,0,6.6,1.4,6.6,5.1v8.8c0,1.5-0.5,2.2-1.9,2.2h-0.1c-1,0-1.9-0.7-2.1-1.7"/>
	<path class="st0" d="M132.3,258.9v8c0.8,0.6,1.8,1,2.8,0.9c1.8,0,3.5-0.8,3.5-4.8s-1.6-4.9-3.5-4.9
		C134.2,258.2,133.2,258.5,132.3,258.9 M132.3,252.7v3.8c1.3-1.2,3.1-1.8,4.8-1.8c3,0,6.1,2,6.1,7.9c0,5.9-3.3,8.3-6.7,8.3
		c-1.6,0.1-3.3-0.5-4.5-1.5c-0.3,0.8-1.1,1.4-2,1.4h-0.1c-1.2,0-1.9-0.6-1.9-2.2v-16.8c0-1.4,0.6-2.2,2.1-2.2h0.1
		C131.7,249.6,132.3,250.6,132.3,252.7"/>
	<path class="st0" d="M150.4,252.7v16.1c0.1,1.1-0.7,2.1-1.8,2.2c-0.1,0-0.2,0-0.4,0l0,0c-1.1,0.1-2.1-0.7-2.2-1.8
		c0-0.1,0-0.2,0-0.3V252c0-1.4,0.6-2.2,2.1-2.2h0.1C149.8,249.6,150.5,250.6,150.4,252.7"/>
	<path class="st0" d="M157.7,261.2h5.8c-0.1-2.8-1-3.7-2.7-3.7S158,258.3,157.7,261.2 M157.7,263.9c0.2,3.2,1.7,4,4.1,4
		s3.2-1.3,4.3-1.3s1.3,0.5,1.3,1.5v0.1c0,0.8-0.6,1.6-1.3,1.9c-1.5,0.7-3.2,1-4.9,0.9c-5.2,0-8-3.1-8-8c0-5,3.3-8.2,7.7-8.2
		c4.8,0,7,3,7,7.1c0,1.3-0.7,2-2.1,2H157.7z"/>
	<path class="st0" d="M172.9,257.8h0.4c0.4,0,0.5-0.2,0.5-0.5c0-0.3-0.1-0.5-0.5-0.5h-0.4V257.8z M174.7,259.1
		c0.1,0.2,0.1,0.4-0.1,0.5c-0.1,0.1-0.2,0.1-0.3,0.1l0,0c-0.2,0-0.4-0.1-0.5-0.4l-0.5-0.9h-0.4v0.9c0,0.2-0.1,0.4-0.3,0.4h-0.1l0,0
		c-0.2,0-0.4-0.1-0.4-0.3v-0.1v-2.5c0-0.3,0.2-0.6,0.5-0.6h0.1h0.8c0.9,0,1.3,0.4,1.3,1.1c0,0.4-0.2,0.8-0.6,0.9L174.7,259.1z
		 M173.3,260.7c1.5,0,2.6-1.2,2.6-2.6c0-1.5-1.2-2.6-2.6-2.6c-1.5,0-2.6,1.2-2.6,2.6l0,0c-0.1,1.4,1,2.5,2.3,2.6
		C173.1,260.7,173.2,260.7,173.3,260.7 M173.3,261.3c-1.8,0-3.2-1.4-3.2-3.2s1.4-3.2,3.2-3.2s3.2,1.4,3.2,3.2
		S175.1,261.3,173.3,261.3"/>
</g>
</svg>
