<svg id="Layer_1" data-name="Layer 1" xmlns="http://www.w3.org/2000/svg" viewBox="0 0 32 32"><defs><style>.cls-1{fill:#1da1f2;}</style></defs><title>logo</title><path class="cls-1" d="M3.54,23.83a14.49,14.49,0,0,0,7.84,2.29,14.46,14.46,0,0,0,14.53-15.2,10.54,10.54,0,0,0,2.55-2.65,10.42,10.42,0,0,1-2.94.81,5.12,5.12,0,0,0,2.25-2.83,10.14,10.14,0,0,1-3.25,1.24,5.12,5.12,0,0,0-8.71,4.66A14.47,14.47,0,0,1,5.28,6.81a5.12,5.12,0,0,0,1.58,6.83A5.11,5.11,0,0,1,4.55,13a5.1,5.1,0,0,0,4.09,5.07,5.07,5.07,0,0,1-2.3.09,5.11,5.11,0,0,0,4.77,3.55A10.3,10.3,0,0,1,3.54,23.83Z"/></svg>