<svg id="Layer_1" data-name="Layer 1" xmlns="http://www.w3.org/2000/svg" viewBox="0 0 32 32"><defs><style>.cls-1{fill:#db2532;}</style></defs><title>logo</title><path class="cls-1" d="M19.54,12.92a2.36,2.36,0,0,0,1.72-1v.88h1.48v-8H21.26v6c-.18.23-.59.6-.87.6S20,11.27,20,11V4.83H18.51V11.5C18.51,12.28,18.75,12.92,19.54,12.92Z"/><path class="cls-1" d="M13,10.82A1.91,1.91,0,0,0,15.12,13a2,2,0,0,0,2.13-2.13V6.91a2.08,2.08,0,0,0-2.13-2.14A2,2,0,0,0,13,6.91ZM14.47,7c0-.43.21-.76.62-.76s.65.32.65.76v3.71c0,.43-.22.75-.62.75a.67.67,0,0,1-.65-.75Z"/><polygon class="cls-1" points="9.41 12.81 11.08 12.81 11.08 8.42 13.02 2 11.33 2 10.26 6.32 9.11 2 7.43 2 9.41 8.42 9.41 12.81"/><path class="cls-1" d="M24.73,14.62H7.27A3.4,3.4,0,0,0,3.87,18V26.6A3.4,3.4,0,0,0,7.27,30H24.73a3.4,3.4,0,0,0,3.4-3.4V18A3.4,3.4,0,0,0,24.73,14.62ZM9.59,27.46H8v-8.8H6.36V17.17h4.88v1.49H9.59Zm5.66,0H13.84v-.84a3.06,3.06,0,0,1-.82.7c-.76.44-1.8.43-1.8-1.11V19.87h1.41v5.81c0,.31.07.52.38.52s.65-.36.83-.57V19.87h1.41Zm5.43-1.58c0,.94-.35,1.67-1.29,1.67a1.61,1.61,0,0,1-1.34-.68v.59H16.62V17.17h1.43v3.31a1.69,1.69,0,0,1,1.25-.71c1,0,1.38.87,1.38,1.9Zm5.22-2H23.2v1.43c0,.57.05,1.06.61,1.06s.63-.4.63-1.06v-.53H25.9v.57c0,1.47-.63,2.35-2.12,2.35s-2-1-2-2.35v-3.4a2.09,2.09,0,0,1,2.14-2.24c1.35,0,2,.86,2,2.24Z"/><path class="cls-1" d="M23.83,21c-.52,0-.63.37-.63.89v.77h1.24v-.77C24.44,21.38,24.33,21,23.83,21Z"/><path class="cls-1" d="M18.34,21.05a1,1,0,0,0-.29.23V26a1.51,1.51,0,0,0,.33.27.61.61,0,0,0,.72-.08.81.81,0,0,0,.13-.52V21.76a1,1,0,0,0-.15-.59A.59.59,0,0,0,18.34,21.05Z"/></svg>