<?xml version="1.0" encoding="utf-8"?>
<!-- Generator: Adobe Illustrator 22.0.1, SVG Export Plug-In . SVG Version: 6.00 Build 0)  -->
<svg version="1.1" id="Layer_1" xmlns="http://www.w3.org/2000/svg" xmlns:xlink="http://www.w3.org/1999/xlink" x="0px" y="0px"
	 viewBox="0 0 136.3 166.5" style="enable-background:new 0 0 136.3 166.5;" xml:space="preserve">
<style type="text/css">
	.st0{fill:#696E75;}
</style>
<g>
	<g id="text">
		<polygon class="st0" points="74,155.1 75.5,155.1 75.5,162.9 74,162.9 74,166 80.2,166 80.2,162.9 78.6,162.9 78.6,155.1 
			80.2,155.1 80.2,152 74,152 		"/>
		<polygon class="st0" points="28.1,155.1 32.1,155.1 32.1,166 35.3,166 35.3,155.1 39.3,155.1 39.3,152 28.1,152 		"/>
		<polygon class="st0" points="18.6,155.1 20.1,155.1 20.1,162.9 18.6,162.9 18.6,166 24.8,166 24.8,162.9 23.2,162.9 23.2,155.1 
			24.8,155.1 24.8,152 18.6,152 		"/>
		<polygon class="st0" points="7,158.2 3.5,152 0,152 0,166 3.1,166 3.1,157.6 7,164.6 10.8,157.6 10.8,166 13.9,166 13.9,152 
			10.5,152 		"/>
		<path class="st0" d="M48,157.6c-2.1-0.6-3.3-0.8-3.3-1.7c0-0.8,0.6-1.4,2.1-1.4c1.2,0,2.5,0.6,3.5,1.4l1.7-2.3
			c-1.4-1-3.3-1.7-5.2-1.7c-3.3,0-5.4,2.1-5.4,4.3c0,2.9,2.9,4.1,5.4,4.5c1.6,0.2,2.9,0.8,2.9,1.7c0,0.8-0.8,1.2-2.3,1.2
			s-3.3-0.8-4.6-1.9l-2.1,2.3c2.1,1.7,4.3,2.5,6.6,2.5c5,0,5.8-3.1,5.8-4.1C53.2,159.4,50.9,158.2,48,157.6z"/>
		<path class="st0" d="M66,160.2c0,1.7-1.4,3.1-3.1,3.1c-1.7,0-3.1-1.4-3.1-3.1v-8.3h-3.1v8.3c0,3.5,2.7,6.2,6.2,6.2
			c3.5,0,6.2-2.7,6.2-6.2v-8.3H66V160.2L66,160.2z"/>
		<path class="st0" d="M96.6,158.2l-2.5,2.5l-4.5-4.5c-0.2-0.2-0.4-0.4-0.4-0.8c0-0.2,0-0.6,0.4-0.8c0.2-0.2,0.4-0.4,0.8-0.4
			c0.2,0,0.6,0,0.8,0.4c0.2,0.2,0.4,0.4,0.4,0.8v0.6h2.3v-0.6c0-1-0.4-1.9-1-2.5s-1.6-1-2.5-1s-1.9,0.4-2.5,1s-1,1.6-1,2.5
			s0.4,1.9,1,2.5l0.2,0.2l-0.8,0.8c-0.8,0.8-1.2,1.7-1.2,2.9s0.4,2.1,1.2,2.9c0.8,0.8,1.7,1.2,2.9,1.2c1.2,0,2.1-0.4,2.9-1.2
			l0.8-0.8l2.5,2.5l1.7-1.7l-2.5-2.5l2.5-2.5L96.6,158.2z M91.8,163.3c-0.2,0.2-0.8,0.6-1.2,0.6c-0.4,0-1-0.2-1.2-0.6
			c-0.2-0.2-0.6-0.8-0.6-1.2s0.2-1,0.6-1.2l0.8-0.8l2.5,2.5L91.8,163.3z"/>
		<rect x="133.2" y="162.9" class="st0" width="3.1" height="3.1"/>
		<path class="st0" d="M124.3,151.6c-4.1,0-7.4,3.3-7.4,7.4c0,4.1,3.3,7.4,7.4,7.4c4.1,0,7.4-3.3,7.4-7.4
			C131.7,154.9,128.4,151.6,124.3,151.6z M124.3,163.3c-2.3,0-4.3-1.9-4.3-4.3c0-2.3,1.9-4.3,4.3-4.3c2.3,0,4.3,1.9,4.3,4.3
			C128.6,161.5,126.7,163.3,124.3,163.3z"/>
		<path class="st0" d="M110.2,154.7c1.2,0,2.1,0.4,2.7,1l2.1-2.1c-1.3-1.2-3.1-1.9-5-1.9c-2.1,0-3.9,0.8-5.2,2.1
			c-1.4,1.4-2.1,3.3-2.1,5.2c0,2.1,0.8,3.9,2.1,5.2c1.4,1.4,3.3,2.1,5.2,2.1c1.9,0,3.7-0.8,5-1.9l-2.1-2.1c-0.8,0.6-1.7,1-2.7,1
			c-1.2,0-2.1-0.4-3.1-1.4c-0.8-0.8-1.4-1.9-1.4-3.1c0-1.2,0.4-2.1,1.4-3.1C108.1,155.3,109,154.7,110.2,154.7z"/>
	</g>
	<g id="symbol">
		<rect x="46.3" y="61.2" class="st0" width="39.1" height="9.9"/>
		<path class="st0" d="M124.7,48.6L114.2,59L72.8,17.4L83.3,7l-7-7L65.8,10.5L55.4,0l-7,7l10.5,10.5L17.2,59.1L7,48.6l-7,7
			l10.5,10.5L0,76.5l7,7L17.4,73L59,114.6l-10.5,10.5l7,7L66,121.6l10.5,10.5l7-7L73,114.6L114.6,73l10.5,10.5l7-7L121.6,66
			l10.5-10.5L124.7,48.6z M85.4,88.1l-19.6,19.6L46.3,88.1L24.2,66l22.1-22l19.6-19.6L85.4,44l0,0l0,0l22.1,22L85.4,88.1z"/>
		<rect x="46.3" y="78.4" class="st0" width="39.1" height="9.9"/>
		<polygon class="st0" points="85.4,53.7 85.4,44 85.4,44 46.3,44 46.3,53.7 		"/>
	</g>
</g>
</svg>
