<svg id="Layer_1" data-name="Layer 1" xmlns="http://www.w3.org/2000/svg" viewBox="0 0 550 125"><defs><style>.cls-1,.cls-2{fill:#666;}.cls-1{fill-rule:evenodd;}</style></defs><title>logos-customers-grey-m</title><path class="cls-1" d="M49.27,47.6A26.57,26.57,0,1,1,28.51,4.38,26.25,26.25,0,0,1,49.27,14.43l-.78.52a23.34,23.34,0,1,0-17,39.31,23.56,23.56,0,0,0,17-7.18l.78.52Z"/><path class="cls-1" d="M57.24,18.22c-8.36,0-13.06,5.62-13.06,12.8s4.7,12.67,13.06,12.67c8,0,12.93-5.62,12.93-12.67s-5-12.8-12.93-12.8Zm0,20.76a7.72,7.72,0,0,1-7.84-8,7.76,7.76,0,0,1,7.84-8.1c4.18,0,7.57,3.4,7.57,8.1a7.75,7.75,0,0,1-7.57,8Zm72.87-3.26c-.39.78-2.35,3.26-6.53,3.26a7.65,7.65,0,0,1-7.84-8c0-4.7,3.26-8.1,7.84-8.1a7.62,7.62,0,0,1,6.53,3.26L134,23.7c-.26-.52-3.13-5.48-10.45-5.48-8,0-13.19,5.22-13.19,12.8s5.22,12.67,13.19,12.67c7.31,0,10.06-4.83,10.45-5.48l-3.92-2.48ZM38.69,36a7.92,7.92,0,0,1-6.92,3.4A8,8,0,0,1,23.55,31a8.1,8.1,0,0,1,8.23-8.49,8.35,8.35,0,0,1,6.92,3.4l4-2.61c-.26-.52-3.13-5.75-11-5.75-8.36,0-13.71,5.48-13.71,13.45,0,7.7,5.35,13.32,13.71,13.32,7.7,0,10.58-5.09,11-5.75l-4-2.61Zm155.4-17.24.26-6.79L189,14.56l-.13,4.18H185v4h3.92V36.5c0,5,2.87,7.18,6.53,7.18a10.27,10.27,0,0,0,3.66-.52l.65-4.18a5.73,5.73,0,0,1-2.35.39c-2.09,0-3.26-.78-3.26-3.13V22.79h5.09v-4Zm-37.61,0s-.13,2.35-.13,2.74h0a10.69,10.69,0,0,0-7.84-3.26c-7.44,0-12.8,5.09-12.8,12.8,0,7.31,5.09,12.67,12.8,12.67a10.55,10.55,0,0,0,7.84-3.26h0l.13,2.74h5.22V18.74ZM149,39a7.71,7.71,0,0,1-8.1-8,8.1,8.1,0,0,1,16.19,0,7.71,7.71,0,0,1-8.1,8Zm-47,4.18V27.88c0-3.26-1.7-5.09-4.57-5.09s-4.57,2-4.57,5.09V43.16H87.66V27.88c0-3.26-1.7-5.09-4.44-5.09-3,0-4.57,2-4.57,5.09V43.16H73.43V18.74h5v2.35h.13a7.64,7.64,0,0,1,6.14-2.87,6.81,6.81,0,0,1,6.27,3.53,8.75,8.75,0,0,1,7.31-3.53c5.62,0,8.88,3.53,8.88,8.49V43.16Zm74.7-14.5c4.18,1.44,6.79,3.66,6.79,7.31,0,5.09-4.31,7.7-10.06,7.7a16.37,16.37,0,0,1-8.88-2.22l2.09-3.92a15.07,15.07,0,0,0,7.05,1.83c2.61,0,4.57-1.18,4.57-2.87,0-1.44-1-2.48-3.66-3.4l-2.87-.91c-3.26-1-6-3.26-6-7.05,0-4.18,3.79-6.92,9-6.92a14,14,0,0,1,7.84,2.09l-2,3.79a12.48,12.48,0,0,0-6-1.57c-2.61,0-3.66,1.18-3.66,2.35s.91,2.09,3.13,3l2.61.78Zm27.57,12.54a2.48,2.48,0,1,1-2.47,2.48,2.48,2.48,0,0,1,2.47-2.48Zm0,.38a2.1,2.1,0,1,1-2.1,2.1,2.1,2.1,0,0,1,2.1-2.1Zm1.18,3.53h-.55l-.45-1.18h-.73v1.18h-.52V42.24h1.25a1.07,1.07,0,0,1,.76.24.8.8,0,0,1,.24.61.76.76,0,0,1-.52.76l.5,1.27Zm-1.72-1.6h.64a.62.62,0,0,0,.42-.12.41.41,0,0,0,.14-.32.38.38,0,0,0-.13-.31.56.56,0,0,0-.38-.12h-.69v.87Z"/><path class="cls-2" d="M401.52,96.79c3,0,4,2.78,4,4.3h-8.19A4.15,4.15,0,0,1,401.52,96.79Zm8.72,12.84a22.08,22.08,0,0,1-2.66.74,16.41,16.41,0,0,1-3.26.33c-3.59,0-6.4-1.2-6.86-4h15.33a17.79,17.79,0,0,0,.31-3.26c0-6.47-3.22-12.41-11.43-12.41-8,0-12.23,6.26-12.23,13.27,0,8.08,5.65,12.7,13.54,12.7a23,23,0,0,0,4.69-.43,19,19,0,0,0,3.82-1.2Z"/><path class="cls-2" d="M520.5,96.79c3,0,4,2.78,4,4.3h-8.19A4.15,4.15,0,0,1,520.5,96.79Zm8.72,12.84a22,22,0,0,1-2.66.74,16.41,16.41,0,0,1-3.26.33c-3.59,0-6.4-1.2-6.86-4h15.32a17.8,17.8,0,0,0,.31-3.26c0-6.47-3.22-12.41-11.43-12.41-8,0-12.23,6.26-12.23,13.27,0,8.08,5.65,12.7,13.54,12.7a23,23,0,0,0,4.69-.43,19,19,0,0,0,3.82-1.2Z"/><path class="cls-2" d="M416.85,82.75v33.68h8.31V82.75Z"/><path class="cls-2" d="M441.85,110.8c-2.7,0-4.47-2.67-4.47-6.8,0-3.29,1.19-6.8,4.5-6.8s4.33,3.64,4.33,6.76C446.21,108.11,444.48,110.8,441.85,110.8Zm-.11,6.16c6.48,0,13-4.08,13-13.2,0-5.43-3.22-12.72-12.64-12.72-9.7,0-13.24,7.07-13.24,13.14C428.9,111.79,434.19,117,441.73,117Z"/><path class="cls-2" d="M458.4,91.58v24.85h8.31V91.58Z"/><path class="cls-2" d="M458.4,82.76v6.45h8.31V82.76Z"/><path class="cls-2" d="M473.29,84.82v6.76h-3.19v6.16h3.19v10.18c0,5.6,2.56,9,8.4,9a24.34,24.34,0,0,0,3.47-.28,18.6,18.6,0,0,0,2.4-.48s-.06-6.49-.06-6.51a17.94,17.94,0,0,1-2.84.41,3.21,3.21,0,0,1-2.37-.81,3.73,3.73,0,0,1-.87-2.73V97.73h5.37V91.57h-5.37V83.9Z"/><path class="cls-2" d="M492.51,84.82v6.76h-3.19v6.16h3.19v10.18c0,5.6,2.56,9,8.4,9a24.3,24.3,0,0,0,3.47-.28,18.58,18.58,0,0,0,2.4-.48s-.06-6.49-.06-6.51a17.92,17.92,0,0,1-2.84.41,3.21,3.21,0,0,1-2.37-.81,3.73,3.73,0,0,1-.87-2.73V97.73H506V91.57h-5.37V83.9Z"/><circle class="cls-2" cx="540.24" cy="112.37" r="4.6"/><path class="cls-2" d="M357.28,116.46h9.4c.64,0,1.41,0,2,0,12.87-.66,18.23-8.28,18.23-17.08,0-11-7.41-17.14-20.2-17.14-3.28,0-6.2.11-9.44.39Zm12-6.71c-.35,0-.86,0-1.2,0h-2.64V89.1c.91-.08,2.07-.14,2.84-.14,4.83,0,10,3.13,10,10.37C378.29,106.89,373.45,109.41,369.3,109.76Z"/><path class="cls-1" d="M307.26,28.8,305,26.65l-2.15,2.15L290.2,16.19l1.86-2-2.15-2.29-2,2-1.86-2-2.29,2.29,2,2L273,28.8l-2.15-2.15-2.15,2.15L270.86,31l-2.15,2.29,2.15,2.15L273,33.24l12.75,12.61-2,2L286,50l1.86-1.86,2,1.86,2.15-2.15-1.86-2,12.61-12.61L305,35.39l2.29-2.15L305.11,31l2.15-2.15ZM287.91,43.7,275.3,31l12.61-12.61L300.66,31,287.91,43.7Zm-5.88-6h11.75v-3H282v3Zm0-5.16h11.75v-3H282v3Zm0-5.3h11.75V24.36H282v2.87Z"/><path class="cls-1" d="M348.53,37.69h4.73V24.22h-4.73V37.69Zm-8.6-13.47-4,6.88V24.22h-6.74l-8.6,13.47h5.3l5.3-9.17v9.17h5.73l5.45-9v9h4.3V24.22Zm31.24,0H354.83v4h5.88v9.46h4.59V28.23h5.88v-4Z"/><path class="cls-1" d="M410.43,37.69H415V24.22h-4.59V37.69Zm-6.31-13.47v8.17c0,.86-.29,1.29-1.15,1.29h-5.88c-.86,0-1.15-.43-1.15-1.29V24.22h-4.59v8.6c0,3.87,1.72,4.87,4.59,4.87h8.17c2.87,0,4.59-1,4.59-4.87v-8.6Zm-27.66,0c-2.72,0-4,1.29-4,3.58v1.72c0,1.43,1,3.15,3.87,3.15h7a1.31,1.31,0,0,1,1.43,1.15c0,.57-.43,1-1.29,1h-5.16c-.86,0-1.29-.14-1.43-1.43h-4.44c0,2.29,0,4.73,4.16,4.73h9a3.42,3.42,0,0,0,3.58-3.73V32.81a3.28,3.28,0,0,0-3.58-3.58H378c-.72,0-1.15-.43-1.15-.86s.57-.86,1.72-.86h10.46v-3.3Z"/><path class="cls-1" d="M521.64,24.22H505.3v4h5.88v9.46h4.59V28.23h5.88v-4ZM501.29,34V24.22H496.7V37.69h13.47V34Zm36.26-9.74h-14V37.69h14.19a3.77,3.77,0,0,0,3.73-4V27.8a3.7,3.7,0,0,0-3.87-3.58ZM536.83,33c0,1-.43,1.29-1.29,1.29h-7.6V27.8h7.45a1.35,1.35,0,0,1,1.43,1.43V33Zm5.88,4.73H547V33.82h-4.3v3.87Z"/><path class="cls-1" d="M479.79,37.69h4.16V33.82h-4.16v3.87Zm10.17,0V33.82h-4.59v7.45s4.59.29,4.59-3.58ZM474.49,24.22H463.6a3.61,3.61,0,0,0-3.87,3.87v6c0,2.15,1.43,3.58,3.87,3.58h10.89c2.58,0,3.87-1.43,3.87-3.58v-6a3.61,3.61,0,0,0-3.87-3.87Zm-.72,8.88a.92.92,0,0,1-.86.86h-7.74a.92.92,0,0,1-.86-.86V28.8a1.14,1.14,0,0,1,1.29-1.29h6.88a1.14,1.14,0,0,1,1.29,1.29v4.3Zm-20.49-.72V33a.83.83,0,0,1-.86.86H446a1,1,0,0,1-1-.86V28.8c0-1,.43-1.29,1.29-1.29h11.61v-3.3H444.4a3.83,3.83,0,0,0-4,4V34c0,2.15,1.43,3.73,4,3.73H454A3.57,3.57,0,0,0,457.87,34V32.38Zm-17.05,2.87L433.65,34V31.67h-3.44v.43l-.14.14-4.87-2.44c-.29-.14-.29-.29-.29-.43s.29-.29.43-.29h2.87a1.16,1.16,0,0,1,1.29,1h3.44v-1c-.14-2.72-2.58-2.72-3.3-2.72H424a2.72,2.72,0,0,0-3,3,2,2,0,0,0,.57,1.58,2.87,2.87,0,0,0-1.72,2.44v1.43c0,1.15.43,2.87,3,2.87h8a3.83,3.83,0,0,0,2.29-.86l1.86.86,1.15-2.44Zm-12.61-1.43c0-.57.14-1,.86-1h1l3.73,2h-4.87c-.57,0-.72-.57-.72-1Z"/><rect class="cls-2" x="107.28" y="87.94" width="2.96" height="20.25"/><path class="cls-1" d="M75,90.51a7.56,7.56,0,1,0,7.42,7.63A7.38,7.38,0,0,0,75,90.51Zm.12-2.75A10.31,10.31,0,1,1,64.82,98.11,10.23,10.23,0,0,1,75.14,87.76Z"/><path class="cls-1" d="M12.79,90.23c-1.85,0-3.47,1.28-3.24,3.2a2.5,2.5,0,0,0,1.3,1.87,6.84,6.84,0,0,0,1.26.53l2,.7a12,12,0,0,1,3.57,1.69,5.19,5.19,0,0,1,1.72,3.87,6.4,6.4,0,0,1-6.7,6.38C9,108.48,6,106,5.86,102.25H8.72c.37,2.53,2,3.66,4,3.66a3.51,3.51,0,0,0,3.78-3.36,2.89,2.89,0,0,0-1.63-2.65,8,8,0,0,0-1.17-.48l-1.6-.53A17.89,17.89,0,0,1,9,97.67a4.75,4.75,0,0,1-2.37-4.12c0-3.41,2.61-5.89,6.28-5.89A6.06,6.06,0,0,1,19,93.16H16.08A3.23,3.23,0,0,0,12.79,90.23Z"/><path class="cls-1" d="M92.35,87.94h9.57v2.72H93.34v6.58h8.58v2.71H93.34v8.25h-3V89.91A2,2,0,0,1,92.35,87.94Z"/><path class="cls-1" d="M47.2,92.66v15.53h-3V89.81a2.05,2.05,0,0,1,2.05-2.05,1.94,1.94,0,0,1,1.75,1C51,93.49,56.37,102.48,57,103.47l0-15.53h3v18.38a2.06,2.06,0,0,1-2.05,2.06,1.94,1.94,0,0,1-1.75-1C53.18,102.64,47.78,93.65,47.2,92.66Z"/><path class="cls-1" d="M30.92,91.66l-3,8.18h6Zm-4,10.82-2.09,5.7H21.78L29.05,89a2,2,0,0,1,3.74,0l7.27,19.16H37l-2.09-5.71Z"/><path class="cls-2" d="M279.86,94.33c-5.61-8.23-11.88-1-18.19-1.9S255.2,83,262.9,82.23l.56,0A17.39,17.39,0,0,1,279.86,94.33Z"/><path class="cls-1" d="M280,94.82A17.39,17.39,0,0,1,252.19,113a10.71,10.71,0,0,0,3.79.67C271.73,113.72,265,92.78,280,94.82Z"/><path class="cls-1" d="M256.93,111.53c-2.18,1.33-5.64.93-8-2.36a15.76,15.76,0,0,1-1.35-2.21,17.33,17.33,0,0,1-1.65-7.4A16.85,16.85,0,0,1,246,97.5c3.79,5.11,8.16,5,10.93,6.62a4.36,4.36,0,0,1,0,7.42Z"/><path class="cls-2" d="M135.54,91.14a4.79,4.79,0,0,0-1.06-2,5.21,5.21,0,0,0-2.08-1.35,9.44,9.44,0,0,0-3.19-.47h-7.35v20.93h2.68V99.42h3.6a14.56,14.56,0,0,0,2.7-.26,7.61,7.61,0,0,0,2.47-.93,5.46,5.46,0,0,0,1.82-1.87,5.83,5.83,0,0,0,.71-3A8.28,8.28,0,0,0,135.54,91.14Zm-2.72,4a2.56,2.56,0,0,1-.92,1.07,3.88,3.88,0,0,1-1.52.56,13.1,13.1,0,0,1-2.19.16h-3.65V89.85h4.17a5.38,5.38,0,0,1,3.43.87,3.05,3.05,0,0,1,1,2.52A4.35,4.35,0,0,1,132.82,95.12Z"/><polygon class="cls-2" points="169.85 89.85 175.84 89.85 175.84 108.27 178.52 108.27 178.52 89.85 184.51 89.85 184.51 87.34 169.85 87.34 169.85 89.85"/><path class="cls-2" d="M199.9,105.76v2.5H186.16V89.16A1.81,1.81,0,0,1,188,87.34h11.67v2.5h-10.8v6.34h9.75V98.7h-9.75v7.06Z"/><path class="cls-2" d="M215.1,99.72a14.1,14.1,0,0,1-.28,3,5.2,5.2,0,0,1-.87,2,3.53,3.53,0,0,1-1.53,1.16,6.48,6.48,0,0,1-2.42.4,4.7,4.7,0,0,1-3.88-1.47c-.81-1-1.21-2.72-1.21-5.09V87.34h-2.68v12.94a9.34,9.34,0,0,0,1.92,6.25A7.32,7.32,0,0,0,210,108.8a7.4,7.4,0,0,0,5.84-2.23,9.27,9.27,0,0,0,1.94-6.29V87.34H215.1Z"/><path class="cls-2" d="M226.29,87.56c.78,0,1.49,0,2.11,0a18.6,18.6,0,0,1,2.93.25,6.08,6.08,0,0,1,3.33,1.82,5,5,0,0,1,1.3,3.49,5.21,5.21,0,0,1-.89,3,5.54,5.54,0,0,1-2.54,2,11,11,0,0,1-3.52.64l-.37,0,.24.28,7.72,9h-3.43L225.37,99V96.33l2.53,0a10.09,10.09,0,0,0,3.18-.37,3,3,0,0,0,1.53-1.12,2.85,2.85,0,0,0,.55-1.71,2.73,2.73,0,0,0-.55-1.67,3.11,3.11,0,0,0-1.45-1.08,8.81,8.81,0,0,0-2.73-.33h-4.06v18h-2.74V89.46a1.9,1.9,0,0,1,1.9-1.9Z"/><path class="cls-1" d="M147,88.76a2,2,0,0,0-3.74,0L136,107.93h3.09l2.1-5.7h7.91l2.1,5.71h3.09Zm-4.85,10.81,3-8.18,3,8.19Z"/><path class="cls-1" d="M161.75,90c-1.85,0-3.47,1.28-3.24,3.2a2.5,2.5,0,0,0,1.3,1.87,6.84,6.84,0,0,0,1.26.53l2,.7A12,12,0,0,1,166.64,98a5.19,5.19,0,0,1,1.72,3.87,6.4,6.4,0,0,1-6.7,6.38c-3.67,0-6.74-2.52-6.83-6.23h2.86c.37,2.53,2,3.66,4,3.66a3.51,3.51,0,0,0,3.78-3.36,2.89,2.89,0,0,0-1.63-2.65,8,8,0,0,0-1.17-.48l-1.6-.53A17.89,17.89,0,0,1,158,97.41a4.75,4.75,0,0,1-2.37-4.12c0-3.41,2.61-5.89,6.28-5.89a6.06,6.06,0,0,1,6.05,5.5H165A3.23,3.23,0,0,0,161.75,90Z"/></svg>