<?xml version="1.0" encoding="utf-8"?>
<!-- Generator: Adobe Illustrator 22.0.1, SVG Export Plug-In . SVG Version: 6.00 Build 0)  -->
<svg version="1.1" id="Layer_1" xmlns="http://www.w3.org/2000/svg" xmlns:xlink="http://www.w3.org/1999/xlink" x="0px" y="0px"
	 viewBox="0 0 32 32" style="enable-background:new 0 0 32 32;" xml:space="preserve">
<style type="text/css">
	.st0{fill:#696E75;}
</style>
<title>logo</title>
<path class="st0" d="M10.5,15.5v2.3h5.4c-0.4,2.6-2.6,4.5-5.2,4.5c-3.5,0-6.3-2.8-6.3-6.3c0-3.5,2.8-6.3,6.3-6.3
	c1.6,0,3.1,0.6,4.3,1.7l1.8-1.5C13.3,6.5,7.8,6.6,4.5,10s-3.3,8.8,0.1,12.2c1.6,1.6,3.8,2.5,6.1,2.5c4.6,0,7.9-3.5,7.9-8.2v-0.9
	L10.5,15.5z"/>
<polygon class="st0" points="30,15.6 26.7,15.6 26.7,12.3 24.6,12.3 24.6,15.6 21.3,15.6 21.3,17.7 24.6,17.7 24.6,21 26.7,21 
	26.7,17.7 30,17.7 "/>
</svg>
