<?xml version="1.0" encoding="utf-8"?>
<!-- Generator: Adobe Illustrator 22.0.1, SVG Export Plug-In . SVG Version: 6.00 Build 0)  -->
<svg version="1.1" id="Layer_1" xmlns="http://www.w3.org/2000/svg" xmlns:xlink="http://www.w3.org/1999/xlink" x="0px" y="0px"
	 viewBox="0 0 261.1 62.4" style="enable-background:new 0 0 261.1 62.4;" xml:space="preserve">
<style type="text/css">
	.st0{fill:#696E75;}
</style>
<g id="layer1" transform="translate(-650.86535,2.5176142)">
	<g id="g19554" transform="translate(17.716488,17.689108)">
		<path id="path19407" class="st0" d="M633.1,41.2h41.4V27.6h-24.4v-46.9h-17V41.2z"/>
		<path id="path19411" class="st0" d="M724.1,3.7h-22.8V-6h24.2v-13.2h-41.2v60.4h42.5V27.9h-25.5V16.8h22.8V3.7z"/>
		<path id="path19415" class="st0" d="M767,29.3c-8.3,0-13.3-7.6-13.3-18.4c0-10.5,5.1-18.4,13.3-18.4s13.1,7.9,13.1,18.3
			C780.1,21.8,775.3,29.3,767,29.3 M766.4,42.2c19.5,0,31.7-12.4,31.7-31.8c0-16.1-10.3-30.6-30.8-30.6c-19.5,0-31.5,14-31.5,31.5
			C735.8,28.1,746.7,42.2,766.4,42.2L766.4,42.2z"/>
		<path id="path19419" class="st0" d="M823.7,41.2V26.3c0-9.8-0.2-18.9-0.7-27.1h0.4c3,7.3,7.2,15.4,10.7,21.9l10.7,20.1h17.9v-60.4
			h-15.5V-5c0,9.1,0.4,17.5,1.3,25.5h-0.3c-2.8-7.1-6.7-15.1-10-21.1l-10.1-18.6h-20v60.4H823.7z"/>
		<path id="path19421" class="st0" d="M877.2,41.2h17v-60.4h-17V41.2z"/>
	</g>
</g>
</svg>
