<?xml version="1.0" encoding="utf-8"?>
<!-- Generator: Adobe Illustrator 22.0.1, SVG Export Plug-In . SVG Version: 6.00 Build 0)  -->
<svg version="1.1" id="Layer_1" xmlns="http://www.w3.org/2000/svg" xmlns:xlink="http://www.w3.org/1999/xlink" x="0px" y="0px"
	 viewBox="0 0 128.3 44" style="enable-background:new 0 0 128.3 44;" xml:space="preserve">
<style type="text/css">
	.st0{fill:#696E75;}
</style>
<g>
	<path class="st0" d="M0,12.1h29.8v-0.8V8.7V7.6h-3.7V6.1h-0.9c0,0-1.9,0.1-3.4-0.8c-1.4-0.8-1.7-1.7-1.7-1.7V2.5h-1.9
		C17.9,1.1,16.6,0,15.1,0s-2.8,1.1-3.2,2.5H10v1.2c0,0-0.3,0.8-1.7,1.7C6.8,6.2,4.9,6.1,4.9,6.1H3.7v1.5H0v1.1v2.6V12.1"/>
	<path class="st0" d="M0,21.9c0,2.2,0.4,4.3,0.9,6.5c1,4,2.9,7.4,6,10.3c2.3,2.2,5.1,3.8,7.8,5.4c0.1,0,0.2,0,0.3,0
		c1.9-1.1,3.8-2.2,5.6-3.5c3.8-2.8,6.4-6.3,7.8-10.8c1-3.1,1.3-6.4,1.3-9.6c0-1.7,0-4.7,0-6.4H0C0,15.9,0,19.6,0,21.9 M12.7,23.9
		l2.2-6.7l2.2,6.7h7L18.4,28l2.2,6.7l-5.7-4.1l-5.7,4.1l2.2-6.7l-5.7-4.1H12.7z"/>
	<path class="st0" d="M47.7,26.6c0.8-1.1,1.3-2.7,1.3-4.8v-5.6c0-0.9,0.1-1.6,0.2-1.9c0.1-0.3,0.4-0.6,0.9-0.8
		c0.2-0.1,0.3-0.2,0.3-0.3c0-0.2-0.1-0.3-0.3-0.3c-0.1,0-0.2,0-0.5,0c-0.2,0-0.7,0-1.6,0c-0.4,0-0.7,0-1-0.1s-0.6-0.1-0.7-0.1
		c-0.1,0-0.2,0-0.2,0.1C46,12.9,46,12.9,46,13s0.1,0.3,0.4,0.3c0.6,0.1,1.1,0.3,1.3,0.7c0.3,0.4,0.4,1.1,0.4,2v6
		c0,2-0.4,3.4-1.3,4.4c-0.9,1-2.2,1.5-4,1.5c-2,0-3.4-0.6-4.2-1.7c-0.6-0.8-0.9-2.2-0.9-4.1v-5.7v-0.7c0-0.7,0.1-1.2,0.2-1.5
		c0.1-0.3,0.4-0.4,0.8-0.5c0.3-0.1,0.4-0.2,0.4-0.3s0-0.2-0.3-0.2c-0.1,0-0.3,0-0.6,0s-0.5,0-0.6,0h-0.9h-0.9c-0.2,0-0.4,0-0.8,0
		c-0.3,0-0.6,0-0.8,0c-0.4,0-0.5,0.2-0.5,0.3s0.1,0.3,0.4,0.3c0.7,0.1,1.1,0.3,1.3,0.6s0.3,0.8,0.3,1.6v0.6v5.8
		c0,1.6,0.3,2.9,0.8,3.9c0.5,0.9,1.3,1.6,2.3,2.1s2.2,0.8,3.5,0.8c1.1,0,2.2-0.2,3.1-0.6C46.4,27.8,47.2,27.3,47.7,26.6"/>
	<path class="st0" d="M56.8,14.3c0.3,0,0.5,0.1,0.5,0.1s0.1,0.1,0.1,0.5v0.3v11.3c0,0.6-0.1,1-0.3,1.3c-0.2,0.2-0.6,0.4-1.1,0.5
		c-0.3,0-0.4,0.1-0.4,0.3c0,0.1,0.1,0.3,0.4,0.3c0.1,0,0.3,0,0.8-0.1c0.2,0,0.5,0,0.8,0h0.9h0.8c0.5,0,0.9,0,1,0
		c0.3,0,0.5,0.1,0.6,0.1c0.3,0,0.4-0.2,0.4-0.3c0-0.2-0.2-0.3-0.5-0.3c-0.9-0.2-1.4-0.7-1.4-1.5v-0.4V15c0-0.4,0.1-0.6,0.1-0.6
		s0.2-0.1,0.6-0.1h3.2c0.6,0,1,0.1,1.2,0.2l0,0c0.2,0.2,0.4,0.5,0.4,1c0.1,0.3,0.2,0.4,0.3,0.4c0.1,0,0.3-0.1,0.3-0.4
		c0-0.1,0-0.3-0.1-0.6c0-0.2-0.1-0.5-0.1-1c0-0.6-0.1-0.8-0.2-0.9c0,0-0.2,0-0.7,0H52.2c-0.3,0-0.5,0.1-0.6,0.2
		c-0.1,0.1-0.1,0.4-0.1,0.7s-0.1,0.8-0.2,1.3c-0.1,0.4-0.1,0.7-0.1,0.9c0,0.3,0.2,0.4,0.3,0.4c0.3,0,0.4-0.4,0.4-0.5
		c0.1-0.7,0.4-1.1,0.6-1.4c0.3-0.2,0.7-0.4,1.3-0.4L56.8,14.3L56.8,14.3z"/>
	<path class="st0" d="M82.9,28.7c0.2,0,0.4,0,0.5,0h0.8H85c0.6,0,0.9,0,1.1,0c0.5,0.1,0.8,0.1,0.9,0s0.1-0.1,0.1-0.2
		c0-0.2-0.2-0.3-0.4-0.3c-0.6-0.1-1-0.2-1.3-0.5c-0.2-0.3-0.3-0.8-0.3-1.6V15c0-0.4,0.1-0.7,0.2-1s0.3-0.4,0.5-0.5l0.5-0.1
		c0.3-0.1,0.3-0.2,0.3-0.3s0-0.3-0.3-0.3c-0.1,0-0.2,0-0.4,0c-0.3,0-0.9,0.1-1.7,0.1c-0.6,0-1.1,0-1.6-0.1c-0.4,0-0.6-0.1-0.8-0.1
		c-0.3,0-0.4,0.2-0.4,0.3s0.1,0.3,0.4,0.3c0.5,0.1,0.9,0.3,1.1,0.6s0.3,0.9,0.3,1.6v3.9c0,0.2,0,0.3-0.1,0.4C83.2,20,83,20,82.6,20
		H76c-0.6,0-0.8-0.1-0.8-0.1l0,0c0,0-0.1-0.2-0.1-0.7v-4.1c0-0.5,0.1-0.9,0.2-1.2c0.2-0.2,0.5-0.4,1-0.5c0.2-0.1,0.4-0.2,0.4-0.3
		s-0.1-0.3-0.4-0.3c-0.1,0-0.3,0-0.5,0c-0.5,0.1-1,0.1-1.5,0.1c-0.8,0-1.5,0-2.1-0.1c-0.3,0-0.5-0.1-0.7-0.1c-0.1,0-0.2,0-0.3,0.1
		c-0.1,0.1-0.1,0.1-0.1,0.2c0,0.1,0.1,0.3,0.4,0.3c0.6,0.1,1.1,0.3,1.3,0.6c0.2,0.3,0.4,0.7,0.4,1.4v9.8c0,1-0.1,1.8-0.2,2.2
		c-0.1,0.4-0.3,0.6-0.6,0.7l-0.6,0.1c-0.3,0.1-0.4,0.2-0.4,0.3c0,0.1,0,0.3,0.4,0.3c0.1,0,0.3,0,0.7-0.1c0.3,0,0.5,0,0.7,0h0.7h1
		c0.7,0,1.1,0,1.4,0.1c0.3,0,0.5,0.1,0.6,0.1c0.2,0,0.3,0,0.3-0.1s0.1-0.1,0.1-0.2c0-0.2-0.2-0.3-0.5-0.4c-0.7-0.1-1.1-0.3-1.3-0.6
		c-0.2-0.3-0.4-0.8-0.4-1.6v-4.2c0-0.4,0.1-0.6,0.1-0.6C75.3,21,75.4,21,76,21h6.7c0.5,0,0.6,0.1,0.6,0.1s0.1,0.1,0.1,0.6v4.2v0.4
		c0,1.1-0.4,1.7-1.1,1.9c-0.3,0-0.4,0.2-0.4,0.3c0,0.1,0,0.2,0.1,0.2c0.1,0.1,0.1,0.1,0.2,0.1l0,0C82.2,28.8,82.4,28.7,82.9,28.7"/>
	<path class="st0" d="M116.4,27.4L116.4,27.4l-0.7,0.3c-0.3,0.2-0.7,0.2-1.1,0.2c-0.6,0-1-0.2-1.3-0.5c-0.2-0.2-0.3-0.7-0.3-1.4
		v-5.6h2.6c0.3,0,0.5-0.1,0.6-0.4l0.3-0.6c0.1-0.2,0.1-0.3,0.1-0.3c0-0.1,0-0.1-0.1-0.2h-0.1c-0.1,0-0.2,0.1-0.3,0.1
		c-0.2,0.1-0.4,0.2-0.7,0.2H113v-1.9c0-0.3-0.1-0.4-0.2-0.4s-0.2,0.1-0.5,0.5c-0.5,0.7-1.1,1.5-2,2.2c-0.2,0.2-0.3,0.3-0.3,0.5
		c0,0.1,0.1,0.2,0.4,0.2h0.9V26c0,1.9,0.9,2.8,2.7,2.8c0.5,0,1.1-0.1,1.7-0.4s0.9-0.6,0.9-0.9C116.6,27.5,116.5,27.4,116.4,27.4"/>
	<path class="st0" d="M91,19.6c0.6,0,1.1,0.2,1.6,0.7s0.7,1,0.7,1.6c0,0.2-0.4,0.3-0.8,0.3h-3.8c0.1-0.8,0.4-1.4,0.7-1.9l0,0
		C89.9,19.8,90.4,19.6,91,19.6 M95.2,26.5c-0.1,0-0.1,0-0.2,0.1c-1,0.7-1.8,1.1-2.7,1.1c-1,0-1.9-0.4-2.6-1.3s-1.1-1.9-1.1-3.2V23
		h4.2h0.8h0.8c0.5,0,0.8-0.2,0.8-0.4c0-0.2-0.1-0.5-0.3-0.9c-0.2-0.4-0.4-0.8-0.6-1.1c-0.8-1.1-1.8-1.6-3.1-1.6
		c-1.2,0-2.2,0.5-3.1,1.5s-1.3,2.2-1.3,3.5c0,1.4,0.4,2.6,1.3,3.5c0.8,0.9,1.9,1.4,3.2,1.4c1.1,0,2.2-0.4,3.2-1.2
		c0.6-0.4,0.8-0.8,0.8-1C95.3,26.6,95.3,26.5,95.2,26.5C95.3,26.5,95.3,26.5,95.2,26.5"/>
	<path class="st0" d="M109.8,28c-0.7-0.1-1.2-0.4-1.4-0.7c-0.1-0.3-0.2-0.8-0.2-1.4V12.6v-0.4l0,0c0-0.3,0-0.4-0.1-0.5H108
		c-0.1,0-0.2,0-0.3,0.1c-0.2,0.1-0.6,0.3-1.1,0.5l-0.7,0.3c-0.2,0.1-0.4,0.2-0.7,0.2c-0.2,0.1-0.3,0.2-0.3,0.3s0,0.2,0.2,0.3
		c0.1,0,0.1,0,0.2,0l0,0h0.6c0.4,0,0.7,0.3,0.7,1V27c0,0.3-0.1,0.6-0.2,0.7s-0.3,0.3-0.6,0.4c-0.3,0.1-0.4,0.2-0.4,0.4
		c0,0.1,0.1,0.3,0.4,0.3c0,0,0.1,0,0.4-0.1c0.2,0,0.6,0,1.3,0h1.6c0.2,0,0.4,0,0.5,0s0.2,0,0.3,0c0.1,0,0.2,0,0.2-0.1
		c0.1-0.1,0.1-0.1,0.1-0.2C110.2,28.2,110,28.1,109.8,28"/>
	<path class="st0" d="M99,24.9c0.6-0.4,1.5-0.7,2.6-0.8v2.2c0,0.5-0.1,1-0.4,1.2c-0.4,0.4-0.9,0.6-1.5,0.6c-0.5,0-0.9-0.1-1.2-0.4
		c-0.3-0.3-0.4-0.7-0.4-1.2C98.1,25.8,98.4,25.3,99,24.9 M104.9,27.9c-0.1,0-0.1,0-0.3,0c-0.1,0-0.1,0-0.3,0c-0.4,0-0.6-0.1-0.8-0.4
		c-0.2-0.3-0.2-0.8-0.2-1.5v-4.4c0-0.9-0.3-1.5-0.9-2s-1.4-0.7-2.4-0.7c-1.1,0-2.1,0.4-2.8,1.1c-0.5,0.6-0.8,1.1-0.8,1.6
		c0,0.2,0.2,0.4,0.5,0.6s0.6,0.2,1,0.2c0.1,0,0.2,0,0.2-0.1c0,0,0.1-0.1,0.1-0.2s0-0.2-0.1-0.4C98,21.4,98,21.1,98,20.9
		c0-0.8,0.5-1.2,1.4-1.2c0.7,0,1.3,0.2,1.7,0.7c0.3,0.3,0.5,0.9,0.5,1.7v1.3c-1.9,0.3-3.2,0.7-4,1.2s-1.2,1.2-1.2,2.1
		c0,0.7,0.2,1.2,0.7,1.6c0.4,0.4,1,0.6,1.7,0.6c0.9,0,1.9-0.4,3-1.2c0.5,0.7,1.1,1.1,1.7,1.1c0.3,0,0.7-0.1,1.1-0.2
		c0.4-0.2,0.6-0.3,0.6-0.5c0-0.1,0-0.1-0.1-0.2C105.1,27.9,105,27.9,104.9,27.9"/>
	<path class="st0" d="M127.9,28.2c-0.6-0.1-1-0.2-1.2-0.4c-0.2-0.2-0.3-0.6-0.3-1.1V23c0-1.2-0.3-2.2-1-2.9
		c-0.7-0.7-1.6-1.1-2.6-1.1c-1.1,0-2.2,0.6-3.1,1.7V13c0-0.3,0-0.4,0-0.6c0-0.1,0-0.2,0-0.3c0-0.3-0.2-0.3-0.3-0.3
		c-0.1,0-0.2,0-0.3,0.1l-0.9,0.4c-0.6,0.3-1.1,0.5-1.6,0.6c-0.2,0.1-0.3,0.2-0.3,0.3s0.1,0.2,0.1,0.2c0.1,0,0.1,0,0.2,0l0,0h0.6
		c0.2,0,0.3,0,0.4,0.1c0.2,0.2,0.3,0.6,0.3,1.1v11.8c0,0.8-0.1,1.1-0.1,1.2c-0.1,0.2-0.4,0.3-0.8,0.4c-0.3,0.1-0.3,0.2-0.3,0.4
		c0,0.1,0.1,0.2,0.4,0.2c0.1,0,0.3,0,0.5,0c0.6,0,1-0.1,1.3-0.1c0.9,0,1.5,0,1.7,0c0.3,0,0.5,0.1,0.6,0.1c0.3,0,0.3-0.2,0.3-0.3
		c0-0.2-0.2-0.3-0.4-0.3c-0.7-0.1-1.1-0.2-1.2-0.4c-0.2-0.2-0.2-0.7-0.2-1.5v-4.4c0-0.5,0.2-0.9,0.7-1.3s1.1-0.6,1.7-0.6
		c0.8,0,1.4,0.3,1.9,0.8s0.7,1.3,0.7,2.2v3.8V27c0,0.4-0.1,0.6-0.1,0.6c-0.1,0.1-0.2,0.2-0.7,0.4c-0.2,0.1-0.3,0.2-0.3,0.3
		c0,0.1,0.1,0.3,0.4,0.3c0.1,0,0.2,0,0.4,0c0.3,0,0.8-0.1,1.5-0.1c0.4,0,0.9,0,1.4,0.1c0.3,0,0.5,0,0.6,0c0.3,0,0.4-0.2,0.4-0.3
		C128.3,28.4,128.2,28.2,127.9,28.2"/>
	<path class="st0" d="M38.3,37.6c-0.7-0.2-1.1-0.4-1.3-0.5s-0.3-0.2-0.5-0.4s-0.3-0.5-0.3-0.8s0.1-0.6,0.4-0.9
		c0.3-0.2,0.6-0.3,1-0.3c0.5,0,0.9,0.1,1.3,0.4c0.4,0.3,0.7,0.6,0.8,1c0.1,0.2,0.1,0.3,0.2,0.3c0.1,0,0.1,0,0.1-0.2c0,0,0-0.1,0-0.2
		v-0.7c0-0.3-0.1-0.5-0.1-0.6s0-0.2-0.1-0.3h-0.1h-0.1l-0.1,0.1c-0.1,0.1-0.1,0.1-0.2,0l-0.4-0.2c-0.3-0.1-0.6-0.2-1-0.2
		c-0.7,0-1.3,0.2-1.7,0.6c-0.4,0.4-0.7,0.9-0.7,1.5c0,0.5,0.2,1,0.5,1.3s0.9,0.6,1.7,0.9c0.8,0.3,1.3,0.5,1.4,0.6
		c0.3,0.3,0.5,0.6,0.5,1s-0.2,0.8-0.5,1.1s-0.8,0.4-1.3,0.4s-1-0.2-1.4-0.5s-0.7-0.7-0.8-1.1c-0.1-0.2-0.1-0.3-0.2-0.3h-0.1
		c0,0,0,0.1,0,0.2c0,0.1,0,0.4,0.1,0.7s0.1,0.5,0.1,0.5c0,0.2,0.1,0.3,0.1,0.4c0,0.1,0.1,0.1,0.1,0.2c0.2,0.1,0.4,0.2,0.8,0.3
		c0.3,0.1,0.7,0.1,0.9,0.1c0.8,0,1.4-0.2,2-0.7c0.5-0.4,0.8-1,0.8-1.7C40.4,38.8,39.7,38,38.3,37.6"/>
	<path class="st0" d="M42.4,40.2c0.3-0.2,0.7-0.3,1.3-0.4v1.1c0,0.3-0.1,0.5-0.2,0.6c-0.2,0.2-0.5,0.3-0.8,0.3
		c-0.2,0-0.4-0.1-0.6-0.2C42,41.4,42,41.2,42,41C42,40.7,42.1,40.4,42.4,40.2 M45.3,41.7L45.3,41.7h-0.2c-0.2,0-0.3-0.1-0.4-0.2
		c-0.1-0.1-0.1-0.4-0.1-0.7v-2.2c0-0.4-0.1-0.7-0.4-1c-0.3-0.2-0.7-0.3-1.2-0.3c-0.6,0-1,0.2-1.3,0.5s-0.4,0.5-0.4,0.8
		c0,0.1,0.1,0.2,0.2,0.3C41.6,39,41.8,39,42,39h0.1v-0.1c0-0.1,0-0.1,0-0.2c0-0.2-0.1-0.3-0.1-0.4c0-0.4,0.2-0.6,0.7-0.6
		c0.4,0,0.6,0.1,0.8,0.3s0.2,0.4,0.2,0.9v0.7c-0.9,0.1-1.6,0.3-1.9,0.6c-0.4,0.2-0.6,0.6-0.6,1c0,0.3,0.1,0.6,0.3,0.8
		s0.5,0.3,0.8,0.3c0.5,0,1-0.2,1.5-0.6c0.2,0.4,0.5,0.6,0.8,0.6c0.2,0,0.3,0,0.5-0.1s0.3-0.1,0.3-0.2C45.4,41.8,45.4,41.7,45.3,41.7
		C45.4,41.7,45.3,41.7,45.3,41.7"/>
	<path class="st0" d="M51.3,41.8h-0.2c-0.3,0-0.4-0.2-0.4-0.4v-0.3v-0.2v-1.3c0-0.7-0.1-1.2-0.4-1.5c-0.3-0.5-0.8-0.7-1.4-0.7
		c-0.5,0-1,0.3-1.5,0.8v-0.5c0-0.1,0-0.2,0-0.2c0-0.1,0-0.1,0-0.2c0,0-0.1,0-0.2,0c0,0-0.1,0-0.2,0.1l-0.3,0.1
		c-0.2,0.1-0.5,0.2-0.7,0.2c-0.1,0-0.2,0.1-0.2,0.1s0,0.1,0.1,0.1H46h0.2c0.2,0,0.3,0,0.3,0.1c0.1,0.1,0.1,0.3,0.1,0.5V41
		c0,0.2,0,0.4-0.1,0.4c-0.1,0.1-0.2,0.2-0.4,0.2C46,41.9,46,41.9,46,42v0.1h0.1c0,0,0.1,0,0.2,0c0.1,0,0.5,0,1,0c0.3,0,0.4,0,0.5,0
		s0.2,0,0.3,0s0.2-0.1,0.2-0.1c0-0.1-0.1-0.1-0.2-0.1c-0.5,0-0.7-0.2-0.7-0.5V41v-2.1c0-0.2,0.1-0.4,0.3-0.6
		c0.2-0.2,0.5-0.3,0.8-0.3c0.4,0,0.8,0.1,1,0.4c0.2,0.3,0.3,0.7,0.3,1.2v1.9c0,0.2-0.1,0.3-0.2,0.4h-0.2c-0.1,0-0.1,0.1-0.1,0.1
		c0,0.1,0,0.1,0.1,0.1h0.1h0.2h0.2h0.5c0.3,0,0.6,0,0.7,0c0.1,0,0.2,0,0.2,0c0.1,0,0.1,0,0.2-0.1v-0.1
		C51.5,41.9,51.5,41.8,51.3,41.8"/>
	<path class="st0" d="M84.3,41.8H84c-0.2,0-0.3-0.1-0.3-0.2c-0.1-0.1-0.1-0.3-0.1-0.5v-3.7c0-0.1-0.1-0.2-0.1-0.2l0,0l-0.3,0.1
		c-0.3,0.2-0.6,0.3-0.8,0.4c-0.2,0.1-0.3,0.1-0.3,0.2c0,0,0,0,0,0.1c0,0,0.1,0.1,0.2,0.1c0.2,0,0.3,0,0.4,0.1s0.1,0.3,0.1,0.6v2.4
		c0,0.2,0,0.4-0.1,0.5c0,0.1-0.1,0.2-0.2,0.2h-0.1c-0.1,0-0.1,0.1-0.1,0.1c0,0.1,0,0.1,0.2,0.1c0,0,0.1,0,0.2,0c0,0,0.1,0,0.2,0h0.4
		h0.4c0.2,0,0.3,0,0.4,0c0.2,0,0.3,0,0.4,0s0.2-0.1,0.2-0.1C84.5,41.9,84.4,41.8,84.3,41.8"/>
	<path class="st0" d="M81.5,41.8h-0.2c-0.3,0-0.4-0.2-0.4-0.4v-0.3v-0.2v-1.3c0-0.7-0.1-1.2-0.4-1.5c-0.3-0.5-0.8-0.7-1.4-0.7
		c-0.5,0-1,0.3-1.5,0.8v-0.5c0-0.1,0-0.2,0-0.2c0-0.1,0-0.1,0-0.2c0,0-0.1,0-0.2,0c0,0-0.1,0-0.2,0.1l-0.3,0.1
		c-0.2,0.1-0.5,0.2-0.7,0.2c-0.1,0-0.2,0.1-0.2,0.1s0,0.1,0.1,0.1h0.1h0.2c0.2,0,0.3,0,0.3,0.1c0.1,0.1,0.1,0.3,0.1,0.5V41
		c0,0.2,0,0.4-0.1,0.4c-0.1,0.1-0.2,0.2-0.4,0.2c-0.1,0-0.1,0.1-0.1,0.1v0.1h0.1c0,0,0.1,0,0.2,0s0.5,0,1,0c0.3,0,0.4,0,0.5,0
		s0.2,0,0.3,0c0.1,0,0.2-0.1,0.2-0.1c0-0.1-0.1-0.1-0.2-0.1c-0.5,0-0.7-0.2-0.7-0.5v-0.4v-2.1c0-0.2,0.1-0.4,0.3-0.6
		c0.2-0.2,0.5-0.3,0.8-0.3c0.4,0,0.8,0.1,1,0.4c0.2,0.3,0.3,0.7,0.3,1.2v1.9c0,0.2-0.1,0.3-0.2,0.4h-0.2c-0.1,0-0.1,0.1-0.1,0.1
		c0,0.1,0,0.1,0.1,0.1h0.1h0.2h0.2h0.5c0.3,0,0.6,0,0.7,0S81.5,41.8,81.5,41.8c0.1,0,0.1,0,0.2-0.1v-0.1
		C81.7,41.9,81.7,41.8,81.5,41.8"/>
	<path class="st0" d="M74.6,40c0,0.6-0.1,1-0.4,1.3s-0.6,0.5-1.1,0.5s-0.9-0.2-1.3-0.7c-0.3-0.5-0.5-1.1-0.5-1.8
		c0-0.5,0.1-1,0.4-1.3s0.6-0.5,1.1-0.5s0.9,0.2,1.3,0.7C74.4,38.7,74.6,39.3,74.6,40 M73,37.3c-0.7,0-1.3,0.2-1.8,0.7
		s-0.7,1.1-0.7,1.7c0,0.7,0.2,1.3,0.7,1.7s1,0.7,1.8,0.7c0.7,0,1.3-0.2,1.8-0.7s0.7-1.1,0.7-1.8s-0.2-1.2-0.7-1.7
		C74.2,37.6,73.7,37.3,73,37.3"/>
	<path class="st0" d="M83.2,35c-0.1,0-0.2,0.1-0.3,0.2c-0.1,0.2-0.2,0.3-0.2,0.4c0,0.1,0.1,0.2,0.2,0.4s0.2,0.2,0.3,0.2
		c0.1,0,0.2-0.1,0.3-0.2c0.1-0.2,0.2-0.3,0.2-0.4c0,0,0-0.1-0.1-0.2l-0.1-0.2C83.4,35.1,83.3,35,83.2,35"/>
	<path class="st0" d="M58.1,38.5c0,0.1-0.1,0.1-0.2,0.1h-1.7H56c-0.2,0-0.2-0.1-0.2-0.1s0-0.1,0.1-0.2l1.1-2.4
		c0-0.1,0.1-0.1,0.1-0.1s0.1,0,0.1,0.2l0.9,2.3v0.1l0,0C58.1,38.4,58.1,38.4,58.1,38.5 M61.1,41.8c-0.3-0.1-0.6-0.1-0.7-0.3
		c-0.1-0.1-0.3-0.4-0.4-0.8l-0.1-0.3l-2.4-6.1c0-0.1-0.1-0.2-0.2-0.2c-0.1,0-0.1,0.1-0.2,0.2l-2.8,6.3L54.1,41
		c-0.1,0.2-0.2,0.3-0.3,0.5c-0.2,0.2-0.2,0.2-0.3,0.3l-0.2,0.1c-0.1,0-0.1,0.1-0.1,0.1s0,0.1,0.2,0.1c0,0,0,0,0.3,0
		c0.1,0,0.1,0,0.2,0c0.2,0,0.4,0,0.6,0H55c0.1,0,0.1,0,0.2,0c0.1,0,0.1,0,0.2,0c0,0,0,0,0-0.1s-0.1-0.1-0.2-0.2
		c-0.2-0.1-0.4-0.1-0.5-0.2c-0.1-0.1-0.1-0.2-0.1-0.4s0.1-0.5,0.2-0.8l0.4-0.8c0.1-0.3,0.2-0.4,0.3-0.4c0,0,0.2-0.1,0.5-0.1h2
		c0.3,0,0.3,0,0.4,0c0,0,0.1,0.1,0.2,0.3l0.3,0.7c0.2,0.6,0.3,1,0.3,1.2s-0.1,0.3-0.3,0.3h-0.2c-0.1,0-0.2,0.1-0.2,0.1
		c0,0.1,0,0.1,0.2,0.1c0,0,0.1,0,0.2,0c0.1,0,0.4,0,1,0c0.5,0,0.8,0,1,0C61,41.8,61.1,41.8,61.1,41.8c0.1,0,0.2-0.1,0.2-0.1
		C61.3,41.9,61.2,41.8,61.1,41.8"/>
	<path class="st0" d="M88.9,40c0,0.6-0.1,1-0.4,1.3s-0.6,0.5-1.1,0.5s-0.9-0.2-1.3-0.7c-0.3-0.5-0.5-1.1-0.5-1.8
		c0-0.5,0.1-1,0.4-1.3s0.6-0.5,1.1-0.5s0.9,0.2,1.3,0.7C88.7,38.7,88.9,39.3,88.9,40 M87.3,37.3c-0.7,0-1.3,0.2-1.8,0.7
		s-0.7,1.1-0.7,1.7c0,0.7,0.2,1.3,0.7,1.7s1,0.7,1.8,0.7c0.7,0,1.3-0.2,1.8-0.7s0.7-1.1,0.7-1.8s-0.2-1.2-0.7-1.7
		C88.5,37.6,87.9,37.3,87.3,37.3"/>
	<path class="st0" d="M66.8,41.8h-0.2c-0.3,0-0.4-0.2-0.4-0.4v-0.3v-0.2v-1.3c0-0.7-0.1-1.2-0.4-1.5c-0.3-0.5-0.8-0.7-1.4-0.7
		c-0.5,0-1,0.3-1.5,0.8v-0.5c0-0.1,0-0.2,0-0.2c0-0.1,0-0.1,0-0.2c0,0-0.1,0-0.2,0c0,0-0.1,0.1-0.2,0.1l-0.3,0.1
		c-0.2,0.1-0.5,0.2-0.7,0.2c-0.1,0-0.2,0.1-0.2,0.1s0,0.1,0.1,0.1h0.1h0.2c0.2,0,0.3,0,0.3,0.1c0.1,0.1,0.1,0.3,0.1,0.5V41
		c0,0.2,0,0.4-0.1,0.4c-0.1,0.1-0.2,0.2-0.4,0.2c-0.1,0-0.1,0.1-0.1,0.1v0.1h0.1c0,0,0.1,0,0.2,0c0.1,0,0.5,0,1,0c0.3,0,0.4,0,0.5,0
		s0.2,0,0.3,0s0.2-0.1,0.2-0.1c0-0.1-0.1-0.1-0.2-0.1c-0.5,0-0.7-0.2-0.7-0.5v-0.4v-2.1c0-0.2,0.1-0.4,0.3-0.6
		c0.2-0.2,0.5-0.3,0.8-0.3c0.4,0,0.8,0.1,1,0.4c0.2,0.3,0.3,0.7,0.3,1.2v1.9c0,0.2-0.1,0.3-0.2,0.4h-0.2c-0.1,0-0.1,0.1-0.1,0.1
		c0,0.1,0,0.1,0.1,0.1H65h0.2h0.2h0.5c0.3,0,0.6,0,0.7,0S66.8,41.8,66.8,41.8c0.1,0,0.1,0,0.2-0.1v-0.1C67,41.9,67,41.8,66.8,41.8"
		/>
	<path class="st0" d="M70.3,41.5L70.3,41.5L70,41.6c-0.2,0.1-0.3,0.1-0.6,0.1c-0.3,0-0.5-0.1-0.6-0.2c-0.1-0.1-0.1-0.3-0.1-0.7V38
		H70c0.1,0,0.2-0.1,0.3-0.2l0.1-0.3c0-0.1,0.1-0.1,0.1-0.1v-0.1c0,0,0,0-0.1,0c0,0-0.1,0-0.1,0.1c-0.1,0.1-0.2,0.1-0.4,0.1h-1.1
		v-0.9c0-0.1-0.1-0.2-0.1-0.2s-0.1,0-0.2,0.3c-0.2,0.4-0.6,0.7-1,1.1c-0.1,0.1-0.2,0.2-0.2,0.2c0,0.1,0,0.1,0.2,0.1H68v2.8
		c0,0.9,0.4,1.4,1.3,1.4c0.3,0,0.5-0.1,0.8-0.2C70.3,41.8,70.4,41.7,70.3,41.5C70.4,41.5,70.4,41.5,70.3,41.5"/>
	<polygon class="st0" points="17.8,43 18.5,43 18.5,43.1 18.2,43.1 18.2,44 18.1,44 18.1,43.1 17.8,43.1 	"/>
	<polygon class="st0" points="18.6,44 18.6,43 18.8,43 19.1,43.9 19.1,43.9 19.4,43 19.6,43 19.6,44 19.5,44 19.5,43.1 19.5,43.1 
		19.2,44 19.1,44 18.7,43.1 18.7,43.1 18.7,44 	"/>
</g>
</svg>
