<?xml version="1.0" encoding="utf-8"?>
<!-- Generator: Adobe Illustrator 22.0.1, SVG Export Plug-In . SVG Version: 6.00 Build 0)  -->
<svg version="1.1" id="Layer_1" xmlns="http://www.w3.org/2000/svg" xmlns:xlink="http://www.w3.org/1999/xlink" x="0px" y="0px"
	 viewBox="0 0 1688 1466.4" style="enable-background:new 0 0 1688 1466.4;" xml:space="preserve">
<style type="text/css">
	.st0{filter:url(#Adobe_OpacityMaskFilter);}
	.st1{fill:url(#SVGID_2_);}
	.st2{opacity:0.5;mask:url(#SVGID_1_);}
	.st3{fill:none;stroke:#FFFFFF;stroke-linecap:round;stroke-linejoin:round;stroke-miterlimit:10;}
	.st4{fill:none;stroke:url(#SVGID_3_);stroke-width:2;stroke-miterlimit:10;stroke-dasharray:5.0345,10.0691;}
	.st5{fill:none;stroke:url(#SVGID_4_);stroke-linecap:round;stroke-linejoin:round;stroke-miterlimit:10;}
	.st6{fill:none;stroke:url(#SVGID_5_);stroke-linecap:round;stroke-linejoin:round;stroke-miterlimit:10;}
	.st7{fill:none;stroke:url(#SVGID_6_);stroke-linecap:round;stroke-linejoin:round;stroke-miterlimit:10;}
	.st8{fill:none;stroke:url(#SVGID_7_);stroke-linecap:round;stroke-linejoin:round;stroke-miterlimit:10;}
	.st9{fill:none;stroke:url(#SVGID_8_);stroke-linecap:round;stroke-linejoin:round;stroke-miterlimit:10;}
	.st10{fill:none;stroke:url(#SVGID_9_);stroke-linecap:round;stroke-linejoin:round;stroke-miterlimit:10;}
	.st11{fill:none;stroke:url(#SVGID_10_);stroke-linecap:round;stroke-linejoin:round;stroke-miterlimit:10;}
	.st12{fill:none;stroke:url(#SVGID_11_);stroke-linecap:round;stroke-linejoin:round;stroke-miterlimit:10;}
	.st13{fill:none;stroke:url(#SVGID_12_);stroke-linecap:round;stroke-linejoin:round;stroke-miterlimit:10;}
	.st14{fill:none;stroke:url(#SVGID_13_);stroke-linecap:round;stroke-linejoin:round;stroke-miterlimit:10;}
	.st15{fill:none;stroke:url(#SVGID_14_);stroke-linecap:round;stroke-linejoin:round;stroke-miterlimit:10;}
	.st16{fill:none;stroke:url(#SVGID_15_);stroke-linecap:round;stroke-linejoin:round;stroke-miterlimit:10;}
	.st17{fill:none;stroke:url(#SVGID_16_);stroke-linecap:round;stroke-linejoin:round;stroke-miterlimit:10;}
	.st18{fill:none;stroke:url(#SVGID_17_);stroke-linecap:round;stroke-linejoin:round;stroke-miterlimit:10;}
	.st19{fill:none;stroke:url(#SVGID_18_);stroke-linecap:round;stroke-linejoin:round;stroke-miterlimit:10;}
	.st20{fill:none;stroke:url(#SVGID_19_);stroke-linecap:round;stroke-linejoin:round;stroke-miterlimit:10;}
	.st21{fill:none;stroke:url(#SVGID_20_);stroke-linecap:round;stroke-linejoin:round;stroke-miterlimit:10;}
	.st22{fill:none;stroke:url(#SVGID_21_);stroke-linecap:round;stroke-linejoin:round;stroke-miterlimit:10;}
	.st23{fill:none;stroke:url(#SVGID_22_);stroke-linecap:round;stroke-linejoin:round;stroke-miterlimit:10;}
	.st24{fill:none;stroke:url(#SVGID_23_);stroke-linecap:round;stroke-linejoin:round;stroke-miterlimit:10;}
	.st25{fill:none;stroke:url(#SVGID_24_);stroke-linecap:round;stroke-linejoin:round;stroke-miterlimit:10;}
	.st26{fill:none;stroke:url(#SVGID_25_);stroke-linecap:round;stroke-linejoin:round;stroke-miterlimit:10;}
	.st27{fill:none;stroke:url(#SVGID_26_);stroke-linecap:round;stroke-linejoin:round;stroke-miterlimit:10;}
	.st28{fill:none;stroke:url(#SVGID_27_);stroke-linecap:round;stroke-linejoin:round;stroke-miterlimit:10;}
	.st29{fill:none;stroke:url(#SVGID_28_);stroke-linecap:round;stroke-linejoin:round;stroke-miterlimit:10;}
	.st30{fill:none;stroke:url(#SVGID_29_);stroke-linecap:round;stroke-linejoin:round;stroke-miterlimit:10;}
	.st31{fill:none;stroke:url(#SVGID_30_);stroke-linecap:round;stroke-linejoin:round;stroke-miterlimit:10;}
	.st32{fill:none;stroke:url(#SVGID_31_);stroke-linecap:round;stroke-linejoin:round;stroke-miterlimit:10;}
	.st33{fill:none;stroke:url(#SVGID_32_);stroke-linecap:round;stroke-linejoin:round;stroke-miterlimit:10;}
	.st34{fill:none;stroke:url(#SVGID_33_);stroke-linecap:round;stroke-linejoin:round;stroke-miterlimit:10;}
	.st35{fill:none;stroke:url(#SVGID_34_);stroke-linecap:round;stroke-linejoin:round;stroke-miterlimit:10;}
	.st36{fill:none;stroke:url(#SVGID_35_);stroke-linecap:round;stroke-linejoin:round;stroke-miterlimit:10;}
	.st37{fill:none;stroke:#FFFFFF;stroke-width:2;stroke-miterlimit:10;}
	.st38{fill:#FFFFFF;}
	.st39{fill-rule:evenodd;clip-rule:evenodd;fill:#FFFFFF;}
	.st40{clip-path:url(#XMLID_4_);}
	.st41{fill:none;stroke:#FFFFFF;stroke-width:2;stroke-linecap:round;stroke-linejoin:round;stroke-miterlimit:10;}
	
		.st42{fill-rule:evenodd;clip-rule:evenodd;fill:#FFFFFF;stroke:#FFFFFF;stroke-width:2;stroke-linecap:round;stroke-linejoin:round;stroke-miterlimit:10;}
	
		.st43{fill-rule:evenodd;clip-rule:evenodd;fill:none;stroke:#FFFFFF;stroke-width:2;stroke-linecap:round;stroke-linejoin:round;stroke-miterlimit:10;}
	.st44{opacity:0.1;fill:#FFFFFF;stroke:#FFFFFF;stroke-width:2;stroke-linecap:round;stroke-linejoin:round;stroke-miterlimit:10;}
	.st45{opacity:0.1;fill:#FFFFFF;}
	.st46{fill:#FFFFFF;stroke:#FFFFFF;stroke-width:2;stroke-linecap:round;stroke-linejoin:round;stroke-miterlimit:10;}
	.st47{filter:url(#Adobe_OpacityMaskFilter_1_);}
	.st48{fill:url(#SVGID_37_);}
	.st49{mask:url(#SVGID_36_);fill:none;stroke:#FFFFFF;stroke-width:2;stroke-miterlimit:10;}
</style>
<g>
	<g>
		<g>
			<defs>
				<path id="XMLID_21_" d="M978.2,695.5c-0.5-0.5-1-0.6-1.5-0.2c-4.1,3.7-8.2,7.4-12.3,11.1c-0.5,0.4-0.8,1.3-0.8,2.2
					c0,8.5,0,17,0,25.5c0,1,0.3,1.9,0.8,2.4c4.1,4.6,8.2,9.2,12.3,13.7c0.5,0.5,1,0.6,1.5,0.1c4-3.8,8-7.7,12-11.5
					c0.4-0.4,0.7-1.3,0.7-2.2c0-8.3,0-16.6,0-24.9c0-0.9-0.3-1.8-0.7-2.3C986.3,704.9,982.3,700.2,978.2,695.5z"/>
			</defs>
			<clipPath id="XMLID_2_">
				<use xlink:href="#XMLID_21_"  style="overflow:visible;"/>
			</clipPath>
		</g>
	</g>
	<g>
		<defs>
			<filter id="Adobe_OpacityMaskFilter" filterUnits="userSpaceOnUse" x="159.7" y="50.4" width="1368.7" height="1362.5">
				<feColorMatrix  type="matrix" values="1 0 0 0 0  0 1 0 0 0  0 0 1 0 0  0 0 0 1 0"/>
			</filter>
		</defs>
		<mask maskUnits="userSpaceOnUse" x="159.7" y="50.4" width="1368.7" height="1362.5" id="SVGID_1_">
			<g class="st0">
				<linearGradient id="SVGID_2_" gradientUnits="userSpaceOnUse" x1="125.8967" y1="737.1553" x2="1542.9517" y2="737.1553">
					<stop  offset="0" style="stop-color:#000000"/>
					<stop  offset="2.519432e-02" style="stop-color:#070707"/>
					<stop  offset="6.064114e-02" style="stop-color:#191919"/>
					<stop  offset="0.1022" style="stop-color:#373737"/>
					<stop  offset="0.1483" style="stop-color:#616161"/>
					<stop  offset="0.1982" style="stop-color:#979797"/>
					<stop  offset="0.2506" style="stop-color:#D7D7D7"/>
					<stop  offset="0.2799" style="stop-color:#FFFFFF"/>
					<stop  offset="0.3364" style="stop-color:#F9F9F9"/>
					<stop  offset="0.4115" style="stop-color:#E8E8E8"/>
					<stop  offset="0.4968" style="stop-color:#CDCDCD"/>
					<stop  offset="0.5899" style="stop-color:#A6A6A6"/>
					<stop  offset="0.6893" style="stop-color:#757575"/>
					<stop  offset="0.7922" style="stop-color:#393939"/>
					<stop  offset="0.8811" style="stop-color:#000000"/>
				</linearGradient>
				<path class="st1" d="M125.9,499c28.4-102.7,79.7-215.4,148.2-312.4c62.4-64.4,135.2-119.4,207.8-156.8
					C578.3,60,678.3,84,789.2,115.9c109.9,31.4,230.7,70.8,347.9,119.4c169.3,104.7,329.3,241.1,404.9,355
					c-1,128.4-0.6,256.1,1,385.1c-52,76.1-137.5,157-236.1,227.8c-160.4,78-345.3,135.3-504,175.1
					c-112.8,23.1-215.9,40.6-317.7,66.1c-95.1-44-191.2-118.6-264.9-205.8c-33.2-58.3-60.3-120.3-80.3-181
					C137.9,865.4,137.1,682.8,125.9,499z"/>
			</g>
		</mask>
		<g class="st2">
			<path class="st3" d="M165.1,511.5c62-140,174.2-295.8,297.4-400.6c81.6,27.6,169,55.7,264,90c94.6,34,196.9,74.2,298.6,119.9
				c203.3,90.5,403.1,204.2,501.7,298.2"/>
			<path class="st3" d="M1527.9,942.9c-102.6,91.1-307.3,190.4-505.1,263.2c-201.2,75.1-395.5,123.8-555.9,167.8
				c-123.7-86.3-240.5-218.9-306.7-346"/>
			<linearGradient id="SVGID_3_" gradientUnits="userSpaceOnUse" x1="446.4393" y1="1412.8723" x2="446.4393" y2="50.3799">
				<stop  offset="0" style="stop-color:#FFFFFF;stop-opacity:0"/>
				<stop  offset="0.5" style="stop-color:#FFFFFF"/>
				<stop  offset="1" style="stop-color:#FFFFFF;stop-opacity:0"/>
			</linearGradient>
			<path class="st4" d="M475.9,50.6c-78.5,308.9-78.5,1053.1,0,1362"/>
			<g>
				<g>
					<linearGradient id="SVGID_4_" gradientUnits="userSpaceOnUse" x1="585.7745" y1="1374.8652" x2="585.7745" y2="97.268">
						<stop  offset="0" style="stop-color:#FFFFFF;stop-opacity:0.2"/>
						<stop  offset="0.5" style="stop-color:#FFFFFF"/>
						<stop  offset="1" style="stop-color:#FFFFFF;stop-opacity:0.2"/>
					</linearGradient>
					<path class="st5" d="M603.5,97.8c-49.8,295.7-49.3,989.1,1.5,1276.6"/>
					<linearGradient id="SVGID_5_" gradientUnits="userSpaceOnUse" x1="725.4486" y1="1337.8821" x2="725.4486" y2="144.7641">
						<stop  offset="0" style="stop-color:#FFFFFF;stop-opacity:0.2"/>
						<stop  offset="0.5" style="stop-color:#FFFFFF"/>
						<stop  offset="1" style="stop-color:#FFFFFF;stop-opacity:0.2"/>
					</linearGradient>
					<path class="st6" d="M732,145.3c-19.8,296.4-19.3,910.2,1.4,1192.1"/>
					<linearGradient id="SVGID_6_" gradientUnits="userSpaceOnUse" x1="845.0966" y1="1303.752" x2="845.0966" y2="190.8198">
						<stop  offset="0" style="stop-color:#FFFFFF;stop-opacity:0.2"/>
						<stop  offset="0.5" style="stop-color:#FFFFFF"/>
						<stop  offset="1" style="stop-color:#FFFFFF;stop-opacity:0.2"/>
					</linearGradient>
					<path class="st7" d="M845.1,191.3c0.1,296.4,0.1,833.7,0,1111.9"/>
					<linearGradient id="SVGID_7_" gradientUnits="userSpaceOnUse" x1="945.86" y1="1271.5065" x2="945.86" y2="234.0846">
						<stop  offset="0" style="stop-color:#FFFFFF;stop-opacity:0.2"/>
						<stop  offset="0.5" style="stop-color:#FFFFFF"/>
						<stop  offset="1" style="stop-color:#FFFFFF;stop-opacity:0.2"/>
					</linearGradient>
					<path class="st8" d="M942.7,234.6c11.4,291.6,10.8,763.8-1.8,1036.4"/>
					<linearGradient id="SVGID_8_" gradientUnits="userSpaceOnUse" x1="1032.2417" y1="1241.1377" x2="1032.2417" y2="278.2868">
						<stop  offset="0" style="stop-color:#FFFFFF;stop-opacity:0.2"/>
						<stop  offset="0.5" style="stop-color:#FFFFFF"/>
						<stop  offset="1" style="stop-color:#FFFFFF;stop-opacity:0.2"/>
					</linearGradient>
					<path class="st9" d="M1028.2,278.8c16.7,283,15.5,698.3-3.7,961.9"/>
					<linearGradient id="SVGID_9_" gradientUnits="userSpaceOnUse" x1="1105.2994" y1="1211.2646" x2="1105.2994" y2="310.8233">
						<stop  offset="0" style="stop-color:#FFFFFF;stop-opacity:0.2"/>
						<stop  offset="0.5" style="stop-color:#FFFFFF"/>
						<stop  offset="1" style="stop-color:#FFFFFF;stop-opacity:0.2"/>
					</linearGradient>
					<path class="st10" d="M1101,311.3c19,271.6,17.5,644-4.6,899.4"/>
					<linearGradient id="SVGID_10_" gradientUnits="userSpaceOnUse" x1="1167.4081" y1="1186.3661" x2="1167.4081" y2="347.8974">
						<stop  offset="0" style="stop-color:#FFFFFF;stop-opacity:0.2"/>
						<stop  offset="0.5" style="stop-color:#FFFFFF"/>
						<stop  offset="1" style="stop-color:#FFFFFF;stop-opacity:0.2"/>
					</linearGradient>
					<path class="st11" d="M1164,348.4c18.8,259.5,16.8,593.4-5.8,837.5"/>
					<linearGradient id="SVGID_11_" gradientUnits="userSpaceOnUse" x1="1219.8179" y1="1161.3486" x2="1219.8179" y2="375.365">
						<stop  offset="0" style="stop-color:#FFFFFF;stop-opacity:0.2"/>
						<stop  offset="0.5" style="stop-color:#FFFFFF"/>
						<stop  offset="1" style="stop-color:#FFFFFF;stop-opacity:0.2"/>
					</linearGradient>
					<path class="st12" d="M1216.8,375.9c17.8,247,15.8,550.8-6.1,785"/>
					<linearGradient id="SVGID_12_" gradientUnits="userSpaceOnUse" x1="1265.2386" y1="1140.0206" x2="1265.2386" y2="403.0621">
						<stop  offset="0" style="stop-color:#FFFFFF;stop-opacity:0.2"/>
						<stop  offset="0.5" style="stop-color:#FFFFFF"/>
						<stop  offset="1" style="stop-color:#FFFFFF;stop-opacity:0.2"/>
					</linearGradient>
					<path class="st13" d="M1263.1,403.6c16.2,234.8,14,512.5-6.4,736"/>
					<linearGradient id="SVGID_13_" gradientUnits="userSpaceOnUse" x1="1304.0643" y1="1119.6758" x2="1304.0643" y2="427.2403">
						<stop  offset="0" style="stop-color:#FFFFFF;stop-opacity:0.2"/>
						<stop  offset="0.5" style="stop-color:#FFFFFF"/>
						<stop  offset="1" style="stop-color:#FFFFFF;stop-opacity:0.2"/>
					</linearGradient>
					<path class="st14" d="M1302.5,427.7c14.3,222.8,12.2,478.2-6.3,691.4"/>
					<linearGradient id="SVGID_14_" gradientUnits="userSpaceOnUse" x1="1338.2173" y1="1100.1144" x2="1338.2173" y2="450.1521">
						<stop  offset="0" style="stop-color:#FFFFFF;stop-opacity:0.2"/>
						<stop  offset="0.5" style="stop-color:#FFFFFF"/>
						<stop  offset="1" style="stop-color:#FFFFFF;stop-opacity:0.2"/>
					</linearGradient>
					<path class="st15" d="M1337.3,450.7c12.3,210.8,10.3,446.1-6,649"/>
					<linearGradient id="SVGID_15_" gradientUnits="userSpaceOnUse" x1="1366.3167" y1="1084.4636" x2="1366.3167" y2="469.1922">
						<stop  offset="0" style="stop-color:#FFFFFF;stop-opacity:0.2"/>
						<stop  offset="0.5" style="stop-color:#FFFFFF"/>
						<stop  offset="1" style="stop-color:#FFFFFF;stop-opacity:0.2"/>
					</linearGradient>
					<path class="st16" d="M1365.8,469.7c10.6,200.7,8.7,420.3-5.7,614.3"/>
					<linearGradient id="SVGID_16_" gradientUnits="userSpaceOnUse" x1="1391.8518" y1="1068.5493" x2="1391.8518" y2="488.0742">
						<stop  offset="0" style="stop-color:#FFFFFF;stop-opacity:0.2"/>
						<stop  offset="0.5" style="stop-color:#FFFFFF"/>
						<stop  offset="1" style="stop-color:#FFFFFF;stop-opacity:0.2"/>
					</linearGradient>
					<path class="st17" d="M1391.7,488.6c8.9,190.3,7.1,394.8-5.3,579.5"/>
					<linearGradient id="SVGID_17_" gradientUnits="userSpaceOnUse" x1="1414.1724" y1="1054.2402" x2="1414.1724" y2="506.6615">
						<stop  offset="0" style="stop-color:#FFFFFF;stop-opacity:0.2"/>
						<stop  offset="0.5" style="stop-color:#FFFFFF"/>
						<stop  offset="1" style="stop-color:#FFFFFF;stop-opacity:0.2"/>
					</linearGradient>
					<path class="st18" d="M1414.4,507.2c7.3,180.3,5.7,371-4.9,546.6"/>
					<linearGradient id="SVGID_18_" gradientUnits="userSpaceOnUse" x1="1434.1534" y1="1041.6533" x2="1434.1534" y2="519.2667">
						<stop  offset="0" style="stop-color:#FFFFFF;stop-opacity:0.2"/>
						<stop  offset="0.5" style="stop-color:#FFFFFF"/>
						<stop  offset="1" style="stop-color:#FFFFFF;stop-opacity:0.2"/>
					</linearGradient>
					<path class="st19" d="M1434.5,519.8c6.1,172.4,4.6,352.8-4.3,521.4"/>
					<linearGradient id="SVGID_19_" gradientUnits="userSpaceOnUse" x1="1450.715" y1="1028.6339" x2="1450.715" y2="533.3281">
						<stop  offset="0" style="stop-color:#FFFFFF;stop-opacity:0.2"/>
						<stop  offset="0.5" style="stop-color:#FFFFFF"/>
						<stop  offset="1" style="stop-color:#FFFFFF;stop-opacity:0.2"/>
					</linearGradient>
					<path class="st20" d="M1447.4,1028.1c7.3-160.8,8.6-330.5,3.7-494.3"/>
					<linearGradient id="SVGID_20_" gradientUnits="userSpaceOnUse" x1="1464.6831" y1="1018.1232" x2="1464.6831" y2="545.6602">
						<stop  offset="0" style="stop-color:#FFFFFF;stop-opacity:0.2"/>
						<stop  offset="0.5" style="stop-color:#FFFFFF"/>
						<stop  offset="1" style="stop-color:#FFFFFF;stop-opacity:0.2"/>
					</linearGradient>
					<path class="st21" d="M1465.1,546.2c3.9,156.5,2.8,317.4-3.2,471.5"/>
					<linearGradient id="SVGID_21_" gradientUnits="userSpaceOnUse" x1="1478.7014" y1="1006.0457" x2="1478.7014" y2="559.7781">
						<stop  offset="0" style="stop-color:#FFFFFF;stop-opacity:0.2"/>
						<stop  offset="0.5" style="stop-color:#FFFFFF"/>
						<stop  offset="1" style="stop-color:#FFFFFF;stop-opacity:0.2"/>
					</linearGradient>
					<path class="st22" d="M1479.2,560.3c2.9,148,2,299.1-2.6,445.3"/>
					<linearGradient id="SVGID_22_" gradientUnits="userSpaceOnUse" x1="1489.7581" y1="998.7961" x2="1489.7581" y2="569.0044">
						<stop  offset="0" style="stop-color:#FFFFFF;stop-opacity:0.2"/>
						<stop  offset="0.5" style="stop-color:#FFFFFF"/>
						<stop  offset="1" style="stop-color:#FFFFFF;stop-opacity:0.2"/>
					</linearGradient>
					<path class="st23" d="M1490.2,569.5c2.2,142.7,1.5,287.6-2.2,428.8"/>
					<linearGradient id="SVGID_23_" gradientUnits="userSpaceOnUse" x1="1500.9323" y1="990.0061" x2="1500.9323" y2="577.1173">
						<stop  offset="0" style="stop-color:#FFFFFF;stop-opacity:0.2"/>
						<stop  offset="0.5" style="stop-color:#FFFFFF"/>
						<stop  offset="1" style="stop-color:#FFFFFF;stop-opacity:0.2"/>
					</linearGradient>
					<path class="st24" d="M1501.3,577.6c1.6,137.1,1,275.7-1.6,411.9"/>
					<linearGradient id="SVGID_24_" gradientUnits="userSpaceOnUse" x1="1510.0317" y1="981.9324" x2="1510.0317" y2="586.0412">
						<stop  offset="0" style="stop-color:#FFFFFF;stop-opacity:0.2"/>
						<stop  offset="0.5" style="stop-color:#FFFFFF"/>
						<stop  offset="1" style="stop-color:#FFFFFF;stop-opacity:0.2"/>
					</linearGradient>
					<path class="st25" d="M1510.3,586.5c1,131.5,0.6,264-1.1,394.9"/>
					<linearGradient id="SVGID_25_" gradientUnits="userSpaceOnUse" x1="1518.7488" y1="974.1938" x2="1518.7488" y2="593.7881">
						<stop  offset="0" style="stop-color:#FFFFFF;stop-opacity:0.2"/>
						<stop  offset="0.5" style="stop-color:#FFFFFF"/>
						<stop  offset="1" style="stop-color:#FFFFFF;stop-opacity:0.2"/>
					</linearGradient>
					<path class="st26" d="M1518.9,594.3c0.5,126.4,0.3,253.3-0.6,379.4"/>
				</g>
				<path class="st3" d="M449.6,197.8c165,45.7,375,110.2,580.4,192.2c203.4,80.4,402.2,178.3,497.9,256"/>
				<path class="st3" d="M438,295.1c170.4,39.1,387.8,98.3,594.3,168.3c205.3,69.2,399.8,149.2,495.4,211.7"/>
				<path class="st3" d="M429,403c174.5,31.3,397.1,80.4,604.2,135.5c206.5,54.7,397.5,115.3,493.7,162"/>
				<path class="st3" d="M422.9,513c353.4,47,909.5,150.4,1104,214"/>
				<path class="st3" d="M417.5,632.7c358.8,31.2,915.3,91.1,1109.4,122.1"/>
				<path class="st3" d="M418.3,746.1c360.6,15.6,914.2,33.5,1108.6,34.5"/>
				<path class="st3" d="M420,866.3c359-1.3,910.4-27.4,1106.9-58.1"/>
				<path class="st3" d="M424.4,981.5c178.1-9.2,402.2-30,608.8-56.6c206.2-26.6,395-59,493.7-89.8"/>
				<path class="st3" d="M431.3,1092.1c175.4-17.8,394.5-50.7,600.1-92.4c204.7-41.4,395.9-91.6,495.5-137.7"/>
				<path class="st3" d="M440.9,1195.8c171.4-26.5,383.8-68.7,588.1-123.8c202.7-54.4,397.3-121.7,497.8-183"/>
				<path class="st3" d="M453.1,1289.4c166.3-35.1,370.4-82.9,573-149.2c200.3-65,399.1-148.4,500.7-224.5"/>
			</g>
			<g>
				<g>
					<linearGradient id="SVGID_26_" gradientUnits="userSpaceOnUse" x1="377.1322" y1="1355.2467" x2="377.1322" y2="124.5018">
						<stop  offset="0" style="stop-color:#FFFFFF;stop-opacity:0.2"/>
						<stop  offset="0.5" style="stop-color:#FFFFFF"/>
						<stop  offset="1" style="stop-color:#FFFFFF;stop-opacity:0.2"/>
					</linearGradient>
					<path class="st27" d="M397.3,125c-58.7,331.6-57.7,906.4,3,1229.7"/>
					<linearGradient id="SVGID_27_" gradientUnits="userSpaceOnUse" x1="330.2724" y1="1308.4441" x2="330.2724" y2="183.4994">
						<stop  offset="0" style="stop-color:#FFFFFF;stop-opacity:0.2"/>
						<stop  offset="0.5" style="stop-color:#FFFFFF"/>
						<stop  offset="1" style="stop-color:#FFFFFF;stop-opacity:0.2"/>
					</linearGradient>
					<path class="st28" d="M348.6,1307.9c-47.4-318-48.8-796.7-4.1-1123.9"/>
					<linearGradient id="SVGID_28_" gradientUnits="userSpaceOnUse" x1="293.4477" y1="1270.1102" x2="293.4477" y2="234.5118">
						<stop  offset="0" style="stop-color:#FFFFFF;stop-opacity:0.2"/>
						<stop  offset="0.5" style="stop-color:#FFFFFF"/>
						<stop  offset="1" style="stop-color:#FFFFFF;stop-opacity:0.2"/>
					</linearGradient>
					<path class="st29" d="M303.2,235c-33.8,315.4-32.2,728.2,4.7,1034.6"/>
					<linearGradient id="SVGID_29_" gradientUnits="userSpaceOnUse" x1="264.0228" y1="1223.3866" x2="264.0228" y2="282.5984">
						<stop  offset="0" style="stop-color:#FFFFFF;stop-opacity:0.2"/>
						<stop  offset="0.5" style="stop-color:#FFFFFF"/>
						<stop  offset="1" style="stop-color:#FFFFFF;stop-opacity:0.2"/>
					</linearGradient>
					<path class="st30" d="M270.9,283.1c-24.6,295.1-23.4,650.9,3.8,939.8"/>
					<linearGradient id="SVGID_30_" gradientUnits="userSpaceOnUse" x1="240.7405" y1="1182.0956" x2="240.7405" y2="321.6792">
						<stop  offset="0" style="stop-color:#FFFFFF;stop-opacity:0.2"/>
						<stop  offset="0.5" style="stop-color:#FFFFFF"/>
						<stop  offset="1" style="stop-color:#FFFFFF;stop-opacity:0.2"/>
					</linearGradient>
					<path class="st31" d="M245.7,322.2c-17.9,274.9-17,588.5,2.8,859.4"/>
					<linearGradient id="SVGID_31_" gradientUnits="userSpaceOnUse" x1="222.2403" y1="1167.209" x2="222.2403" y2="359.7829">
						<stop  offset="0" style="stop-color:#FFFFFF;stop-opacity:0.2"/>
						<stop  offset="0.5" style="stop-color:#FFFFFF"/>
						<stop  offset="1" style="stop-color:#FFFFFF;stop-opacity:0.2"/>
					</linearGradient>
					<path class="st32" d="M228.4,1166.7C213.2,909.4,212,622.1,225,360.3"/>
					<linearGradient id="SVGID_32_" gradientUnits="userSpaceOnUse" x1="205.5062" y1="1137.6667" x2="205.5062" y2="389.1707">
						<stop  offset="0" style="stop-color:#FFFFFF;stop-opacity:0.2"/>
						<stop  offset="0.5" style="stop-color:#FFFFFF"/>
						<stop  offset="1" style="stop-color:#FFFFFF;stop-opacity:0.2"/>
					</linearGradient>
					<path class="st33" d="M207.3,389.7c-9,244.9-8.1,505.6,2.6,747.5"/>
					<linearGradient id="SVGID_33_" gradientUnits="userSpaceOnUse" x1="193.3891" y1="1118.2611" x2="193.3891" y2="417.6776">
						<stop  offset="0" style="stop-color:#FFFFFF;stop-opacity:0.2"/>
						<stop  offset="0.5" style="stop-color:#FFFFFF"/>
						<stop  offset="1" style="stop-color:#FFFFFF;stop-opacity:0.2"/>
					</linearGradient>
					<path class="st34" d="M196.5,1117.8c-7.6-228.3-8.3-468.9-2.2-699.6"/>
					<linearGradient id="SVGID_34_" gradientUnits="userSpaceOnUse" x1="181.8164" y1="1094.4877" x2="181.8164" y2="441.0453">
						<stop  offset="0" style="stop-color:#FFFFFF;stop-opacity:0.2"/>
						<stop  offset="0.5" style="stop-color:#FFFFFF"/>
						<stop  offset="1" style="stop-color:#FFFFFF;stop-opacity:0.2"/>
					</linearGradient>
					<path class="st35" d="M182.4,441.5c-3.8,216.1-3.3,437.7,1.4,652.4"/>
					<linearGradient id="SVGID_35_" gradientUnits="userSpaceOnUse" x1="172.5384" y1="1080.8473" x2="172.5384" y2="463.7672">
						<stop  offset="0" style="stop-color:#FFFFFF;stop-opacity:0.2"/>
						<stop  offset="0.5" style="stop-color:#FFFFFF"/>
						<stop  offset="1" style="stop-color:#FFFFFF;stop-opacity:0.2"/>
					</linearGradient>
					<path class="st36" d="M172.7,464.3c-2,204.7-1.7,412.2,0.9,616.1"/>
				</g>
				<path class="st3" d="M449.6,197.8C331.3,302.7,226.1,436.1,165.3,554.1"/>
				<path class="st3" d="M438,295.1c-114,96.7-213.2,207.1-272.9,303.3"/>
				<path class="st3" d="M429,403c-110.5,80.9-205.1,166.1-264,239.6"/>
				<path class="st3" d="M422.9,513C314.8,573.6,223.4,634.2,165,685.9"/>
				<path class="st3" d="M417.5,632.7C311.8,668,222.9,701.9,165,730.1"/>
				<path class="st3" d="M418.3,746.1c-105.9,10.8-194.9,20.3-253.3,27.2"/>
				<path class="st3" d="M420,866.3c-106.1-15.9-195.9-32.6-255-48.6"/>
				<path class="st3" d="M424.4,981.5c-107.2-40-199.3-81.5-259.2-119.7"/>
				<path class="st3" d="M431.3,1092.1c-109.2-61-204.9-126.7-266.1-187"/>
				<path class="st3" d="M440.9,1195.8c-112.2-76.6-212.8-165.2-275.6-247.5"/>
				<path class="st3" d="M453.1,1289.4c-116-84.7-222.7-193.8-287.5-297"/>
			</g>
		</g>
		<g>
			<path class="st37" d="M440.3,1203c69.3-113.2,159.4-257.5,258.8-411.3c98.8-152.9,206.8-315.3,296.7-446.2"/>
			<g>
				<path class="st38" d="M1053.5,457.7c-2.5,7.6-4.9,15.1-7.5,22.5c-0.7,1.9-1,3.6-0.3,6.5c1.8,8.2-0.2,15-4.4,15.6
					c-3.9,0.6-8-5.6-9-13.8c-0.9-7.3,1.9-13,6-12.6c0.3,0,0.7,0.2,1.3,0.3c1.9-5.7,3.8-11.4,5.7-17c-4.2-8.7-6.8-17.9-6.6-28
					c0.1-7.1,1.5-12.7,4.2-16.6c5.1-7.4,13.2-5.4,19.7,4.6c6.2,9.5,9.4,24.3,7.5,35.2c-1.8-1.6-3.5-3.2-5.5-4.9
					c0.5-6.3-0.3-12.4-2.8-18.5c-1.7-4-3.8-6.6-6.2-8.2c-4.8-3.3-9.2,0.3-10.3,8.3C1044.1,440.2,1046.8,449.2,1053.5,457.7
					C1053.5,457.7,1053.5,457.7,1053.5,457.7z"/>
				<path class="st38" d="M1061,450.6c2.1,7.1,4.3,14.2,6.4,21.4c9.4-2,16.8,10.7,19.6,22.4c3.4,14,1.8,28.7-4,34.9
					c-6,6.4-14,2.3-20-10.4c1.4-1.9,2.8-3.7,4.3-5.7c5.7,8.8,10.5,10.1,13.8,3.1c2.8-5.9,2.4-16.2-0.9-24
					c-3.8-9.1-8.6-11.1-14.3-5.8c-2.7-9.3-5.5-18.5-8.2-27.7c-0.9-3.1-1.9-5.1-3.8-6.4c-3.1-2.2-5.3-8-5.6-13.5
					c-0.3-5.5,1.3-9.7,3.9-10.5c2.6-0.8,5.8,2,7.8,6.9c1.6,4,2.2,8,1.6,12C1061.5,448.3,1061.3,449.3,1061,450.6
					C1061,450.6,1061,450.6,1061,450.6z"/>
				<path class="st38" d="M1067.2,504.5c-3.9-1.4-7.9-2.7-11.8-4.1c-0.9,8.5-3.2,15-7.5,18.2c-3.3,2.5-7,2.6-11,0.1
					c-7.4-4.6-13.8-18.9-14.7-32.9c-1-15.9,4.5-27.4,12.2-27.6c0.6,3.7,1.3,7.4,1.9,11.1c-6.9,4-9.2,11.5-6.9,22.7
					c2,9.8,7.1,16.6,12.4,16.4c5.4-0.2,7.8-7.6,7.1-21c5,1.8,10,3.4,14.9,5.3c1.9,0.7,3.4,0.9,4.7-1.8c2.2-4.4,6.5-2.3,9.1,3.5
					c2.7,5.9,2.8,13.9,0.3,17.8c-2.5,3.8-6.6,2.1-9.2-3.8C1068.2,507.3,1067.8,505.9,1067.2,504.5L1067.2,504.5z"/>
			</g>
			<g>
				<g>
					<path class="st38" d="M993.1,803.7c-0.4,0-0.8-0.2-1.2-0.6c-1.2-1.4-2.5-2.8-3.7-4.1c-0.6-0.6-0.3-0.8-0.1-0.9
						c0.8-0.4,0.9-0.5,1.7-1.3c0.1-0.1,0.2,0,0.3,0c1,1.1,1.9,2.1,2.9,3.2c0.1,0.1,0.2,0.1,0.3,0c3.7-3.8,7.4-7.5,11.1-11.2
						c0.1-0.1,0.2-0.3,0.2-0.5c0-7.7,0.1-15.5,0.1-23.2c0-0.2-0.1-0.4-0.2-0.6c-3.7-4.2-7.3-8.3-11-12.5c-0.1-0.1-0.2-0.1-0.3,0
						c-3.8,3.7-7.5,7.3-11.3,11c-0.1,0.1-0.2,0.3-0.2,0.6c0,7.9,0,15.8-0.1,23.8c0,0.2,0.1,0.4,0.2,0.6c1,1.1,2.1,2.3,3.1,3.4
						c1.7,1.6,2.7-0.2,2.7-2c0-7.8,0.1-15.5,0.1-23.3c0-0.3,0.1-0.6,0.3-0.6c0.5,0,1,0.1,1.4,0.1c0.2,0,0.3,0.3,0.3,0.6
						c0,7.8,0,15.5-0.1,23.3c0,4-1.2,6.3-3.4,6.2c-0.7,0-1.2,0-2.6-1.4c-1-1.1-2-2.1-3-3.2c-0.7-0.8-1.2-2.3-1.2-3.8
						c0-7.9,0.1-15.9,0.1-23.8c0-1.5,0.5-3,1.2-3.7c3.8-3.7,7.6-7.3,11.4-11c0.7-0.7,1.7-0.6,2.4,0.2c3.7,4.2,7.3,8.4,11,12.5
						c0.7,0.8,1.1,2.2,1.1,3.7c0,7.7,0,15.5-0.1,23.2c0,1.5-0.5,2.9-1.2,3.6c-3.7,3.8-7.4,7.5-11.1,11.3
						C993.9,803.5,993.5,803.7,993.1,803.7z"/>
					<path class="st38" d="M996.6,787.7c-4.9-0.2-5.9-4.4-5.9-7.8c0-0.3,0.1-0.6,0.3-0.6c0.5,0,1,0.1,1.4,0.1c0.2,0,0.3,0.2,0.3,0.5
						c0.2,2.7,0.9,4.1,3.8,4.2c2.3,0.1,3.3-0.8,3.3-3.1c0-1.3-0.3-2.3-3.9-3.1c-3-0.7-4.9-2-4.9-6.5c0-4.1,1.9-6.4,5.1-6.2
						c3.5,0.2,5.3,2.6,5.5,7.4c0,0.2,0,0.3-0.1,0.4c-0.1,0.1-0.1,0.2-0.2,0.2c-0.5,0-1-0.1-1.4-0.1c-0.1,0-0.3-0.2-0.3-0.5
						c-0.3-2.8-1.2-3.8-3.4-3.9c-2.6-0.2-2.9,1.5-2.9,2.7c0,1.5,0.3,1.9,3.8,3c3.4,1,5,2.3,5,6.6
						C1002.1,785.4,1000.1,787.9,996.6,787.7z"/>
				</g>
				<g>
					<path class="st38" d="M1012.5,764.2c0,2.1-0.9,3.8-2.1,3.7c-1.1-0.1-2.1-1.9-2.1-4c0-2.2,1-3.8,2.1-3.7
						C1011.5,760.3,1012.5,762,1012.5,764.2z M1008.6,764c0,1.8,0.8,3.3,1.7,3.4c1,0.1,1.8-1.4,1.8-3.1c0-1.8-0.8-3.3-1.7-3.3
						C1009.4,760.8,1008.6,762.1,1008.6,764z M1009.6,761.9c0.3,0,0.5,0,0.8,0.1c0.3,0,0.8,0.1,0.8,1.2c0,0.8-0.3,0.9-0.4,1
						c0.3,0.1,0.3,0.5,0.4,1c0,0.3,0.1,0.9,0.1,1.2c-0.2,0-0.3,0-0.5,0c0-0.2-0.1-1.3-0.1-1.4c0-0.2-0.1-0.4-0.2-0.4
						c-0.1,0-0.3,0-0.4,0c0,0.6,0,1.2,0,1.7c-0.2,0-0.3,0-0.5,0C1009.6,764.8,1009.6,763.3,1009.6,761.9z M1010.1,763.8
						c0.1,0,0.2,0,0.4,0c0.3,0,0.4-0.4,0.4-0.6c0-0.6-0.2-0.6-0.3-0.6c-0.1,0-0.2,0-0.4,0C1010.1,763,1010.1,763.4,1010.1,763.8z"/>
				</g>
				<path class="st39" d="M957.4,707.6c0-1-0.3-1.9-0.8-2.4c-4.3-4.8-8.6-9.7-12.9-14.5c-0.2-0.3-0.5-0.4-0.7-0.5c0,0-0.1,0-0.1,0
					c-0.2,0-0.5,0.1-0.7,0.3c-4.4,3.8-8.8,7.6-13.2,11.5c-0.5,0.4-0.8,1.3-0.8,2.3c0,11.8,0,23.7,0,35.6c0,0.5,0.1,1,0.4,1.2
					c0.2,0.3,0.6,0.3,0.8,0.1c2.6-2.4,5.3-4.7,7.9-7.1c0.5-0.5,0.8-1.3,0.8-2.3c0-5.5,0-11,0-16.5c0-1,0.3-1.9,0.8-2.3
					c1.1-1,2.2-2,3.3-2.9c0.2-0.2,0.5-0.3,0.8-0.3c0.3,0,0.5,0.2,0.8,0.5c1.1,1.2,2.2,2.4,3.3,3.7c0.5,0.5,0.8,1.5,0.8,2.4
					c0,5.4,0,10.9,0,16.3c0,1,0.3,1.9,0.8,2.4c2.5,2.8,5.1,5.5,7.6,8.3c0.2,0.3,0.5,0.3,0.8,0.1c0.2-0.2,0.4-0.7,0.4-1.1
					C957.4,730.6,957.4,719.1,957.4,707.6z"/>
				<path class="st39" d="M1015.1,669.4c-0.2-0.3-0.5-0.3-0.7-0.1c-0.2,0.2-0.3,0.6-0.3,1c0.1,10.8,0.1,21.6,0.1,32.4
					c0,0.3-0.1,0.6-0.2,0.7c-0.1,0.1-0.3,0.1-0.5-0.1c-1-1.1-1.9-2.3-2.9-3.4c-0.4-0.5-1-0.6-1.4-0.2c-3.9,3.6-7.7,7.3-11.6,10.9
					c-0.4,0.4-0.7,1.2-0.7,2.2c0,8.3,0,16.6,0,24.9c0,0.9,0.3,1.8,0.7,2.3c3.9,4.5,7.7,8.9,11.6,13.3c0.4,0.5,1,0.5,1.4,0.1
					c3.8-3.8,7.6-7.5,11.3-11.2c0.4-0.4,0.7-1.2,0.7-2.1c0-20.1,0-40.3-0.1-60.4c0-0.9-0.3-1.8-0.7-2.3
					C1019.6,674.7,1017.3,672,1015.1,669.4z M1014.2,731.3c0,0.2-0.1,0.4-0.2,0.5c-1.3,1.3-2.6,2.5-3.9,3.8c-0.1,0.1-0.2,0.1-0.3,0
					c-1.3-1.5-2.6-3.1-4-4.6c-0.1-0.1-0.2-0.3-0.2-0.6c0-2.8,0-5.6,0-8.5c0-0.2,0.1-0.4,0.2-0.5c1.3-1.3,2.6-2.5,4-3.8
					c0.1-0.1,0.2-0.1,0.3,0c1.3,1.5,2.6,3.1,3.9,4.6c0.1,0.1,0.2,0.3,0.2,0.6C1014.2,725.7,1014.2,728.5,1014.2,731.3z"/>
				<g>
					<path class="st39" d="M1051.5,726.8c0.4-0.4,0.6-1.2,0.6-2.1c0-1.9,0-3.8,0-5.7c0-0.9-0.2-1.7-0.6-2.2
						c-3.5-4.4-7-8.8-10.6-13.2c-0.4-0.5-0.9-0.6-1.3-0.2c-3.6,3.5-7.2,7.1-10.9,10.6c-0.4,0.4-0.7,1.2-0.7,2.1c0,8,0,16.1,0,24.1
						c0,0.9,0.3,1.8,0.7,2.3c3.6,4.2,7.2,8.4,10.8,12.7c0.4,0.5,0.9,0.5,1.3,0.1c2.1-2.1,4.3-4.2,6.4-6.3c0.2-0.2,0.3-0.6,0.3-1
						c0-0.4-0.1-0.9-0.3-1.1c-3.6-4.3-7.2-8.6-10.8-12.9c-0.2-0.2-0.3-0.7-0.3-1.1c0-2.5,0-5,0-7.5c0-0.4,0.1-0.8,0.3-1
						c1.1-1.1,2.3-2.2,3.4-3.3c0.2-0.2,0.4-0.2,0.6,0.1c1.1,1.4,2.2,2.7,3.4,4.1c0.2,0.2,0.3,0.7,0.3,1.1c0,1.9,0,3.9,0,5.8
						c0,0.4,0.1,0.9,0.3,1.1c0.2,0.2,0.4,0.3,0.6,0.1C1047.3,731.1,1049.4,728.9,1051.5,726.8z"/>
					<path class="st39" d="M1040.2,724.4c0.1-0.1,0.2-0.1,0.2,0c0.7,0.8,1.4,1.7,2.1,2.5c0.1,0.1,0.1,0.3,0.1,0.4c0,1.5,0,3,0,4.6
						c0,0.2,0,0.3-0.1,0.4c-0.7,0.7-1.4,1.4-2.1,2.1c-0.1,0.1-0.2,0.1-0.2,0c-0.7-0.8-1.4-1.7-2.1-2.5c-0.1-0.1-0.1-0.3-0.1-0.4
						c0-1.5,0-3.1,0-4.6c0-0.2,0-0.3,0.1-0.4C1038.8,725.8,1039.5,725.1,1040.2,724.4z"/>
				</g>
				<g>
					<defs>
						<path id="XMLID_18_" d="M978.2,695.5c-0.5-0.5-1-0.6-1.5-0.2c-4.1,3.7-8.2,7.4-12.3,11.1c-0.5,0.4-0.8,1.3-0.8,2.2
							c0,8.5,0,17,0,25.5c0,1,0.3,1.9,0.8,2.4c4.1,4.6,8.2,9.2,12.3,13.7c0.5,0.5,1,0.6,1.5,0.1c4-3.8,8-7.7,12-11.5
							c0.4-0.4,0.7-1.3,0.7-2.2c0-8.3,0-16.6,0-24.9c0-0.9-0.3-1.8-0.7-2.3C986.3,704.9,982.3,700.2,978.2,695.5z"/>
					</defs>
					<use xlink:href="#XMLID_18_"  style="overflow:visible;fill-rule:evenodd;clip-rule:evenodd;fill:#FFFFFF;"/>
					<clipPath id="XMLID_4_">
						<use xlink:href="#XMLID_18_"  style="overflow:visible;"/>
					</clipPath>
					<g class="st40">
						<path class="st38" d="M976.7,695.3c-4.1,3.7-8.2,7.4-12.3,11.1c-0.5,0.4-0.8,1.3-0.8,2.2c0,8.5,0,17,0,25.5
							c0,0.6,0.2,1.2,0.4,1.7c4.6-13.6,9.3-27.2,13.8-40.7C977.5,695,977.1,695,976.7,695.3z"/>
						<path class="st38" d="M977.9,750.7c0.1,0,0.2-0.1,0.3-0.2c4-3.8,8-7.7,12-11.5c0.4-0.4,0.7-1.3,0.7-2.2c0-8.3,0-16.6,0-24.9
							c0-0.7-0.2-1.3-0.4-1.9C986.4,723.6,982.2,737.1,977.9,750.7z"/>
						<path class="st38" d="M990.3,709.5c-4-4.7-8-9.3-12.1-14c-0.1-0.1-0.2-0.2-0.4-0.3c-4.6,13.6-9.2,27.1-13.8,40.7
							c0.1,0.3,0.3,0.5,0.4,0.7c4.1,4.6,8.3,9.2,12.4,13.7c0.3,0.4,0.8,0.5,1.1,0.3c4.3-13.6,8.5-27.1,12.7-40.7
							C990.5,709.9,990.4,709.7,990.3,709.5z"/>
					</g>
					<g class="st40">
						<path class="st38" d="M991.1,736.8c0-8.3,0-16.6,0-24.9c0-0.9-0.3-1.8-0.8-2.3c-4-4.7-8-9.3-12.1-14c-0.1-0.2-0.3-0.3-0.4-0.4
							c4.4,14.1,8.9,28.1,13.2,42.2C991.1,737.2,991.1,737,991.1,736.8z"/>
						<path class="st38" d="M964.4,706.5c-0.5,0.4-0.8,1.3-0.8,2.2c0,8.5,0,17,0,25.5c0,1,0.3,1.9,0.8,2.4
							c4.1,4.6,8.3,9.2,12.4,13.7c0.3,0.3,0.6,0.5,0.9,0.4C973.4,736,968.9,721.2,964.4,706.5C964.5,706.4,964.4,706.4,964.4,706.5z
							"/>
						<path class="st38" d="M976.4,690.7c-0.1,0-0.1,0.1-0.2,0.1c0.1,0,0.2,0,0.2,0C976.4,690.8,976.4,690.7,976.4,690.7z"/>
						<path class="st38" d="M990.3,739c0.3-0.3,0.6-0.9,0.7-1.6c-4.4-14.1-8.8-28.1-13.2-42.2c-0.3-0.2-0.7-0.1-1,0.2
							c-4.1,3.7-8.2,7.4-12.3,11.1c4.5,14.8,8.9,29.6,13.3,44.4c0.2,0,0.4-0.1,0.5-0.3C982.3,746.6,986.3,742.8,990.3,739z"/>
						<path class="st38" d="M991.4,738.7c0-0.1-0.1-0.2-0.1-0.3C991.4,738.5,991.4,738.6,991.4,738.7
							C991.4,738.7,991.4,738.7,991.4,738.7z"/>
						<path class="st38" d="M990.3,739c-4,3.8-8,7.7-12,11.5c-0.2,0.2-0.3,0.3-0.5,0.3c0.1,0.3,0.2,0.5,0.2,0.8
							c4.5-4.3,8.9-8.6,13.4-12.8c0-0.1,0-0.2,0-0.3c-0.1-0.3-0.2-0.7-0.3-1C990.9,738.1,990.7,738.6,990.3,739z"/>
						<path class="st38" d="M990.3,739c-4,3.8-8,7.7-12,11.5c-0.2,0.2-0.3,0.3-0.5,0.3c0.1,0.3,0.2,0.5,0.2,0.8
							c4.5-4.3,8.9-8.6,13.4-12.8c0-0.1,0-0.2,0-0.3c-0.1-0.3-0.2-0.7-0.3-1C990.9,738.1,990.7,738.6,990.3,739z"/>
					</g>
				</g>
			</g>
			<g>
				<path class="st38" d="M1123,1027.7C1123,1027.7,1123,1027.7,1123,1027.7c-0.6-0.3-1.3-0.6-1.9-0.8c0.1-0.9,0.3-1.9,0.4-2.8
					c2.2-15.1,1.7-27-1.6-30.3c-3.1-3.2-8.7,1.9-14.6,12.6c-0.6,1.1-1.2,2.2-1.7,3.3c-0.3-0.6-0.7-1.2-1-1.7
					c-5.5-9.2-11.4-12.5-15.2-7.6c-3.7,4.7-5.2,16.7-4.3,31c0.1,1.4,0.2,2.8,0.3,4.2c-0.9,0.7-1.8,1.4-2.6,2.1
					c-7.5,6.5-12.5,15.2-12.9,23c-0.3,8.1,4.3,14.7,11.7,17.5c0.6,0.2,1.2,0.4,1.8,0.6c-0.3,1.5-0.5,3.1-0.8,4.7
					c-2.1,14.3-1.6,24.8,1.7,27.5c3.4,2.7,9.5-3,15.8-14.1c0.5-0.9,1-1.8,1.5-2.8c0.5,0.9,1,1.7,1.6,2.5c4.9,7.2,10,9.1,13.4,4.5
					c3.5-4.7,5.3-16.3,4.6-29.8c0-1-0.1-2.1-0.2-3.2c0.4-0.3,0.8-0.7,1.2-1c7.2-6.6,12.1-15.2,12.5-22.9
					C1133.2,1036.8,1129.4,1030.7,1123,1027.7z M1107,1010.2c5.1-9.2,9.5-13.3,11.4-11.4c0,0,0,0,0,0c2,2,2.4,11.7,0.5,24.8
					c-0.1,0.9-0.3,1.7-0.4,2.6c-2.5-0.6-5.3-0.8-8.3-0.7c-1.5-4.6-3.2-8.7-4.8-12.2C1105.9,1012.2,1106.4,1011.2,1107,1010.2z
					 M1087.9,1062.1c0.5,2.1,1,4.1,1.6,6.1c0.6,2,1.1,4,1.8,5.9c-2.1,0.1-4.2,0.1-6-0.2C1086,1070.1,1086.9,1066.1,1087.9,1062.1z
					 M1088.5,1049.3c-0.7-3.6-1.2-7.1-1.6-10.6c2-1.3,4-2.4,6.1-3.4c-0.8,2.3-1.6,4.6-2.3,6.9
					C1090,1044.5,1089.2,1046.9,1088.5,1049.3z M1089.8,1055.3c1-3.7,2.1-7.4,3.3-11c0,0,0,0,0,0c1.2-3.6,2.4-7.1,3.6-10.6
					c2-0.7,4-1.4,6-1.8c2-0.5,4-0.8,5.8-0.9c0.9,2.9,1.8,5.9,2.6,9c0.8,3.1,1.6,6.2,2.2,9.3c-1,3.6-2.1,7.2-3.2,10.8c0,0,0,0,0,0
					c-1.1,3.5-2.3,7-3.5,10.4c-1.9,0.8-3.9,1.5-5.9,2c-2,0.6-4,1-5.9,1.3c-1-2.8-1.9-5.8-2.7-8.9
					C1091.3,1061.7,1090.5,1058.6,1089.8,1055.3z M1112.3,1062c0.7-2.3,1.5-4.7,2.2-7l0,0c0.6,3.5,1.2,7,1.5,10.3
					c-1.9,1.3-3.8,2.5-6,3.6C1110.9,1066.6,1111.6,1064.3,1112.3,1062z M1115.1,1042.7c-0.5-2-1-4.1-1.5-6.1c0,0,0,0,0,0
					c-0.5-2-1.1-3.9-1.6-5.8c2,0,3.9,0.2,5.6,0.6C1116.9,1035,1116,1038.8,1115.1,1042.7z M1103.3,1017.5c1.2,2.5,2.3,5.2,3.4,8.2
					c-2.5,0.3-5.1,0.9-7.7,1.7C1100.4,1023.9,1101.9,1020.6,1103.3,1017.5z M1088.7,1004.9c2.3-3,7.1-0.3,11.9,7.6
					c0.3,0.5,0.6,1,0.9,1.6c-2.1,4.4-4.1,9.4-6.1,14.8c-3.1,1.3-6.2,2.9-9,4.7c-0.1-1.3-0.2-2.6-0.3-3.9c0,0,0,0,0,0
					C1085.3,1017.4,1086.5,1007.7,1088.7,1004.9z M1082.5,1073.3c-0.5-0.2-1.1-0.3-1.6-0.5c-3.2-1.2-5.8-3.3-7.6-5.9
					c-1.6-2.3-2.3-4.8-2.2-7c0.2-4.7,4.2-11.7,10.6-17.2c0.8-0.7,1.6-1.3,2.4-1.9c0.6,5.1,1.5,10.3,2.6,15.4
					C1085,1062,1083.6,1067.8,1082.5,1073.3z M1096.6,1093.3c-2.8,4.9-5.5,8.6-7.8,10.8c0,0,0,0,0,0c-2.1,2-3.7,2.5-4.7,1.7
					c-2-1.6-2.4-10.1-0.6-22.2c0.2-1.4,0.5-2.9,0.7-4.3c2.7,0.4,5.7,0.4,8.8,0c1.6,4.3,3.2,8.2,4.9,11.5
					C1097.5,1091.6,1097.1,1092.5,1096.6,1093.3z M1100.1,1086.4c-1.2-2.3-2.3-4.9-3.4-7.8c1.2-0.3,2.5-0.6,3.8-0.9
					c1.3-0.4,2.6-0.8,3.9-1.3C1102.9,1080.1,1101.5,1083.4,1100.1,1086.4z M1116.1,1088.9c-0.6,4-1.5,6.8-2.5,8.1
					c-2.1,2.8-6.2,1.3-10.4-5c-0.5-0.7-1-1.5-1.5-2.3c2-4.3,4.1-9.2,6.1-14.6c3.1-1.4,6-3.1,8.6-5c0.1,1,0.1,1.9,0.2,2.9l0,0
					C1117,1078.9,1116.7,1084.4,1116.1,1088.9z M1119.8,1062.3C1119.8,1062.3,1119.8,1062.3,1119.8,1062.3c-0.3,0.3-0.7,0.6-1.1,0.9
					c-0.5-4.7-1.3-9.7-2.4-14.8c1.5-5.6,2.8-11.1,3.8-16.3c0.6,0.2,1.2,0.5,1.8,0.7c5.5,2.6,8.6,7.5,8.4,11.9
					C1130,1049.5,1126,1056.6,1119.8,1062.3z"/>
				<path class="st38" d="M1102.2,1040.9c3.2-0.8,5.5,3.6,5.2,9.8c-0.3,6.2-3.1,11.8-6.3,12.7c-3.2,0.8-5.6-3.5-5.3-9.7
					C1096.2,1047.4,1099,1041.7,1102.2,1040.9"/>
			</g>
			<path class="st38" d="M866.7,1153.9c-0.6-0.4-1.3-0.6-2-0.7c0.1-9.8,0.1-19.8,0.2-29.9c0.7-0.4,1.4-1,2.1-1.7
				c3.7-3.9,5-11.2,2.9-16.2c-2.1-5.1-6.9-6-10.6-2.1c-0.7,0.7-1.3,1.5-1.8,2.4c-6.1-4-12.3-8-18.5-12.1c0.2-1.1,0.3-2.3,0.3-3.5
				c0-6.6-3.7-11.3-8.2-10.5c-4.6,0.8-8.3,6.9-8.3,13.6c0,1.2,0.1,2.3,0.4,3.4c-6.5,6.6-12.9,13.2-19.3,19.7c-0.6-0.7-1.2-1.3-2-1.8
				c-4.1-2.6-9.4,0.4-11.7,6.7c-2.3,6.3-0.8,13.3,3.4,15.8c0.7,0.4,1.5,0.7,2.3,0.8c0.1,10.5,0.3,20.9,0.4,31.1
				c-0.8,0.4-1.5,1-2.2,1.7c-4,4.1-5.3,11.4-2.9,16.3c2.4,4.9,7.6,5.5,11.6,1.4c0.7-0.7,1.3-1.5,1.8-2.4c6.4,3.4,12.8,6.8,19.1,10.2
				c-0.2,1-0.3,2.1-0.3,3.2c0,6,3.7,9.9,8.1,8.7c4.4-1.1,7.9-6.8,7.9-12.8c0-1.2-0.1-2.3-0.4-3.3c6-6.2,11.9-12.5,18-18.9
				c0.5,0.7,1.2,1.3,1.9,1.7c3.7,2.1,8.3-0.9,10.5-6.6C871.5,1162.5,870.4,1156.1,866.7,1153.9z M800.7,1168c-0.1,0-0.2,0-0.3,0
				c-0.1-10.2-0.3-20.6-0.4-31.1c2.2-1.2,4.1-3.5,5.2-6.6c1.2-3.1,1.4-6.5,0.7-9.4c6.4-6.5,12.8-13.1,19.3-19.7
				c0.1,0.1,0.2,0.2,0.2,0.3C817,1124.3,808.8,1146.6,800.7,1168z M837.4,1188.4c-1.5-1.8-3.6-2.7-5.9-2.1c-2.3,0.6-4.3,2.4-5.8,4.8
				c-6.3-3.4-12.7-6.8-19.1-10.3c0-0.2,0.1-0.3,0.1-0.5c16.1-3.8,32.3-7.6,48.6-11.6c0,0.2,0.1,0.5,0.1,0.7
				C849.4,1175.9,843.4,1182.2,837.4,1188.4z M856.1,1160.5c-0.4,1-0.7,2.1-0.8,3.1c-16.3,3.9-32.5,7.7-48.7,11.4
				c-0.2-1-0.5-1.9-0.9-2.8c-0.4-0.9-0.9-1.6-1.5-2.2c8-21.4,16.3-43.5,24.7-66.3c0.7,0.2,1.5,0.2,2.3,0c0.8-0.2,1.6-0.5,2.3-0.9
				c8.1,18.7,16.2,37.1,24.1,54.9C857,1158.5,856.5,1159.4,856.1,1160.5z M861,1154.1c-0.1,0.1-0.2,0.1-0.3,0.2
				c-7.8-17.8-15.8-36.2-23.9-55c0.1-0.1,0.1-0.2,0.2-0.4c6.2,4,12.4,8,18.5,12c-0.6,3-0.4,6.2,0.7,8.8c1.1,2.6,2.9,4,4.9,4.3
				C861.1,1134.2,861.1,1144.2,861,1154.1z"/>
			<g>
				<g>
					<path class="st37" d="M968.4,568.2c6.2,1.3,10.9-5.7,10.6-15.6c-0.3-9.8-5.5-18.9-11.6-20.4c-6.2-1.5-11.1,5.4-10.9,15.4
						C956.8,557.7,962.1,566.9,968.4,568.2C968.4,568.2,968.4,568.2,968.4,568.2z"/>
					<path class="st37" d="M973.2,572.2c-3.2-0.6-6.4-1.3-9.5-1.9c-8.1-1.6-14.5,7.6-14.2,20.6c0.2,6.4,0.3,12.8,0.5,19.2
						c0,0.1,0,0.2,0,0.3c0.3,0.2,0.6,0.4,0.8,0.6c7.9,5.1,14.6,7.5,20.1,8.3c10.5,1.7,16.3-2.2,16.7-2.4c0.2-0.2,0.5-0.3,0.7-0.5
						c0,0,0.1,0,0.1,0c-0.1-6.2-0.3-12.4-0.5-18.6C987.6,585.2,981,573.8,973.2,572.2L973.2,572.2z"/>
				</g>
				<g>
					<path class="st37" d="M996.9,559.5c5.3,1.2,9.4-5,9.1-13.7c-0.3-8.7-4.8-16.8-10.1-18.2c-5.4-1.3-9.6,4.7-9.3,13.6
						C986.8,550.1,991.5,558.3,996.9,559.5L996.9,559.5z"/>
					<path class="st37" d="M1001,563.1c-2.7-0.6-5.5-1.2-8.2-1.8c-4.4-1-8.2,1.9-10.3,7.1c2,1.8,3.9,4.1,5.6,7
						c3.3,5.8,5.2,13,5.4,20.3c0.1,2.5,0.1,5,0.2,7.5c2,0.7,3.8,1.2,5.5,1.5c9,1.6,14.1-1.7,14.4-1.9c0.2-0.1,0.4-0.3,0.6-0.4
						c0,0,0,0,0.1,0c-0.1-5.5-0.3-11-0.5-16.5C1013.5,574.8,1007.8,564.6,1001,563.1z"/>
				</g>
				<g>
					<path class="st37" d="M937.5,546.3c6,1.3,10.6-5.2,10.3-14.3c-0.3-9.2-5.3-17.7-11.2-19.2c-6-1.5-10.7,4.9-10.5,14.2
						C926.3,536.4,931.4,545,937.5,546.3C937.5,546.3,937.5,546.3,937.5,546.3z"/>
					<path class="st37" d="M943.5,586.4c-0.3-11.9,4-21.1,10.3-24.1c-2.6-6.4-6.9-11.1-11.7-12.1c-3.1-0.7-6.1-1.3-9.2-2
						c-7.8-1.6-14,6.8-13.7,19c0.1,6,0.3,11.9,0.4,17.9c0,0.1,0,0.2,0,0.3c0.3,0.2,0.5,0.4,0.8,0.5c7.6,4.9,14.1,7.3,19.4,8.2
						c1.4,0.2,2.6,0.4,3.8,0.4C943.6,591.8,943.5,589.1,943.5,586.4z"/>
				</g>
			</g>
			<g>
				<path class="st41" d="M1105.8,651.4c-3-0.6-6-1.2-9.1-1.9c0.1,5.2,0.1,10.5,0.1,15.7c-4-6.1-8-12.1-12-18.2
					c-7.3-1.5-14.6-3-22-4.5c-2.6-0.5-4.8-5.2-4.9-10.3c-0.2-17-0.4-33.9-0.7-50.8c-0.1-5.1,2-8.6,4.6-7.9
					c14.4,3.9,28.7,7.9,42.8,11.9c2.4,0.7,4.4,5.1,4.5,9.9c0.3,15.9,0.5,31.9,0.7,48C1110,648.4,1108.2,651.9,1105.8,651.4z"/>
				<path class="st41" d="M1068.1,599.4c10.7,2.7,21.4,5.4,31.9,8.1"/>
				<path class="st41" d="M1068.4,619.6c10.7,2.5,21.4,4.9,31.9,7.4"/>
			</g>
			<g>
				<path class="st41" d="M881.1,818.3c-20.5-0.4-41.1-0.8-61.7-1.2c-1.2,0-2.1-1.5-2.1-3.4c-0.1-49.6-0.1-99.6,0-149.3
					c0-1.8,1-3.2,2.1-3c20.6,2.8,41.2,5.6,61.8,8.5c1.1,0.1,1.9,1.7,1.9,3.4c0.1,47.2,0,94.8,0,141.9
					C883,816.9,882.1,818.3,881.1,818.3z"/>
				<g>
					<g>
						<path class="st41" d="M851.4,699.5c6.6,0.7,13.2,1.5,19.7,2.2"/>
					</g>
					<path class="st42" d="M841.1,698.4c0,4.7-2.4,8.3-5.4,8c-3-0.3-5.5-4.4-5.5-9.2c0-4.8,2.5-8.4,5.5-8
						C838.7,689.5,841.1,693.6,841.1,698.4z"/>
				</g>
				<g>
					<g>
						<path class="st41" d="M851.4,741.9c6.6,0.5,13.2,1,19.7,1.5"/>
					</g>
					<path class="st43" d="M841.1,741.1c0,4.7-2.4,8.4-5.4,8.2c-3-0.2-5.5-4.3-5.5-9.1c0-4.8,2.5-8.5,5.5-8.2
						C838.7,732.3,841.1,736.3,841.1,741.1z"/>
				</g>
				<g>
					<g>
						<path class="st41" d="M851.3,784.2c6.6,0.3,13.1,0.6,19.7,0.9"/>
					</g>
					<path class="st43" d="M841.1,783.7c0,4.7-2.4,8.5-5.4,8.4c-3-0.1-5.5-4.1-5.5-8.9c0-4.8,2.5-8.5,5.5-8.4
						C838.7,775,841.1,779,841.1,783.7z"/>
				</g>
			</g>
			<g>
				<g>
					<g>
						<path class="st41" d="M740.8,1047.8c-15,1.9-29.8,3.8-44.6,5.6c-5.1,0.6-9.6-4.6-9.8-11.6c-1.2-40.4-2.1-82.2-2.8-124.8
							c-0.1-7.5,4.1-13.7,9.4-13.9c11.2-0.3,22.5-0.7,33.9-1c10,13.9,20.1,27.8,30.1,41.6c0.1,8,0.2,15.9,0.3,23.8"/>
						<path class="st41" d="M757,943.6c-6.8,0.4-13.7,0.9-20.5,1.3c-5,0.3-9.2-5.3-9.2-12.5c-0.1-10.1-0.2-20.2-0.4-30.3"/>
					</g>
					<g>
						<path class="st41" d="M728.4,1019c-7.9,0.9-15.8,1.7-23.7,2.5"/>
					</g>
					<g>
						<path class="st41" d="M732.1,990.6c-9.4,0.9-18.7,1.7-28,2.5"/>
					</g>
					<g>
						<path class="st41" d="M723.5,962.9c-6.7,0.5-13.3,0.9-19.9,1.4"/>
					</g>
				</g>
				<g>
					<path class="st41" d="M774.7,988.5c-0.7,0.5-1.5,1-2.3,1.6c-0.8,0.5-1.5,1.1-2.2,1.5c-0.7-0.9-1.5-1.8-2.3-2.5
						c-0.4-0.3-0.7-0.6-1-0.9c0.1-1,0.2-2.1,0.2-3.1c0.1-1.7,0.2-3.4,0.4-5.1c0-0.4-0.2-0.8-0.5-0.9c-1.2-0.2-2.3-0.5-3.4-0.9
						c-1.1-0.3-2.2-0.8-3.4-0.9c-0.3,0-0.5,0.2-0.7,0.6c-0.3,1-0.5,1.9-0.7,2.8c-0.4,1.6-0.8,3.3-1.4,4.9c-1,0.2-1.9,0.5-2.9,0.9
						c-0.4,0.1-0.8,0.3-1.1,0.4c-1.2-2.1-2.5-4.3-3.7-6c-0.2-0.3-0.5-0.3-0.8-0.1c-2,1.9-4,3.7-6,5.5c-0.2,0.2-0.4,0.7-0.2,1.1
						c0.1,0.4,0.3,0.9,0.4,1.3c0.6,2,1.2,4.2,1.9,6.1c-1,1.6-1.9,3.4-2.6,5.2c-1.6-0.1-3.3-0.1-4.9,0c-0.3,0-0.5,0.3-0.6,0.7
						c-0.1,0.9-0.3,1.7-0.5,2.5c-0.5,2.4-0.8,4.8-1,7.2c0,0.4,0.1,0.7,0.4,0.8c0.6,0.3,1.2,0.7,1.8,1c0.9,0.4,1.9,0.9,2.8,1.4
						c0,2,0.2,3.9,0.6,5.7c0,0.1,0,0.3,0,0.4c-1.2,1.5-2.4,2.9-3.4,4.4c-0.1,0.1-0.1,0.2-0.2,0.3c-0.2,0.3-0.3,0.8-0.1,1.1
						c1.2,2.7,2.5,5.3,3.7,8c0.1,0.3,0.5,0.5,0.7,0.3c0.8-0.4,1.6-1.1,2.4-1.6c0.8-0.6,1.5-1.1,2.2-1.5c0.7,1,1.6,1.8,2.5,2.4
						c0.3,0.3,0.7,0.6,1,0.8c-0.1,1-0.1,2.1-0.2,3.1c-0.1,1.6-0.2,3.3-0.3,5c0,0.4,0.2,0.7,0.5,0.8c1.1,0,2.2,0.4,3.3,0.7
						c1.1,0.3,2.2,0.5,3.4,0.7c0.3,0,0.5-0.2,0.7-0.6c0.3-0.9,0.5-1.8,0.7-2.7c0.4-1.6,0.9-3.2,1.4-4.8c1-0.2,1.9-0.5,2.8-0.9
						c0.4-0.1,0.7-0.3,1.1-0.4c1,1.6,1.9,3.1,2.9,4.6c0.2,0.4,0.4,0.7,0.7,1.1c0.2,0.3,0.5,0.3,0.7,0c1.9-1.9,3.8-3.7,5.7-5.6
						c0.2-0.3,0.2-0.7,0.1-1c-0.1-0.4-0.2-0.9-0.4-1.3c-0.6-1.9-1.1-4-1.8-5.8c1-1.6,1.8-3.3,2.5-5.1c1.6,0.2,3.1,0.2,4.7,0
						c0.3,0,0.5-0.3,0.6-0.7c0.1-0.8,0.3-1.6,0.4-2.4c0.5-2.3,0.8-4.7,1-7.1c0-0.2,0-0.4-0.1-0.6c-0.6-0.3-1.2-0.6-1.8-0.9
						c-0.9-0.4-1.8-0.8-2.6-1.4c0-2-0.1-3.9-0.5-5.8c0-0.1,0-0.3,0-0.4c1.2-1.4,2.3-2.9,3.3-4.3c0.1-0.1,0.2-0.3,0.3-0.4
						c0.2-0.3,0.2-0.7,0.1-1.1c-1.2-2.7-2.4-5.3-3.6-8C775.3,988.4,775,988.3,774.7,988.5z M766,1013.7c-0.5,2.7-1.7,5-3.3,6.6l0,0
						c-3.7,3.7-8.7,2.7-11.2-2.4c-1.2-2.7-1.6-6.1-1-9.4c0.6-2.7,1.9-5,3.5-6.7c0.1-0.1,0.1-0.1,0.2-0.2c3.7-3.6,8.5-2.4,10.9,2.7
						c0,0,0,0,0,0C766.3,1007.1,766.6,1010.4,766,1013.7z"/>
				</g>
			</g>
			<g>
				<path class="st41" d="M1004.8,1107.5c-19.3,5-38.7,9.9-58.1,14.7c-0.9,0.2-1.6-0.8-1.6-2.2c0.6-21.4,1.1-43.4,1.5-65.9
					c0-1.5,0.8-2.9,1.7-3.1c19.7-3.7,39.3-7.5,58.8-11.4c0.8-0.2,1.5,0.9,1.4,2.3c-0.6,21.4-1.4,42.3-2.1,62.8
					C1006.4,1106,1005.6,1107.3,1004.8,1107.5z"/>
				<path class="st41" d="M946.5,1060c10.4,9.9,20.7,19.7,30.8,29.4c10.3-13.8,20.7-27.7,31-41.9"/>
				<path class="st41" d="M982,1083.3c8.3,5.5,16.5,11,24.6,16.4"/>
				<path class="st41" d="M945.3,1114.8c9.2-9.7,18.5-19.6,27.8-29.5"/>
			</g>
			<g>
				<path class="st41" d="M1011.7,890.5c22-1.3,43.7-2.6,65.2-4"/>
				<g>
					<path class="st41" d="M1073.7,964.4c-20.5,3.1-41.2,6-62.1,8.9c-0.8,0.1-1.5-1-1.4-2.5c0.7-31.9,1.3-64.4,1.7-97.3
						c0-1.5,0.7-2.8,1.5-2.8c21-0.8,41.9-1.7,62.5-2.6c0.7,0,1.3,1.1,1.3,2.5c-0.5,30.7-1.2,61.1-2.1,91
						C1075.1,963,1074.4,964.2,1073.7,964.4z"/>
					<path class="st37" d="M1066.1,947.3c-14.9,1.9-29.9,3.8-45,5.6c0.3-16,0.7-32.1,0.9-48.4c15.1-1.1,30.2-2.3,45.1-3.5
						C1066.9,916.6,1066.5,932,1066.1,947.3z"/>
					<path class="st37" d="M1052.7,902.6c-0.3,15.5-0.6,30.9-1,46.2"/>
					<path class="st37" d="M1037.6,903.7c-0.3,15.8-0.6,31.4-1,46.9"/>
					<path class="st37" d="M1021.5,928.9c15.1-1.5,30.1-3,45.1-4.6"/>
				</g>
				<path class="st41" d="M1045.9,859.8c-0.1,6.4-0.2,12.8-0.3,19.2"/>
				<path class="st41" d="M1028,860.3c-0.1,6.5-0.2,13.1-0.3,19.6"/>
				<path class="st41" d="M1063.1,859.2c-0.1,6.3-0.2,12.6-0.3,18.8"/>
			</g>
			<g>
				<path class="st41" d="M622.8,1192.6c-1-14.1-2-28.6-2.9-43.4c0-0.5,0.2-0.9,0.6-0.9c17.3-2.7,34.8-5.6,52.4-8.5
					c0.3-0.1,0.6,0.3,0.7,0.7c0.7,14.4,1.4,28.5,2.1,42.3c0,0.4-0.2,0.8-0.6,0.9c-17.4,3.3-34.6,6.6-51.6,9.7
					C623.1,1193.3,622.8,1193,622.8,1192.6z"/>
				<path class="st41" d="M513.4,1259.9c-1.8-14.1-3.5-28.7-5.1-43.6c-0.1-0.5,0.2-0.9,0.6-0.9c18.9-3.1,38.1-6.3,57.5-9.7
					c0.4-0.1,0.7,0.2,0.8,0.7c1.3,14.5,2.7,28.6,4.2,42.3c0,0.4-0.2,0.8-0.6,0.9c-19.1,3.8-38,7.5-56.6,11
					C513.8,1260.7,513.4,1260.4,513.4,1259.9z"/>
				<path class="st41" d="M630,1277.9c-1.2-12.6-2.4-25.5-3.6-38.9c0-0.4,0.2-0.8,0.6-0.9c16.7-3.5,33.6-7.1,50.7-10.8
					c0.3-0.1,0.6,0.2,0.6,0.6c0.8,13,1.7,25.7,2.6,38c0,0.4-0.2,0.7-0.5,0.8c-16.8,4-33.3,7.9-49.7,11.6
					C630.3,1278.5,630,1278.3,630,1277.9z"/>
				<path class="st44" d="M622.8,1192.6c-1-14.1-2-28.6-2.9-43.4c0-0.5,0.2-0.9,0.6-0.9c17.3-2.7,34.8-5.6,52.4-8.5
					c0.3-0.1,0.6,0.3,0.7,0.7c0.7,14.4,1.4,28.5,2.1,42.3c0,0.4-0.2,0.8-0.6,0.9c-17.4,3.3-34.6,6.6-51.6,9.7
					C623.1,1193.3,622.8,1193,622.8,1192.6z"/>
				<path class="st44" d="M513.4,1259.9c-1.8-14.1-3.5-28.7-5.1-43.6c-0.1-0.5,0.2-0.9,0.6-0.9c18.9-3.1,38.1-6.3,57.5-9.7
					c0.4-0.1,0.7,0.2,0.8,0.7c1.3,14.5,2.7,28.6,4.2,42.3c0,0.4-0.2,0.8-0.6,0.9c-19.1,3.8-38,7.5-56.6,11
					C513.8,1260.7,513.4,1260.4,513.4,1259.9z"/>
				<path class="st44" d="M630,1277.9c-1.2-12.6-2.4-25.5-3.6-38.9c0-0.4,0.2-0.8,0.6-0.9c16.7-3.5,33.6-7.1,50.7-10.8
					c0.3-0.1,0.6,0.2,0.6,0.6c0.8,13,1.7,25.7,2.6,38c0,0.4-0.2,0.7-0.5,0.8c-16.8,4-33.3,7.9-49.7,11.6
					C630.3,1278.5,630,1278.3,630,1277.9z"/>
				<path class="st41" d="M569.2,1227.8c9.3-1.7,18.7-3.5,28.1-5.3"/>
				<path class="st41" d="M621.4,1173.4c-9.3,1.6-18.6,3.2-27.8,4.7c2.3,30.4,4.9,59.3,7.7,86.5c8.9-1.9,17.8-3.8,26.8-5.8"/>
			</g>
			<g>
				<g>
					<g>
						<path class="st38" d="M966.1,883.6c-0.3,31.8-0.7,63.2-1.3,94c-18.2,2.4-36.5,4.8-54.9,7.1c0.3-32.3,0.6-65.3,0.7-98.8
							C929.3,885.2,947.7,884.4,966.1,883.6 M968.5,881.1c-20,0.9-40.1,1.7-60.2,2.5c-0.2,35.2-0.4,69.8-0.8,103.7
							c19.9-2.5,39.8-5.1,59.6-7.7C967.8,947.4,968.2,914.5,968.5,881.1C968.5,881.1,968.5,881.1,968.5,881.1z"/>
					</g>
					<path class="st45" d="M907.6,987.3c19.9-2.5,39.8-5.1,59.6-7.7c0.6-32.2,1-65.2,1.3-98.5c-20,0.9-40.1,1.7-60.2,2.5
						C908.1,918.8,907.9,953.4,907.6,987.3z"/>
					<g>
						<path class="st38" d="M925,946.6c-2,0.2-4,0.4-6,0.6c-0.1,12.9-0.2,25.8-0.4,38.5c2-0.3,4-0.5,6-0.8
							C924.7,972.3,924.8,959.5,925,946.6z"/>
						<path class="st38" d="M933.5,926.1c-2,0.2-3.9,0.3-5.9,0.5c-0.2,19.6-0.4,39-0.6,58.1c2-0.2,3.9-0.5,5.9-0.8
							C933.1,964.9,933.3,945.6,933.5,926.1z"/>
						<path class="st38" d="M949.9,932.4c-1.9,0.2-3.8,0.3-5.7,0.5c-0.2,16.7-0.4,33.3-0.6,49.6c1.9-0.2,3.8-0.5,5.7-0.7
							C949.4,965.5,949.7,949,949.9,932.4z"/>
						<path class="st38" d="M958.1,904.8c-1.9,0.1-3.8,0.2-5.7,0.4c-0.3,25.8-0.6,51.3-1,76.3c1.9-0.2,3.7-0.5,5.6-0.7
							C957.5,955.8,957.9,930.4,958.1,904.8z"/>
					</g>
				</g>
				<g>
					<g>
						<path class="st38" d="M897,886.9c-0.2,33.9-0.4,67.3-0.6,99.9c-20.9,2.6-41.8,5.1-62.7,7.5c-0.1-34.3-0.1-69.5-0.1-105.2
							C854.8,888.5,875.9,887.7,897,886.9 M899.4,884.4c-22.7,0.9-45.5,1.7-68.3,2.4c0,37.4,0.1,74.2,0.2,110.1
							c22.5-2.6,45-5.3,67.4-8.1C899.1,954.8,899.3,919.8,899.4,884.4C899.4,884.4,899.4,884.4,899.4,884.4z"/>
					</g>
					<path class="st45" d="M831.3,997c22.5-2.6,45-5.3,67.4-8.1c0.3-34.1,0.5-69.1,0.7-104.5c-22.7,0.9-45.5,1.7-68.3,2.4
						C831.2,924.2,831.3,961.1,831.3,997z"/>
					<g>
						<path class="st41" d="M866.1,939.8c4.3-6.4,8.6-12.8,13-19.3c-3.1-5.5-7.7-8.8-12.9-8.5c-9.8,0.5-17.8,13.7-17.8,29.1
							c0,15.5,8,27.1,17.6,26.1c4.4-0.4,8.4-3.4,11.4-7.9C873.7,952.9,869.9,946.3,866.1,939.8z"/>
						<path class="st46" d="M883.4,938.4c0-7-1.6-13.2-4.3-17.9c-4.3,6.4-8.7,12.9-13,19.3c3.8,6.6,7.6,13.1,11.3,19.6
							C881,954.1,883.3,946.6,883.4,938.4z"/>
					</g>
				</g>
			</g>
			<g>
				<g>
					<path class="st41" d="M1149,887.9c-12.1,0.9-24.4,1.9-36.7,2.8c-1.4,0.1-2.5-2.2-2.4-5.1c1.2-53.8,1.7-108.6,1.7-163.4
						c0-3,1.2-5.3,2.6-5.1c12.4,1.7,24.7,3.3,36.8,5c1.3,0.2,2.3,2.6,2.3,5.5c0,52-0.6,104-1.8,155.2
						C1151.4,885.5,1150.3,887.8,1149,887.9z"/>
					<path class="st41" d="M1134.5,874.5c-0.1,3.7-1.5,6.7-3.3,6.8c-1.7,0.1-3.1-2.8-3-6.5c0.1-3.7,1.5-6.8,3.3-6.8
						C1133.3,867.9,1134.6,870.8,1134.5,874.5z"/>
					<g>
						<path class="st41" d="M1131.9,730.3c2.2,0.3,4.4,0.5,6.6,0.8"/>
						<path class="st38" d="M1129.1,729.9c0,1-0.4,1.8-0.9,1.8c-0.5-0.1-0.9-1-0.9-2c0-1,0.4-1.8,0.9-1.8
							C1128.7,728,1129.1,728.9,1129.1,729.9z"/>
					</g>
					<path class="st41" d="M1111.8,739.8c13.9,1.4,27.7,2.9,41.4,4.3"/>
					<path class="st41" d="M1110.7,861c13.9-0.6,27.7-1.2,41.3-1.8"/>
				</g>
				<path class="st45" d="M1152.2,859.7c-13.7,0.6-27.6,1.2-41.6,1.8c0.7-40.3,1.1-81,1.1-121.8c14.1,1.5,28,2.9,41.7,4.3
					C1153.4,782.8,1152.9,821.4,1152.2,859.7z"/>
			</g>
			<path class="st38" d="M998.3,345.7c-9.8,0-19.6,0-29.4,0.1c7.7,14.9,15.5,30.1,23.3,45.6C994.2,375.8,996.3,360.6,998.3,345.7z"
				/>
		</g>
		<defs>
			<filter id="Adobe_OpacityMaskFilter_1_" filterUnits="userSpaceOnUse" x="194.5" y="959.8" width="246.2" height="243.7">
				<feColorMatrix  type="matrix" values="1 0 0 0 0  0 1 0 0 0  0 0 1 0 0  0 0 0 1 0"/>
			</filter>
		</defs>
		<mask maskUnits="userSpaceOnUse" x="194.5" y="959.8" width="246.2" height="243.7" id="SVGID_36_">
			<g class="st47">
				<linearGradient id="SVGID_37_" gradientUnits="userSpaceOnUse" x1="453.6467" y1="1076.1689" x2="176.9902" y2="1076.1689">
					<stop  offset="0" style="stop-color:#FFFFFF"/>
					<stop  offset="0.866" style="stop-color:#000000"/>
				</linearGradient>
				<path class="st48" d="M453.6,1225c-101.7-8.7-194.9-20.9-272.4-36.8c-2-86-3.4-173.2-4.3-260.9c63.3,11.1,152.4,19.7,255.6,25.8
					C436.8,1050.4,443.8,1143,453.6,1225z"/>
			</g>
		</mask>
		<path class="st49" d="M195.3,972.5c2.2-3.2,4.4-6.5,6.6-9.7c0.3,6.6,0.6,13.2,0.9,19.8c4.1,1.7,8.2,3.4,12.5,5.1
			c1.8,13.2,3.7,26.3,5.6,39.4c5.3-8.6,10.6-17.2,16.1-26c2.7,15.8,5.5,31.6,8.4,47.4c6.6-2.8,13.4-5.6,20.2-8.4
			c1.3,12.2,2.7,24.3,4.1,36.4c14.9-6.4,30.3-13,46.2-19.9c5.1,20,10.3,39.7,15.8,59.2c28.2-1.6,57.8-3.6,88.5-6
			c6.2,32.2,12.7,63.4,19.5,93.4"/>
		<path class="st38" d="M445.6,1202.7c0.3,2.9-1.9,4.9-4.9,4.7c-3-0.3-5.7-2.8-6-5.6c-0.3-2.9,1.8-5,4.8-4.7
			C442.6,1197.3,445.3,1199.8,445.6,1202.7z"/>
	</g>
	<g>
		<g>
			<defs>
				<path id="XMLID_15_" d="M978.2,695.5c-0.5-0.5-1-0.6-1.5-0.2c-4.1,3.7-8.2,7.4-12.3,11.1c-0.5,0.4-0.8,1.3-0.8,2.2
					c0,8.5,0,17,0,25.5c0,1,0.3,1.9,0.8,2.4c4.1,4.6,8.2,9.2,12.3,13.7c0.5,0.5,1,0.6,1.5,0.1c4-3.8,8-7.7,12-11.5
					c0.4-0.4,0.7-1.3,0.7-2.2c0-8.3,0-16.6,0-24.9c0-0.9-0.3-1.8-0.7-2.3C986.3,704.9,982.3,700.2,978.2,695.5z"/>
			</defs>
			<clipPath id="XMLID_5_">
				<use xlink:href="#XMLID_15_"  style="overflow:visible;"/>
			</clipPath>
		</g>
	</g>
</g>
</svg>
