<?xml version="1.0" encoding="utf-8"?>
<!-- Generator: Adobe Illustrator 22.0.1, SVG Export Plug-In . SVG Version: 6.00 Build 0)  -->
<svg version="1.1" id="Layer_1" xmlns="http://www.w3.org/2000/svg" xmlns:xlink="http://www.w3.org/1999/xlink" x="0px" y="0px"
	 viewBox="0 0 200 29.9" style="enable-background:new 0 0 200 29.9;" xml:space="preserve">
<style type="text/css">
	.st0{fill:#FFFFFF;}
</style>
<title>wfg-logo-white</title>
<g id="Layer_2_1_">
	<g id="Layer_1-2">
		<path class="st0" d="M93.2,17.5c0.3-2.3,1.4-4.5,3.2-6.1c1.7-1.4,3.9-2.1,6.2-2c2.5,0,4.2,0.7,5.3,2c1.1,1.3,1.4,3.4,0.9,6.1
			l-0.2,1.1c-0.3,2.3-1.5,4.5-3.2,6.1c-1.7,1.4-3.9,2.1-6.1,2c-2.5,0-4.3-0.7-5.4-2s-1.4-3.4-0.8-6.1L93.2,17.5z M96.7,18.5
			c-0.3,1.3-0.3,2.6,0.2,3.9c0.4,0.9,1.4,1.3,2.9,1.3c1.3,0.1,2.5-0.4,3.4-1.3c0.9-1.1,1.5-2.5,1.7-3.9l0.2-0.9
			c0.3-1.3,0.3-2.6-0.2-3.9c-0.4-0.9-1.4-1.3-2.9-1.3c-1.3-0.1-2.5,0.4-3.4,1.3c-0.9,1.1-1.5,2.5-1.7,3.9L96.7,18.5z"/>
		<path class="st0" d="M25.6,17.5c0.3-2.3,1.4-4.5,3.2-6.1c1.7-1.4,3.9-2.1,6.2-2c2.5,0,4.2,0.7,5.3,2s1.4,3.4,0.9,6.1L41,18.6
			c-0.3,2.3-1.5,4.5-3.2,6.1c-1.7,1.4-3.9,2.1-6.1,2c-2.5,0-4.3-0.7-5.4-2s-1.4-3.4-0.9-6.1L25.6,17.5z M29.1,18.5
			c-0.3,1.3-0.3,2.6,0.2,3.9c0.4,0.9,1.4,1.3,2.9,1.3c1.3,0.1,2.5-0.4,3.4-1.3c0.9-1.1,1.5-2.5,1.7-3.9l0.2-0.9
			c0.3-1.3,0.3-2.6-0.2-3.9c-0.4-0.9-1.4-1.3-2.9-1.3c-1.3-0.1-2.5,0.4-3.4,1.3c-0.9,1.1-1.5,2.5-1.6,3.9L29.1,18.5z"/>
		<path class="st0" d="M47.5,26c0,0.3-0.2,0.5-0.5,0.5h-2.8c-0.2,0-0.5-0.1-0.5-0.4V26V11.7c0-0.3,0.1-0.7,0.2-1
			c0.2-0.3,0.4-0.4,0.7-0.5c0.9-0.3,1.8-0.4,2.7-0.6c1-0.1,2.1-0.2,3.1-0.2c0.5,0,1.1,0,1.7,0.1l1.5,0.1c0.1,0,0.3,0.1,0.4,0.2
			c0.1,0.1,0.1,0.3,0.1,0.4v2.2c0,0.4-0.2,0.5-0.6,0.4c-0.9-0.2-1.9-0.3-2.8-0.3c-1.1,0-2.1,0.1-3.2,0.3L47.5,26z"/>
		<path class="st0" d="M72.6,9.6V9.2c0-0.7,0.1-1.4,0.2-2.2c0.1-0.7,0.4-1.3,0.8-1.8s1-0.9,1.6-1.2c0.8-0.3,1.7-0.4,2.6-0.4h9.6
			c0.3,0,0.5,0.1,0.5,0.4v0.1v17.1c0,0.6,0.1,1.2,0.4,1.7c0.5,0.4,1.1,0.6,1.7,0.5h0.8c0.2,0,0.5,0,0.7-0.1c0.3-0.1,0.5,0.1,0.5,0.4
			v1.7c0,0.3-0.2,0.6-0.5,0.6c-0.5,0.1-1,0.2-1.4,0.3c-0.5,0.1-1,0.1-1.4,0.1c-0.7,0-1.4-0.1-2.1-0.4c-0.5-0.2-1-0.6-1.4-1
			c-0.4-0.5-0.6-1-0.8-1.6c-0.2-0.7-0.2-1.3-0.2-2V6.5h-5.6c-0.6-0.1-1.3,0.1-1.7,0.6c-0.4,0.6-0.5,1.2-0.5,1.9v2.5h4.2
			c0.3,0,0.5,0.2,0.5,0.4l0,0v2c0,0.3-0.1,0.5-0.4,0.5h-0.1h-4.1v11.4c0,0.3-0.2,0.5-0.5,0.5h-2.8c-0.2,0-0.5-0.1-0.5-0.4v-0.1
			L72.6,9.6L72.6,9.6z"/>
		<path class="st0" d="M70.7,25.8l-7.6-7.9l6.9-7.6c0.1-0.1,0.2-0.3,0.2-0.5c0-0.1-0.2-0.2-0.4-0.2h-3.2c-0.3,0-0.5,0.1-0.7,0.4
			l-6.2,6.9V4.2c0-0.3-0.1-0.5-0.4-0.5h-0.1h-2.8c-0.3,0-0.5,0.2-0.5,0.5V26c0,0.2,0.1,0.5,0.4,0.5h0.1h2.8c0.3,0,0.5-0.2,0.5-0.5
			v-4.3l1.3-1.5l5.5,6c0.2,0.2,0.4,0.3,0.7,0.3h3.2c0.2,0,0.4-0.1,0.4-0.2C70.9,26.1,70.9,25.9,70.7,25.8z"/>
		<path class="st0" d="M19.5,25.8c-0.1,0.4-0.6,0.7-1,0.7h-4.3c-0.2,0-0.4,0-0.6-0.1c-0.1-0.1-0.2-0.3-0.2-0.5V8.7L6.8,25.9
			c-0.1,0.2-0.2,0.4-0.3,0.5c-0.2,0.1-0.4,0.2-0.6,0.1H1.6c-0.5,0-0.8-0.2-0.8-0.7L0,4.4C0,4,0.1,3.7,0.5,3.7h2.8
			c0.4,0,0.5,0.2,0.5,0.5l0.4,19l7.4-19c0.1-0.4,0.5-0.6,0.9-0.6h3.8c0.4,0,0.6,0.2,0.6,0.6v19l7.8-19c0.1-0.3,0.4-0.5,0.8-0.5h2.8
			c0.3,0,0.4,0.2,0.3,0.7L19.5,25.8z"/>
		<path class="st0" d="M123.9,9.6c0.4,0,0.7,0.2,0.7,0.6l0.7,12.7l5.4-13c0.1-0.3,0.4-0.4,0.6-0.4h2.7c0.2,0,0.3,0,0.3,0.2
			c0.1,0.1,0.1,0.3,0,0.4l-6.9,15.6c-0.2,0.5-0.6,0.7-1.1,0.7h-3.4c-0.5,0-0.8-0.2-0.8-0.7L121.5,14l-5.1,11.8
			c-0.2,0.4-0.6,0.7-1.1,0.7h-3.4c-0.6,0-0.8-0.2-0.8-0.7l-0.8-15.6c0-0.1,0-0.3,0.1-0.4c0.1-0.1,0.2-0.2,0.4-0.2h2.7
			c0.3,0,0.5,0.2,0.5,0.4l0,0l0.3,13l5.7-12.8c0.2-0.4,0.5-0.6,0.9-0.6L123.9,9.6z"/>
		<path class="st0" d="M185.1,26c-0.1,0.3-0.3,0.5-0.6,0.5h-2.8c-0.3,0-0.5-0.2-0.4-0.5l4.7-14.3c0.1-0.4,0.3-0.7,0.6-1
			c0.2-0.2,0.5-0.4,0.9-0.5c1.1-0.3,2.1-0.5,3.2-0.6c1.2-0.1,2.3-0.2,3.5-0.2c2.6,0,4.4,0.5,5.2,1.6s0.8,2.7,0,5L196,26
			c-0.1,0.3-0.3,0.5-0.6,0.5h-2.8c-0.4,0-0.5-0.2-0.4-0.5l3.3-9.8c0.4-1.4,0.5-2.4,0.1-2.9s-1.3-0.8-2.8-0.8c-0.6,0-1.1,0-1.7,0.1
			s-1.1,0.1-1.7,0.2L185.1,26z"/>
		<path class="st0" d="M182.4,11.4c-0.5-0.6-1.1-1.1-1.8-1.4c-1-0.4-2-0.5-3.1-0.5c-2.4-0.1-4.7,0.7-6.6,2.1c-1.9,1.5-3.3,3.6-4,6
			l-0.3,0.9c-0.4,1.1-0.6,2.3-0.7,3.5c0,0.9,0.2,1.8,0.7,2.6c0.5,0.8,1.3,1.3,2.2,1.6c1.2,0.4,2.5,0.6,3.8,0.5
			c0.9,0,1.8-0.1,2.8-0.2c0.8-0.1,1.6-0.2,2.4-0.5c0.3-0.1,0.6-0.3,0.7-0.7l0.5-1.6c0.1-0.3,0-0.5-0.4-0.4c-0.6,0.1-1.2,0.2-2,0.2
			s-1.6,0.1-2.4,0.1c-0.7,0-1.3-0.1-2-0.2c-0.5-0.1-1-0.3-1.4-0.6c-0.4-0.3-0.6-0.7-0.7-1.1c-0.1-0.6-0.1-1.2,0-1.7h6.8
			c1.3,0,2.6-0.3,3.8-0.9c1-0.7,1.8-1.7,2.1-2.8c0.3-0.9,0.5-1.8,0.5-2.8C183.2,12.7,182.9,12,182.4,11.4z M179,16
			c-0.2,0.6-0.8,1-1.4,0.9h-6.7c0.1,0,0.2-0.5,0.3-0.8V16l0,0c0.4-1,1.1-1.9,2-2.6c0.9-0.7,2.1-1,3.2-1c0.9-0.1,1.8,0.2,2.5,0.9
			C179.4,14.2,179.4,15.2,179,16z"/>
		<path class="st0" d="M163.2,2.9c-0.1-0.1-0.2-0.1-0.5-0.1c-1.1-0.1-2.2-0.1-3.3-0.1c-1.5,0-3,0.2-4.4,0.6c-1.2,0.4-2.4,1-3.4,1.8
			S149.7,6.9,149,8c-0.9,1.3-1.6,2.6-2.3,4l-0.5,0.9c-0.6,1.3-1.2,2.6-1.6,4c-0.3,0.8-0.3,1.8-0.1,2.6c0.2,0.8,0.8,1.4,1.5,1.8
			c0.9,0.5,1.8,0.7,2.8,0.6c0.6,0,1.3,0,2-0.1c0.6,0,1.1-0.1,1.7-0.3l3.2-6.4H151c-0.4,0-0.5-0.2-0.3-0.6l1.3-2.9
			c0.2-0.4,0.5-0.6,0.9-0.6h8.5c0.4,0,0.5,0.2,0.3,0.6l-5.6,11.5c-0.4,1-1.2,1.7-2.2,1.9c-12.8,3.7-15.9-3.8-14.4-8.2
			c0.9-2.6,3.6-9,4.8-10.6c1.1-1.5,2.5-2.9,4.1-4.1c1.4-1.1,3-2,4.8-2.5c-8.7,0.6-16.6,7.1-18.8,14.9c-2.3,8.3,2.9,15,11.7,15
			s17.8-6.7,20.1-15C167.6,10,166.3,5.7,163.2,2.9z"/>
	</g>
</g>
</svg>
