<svg xmlns="http://www.w3.org/2000/svg" viewBox="0 0 121.61 84.86"><defs><style>.cls-1,.cls-3{fill:#fff;}.cls-1,.cls-2,.cls-3,.cls-5,.cls-6{stroke:#000;}.cls-1,.cls-2,.cls-3,.cls-4,.cls-5,.cls-6{stroke-miterlimit:10;}.cls-1,.cls-6{stroke-width:2px;}.cls-2,.cls-7{fill:#eaecef;}.cls-4,.cls-5,.cls-6{fill:none;}.cls-4{stroke:#707d91;opacity:0.2;}.cls-4,.cls-5{stroke-width:3px;}</style></defs><title>icon-web-portals</title><g id="Layer_2" data-name="Layer 2"><g id="Layer_1-2" data-name="Layer 1"><rect class="cls-1" x="1" y="1" width="119.61" height="82.86" rx="3.23" ry="3.23"/><path d="M22.92,5.79A1.94,1.94,0,1,1,21,7.72,1.93,1.93,0,0,1,22.92,5.79Z"/><path d="M15.71,5.79a1.94,1.94,0,1,1-1.93,1.93A1.93,1.93,0,0,1,15.71,5.79Z"/><path d="M8.51,5.79A1.94,1.94,0,1,1,6.58,7.72,1.93,1.93,0,0,1,8.51,5.79Z"/><rect class="cls-2" x="15.94" y="19.24" width="41.79" height="21.93"/><rect class="cls-3" x="63.89" y="19.24" width="41.79" height="21.93"/><rect class="cls-3" x="15.94" y="47.27" width="89.62" height="27.12"/><rect x="19.22" y="31.82" width="2.83" height="9.34"/><rect x="23.46" y="28.37" width="2.84" height="12.78"/><rect x="32.66" y="25.03" width="2.83" height="16.12"/><rect x="36.9" y="26.68" width="2.84" height="14.48"/><rect x="46.09" y="27.58" width="2.83" height="13.58"/><rect x="50.34" y="22.86" width="2.84" height="18.3"/><path class="cls-4" d="M72.16,34.9a6.65,6.65,0,0,1,2-10.9"/><path class="cls-5" d="M74.2,24a6.55,6.55,0,0,1,2.59-.52A6.65,6.65,0,1,1,72.16,34.9"/><line class="cls-6" x1="89.37" y1="25.88" x2="100.55" y2="25.88"/><line class="cls-6" x1="89.37" y1="30.13" x2="100.55" y2="30.13"/><line class="cls-6" x1="89.37" y1="34.37" x2="100.55" y2="34.37"/><rect class="cls-7" x="24.45" y="56.79" width="9.9" height="12.97"/><rect class="cls-7" x="36.76" y="66.86" width="9.9" height="2.84"/><rect class="cls-7" x="49.14" y="66.86" width="9.9" height="2.84"/><rect class="cls-7" x="61.44" y="66.86" width="9.9" height="2.84"/><rect class="cls-7" x="73.96" y="66.86" width="9.9" height="2.84"/><rect class="cls-7" x="86.48" y="66.86" width="9.9" height="2.84"/><rect class="cls-7" x="36.76" y="61.91" width="9.9" height="2.84"/><rect class="cls-7" x="49.14" y="61.91" width="9.9" height="2.84"/><rect class="cls-7" x="61.44" y="61.91" width="9.9" height="2.84"/><rect class="cls-7" x="73.96" y="61.91" width="9.9" height="2.84"/><rect class="cls-7" x="86.48" y="61.91" width="9.9" height="2.84"/><rect class="cls-7" x="36.76" y="56.78" width="9.9" height="2.84"/><rect x="24.5" y="51.82" width="71.96" height="2.83"/><rect class="cls-7" x="49.14" y="56.78" width="9.9" height="2.84"/><rect class="cls-7" x="61.44" y="56.78" width="9.9" height="2.84"/><rect class="cls-7" x="73.96" y="56.78" width="9.9" height="2.84"/><rect class="cls-7" x="86.48" y="56.78" width="9.9" height="2.84"/></g></g></svg>