<svg xmlns="http://www.w3.org/2000/svg" viewBox="0 0 144.44 121.46"><defs><style>.cls-1{fill:none;}.cls-1,.cls-2,.cls-3{stroke:#000;stroke-miterlimit:10;}.cls-2{fill:#eaecef;}.cls-2,.cls-3{stroke-width:2px;}.cls-3{fill:#fff;}</style></defs><title>icon-orchestration-engine</title><g id="Layer_2" data-name="Layer 2"><g id="Layer_1-2" data-name="Layer 1"><path d="M89.42,45.49c-.08-.07-.24-.09-.58-.11-1.3-.07-2.66-.11-4.07-.11a17.82,17.82,0,0,0-5.4.73,12.1,12.1,0,0,0-4.08,2.16,16,16,0,0,0-3.21,3.58,42.49,42.49,0,0,0-2.8,4.92l-.55,1.14a29.16,29.16,0,0,0-1.94,4.9,5.5,5.5,0,0,0-.09,3.2,3.29,3.29,0,0,0,1.84,2.17A6.19,6.19,0,0,0,72,68.8c.77,0,1.59,0,2.47-.09a10.91,10.91,0,0,0,2.06-.32l3.87-7.83H74.66q-.73,0-.39-.69l1.62-3.49A1.21,1.21,0,0,1,77,55.65H87.29c.49,0,.61.25.38.73L80.91,70.43a4,4,0,0,1-2.66,2.28C62.72,77.17,58.84,68,60.69,62.78c1.11-3.15,4.4-11,5.86-12.91a24.06,24.06,0,0,1,4.92-4.95,16.16,16.16,0,0,1,5.79-3c-10.64.75-20.17,8.6-22.84,18.19C51.63,70.2,58,78.37,68.71,78.38s21.63-8.17,24.43-18.26C94.8,54.13,93.22,48.82,89.42,45.49Z"/><line class="cls-1" x1="39.9" y1="30.65" x2="62.55" y2="50.01"/><line class="cls-1" x1="107.11" y1="28.09" x2="87.57" y2="47.82"/><line class="cls-1" x1="103.83" y1="86.35" x2="84.1" y2="69.37"/><line class="cls-1" x1="45.38" y1="91.1" x2="61.27" y2="74.67"/><rect class="cls-2" x="84.47" y="1" width="41.98" height="29.23" rx="1.91" ry="1.91"/><path d="M99.82,5A1.51,1.51,0,0,1,102,7.1,1.51,1.51,0,0,1,99.82,5Z"/><path d="M94.43,5A1.5,1.5,0,0,1,96.55,7.1,1.5,1.5,0,0,1,94.43,5Z"/><path d="M89,5A1.51,1.51,0,0,1,91.16,7.1,1.51,1.51,0,0,1,89,5Z"/><rect class="cls-3" x="101.45" y="67.85" width="41.98" height="29.23" rx="1.91" ry="1.91"/><path d="M116.81,71.82a1.5,1.5,0,0,1,2.12,2.12A1.5,1.5,0,0,1,116.81,71.82Z"/><path d="M111.42,71.82a1.5,1.5,0,0,1,2.12,2.12A1.5,1.5,0,0,1,111.42,71.82Z"/><path d="M106,71.82a1.5,1.5,0,0,1,2.12,2.12A1.5,1.5,0,0,1,106,71.82Z"/><rect class="cls-2" x="24.2" y="91.23" width="41.98" height="29.23" rx="1.91" ry="1.91"/><path d="M39.55,95.2a1.5,1.5,0,0,1,2.12,2.12A1.5,1.5,0,0,1,39.55,95.2Z"/><path d="M34.16,95.2a1.5,1.5,0,0,1,2.12,2.12A1.5,1.5,0,0,1,34.16,95.2Z"/><path d="M28.76,95.2a1.5,1.5,0,0,1,2.12,2.12A1.5,1.5,0,0,1,28.76,95.2Z"/><rect class="cls-3" x="1" y="19.63" width="41.98" height="29.23" rx="1.91" ry="1.91"/><path d="M16.36,23.6a1.5,1.5,0,0,1,2.12,2.13A1.5,1.5,0,0,1,16.36,23.6Z"/><path d="M11,23.6a1.5,1.5,0,0,1,2.12,2.13A1.5,1.5,0,0,1,11,23.6Z"/><path d="M5.57,23.6a1.5,1.5,0,0,1,2.12,2.13A1.5,1.5,0,0,1,5.57,23.6Z"/></g></g></svg>