<svg xmlns="http://www.w3.org/2000/svg" viewBox="0 0 83.93 90.76"><defs><style>.cls-1{fill:#eaecef;}.cls-1,.cls-2,.cls-3,.cls-4{stroke:#000;stroke-linecap:round;stroke-linejoin:round;}.cls-1,.cls-2,.cls-4{stroke-width:2px;}.cls-2,.cls-3{fill:none;}.cls-4{fill:#fff;}</style></defs><title>icon-administrative-requests</title><g id="Layer_2" data-name="Layer 2"><g id="Layer_1-2" data-name="Layer 1"><path class="cls-1" d="M62.55,26.6H44.68a7.79,7.79,0,0,1-7.77-7.76V1"/><path class="cls-2" d="M47,89.76H8.78A7.79,7.79,0,0,1,1,82V8.76A7.79,7.79,0,0,1,8.78,1H36.91L62.55,26.6V41.11"/><line class="cls-3" x1="36.72" y1="70.99" x2="16.58" y2="70.99"/><line class="cls-3" x1="40.33" y1="53.92" x2="16.58" y2="53.92"/><line class="cls-3" x1="33.3" y1="36.85" x2="16.58" y2="36.85"/><path class="cls-4" d="M78.05,55.06c-.68.25-1.4.54-2.09.83s-1.33.57-2,.8A11.89,11.89,0,0,0,71.91,55c-.33-.22-.63-.41-.93-.64l.23-1.94.38-3.12a.57.57,0,0,0-.44-.56,29.6,29.6,0,0,1-3-.71,19.45,19.45,0,0,0-3-.71.54.54,0,0,0-.59.3c-.25.58-.47,1.13-.69,1.71-.39,1-.79,2-1.28,2.91-.86.08-1.72.21-2.56.37l-1,.19C57.94,51.45,56.8,50,55.82,49a.52.52,0,0,0-.67-.08l-5.31,3.06a.56.56,0,0,0-.23.65l.34.82c.48,1.24,1,2.63,1.6,3.84a17.37,17.37,0,0,0-2.35,3A38.83,38.83,0,0,0,44.89,60a.49.49,0,0,0-.52.39,10.38,10.38,0,0,1-.43,1.5,34.43,34.43,0,0,0-1,4.36.51.51,0,0,0,.32.54l1.57.74c.82.31,1.62.66,2.4,1a12.39,12.39,0,0,0,.45,3.58l0,.25c-1.11.82-2.11,1.65-3.07,2.47L44.4,75a.51.51,0,0,0-.08.67l3.11,5.22a.5.5,0,0,0,.62.23c.69-.22,1.4-.54,2.09-.84s1.33-.57,2-.79a11.06,11.06,0,0,0,2.14,1.72l.86.6-.24,2-.37,3.12a.55.55,0,0,0,.44.53,21,21,0,0,1,2.92.7c.95.27,2,.52,3,.71a.51.51,0,0,0,.59-.3c.24-.55.46-1.13.7-1.68A31.74,31.74,0,0,1,63.49,84a14.74,14.74,0,0,0,2.57-.37l1-.18c.85,1.11,1.71,2.14,2.58,3.15l.59.72a.52.52,0,0,0,.67.08l5.26-3.11a.49.49,0,0,0,.08-.65c-.11-.29-.21-.58-.33-.84A39.66,39.66,0,0,0,74.33,79a16.14,16.14,0,0,0,2.33-3.07,34.67,34.67,0,0,0,4.32.39.51.51,0,0,0,.52-.39l.41-1.51a30.84,30.84,0,0,0,1-4.45.56.56,0,0,0-.06-.36l-1.61-.67c-.82-.31-1.62-.66-2.4-1a13.54,13.54,0,0,0-.39-3.7l0-.24c1.11-.8,2.12-1.66,3.1-2.48l.26-.24a.53.53,0,0,0,.08-.67l-3.26-5.24A.55.55,0,0,0,78.05,55.06ZM69.91,70.27a6.83,6.83,0,0,1-3.06,3.89h0A7.17,7.17,0,0,1,56.15,66a7.64,7.64,0,0,1,3.18-3.9l.15-.09a7.06,7.06,0,0,1,9.68,2.37v0A7.43,7.43,0,0,1,69.91,70.27Z"/></g></g></svg>