<svg xmlns="http://www.w3.org/2000/svg" viewBox="0 0 110.55 104.4"><defs><style>.cls-1{fill:none;}.cls-1,.cls-2,.cls-3{stroke:#000;stroke-width:2px;}.cls-1,.cls-3{stroke-miterlimit:10;}.cls-2{fill:#eaecef;stroke-linecap:round;stroke-linejoin:round;}.cls-3{fill:#fff;}</style></defs><title>icon-financial-compliance</title><g id="Layer_2" data-name="Layer 2"><g id="Layer_1-2" data-name="Layer 1"><path class="cls-1" d="M6.15,36.22a51.21,51.21,0,0,1,99.38,9.05"/><path class="cls-1" d="M103.58,68A51.21,51.21,0,0,1,4.15,59.29"/><polygon class="cls-2" points="1 26.02 2.76 42.91 16.5 32.94 1 26.02"/><polygon class="cls-2" points="106.57 60.64 93.59 71.58 109.55 77.36 106.57 60.64"/><circle class="cls-3" cx="55.28" cy="52.2" r="30.94"/><path d="M61.44,59.14a4.47,4.47,0,0,0-1.34-3.35,12.74,12.74,0,0,0-4.7-2.47,13.73,13.73,0,0,1-5.86-3.12,6.58,6.58,0,0,1-1.68-4.67,6.64,6.64,0,0,1,1.85-4.89,7.6,7.6,0,0,1,5-2.14V34.76h1.89V38.5a7,7,0,0,1,5,2.43,8.82,8.82,0,0,1,1.78,5.82h-2.2a6.71,6.71,0,0,0-1.51-4.62,5.18,5.18,0,0,0-4.11-1.71,5.76,5.76,0,0,0-4.1,1.38,4.81,4.81,0,0,0-1.47,3.68A4.49,4.49,0,0,0,51.41,49,13.13,13.13,0,0,0,56,51.31a20.31,20.31,0,0,1,4.71,2.11,6.7,6.7,0,0,1,2.2,2.38,6.94,6.94,0,0,1,.74,3.31A6.56,6.56,0,0,1,61.76,64a8.06,8.06,0,0,1-5.21,2.12v3.51H54.68V66.14a8.44,8.44,0,0,1-5.75-2.34,7.91,7.91,0,0,1-2-5.75h2.22a6,6,0,0,0,1.69,4.53,6.46,6.46,0,0,0,4.7,1.63,6.41,6.41,0,0,0,4.28-1.4A4.6,4.6,0,0,0,61.44,59.14Z"/></g></g></svg>