<svg xmlns="http://www.w3.org/2000/svg" viewBox="0 0 113.33 101.79"><defs><style>.cls-1{fill:#fff;}.cls-1,.cls-2,.cls-3{stroke:#000;stroke-linecap:round;stroke-linejoin:round;}.cls-1,.cls-2{stroke-width:2px;}.cls-2{fill:#eaecef;}.cls-3{fill:none;}</style></defs><title>icon-manage-thousands</title><g id="Layer_2" data-name="Layer 2"><g id="Layer_1-2" data-name="Layer 1"><path class="cls-1" d="M85.11,89.76H46.91A7.79,7.79,0,0,1,39.14,82V8.76A7.79,7.79,0,0,1,46.91,1H75l25.65,25.6V52.07Z"/><path class="cls-2" d="M75,1V18.84a7.79,7.79,0,0,0,7.78,7.76h17.87Z"/><rect class="cls-2" x="12.64" y="14.76" width="48.35" height="65.85" rx="4.28" ry="4.28"/><line class="cls-3" x1="23.02" y1="26.07" x2="50.61" y2="26.07"/><line class="cls-3" x1="23.02" y1="34.96" x2="50.61" y2="34.96"/><path class="cls-1" d="M102.56,100.79H10.77A4.9,4.9,0,0,1,5.88,95.9L1,48.67a4.9,4.9,0,0,1,4.88-4.89H107.44a4.9,4.9,0,0,1,4.89,4.89L107.44,95.9A4.9,4.9,0,0,1,102.56,100.79Z"/><path class="cls-2" d="M69.91,62.19c-.6.21-1.23.47-1.84.72s-1.16.5-1.73.7a11.08,11.08,0,0,0-1.81-1.47c-.29-.19-.56-.36-.82-.56l.2-1.7.33-2.73a.48.48,0,0,0-.38-.49A23.65,23.65,0,0,1,61.2,56a16.38,16.38,0,0,0-2.62-.62.48.48,0,0,0-.52.26c-.21.51-.4,1-.6,1.5-.34.83-.69,1.72-1.12,2.55a21.75,21.75,0,0,0-2.25.32l-.88.16c-.91-1.19-1.91-2.43-2.77-3.37a.47.47,0,0,0-.59-.07L45.2,59.45A.49.49,0,0,0,45,60l.29.72A35.11,35.11,0,0,0,46.7,64.1a15.14,15.14,0,0,0-2.06,2.66,33.93,33.93,0,0,0-3.77-.25.43.43,0,0,0-.46.34A8.34,8.34,0,0,1,40,68.17,29.22,29.22,0,0,0,39.15,72a.45.45,0,0,0,.28.48l1.38.65a21.48,21.48,0,0,1,2.1.91,11.06,11.06,0,0,0,.39,3.13l0,.21c-1,.73-1.86,1.46-2.69,2.17l-.15.14a.43.43,0,0,0-.07.58l2.72,4.58a.45.45,0,0,0,.55.2c.59-.2,1.22-.47,1.83-.73s1.16-.5,1.74-.7a8.74,8.74,0,0,0,1.87,1.5l.75.53-.2,1.72-.33,2.73a.48.48,0,0,0,.38.47,17.33,17.33,0,0,1,2.56.61c.83.23,1.73.45,2.61.62a.45.45,0,0,0,.52-.26c.21-.49.41-1,.62-1.47a24.41,24.41,0,0,1,1.17-2.55,14.22,14.22,0,0,0,2.24-.32l.88-.16c.75,1,1.5,1.87,2.25,2.75l.52.64a.47.47,0,0,0,.59.07l4.61-2.73a.44.44,0,0,0,.07-.57c-.1-.25-.18-.5-.29-.73a32.62,32.62,0,0,0-1.39-3.34,14,14,0,0,0,2-2.68,31.79,31.79,0,0,0,3.78.34.48.48,0,0,0,.46-.34l.35-1.33a25.92,25.92,0,0,0,.89-3.9.48.48,0,0,0,0-.31l-1.41-.59c-.71-.27-1.41-.57-2.1-.91a11.68,11.68,0,0,0-.34-3.23l0-.22c1-.7,1.85-1.45,2.71-2.16l.22-.22A.45.45,0,0,0,73.3,67l-2.84-4.59A.48.48,0,0,0,69.91,62.19ZM62.77,75.51a5.94,5.94,0,0,1-2.68,3.4h0a6.41,6.41,0,0,1-8.72-2,6.49,6.49,0,0,1-.65-5.18,6.71,6.71,0,0,1,2.79-3.42l.14-.08a6.17,6.17,0,0,1,8.46,2.08v0A6.45,6.45,0,0,1,62.77,75.51Z"/></g></g></svg>