<svg xmlns="http://www.w3.org/2000/svg" viewBox="0 0 106.38 100.08"><defs><style>.cls-1{fill:none;}.cls-1,.cls-2,.cls-3{stroke:#000;stroke-width:2px;}.cls-1,.cls-3{stroke-linecap:round;stroke-linejoin:round;}.cls-2{fill:#eaecef;stroke-miterlimit:10;}.cls-3{fill:#fff;}</style></defs><title>icon-complex-grant</title><g id="Layer_2" data-name="Layer 2"><g id="Layer_1-2" data-name="Layer 1"><polyline class="cls-1" points="1 39.35 53.13 1 105.38 39.35"/><rect class="cls-2" x="13.71" y="16.99" width="78.96" height="69.03"/><path d="M59.83,52.8a4.87,4.87,0,0,0-1.43-3.62,13.87,13.87,0,0,0-5.07-2.66Q48.82,45.1,47,43.15a7.07,7.07,0,0,1-1.81-5,7.19,7.19,0,0,1,2-5.27,8.29,8.29,0,0,1,5.43-2.31v-4h2v4a7.64,7.64,0,0,1,5.44,2.62A9.47,9.47,0,0,1,62,39.43H59.63a7.28,7.28,0,0,0-1.62-5,5.63,5.63,0,0,0-4.44-1.84,6.16,6.16,0,0,0-4.42,1.49,5.16,5.16,0,0,0-1.59,4A4.87,4.87,0,0,0,49,41.81a14.12,14.12,0,0,0,5,2.54,21.85,21.85,0,0,1,5.09,2.28,7.3,7.3,0,0,1,2.37,2.57,7.57,7.57,0,0,1,.79,3.56,7.05,7.05,0,0,1-2,5.28,8.62,8.62,0,0,1-5.61,2.28v3.8h-2V60.34a9.12,9.12,0,0,1-6.21-2.52,8.55,8.55,0,0,1-2.19-6.2h2.39a6.48,6.48,0,0,0,1.82,4.88,7,7,0,0,0,5.07,1.77,6.9,6.9,0,0,0,4.62-1.52A4.93,4.93,0,0,0,59.83,52.8Z"/><polygon class="cls-3" points="105.38 99.08 1 99.08 1 39.35 53.13 72.23 105.38 39.35 105.38 99.08"/></g></g></svg>