<svg xmlns="http://www.w3.org/2000/svg" viewBox="0 0 146.39 85.63"><defs><style>.cls-1{fill:#eaecef;}.cls-1,.cls-2,.cls-3{stroke:#000;stroke-linecap:round;stroke-linejoin:round;}.cls-1,.cls-2{stroke-width:2px;}.cls-2{fill:#fff;}.cls-3{fill:none;}</style></defs><title>icon-legal-authorizations</title><g id="Layer_2" data-name="Layer 2"><g id="Layer_1-2" data-name="Layer 1"><rect class="cls-1" x="37.16" y="1" width="32.61" height="48.1"/><rect class="cls-1" x="31.14" y="6.92" width="32.61" height="48.1"/><rect class="cls-1" x="25.11" y="12.84" width="32.61" height="48.1"/><rect class="cls-1" x="19.08" y="18.76" width="32.61" height="48.1"/><rect class="cls-1" x="13.05" y="24.69" width="32.61" height="48.1"/><rect class="cls-1" x="7.03" y="30.61" width="32.61" height="48.1"/><rect class="cls-2" x="1" y="36.53" width="32.61" height="48.1"/><line class="cls-3" x1="8.95" y1="47.54" x2="25.66" y2="47.54"/><line class="cls-3" x1="8.95" y1="54.06" x2="25.66" y2="54.06"/><line class="cls-3" x1="8.95" y1="60.58" x2="25.66" y2="60.58"/><line class="cls-3" x1="8.95" y1="67.1" x2="25.66" y2="67.1"/><line class="cls-3" x1="8.95" y1="73.63" x2="25.66" y2="73.63"/><rect class="cls-1" x="74.97" y="1" width="32.61" height="48.1"/><rect class="cls-1" x="68.94" y="6.92" width="32.61" height="48.1"/><rect class="cls-1" x="62.92" y="12.84" width="32.61" height="48.1"/><rect class="cls-1" x="56.89" y="18.76" width="32.61" height="48.1"/><rect class="cls-1" x="50.86" y="24.69" width="32.61" height="48.1"/><rect class="cls-1" x="44.83" y="30.61" width="32.61" height="48.1"/><rect class="cls-2" x="38.81" y="36.53" width="32.61" height="48.1"/><line class="cls-3" x1="46.76" y1="47.54" x2="63.47" y2="47.54"/><line class="cls-3" x1="46.76" y1="54.06" x2="63.47" y2="54.06"/><line class="cls-3" x1="46.76" y1="60.58" x2="63.47" y2="60.58"/><line class="cls-3" x1="46.76" y1="67.1" x2="63.47" y2="67.1"/><line class="cls-3" x1="46.76" y1="73.63" x2="63.47" y2="73.63"/><rect class="cls-1" x="112.78" y="1" width="32.61" height="48.1"/><rect class="cls-1" x="106.75" y="6.92" width="32.61" height="48.1"/><rect class="cls-1" x="100.72" y="12.84" width="32.61" height="48.1"/><rect class="cls-1" x="94.7" y="18.76" width="32.61" height="48.1"/><rect class="cls-1" x="88.67" y="24.69" width="32.61" height="48.1"/><rect class="cls-1" x="82.64" y="30.61" width="32.61" height="48.1"/><rect class="cls-2" x="76.61" y="36.53" width="32.61" height="48.1"/><line class="cls-3" x1="84.56" y1="47.54" x2="101.28" y2="47.54"/><line class="cls-3" x1="84.56" y1="54.06" x2="101.28" y2="54.06"/><line class="cls-3" x1="84.56" y1="60.58" x2="101.28" y2="60.58"/><line class="cls-3" x1="84.56" y1="67.1" x2="101.28" y2="67.1"/><line class="cls-3" x1="84.56" y1="73.63" x2="101.28" y2="73.63"/></g></g></svg>