<svg xmlns="http://www.w3.org/2000/svg" viewBox="0 0 108.43 82.38"><defs><style>.cls-1,.cls-3{fill:none;}.cls-1,.cls-2,.cls-3,.cls-4{stroke:#000;stroke-linecap:round;stroke-linejoin:round;}.cls-1,.cls-2,.cls-4{stroke-width:2px;}.cls-2{fill:#eaecef;}.cls-4{fill:#fff;}</style></defs><title>icon-purchase-order</title><g id="Layer_2" data-name="Layer 2"><g id="Layer_1-2" data-name="Layer 1"><rect class="cls-1" x="1" y="1" width="13.65" height="13.94"/><rect class="cls-2" x="23.19" y="1" width="46.38" height="13.94"/><line class="cls-3" x1="107.93" y1="14.94" x2="78.53" y2="14.94"/><rect class="cls-1" x="1" y="23.14" width="13.65" height="13.94"/><rect class="cls-2" x="23.19" y="23.14" width="46.38" height="13.94"/><line class="cls-3" x1="107.93" y1="37.09" x2="78.53" y2="37.09"/><rect class="cls-1" x="1" y="45.29" width="13.65" height="13.94"/><rect class="cls-2" x="23.19" y="45.29" width="46.38" height="13.94"/><line class="cls-3" x1="107.93" y1="59.23" x2="78.53" y2="59.23"/><rect class="cls-4" x="1" y="67.43" width="13.65" height="13.94"/><rect class="cls-4" x="23.19" y="67.43" width="46.38" height="13.94"/><line class="cls-3" x1="107.93" y1="81.38" x2="78.53" y2="81.38"/><polyline class="cls-1" points="4.33 8.14 7.06 11.05 11.32 4.9"/><polyline class="cls-1" points="4.33 30.29 7.06 33.19 11.32 27.04"/><polyline class="cls-1" points="4.33 52.43 7.06 55.34 11.32 49.19"/><path d="M85.16,9.06a1.17,1.17,0,0,0-.33-.86,3,3,0,0,0-1.1-.62,7.51,7.51,0,0,1-1.2-.5A2.44,2.44,0,0,1,81.1,4.82a2.33,2.33,0,0,1,.62-1.67,2.6,2.6,0,0,1,1.68-.78V1h1V2.38A2.45,2.45,0,0,1,86,3.29a3,3,0,0,1,.58,1.94H85.12A1.91,1.91,0,0,0,84.78,4a1.12,1.12,0,0,0-.94-.44,1.28,1.28,0,0,0-.92.31,1.22,1.22,0,0,0-.33.91,1.15,1.15,0,0,0,.33.86A3.26,3.26,0,0,0,84,6.27a9.92,9.92,0,0,1,1.23.53,3.34,3.34,0,0,1,.75.56,2.3,2.3,0,0,1,.47.72,2.61,2.61,0,0,1,.16,1A2.3,2.3,0,0,1,86,10.72a2.78,2.78,0,0,1-1.76.76v1.19h-1V11.48a2.82,2.82,0,0,1-1.86-.87,2.81,2.81,0,0,1-.65-1.94h1.49a1.69,1.69,0,0,0,.39,1.19,1.4,1.4,0,0,0,1.09.43A1.51,1.51,0,0,0,84.79,10,1.14,1.14,0,0,0,85.16,9.06Z"/><path d="M85.16,31.41a1.17,1.17,0,0,0-.33-.86,2.84,2.84,0,0,0-1.1-.61,8.41,8.41,0,0,1-1.2-.51,2.44,2.44,0,0,1-1.43-2.26,2.33,2.33,0,0,1,.62-1.67,2.6,2.6,0,0,1,1.68-.78V23.39h1v1.34a2.45,2.45,0,0,1,1.64.91,3,3,0,0,1,.58,1.94H85.12a1.93,1.93,0,0,0-.34-1.21,1.12,1.12,0,0,0-.94-.44,1.28,1.28,0,0,0-.92.31,1.23,1.23,0,0,0-.33.92,1.15,1.15,0,0,0,.33.85,3.26,3.26,0,0,0,1.11.61,9.92,9.92,0,0,1,1.23.53,3.34,3.34,0,0,1,.75.56,2.3,2.3,0,0,1,.47.72,2.61,2.61,0,0,1,.16,1A2.3,2.3,0,0,1,86,33.07a2.78,2.78,0,0,1-1.76.76V35h-1V33.83A2.6,2.6,0,0,1,80.76,31h1.49a1.69,1.69,0,0,0,.39,1.19,1.4,1.4,0,0,0,1.09.43,1.51,1.51,0,0,0,1.06-.34A1.14,1.14,0,0,0,85.16,31.41Z"/><path d="M85.16,53.76a1.17,1.17,0,0,0-.33-.86,2.84,2.84,0,0,0-1.1-.61,8.41,8.41,0,0,1-1.2-.51,2.44,2.44,0,0,1-1.43-2.26,2.33,2.33,0,0,1,.62-1.67,2.6,2.6,0,0,1,1.68-.78V45.74h1v1.34A2.45,2.45,0,0,1,86,48a3,3,0,0,1,.58,1.94H85.12a1.93,1.93,0,0,0-.34-1.21,1.12,1.12,0,0,0-.94-.44,1.28,1.28,0,0,0-.92.31,1.23,1.23,0,0,0-.33.92,1.15,1.15,0,0,0,.33.85A3.26,3.26,0,0,0,84,51a9.92,9.92,0,0,1,1.23.53,3.34,3.34,0,0,1,.75.56,2.3,2.3,0,0,1,.47.72,2.61,2.61,0,0,1,.16,1A2.3,2.3,0,0,1,86,55.42a2.78,2.78,0,0,1-1.76.76v1.19h-1V56.18a2.81,2.81,0,0,1-1.86-.86,2.85,2.85,0,0,1-.65-2h1.49a1.69,1.69,0,0,0,.39,1.19,1.4,1.4,0,0,0,1.09.43,1.51,1.51,0,0,0,1.06-.34A1.14,1.14,0,0,0,85.16,53.76Z"/><path d="M85.16,76.11a1.17,1.17,0,0,0-.33-.86,2.84,2.84,0,0,0-1.1-.61,8.41,8.41,0,0,1-1.2-.51,2.44,2.44,0,0,1-1.43-2.26,2.33,2.33,0,0,1,.62-1.67,2.6,2.6,0,0,1,1.68-.78V68.09h1v1.34a2.45,2.45,0,0,1,1.64.91,3,3,0,0,1,.58,1.94H85.12a1.93,1.93,0,0,0-.34-1.21,1.12,1.12,0,0,0-.94-.44,1.28,1.28,0,0,0-.92.31,1.23,1.23,0,0,0-.33.92,1.15,1.15,0,0,0,.33.85,3.26,3.26,0,0,0,1.11.61,9.92,9.92,0,0,1,1.23.53,3.34,3.34,0,0,1,.75.56,2.3,2.3,0,0,1,.47.72,2.61,2.61,0,0,1,.16,1A2.3,2.3,0,0,1,86,77.77a2.78,2.78,0,0,1-1.76.76v1.19h-1V78.53a2.81,2.81,0,0,1-1.86-.86,2.85,2.85,0,0,1-.65-2h1.49a1.69,1.69,0,0,0,.39,1.19,1.4,1.4,0,0,0,1.09.43A1.51,1.51,0,0,0,84.79,77,1.14,1.14,0,0,0,85.16,76.11Z"/></g></g></svg>