<svg xmlns="http://www.w3.org/2000/svg" viewBox="0 0 176.31 72.59"><defs><style>.cls-1{fill:none;stroke-miterlimit:10;}.cls-1,.cls-2{stroke:#000;}.cls-2,.cls-6{fill:#fff;}.cls-2{stroke-linecap:round;stroke-linejoin:round;stroke-width:2px;}.cls-3{fill:#eaecef;}.cls-3,.cls-4,.cls-5,.cls-6{fill-rule:evenodd;}.cls-5{fill:#fafdff;}</style></defs><title>icon-workflowgen-for-imanage</title><g id="Layer_2" data-name="Layer 2"><g id="Layer_1-2" data-name="Layer 1"><line class="cls-1" x1="68.17" y1="36.29" x2="107.99" y2="36.29"/><rect class="cls-2" x="1" y="1" width="70.59" height="70.59" rx="17" ry="17"/><rect class="cls-2" x="104.73" y="1" width="70.59" height="70.59" rx="17" ry="17"/><path class="cls-3" d="M165.22,39.31l-1.72,1.95a28.12,28.12,0,0,1-2.89,2.51,40.08,40.08,0,0,1-13.29,6.32c-7.28,2.08-17.95,2.7-24.23-1-2.89-1.7-5.37-4-6-8.4-.77-5.33,2.2-12.12,5.16-16.13a34.12,34.12,0,0,1,3.33-3.82,24.61,24.61,0,0,1,4.13-3,19.42,19.42,0,0,1,5.06-2.06v-.09a66.59,66.59,0,0,0-7.48-1.19h-3.1a21.91,21.91,0,0,0-4.87.74,7.55,7.55,0,0,0-5,3.67,15,15,0,0,0-1.85,6.75V29a50.7,50.7,0,0,0,2.3,11.82,35.6,35.6,0,0,0,3.4,7.42l.92,1.28a21.49,21.49,0,0,0,5.72,5.19A25.54,25.54,0,0,0,136.4,58.2h3.84a38.19,38.19,0,0,0,7.94-1.38,35.82,35.82,0,0,0,11.87-5.54A16.19,16.19,0,0,0,163.3,48a10.23,10.23,0,0,0,2.11-6.69c0-.84-.19-1.28-.19-2Z"/><path class="cls-4" d="M167,30.92c-1.31-2.92-4.44-6-7.09-7.86-1.23-.85-2-1.45-3.34-2.25l-2.32-1.34a54.72,54.72,0,0,0-6.48-3,22.21,22.21,0,0,0-6.06-1.46,21.63,21.63,0,0,0-5.32.23,14.16,14.16,0,0,1-1.65.3v.09a19.42,19.42,0,0,0-5.06,2.06,24.61,24.61,0,0,0-4.13,3,34.12,34.12,0,0,0-3.33,3.82c-3,4-5.93,10.8-5.16,16.13.63,4.36,3.11,6.7,6,8.4,6.28,3.69,16.95,3.07,24.23,1a40.08,40.08,0,0,0,13.29-6.32,28.12,28.12,0,0,0,2.89-2.51l1.72-1.95V39.1c.29-.13.51-.58.79-1a9.75,9.75,0,0,0,.68-1.16,6.11,6.11,0,0,0,.92-2.83A6.76,6.76,0,0,0,167,30.92Z"/><path class="cls-5" d="M132.59,42.53h3.12V36.11a3.4,3.4,0,0,1,.64-2.61,2.77,2.77,0,0,1,4.32,0,3.48,3.48,0,0,1,.65,2.54v6.51h3.12V36.11c0-1.85.56-3.62,2.77-3.65a2.89,2.89,0,0,1,2.19,1,3.64,3.64,0,0,1,.65,2.57v6.5h3.13c0-1.82.2-7.63-.31-9.15a5.9,5.9,0,0,0-9.09-2.9,6,6,0,0,0-.87.75c-1.22-.89-2-1.89-4.41-1.89a5.83,5.83,0,0,0-4.36,1.95c-1.22,1.36-1.55,2.49-1.55,4.82v6.42Z"/><path class="cls-6" d="M131.21,24.81a2.33,2.33,0,1,1-2.33,2.33,2.33,2.33,0,0,1,2.33-2.33Z"/><path d="M54.06,19.63c-.09-.08-.27-.09-.66-.11-1.47-.09-3-.13-4.63-.13a20.18,20.18,0,0,0-6.13.82A13.91,13.91,0,0,0,38,22.67a18.31,18.31,0,0,0-3.65,4.07,45.45,45.45,0,0,0-3.17,5.59l-.64,1.29a33.43,33.43,0,0,0-2.2,5.57,6.24,6.24,0,0,0-.1,3.64,3.76,3.76,0,0,0,2.09,2.46,7,7,0,0,0,3.91.83c.88,0,1.81,0,2.8-.1a11.83,11.83,0,0,0,2.35-.37l4.39-8.89h-6.5q-.82,0-.45-.78l1.86-4a1.33,1.33,0,0,1,1.21-.82H51.65c.55,0,.69.28.42.83L44.39,48a4.49,4.49,0,0,1-3,2.59c-17.65,5.07-22.06-5.3-19.95-11.28,1.26-3.58,5-12.46,6.66-14.67A27.58,27.58,0,0,1,33.67,19a18.26,18.26,0,0,1,6.58-3.41c-12.1.85-22.93,9.78-25.95,20.67C11.12,47.71,18.39,57,30.54,57s24.57-9.28,27.75-20.74C60.17,29.46,58.38,23.42,54.06,19.63Z"/></g></g></svg>