<svg xmlns="http://www.w3.org/2000/svg" viewBox="0 0 92.17 104.94"><defs><style>.cls-1{fill:#eaecef;}.cls-1,.cls-2,.cls-3,.cls-4{stroke:#000;}.cls-1,.cls-2,.cls-3{stroke-linecap:round;stroke-linejoin:round;}.cls-1,.cls-2,.cls-4{stroke-width:2px;}.cls-2,.cls-3{fill:none;}.cls-4{fill:#fff;stroke-miterlimit:10;}</style></defs><title>icon-insurance-claim</title><g id="Layer_2" data-name="Layer 2"><g id="Layer_1-2" data-name="Layer 1"><path class="cls-1" d="M66.21,28.12H47.27A8.25,8.25,0,0,1,39,19.9V1"/><path class="cls-2" d="M60.71,95H9.24A8.26,8.26,0,0,1,1,86.8V9.22A8.26,8.26,0,0,1,9.24,1H39L66.21,28.12V43.49"/><line class="cls-3" x1="47.54" y1="75.14" x2="17.5" y2="75.14"/><line class="cls-3" x1="47.88" y1="57.05" x2="17.5" y2="57.05"/><line class="cls-3" x1="35.21" y1="38.97" x2="17.5" y2="38.97"/><path class="cls-4" d="M55.32,94.17C39.93,78.36,42,53.62,42,53.62l24.54-9.93,24.53,9.93s2.08,24.74-13.31,40.55a81.62,81.62,0,0,1-11.23,9.56A88.89,88.89,0,0,1,55.32,94.17Z"/><path d="M70,69.4h7.75V75H70v8.75h-5.9V75H56.3V69.4h7.78V61H70Z"/></g></g></svg>