<?xml version="1.0" encoding="utf-8"?>
<!-- Generator: Adobe Illustrator 21.1.0, SVG Export Plug-In . SVG Version: 6.00 Build 0)  -->
<svg version="1.1" id="Layer_1" xmlns="http://www.w3.org/2000/svg" xmlns:xlink="http://www.w3.org/1999/xlink" x="0px" y="0px"
	 viewBox="0 0 48 36" style="enable-background:new 0 0 48 36;" xml:space="preserve">
<style type="text/css">
	.st0{fill:#666666;}
</style>
<title>Notification_s</title>
<path class="st0" d="M31.7,8.9H16.3c-2.1,0-3.9,1.7-3.9,3.9v10.2c0,2.1,1.7,3.9,3.9,3.9h15.5c2.1,0,3.9-1.7,3.9-3.9V12.8
	C35.5,10.7,33.9,8.9,31.7,8.9z M16.3,10.3h15.5c0.8,0,1.4,0.3,1.9,0.9c0,0.2-0.1,0.3-0.2,0.4l-9,7.2c-0.4,0.2-0.9,0.2-1.2-0.1
	l-8.8-7.1c-0.1-0.2-0.2-0.3-0.2-0.5C14.8,10.7,15.5,10.3,16.3,10.3z M13.7,23.2V12.8l0,0l7.2,5.8l-7.1,5.3
	C13.8,23.7,13.7,23.4,13.7,23.2z M31.7,25.7H16.3c-0.6,0-1.2-0.2-1.7-0.7l7.4-5.6l0.5,0.5c0.4,0.4,0.9,0.6,1.4,0.7
	c0.5,0,1.1-0.2,1.4-0.6l0.5-0.5l7.5,5.6C32.9,25.5,32.3,25.7,31.7,25.7L31.7,25.7z M34.2,23.2c0,0.2-0.1,0.5-0.2,0.8l-7-5.3l7.2-5.8
	l0,0L34.2,23.2z"/>
</svg>
