<?xml version="1.0" encoding="utf-8"?>
<!-- Generator: Adobe Illustrator 22.0.1, SVG Export Plug-In . SVG Version: 6.00 Build 0)  -->
<svg version="1.1" id="Layer_1" xmlns="http://www.w3.org/2000/svg" xmlns:xlink="http://www.w3.org/1999/xlink" x="0px" y="0px"
	 viewBox="0 0 365.7 200" style="enable-background:new 0 0 365.7 200;" xml:space="preserve">
<style type="text/css">
	.st0{fill:#FFFFFF;}
	.st1{fill:none;stroke:#000000;stroke-miterlimit:10;}
	.st2{fill:none;stroke:#000000;stroke-linecap:round;stroke-linejoin:round;stroke-miterlimit:10;}
	.st3{opacity:0.2;fill:#707D91;}
	.st4{fill:none;stroke:#000000;stroke-width:3;stroke-linecap:round;stroke-linejoin:round;stroke-miterlimit:10;}
	.st5{fill:none;stroke:#000000;stroke-width:3;stroke-miterlimit:10;}
</style>
<rect class="st0" width="365.7" height="200"/>
<title>icon-integration</title>
<g>
	<g>
		<path class="st1" d="M67.9,97.9V65.9c0-2.4,2-4.4,4.4-4.4h91.1"/>
		<path class="st1" d="M147.4,173.4H72.3c-2.4,0-4.4-2-4.4-4.4v-34.1"/>
		<line class="st1" x1="269.4" y1="173.4" x2="221.4" y2="173.4"/>
		<g>
			<g>
				<polyline class="st2" points="210.9,187.4 220.9,187.4 220.9,159.4 210.9,159.4 				"/>
			</g>
		</g>
		<line class="st1" x1="290.9" y1="83.9" x2="290.9" y2="145.9"/>
		<line class="st1" x1="195.4" y1="61.4" x2="258.4" y2="61.4"/>
	</g>
	<g>
		<g>
			<path class="st3" d="M189.4,165.4v-12.9c0-0.3,0.3-0.6,0.6-0.6h19.9c0.3,0,0.6,0.3,0.6,0.6v12.9c0,0.3-0.3,0.6-0.6,0.6h-19.9
				C189.6,165.9,189.4,165.7,189.4,165.4z"/>
			<path class="st3" d="M147.4,180.4v-12.9c0-0.3,0.3-0.6,0.6-0.6h19.9c0.3,0,0.6,0.3,0.6,0.6v12.9c0,0.3-0.3,0.6-0.6,0.6h-19.9
				C147.6,180.9,147.4,180.7,147.4,180.4z"/>
			<path class="st3" d="M189.4,194.4v-12.9c0-0.3,0.3-0.6,0.6-0.6h19.9c0.3,0,0.6,0.3,0.6,0.6v12.9c0,0.3-0.3,0.6-0.6,0.6h-19.9
				C189.6,194.9,189.4,194.7,189.4,194.4z"/>
			<path class="st4" d="M189.9,165.9V153c0-0.3,0.3-0.6,0.6-0.6h19.9c0.3,0,0.6,0.3,0.6,0.6v12.9c0,0.3-0.3,0.6-0.6,0.6h-19.9
				C190.1,166.4,189.9,166.2,189.9,165.9z"/>
			<path class="st4" d="M146.9,180.9V168c0-0.3,0.3-0.6,0.6-0.6h19.9c0.3,0,0.6,0.3,0.6,0.6v12.9c0,0.3-0.3,0.6-0.6,0.6h-19.9
				C147.1,181.4,146.9,181.2,146.9,180.9z"/>
			<path class="st4" d="M189.9,194.9V182c0-0.3,0.3-0.6,0.6-0.6h19.9c0.3,0,0.6,0.3,0.6,0.6v12.9c0,0.3-0.3,0.6-0.6,0.6h-19.9
				C190.1,195.4,189.9,195.2,189.9,194.9z"/>
			<line class="st2" x1="167.9" y1="174.4" x2="178.9" y2="174.4"/>
			<polyline class="st2" points="189.9,160.4 178.9,160.4 178.9,188.4 189.9,188.4 			"/>
		</g>
	</g>
	<g>
		<path class="st3" d="M315.2,153.4c-1.1-4-9.2-8-23.4-8c-14.2,0-22.3,4-23.4,8c-0.1,0.1-0.1,0.3-0.1,0.5v1.2
			c2.7,2.8,11.6,5.4,23.5,5.4c11.9,0,20.8-2.6,23.5-5.4v-1.2C315.4,153.6,315.3,153.5,315.2,153.4z"/>
		<g>
			<path d="M291.9,148.3c13.4,0,19.9,3.8,20.5,5.8c0,0,0,0.1,0,0.1v5.1v8.8v3.5v8.8v3.4v5.9v1.4c0,0,0,0.1,0,0.1
				c-0.5,2.1-7.8,5.7-20.5,5.7c-12.7,0-20-3.7-20.5-5.7c0,0,0-0.1,0-0.1V189v-5.2v-3.4v-8.8v-3.5v-8.8v-5.1c0,0,0-0.1,0-0.1
				C271.9,152.3,277.7,148.3,291.9,148.3 M291.9,145.3c-14.2,0-22.3,4-23.4,8c-0.1,0.1-0.1,0.3-0.1,0.5v5.5v8.8v3.5v8.8v3.4v5.2v2.5
				c0,0.2,0,0.3,0.1,0.4c1.1,4.6,11,8,23.4,8c12.3,0,22.2-3.4,23.4-8c0.1-0.1,0.1-0.3,0.1-0.5v-1.8v-5.9v-3.4v-8.8v-3.5v-8.8v-5.5
				c0-0.2-0.1-0.3-0.1-0.4C314.2,149.3,306.1,145.3,291.9,145.3L291.9,145.3z"/>
		</g>
		<path class="st2" d="M268.9,155.6c3.3,2.5,11.8,4.7,22.7,4.7c11.2,0,19.7-2.3,22.9-4.9"/>
		<path class="st1" d="M268.7,168.8c3.2,2.6,11.7,4.8,22.9,4.8c11.2,0,19.8-2.4,23-5"/>
		<path class="st1" d="M268.7,181.8c3.2,2.6,11.7,4.8,22.9,4.8c11.2,0,19.7-2.3,22.9-4.8"/>
		<rect x="290.4" y="165.9" width="3" height="3"/>
		<rect x="290.4" y="190.9" width="3" height="3"/>
		<rect x="290.4" y="178.9" width="3" height="3"/>
	</g>
	<g>
		<polyline class="st3" points="163.4,80.9 163.4,38.9 195.4,39 195.3,80.9 		"/>
		<path class="st4" d="M190.4,91.7l-22.4,0c-2.7,0-4.9-2.2-4.9-4.9l0.1-51c0-2.7,2.2-4.9,4.9-4.9l22.4,0c2.7,0,4.9,2.2,4.9,4.9
			l-0.1,51C195.3,89.5,193.1,91.7,190.4,91.7z"/>
		<circle class="st2" cx="179.4" cy="85.9" r="2.5"/>
		<g>
			<line class="st2" x1="178.9" y1="35.4" x2="183.9" y2="35.5"/>
			<circle cx="175.9" cy="35.4" r="0.5"/>
		</g>
		<line class="st2" x1="163.9" y1="38.4" x2="194.9" y2="38.4"/>
		<line class="st2" x1="163.9" y1="81.4" x2="194.9" y2="81.4"/>
		<line class="st3" x1="195.4" y1="80.9" x2="163.4" y2="80.9"/>
	</g>
	<g>
		<path class="st3" d="M322.1,37.9h-60.6c-1.8,0-3.2,1.4-3.2,3.2v6.8h67v-6.8C325.4,39.4,323.9,37.9,322.1,37.9z"/>
		<line class="st1" x1="258.4" y1="48.4" x2="325.4" y2="48.4"/>
		<path class="st5" d="M321.6,38.4h-60.6c-1.8,0-3.2,1.4-3.2,3.2v15.2v4.9v18.4c0,1.8,1.5,3.2,3.2,3.2h60.6c1.8,0,3.2-1.4,3.2-3.2
			V61.8v-4.9V41.7C324.9,39.9,323.4,38.4,321.6,38.4z"/>
		<g>
			<path d="M276.6,42.7c0.9,0,1.6,0.7,1.6,1.6c0,0.9-0.7,1.6-1.6,1.6c-0.9,0-1.6-0.7-1.6-1.6C275.1,43.4,275.7,42.7,276.6,42.7z"/>
			<path d="M270.8,42.7c0.9,0,1.6,0.7,1.6,1.6c0,0.9-0.7,1.6-1.6,1.6c-0.9,0-1.6-0.7-1.6-1.6C269.3,43.4,270,42.7,270.8,42.7z"/>
			<path d="M265,42.7c0.9,0,1.6,0.7,1.6,1.6c0,0.9-0.7,1.6-1.6,1.6c-0.9,0-1.6-0.7-1.6-1.6C263.5,43.4,264.2,42.7,265,42.7z"/>
		</g>
	</g>
	<g>
		<path class="st3" d="M92.7,97.9H44c-1.4,0-2.6,1.2-2.6,2.6v5.4h54v-5.4C95.4,99.1,94.2,97.9,92.7,97.9z"/>
		<line class="st1" x1="40.4" y1="106.4" x2="94.4" y2="106.4"/>
		<path class="st5" d="M92.2,98.4H43.5c-1.4,0-2.6,1.2-2.6,2.6v12.5v4.1v15.2c0,1.4,1.2,2.6,2.6,2.6h48.8c1.4,0,2.6-1.2,2.6-2.6
			v-15.2v-4.1v-12.5C94.9,99.6,93.7,98.4,92.2,98.4z"/>
		<g>
			<path d="M55.5,101.5c0.7,0,1.3,0.6,1.3,1.3c0,0.7-0.6,1.3-1.3,1.3c-0.7,0-1.3-0.6-1.3-1.3C54.2,102.1,54.8,101.5,55.5,101.5z"/>
			<path d="M50.8,101.5c0.7,0,1.3,0.6,1.3,1.3c0,0.7-0.6,1.3-1.3,1.3c-0.7,0-1.3-0.6-1.3-1.3C49.5,102.1,50.1,101.5,50.8,101.5z"/>
			<path d="M46,101.5c0.7,0,1.3,0.6,1.3,1.3c0,0.7-0.6,1.3-1.3,1.3c-0.7,0-1.3-0.6-1.3-1.3C44.8,102.1,45.3,101.5,46,101.5z"/>
		</g>
	</g>
</g>
</svg>
