<?xml version="1.0" encoding="utf-8"?>
<!-- Generator: Adobe Illustrator 22.0.1, SVG Export Plug-In . SVG Version: 6.00 Build 0)  -->
<svg version="1.1" id="Layer_1" xmlns="http://www.w3.org/2000/svg" xmlns:xlink="http://www.w3.org/1999/xlink" x="0px" y="0px"
	 viewBox="0 0 301 301" style="enable-background:new 0 0 301 301;" xml:space="preserve">
<style type="text/css">
	.st0{fill:#FFFFFF;}
	.st1{fill:#566066;}
</style>
<g id="Layer_2_1_">
	<g id="Layer_1-2">
		<g>
			<circle class="st0" cx="150.5" cy="150.5" r="150.5"/>
		</g>
		<path class="st1" d="M231.6,87.2H124.2l-9.7-15.8H74.8c-4.2,0-7.7,3.8-7.7,8.4L63.4,107h174.2V93.1
			C237.5,89.8,234.9,87.2,231.6,87.2z"/>
		<path class="st1" d="M235.6,116.9v107.5c0,1.8-1.5,3.3-3.3,3.3H68.7c-1.8,0-3.3-1.5-3.3-3.3V116.9H235.6 M237.6,114.9H63.4v109.5
			c0,2.9,2.4,5.3,5.3,5.3h163.6c2.9,0,5.3-2.4,5.3-5.3L237.6,114.9L237.6,114.9z"/>
		<path class="st1" d="M204.9,133.9h-35.5c-0.3,0-0.6,0.3-0.6,0.6v23.3c0,0.3,0.3,0.6,0.6,0.6h35.5c0.3,0,0.6-0.3,0.6-0.6l0,0v-23.3
			C205.5,134.1,205.2,133.9,204.9,133.9L204.9,133.9z"/>
		<path class="st1" d="M131.6,159.5H96.1c-0.3,0-0.6,0.3-0.6,0.6l0,0v23.3c0,0.3,0.3,0.6,0.6,0.6l0,0h35.5c0.3,0,0.6-0.3,0.6-0.6
			v-23.3C132.2,159.8,131.9,159.5,131.6,159.5L131.6,159.5z"/>
		<path class="st1" d="M204.9,184h-35.5c-0.3,0-0.6,0.3-0.6,0.6v23.3c0,0.3,0.3,0.6,0.6,0.6h35.5c0.3,0,0.6-0.3,0.6-0.6l0,0v-23.3
			C205.5,184.2,205.2,184,204.9,184L204.9,184L204.9,184z"/>
		<path class="st1" d="M150.5,172.8h-18.3c-0.6,0-1-0.4-1-1s0.4-1,1-1h18.3c0.6,0,1,0.4,1,1S151.1,172.8,150.5,172.8z"/>
		<path class="st1" d="M168.8,197.2h-18.3c-0.6,0-1-0.4-1-1v-48.9c0-0.6,0.4-1,1-1h18.3c0.6,0,1,0.4,1,1s-0.4,1-1,1h-17.3v46.9h17.3
			c0.6,0,1,0.4,1,1S169.4,197.2,168.8,197.2z"/>
		<g>
			<path class="st0" d="M188.6,151.6h-2.4v-11.3h2.4V151.6z"/>
		</g>
		<g>
			<path class="st0" d="M184.9,202.2h-2.4v-11.3h2.4V202.2z"/>
			<path class="st0" d="M190.9,202.2h-2.4v-11.3h2.4V202.2z"/>
		</g>
	</g>
</g>
</svg>
