<?xml version="1.0" encoding="utf-8"?>
<!-- Generator: Adobe Illustrator 22.0.1, SVG Export Plug-In . SVG Version: 6.00 Build 0)  -->
<svg version="1.1" id="Layer_1" xmlns="http://www.w3.org/2000/svg" xmlns:xlink="http://www.w3.org/1999/xlink" x="0px" y="0px"
	 viewBox="0 0 331.8 115.3" style="enable-background:new 0 0 331.8 115.3;" xml:space="preserve">
<style type="text/css">
	.st0{fill:none;stroke:#000000;stroke-width:3;stroke-linecap:round;stroke-linejoin:round;stroke-miterlimit:10;}
	.st1{fill:none;stroke:#000000;stroke-linecap:round;stroke-linejoin:round;stroke-miterlimit:10;}
	.st2{opacity:0.1;}
	.st3{fill:#FFFFFF;stroke:#000000;stroke-width:3;stroke-linecap:round;stroke-linejoin:round;stroke-miterlimit:10;}
</style>
<g>
	<g>
		<path class="st0" d="M330.1,97c-0.2-0.2-0.4-0.3-0.7-0.3H157.6c-0.3,0-0.5,0.1-0.7,0.3c-0.2,0.2-0.2,0.5-0.2,0.7
			c0,0.2,2.6,16.1,22.7,16.1h128.1c20.1,0,22.7-15.9,22.7-16.1C330.3,97.5,330.2,97.2,330.1,97L330.1,97z"/>
		<path class="st0" d="M317.5,94.6V5.5c0-2.2-1.8-4-4-4h-140c-2.2,0-4,1.8-4,4v89.1"/>
		<polyline class="st0" points="178.5,95.9 178.5,10.9 308.5,10.9 308.5,95.9 		"/>
		<g>
			<line class="st1" x1="209.2" y1="36.3" x2="237.8" y2="36.3"/>
			<line class="st1" x1="209.2" y1="49.1" x2="237.8" y2="49.1"/>
			<line class="st1" x1="209.2" y1="62" x2="237.8" y2="62"/>
			<line class="st1" x1="209.2" y1="74.8" x2="237.8" y2="74.8"/>
			<rect x="245.8" y="32.5" class="st1" width="45.9" height="45.9"/>
			<g class="st2">
				<g>
					<rect x="245.8" y="32.5" width="45.9" height="45.9"/>
				</g>
			</g>
			<g>
				<rect x="254" y="65.9" width="4.5" height="12.3"/>
				<rect x="260.2" y="59.6" width="4.5" height="18.6"/>
				<rect x="272.9" y="55.4" width="4.5" height="22.8"/>
				<rect x="279.2" y="43.1" width="4.5" height="35.2"/>
			</g>
			<g>
				<rect x="195.2" y="32.3" class="st1" width="7.8" height="8"/>
				<polyline class="st1" points="197.1,36.4 198.7,38 201.1,34.5 				"/>
			</g>
			<g>
				<rect x="195.2" y="45" class="st1" width="7.8" height="8"/>
				<polyline class="st1" points="197.1,49.1 198.7,50.8 201.1,47.3 				"/>
			</g>
			<g>
				<rect x="195.2" y="57.8" class="st1" width="7.8" height="8"/>
				<polyline class="st1" points="197.1,61.9 198.7,63.5 201.1,60 				"/>
			</g>
			<g>
				<rect x="195.2" y="70.5" class="st1" width="7.8" height="8"/>
			</g>
		</g>
		<path class="st0" d="M226.1,96.7c1.4,4,5.3,6.9,9.7,6.9h15.3c4.5,0,8.3-2.9,9.7-6.9H226.1z"/>
	</g>
	<g>
		<line class="st0" x1="95.5" y1="57.7" x2="145.5" y2="57.7"/>
		<path class="st0" d="M126.8,36.8L146,56c0.9,0.9,0.9,2.4,0,3.3l-19.2,19.2"/>
	</g>
	<path class="st0" d="M20.3,91.6L6.5,95.1c-0.1,0-0.3,0-0.4,0c-0.1,0-0.3,0-0.4,0C5.6,95,5.5,95,5.4,95c-0.1,0-0.2-0.1-0.3-0.2
		c-0.1-0.1-0.2-0.1-0.3-0.2c-0.1-0.1-0.1-0.2-0.2-0.3c-0.1-0.1-0.1-0.2-0.1-0.3c0-0.1-0.1-0.2-0.1-0.4l-2.9-61c0-0.2,0-0.3,0-0.5
		c0-0.2,0.1-0.3,0.1-0.4c0.1-0.1,0.1-0.3,0.2-0.4c0.1-0.1,0.2-0.2,0.3-0.4c0.1-0.1,0.2-0.2,0.3-0.3c0.1-0.1,0.2-0.2,0.4-0.2
		c0.1-0.1,0.3-0.1,0.4-0.2c0.1,0,0.3-0.1,0.4-0.1l28.4-2"/>
	<path class="st0" d="M58.7,72.4l-0.7,24.1c0,0.1,0,0.1,0,0.2c0,0.1,0,0.1,0,0.2c0,0.1,0,0.1-0.1,0.2s-0.1,0.1-0.1,0.1
		c0,0-0.1,0.1-0.1,0.1c0,0-0.1,0.1-0.1,0.1c0,0-0.1,0.1-0.1,0.1c-0.1,0-0.1,0-0.2,0.1L21.8,106c-0.1,0-0.1,0-0.2,0
		c-0.1,0-0.1,0-0.2,0c-0.1,0-0.1,0-0.2,0c0,0-0.1,0-0.1-0.1c0,0-0.1-0.1-0.1-0.1c0,0-0.1-0.1-0.1-0.1c0,0,0-0.1-0.1-0.2
		c0-0.1,0-0.1,0-0.2l-1.5-58.7c0-0.1,0-0.1,0-0.2c0-0.1,0-0.1,0.1-0.2c0-0.1,0.1-0.1,0.1-0.2c0-0.1,0.1-0.1,0.1-0.2
		c0-0.1,0.1-0.1,0.1-0.1c0.1,0,0.1-0.1,0.2-0.1c0.1,0,0.1-0.1,0.2-0.1c0.1,0,0.1,0,0.2,0l11.7-1.2"/>
	<line class="st1" x1="28.5" y1="72.3" x2="33.9" y2="71.4"/>
	<line class="st1" x1="28.7" y1="83.6" x2="51.4" y2="79.4"/>
	<line class="st1" x1="28.8" y1="95" x2="51.2" y2="90.2"/>
	<path class="st3" d="M74.7,24.1C74.7,24.1,74.7,24.1,74.7,24.1C74.7,24.1,74.7,24.1,74.7,24.1C74.7,24.1,74.7,24.1,74.7,24.1
		C74.7,24.1,74.7,24.1,74.7,24.1C74.7,24.1,74.7,24.1,74.7,24.1C74.7,24.1,74.7,24.1,74.7,24.1C74.7,24.1,74.7,24.1,74.7,24.1
		C74.7,24.1,74.7,24.1,74.7,24.1C74.7,24.1,74.7,24.1,74.7,24.1C74.7,24.1,74.7,24.1,74.7,24.1C74.7,24,74.7,24,74.7,24.1
		C74.7,24,74.7,24,74.7,24.1C74.7,24,74.7,24,74.7,24.1c0-0.1,0-0.1,0-0.1s0,0,0,0c0,0,0,0,0,0c0,0,0,0,0,0c0,0,0,0,0,0c0,0,0,0,0,0
		c0,0,0,0,0,0c0,0,0,0,0,0c0,0,0,0,0,0c0,0,0,0,0,0c0,0,0,0,0,0c0,0,0,0,0,0s0,0,0,0s0,0,0,0c0,0,0,0,0,0c0,0,0,0,0,0c0,0,0,0,0,0
		c0,0,0,0,0,0c0,0,0,0,0,0c0,0,0,0,0,0c0,0,0,0,0,0c0,0,0,0,0,0c0,0,0,0,0,0s0,0,0,0s0,0,0,0s0,0,0,0c0,0,0,0,0,0c0,0,0,0,0,0
		s0,0,0,0c0,0,0,0,0,0c0,0,0,0,0,0s0,0,0,0s0,0,0,0s0,0,0,0c0,0,0,0,0,0c0,0,0,0,0,0c0,0,0,0,0,0c0,0,0,0,0,0c0,0,0,0,0,0
		c0,0,0,0,0,0c0,0,0,0,0,0c0,0,0,0,0,0c0,0,0,0,0,0s0,0,0,0s0,0,0,0s0,0,0,0c0,0,0,0,0,0c0,0,0,0,0,0s0,0,0,0s0,0,0,0c0,0,0,0,0,0
		c0,0,0,0,0,0c0,0,0,0,0,0c0,0,0,0,0,0c0,0,0,0,0,0c0,0,0,0,0,0c0,0,0,0,0,0c0,0,0,0,0,0c0,0,0,0,0,0s0,0,0,0s0,0,0,0c0,0,0,0,0,0
		c0,0,0,0,0,0c0,0,0,0,0,0c0,0,0,0,0,0c0,0,0,0,0,0c0,0,0,0,0,0c0,0,0,0,0,0s0,0,0,0s0,0,0,0c0,0,0,0,0,0c0,0,0,0,0,0s0,0,0,0
		c0,0,0,0,0,0c0,0,0,0,0,0c0,0,0,0,0,0s0,0,0,0c0,0,0,0,0,0c0,0,0,0,0,0s0,0,0,0s0,0,0,0c0,0,0,0,0,0c0,0,0,0,0,0c0,0,0,0,0,0
		c0,0,0,0,0,0c0,0,0,0,0,0c0,0,0,0,0,0s0,0,0,0s0,0,0,0c0,0,0,0,0,0c0,0,0,0,0,0c0,0,0,0,0,0c0,0,0,0,0,0s0,0,0,0c0,0,0,0,0,0
		s0,0,0,0c0,0,0,0,0,0c0,0,0,0,0,0c0,0,0,0,0,0c0,0,0,0,0,0s0,0,0,0c0,0,0,0,0,0L61.5,7.5c0-0.1-0.1-0.1-0.2-0.2s-0.1-0.1-0.2-0.1
		S61.1,7.2,61,7.1c-0.1,0-0.1,0-0.2,0L35.2,7.8c-0.5,0-0.9,0.1-1.3,0.3c-0.4,0.2-0.8,0.5-1.1,0.8s-0.5,0.8-0.7,1.2
		c-0.2,0.5-0.3,1-0.3,1.5L32,25.5l0,2.6l0.1,13.6l0,2.5l0.2,27.1l0,0.8l0,1.9c0,0.4,0.1,0.9,0.3,1.2c0.2,0.4,0.4,0.7,0.7,0.9
		c0.3,0.2,0.6,0.4,1,0.5c0.4,0.1,0.8,0.1,1.2,0l23.3-4.2l1.9-0.3l9.4-1.7c0.4-0.1,0.7-0.2,1-0.4c0.3-0.2,0.6-0.5,0.8-0.8
		s0.4-0.7,0.6-1c0.1-0.4,0.2-0.8,0.3-1.2L74.7,24.1C74.7,24.2,74.7,24.2,74.7,24.1C74.7,24.2,74.7,24.2,74.7,24.1
		C74.7,24.2,74.7,24.1,74.7,24.1C74.7,24.1,74.7,24.1,74.7,24.1C74.7,24.1,74.7,24.1,74.7,24.1z"/>
	<line class="st1" x1="42.6" y1="39.4" x2="65.1" y2="37.2"/>
	<line class="st1" x1="42.5" y1="51.4" x2="64.7" y2="48.7"/>
	<line class="st1" x1="42.4" y1="63.2" x2="64.3" y2="59.9"/>
	<path class="st0" d="M59.7,8.4l-0.4,14.5c0,0.5,0.1,1,0.2,1.4c0.1,0.4,0.4,0.8,0.6,1.1c0.3,0.3,0.6,0.6,1,0.7
		c0.4,0.2,0.8,0.2,1.2,0.2l11.5-0.8"/>
	<line class="st1" x1="12.8" y1="83.6" x2="20.1" y2="82.3"/>
	<line class="st1" x1="12.5" y1="71.4" x2="19.4" y2="70.4"/>
	<line class="st1" x1="12" y1="59.2" x2="19.6" y2="58.3"/>
</g>
</svg>
