<svg xmlns="http://www.w3.org/2000/svg" viewBox="0 0 107.16 106.85"><defs><style>.cls-1{fill:none;stroke-miterlimit:10;}.cls-1,.cls-2{stroke:#000;stroke-width:3px;}.cls-2{fill:#e2e5e9;stroke-linecap:round;stroke-linejoin:round;}</style></defs><title>icon-services-implementation</title><g id="Layer_2" data-name="Layer 2"><g id="Layer_1-2" data-name="Layer 1"><path class="cls-1" d="M45.06,15.1V1.5H1.5V45.06H15.22A39.26,39.26,0,0,1,45.06,15.1Z"/><path class="cls-1" d="M62.1,1.5V15.1A39.29,39.29,0,0,1,92,45.06h13.71V1.5Z"/><path class="cls-1" d="M15.22,61.79H1.5v43.56H45.06V91.75A39.29,39.29,0,0,1,15.22,61.79Z"/><path class="cls-1" d="M92,61.79a39.32,39.32,0,0,1-29.85,30v13.6h43.56V61.79Z"/><circle class="cls-2" cx="53.58" cy="53.42" r="26.86"/><path d="M37.2,56.8,36,59.06l2.46,2.17,2.09-1.47a8.53,8.53,0,0,0,2.56.89l.76,2.44,3.31-.24.41-2.53a8.49,8.49,0,0,0,2.42-1.18l2.26,1.16,2.17-2.46L53,55.76a8.82,8.82,0,0,0,.89-2.56l2.44-.76-.24-3.32-2.53-.4a8.82,8.82,0,0,0-1.18-2.43L53.56,44,51,41.81l-2.09,1.46a9,9,0,0,0-2.56-.89L45.49,40l-3.31.24-.41,2.53A8.49,8.49,0,0,0,39.35,44l-2.26-1.16-2.17,2.46,1.46,2.09a8.75,8.75,0,0,0-.89,2.55l-2.44.77L33.29,54l2.53.4A5.7,5.7,0,0,0,37.2,56.8Zm1.63-4.87a5.92,5.92,0,1,1,6.27,5.54A5.81,5.81,0,0,1,38.83,51.93Z"/><path d="M62.05,64.06l-.3,1.82,2.18.9L65,65.29a7.07,7.07,0,0,0,2,0l1.08,1.49,2.19-.92-.3-1.82a6.92,6.92,0,0,0,1.42-1.38l1.82.31.9-2.18-1.49-1.1a7.06,7.06,0,0,0,0-1.95l1.48-1.08-.92-2.18-1.94.32a6.64,6.64,0,0,0-1.37-1.42l.3-1.82L68,50.69l-1.1,1.49a6.7,6.7,0,0,0-2,0l-1.08-1.48-2.19.92L62,53.4a6.69,6.69,0,0,0-1.43,1.37l-1.82-.3-.9,2.18,1.49,1.09a7.06,7.06,0,0,0,0,1.95l-1.48,1.08L58.74,63l1.82-.3A6.27,6.27,0,0,0,62.05,64.06Zm0-3.76a4.27,4.27,0,1,1,5.56,2.35A4.27,4.27,0,0,1,62,60.3Z"/></g></g></svg>