<?xml version="1.0" encoding="utf-8"?>
<!-- Generator: Adobe Illustrator 22.0.1, SVG Export Plug-In . SVG Version: 6.00 Build 0)  -->
<svg version="1.1" id="Layer_1" xmlns="http://www.w3.org/2000/svg" xmlns:xlink="http://www.w3.org/1999/xlink" x="0px" y="0px"
	 viewBox="0 0 300 200" style="enable-background:new 0 0 300 200;" xml:space="preserve">
<style type="text/css">
	.st0{fill:#FFFFFF;}
	.st1{fill:none;stroke:#000000;stroke-width:3;stroke-miterlimit:10;}
	.st2{opacity:0.15;}
	.st3{fill:#707D91;}
	.st4{fill:none;stroke:#000000;stroke-miterlimit:10;}
</style>
<rect class="st0" width="300" height="200"/>
<title>icon-agility</title>
<g>
	<circle cx="142.4" cy="96.3" r="8.7"/>
	<g>
		<path d="M10,30V20h2.8c0.9,0,1.6,0.2,2.3,0.6s1.2,0.9,1.5,1.6s0.5,1.5,0.6,2.4v0.6c0,0.9-0.2,1.8-0.5,2.5S15.8,29,15,29.4
			S13.5,30,12.6,30H10z M11.2,21.1v7.8h1.4c1,0,1.8-0.3,2.4-0.9c0.6-0.6,0.8-1.5,0.8-2.7v-0.6c0-1.1-0.3-2-0.8-2.6s-1.3-0.9-2.3-1
			H11.2z"/>
		<path d="M22,30.1c-1,0-1.8-0.3-2.4-1c-0.6-0.7-0.9-1.5-0.9-2.6v-0.2c0-0.7,0.1-1.4,0.4-2c0.3-0.6,0.7-1,1.2-1.4
			c0.5-0.3,1-0.5,1.6-0.5c1,0,1.7,0.3,2.2,1s0.8,1.5,0.8,2.7v0.5h-5c0,0.7,0.2,1.3,0.6,1.8c0.4,0.4,0.9,0.7,1.6,0.7
			c0.4,0,0.8-0.1,1.1-0.3s0.6-0.4,0.8-0.7l0.8,0.6C24.1,29.6,23.2,30.1,22,30.1z M21.8,23.5c-0.5,0-0.9,0.2-1.3,0.6
			C20.2,24.5,20,25,20,25.7h3.7v-0.1c0-0.6-0.2-1.1-0.5-1.5C22.8,23.7,22.3,23.5,21.8,23.5z"/>
		<path d="M30.6,28c0-0.3-0.1-0.6-0.4-0.8c-0.3-0.2-0.7-0.4-1.3-0.5s-1.1-0.3-1.5-0.5s-0.7-0.4-0.8-0.7s-0.3-0.6-0.3-0.9
			c0-0.6,0.3-1.1,0.8-1.5s1.2-0.6,2-0.6s1.5,0.2,2,0.6s0.8,1,0.8,1.7h-1.3c0-0.3-0.1-0.6-0.4-0.9s-0.7-0.4-1.1-0.4
			c-0.5,0-0.8,0.1-1.1,0.3s-0.4,0.5-0.4,0.8s0.1,0.5,0.4,0.7s0.7,0.3,1.3,0.4s1.1,0.3,1.5,0.5s0.7,0.4,0.9,0.7
			c0.2,0.3,0.3,0.6,0.3,1c0,0.7-0.3,1.2-0.8,1.6s-1.2,0.6-2.1,0.6c-0.6,0-1.1-0.1-1.6-0.3s-0.8-0.5-1.1-0.9s-0.4-0.8-0.4-1.2h1.3
			c0,0.4,0.2,0.8,0.5,1s0.7,0.4,1.3,0.4c0.5,0,0.9-0.1,1.2-0.3C30.5,28.6,30.6,28.3,30.6,28z"/>
		<path d="M33.5,20.6c0-0.2,0.1-0.4,0.2-0.5s0.3-0.2,0.6-0.2s0.4,0.1,0.6,0.2c0.1,0.1,0.2,0.3,0.2,0.5S35,21,34.9,21.1
			s-0.3,0.2-0.6,0.2s-0.4-0.1-0.6-0.2C33.6,21,33.5,20.8,33.5,20.6z M35,30h-1.3v-7.4H35V30z"/>
		<path d="M36.6,26.2c0-1.2,0.3-2.1,0.8-2.8c0.5-0.7,1.2-1,2.1-1s1.6,0.3,2.1,1l0.1-0.8h1.2v7.2c0,1-0.3,1.7-0.9,2.3
			s-1.3,0.8-2.3,0.8c-0.5,0-1.1-0.1-1.6-0.3s-0.9-0.5-1.2-0.9l0.7-0.8c0.5,0.7,1.2,1,2,1c0.6,0,1.1-0.2,1.4-0.5s0.5-0.8,0.5-1.5
			v-0.6c-0.5,0.6-1.2,0.9-2.1,0.9s-1.6-0.3-2.1-1C37,28.4,36.6,27.4,36.6,26.2z M38,26.4c0,0.8,0.2,1.5,0.5,2s0.8,0.7,1.4,0.7
			c0.8,0,1.4-0.4,1.8-1.1v-3.4c-0.4-0.7-1-1.1-1.7-1.1c-0.6,0-1.1,0.2-1.4,0.7C38,24.7,38,25.4,38,26.4z"/>
		<path d="M46,22.6v0.9c0.6-0.7,1.3-1.1,2.2-1.1c1.6,0,2.4,0.9,2.4,2.6v5h-1.3v-4.9c0-0.5-0.1-0.9-0.4-1.2s-0.6-0.4-1.1-0.4
			c-0.4,0-0.8,0.1-1.1,0.3C46.3,24,46,24.3,46,24.7V30h-1.3v-7.4H46z"/>
	</g>
	<g>
		<path d="M235.1,31V21h3.3c1.1,0,1.9,0.2,2.4,0.7c0.5,0.4,0.8,1.1,0.8,2c0,0.5-0.1,0.9-0.4,1.2c-0.3,0.4-0.6,0.6-1.1,0.8
			c0.5,0.2,1,0.4,1.3,0.9c0.3,0.4,0.5,0.9,0.5,1.5c0,0.9-0.3,1.6-0.9,2.1s-1.4,0.8-2.5,0.8H235.1z M236.4,25.3h2
			c0.6,0,1-0.1,1.4-0.4c0.3-0.3,0.5-0.7,0.5-1.2s-0.2-0.9-0.5-1.2c-0.3-0.2-0.8-0.4-1.5-0.4h-1.9V25.3z M236.4,26.3v3.6h2.2
			c0.6,0,1.1-0.2,1.4-0.5c0.4-0.3,0.5-0.8,0.5-1.3c0-1.2-0.7-1.8-2-1.8C238.6,26.3,236.4,26.3,236.4,26.3z"/>
		<path d="M248.2,30.2c-0.5,0.6-1.2,0.9-2.2,0.9c-0.8,0-1.4-0.2-1.8-0.7s-0.6-1.1-0.6-2v-4.8h1.3v4.8c0,1.1,0.5,1.7,1.4,1.7
			c1,0,1.6-0.4,1.9-1.1v-5.4h1.3V31h-1.2L248.2,30.2z"/>
		<path d="M255.7,29c0-0.3-0.1-0.6-0.4-0.8c-0.3-0.2-0.7-0.4-1.3-0.5c-0.6-0.1-1.1-0.3-1.5-0.5s-0.7-0.4-0.8-0.7
			c-0.2-0.3-0.3-0.6-0.3-0.9c0-0.6,0.3-1.1,0.8-1.5s1.2-0.6,2-0.6s1.5,0.2,2,0.6c0.5,0.4,0.8,1,0.8,1.7h-1.3c0-0.3-0.1-0.6-0.4-0.9
			s-0.7-0.4-1.1-0.4c-0.5,0-0.8,0.1-1.1,0.3s-0.4,0.5-0.4,0.8s0.1,0.5,0.4,0.7c0.2,0.2,0.7,0.3,1.3,0.4c0.6,0.1,1.1,0.3,1.5,0.5
			c0.4,0.2,0.7,0.4,0.9,0.7c0.2,0.3,0.3,0.6,0.3,1c0,0.7-0.3,1.2-0.8,1.6c-0.5,0.4-1.2,0.6-2.1,0.6c-0.6,0-1.1-0.1-1.6-0.3
			c-0.5-0.2-0.8-0.5-1.1-0.9c-0.3-0.4-0.4-0.8-0.4-1.2h1.3c0,0.4,0.2,0.8,0.5,1s0.7,0.4,1.3,0.4c0.5,0,0.9-0.1,1.2-0.3
			C255.4,29.6,255.7,29.3,255.7,29z"/>
		<path d="M258.5,21.6c0-0.2,0.1-0.4,0.2-0.5s0.3-0.2,0.6-0.2s0.4,0.1,0.6,0.2c0.1,0.1,0.2,0.3,0.2,0.5s-0.1,0.4-0.2,0.5
			s-0.3,0.2-0.6,0.2s-0.4-0.1-0.6-0.2C258.6,22,258.5,21.8,258.5,21.6z M259.9,31h-1.3v-7.4h1.3V31z"/>
		<path d="M263.1,23.6v0.9c0.6-0.7,1.3-1.1,2.2-1.1c1.6,0,2.4,0.9,2.4,2.6v5h-1.3v-4.9c0-0.5-0.1-0.9-0.4-1.2s-0.6-0.4-1.1-0.4
			c-0.4,0-0.8,0.1-1.1,0.3c-0.3,0.2-0.6,0.5-0.7,0.9V31h-1.3v-7.4H263.1z"/>
		<path d="M272.8,31.1c-1,0-1.8-0.3-2.4-1s-0.9-1.5-0.9-2.6v-0.2c0-0.7,0.1-1.4,0.4-2s0.7-1,1.2-1.4c0.5-0.3,1-0.5,1.6-0.5
			c1,0,1.7,0.3,2.2,1s0.8,1.5,0.8,2.7v0.5h-5c0,0.7,0.2,1.3,0.6,1.8c0.4,0.4,0.9,0.7,1.6,0.7c0.4,0,0.8-0.1,1.1-0.3
			c0.3-0.2,0.6-0.4,0.8-0.7l0.8,0.6C274.9,30.6,273.9,31.1,272.8,31.1z M272.5,24.5c-0.5,0-0.9,0.2-1.3,0.6
			c-0.3,0.4-0.6,0.9-0.6,1.6h3.7v-0.1c0-0.6-0.2-1.1-0.5-1.5C273.5,24.7,273.1,24.5,272.5,24.5z"/>
		<path d="M281.3,29c0-0.3-0.1-0.6-0.4-0.8c-0.3-0.2-0.7-0.4-1.3-0.5c-0.6-0.1-1.1-0.3-1.5-0.5s-0.7-0.4-0.8-0.7
			c-0.2-0.3-0.3-0.6-0.3-0.9c0-0.6,0.3-1.1,0.8-1.5s1.2-0.6,2-0.6s1.5,0.2,2,0.6s0.8,1,0.8,1.7h-1.3c0-0.3-0.1-0.6-0.4-0.9
			s-0.7-0.4-1.1-0.4c-0.5,0-0.8,0.1-1.1,0.3s-0.4,0.5-0.4,0.8s0.1,0.5,0.4,0.7c0.2,0.2,0.7,0.3,1.3,0.4c0.6,0.1,1.1,0.3,1.5,0.5
			s0.7,0.4,0.9,0.7c0.2,0.3,0.3,0.6,0.3,1c0,0.7-0.3,1.2-0.8,1.6s-1.2,0.6-2.1,0.6c-0.6,0-1.1-0.1-1.6-0.3c-0.5-0.2-0.8-0.5-1.1-0.9
			c-0.3-0.4-0.4-0.8-0.4-1.2h1.3c0,0.4,0.2,0.8,0.5,1s0.7,0.4,1.3,0.4c0.5,0,0.9-0.1,1.2-0.3C281.2,29.6,281.3,29.3,281.3,29z"/>
		<path d="M288.6,29c0-0.3-0.1-0.6-0.4-0.8c-0.3-0.2-0.7-0.4-1.3-0.5c-0.6-0.1-1.1-0.3-1.5-0.5s-0.7-0.4-0.8-0.7
			c-0.2-0.3-0.3-0.6-0.3-0.9c0-0.6,0.3-1.1,0.8-1.5s1.2-0.6,2-0.6s1.5,0.2,2,0.6s0.8,1,0.8,1.7h-1.3c0-0.3-0.1-0.6-0.4-0.9
			s-0.7-0.4-1.1-0.4c-0.5,0-0.8,0.1-1.1,0.3s-0.4,0.5-0.4,0.8s0.1,0.5,0.4,0.7c0.2,0.2,0.7,0.3,1.3,0.4c0.6,0.1,1.1,0.3,1.5,0.5
			s0.7,0.4,0.9,0.7c0.2,0.3,0.3,0.6,0.3,1c0,0.7-0.3,1.2-0.8,1.6s-1.2,0.6-2.1,0.6c-0.6,0-1.1-0.1-1.6-0.3c-0.5-0.2-0.8-0.5-1.1-0.9
			c-0.3-0.4-0.4-0.8-0.4-1.2h1.3c0,0.4,0.2,0.8,0.5,1s0.7,0.4,1.3,0.4c0.5,0,0.9-0.1,1.2-0.3C288.4,29.6,288.6,29.3,288.6,29z"/>
	</g>
	<g>
		<path d="M99.1,185.8h-3.2v8.9h-1.3v-8.9h-3.2v-1.1h7.7V185.8z"/>
		<path d="M102.8,194.9c-1,0-1.8-0.3-2.4-1c-0.6-0.7-0.9-1.5-0.9-2.6V191c0-0.7,0.1-1.4,0.4-2c0.3-0.6,0.7-1,1.2-1.4
			c0.5-0.3,1-0.5,1.6-0.5c1,0,1.7,0.3,2.2,1s0.8,1.5,0.8,2.7v0.5h-5c0,0.7,0.2,1.3,0.6,1.8c0.4,0.4,0.9,0.7,1.6,0.7
			c0.4,0,0.8-0.1,1.1-0.3s0.6-0.4,0.8-0.7l0.8,0.6C104.9,194.4,103.9,194.9,102.8,194.9z M102.6,188.2c-0.5,0-0.9,0.2-1.3,0.6
			c-0.3,0.4-0.6,0.9-0.6,1.6h3.7v-0.1c0-0.6-0.2-1.1-0.5-1.5C103.6,188.4,103.1,188.2,102.6,188.2z"/>
		<path d="M110.1,193.8c0.5,0,0.8-0.1,1.2-0.4c0.3-0.3,0.5-0.6,0.6-1h1.2c0,0.4-0.2,0.8-0.4,1.2c-0.3,0.4-0.6,0.7-1.1,0.9
			c-0.4,0.2-0.9,0.3-1.4,0.3c-1,0-1.8-0.3-2.4-1c-0.6-0.7-0.9-1.6-0.9-2.8v-0.2c0-0.7,0.1-1.4,0.4-1.9c0.3-0.6,0.6-1,1.1-1.3
			s1.1-0.5,1.8-0.5c0.8,0,1.5,0.2,2.1,0.7c0.5,0.5,0.8,1.1,0.9,1.9H112c0-0.5-0.2-0.9-0.5-1.2s-0.7-0.5-1.2-0.5
			c-0.6,0-1.1,0.2-1.5,0.7s-0.5,1.1-0.5,2v0.2c0,0.9,0.2,1.5,0.5,2C108.9,193.6,109.4,193.8,110.1,193.8z"/>
		<path d="M115.7,188.2c0.6-0.7,1.3-1,2.2-1c1.6,0,2.4,0.9,2.4,2.6v4.9h-1.3v-4.9c0-0.5-0.1-0.9-0.4-1.2s-0.6-0.4-1.1-0.4
			c-0.4,0-0.8,0.1-1.1,0.3s-0.6,0.5-0.7,0.9v5.3h-1.3v-10.5h1.3L115.7,188.2L115.7,188.2z"/>
	</g>
	<path class="st1" d="M123.2,79.6c0,2.1,0.1,4.2,0.4,6.2c-15.8,6.6-27.3,21.2-29.6,38.7c-17.4-7.4-29.7-24.8-29.7-44.9
		c0-27,21.9-48.8,48.8-48.8c11.1,0,21.3,3.7,29.5,9.9C130.8,49.5,123.2,63.7,123.2,79.6z"/>
	<path class="st1" d="M220.9,79.6c0,20.3-12.4,37.7-30.1,45.1c-2.2-17.4-13.7-32-29.3-38.7c0.3-2.1,0.4-4.2,0.4-6.4
		c0-15.9-7.6-30-19.4-39c8.2-6.2,18.4-9.9,29.4-9.9C198.9,30.7,220.9,52.6,220.9,79.6z"/>
	<g class="st2">
		<path class="st3" d="M161.9,79.6c0,2.2-0.1,4.3-0.4,6.4c-5.9-2.5-12.4-3.9-19.2-3.9c-6.6,0-13,1.3-18.8,3.8
			c-0.3-2-0.4-4.1-0.4-6.2c0-15.9,7.6-30,19.4-39C154.2,49.5,161.9,63.7,161.9,79.6z"/>
		<path class="st3" d="M190.8,124.7c-5.8,2.4-12.1,3.7-18.8,3.7c-11.1,0-21.3-3.7-29.4-9.9c10.2-7.7,17.2-19.3,18.9-32.5
			C177.1,92.6,188.6,107.2,190.8,124.7z"/>
		<path class="st3" d="M142.6,118.5c-8.2,6.2-18.4,9.9-29.5,9.9c-6.8,0-13.3-1.4-19.2-3.9c2.3-17.5,13.9-32.1,29.6-38.7
			C125.2,99.1,132.4,110.8,142.6,118.5z"/>
	</g>
	<path class="st1" d="M161.4,86c-1.7,13.3-8.8,24.8-18.9,32.5c-10.2-7.7-17.3-19.4-19-32.7c5.8-2.4,12.1-3.8,18.8-3.8
		C149.2,82.1,155.6,83.5,161.4,86z"/>
	<path class="st1" d="M191.2,130.9c0,27-21.9,48.8-48.8,48.8s-48.8-21.9-48.8-48.8c0-2.2,0.1-4.3,0.4-6.4c5.9,2.5,12.4,3.9,19.2,3.9
		c11.1,0,21.3-3.7,29.5-9.9c8.2,6.2,18.4,9.9,29.4,9.9c6.7,0,13-1.3,18.8-3.7C191.1,126.7,191.2,128.8,191.2,130.9z"/>
	<polyline class="st4" points="214.6,55.4 234.3,35.6 289.5,35.6 	"/>
	<polyline class="st4" points="70.6,55.4 50.9,35.6 10.5,35.6 	"/>
	<polyline class="st4" points="142.2,179.8 122.4,199.5 94.2,199.5 	"/>
	<circle cx="70.4" cy="55.6" r="2.2"/>
	<circle cx="214.6" cy="55.4" r="2.2"/>
	<circle cx="142.4" cy="179.7" r="2.2"/>
</g>
</svg>
