<?xml version="1.0" encoding="utf-8"?>
<!-- Generator: Adobe Illustrator 22.0.1, SVG Export Plug-In . SVG Version: 6.00 Build 0)  -->
<svg version="1.1" id="Layer_1" xmlns="http://www.w3.org/2000/svg" xmlns:xlink="http://www.w3.org/1999/xlink" x="0px" y="0px"
	 viewBox="0 0 140 84" style="enable-background:new 0 0 140 84;" xml:space="preserve">
<style type="text/css">
	.st0{fill:#FFFFFF;}
	.st1{fill:none;stroke:#000000;stroke-width:3;stroke-linejoin:round;stroke-miterlimit:10;}
	.st2{fill:none;stroke:#000000;stroke-width:3;stroke-linecap:round;stroke-linejoin:round;stroke-miterlimit:10;}
	.st3{fill:#FFFFFF;stroke:#000000;stroke-linecap:round;stroke-linejoin:round;stroke-miterlimit:10;}
	.st4{fill:#FFFFFF;stroke:#000000;stroke-width:3;stroke-linecap:round;stroke-linejoin:round;stroke-miterlimit:10;}
	.st5{fill:#E2E5E9;stroke:#000000;stroke-linecap:round;stroke-linejoin:round;stroke-miterlimit:10;}
</style>
<title>icon-kb</title>
<rect class="st0" width="140" height="84"/>
<g>
	<g>
		<path class="st1" d="M61.5,32.3V10.1c0-2.8-2.3-5.1-5.1-5.1H8.3c-2.8,0-5.1,2.3-5.1,5.1v37.7c0,2.8,2.3,5.1,5.1,5.1h6.6v8.9
			l13.5-8.9h14.7"/>
		<g>
			<path d="M30.5,35.3c0-1.6,0.2-2.9,0.7-3.9s1.3-2.2,2.7-3.5s2.3-2.3,2.6-2.9c0.4-0.6,0.7-1.2,0.9-1.8c0.2-0.7,0.3-1.4,0.3-2.3
				c0-1.7-0.5-3.1-1.4-4.1c-0.9-1-2.2-1.5-3.8-1.5c-1.7,0-3,0.5-4,1.4c-1,0.9-1.5,2.2-1.6,3.8h-2.5c0-2.3,0.8-4.1,2.3-5.4
				c1.5-1.4,3.4-2,5.7-2c2.4,0,4.3,0.7,5.6,2.1c1.4,1.4,2.1,3.3,2.1,5.6c0,1.5-0.3,2.9-1,4.2c-0.7,1.3-2,2.8-3.9,4.6
				c-1.6,1.3-2.3,3.2-2.3,5.7H30.5z M30.2,42.3c0-0.5,0.1-0.9,0.4-1.2c0.3-0.3,0.7-0.5,1.3-0.5c0.5,0,0.9,0.2,1.3,0.5
				c0.3,0.3,0.5,0.7,0.5,1.2c0,0.5-0.2,0.8-0.5,1.2c-0.3,0.3-0.7,0.5-1.3,0.5c-0.5,0-1-0.2-1.3-0.5C30.3,43.1,30.2,42.7,30.2,42.3z"
				/>
		</g>
	</g>
	<g>
		<g>
			<path class="st2" d="M96.3,70.1h-6.6V79l-13.5-8.9H48.2c-2.8,0-5.1-2.3-5.1-5.1V37.4c0-2.8,2.3-5.1,5.1-5.1h48.1
				c2.8,0,5.1,2.3,5.1,5.1v27.7C101.4,67.8,99.1,70.1,96.3,70.1z"/>
			<line class="st3" x1="54.3" y1="45.7" x2="90.2" y2="45.7"/>
			<line class="st3" x1="54.3" y1="56.8" x2="80.2" y2="56.8"/>
		</g>
	</g>
	<g>
		<g>
			<g>
				<path class="st4" d="M131.8,54.1h-6.5v8.8L112,54.1H93.1c-2.8,0-5-2.2-5-5V21.8c0-2.7,2.3-5,5-5h38.7c2.8,0,5,2.2,5,5v27.4
					C136.9,51.9,134.6,54.1,131.8,54.1z"/>
			</g>
		</g>
	</g>
	<g>
		<g>
			<path class="st5" d="M122.2,38.9l2.9-0.5l0.3-3.8l-2.8-0.8c-0.2-1.1-0.5-2-1-2.9l1.7-2.4l-2.4-2.8l-2.6,1.3
				c-0.8-0.6-1.8-1.1-2.7-1.4l-0.5-2.9l-3.8-0.3l-1,2.7c-1.1,0.2-2,0.5-2.9,1l-2.4-1.7l-3,2.7l1.3,2.6c-0.6,0.8-1.1,1.8-1.4,2.7
				L99,32.8l-0.3,3.8l2.8,0.8c0.2,1.1,0.5,2,1,2.9l-1.7,2.4l2.4,2.8l2.6-1.3c0.8,0.6,1.8,1.1,2.7,1.4l0.5,2.9l3.8,0.3l0.8-2.8
				c1.1-0.2,2-0.5,2.9-1l2.4,1.7l2.8-2.4l-1.3-2.6C121.4,40.8,121.8,39.9,122.2,38.9z M111.6,42.4c-3.7-0.2-6.6-3.4-6.3-7.1
				c0.2-3.7,3.4-6.6,7.1-6.3c3.7,0.2,6.6,3.4,6.3,7.1C118.6,39.8,115.4,42.6,111.6,42.4z"/>
		</g>
	</g>
</g>
</svg>
