<?xml version="1.0" encoding="utf-8"?>
<!-- Generator: Adobe Illustrator 22.0.1, SVG Export Plug-In . SVG Version: 6.00 Build 0)  -->
<svg version="1.1" id="Layer_1" xmlns="http://www.w3.org/2000/svg" xmlns:xlink="http://www.w3.org/1999/xlink" x="0px" y="0px"
	 viewBox="0 0 301 301" style="enable-background:new 0 0 301 301;" xml:space="preserve">
<style type="text/css">
	.st0{fill:#FFFFFF;}
	.st1{fill:#566066;}
</style>
<g>
	<circle class="st0" cx="150.5" cy="150.5" r="150.5"/>
</g>
<g>
	<g>
		<g>
			<path class="st1" d="M114.1,65.2c0.9,0,1.6,0.7,1.6,1.6v10.6c0,0.9-0.7,1.6-1.6,1.6H59.3c-0.9,0-1.6-0.7-1.6-1.6V66.8
				c0-0.9,0.7-1.6,1.6-1.6L114.1,65.2 M114.1,63.2H59.3c-2,0-3.6,1.6-3.6,3.6v10.6c0,2,1.6,3.6,3.6,3.6h54.8c2,0,3.6-1.6,3.6-3.6
				V66.8C117.7,64.9,116.1,63.2,114.1,63.2L114.1,63.2z"/>
		</g>
		<g>
			<path class="st1" d="M242.2,65.2c0.9,0,1.6,0.7,1.6,1.6v10.6c0,0.9-0.7,1.6-1.6,1.6H139.4c-0.9,0-1.6-0.7-1.6-1.6V66.8
				c0-0.9,0.7-1.6,1.6-1.6L242.2,65.2 M242.2,63.2H139.4c-2,0-3.6,1.6-3.6,3.6v10.6c0,2,1.6,3.6,3.6,3.6h102.8c2,0,3.6-1.6,3.6-3.6
				V66.8C245.8,64.9,244.2,63.2,242.2,63.2L242.2,63.2z"/>
		</g>
		<g>
			<path class="st1" d="M242.2,97.6c0.9,0,1.6,0.7,1.6,1.6v35.1c0,0.9-0.7,1.6-1.6,1.6H59.3c-0.9,0-1.6-0.7-1.6-1.6V99.2
				c0-0.9,0.7-1.6,1.6-1.6H242.2 M242.2,95.6H59.3c-2,0-3.6,1.6-3.6,3.6v35.1c0,2,1.6,3.6,3.6,3.6h182.9c2,0,3.6-1.6,3.6-3.6V99.2
				C245.8,97.2,244.2,95.6,242.2,95.6L242.2,95.6z"/>
		</g>
		<path class="st1" d="M64.9,243.9c-5.2,0-9.4-4.2-9.4-9.4s4.2-9.4,9.4-9.4s9.4,4.2,9.4,9.4S70.1,243.9,64.9,243.9z M64.9,227.1
			c-4.1,0-7.4,3.3-7.4,7.4s3.3,7.4,7.4,7.4s7.4-3.3,7.4-7.4S69,227.1,64.9,227.1z"/>
		<path class="st1" d="M95,243.9c-5.2,0-9.4-4.2-9.4-9.4s4.2-9.4,9.4-9.4s9.4,4.2,9.4,9.4S100.2,243.9,95,243.9z M95,227.1
			c-4.1,0-7.4,3.3-7.4,7.4s3.3,7.4,7.4,7.4s7.4-3.3,7.4-7.4S99.1,227.1,95,227.1z"/>
		<path class="st1" d="M125.1,243.9c-5.2,0-9.4-4.2-9.4-9.4s4.2-9.4,9.4-9.4s9.4,4.2,9.4,9.4S130.3,243.9,125.1,243.9z M125.1,227.1
			c-4.1,0-7.4,3.3-7.4,7.4s3.3,7.4,7.4,7.4s7.4-3.3,7.4-7.4S129.2,227.1,125.1,227.1z"/>
		<circle class="st1" cx="95" cy="234.5" r="3.9"/>
		<g>
			<path class="st1" d="M244.3,175.5H56.1c-0.5,0-0.9,0.4-0.9,0.9v29.8c0,2,1.6,3.6,3.6,3.6h182.9c2,0,3.6-1.6,3.6-3.6v-29.8
				C245.2,175.9,244.8,175.5,244.3,175.5z M243.4,191.7h-44.9v-14.4h44.9V191.7z M149.9,193.5V208H106v-14.4h43.9V193.5z M106,191.7
				v-14.4h43.9v14.4H106z M151.7,193.5h45.1V208h-45.1L151.7,193.5L151.7,193.5z M151.7,191.7v-14.4h45.1v14.4H151.7z M104.2,177.3
				v14.4H57v-14.4H104.2z M57,206.2v-12.7h47.2V208H58.8C57.8,208,57,207.2,57,206.2z M241.7,208h-43.1v-14.4h44.9v12.7
				C243.4,207.2,242.6,208,241.7,208z"/>
			<g>
				<rect x="152.6" y="152.5" class="st1" width="43.3" height="17.8"/>
				<rect x="106.9" y="152.5" class="st1" width="42.1" height="17.8"/>
				<path class="st1" d="M242.2,152.5h-42.8v17.8h46.3v-14.2C245.8,154.1,244.2,152.5,242.2,152.5z"/>
				<path class="st1" d="M103.3,152.5h-44c-2,0-3.6,1.6-3.6,3.6v14.2h47.5L103.3,152.5L103.3,152.5z"/>
			</g>
		</g>
		<path class="st1" d="M201.8,243.4h38.4c2.8,0,5-2.2,5-5v-7.8c0-2.8-2.2-5-5-5h-38.4c-2.8,0-5,2.2-5,5v7.8
			C196.8,241.1,199,243.4,201.8,243.4z"/>
	</g>
</g>
</svg>
