<?xml version="1.0" encoding="utf-8"?>
<!-- Generator: Adobe Illustrator 22.0.1, SVG Export Plug-In . SVG Version: 6.00 Build 0)  -->
<svg version="1.1" id="Layer_1" xmlns="http://www.w3.org/2000/svg" xmlns:xlink="http://www.w3.org/1999/xlink" x="0px" y="0px"
	 viewBox="0 0 301 301" style="enable-background:new 0 0 301 301;" xml:space="preserve">
<style type="text/css">
	.st0{fill:#FFFFFF;}
	.st1{fill:#566066;}
</style>
<g>
	<circle class="st0" cx="150.5" cy="150.5" r="150.5"/>
</g>
<path class="st1" d="M149.6,71.9H74.5c-0.6,0-1-0.4-1-1s0.4-1,1-1h75.1c0.6,0,1,0.4,1,1S150.2,71.9,149.6,71.9z"/>
<path class="st1" d="M149.6,92.9H74.5c-0.6,0-1-0.4-1-1s0.4-1,1-1h75.1c0.6,0,1,0.4,1,1S150.2,92.9,149.6,92.9z"/>
<path class="st1" d="M149.6,114H74.5c-0.6,0-1-0.4-1-1s0.4-1,1-1h75.1c0.6,0,1,0.4,1,1S150.2,114,149.6,114z"/>
<path class="st1" d="M149.6,135.1H74.5c-0.6,0-1-0.4-1-1s0.4-1,1-1h75.1c0.6,0,1,0.4,1,1S150.2,135.1,149.6,135.1z"/>
<path class="st1" d="M248.7,65.2v74.2h-74.2V65.2H248.7 M250.7,63.2h-78.2v78.2h78.2V63.2z"/>
<path class="st1" d="M248.7,161.6v74.2h-74.2v-74.2H248.7 M250.7,159.6h-78.2v78.2h78.2V159.6z"/>
<path class="st1" d="M148.5,161.6v74.2H52.3v-74.2H148.5 M150.5,159.6H50.3v78.2h100.2V159.6z"/>
<rect x="186.3" y="111.6" class="st1" width="7.6" height="29.6"/>
<rect x="197" y="96.4" class="st1" width="7.6" height="44.8"/>
<rect x="218.6" y="102.3" class="st1" width="7.6" height="38.9"/>
<rect x="229.3" y="81.3" class="st1" width="7.6" height="59.9"/>
<path class="st1" d="M57.8,77.1c-3.5,0-6.3-2.8-6.3-6.3s2.8-6.3,6.3-6.3s6.3,2.8,6.3,6.3C64.1,74.3,61.3,77.1,57.8,77.1z M57.8,66.5
	c-2.4,0-4.3,1.9-4.3,4.3s1.9,4.3,4.3,4.3s4.3-1.9,4.3-4.3S60.2,66.5,57.8,66.5z"/>
<path class="st1" d="M57.8,98.2c-3.5,0-6.3-2.8-6.3-6.3s2.8-6.3,6.3-6.3s6.3,2.8,6.3,6.3C64.1,95.4,61.3,98.2,57.8,98.2z M57.8,87.6
	c-2.4,0-4.3,1.9-4.3,4.3s1.9,4.3,4.3,4.3s4.3-1.9,4.3-4.3S60.2,87.6,57.8,87.6z"/>
<path class="st1" d="M57.8,119.4c-3.5,0-6.3-2.8-6.3-6.3s2.8-6.3,6.3-6.3s6.3,2.8,6.3,6.3S61.3,119.4,57.8,119.4z M57.8,108.8
	c-2.4,0-4.3,1.9-4.3,4.3s1.9,4.3,4.3,4.3s4.3-1.9,4.3-4.3S60.2,108.8,57.8,108.8z"/>
<path class="st1" d="M57.8,140.6c-3.5,0-6.3-2.8-6.3-6.3s2.8-6.3,6.3-6.3s6.3,2.8,6.3,6.3S61.3,140.6,57.8,140.6z M57.8,130
	c-2.4,0-4.3,1.9-4.3,4.3s1.9,4.3,4.3,4.3s4.3-1.9,4.3-4.3S60.2,130,57.8,130z"/>
<path class="st1" d="M211.6,219.8c-5.8,0-11.6-2.4-15.8-7.1c-7.7-8.7-6.9-22,1.8-29.8c8.7-7.7,22-6.9,29.8,1.8
	c0.4,0.4,0.3,1-0.1,1.4L213,198.8l12.6,14.3c0.4,0.4,0.3,1-0.1,1.4C221.6,218,216.6,219.8,211.6,219.8z M211.5,179.5
	c-4.5,0-9,1.6-12.6,4.8c-3.8,3.4-6.1,8.1-6.4,13.2c-0.3,5.1,1.4,10,4.8,13.8c6.8,7.6,18.4,8.6,26.2,2.3l-12.6-14.2
	c-0.4-0.4-0.3-1,0.1-1.4l14.2-12.7C221.4,181.5,216.5,179.5,211.5,179.5z"/>
<path class="st1" d="M227.3,184.6c-0.2-0.2-0.4-0.3-0.7-0.3s-0.5,0.1-0.7,0.3l-15,13.4c-0.4,0.4-0.4,1-0.1,1.4l13.3,15.1
	c0.2,0.2,0.4,0.3,0.7,0.3c0,0,0,0,0.1,0c0.2,0,0.5-0.1,0.7-0.3c4.5-4,7.1-9.8,7.1-15.8C232.7,193.5,230.8,188.5,227.3,184.6z"/>
<rect x="63.3" y="176" class="st1" width="33.5" height="10.6"/>
<rect x="104" y="176" class="st1" width="33.5" height="10.6"/>
<rect x="63.3" y="193.4" class="st1" width="33.5" height="10.6"/>
<rect x="104" y="193.4" class="st1" width="33.5" height="10.6"/>
<rect x="63.3" y="210.7" class="st1" width="33.5" height="10.6"/>
<rect x="104" y="210.7" class="st1" width="33.5" height="10.6"/>
</svg>
