<svg xmlns="http://www.w3.org/2000/svg" viewBox="0 0 130.37 90.35"><defs><style>.cls-1{fill:#e2e5e9;stroke-miterlimit:10;}.cls-1,.cls-2{stroke:#000;}.cls-2{fill:none;stroke-linecap:round;stroke-linejoin:round;stroke-width:3px;}</style></defs><title>icon-services-customdev</title><g id="Layer_2" data-name="Layer 2"><g id="Layer_1-2" data-name="Layer 1"><path d="M127,3a.35.35,0,0,1,.34.34V87a.35.35,0,0,1-.34.34H3.34A.35.35,0,0,1,3,87V3.34A.35.35,0,0,1,3.34,3H127m0-3H3.34A3.35,3.35,0,0,0,0,3.34V87a3.35,3.35,0,0,0,3.34,3.34H127A3.35,3.35,0,0,0,130.37,87V3.34A3.35,3.35,0,0,0,127,0Z"/><path class="cls-1" d="M34.65,8.26a2.93,2.93,0,1,1-2.94,2.93A2.93,2.93,0,0,1,34.65,8.26Z"/><path class="cls-1" d="M23.73,8.26a2.93,2.93,0,1,1-2.93,2.93A2.93,2.93,0,0,1,23.73,8.26Z"/><path class="cls-1" d="M12.81,8.26a2.93,2.93,0,1,1-2.93,2.93A2.93,2.93,0,0,1,12.81,8.26Z"/><polyline class="cls-2" points="48.9 40.98 33.67 51.22 48.9 61.47"/><polyline class="cls-2" points="81.47 61.47 96.71 51.22 81.47 40.98"/><line class="cls-2" x1="71.97" y1="35.1" x2="58.4" y2="67.34"/></g></g></svg>