<?xml version="1.0" encoding="utf-8"?>
<!-- Generator: Adobe Illustrator 22.0.1, SVG Export Plug-In . SVG Version: 6.00 Build 0)  -->
<svg version="1.1" id="Layer_1" xmlns="http://www.w3.org/2000/svg" xmlns:xlink="http://www.w3.org/1999/xlink" x="0px" y="0px"
	 viewBox="0 0 301 301" style="enable-background:new 0 0 301 301;" xml:space="preserve">
<style type="text/css">
	.st0{opacity:0;fill:#FFFFFF;}
	.st1{fill:#FFFFFF;}
	.st2{opacity:0.1;}
</style>
<title>icon-global-lists</title>
<g id="Layer_2_1_">
	<g id="Layer_1-2">
		<path class="st0" d="M301,301H0V0h301V301z M1,300h299V1H1V300z"/>
		<path class="st1" d="M82.3,103.6H57.4c-0.6,0-1-0.4-1-1V77.1c0-0.6,0.4-1,1-1h24.9c0.6,0,1,0.4,1,1v25.5
			C83.3,103.2,82.9,103.6,82.3,103.6z M58.4,101.6h22.9V78.1H58.4V101.6z"/>
		<path class="st1" d="M162.6,103.6H97.9c-0.6,0-1-0.4-1-1V77.1c0-0.6,0.4-1,1-1h64.6c0.6,0,1,0.4,1,1v25.5
			C163.6,103.2,163.1,103.6,162.6,103.6z M98.9,101.6h62.6V78.1H98.9V101.6z"/>
		<path class="st1" d="M243.6,103.6h-64.6c-0.6,0-1-0.4-1-1V77.1c0-0.6,0.4-1,1-1h64.6c0.6,0,1,0.4,1,1v25.5
			C244.6,103.2,244.1,103.6,243.6,103.6z M179.9,101.6h62.6V78.1h-62.6V101.6z"/>
		<path class="st1" d="M82.3,144H57.4c-0.6,0-1-0.4-1-1v-25.5c0-0.6,0.4-1,1-1h24.9c0.6,0,1,0.4,1,1V143
			C83.3,143.6,82.9,144,82.3,144z M58.4,142h22.9v-23.5H58.4V142z"/>
		<path class="st1" d="M162.6,144H97.9c-0.6,0-1-0.4-1-1v-25.5c0-0.6,0.4-1,1-1h64.6c0.6,0,1,0.4,1,1V143
			C163.6,143.6,163.1,144,162.6,144z M98.9,142h62.6v-23.5H98.9V142z"/>
		<path class="st1" d="M243.6,144h-64.6c-0.6,0-1-0.4-1-1v-25.5c0-0.6,0.4-1,1-1h64.6c0.6,0,1,0.4,1,1V143
			C244.6,143.6,244.1,144,243.6,144z M179.9,142h62.6v-23.5h-62.6V142z"/>
		<path class="st1" d="M82.3,184.4H57.4c-0.6,0-1-0.4-1-1V158c0-0.6,0.4-1,1-1h24.9c0.6,0,1,0.4,1,1v25.5
			C83.3,184,82.9,184.4,82.3,184.4z M58.4,182.4h22.9V159H58.4V182.4z"/>
		<path class="st1" d="M162.6,184.4H97.9c-0.6,0-1-0.4-1-1V158c0-0.6,0.4-1,1-1h64.6c0.6,0,1,0.4,1,1v25.5
			C163.6,184,163.1,184.4,162.6,184.4z M98.9,182.4h62.6V159H98.9V182.4z"/>
		<path class="st1" d="M243.6,184.4h-64.6c-0.6,0-1-0.4-1-1V158c0-0.6,0.4-1,1-1h64.6c0.6,0,1,0.4,1,1v25.5
			C244.6,184,244.1,184.4,243.6,184.4z M179.9,182.4h62.6V159h-62.6V182.4z"/>
		<path class="st1" d="M82.3,224.8H57.4c-0.6,0-1-0.4-1-1v-25.5c0-0.6,0.4-1,1-1h24.9c0.6,0,1,0.4,1,1v25.5
			C83.3,224.4,82.9,224.8,82.3,224.8z M58.4,222.8h22.9v-23.5H58.4V222.8z"/>
		<path class="st1" d="M162.6,224.8H97.9c-0.6,0-1-0.4-1-1v-25.5c0-0.6,0.4-1,1-1h64.6c0.6,0,1,0.4,1,1v25.5
			C163.6,224.4,163.1,224.8,162.6,224.8z M98.9,222.8h62.6v-23.5H98.9V222.8z"/>
		<path class="st1" d="M243.6,224.8h-64.6c-0.6,0-1-0.4-1-1v-25.5c0-0.6,0.4-1,1-1h64.6c0.6,0,1,0.4,1,1v25.5
			C244.6,224.4,244.1,224.8,243.6,224.8z M179.9,222.8h62.6v-23.5h-62.6V222.8z"/>
		<path class="st1" d="M68.5,96.5c-0.3,0-0.5-0.1-0.7-0.3l-5-5.3c-0.4-0.4-0.4-1,0-1.4c0.4-0.4,1-0.4,1.4,0l4.2,4.4l7.1-10.2
			c0.3-0.5,0.9-0.6,1.4-0.3c0.5,0.3,0.6,0.9,0.3,1.4l-7.8,11.2C69.1,96.3,68.9,96.5,68.5,96.5C68.5,96.5,68.5,96.5,68.5,96.5z"/>
		<path class="st1" d="M68.5,136.9c-0.3,0-0.5-0.1-0.7-0.3l-5-5.3c-0.4-0.4-0.4-1,0-1.4c0.4-0.4,1-0.4,1.4,0l4.2,4.4l7.1-10.2
			c0.3-0.5,0.9-0.6,1.4-0.3c0.5,0.3,0.6,0.9,0.3,1.4l-7.8,11.2C69.1,136.7,68.9,136.9,68.5,136.9C68.5,136.9,68.5,136.9,68.5,136.9z
			"/>
		<path class="st1" d="M68.5,177.3c-0.3,0-0.5-0.1-0.7-0.3l-5-5.3c-0.4-0.4-0.4-1,0-1.4c0.4-0.4,1-0.4,1.4,0l4.2,4.4l7.1-10.2
			c0.3-0.5,0.9-0.6,1.4-0.3c0.5,0.3,0.6,0.9,0.3,1.4l-7.8,11.2C69.1,177.1,68.9,177.3,68.5,177.3C68.5,177.3,68.5,177.3,68.5,177.3z
			"/>
		<g class="st2">
			<rect x="97.9" y="77.1" class="st1" width="64.6" height="25.5"/>
			<rect x="178.9" y="77.1" class="st1" width="64.6" height="25.5"/>
			<rect x="97.9" y="117.6" class="st1" width="64.6" height="25.5"/>
			<rect x="178.9" y="117.6" class="st1" width="64.6" height="25.5"/>
			<rect x="97.9" y="158" class="st1" width="64.6" height="25.4"/>
			<rect x="178.9" y="158" class="st1" width="64.6" height="25.4"/>
		</g>
	</g>
</g>
</svg>
