<?xml version="1.0" encoding="utf-8"?>
<!-- Generator: Adobe Illustrator 22.0.1, SVG Export Plug-In . SVG Version: 6.00 Build 0)  -->
<svg version="1.1" id="Layer_1" xmlns="http://www.w3.org/2000/svg" xmlns:xlink="http://www.w3.org/1999/xlink" x="0px" y="0px"
	 viewBox="0 0 450 274.5" style="enable-background:new 0 0 450 274.5;" xml:space="preserve">
<style type="text/css">
	.st0{fill:#707D91;}
	.st1{opacity:0.8;fill:#707D91;}
	.st2{opacity:0.6;fill:#707D91;}
	.st3{opacity:0.45;fill:#707D91;}
	.st4{opacity:0.3;fill:#707D91;}
	.st5{opacity:0.2;fill:#707D91;}
	.st6{filter:url(#Adobe_OpacityMaskFilter);}
	.st7{fill:url(#SVGID_2_);}
	.st8{mask:url(#SVGID_1_);}
	.st9{fill:none;stroke:#707D91;stroke-linecap:round;stroke-linejoin:round;stroke-miterlimit:10;}
	.st10{fill:#FFFFFF;stroke:#707D91;stroke-linecap:round;stroke-linejoin:round;stroke-miterlimit:10;}
</style>
<g>
	<g>
		<g>
			<path class="st0" d="M52.3,185.3l-5.3-1.7c-0.5-0.2-0.9,0.7-0.9,1.8v12.2c0,1.1,0.4,2.2,0.9,2.4l5.3,2.2c0.5,0.2,0.9-0.6,0.9-1.8
				v-12.8C53.3,186.6,52.9,185.4,52.3,185.3z"/>
			<path class="st0" d="M61.2,188.2l-5.8-1.9c-0.5-0.2-1,0.7-1,1.9V201c0,1.2,0.4,2.4,1,2.6l5.8,2.5c0.6,0.2,1-0.6,1-1.8v-13.4
				C62.3,189.5,61.8,188.3,61.2,188.2z"/>
			<path class="st0" d="M71.1,191.4l-6.5-2.1c-0.6-0.2-1.1,0.7-1.1,2v13.5c0,1.3,0.5,2.5,1.1,2.7l6.5,2.8c0.6,0.3,1.2-0.6,1.2-1.9
				v-14.2C72.2,192.8,71.7,191.6,71.1,191.4z"/>
			<path class="st0" d="M82.1,194.9l-7.3-2.4c-0.7-0.2-1.2,0.7-1.2,2v14.3c0,1.3,0.5,2.7,1.2,2.9l7.3,3.1c0.7,0.3,1.3-0.6,1.3-2v-15
				C83.4,196.5,82.8,195.2,82.1,194.9z"/>
			<path class="st0" d="M94.5,198.9l-8.2-2.7c-0.7-0.2-1.3,0.7-1.3,2.1v15.1c0,1.4,0.6,2.8,1.3,3.1l8.2,3.5c0.8,0.3,1.5-0.6,1.5-2.1
				v-16C96,200.6,95.3,199.2,94.5,198.9z"/>
			<path class="st0" d="M108.5,203.5l-9.3-3c-0.8-0.3-1.5,0.7-1.5,2.2v16.1c0,1.5,0.7,3,1.5,3.4l9.3,3.9c0.9,0.4,1.7-0.6,1.7-2.2
				v-17C110.2,205.3,109.4,203.8,108.5,203.5z"/>
			<path class="st0" d="M124.6,208.7l-10.6-3.4c-0.9-0.3-1.7,0.8-1.7,2.4v17.2c0,1.6,0.8,3.2,1.7,3.6l10.6,4.5
				c1,0.4,1.9-0.6,1.9-2.3v-18.2C126.5,210.7,125.6,209,124.6,208.7z"/>
			<path class="st0" d="M143.1,214.7l-12.3-4c-1.1-0.4-2,0.8-2,2.5v18.4c0,1.7,0.9,3.5,2,4l12.3,5.2c1.2,0.5,2.2-0.6,2.2-2.4v-19.6
				C145.3,216.9,144.3,215.1,143.1,214.7z"/>
			<path class="st0" d="M164.6,221.7l-14.3-4.6c-1.3-0.4-2.3,0.8-2.3,2.6v19.9c0,1.9,1,3.8,2.3,4.3l14.3,6.1
				c1.4,0.6,2.6-0.5,2.6-2.5v-21.3C167.2,224.1,166,222.1,164.6,221.7z"/>
			<path class="st0" d="M190.1,229.9l-17-5.5c-1.5-0.5-2.7,0.8-2.7,2.8v21.5c0,2,1.2,4.2,2.7,4.8l17,7.2c1.7,0.7,3.1-0.5,3.1-2.6
				v-23.2C193.2,232.7,191.8,230.5,190.1,229.9z"/>
			<path class="st0" d="M220.6,239.8l-20.4-6.6c-1.8-0.6-3.2,0.8-3.2,3v23.5c0,2.2,1.4,4.6,3.2,5.4l20.4,8.7c2,0.9,3.7-0.4,3.7-2.8
				v-25.6C224.3,243,222.6,240.5,220.6,239.8z"/>
			<path class="st1" d="M52.3,165.7l-5.3-1.1c-0.5-0.1-0.9,0.8-0.9,1.9v12.2c0,1.1,0.4,2.2,0.9,2.3l5.3,1.6c0.5,0.2,0.9-0.7,0.9-1.9
				V168C53.3,166.8,52.9,165.8,52.3,165.7z"/>
			<path class="st1" d="M61.2,167.5l-5.8-1.2c-0.5-0.1-1,0.8-1,2v12.8c0,1.2,0.4,2.3,1,2.5l5.8,1.8c0.6,0.2,1-0.7,1-2V170
				C62.3,168.8,61.8,167.6,61.2,167.5z"/>
			<path class="st1" d="M82.1,171.9l-7.3-1.5c-0.7-0.1-1.2,0.8-1.2,2.2v14.3c0,1.3,0.5,2.6,1.2,2.8l7.3,2.2c0.7,0.2,1.3-0.7,1.3-2.2
				v-15C83.4,173.3,82.8,172,82.1,171.9z"/>
			<path class="st1" d="M108.5,177.4l-9.3-1.9c-0.8-0.2-1.5,0.9-1.5,2.4v16.1c0,1.5,0.7,2.9,1.5,3.2l9.3,2.9
				c0.9,0.3,1.7-0.8,1.7-2.4v-17C110.2,179,109.4,177.6,108.5,177.4z"/>
			<path class="st1" d="M124.6,180.7l-10.6-2.2c-0.9-0.2-1.7,1-1.7,2.6v17.2c0,1.6,0.8,3.2,1.7,3.4l10.6,3.3c1,0.3,1.9-0.8,1.9-2.5
				v-18.2C126.5,182.5,125.6,180.9,124.6,180.7z"/>
			<path class="st1" d="M143.1,184.6l-12.3-2.6c-1.1-0.2-2,1-2,2.7v18.4c0,1.7,0.9,3.4,2,3.7l12.3,3.8c1.2,0.4,2.2-0.8,2.2-2.7
				v-19.6C145.3,186.5,144.3,184.8,143.1,184.6z"/>
			<path class="st1" d="M164.6,189.1l-14.3-3c-1.3-0.3-2.3,1-2.3,2.9v19.9c0,1.9,1,3.7,2.3,4.1l14.3,4.4c1.4,0.4,2.6-0.8,2.6-2.8
				v-21.3C167.2,191.2,166,189.4,164.6,189.1z"/>
			<path class="st1" d="M190.1,194.4l-17-3.5c-1.5-0.3-2.7,1.1-2.7,3.1v21.5c0,2,1.2,4,2.7,4.5l17,5.2c1.7,0.5,3.1-0.8,3.1-3V199
				C193.2,196.8,191.8,194.7,190.1,194.4z"/>
			<path class="st1" d="M220.6,200.7l-20.4-4.2c-1.8-0.4-3.2,1.1-3.2,3.3v23.5c0,2.2,1.4,4.4,3.2,5l20.4,6.3c2,0.6,3.7-0.8,3.7-3.2
				v-25.6C224.3,203.4,222.6,201.1,220.6,200.7z"/>
			<path class="st2" d="M61.2,146.9l-5.8-0.5c-0.5,0-1,0.9-1,2.1v12.8c0,1.2,0.4,2.3,1,2.4l5.8,1.1c0.6,0.1,1-0.8,1-2.1v-13.4
				C62.3,148,61.8,146.9,61.2,146.9z"/>
			<path class="st0" d="M44.3,182.7l-4.8-1.6c-0.4-0.1-0.8,0.6-0.8,1.7v11.7c0,1.1,0.4,2.1,0.8,2.3l4.8,2c0.5,0.2,0.8-0.6,0.8-1.7
				V185C45.2,183.9,44.8,182.8,44.3,182.7z"/>
			<path class="st1" d="M44.3,164l-4.8-1c-0.4-0.1-0.8,0.7-0.8,1.8v11.7c0,1.1,0.4,2.1,0.8,2.2l4.8,1.5c0.5,0.1,0.8-0.7,0.8-1.8
				v-12.1C45.2,165.1,44.8,164.1,44.3,164z"/>
			<path class="st0" d="M37,180.3l-4.4-1.4c-0.4-0.1-0.7,0.6-0.7,1.7v11.2c0,1,0.3,2,0.7,2.2l4.4,1.9c0.4,0.2,0.8-0.6,0.8-1.6v-11.6
				C37.8,181.4,37.4,180.4,37,180.3z"/>
			<path class="st1" d="M37,162.5l-4.4-0.9c-0.4-0.1-0.7,0.7-0.7,1.7v11.2c0,1,0.3,2,0.7,2.1l4.4,1.4c0.4,0.1,0.8-0.6,0.8-1.7v-11.6
				C37.8,163.5,37.4,162.6,37,162.5z"/>
			<path class="st2" d="M37,144.6l-4.4-0.4c-0.4,0-0.7,0.8-0.7,1.8v11.2c0,1,0.3,2,0.7,2l4.4,0.8c0.4,0.1,0.8-0.7,0.8-1.8v-11.6
				C37.8,145.6,37.4,144.7,37,144.6z"/>
			<path class="st0" d="M30.3,178.1l-4-1.3c-0.4-0.1-0.7,0.6-0.7,1.6v10.7c0,1,0.3,1.9,0.7,2.1l4,1.7c0.4,0.2,0.7-0.5,0.7-1.6v-11.1
				C31,179.2,30.7,178.3,30.3,178.1z"/>
			<path class="st1" d="M30.3,161.1l-4-0.8c-0.4-0.1-0.7,0.7-0.7,1.7v10.7c0,1,0.3,1.9,0.7,2l4,1.2c0.4,0.1,0.7-0.6,0.7-1.7v-11.1
				C31,162.1,30.7,161.2,30.3,161.1z"/>
			<path class="st0" d="M24.2,176.2l-3.7-1.2c-0.3-0.1-0.6,0.6-0.6,1.5v10.3c0,1,0.3,1.9,0.6,2l3.7,1.6c0.4,0.2,0.6-0.5,0.6-1.5
				v-10.6C24.9,177.2,24.6,176.3,24.2,176.2z"/>
			<path class="st0" d="M18.6,174.3l-3.4-1.1c-0.3-0.1-0.6,0.6-0.6,1.5v9.9c0,0.9,0.3,1.8,0.6,1.9l3.4,1.4c0.3,0.1,0.6-0.5,0.6-1.5
				v-10.2C19.2,175.3,18.9,174.4,18.6,174.3z"/>
			<path class="st0" d="M13.4,172.6l-3.2-1c-0.3-0.1-0.5,0.6-0.5,1.4v9.5c0,0.9,0.2,1.7,0.5,1.8l3.2,1.3c0.3,0.1,0.6-0.5,0.6-1.4
				v-9.8C13.9,173.6,13.7,172.7,13.4,172.6z"/>
			<path class="st0" d="M8.6,171.1l-2.9-0.9c-0.3-0.1-0.5,0.5-0.5,1.4v9.1c0,0.9,0.2,1.6,0.5,1.8l2.9,1.2c0.3,0.1,0.5-0.5,0.5-1.4
				v-9.4C9.1,172,8.8,171.2,8.6,171.1z"/>
			<path class="st1" d="M8.6,156.5l-2.9-0.6c-0.3-0.1-0.5,0.6-0.5,1.5v9.1c0,0.9,0.2,1.6,0.5,1.7l2.9,0.9c0.3,0.1,0.5-0.6,0.5-1.4
				v-9.4C9.1,157.4,8.8,156.6,8.6,156.5z"/>
			<path class="st0" d="M4.1,169.6l-2.7-0.9c-0.2-0.1-0.5,0.5-0.5,1.4v8.8c0,0.8,0.2,1.6,0.5,1.7l2.7,1.2c0.3,0.1,0.5-0.5,0.5-1.3
				v-9.1C4.6,170.5,4.4,169.7,4.1,169.6z"/>
			<path class="st2" d="M124.6,152.7l-10.6-1c-0.9-0.1-1.7,1.2-1.7,2.8v17.2c0,1.6,0.8,3.1,1.7,3.2l10.6,2c1,0.2,1.9-1,1.9-2.7V156
				C126.5,154.3,125.6,152.8,124.6,152.7z"/>
			<path class="st2" d="M164.6,156.4l-14.3-1.3c-1.3-0.1-2.3,1.3-2.3,3.2v19.9c0,1.9,1,3.6,2.3,3.8l14.3,2.8
				c1.4,0.3,2.6-1.1,2.6-3.1v-21.3C167.2,158.3,166,156.6,164.6,156.4z"/>
			<path class="st2" d="M190.1,158.8l-17-1.6c-1.5-0.1-2.7,1.4-2.7,3.4v21.5c0,2,1.2,3.9,2.7,4.2l17,3.3c1.7,0.3,3.1-1.2,3.1-3.4
				V163C193.2,160.9,191.8,158.9,190.1,158.8z"/>
			<path class="st2" d="M220.6,161.6l-20.4-1.9c-1.8-0.2-3.2,1.5-3.2,3.7V187c0,2.2,1.4,4.3,3.2,4.6l20.4,3.9c2,0.4,3.7-1.2,3.7-3.6
				v-25.6C224.3,163.9,222.6,161.8,220.6,161.6z"/>
			<path class="st3" d="M190.1,123.2l-17,0.4c-1.5,0-2.7,1.7-2.7,3.7v21.5c0,2,1.2,3.8,2.7,3.9l17,1.3c1.7,0.1,3.1-1.5,3.1-3.7
				v-23.2C193.2,124.9,191.8,123.2,190.1,123.2z"/>
			<path class="st3" d="M220.6,122.5l-20.4,0.5c-1.8,0-3.2,1.9-3.2,4.1v23.5c0,2.2,1.4,4.1,3.2,4.2l20.4,1.6c2,0.2,3.7-1.7,3.7-4.1
				v-25.6C224.3,124.4,222.6,122.5,220.6,122.5z"/>
			<path class="st4" d="M190.1,87.7l-17,2.4c-1.5,0.2-2.7,2-2.7,4v21.5c0,2,1.2,3.6,2.7,3.6l17-0.7c1.7-0.1,3.1-1.9,3.1-4.1V91.2
				C193.2,89,191.8,87.4,190.1,87.7z"/>
			<path class="st4" d="M220.6,83.4l-20.4,2.8c-1.8,0.2-3.2,2.2-3.2,4.4v23.5c0,2.2,1.4,3.9,3.2,3.9l20.4-0.8c2-0.1,3.7-2.1,3.7-4.5
				V87.2C224.3,84.8,222.6,83.1,220.6,83.4z"/>
			<path class="st5" d="M220.6,44.3l-20.4,5.2c-1.8,0.5-3.2,2.6-3.2,4.8v23.5c0,2.2,1.4,3.8,3.2,3.5l20.4-3.2c2-0.3,3.7-2.5,3.7-4.9
				V47.7C224.3,45.3,222.6,43.8,220.6,44.3z"/>
		</g>
		<g>
			<path class="st0" d="M252.4,233.6l-20.4,6.6c-2,0.7-3.7,3.2-3.7,5.6v25.7c0,2.4,1.7,3.7,3.7,2.8l20.4-8.7
				c1.8-0.8,3.2-3.2,3.2-5.4v-23.6C255.7,234.4,254.2,233,252.4,233.6z"/>
			<path class="st1" d="M252.4,196.7l-20.4,4.2c-2,0.4-3.7,2.7-3.7,5.1v25.7c0,2.4,1.7,3.9,3.7,3.2l20.4-6.2c1.8-0.5,3.2-2.8,3.2-5
				V200C255.7,197.8,254.2,196.3,252.4,196.7z"/>
			<path class="st2" d="M252.4,159.8l-20.4,1.7c-2,0.2-3.7,2.3-3.7,4.7v25.7c0,2.4,1.7,4.1,3.7,3.7l20.4-3.8
				c1.8-0.3,3.2-2.4,3.2-4.6v-23.6C255.7,161.3,254.2,159.6,252.4,159.8z"/>
			<path class="st3" d="M252.4,122.9l-20.4-0.7c-2-0.1-3.7,1.8-3.7,4.2v25.7c0,2.4,1.7,4.3,3.7,4.1l20.4-1.4c1.8-0.1,3.2-2,3.2-4.2
				V127C255.7,124.8,254.2,123,252.4,122.9z"/>
			<path class="st4" d="M252.4,86l-20.4-3.1c-2-0.3-3.7,1.4-3.7,3.8v25.7c0,2.4,1.7,4.5,3.7,4.6l20.4,1c1.8,0.1,3.2-1.7,3.2-3.9
				V90.5C255.7,88.3,254.2,86.3,252.4,86z"/>
			<path class="st5" d="M252.4,49.1l-20.4-5.5c-2-0.6-3.7,1-3.7,3.4v25.7c0,2.4,1.7,4.7,3.7,5l20.4,3.4c1.8,0.3,3.2-1.3,3.2-3.5V54
				C255.7,51.8,254.2,49.6,252.4,49.1z"/>
			<path class="st0" d="M279.5,224.9l-16.9,5.4c-1.7,0.5-3.1,2.8-3.1,5v23.3c0,2.2,1.4,3.4,3.1,2.7l16.9-7.2
				c1.5-0.6,2.7-2.8,2.7-4.8v-21.6C282.2,225.7,280.9,224.4,279.5,224.9z"/>
			<path class="st1" d="M279.5,191.2l-16.9,3.4c-1.7,0.3-3.1,2.4-3.1,4.6v23.3c0,2.2,1.4,3.5,3.1,3l16.9-5.2
				c1.5-0.5,2.7-2.5,2.7-4.5v-21.6C282.2,192.3,280.9,190.9,279.5,191.2z"/>
			<path class="st2" d="M279.5,157.5l-16.9,1.4c-1.7,0.1-3.1,2-3.1,4.2v23.3c0,2.2,1.4,3.7,3.1,3.4l16.9-3.2
				c1.5-0.3,2.7-2.2,2.7-4.2v-21.6C282.2,158.9,280.9,157.4,279.5,157.5z"/>
			<path class="st3" d="M279.5,123.8l-16.9-0.6c-1.7-0.1-3.1,1.7-3.1,3.9v23.3c0,2.2,1.4,3.9,3.1,3.8l16.9-1.2
				c1.5-0.1,2.7-1.8,2.7-3.9v-21.6C282.2,125.5,280.9,123.8,279.5,123.8z"/>
			<path class="st4" d="M279.5,90.1l-16.9-2.6c-1.7-0.3-3.1,1.3-3.1,3.5v23.3c0,2.2,1.4,4,3.1,4.1l16.9,0.8c1.5,0.1,2.7-1.5,2.7-3.5
				V94.2C282.2,92.1,280.9,90.3,279.5,90.1z"/>
			<path class="st0" d="M302.2,217.6l-14.3,4.6c-1.4,0.5-2.6,2.5-2.6,4.5V248c0,2,1.2,3.1,2.6,2.5l14.3-6.1c1.3-0.5,2.3-2.5,2.3-4.3
				v-19.9C304.5,218.4,303.4,217.2,302.2,217.6z"/>
			<path class="st1" d="M302.2,186.6l-14.3,2.9c-1.4,0.3-2.6,2.2-2.6,4.2V215c0,2,1.2,3.3,2.6,2.8l14.3-4.4c1.3-0.4,2.3-2.2,2.3-4.1
				v-19.9C304.5,187.6,303.4,186.3,302.2,186.6z"/>
			<path class="st2" d="M302.2,155.5l-14.3,1.2c-1.4,0.1-2.6,1.9-2.6,3.8V182c0,2,1.2,3.4,2.6,3.1l14.3-2.7c1.3-0.2,2.3-1.9,2.3-3.8
				v-19.9C304.5,156.9,303.4,155.4,302.2,155.5z"/>
			<path class="st3" d="M302.2,124.5l-14.3-0.5c-1.4,0-2.6,1.5-2.6,3.5V149c0,2,1.2,3.5,2.6,3.4l14.3-1c1.3-0.1,2.3-1.7,2.3-3.5V128
				C304.5,126.1,303.4,124.6,302.2,124.5z"/>
			<path class="st4" d="M302.2,93.5l-14.3-2.2c-1.4-0.2-2.6,1.2-2.6,3.2v21.3c0,2,1.2,3.7,2.6,3.8l14.3,0.7c1.3,0.1,2.3-1.4,2.3-3.3
				V97.2C304.5,95.4,303.4,93.7,302.2,93.5z"/>
			<path class="st0" d="M321.5,211.3l-12.2,3.9c-1.2,0.4-2.2,2.2-2.2,4.1V239c0,1.8,1,2.9,2.2,2.4l12.2-5.2c1.1-0.5,2-2.2,2-4v-18.4
				C323.5,212.1,322.6,211,321.5,211.3z"/>
			<path class="st1" d="M321.5,182.6l-12.2,2.5c-1.2,0.2-2.2,2-2.2,3.8v19.7c0,1.8,1,3,2.2,2.7l12.2-3.7c1.1-0.3,2-2,2-3.7v-18.4
				C323.5,183.6,322.6,182.4,321.5,182.6z"/>
			<path class="st2" d="M321.5,153.9l-12.2,1c-1.2,0.1-2.2,1.7-2.2,3.5v19.7c0,1.8,1,3.2,2.2,2.9l12.2-2.3c1.1-0.2,2-1.8,2-3.5
				v-18.4C323.5,155.1,322.6,153.8,321.5,153.9z"/>
			<path class="st3" d="M321.5,125.2l-12.2-0.4c-1.2,0-2.2,1.4-2.2,3.3v19.7c0,1.8,1,3.3,2.2,3.2l12.2-0.8c1.1-0.1,2-1.5,2-3.3
				v-18.4C323.5,126.6,322.6,125.2,321.5,125.2z"/>
			<path class="st4" d="M321.5,96.4l-12.2-1.8c-1.2-0.2-2.2,1.2-2.2,3v19.7c0,1.8,1,3.4,2.2,3.5l12.2,0.6c1.1,0.1,2-1.3,2-3V99.9
				C323.5,98.1,322.6,96.6,321.5,96.4z"/>
			<path class="st5" d="M321.5,67.7l-12.2-3.3c-1.2-0.3-2.2,0.9-2.2,2.8v19.7c0,1.8,1,3.5,2.2,3.7l12.2,2c1.1,0.2,2-1.1,2-2.8V71.4
				C323.5,69.6,322.6,68,321.5,67.7z"/>
			<path class="st0" d="M338.2,206l-10.5,3.4c-1,0.3-1.9,2-1.9,3.7v18.3c0,1.7,0.9,2.7,1.9,2.3l10.5-4.5c0.9-0.4,1.7-2,1.7-3.6
				v-17.2C339.9,206.7,339.2,205.7,338.2,206z"/>
			<path class="st1" d="M338.2,179.2l-10.5,2.1c-1,0.2-1.9,1.8-1.9,3.5v18.3c0,1.7,0.9,2.8,1.9,2.5l10.5-3.2
				c0.9-0.3,1.7-1.8,1.7-3.4v-17.2C339.9,180.2,339.2,179,338.2,179.2z"/>
			<path class="st2" d="M338.2,152.5l-10.5,0.9c-1,0.1-1.9,1.6-1.9,3.3v18.3c0,1.7,0.9,2.9,1.9,2.7l10.5-2c0.9-0.2,1.7-1.6,1.7-3.2
				v-17.2C339.9,153.6,339.2,152.4,338.2,152.5z"/>
			<path class="st3" d="M338.2,125.7l-10.5-0.3c-1,0-1.9,1.3-1.9,3v18.3c0,1.7,0.9,3,1.9,3l10.5-0.7c0.9-0.1,1.7-1.4,1.7-3v-17.2
				C339.9,127.1,339.2,125.7,338.2,125.7z"/>
			<path class="st4" d="M338.2,99l-10.5-1.6c-1-0.2-1.9,1.1-1.9,2.8v18.3c0,1.7,0.9,3.1,1.9,3.2l10.5,0.5c0.9,0,1.7-1.2,1.7-2.8
				v-17.2C339.9,100.5,339.2,99.1,338.2,99z"/>
			<path class="st4" d="M352.8,101.2l-9.2-1.4c-0.9-0.1-1.6,1.1-1.6,2.6v17c0,1.6,0.7,2.9,1.6,3l9.2,0.4c0.8,0,1.5-1.2,1.5-2.7
				v-16.1C354.3,102.6,353.6,101.3,352.8,101.2z"/>
			<path class="st0" d="M352.8,201.3l-9.2,3c-0.9,0.3-1.6,1.8-1.6,3.4v17c0,1.6,0.7,2.6,1.6,2.2l9.2-3.9c0.8-0.3,1.5-1.9,1.5-3.4
				v-16.1C354.3,202,353.6,201,352.8,201.3z"/>
			<path class="st1" d="M352.8,176.2l-9.2,1.9c-0.9,0.2-1.6,1.6-1.6,3.2v17c0,1.6,0.7,2.7,1.6,2.4l9.2-2.8c0.8-0.3,1.5-1.7,1.5-3.2
				v-16.1C354.3,177.2,353.6,176.1,352.8,176.2z"/>
			<path class="st2" d="M352.8,151.2l-9.2,0.8c-0.9,0.1-1.6,1.4-1.6,3v17c0,1.6,0.7,2.8,1.6,2.6l9.2-1.7c0.8-0.2,1.5-1.5,1.5-3
				v-16.1C354.3,152.3,353.6,151.1,352.8,151.2z"/>
			<path class="st3" d="M352.8,126.2l-9.2-0.3c-0.9,0-1.6,1.2-1.6,2.8v17c0,1.6,0.7,2.8,1.6,2.8l9.2-0.6c0.8-0.1,1.5-1.3,1.5-2.8
				V129C354.3,127.5,353.6,126.2,352.8,126.2z"/>
			<path class="st0" d="M365.6,197.2l-8.1,2.6c-0.8,0.3-1.4,1.7-1.4,3.2v15.9c0,1.5,0.7,2.4,1.4,2.1l8.1-3.4
				c0.7-0.3,1.3-1.7,1.3-3.1v-15.1C366.9,197.9,366.3,196.9,365.6,197.2z"/>
			<path class="st1" d="M365.6,173.6l-8.1,1.6c-0.8,0.2-1.4,1.5-1.4,3v15.9c0,1.5,0.7,2.5,1.4,2.3l8.1-2.5c0.7-0.2,1.3-1.6,1.3-3
				v-15.1C366.9,174.5,366.3,173.5,365.6,173.6z"/>
			<path class="st2" d="M365.6,150.1l-8.1,0.7c-0.8,0.1-1.4,1.3-1.4,2.8v15.9c0,1.5,0.7,2.6,1.4,2.4l8.1-1.5
				c0.7-0.1,1.3-1.4,1.3-2.8v-15.1C366.9,151.2,366.3,150.1,365.6,150.1z"/>
			<path class="st3" d="M365.6,126.6l-8.1-0.3c-0.8,0-1.4,1.2-1.4,2.7v15.9c0,1.5,0.7,2.7,1.4,2.6l8.1-0.6c0.7-0.1,1.3-1.2,1.3-2.7
				v-15.1C366.9,127.8,366.3,126.6,365.6,126.6z"/>
			<path class="st4" d="M365.6,103.1l-8.1-1.2c-0.8-0.1-1.4,1-1.4,2.5v15.9c0,1.5,0.7,2.7,1.4,2.8l8.1,0.4c0.7,0,1.3-1.1,1.3-2.5
				v-15.1C366.9,104.4,366.3,103.2,365.6,103.1z"/>
			<path class="st0" d="M376.9,193.5l-7.2,2.3c-0.7,0.2-1.3,1.6-1.3,3v15c0,1.4,0.6,2.3,1.3,2l7.2-3c0.6-0.3,1.2-1.6,1.2-2.9v-14.3
				C378.1,194.2,377.5,193.3,376.9,193.5z"/>
			<path class="st1" d="M376.9,171.3l-7.2,1.5c-0.7,0.1-1.3,1.4-1.3,2.8v15c0,1.4,0.6,2.4,1.3,2.2l7.2-2.2c0.6-0.2,1.2-1.4,1.2-2.8
				v-14.3C378.1,172.2,377.5,171.2,376.9,171.3z"/>
			<path class="st2" d="M376.9,149.2l-7.2,0.6c-0.7,0.1-1.3,1.3-1.3,2.7v15c0,1.4,0.6,2.4,1.3,2.3l7.2-1.3c0.6-0.1,1.2-1.3,1.2-2.6
				v-14.3C378.1,150.1,377.5,149.1,376.9,149.2z"/>
			<path class="st3" d="M376.9,127l-7.2-0.2c-0.7,0-1.3,1.1-1.3,2.5v15c0,1.4,0.6,2.5,1.3,2.5l7.2-0.5c0.6,0,1.2-1.2,1.2-2.5v-14.3
				C378.1,128.1,377.5,127,376.9,127z"/>
			<path class="st4" d="M376.9,104.8l-7.2-1.1c-0.7-0.1-1.3,1-1.3,2.4v15c0,1.4,0.6,2.6,1.3,2.6l7.2,0.3c0.6,0,1.2-1,1.2-2.4v-14.3
				C378.1,106.1,377.5,104.9,376.9,104.8z"/>
			<path class="st5" d="M376.9,82.6l-7.2-1.9c-0.7-0.2-1.3,0.8-1.3,2.2v15c0,1.4,0.6,2.6,1.3,2.8l7.2,1.2c0.6,0.1,1.2-0.9,1.2-2.2
				V85.4C378.1,84,377.5,82.8,376.9,82.6z"/>
			<path class="st0" d="M387,190.2l-6.4,2.1c-0.6,0.2-1.1,1.4-1.1,2.8v14.1c0,1.3,0.5,2.2,1.1,1.9l6.4-2.7c0.6-0.2,1-1.5,1-2.7
				v-13.5C388,190.9,387.6,190.1,387,190.2z"/>
			<path class="st1" d="M387,169.3l-6.4,1.3c-0.6,0.1-1.1,1.3-1.1,2.6v14.1c0,1.3,0.5,2.2,1.1,2.1l6.4-2c0.6-0.2,1-1.4,1-2.6v-13.5
				C388,170.1,387.6,169.2,387,169.3z"/>
			<path class="st2" d="M387,148.3l-6.4,0.5c-0.6,0.1-1.1,1.2-1.1,2.5v14.1c0,1.3,0.5,2.3,1.1,2.2l6.4-1.2c0.6-0.1,1-1.2,1-2.5
				v-13.5C388,149.2,387.6,148.2,387,148.3z"/>
			<path class="st3" d="M387,127.3l-6.4-0.2c-0.6,0-1.1,1-1.1,2.4v14.1c0,1.3,0.5,2.4,1.1,2.3l6.4-0.4c0.6,0,1-1.1,1-2.4v-13.5
				C388,128.4,387.6,127.3,387,127.3z"/>
			<path class="st4" d="M387,106.3l-6.4-1c-0.6-0.1-1.1,0.9-1.1,2.2v14.1c0,1.3,0.5,2.4,1.1,2.5l6.4,0.3c0.6,0,1-1,1-2.2v-13.5
				C388,107.5,387.6,106.4,387,106.3z"/>
			<path class="st5" d="M387,85.3l-6.4-1.7c-0.6-0.2-1.1,0.8-1.1,2.1v14.1c0,1.3,0.5,2.5,1.1,2.6l6.4,1.1c0.6,0.1,1-0.9,1-2.1V87.9
				C388,86.7,387.6,85.5,387,85.3z"/>
			<path class="st0" d="M396.1,187.3l-5.8,1.9c-0.6,0.2-1,1.4-1,2.6v13.4c0,1.3,0.5,2.1,1,1.8l5.8-2.4c0.5-0.2,0.9-1.4,0.9-2.6
				v-12.8C397,188,396.6,187.2,396.1,187.3z"/>
			<path class="st1" d="M396.1,167.4l-5.8,1.2c-0.6,0.1-1,1.2-1,2.5v13.4c0,1.3,0.5,2.1,1,2l5.8-1.8c0.5-0.2,0.9-1.3,0.9-2.5v-12.8
				C397,168.2,396.6,167.3,396.1,167.4z"/>
			<path class="st2" d="M396.1,147.5l-5.8,0.5c-0.6,0-1,1.1-1,2.4v13.4c0,1.3,0.5,2.2,1,2.1l5.8-1.1c0.5-0.1,0.9-1.2,0.9-2.4v-12.8
				C397,148.4,396.6,147.5,396.1,147.5z"/>
			<path class="st3" d="M396.1,127.6l-5.8-0.2c-0.6,0-1,1-1,2.2v13.4c0,1.3,0.5,2.2,1,2.2l5.8-0.4c0.5,0,0.9-1,0.9-2.2v-12.8
				C397,128.6,396.6,127.6,396.1,127.6z"/>
			<path class="st4" d="M396.1,107.7l-5.8-0.9c-0.6-0.1-1,0.9-1,2.1v13.4c0,1.3,0.5,2.3,1,2.3l5.8,0.3c0.5,0,0.9-0.9,0.9-2.1V110
				C397,108.8,396.6,107.8,396.1,107.7z"/>
			<path class="st0" d="M404.3,184.7l-5.2,1.7c-0.5,0.2-0.9,1.3-0.9,2.5v12.7c0,1.2,0.4,2,0.9,1.8l5.2-2.2c0.5-0.2,0.9-1.3,0.9-2.4
				v-12.2C405.1,185.3,404.7,184.5,404.3,184.7z"/>
			<path class="st1" d="M404.3,165.7l-5.2,1.1c-0.5,0.1-0.9,1.2-0.9,2.3v12.7c0,1.2,0.4,2,0.9,1.9l5.2-1.6c0.5-0.1,0.9-1.2,0.9-2.3
				v-12.2C405.1,166.5,404.7,165.7,404.3,165.7z"/>
			<path class="st2" d="M404.3,146.8l-5.2,0.4c-0.5,0-0.9,1.1-0.9,2.2v12.7c0,1.2,0.4,2.1,0.9,2l5.2-1c0.5-0.1,0.9-1.1,0.9-2.2
				v-12.2C405.1,147.7,404.7,146.8,404.3,146.8z"/>
			<path class="st3" d="M404.3,127.9l-5.2-0.2c-0.5,0-0.9,0.9-0.9,2.1v12.7c0,1.2,0.4,2.1,0.9,2.1l5.2-0.4c0.5,0,0.9-1,0.9-2.1V130
				C405.1,128.8,404.7,127.9,404.3,127.9z"/>
			<path class="st4" d="M404.3,108.9l-5.2-0.8c-0.5-0.1-0.9,0.8-0.9,2v12.7c0,1.2,0.4,2.2,0.9,2.2l5.2,0.3c0.5,0,0.9-0.9,0.9-2
				v-12.2C405.1,110,404.7,109,404.3,108.9z"/>
			<path class="st0" d="M411.7,182.3l-4.7,1.5c-0.5,0.1-0.8,1.2-0.8,2.3v12.1c0,1.1,0.4,1.9,0.8,1.7l4.7-2c0.4-0.2,0.8-1.2,0.8-2.3
				V184C412.5,182.9,412.1,182.2,411.7,182.3z"/>
			<path class="st1" d="M411.7,164.2l-4.7,1c-0.5,0.1-0.8,1.1-0.8,2.2v12.1c0,1.1,0.4,1.9,0.8,1.8l4.7-1.4c0.4-0.1,0.8-1.1,0.8-2.2
				v-11.6C412.5,165,412.1,164.1,411.7,164.2z"/>
			<path class="st2" d="M411.7,146.2l-4.7,0.4c-0.5,0-0.8,1-0.8,2.1v12.1c0,1.1,0.4,2,0.8,1.9l4.7-0.9c0.4-0.1,0.8-1,0.8-2.1v-11.6
				C412.5,147,412.1,146.1,411.7,146.2z"/>
			<path class="st3" d="M411.7,128.1L407,128c-0.5,0-0.8,0.9-0.8,2v12.1c0,1.1,0.4,2,0.8,2l4.7-0.3c0.4,0,0.8-0.9,0.8-2v-11.6
				C412.5,129,412.1,128.1,411.7,128.1z"/>
			<path class="st4" d="M411.7,110.1l-4.7-0.7c-0.5-0.1-0.8,0.8-0.8,1.9v12.1c0,1.1,0.4,2.1,0.8,2.1l4.7,0.2c0.4,0,0.8-0.9,0.8-1.9
				v-11.6C412.5,111.1,412.1,110.1,411.7,110.1z"/>
			<path class="st5" d="M411.7,92l-4.7-1.3c-0.5-0.1-0.8,0.7-0.8,1.8v12.1c0,1.1,0.4,2.1,0.8,2.2l4.7,0.8c0.4,0.1,0.8-0.8,0.8-1.8
				V94.2C412.5,93.1,412.1,92.1,411.7,92z"/>
			<path class="st0" d="M418.5,180.1l-4.3,1.4c-0.4,0.1-0.8,1.1-0.8,2.2v11.6c0,1.1,0.3,1.8,0.8,1.6l4.3-1.8
				c0.4-0.2,0.7-1.2,0.7-2.2v-11.1C419.2,180.7,418.9,180,418.5,180.1z"/>
			<path class="st1" d="M418.5,162.9l-4.3,0.9c-0.4,0.1-0.8,1-0.8,2.1v11.6c0,1.1,0.3,1.9,0.8,1.7l4.3-1.3c0.4-0.1,0.7-1.1,0.7-2.1
				v-11.1C419.2,163.6,418.9,162.8,418.5,162.9z"/>
			<path class="st2" d="M418.5,145.6l-4.3,0.4c-0.4,0-0.8,0.9-0.8,2v11.6c0,1.1,0.3,1.9,0.8,1.8l4.3-0.8c0.4-0.1,0.7-1,0.7-2v-11.1
				C419.2,146.4,418.9,145.6,418.5,145.6z"/>
			<path class="st3" d="M418.5,128.3l-4.3-0.1c-0.4,0-0.8,0.9-0.8,1.9v11.6c0,1.1,0.3,1.9,0.8,1.9l4.3-0.3c0.4,0,0.7-0.9,0.7-1.9
				v-11.1C419.2,129.2,418.9,128.3,418.5,128.3z"/>
			<path class="st0" d="M424.7,178.1l-3.9,1.3c-0.4,0.1-0.7,1.1-0.7,2.1v11c0,1,0.3,1.7,0.7,1.6l3.9-1.7c0.4-0.2,0.6-1.1,0.6-2.1
				v-10.6C425.3,178.7,425,178,424.7,178.1z"/>
			<path class="st1" d="M424.7,161.6l-3.9,0.8c-0.4,0.1-0.7,1-0.7,2v11c0,1,0.3,1.8,0.7,1.7l3.9-1.2c0.4-0.1,0.6-1,0.6-2v-10.6
				C425.3,162.3,425,161.5,424.7,161.6z"/>
			<path class="st2" d="M424.7,145.1l-3.9,0.3c-0.4,0-0.7,0.9-0.7,1.9v11c0,1,0.3,1.8,0.7,1.7l3.9-0.7c0.4-0.1,0.6-0.9,0.6-1.9
				v-10.6C425.3,145.8,425,145,424.7,145.1z"/>
			<path class="st3" d="M424.7,128.5l-3.9-0.1c-0.4,0-0.7,0.8-0.7,1.9v11c0,1,0.3,1.9,0.7,1.8l3.9-0.3c0.4,0,0.6-0.9,0.6-1.9v-10.6
				C425.3,129.4,425,128.6,424.7,128.5z"/>
			<path class="st4" d="M424.7,112l-3.9-0.6c-0.4-0.1-0.7,0.7-0.7,1.8v11c0,1,0.3,1.9,0.7,1.9l3.9,0.2c0.4,0,0.6-0.8,0.6-1.8v-10.6
				C425.3,112.9,425,112.1,424.7,112z"/>
			<path class="st0" d="M430.4,176.3l-3.6,1.2c-0.3,0.1-0.6,1-0.6,2V190c0,1,0.3,1.7,0.6,1.5l3.6-1.5c0.3-0.1,0.6-1,0.6-2v-10.2
				C431,176.9,430.7,176.2,430.4,176.3z"/>
			<path class="st1" d="M430.4,160.4l-3.6,0.7c-0.3,0.1-0.6,0.9-0.6,1.9v10.6c0,1,0.3,1.7,0.6,1.6l3.6-1.1c0.3-0.1,0.6-1,0.6-1.9
				V162C431,161.1,430.7,160.4,430.4,160.4z"/>
			<path class="st2" d="M430.4,144.6l-3.6,0.3c-0.3,0-0.6,0.9-0.6,1.9v10.6c0,1,0.3,1.7,0.6,1.7l3.6-0.7c0.3-0.1,0.6-0.9,0.6-1.8
				v-10.2C431,145.3,430.7,144.6,430.4,144.6z"/>
			<path class="st3" d="M430.4,128.7l-3.6-0.1c-0.3,0-0.6,0.8-0.6,1.8V141c0,1,0.3,1.8,0.6,1.8l3.6-0.3c0.3,0,0.6-0.8,0.6-1.8v-10.2
				C431,129.5,430.7,128.7,430.4,128.7z"/>
			<path class="st4" d="M430.4,112.9l-3.6-0.5c-0.3-0.1-0.6,0.7-0.6,1.7v10.6c0,1,0.3,1.8,0.6,1.8l3.6,0.2c0.3,0,0.6-0.8,0.6-1.7
				v-10.2C431,113.7,430.7,112.9,430.4,112.9z"/>
			<path class="st5" d="M430.4,97l-3.6-1c-0.3-0.1-0.6,0.6-0.6,1.6v10.6c0,1,0.3,1.8,0.6,1.9l3.6,0.6c0.3,0.1,0.6-0.7,0.6-1.6V98.9
				C431,98,430.7,97.1,430.4,97z"/>
			<path class="st0" d="M435.6,174.6l-3.3,1.1c-0.3,0.1-0.6,1-0.6,1.9v10.2c0,0.9,0.3,1.6,0.6,1.5l3.3-1.4c0.3-0.1,0.6-1,0.6-1.9
				v-9.8C436.2,175.2,435.9,174.5,435.6,174.6z"/>
			<path class="st1" d="M435.6,159.4l-3.3,0.7c-0.3,0.1-0.6,0.9-0.6,1.8V172c0,0.9,0.3,1.6,0.6,1.5l3.3-1c0.3-0.1,0.6-0.9,0.6-1.8
				v-9.8C436.2,160,435.9,159.3,435.6,159.4z"/>
			<path class="st2" d="M435.6,144.1l-3.3,0.3c-0.3,0-0.6,0.8-0.6,1.8v10.2c0,0.9,0.3,1.7,0.6,1.6l3.3-0.6c0.3-0.1,0.6-0.9,0.6-1.8
				v-9.8C436.2,144.8,435.9,144.1,435.6,144.1z"/>
			<path class="st3" d="M435.6,128.9l-3.3-0.1c-0.3,0-0.6,0.8-0.6,1.7v10.2c0,0.9,0.3,1.7,0.6,1.7l3.3-0.2c0.3,0,0.6-0.8,0.6-1.7
				v-9.8C436.2,129.7,435.9,128.9,435.6,128.9z"/>
			<path class="st4" d="M435.6,113.7l-3.3-0.5c-0.3,0-0.6,0.7-0.6,1.6v10.2c0,0.9,0.3,1.7,0.6,1.8l3.3,0.2c0.3,0,0.6-0.7,0.6-1.6
				v-9.8C436.2,114.5,435.9,113.7,435.6,113.7z"/>
			<path class="st5" d="M435.6,98.4l-3.3-0.9c-0.3-0.1-0.6,0.6-0.6,1.6v10.2c0,0.9,0.3,1.8,0.6,1.8l3.3,0.6c0.3,0.1,0.6-0.7,0.6-1.6
				v-9.8C436.2,99.3,435.9,98.5,435.6,98.4z"/>
			<path class="st0" d="M440.5,173l-3.1,1c-0.3,0.1-0.5,0.9-0.5,1.8v9.8c0,0.9,0.2,1.6,0.5,1.4l3.1-1.3c0.3-0.1,0.5-0.9,0.5-1.8
				v-9.4C441,173.6,440.7,172.9,440.5,173z"/>
			<path class="st1" d="M440.5,158.4l-3.1,0.6c-0.3,0.1-0.5,0.9-0.5,1.8v9.8c0,0.9,0.2,1.6,0.5,1.5l3.1-0.9c0.3-0.1,0.5-0.9,0.5-1.8
				v-9.4C441,159,440.7,158.3,440.5,158.4z"/>
			<path class="st2" d="M440.5,143.7l-3.1,0.3c-0.3,0-0.5,0.8-0.5,1.7v9.8c0,0.9,0.2,1.6,0.5,1.6l3.1-0.6c0.3-0.1,0.5-0.8,0.5-1.7
				v-9.4C441,144.4,440.7,143.7,440.5,143.7z"/>
			<path class="st3" d="M440.5,129.1l-3.1-0.1c-0.3,0-0.5,0.7-0.5,1.6v9.8c0,0.9,0.2,1.6,0.5,1.6l3.1-0.2c0.3,0,0.5-0.8,0.5-1.6
				v-9.4C441,129.8,440.7,129.1,440.5,129.1z"/>
			<path class="st0" d="M445,171.6l-2.9,0.9c-0.3,0.1-0.5,0.9-0.5,1.8v9.4c0,0.9,0.2,1.5,0.5,1.4l2.9-1.2c0.3-0.1,0.5-0.9,0.5-1.7
				V173C445.4,172.1,445.2,171.5,445,171.6z"/>
			<path class="st1" d="M445,157.5l-2.9,0.6c-0.3,0.1-0.5,0.8-0.5,1.7v9.4c0,0.9,0.2,1.5,0.5,1.4l2.9-0.9c0.3-0.1,0.5-0.8,0.5-1.7
				v-9.1C445.4,158.1,445.2,157.4,445,157.5z"/>
			<path class="st2" d="M445,143.3l-2.9,0.2c-0.3,0-0.5,0.8-0.5,1.6v9.4c0,0.9,0.2,1.6,0.5,1.5l2.9-0.5c0.3,0,0.5-0.8,0.5-1.6v-9.1
				C445.4,144,445.2,143.3,445,143.3z"/>
			<path class="st3" d="M445,129.2l-2.9-0.1c-0.3,0-0.5,0.7-0.5,1.6v9.4c0,0.9,0.2,1.6,0.5,1.6l2.9-0.2c0.3,0,0.5-0.7,0.5-1.6v-9.1
				C445.4,129.9,445.2,129.2,445,129.2z"/>
			<path class="st4" d="M445,115.1l-2.9-0.4c-0.3,0-0.5,0.6-0.5,1.5v9.4c0,0.9,0.2,1.6,0.5,1.6l2.9,0.1c0.3,0,0.5-0.7,0.5-1.5v-9.1
				C445.4,115.8,445.2,115.1,445,115.1z"/>
			<path class="st4" d="M440.5,114.4l-3.1-0.5c-0.3,0-0.5,0.7-0.5,1.6v9.8c0,0.9,0.2,1.7,0.5,1.7l3.1,0.2c0.3,0,0.5-0.7,0.5-1.6
				v-9.4C441,115.2,440.7,114.4,440.5,114.4z"/>
			<path class="st0" d="M449.1,170.2l-2.7,0.9c-0.3,0.1-0.5,0.8-0.5,1.7v9.1c0,0.8,0.2,1.5,0.5,1.3l2.7-1.1c0.2-0.1,0.4-0.9,0.4-1.7
				v-8.8C449.6,170.8,449.4,170.2,449.1,170.2z"/>
			<path class="st1" d="M449.1,156.6l-2.7,0.5c-0.3,0.1-0.5,0.8-0.5,1.6v9.1c0,0.8,0.2,1.5,0.5,1.4l2.7-0.8c0.2-0.1,0.4-0.8,0.4-1.6
				V158C449.6,157.2,449.4,156.6,449.1,156.6z"/>
			<path class="st2" d="M449.1,143l-2.7,0.2c-0.3,0-0.5,0.7-0.5,1.6v9.1c0,0.8,0.2,1.5,0.5,1.5l2.7-0.5c0.2,0,0.4-0.8,0.4-1.6v-8.8
				C449.6,143.6,449.4,143,449.1,143z"/>
			<path class="st3" d="M449.1,129.3l-2.7-0.1c-0.3,0-0.5,0.7-0.5,1.5v9.1c0,0.8,0.2,1.5,0.5,1.5l2.7-0.2c0.2,0,0.4-0.7,0.4-1.5
				v-8.8C449.6,130,449.4,129.3,449.1,129.3z"/>
			<path class="st4" d="M449.1,115.7l-2.7-0.4c-0.3,0-0.5,0.6-0.5,1.5v9.1c0,0.8,0.2,1.5,0.5,1.6l2.7,0.1c0.2,0,0.4-0.7,0.4-1.5
				v-8.8C449.6,116.4,449.4,115.7,449.1,115.7z"/>
			<path class="st5" d="M449.1,102.1l-2.7-0.7c-0.3-0.1-0.5,0.6-0.5,1.4v9.1c0,0.8,0.2,1.6,0.5,1.6l2.7,0.4c0.2,0,0.4-0.6,0.4-1.4
				v-8.8C449.6,102.9,449.4,102.1,449.1,102.1z"/>
		</g>
	</g>
	<defs>
		<filter id="Adobe_OpacityMaskFilter" filterUnits="userSpaceOnUse" x="0" y="4.9" width="450" height="152.9">
			<feColorMatrix  type="matrix" values="1 0 0 0 0  0 1 0 0 0  0 0 1 0 0  0 0 0 1 0"/>
		</filter>
	</defs>
	<mask maskUnits="userSpaceOnUse" x="0" y="4.9" width="450" height="152.9" id="SVGID_1_">
		<g class="st6">
			<linearGradient id="SVGID_2_" gradientUnits="userSpaceOnUse" x1="-5.6282" y1="88.7994" x2="452.7224" y2="88.7994">
				<stop  offset="0" style="stop-color:#000000"/>
				<stop  offset="0.5034" style="stop-color:#FFFFFF"/>
				<stop  offset="1" style="stop-color:#000000"/>
			</linearGradient>
			<rect x="-5.6" y="-2.1" class="st7" width="458.4" height="181.8"/>
		</g>
	</mask>
	<g class="st8">
		<g>
			<polyline class="st9" points="226.2,5.4 280.7,36 314.6,30.6 345.6,63.2 379,60.9 397.9,76.4 409.6,71.2 418.1,85.7 433.9,77.5 
				440.8,91.3 449,81.2 			"/>
			<path class="st10" d="M317.1,32.3c0,2.2-1.1,3.5-2.5,2.9c-1.4-0.6-2.6-2.8-2.6-5c0-2.2,1.1-3.5,2.6-2.9
				C316,27.9,317.1,30.1,317.1,32.3z"/>
			<path class="st10" d="M283.9,37.1c0,2.4-1.4,4-3.2,3.4c-1.8-0.6-3.3-3.1-3.3-5.6s1.5-4,3.3-3.3C282.4,32.2,283.9,34.7,283.9,37.1
				z"/>
			<path class="st10" d="M347.6,63.8c0,1.9-0.9,3.2-1.9,2.8c-1.1-0.3-2-2.2-2-4.1c0-1.9,0.9-3.2,2-2.8
				C346.7,60.1,347.6,61.9,347.6,63.8z"/>
			<path class="st10" d="M380.4,61.7c0,1.6-0.6,2.7-1.4,2.4c-0.8-0.3-1.4-1.8-1.4-3.5c0-1.6,0.6-2.7,1.4-2.4
				C379.8,58.6,380.4,60.1,380.4,61.7z"/>
			<path class="st10" d="M399,76.5c0,1.4-0.5,2.4-1.1,2.2c-0.6-0.2-1.1-1.6-1.1-3c0-1.5,0.5-2.5,1.1-2.2
				C398.5,73.7,399,75.1,399,76.5z"/>
			<path class="st10" d="M410.6,72c0,1.3-0.4,2.3-1,2.1c-0.5-0.2-1-1.5-1-2.8s0.4-2.3,1-2.1C410.2,69.4,410.6,70.7,410.6,72z"/>
			<path class="st10" d="M418.9,85.8c0,1.3-0.4,2.2-0.9,2c-0.5-0.1-0.9-1.3-0.9-2.6c0-1.3,0.4-2.2,0.9-2
				C418.5,83.4,418.9,84.5,418.9,85.8z"/>
			<path class="st10" d="M434.6,78.1c0,1.1-0.3,1.9-0.7,1.8c-0.4-0.2-0.7-1.2-0.7-2.4c0-1.1,0.3-1.9,0.7-1.8
				C434.3,76,434.6,77,434.6,78.1z"/>
			<path class="st10" d="M441.4,91.5c0,1.1-0.3,1.9-0.6,1.7c-0.3-0.1-0.6-1.1-0.6-2.2c0-1.1,0.3-1.9,0.6-1.7
				C441.2,89.5,441.4,90.5,441.4,91.5z"/>
			<path class="st10" d="M449.5,81.3c0,1-0.2,1.7-0.5,1.6c-0.3-0.1-0.5-1.1-0.5-2.1c0-1,0.2-1.7,0.5-1.6
				C449.3,79.4,449.5,80.3,449.5,81.3z"/>
		</g>
		<g>
			<polyline class="st9" points="46,145.8 58.5,120.1 69.6,145 78.2,132.5 89.2,154.5 119.3,117 136,134.1 176.5,40.6 226.2,5.4 			
				"/>
			<polyline class="st9" points="46,145.7 34.9,120.8 17.7,153.3 7.4,131.9 1.1,143.4 			"/>
			<g>
				<path class="st10" d="M59.8,120c0,1.5-0.5,2.8-1.2,2.8c-0.7,0-1.2-1.2-1.2-2.6s0.5-2.7,1.2-2.8C59.2,117.3,59.8,118.5,59.8,120z
					"/>
				<path class="st10" d="M71,145c0,1.6-0.6,2.8-1.4,2.8c-0.8-0.1-1.4-1.4-1.4-3c0-1.6,0.6-2.8,1.4-2.8C70.3,142.1,71,143.4,71,145z
					"/>
				<path class="st10" d="M79.7,133c0,1.7-0.7,3-1.5,3c-0.8,0-1.5-1.4-1.5-3s0.7-3,1.5-3C79,130,79.7,131.3,79.7,133z"/>
				<path class="st10" d="M90.9,154.3c0,1.8-0.8,3.1-1.7,3c-0.9-0.1-1.7-1.6-1.7-3.4c0-1.7,0.7-3.1,1.7-3
					C90.1,151,90.9,152.5,90.9,154.3z"/>
				<path class="st10" d="M121.5,117.3c0,2-1,3.7-2.2,3.8c-1.2,0-2.2-1.5-2.2-3.5s1-3.7,2.2-3.8
					C120.5,113.7,121.5,115.3,121.5,117.3z"/>
				<path class="st10" d="M138.7,133.8c0,2.2-1.1,3.9-2.5,3.9c-1.4,0-2.5-1.8-2.5-3.9c0-2.1,1.1-3.9,2.5-3.9
					C137.5,129.9,138.7,131.6,138.7,133.8z"/>
				<path class="st10" d="M180.3,39.3c0,2.5-1.5,5-3.4,5.6c-1.9,0.5-3.4-1-3.4-3.5c0-2.5,1.5-5,3.4-5.6
					C178.8,35.2,180.3,36.7,180.3,39.3z"/>
				<path class="st10" d="M47.1,145.8c0,1.4-0.5,2.5-1,2.4c-0.6-0.1-1-1.2-1-2.6s0.5-2.5,1-2.4C46.6,143.2,47.1,144.4,47.1,145.8z"
					/>
				<path class="st10" d="M35.8,121c0,1.3-0.4,2.4-0.9,2.4c-0.5,0-0.9-1-0.9-2.3s0.4-2.4,0.9-2.4C35.4,118.7,35.8,119.7,35.8,121z"
					/>
				<path class="st10" d="M18.4,153.3c0,1.2-0.3,2-0.7,2c-0.4-0.1-0.7-1.1-0.7-2.2s0.3-2,0.7-2C18.1,151.1,18.4,152.1,18.4,153.3z"
					/>
				<path class="st10" d="M8,132.1c0,1.1-0.3,1.9-0.6,1.9c-0.3,0-0.6-0.9-0.6-1.9c0-1.1,0.3-1.9,0.6-1.9C7.8,130.1,8,131,8,132.1z"
					/>
				<path class="st10" d="M1.6,143.4c0,1-0.2,1.8-0.5,1.8c-0.3,0-0.5-0.9-0.5-1.9s0.2-1.8,0.5-1.8C1.3,141.6,1.6,142.4,1.6,143.4z"
					/>
			</g>
		</g>
	</g>
	<circle class="st10" cx="226.2" cy="5.5" r="5"/>
</g>
</svg>
