<?xml version="1.0" encoding="utf-8"?>
<!-- Generator: Adobe Illustrator 22.0.1, SVG Export Plug-In . SVG Version: 6.00 Build 0)  -->
<svg version="1.1" id="Layer_1" xmlns="http://www.w3.org/2000/svg" xmlns:xlink="http://www.w3.org/1999/xlink" x="0px" y="0px"
	 viewBox="0 0 200 48.3" style="enable-background:new 0 0 200 48.3;" xml:space="preserve">
<style type="text/css">
	.st0{fill:#3B69F2;}
	.st1{fill:#92DEFF;}
	.st2{fill:#6778F2;}
	.st3{fill:#FAFDFF;}
	.st4{fill:#FFFFFF;}
</style>
<title>imanage-logo</title>
<g id="Layer_2_1_">
	<g id="Layer_1-2">
		<path class="st0" d="M58.2,27.5v-0.2c-0.2-0.4-0.7-2.1-1-2.7c-1.1-2.4-2.6-4.7-4.4-6.7c-0.7-0.7-1.1-1.3-1.8-1.9l-3-2.7
			c-5.7-5-15.9-10-23.4-11.8c-2,0.5-3.8,1.3-5.6,2.3c-1.6,1-3.1,2.1-4.5,3.3c-1.3,1.3-2.6,2.7-3.7,4.2C7.6,15.6,4.3,23.1,5.1,29
			c0.7,4.8,3.4,7.4,6.6,9.3c6.9,4.1,18.7,3.4,26.7,1.1c5.3-1.4,10.2-3.8,14.6-7c1.1-0.8,2.2-1.8,3.2-2.8L58.2,27.5L58.2,27.5z"/>
		<path class="st1" d="M58.2,27.5l-1.9,2.1c-1,1-2.1,1.9-3.2,2.8c-4.4,3.2-9.4,5.6-14.6,7c-8,2.3-19.8,3-26.7-1.1
			c-3.2-1.9-5.9-4.5-6.6-9.3c-0.8-5.9,2.4-13.4,5.7-17.8C12,9.7,13.2,8.3,14.6,7s2.9-2.4,4.5-3.3c1.7-1,3.6-1.8,5.6-2.3V1.3
			c-2.7-0.6-5.5-1-8.2-1.3H13c-1.8,0.1-3.6,0.3-5.4,0.8C5.2,1.3,3.2,2.8,2,4.9c-1.2,2.3-1.9,4.8-2,7.4V16c0.3,4.4,1.2,8.8,2.5,13
			c0.9,2.9,2.2,5.6,3.7,8.2l1,1.4c1.7,2.3,3.9,4.2,6.3,5.7c3.9,2.3,8.3,3.6,12.8,3.9h4.2c3-0.2,5.9-0.7,8.7-1.5
			c4.7-1.2,9.1-3.3,13.1-6.1c1.4-1,2.6-2.2,3.6-3.6c1.6-2.1,2.4-4.7,2.3-7.4C58.4,28.7,58.2,28.2,58.2,27.5L58.2,27.5z"/>
		<path class="st2" d="M24.6,1.3v0.1C32.2,3.2,42.3,8.2,48,13.2l3,2.7c0.7,0.7,1.1,1.2,1.8,1.9c1.8,2,3.3,4.3,4.4,6.7
			c0.3,0.6,0.7,2.4,1,2.7c0.3-0.1,0.6-0.6,0.9-1.1c0.3-0.4,0.5-0.8,0.8-1.3c0.6-0.9,0.9-2,1-3.1c0.1-1.2-0.1-2.4-0.6-3.5
			c-1.4-3.2-4.9-6.6-7.8-8.7C51,8.6,50.2,8,48.7,7.1l-2.6-1.5c-2.3-1.2-4.7-2.3-7.1-3.3c-2.1-0.9-4.4-1.4-6.7-1.6
			c-2-0.1-3.9-0.1-5.9,0.3C25.8,1.1,25.2,1.3,24.6,1.3L24.6,1.3z"/>
		<path class="st3" d="M22.2,31h3.5v-7.1c0-1.3,0-2,0.7-2.9c1.1-1.3,3-1.5,4.3-0.5c0.2,0.1,0.3,0.3,0.5,0.5c0.6,0.8,0.9,1.8,0.7,2.8
			V31h3.4v-7.1c0-2,0.6-4,3-4c0.9,0,1.8,0.4,2.5,1.1c0.6,0.8,0.8,1.8,0.7,2.8V31h3.4c0-2,0.2-8.4-0.3-10.1c-1.1-3.4-4.8-5.3-8.2-4.1
			c-0.6,0.2-1.2,0.5-1.8,0.9c-0.8,0.5-0.6,0.5-1,0.8c-1.3-1-2.3-2.1-4.9-2.1c-1.8,0-3.6,0.8-4.8,2.1c-1.3,1.5-1.7,2.7-1.7,5.3
			L22.2,31L22.2,31z"/>
		<path class="st4" d="M20.7,11.5c1.4,0,2.6,1.2,2.6,2.6s-1.2,2.6-2.6,2.6s-2.6-1.2-2.6-2.6l0,0C18.1,12.6,19.3,11.5,20.7,11.5z"/>
		<path class="st4" d="M81.8,34H86V20.7l4.8,10.1c2,3.8,0.4,3.2,4.4,3.2c0.4,0,0.6-0.9,0.9-1.5s0.5-1.1,0.8-1.7
			c0.1-0.3,0.2-0.5,0.4-0.8s0.3-0.5,0.4-0.8s0.2-0.5,0.4-0.9l3.4-7.4c0-0.1,0.1-0.2,0.2-0.2V34h4.1V10.8c-4.3,0-3.8-0.3-4.4,0.9
			l-6.6,13.7c-0.4,0.7-0.7,1.4-1,2.1c-0.1-0.1,0,0-0.1-0.2l-7-14.5c-1.3-2.5,0.1-2-4.9-2L81.8,34L81.8,34z"/>
		<path class="st4" d="M173.2,30.9c-2.6-0.1-4.7-2.3-4.8-4.9c-0.1-1.2,0.2-2.5,0.9-3.5c0.5-0.8,1.2-1.4,2.1-1.7
			c1.9-0.8,4.1-0.3,5.5,1.3C179.7,25.3,177.9,30.9,173.2,30.9L173.2,30.9z M164.4,25.6c0,0.6,0.1,1.3,0.2,1.9
			c0.1,0.6,0.3,1.1,0.5,1.6c0.4,1,1,1.9,1.7,2.7c0.3,0.4,0.7,0.7,1.1,1c2.7,2.2,6.6,2.2,9.4,0.1c0.5-0.4,0.5-0.6,1-1
			c0,3.1,0.3,5.7-2.3,6.9c-2.4,1.1-6.9,0.5-7.2-2.9h-4c0.1,2,1,3.9,2.5,5.2c1.7,1.3,3.8,2,6,1.9c5.4,0,8.9-2.5,8.9-7.9V17.3h-3.9
			v2.1c-0.6-0.7-1.3-1.3-2.1-1.8c-4-2.1-9.1,0-11,4.3c-0.2,0.5-0.4,1.1-0.5,1.7C164.5,24.3,164.5,24.9,164.4,25.6L164.4,25.6z"/>
		<path class="st4" d="M149,26.2c-0.2-1.6,0.3-3.2,1.4-4.4c1.9-1.9,4.9-1.9,6.9-0.1c0.9,0.9,1.4,2.1,1.5,3.4c0,1.8-0.2,3-1.4,4.3
			c-0.4,0.4-0.9,0.8-1.4,1c-1.8,0.9-4,0.5-5.4-1C149.6,28.6,149.1,27.4,149,26.2z M145,25.6c0,2.3,0.8,4.5,2.4,6.2
			c0.7,0.7,1.5,1.3,2.4,1.8c2.2,1.2,4.7,1.2,6.9,0.1c1.4-0.7,1.5-1.3,2-1.6c0,0.4,0,0.7,0,1.1c0,1.2-0.4,0.9,4,0.9V17.3h-4v2
			c-2.4-2.7-5.4-3.1-8.6-1.8c-0.5,0.2-0.9,0.5-1.4,0.8c-1.3,0.9-2.3,2.2-2.9,3.6C145.3,23,145,24.3,145,25.6L145,25.6z"/>
		<path class="st4" d="M111.5,25.7c0-0.7,0.2-1.4,0.4-2.1c0.8-2.5,3.5-3.8,6-3c0.1,0,0.3,0.1,0.4,0.2c0.6,0.2,1.1,0.6,1.5,1
			c1.9,2.2,2,5.4,0.1,7.7C117.3,32.4,111.5,30.7,111.5,25.7L111.5,25.7z M107.6,25.4c-0.1,2.4,0.8,4.8,2.5,6.6
			c2.9,2.9,7.8,3.6,10.8,0.5c0.1-0.2,0.3-0.4,0.5-0.5v2h3.9V17.3h-3.9v2c-1.2-1.5-3.1-2.4-5-2.5c-1.2,0-2.4,0.2-3.5,0.7
			c-0.5,0.2-0.9,0.5-1.4,0.8c-0.6,0.4-1.2,0.9-1.7,1.5c-0.2,0.2-0.3,0.4-0.5,0.6C108.2,21.8,107.7,23.6,107.6,25.4L107.6,25.4z"/>
		<path class="st4" d="M198.6,19.8l-0.9-1c-0.7-0.6-1.4-1.1-2.2-1.4c-4.3-1.7-9.1,0-10.8,4.4c-0.4,1.2-0.7,2.4-0.7,3.7
			c-0.1,2.3,0.7,4.6,2.2,6.4c1.6,1.8,4,2.8,6.5,2.6c2.8,0.1,5.3-1.4,6.7-3.8c0.2-0.5,0.4-1,0.5-1.5c-0.1-0.3-0.3-0.2-0.8-0.2h-3.2
			c-0.8,3.2-7.9,3.4-7.9-2h11.6c0.3,0,0.3-0.2,0.3-0.6l0.1-0.5v-2l0,0C199.9,22.4,199.4,21,198.6,19.8z M188,23.8v-0.5h0.1
			c0-1.8,2-3.2,4-3.2c2.1-0.1,3.8,1.4,4,3.5c0,0.1,0,0.2,0,0.3L188,23.8L188,23.8z"/>
		<path class="st4" d="M131.5,19.4v-2.1h-3.9V34h3.9v-7.7c0-3.2,0.7-6,4.2-6s3.4,4.2,3.4,6.8v7h3.9V23.7c0-3-0.8-5.5-3.3-6.4
			c-2.3-0.9-5.6-0.7-7.3,1.1L131.5,19.4L131.5,19.4z"/>
		<path class="st4" d="M73.9,33.7c0,0.2,0.1,0.3,0.3,0.3H78V18.3h-4L73.9,33.7L73.9,33.7z"/>
		<path class="st4" d="M76,10.9c1.4,0,2.6,1.1,2.6,2.6S77.4,16,76,16s-2.6-1.1-2.6-2.6l0,0C73.4,12,74.6,10.9,76,10.9z"/>
	</g>
</g>
</svg>
