<?xml version="1.0" encoding="utf-8"?>
<!-- Generator: Adobe Illustrator 22.0.1, SVG Export Plug-In . SVG Version: 6.00 Build 0)  -->
<svg version="1.1" id="Layer_1" xmlns="http://www.w3.org/2000/svg" xmlns:xlink="http://www.w3.org/1999/xlink" x="0px" y="0px"
	 viewBox="0 0 160.2 88.6" style="enable-background:new 0 0 160.2 88.6;" xml:space="preserve">
<style type="text/css">
	.st0{fill:#696E75;}
</style>
<g>
	<rect x="52.9" class="st0" width="15.7" height="21.4"/>
	<rect x="73.6" y="25.7" class="st0" width="17.1" height="15"/>
	<rect x="56.5" y="25.7" class="st0" width="12.1" height="13.6"/>
	<rect x="73.6" y="7.9" class="st0" width="10" height="13.6"/>
	<g>
		<path class="st0" d="M74.3,54.3c1.7-0.3,4-0.6,6.9-0.6c3.5,0,6.1,0.8,7.8,2.3c1.5,1.3,2.4,3.3,2.4,5.8c0,2.5-0.8,4.5-2.2,6
			c-1.9,2-5,3-8.5,3c-1.1,0-2.1,0-2.9-0.3v11.2h-3.6L74.3,54.3L74.3,54.3z M77.9,67.7c0.8,0.2,1.8,0.3,3,0.3c4.4,0,7-2.1,7-5.9
			c0-3.7-2.6-5.5-6.6-5.5c-1.6,0-2.8,0.1-3.4,0.3V67.7z"/>
		<path class="st0" d="M95.9,52.5h3.6v29.3h-3.6V52.5z"/>
		<path class="st0" d="M116.7,81.8l-0.3-2.5h-0.1c-1.1,1.6-3.3,3-6.1,3c-4,0-6.1-2.9-6.1-5.7c0-4.8,4.3-7.5,12-7.4v-0.4
			c0-1.6-0.5-4.6-4.5-4.6c-1.9,0-3.8,0.6-5.2,1.5l-0.8-2.4c1.7-1.1,4.1-1.8,6.6-1.8c6.1,0,7.6,4.2,7.6,8.2V77c0,1.7,0.1,3.4,0.3,4.8
			H116.7z M116.2,71.6c-3.9-0.1-8.4,0.6-8.4,4.5c0,2.4,1.6,3.5,3.4,3.5c2.6,0,4.3-1.7,4.9-3.3c0.1-0.4,0.2-0.8,0.2-1.1L116.2,71.6
			L116.2,71.6z"/>
		<path class="st0" d="M125.6,67.2c0-2.1-0.1-3.7-0.2-5.4h3.2l0.2,3.3h0.1c1-1.9,3.3-3.7,6.6-3.7c2.7,0,7,1.7,7,8.5v11.9H139V70.3
			c0-3.2-1.2-5.9-4.6-5.9c-2.4,0-4.2,1.7-4.9,3.7c-0.2,0.4-0.2,1.1-0.2,1.7v12h-3.6V67.2H125.6z"/>
		<path class="st0" d="M148,78.1c1.1,0.7,3,1.4,4.8,1.4c2.7,0,3.9-1.3,3.9-3s-1.1-2.7-3.7-3.7c-3.6-1.3-5.3-3.3-5.3-5.7
			c0-3.2,2.6-5.9,6.9-5.9c2,0,3.8,0.6,4.9,1.2l-0.9,2.6c-0.8-0.5-2.2-1.2-4.1-1.2c-2.1,0-3.3,1.2-3.3,2.7c0,1.7,1.2,2.4,3.8,3.4
			c3.4,1.3,5.2,3,5.2,6c0,3.5-2.8,6-7.5,6c-2.2,0-4.2-0.6-5.6-1.4L148,78.1z"/>
	</g>
	<g>
		<path class="st0" d="M10.8,81.3c-3.3,0-6.5,0-9.8,0c-0.4,0-1-0.3-1-0.4c0-0.6-0.1-1.4,0.8-1.5c1.7-0.3,2.3-1.5,2.6-2.9
			c0.7-3.8,1.4-7.6,2.1-11.4c0.4-2.3,0.8-4.5,1.2-6.8C7,56,6.5,55.4,4.3,55.1c-0.5-0.1-1,0-1-0.8c0.1-0.7,0.3-1.1,1.1-1.1
			c1.9,0,3.8,0,5.7,0c1.4,0,2.8,0,4.2,0c0.3,0,0.8,0.4,0.8,0.5c-0.1,0.4-0.3,0.9-0.6,1.3c0,0.1-0.3,0.1-0.4,0.1
			c-2,0-2.9,1.2-3.3,3.1c-0.5,2.7-1,5.4-1.5,8.1c-0.7,3.9-1.3,7.9-2,11.9c-0.2,1.4-0.2,1.4,1.2,1.4c1.5,0,3,0.1,4.5,0
			c3.6-0.2,6.3-1.7,7.9-5c0.3-0.6,0.6-1.3,0.9-1.9c0.3-0.8,1-0.6,1.5-0.4c0.1,0,0.3,0.7,0.2,1c-0.5,2.4-1.1,4.8-1.6,7.2
			c-0.2,0.8-0.5,1-1.3,1C17.5,81.3,14.1,81.3,10.8,81.3z"/>
		<path class="st0" d="M53.4,52.1c0.2,0,0.4,0,0.6,0c2.3,0.1,2.9,1.3,1.7,3.3c-0.6,1-0.7,1-1.9,0.4c-0.7-0.4-1.4-0.7-2.2-1
			c-1.2-0.5-2.1-0.2-2.7,0.8c-1.2,1.8-1.4,3.9-1.8,6c0,0.1,0.4,0.5,0.7,0.5c0.7,0.1,1.5,0,2.3,0c0.6,0,1,0.1,0.9,0.8
			c-0.1,0.6-0.1,1.2-1,1.2c-0.7,0-1.3,0-2,0c-1.4,0-1.4,0-1.6,1.4c-0.5,3.3-1,6.5-1.6,9.8c-0.4,2.7-1,5.2-1.8,7.7
			c-1.1,3.4-4.3,5.6-7.6,5.6c-0.3,0-0.5,0-0.7,0c-0.9-0.2-2-0.4-2-1.5c0-0.9,0.8-1.8,1.2-2.6c0-0.1,0.5,0,0.8,0.2
			c0.6,0.4,1.2,0.9,1.8,1.3c1,0.6,1.8,0.4,2.3-0.6c0.7-1.3,1.3-2.7,1.6-4.2c0.9-4.9,1.7-9.8,2.4-14.7c0.3-2.2,0.2-2.2-2-2.2
			c-0.3,0-0.5,0-0.8,0c-0.5,0-1.1,0.1-1-0.7c0.1-0.6,0-1.3,1-1.3c1.1,0,2.4,0.2,3.2-0.3c0.7-0.5,0.7-1.9,1.1-2.9
			c1.3-3.3,3.5-5.9,7.1-6.8c0.2-0.1,0.5-0.1,0.7-0.1C52.6,52.1,53,52.1,53.4,52.1L53.4,52.1z"/>
		<path class="st0" d="M59.8,81.8c-0.9-0.1-1.8-0.2-2.7-0.4c-2.7-0.7-4.3-2.5-4.7-5.2c-1.1-6.2,3.2-13.1,9.2-14.8
			c1.5-0.4,3-0.6,4.6-0.2c1.7,0.4,3.1,1.2,3.6,3.1c0.4,1.8-0.5,3.3-1.9,4.3c-1.2,0.8-2.5,1.5-3.8,2c-2.1,0.8-4.3,1.4-6.5,1.9
			c-0.9,0.2-1.2,0.7-1.2,1.6c0.1,2,0.3,4,2.3,5.1s4.1,0.7,5.8-0.6c1.5-1.2,2.8-2.7,4.1-4.1c0.3-0.3,0.4-1,1-0.5
			c0.4,0.4,1.1,0.6,0.5,1.4c-1.6,2.2-3.3,4.2-5.8,5.4C62.1,81.9,59.8,81.9,59.8,81.8z M65.8,65c0-1.4-0.8-2.4-2.2-2.3
			c-0.9,0-1.8,0.2-2.5,0.7c-2.5,1.6-3.7,4-4.3,6.8c-0.1,0.5,0.1,0.8,0.6,0.6c2.5-0.7,5-1.4,7.1-3.2C65.2,66.9,65.8,66.1,65.8,65z"/>
		<path class="st0" d="M33.7,61.1c1-0.3,0.8,0.5,0.7,1.1c-0.9,4.9-1.9,9.8-2.8,14.7c0,0.2-0.1,0.5-0.1,0.7c0,0.8,0.4,1.2,1.1,0.8
			c0.8-0.5,1.5-1.1,2.3-1.7c0.4-0.3,0.7-0.8,1.2-0.2c0.5,0.6,0.4,0.9-0.2,1.4c-1.1,0.8-2.1,1.7-3.2,2.5c-0.6,0.4-1.2,0.7-1.9,0.9
			c-2.2,0.6-3.6-0.6-3.2-2.9c0.7-3.9,1.4-7.7,2.1-11.5c0.1-0.3,0.1-0.7,0.2-1c0.2-2.1,0.1-2.3-2-2.4c-0.4,0-1.1,0.2-1-0.6
			c0-0.7,0.2-1.2,1-1.2C29.8,61.6,31.7,61.4,33.7,61.1z"/>
		<path class="st0" d="M32.8,56.7c-1.4,0-2.3-0.7-2.3-2s0.9-2.1,2.4-2.1c1.4,0,2.3,0.7,2.3,2C35.3,55.8,34.3,56.7,32.8,56.7z"/>
	</g>
</g>
</svg>
