<?xml version="1.0" encoding="utf-8"?>
<!-- Generator: Adobe Illustrator 22.0.1, SVG Export Plug-In . SVG Version: 6.00 Build 0)  -->
<svg version="1.1" id="Layer_1" xmlns="http://www.w3.org/2000/svg" xmlns:xlink="http://www.w3.org/1999/xlink" x="0px" y="0px"
	 viewBox="0 0 32 32" style="enable-background:new 0 0 32 32;" xml:space="preserve">
<style type="text/css">
	.st0{fill:#696E75;}
</style>
<title>logo</title>
<rect x="5.7" y="12.4" class="st0" width="4.4" height="14.3"/>
<path class="st0" d="M7.9,10.6c1.5,0,2.6-1.2,2.6-2.6S9.4,5.3,7.9,5.3c-1.5,0-2.6,1.2-2.6,2.6c0,0,0,0,0,0
	C5.3,9.4,6.5,10.6,7.9,10.6C7.9,10.6,7.9,10.6,7.9,10.6z"/>
<path class="st0" d="M17.2,19.2c0-2,0.9-3.2,2.7-3.2s2.4,1.1,2.4,3.2v7.5h4.4v-9c0-3.8-2.2-5.7-5.2-5.7c-1.7,0-3.4,0.9-4.3,2.4v-2
	H13v14.3h4.2V19.2z"/>
</svg>
