<svg id="Layer_1" data-name="Layer 1" xmlns="http://www.w3.org/2000/svg" viewBox="0 0 32 32"><defs><style>.cls-1{fill:#fff;}</style></defs><title>logo</title><rect id="Rectangle-path" width="32" height="32"/><path id="Shape" class="cls-1" d="M7.8,11a.8.8,0,0,0-.27-.7l-2-2.42V7.47h6.23L16.57,18,20.81,7.47h5.94v.36L25,9.47a.5.5,0,0,0-.19.48v12.1a.5.5,0,0,0,.19.48l1.68,1.64v.36H18.28v-.36L20,22.49c.18-.17.18-.22.18-.49V12.23L15.36,24.49h-.65L9.09,12.23v8.22a1.09,1.09,0,0,0,.31.94l2.25,2.74v.36H5.25v-.36l2.26-2.74a1.09,1.09,0,0,0,.29-.94Z"/></svg>