<?xml version="1.0" encoding="utf-8"?>
<!-- Generator: Adobe Illustrator 22.0.1, SVG Export Plug-In . SVG Version: 6.00 Build 0)  -->
<svg version="1.1" id="Layer_1" xmlns="http://www.w3.org/2000/svg" xmlns:xlink="http://www.w3.org/1999/xlink" x="0px" y="0px"
	 viewBox="0 0 346.2 89.7" style="enable-background:new 0 0 346.2 89.7;" xml:space="preserve">
<style type="text/css">
	.st0{fill:#696E75;}
</style>
<g>
	<path class="st0" d="M79.8,72.9c-15.5,19.2-43.8,22.4-63,6.9S-5.6,36,9.9,16.8C18.4,6.1,31.2,0,44.8,0s26.7,6.1,35,17.1l-1.3,0.5
		c-15-16-39.8-16.8-55.8-1.9S5.8,55.6,20.8,71.6c7.5,8,17.9,12.6,28.9,12.6c10.7,0,21.1-4.3,28.6-12L79.8,72.9L79.8,72.9z"/>
	<path class="st0" d="M93.2,23.2C79,23.2,71,32.6,71,44.9c0,12,8,21.4,22.2,21.4c11.5,0.5,21.1-8.3,21.9-19.5c0-0.5,0-1.1,0-1.9
		c0.5-11.5-8.5-21.1-20-21.6C94.5,23.2,94,23.2,93.2,23.2z M93.2,58.2c-7.2,0.3-13.1-5.6-13.4-12.8c0-0.3,0-0.3,0-0.5
		c-0.3-7.2,5.3-13.4,12.6-13.6c7.2-0.3,13.4,5.3,13.6,12.6c0,0.3,0,0.8,0,1.1C106,52.1,100.4,58,93.2,58.2L93.2,58.2z M216.3,52.9
		c-2.4,3.7-6.7,5.9-11,5.6c-7.2,0.3-13.1-5.3-13.4-12.6c0-0.3,0-0.5,0-0.8c-0.3-7.5,5.3-13.6,12.8-13.9c4.5-0.3,8.8,1.9,11.5,5.6
		l6.7-4.3c-3.7-6.1-10.4-9.6-17.6-9.4c-13.4,0-22.2,8.8-22.2,21.6s8.8,21.4,22.2,21.4c7.2,0.5,13.9-3.2,17.6-9.4L216.3,52.9z
		 M61.9,53.2c-4.8,6.4-13.6,7.5-19.8,2.9c-3.5-2.7-5.6-6.9-5.6-11.2c-0.3-7.5,5.3-13.9,13.1-14.4c0.3,0,0.5,0,0.8,0
		c4.5,0,9.1,2.1,11.8,5.9l6.9-4.5c-0.5-0.8-5.3-9.6-18.4-9.6c-14.2,0-23.2,9.4-23.2,22.7c0,13.1,9.1,22.4,23.2,22.4
		c7.5,0.5,14.7-3.2,18.4-9.6L61.9,53.2L61.9,53.2z M324.5,24l0.5-11.5l-9.1,4.3l-0.3,6.9H309V31h6.7v23.2c0,8.3,4.8,12,11,12
		c2.1,0,4.3-0.3,6.1-0.8l1.1-6.9c-1.3,0.5-2.7,0.8-4,0.5c-3.5,0-5.6-1.3-5.6-5.3V31h8.5v-7H324.5z M261,24c0,0-0.3,4-0.3,4.5l0,0
		c-3.5-3.7-8.3-5.6-13.4-5.6c-11.5-0.5-21.1,8.3-21.6,19.5c0,0.8,0,1.3,0,2.1c-0.5,11.2,8.3,20.8,19.8,21.4c0.5,0,1.3,0,1.9,0
		c5.1,0,9.9-1.9,13.4-5.6l0,0l0.3,4.5h8.8V24H261z M248.4,58.2c-7.2,0.3-13.4-5.1-13.6-12.3c0-0.3,0-0.5,0-1.1
		c0-7.5,6.1-13.6,13.6-13.6S262,37.3,262,44.8c0.3,7.2-5.6,13.1-12.8,13.4C249.2,58.2,248.9,58.2,248.4,58.2L248.4,58.2z
		 M169.1,65.5v-26c0-5.6-2.9-8.5-7.7-8.5s-7.7,3.2-7.7,8.5v25.9h-8.8V39.5c0-5.6-2.9-8.5-7.5-8.5c-5.1,0-7.7,3.2-7.7,8.5v25.9h-8.8
		V24h8.3v4h0.3c2.4-3.2,6.4-5.1,10.4-4.8c4.5-0.3,8.5,2.1,10.7,5.9c2.9-4,7.5-6.1,12.3-5.9c9.6,0,15,5.9,15,14.4v27.8L169.1,65.5
		L169.1,65.5z M295.2,40.9c6.9,2.4,11.5,6.1,11.5,12.3c0,8.5-7.2,13.1-17.1,13.1c-5.3,0.3-10.4-1.1-15-3.7l3.5-6.7
		c3.7,1.9,7.7,2.9,12,3.2c4.5,0,7.7-1.9,7.7-4.8c0-2.4-1.9-4.3-6.1-5.9l-4.8-1.6c-5.6-1.9-10.2-5.6-10.2-12
		c0-6.9,6.4-11.8,15.2-11.8c4.8-0.3,9.4,1.1,13.4,3.5l-3.2,6.4c-3.2-1.6-6.7-2.7-10.2-2.7c-4.5,0-6.1,1.9-6.1,4s1.6,3.5,5.3,5.1
		L295.2,40.9L295.2,40.9z M341.9,62c2.4,0,4.3,1.9,4.3,4.3s-1.9,4.3-4.3,4.3s-4.3-1.9-4.3-4.3l0,0C337.6,63.9,339.5,62,341.9,62z
		 M341.9,62.8c1.9,0,3.5,1.6,3.5,3.5s-1.6,3.5-3.5,3.5s-3.5-1.6-3.5-3.5l0,0C338.2,64.4,339.8,62.8,341.9,62.8z M343.8,68.7H343
		l-0.8-2.1h-1.3v2.1H340v-4.8h2.1c0.5,0,0.8,0,1.3,0.5c0.3,0.3,0.5,0.5,0.5,1.1c0,0.5-0.3,1.1-0.8,1.3L343.8,68.7L343.8,68.7z
		 M340.8,66h1.1c0.3,0,0.5,0,0.8-0.3s0.3-0.3,0.3-0.5c0-0.3,0-0.3-0.3-0.5c-0.3-0.3-0.5-0.3-0.5-0.3h-1.1L340.8,66L340.8,66z"/>
</g>
</svg>
