<svg id="Layer_1" data-name="Layer 1" xmlns="http://www.w3.org/2000/svg" viewBox="0 0 1396 208"><defs><style>.cls-1,.cls-2{fill:#666;}.cls-2,.cls-4{fill-rule:evenodd;}.cls-3,.cls-4{fill:#fff;}</style></defs><title>logos-customers-grey</title><path class="cls-1" d="M126.07,28.69l6.36-18.16h5.19V28.69Zm12.29,0h11.55l-6.36-18.16h-5.19Zm11.81.74H138.36V40.18h6.3l2.59,7.41h9.27Zm-12.55,0H125.81l-6.36,18.17h9.28l2.59-7.41h6.3Zm32.25-18.91H159.12V28.69h10.75Zm.74,18.91V47.59h3.34a11.12,11.12,0,0,0,8.6-18.17Zm0-.74h11.27A11.15,11.15,0,0,0,178,26.13a8.34,8.34,0,0,0-4.09-15.61h-3.34Zm-.74.74H159.12V47.59h10.75Zm28.91-18.91H188V28.69h10.75Zm.74,18.91V47.59h3.33a11.12,11.12,0,0,0,8.6-18.17Zm0-.74H210.8A11.15,11.15,0,0,0,207,26.13a8.34,8.34,0,0,0-4.09-15.61h-3.33Zm-.74.74H188V47.59h10.75Z"/><path class="cls-1" d="M442.86,30.67c0-.63.33-.75.93-.41l2.27,1.26c0-.35.35-.65,1-.5l1.31.3-.54-1.21c-.31-.68,0-1,.29-1.1l-.7-.48c-.6-.42-.46-.82.12-1.07l1.78-.78a.88.88,0,0,1-.27-1.3c.41-.59,1-1.42,1-1.42h-1.79a.79.79,0,0,1-.8-.89s-1.06.75-1.82,1.26-1.22,0-1.12-.73c.15-1.16.29-2.43.29-2.43a.91.91,0,0,1-1.37-.39l-1-2.07-1,2.07a.91.91,0,0,1-1.37.39s.14,1.28.29,2.43c.1.74-.48,1.16-1.12.73s-1.82-1.26-1.82-1.26a.79.79,0,0,1-.8.89H435s.61.83,1,1.42a.88.88,0,0,1-.27,1.3l1.78.78c.58.25.72.65.12,1.07l-.7.48c.3.1.59.42.28,1.1l-.54,1.21L438,31c.66-.15,1,.15,1,.5l2.27-1.26c.6-.34.93-.22.93.41v1.55a4.88,4.88,0,0,1-.5,2.4,8.77,8.77,0,1,1,1.81,0v1.13a9.7,9.7,0,0,0,9-9.46,10,10,0,0,0-20,0,9.65,9.65,0,0,0,8.06,9.33,2.46,2.46,0,0,1,1.68.76,10.06,10.06,0,0,0,.61-3.87S442.86,31.16,442.86,30.67Z"/><path class="cls-1" d="M324.89,31.33V21.18h4.94c2.64,0,3.82,1.11,3.91,2.53a2.45,2.45,0,0,1-.56,1.79,3.56,3.56,0,0,1-1.49,1.08l3.75,4.75h-2.77l-3.31-4.2h-2.24v4.19Zm2.22-5.54h1c2.75,0,3.31-.45,3.31-1.78s-1.2-1.52-3-1.52h-1.32Z"/><path class="cls-1" d="M302.59,31.33,307,21.18h2.7l4.4,10.15h-2.76l-1.18-2.72h-4.69l-1.2,2.72Zm3.51-4.07h3.52l-1.75-4Z"/><path class="cls-1" d="M317.3,31.33V21.18h2.38V31.33Z"/><path class="cls-1" d="M352.47,31a11.48,11.48,0,0,1-4.21.67,7.09,7.09,0,0,1-4.7-1.44,4.9,4.9,0,0,1-1.67-4,4.87,4.87,0,0,1,1.71-4,7.45,7.45,0,0,1,4.85-1.38,20.38,20.38,0,0,1,4,.41v1.67a14.82,14.82,0,0,0-3.91-.67,4.12,4.12,0,0,0-3,1,3.89,3.89,0,0,0-1.06,2.92,3.72,3.72,0,0,0,1.12,2.9,4.48,4.48,0,0,0,3.15,1,9.62,9.62,0,0,0,3.73-.76Z"/><path class="cls-1" d="M355.38,31.33l4.45-10.15h2.7l4.4,10.15h-2.76L363,28.61H358.3l-1.2,2.72Zm3.51-4.07h3.52l-1.75-4Z"/><path class="cls-1" d="M384.74,31.33l4.45-10.15h2.7l4.4,10.15h-2.76l-1.18-2.72h-4.69l-1.2,2.72Zm3.51-4.07h3.52l-1.75-4Z"/><path class="cls-1" d="M412.59,31.33,417,21.18h2.7l4.4,10.15h-2.76l-1.18-2.72h-4.69l-1.2,2.72Zm3.51-4.07h3.52l-1.75-4Z"/><path class="cls-1" d="M370.31,31.33V21.18h2.74l6.36,7.24V21.18h1.93V31.33h-2.49l-6.61-7.58v7.58Z"/><path class="cls-1" d="M399.62,31.33V21.18h4.92a5.92,5.92,0,0,1,4.05,1.27,4.58,4.58,0,0,1,1.4,3.61,5.07,5.07,0,0,1-1.5,3.9,5.9,5.9,0,0,1-4.18,1.37ZM402,29.88h1.76a3.77,3.77,0,0,0,2.78-.91,3.82,3.82,0,0,0,.93-2.8,3.88,3.88,0,0,0-.73-2.42,2.64,2.64,0,0,0-1.22-.92,6.53,6.53,0,0,0-2.08-.26H402Z"/><path class="cls-2" d="M606.46,14.61c-1.23.33-2.44.66-3.65,1L595.34,1h-6.85L573.3,30.2v0h6.54a145.12,145.12,0,0,1,18.94-10.54l5.15,10.54h6.35l-6.53-12.78q1.7-.75,3.41-1.46l-.7-1.38ZM583.1,23.28l8.81-17.7,5.66,11.61a93.32,93.32,0,0,0-14.47,6.09Z"/><path class="cls-2" d="M571.25,48.12h4L579,53h3.19l-4-5a4.09,4.09,0,0,0,2.5-1,3.5,3.5,0,0,0,1.11-2.65,3.16,3.16,0,0,0-1.5-3,7.67,7.67,0,0,0-3.81-.71h-7.83V53h2.59V48.12Zm0-2.06V42.64h4.86c2,0,3.1.27,3.1,1.71s-1,1.72-3.1,1.72Z"/><polygon class="cls-2" points="610.48 50.39 605.62 40.58 602.84 40.58 609.14 52.99 611.82 52.99 618.21 40.58 615.43 40.58 610.48 50.39 610.48 50.39"/><polygon class="cls-2" points="590.15 45.53 590.15 42.71 599.01 42.71 599.01 40.59 587.69 40.58 587.69 52.99 599.01 52.99 599.01 50.87 590.15 50.86 590.15 47.66 596.89 47.66 596.89 45.53 590.15 45.53 590.15 45.53"/><path class="cls-2" d="M561.63,47.56l1.44-.61-.32-.63-1.54.42-3.15-6.16h-2.93L548.69,53h2.82s5-3.07,8-4.46L561.65,53h2.74l-2.76-5.42ZM552.94,50l3.66-7.35,2.35,4.82a39.48,39.48,0,0,0-6,2.53Z"/><path class="cls-2" d="M632.3,47.56l1.44-.61-.32-.63-1.54.42-3.15-6.16H625.8L619.36,53h2.82c.05,0,5.05-3.08,8-4.46L632.32,53h2.74l-2.77-5.42ZM623.61,50l3.66-7.35,2.35,4.82a39.49,39.49,0,0,0-6,2.52Z"/><g id="g612"><path id="path614" class="cls-1" d="M766.13,38h-3.93v9.81H765V44.63h1.23c2.34,0,3.52-1.14,3.52-3.38S768.46,38,766.13,38M765,40.28h.25c1,0,1.61,0,1.61,1s-.61,1-1.61,1H765Z"/></g><g id="g616"><path id="path618" class="cls-1" d="M774.62,44.61c0,.9-.27,1.23-1,1.23s-1-.34-1-1.23V41H770v4c0,2,1.21,2.94,3.6,2.94s3.6-1,3.6-2.94V41h-2.61Z"/></g><g id="g620"><path id="path622" class="cls-1" d="M782.14,40.78a2.93,2.93,0,0,0-1.84.62V37h-2.61V47.77h2.61v-.46a2.58,2.58,0,0,0,1.81.67,3.61,3.61,0,0,0,0-7.2m.7,3.61a1.31,1.31,0,0,1-2.62,0,1.31,1.31,0,0,1,2.62,0"/></g><path id="path624" class="cls-1" d="M785.83,47.77h2.61V37h-2.61Z"/><path id="path626" class="cls-1" d="M788.89,47.77h2.61V41h-2.61Z"/><g id="g630"><g id="g636"><path id="path638" class="cls-1" d="M790.2,37.24a1.45,1.45,0,1,0,1.45,1.45,1.45,1.45,0,0,0-1.45-1.45"/></g><g id="g640"><path id="path642" class="cls-1" d="M795.56,40.78a3.6,3.6,0,1,0-.1,7.2,3.71,3.71,0,0,0,1.68-.38l.09,0V45.15l-.27.25a1.59,1.59,0,0,1-1,.4,1.37,1.37,0,0,1-1.45-1.42A1.39,1.39,0,0,1,795.89,43a1.85,1.85,0,0,1,1.08.42l.26.19V41.23l-.08,0a3.28,3.28,0,0,0-1.59-.4"/></g></g><g id="g644"><path id="path646" class="cls-1" d="M819.72,38h-2.79v9.81h5.75V45.36h-3Z"/></g><g id="g650"><g id="g656"><path id="path658" class="cls-1" d="M824.37,37.24a1.45,1.45,0,1,0,1.45,1.45,1.45,1.45,0,0,0-1.45-1.45"/></g></g><path id="path660" class="cls-1" d="M823.07,47.77h2.61V41h-2.61Z"/><g id="g664"><g id="g670"><path id="path672" class="cls-1" d="M830.58,40.78a2.93,2.93,0,0,0-1.84.62V37h-2.61V47.77h2.61v-.46a2.58,2.58,0,0,0,1.81.67,3.61,3.61,0,0,0,0-7.2m.7,3.61a1.31,1.31,0,0,1-2.62,0,1.31,1.31,0,0,1,2.62,0"/></g><g id="g674"><path id="path676" class="cls-1" d="M844.48,41.4a2.91,2.91,0,0,0-1.84-.62,3.37,3.37,0,0,0-3.18,2.33V41h-.6a2.45,2.45,0,0,0-1.95.82V41h-2.62v6.78h2.62V45c0-1.25.42-1.79,1.42-1.79a1.71,1.71,0,0,1,.89.19l.13.07a4,4,0,0,0-.1.89A3.48,3.48,0,0,0,842.67,48a2.57,2.57,0,0,0,1.81-.67v.45h2.61V41h-2.61Zm.08,3a1.31,1.31,0,0,1-2.62,0,1.31,1.31,0,0,1,2.62,0"/></g><g id="g678"><path id="path680" class="cls-1" d="M858.82,41l-1.59,3.11L855.62,41h-3.46a2.45,2.45,0,0,0-2,.82V41H847.6v6.78h2.61V45c0-1.25.43-1.79,1.42-1.79a1.7,1.7,0,0,1,.89.19l.24.14V41.42l3,5.31L853.52,51h2.93l5.34-10Z"/></g><g id="g682"><path id="path684" class="cls-1" d="M782.45,23.26l7.43-5.76V33Zm-17.53.06a9,9,0,0,0-2.85-1.88,9,9,0,0,0,2.85-1.88,5.84,5.84,0,0,0,1.26-2v7.67a5.86,5.86,0,0,0-1.26-2M757,17.6c-.68.9-1.84.9-2.81.9h-1.58V14.22h1.61a6.12,6.12,0,0,1,2,.23,1.92,1.92,0,0,1,1.16,1.88A1.93,1.93,0,0,1,757,17.6m-.79,10.81a6.13,6.13,0,0,1-2,.22h-1.61V24.35h1.58c1,0,2.14,0,2.81.9a2.13,2.13,0,0,1-.75,3.15m86.39-9.74a6.65,6.65,0,0,0-5.37-2.55,8.51,8.51,0,0,0-6.49,3.38l.11-3H813.62L811,26.1l-2.81-9.64h-9.1V7.68h-9.19v8.88H780l-4.8,3.79V7.7h-9.07v5.08a6.46,6.46,0,0,0-1-1.8,7.41,7.41,0,0,0-2-1.76c-2.29-1.43-4.61-1.46-7.2-1.5H743.52V35.18H756c2.59,0,4.92-.08,7.2-1.5a7.39,7.39,0,0,0,2-1.76,6.45,6.45,0,0,0,1-1.8v5h9V29.91l1-.86,5,6h17.9V18.37l7.15,15.57-6.64,13.84h9.76l12.9-29.17v16.5h9.23V25.54a2.27,2.27,0,0,1,.68-1.91,1.61,1.61,0,0,1,.94-.26,1.54,1.54,0,0,1,1.61,1.35,4.27,4.27,0,0,1,0,.83v9.57h9.19V24.64c0-2.06,0-4.2-1.31-6"/></g></g><path class="cls-2" d="M986.71,52.66h54.34c5.33,0,10.18-4.1,10.18-9.11,0-24.12-21.6-36.18-37.3-36.18s-37.3,12.06-37.3,36.18c0,5,4.1,9.11,10.07,9.11Z"/><path class="cls-3" d="M1007.51,41.1c-1.69,3.91-4.53,6.55-8.71,6.55-7.21,0-11.86-6.55-11.86-13.86a12.34,12.34,0,0,1,2.52-7.69,7.54,7.54,0,0,1,6.46-2.81,9.06,9.06,0,0,1,8.63,5.5l.31-.13-1.81-7.94a1.58,1.58,0,0,1-1.54.88l-1.26-.13-4.33-.38c-3.55,0-7,.76-9.81,3.24a13,13,0,0,0-3.9,9.75,15.71,15.71,0,0,0,5.08,12c3.23,2.86,7.37,3.79,11.51,3.79l4.77-.25a2.28,2.28,0,0,1,1.3.13l3-8.45Z"/><path class="cls-3" d="M1041.27,22v-.38h-9.73V22c2.6.38,2.64,2.81,2.64,5.13V36.4a3.59,3.59,0,0,0-1.35-.25,4,4,0,0,0-1.1.15c-1.83-2.4-4.95-4-7.94-4.91,2.56-1.3,6.56-2.94,6.56-6.18,0-3.49-4.49-3.57-7.09-3.57h-16.17V22c2.82.38,2.82,2.81,2.86,5.13V44.08c0,2.27,0,4.45-2.86,4.83v.38h11.06c3.35,0,7,0,10.13-1.13l.34-.14a4.75,4.75,0,0,0,3.39,1.32,6.56,6.56,0,0,0,.83-.05h8.43v-.38a2.88,2.88,0,0,1-1.5-.63l0,0-.84-1.27a10.82,10.82,0,0,1-.31-3.18V26.89C1038.63,24.58,1038.67,22.44,1041.27,22Zm-26.48,5a5.62,5.62,0,0,1,.44-2.65c.66-.8,3.17-.84,4.32-.84,1.85,0,5.55,0,5.55,2.44,0,3.57-7.4,5.84-10.31,6.64ZM1025.23,46c-2,1.18-4.71,1.39-7,1.39-3.17,0-3.44-.59-3.44-3.32V34.63l6.65-2.39c3.44,1.39,6.87,4.33,6.87,8.15A6.68,6.68,0,0,1,1025.23,46Z"/><path class="cls-2" d="M1035.75,48.53h3.59l-2-3.07a4.86,4.86,0,0,0,.78-2.95,8.5,8.5,0,0,0,0-.94h-1.17a5.59,5.59,0,0,1,.11,1,3.46,3.46,0,0,1-.41,1.81L1034.4,41a2.47,2.47,0,0,0,1-2,2.39,2.39,0,0,0-2.61-2.36,2.8,2.8,0,0,0-3,2.77l1,1.9c-2,1.12-2.95,2.18-2.95,3.76a3.77,3.77,0,0,0,4,3.68,4.77,4.77,0,0,0,3.2-1.1l.55.83Zm-1.3-1.88a2.28,2.28,0,0,1-1.07.28,2.4,2.4,0,0,1-2.29-2.4A1.65,1.65,0,0,1,1032,43l2.45,3.68ZM1032.4,38a1.07,1.07,0,0,1,1.79.76,1.14,1.14,0,0,1-.67,1L1032.4,38Z"/><path class="cls-2" d="M1194,38.51a16.81,16.81,0,1,1-13.14-27.35A16.61,16.61,0,0,1,1194,17.53l-.5.33a14.77,14.77,0,1,0-10.74,24.87,14.91,14.91,0,0,0,10.74-4.54l.5.33Z"/><path class="cls-2" d="M1199.06,19.92c-5.29,0-8.26,3.55-8.26,8.1s3,8,8.26,8a7.77,7.77,0,0,0,8.18-8,7.79,7.79,0,0,0-8.18-8.1Zm0,13.14a4.89,4.89,0,0,1-5-5,4.88,4.88,0,1,1,9.75,0,4.91,4.91,0,0,1-4.79,5ZM1245.17,31a4.58,4.58,0,0,1-4.13,2.07,4.84,4.84,0,0,1-5-5,5,5,0,0,1,9.09-3.06l2.48-1.57a7.29,7.29,0,0,0-6.61-3.47c-5,0-8.35,3.31-8.35,8.1s3.31,8,8.35,8a7.26,7.26,0,0,0,6.61-3.47L1245.17,31Zm-57.84.17a5.32,5.32,0,0,1-9.58-3.14,5.12,5.12,0,0,1,5.21-5.37,5.28,5.28,0,0,1,4.38,2.15l2.56-1.65c-.17-.33-2-3.64-6.94-3.64-5.29,0-8.68,3.47-8.68,8.51,0,4.87,3.39,8.43,8.68,8.43a7.62,7.62,0,0,0,6.94-3.64l-2.56-1.65Zm98.33-10.91.17-4.3-3.39,1.65-.08,2.64h-2.48v2.56h2.48v8.68c0,3.14,1.82,4.54,4.13,4.54a6.5,6.5,0,0,0,2.31-.33l.41-2.64a3.63,3.63,0,0,1-1.49.25c-1.32,0-2.07-.5-2.07-2V22.81h3.22V20.25Zm-23.8,0s-.08,1.49-.08,1.74h0a6.76,6.76,0,0,0-5-2.07,7.72,7.72,0,0,0-8.1,8.1,7.7,7.7,0,0,0,8.1,8,6.68,6.68,0,0,0,5-2.07h0l.08,1.74h3.31V20.25Zm-4.71,12.81a4.88,4.88,0,0,1-5.12-5,5.12,5.12,0,1,1,10.25,0,4.88,4.88,0,0,1-5.12,5Zm-29.75,2.64V26c0-2.07-1.07-3.22-2.89-3.22s-2.89,1.24-2.89,3.22V35.7h-3.31V26c0-2.07-1.07-3.22-2.81-3.22-1.9,0-2.89,1.24-2.89,3.22V35.7h-3.31V20.25h3.14v1.49h.08a4.83,4.83,0,0,1,3.88-1.82,4.31,4.31,0,0,1,4,2.23,5.53,5.53,0,0,1,4.63-2.23c3.55,0,5.62,2.23,5.62,5.37V35.7Zm47.26-9.17c2.64.91,4.3,2.31,4.3,4.63,0,3.22-2.73,4.88-6.36,4.88a10.36,10.36,0,0,1-5.62-1.4l1.32-2.48a9.54,9.54,0,0,0,4.46,1.16c1.65,0,2.89-.74,2.89-1.82,0-.91-.66-1.57-2.31-2.15l-1.82-.58c-2.07-.66-3.8-2.07-3.8-4.46,0-2.64,2.4-4.38,5.7-4.38a8.85,8.85,0,0,1,5,1.32l-1.24,2.4a7.9,7.9,0,0,0-3.8-1c-1.65,0-2.31.74-2.31,1.49s.58,1.32,2,1.9l1.65.5Zm17.44,7.94a1.57,1.57,0,1,1-1.56,1.57,1.57,1.57,0,0,1,1.56-1.57Zm0,.24a1.33,1.33,0,1,1-1.33,1.33,1.33,1.33,0,0,1,1.33-1.33Zm.75,2.24h-.35l-.28-.75h-.46v.75h-.33V35.12h.79a.68.68,0,0,1,.48.15.51.51,0,0,1,.15.38.48.48,0,0,1-.33.48l.32.8Zm-1.09-1h.41a.4.4,0,0,0,.26-.07.26.26,0,0,0,.09-.21.24.24,0,0,0-.09-.19.35.35,0,0,0-.24-.07h-.43v.55Z"/><path class="cls-2" d="M46.38,99.64v12.6H48V99.64H46.38m-.57-3.81a1.26,1.26,0,0,0,.41.92,1.41,1.41,0,0,0,2,0,1.29,1.29,0,0,0,.39-.92,1.32,1.32,0,0,0-.39-1,1.37,1.37,0,0,0-1-.39,1.31,1.31,0,0,0-1,.39A1.25,1.25,0,0,0,45.8,95.83Zm5.28-1v17.44h1.61V94.79ZM39.1,100a6.36,6.36,0,0,0-7.41,1.29,6.35,6.35,0,0,0-1.91,4.66,6.51,6.51,0,0,0,1.88,4.71A6.43,6.43,0,0,0,39,111.94a6.74,6.74,0,0,0,2.3-1.86v2.16h1.61V99.64H41.3V102A6.19,6.19,0,0,0,39.1,100Zm-5.16,1.56a4.87,4.87,0,0,1,2.48-.64A4.66,4.66,0,0,1,40,102.37a5.46,5.46,0,0,1,.78,6.24,4.69,4.69,0,0,1-1.81,1.79,5,5,0,0,1-2.52.69,4.67,4.67,0,0,1-2.46-.69,5.16,5.16,0,0,1-1.84-1.88,5.43,5.43,0,0,1-.67-2.57,5.25,5.25,0,0,1,.67-2.52A4.83,4.83,0,0,1,33.94,101.54ZM15.87,96.9a21.77,21.77,0,0,1,5.26.46,6.05,6.05,0,0,1,3.33,2.41,7.4,7.4,0,0,1,1.17,4.2,6.81,6.81,0,0,1-1.1,4,5.52,5.52,0,0,1-3,2.25,18.19,18.19,0,0,1-4.89.44h-2V96.9ZM13,95.21v17h5.42a10.89,10.89,0,0,0,5-.92,7.33,7.33,0,0,0,2.87-2.87,9.91,9.91,0,0,0-.3-9.62,7.46,7.46,0,0,0-3.88-3,17.71,17.71,0,0,0-5.55-.62Zm130.26,5.14a3.71,3.71,0,0,0-2.69-1,5.48,5.48,0,0,0-3.7,1.58l.16-1.26H134l-1.7,12.6h3.05l.6-4.45a14.71,14.71,0,0,1,.78-3.58,3.78,3.78,0,0,1,1.19-1.51,3,3,0,0,1,1.56-.53,1.76,1.76,0,0,1,1.24.41,1.51,1.51,0,0,1,.44,1.17l-.14,1.61-.92,6.89h3.08l.94-7.07.18-2.2A3.55,3.55,0,0,0,143.26,100.35Zm-16.69,3a2.92,2.92,0,0,1,.85,2.18,4.59,4.59,0,0,1-1,2.94,3.45,3.45,0,0,1-2.89,1.26,2.82,2.82,0,0,1-2.13-.83,3.12,3.12,0,0,1-.78-2.2,4.8,4.8,0,0,1,1-2.87,3.36,3.36,0,0,1,2.82-1.33A2.8,2.8,0,0,1,126.57,103.33ZM113,99.64l-1.72,12.6h3.1l1.7-12.6Zm6.08,2.66a7,7,0,0,0-1.51,4.48,5.34,5.34,0,0,0,5.74,5.74,6.92,6.92,0,0,0,5.07-2,6.92,6.92,0,0,0,1.31-8,5.35,5.35,0,0,0-2.09-2.13,6,6,0,0,0-3-.76l-7.48,0-.41,2.66Zm-2.62-7.23a1.94,1.94,0,0,0-1.38-.55,1.8,1.8,0,0,0-1.33.55,1.82,1.82,0,0,0-.57,1.35,2,2,0,0,0,1.91,1.9,1.87,1.87,0,0,0,1.38-.57,1.8,1.8,0,0,0,.55-1.33A1.89,1.89,0,0,0,116.5,95.07Zm-7.12,4.57L110,95h-3.08l-.64,4.68h-1.51l-.37,2.69h1.54l-1.35,9.92h3.08l1.33-9.92h2l.37-2.69Zm-10.44,3.7a3,3,0,0,1,.83,2.18,4.75,4.75,0,0,1-1,2.94,3.37,3.37,0,0,1-2.87,1.26,2.82,2.82,0,0,1-2.13-.83,3.06,3.06,0,0,1-.8-2.2,4.8,4.8,0,0,1,1-2.87,3.3,3.3,0,0,1,2.82-1.33A2.91,2.91,0,0,1,98.94,103.33ZM97,99.61a7.06,7.06,0,0,0-5,2,6.85,6.85,0,0,0-2.11,5.12,5.41,5.41,0,0,0,5.76,5.74,7,7,0,0,0,5.07-2,6.68,6.68,0,0,0,2-4.89,6.47,6.47,0,0,0-.76-3.12l-.11-.18h1.51l.32-2.69H97.42ZM76.45,104l-.11,1.42-.94,6.86h3.1l.64-4.77a11.38,11.38,0,0,1,.69-3.21,3.69,3.69,0,0,1,1.24-1.51,2.75,2.75,0,0,1,1.61-.57,1.68,1.68,0,0,1,1.24.46,1.94,1.94,0,0,1,.46,1.4l-.18,1.74-.87,6.47h3.08l1-7.53.11-1.58a3.8,3.8,0,0,0-1-2.75,3.49,3.49,0,0,0-2.64-1.06,5.46,5.46,0,0,0-2.41.57,5.79,5.79,0,0,0-2,1.7,3.29,3.29,0,0,0-.78-1.24,2.93,2.93,0,0,0-1.17-.73,4.3,4.3,0,0,0-1.58-.3,5.19,5.19,0,0,0-3.74,1.7l.16-1.38H69.22l-1.7,12.6h3.05l.71-5.44a9.32,9.32,0,0,1,.69-2.73,3.6,3.6,0,0,1,1.22-1.4,3,3,0,0,1,1.54-.5,1.77,1.77,0,0,1,1.26.48A1.85,1.85,0,0,1,76.45,104ZM65,99.64l-4.25,9.69-4.32-9.69h-1.7l5.16,11.61-2.43,5.6h1.7l7.53-17.21Z"/><path class="cls-1" d="M250.36,101.83a2.75,2.75,0,0,1,2.68,2.91h-5.55A2.81,2.81,0,0,1,250.36,101.83Zm5.91,8.7a15,15,0,0,1-1.81.5,11.12,11.12,0,0,1-2.21.23c-2.43,0-4.34-.81-4.65-2.74H258a12.05,12.05,0,0,0,.21-2.21c0-4.38-2.18-8.41-7.75-8.41-5.41,0-8.28,4.24-8.28,9,0,5.48,3.83,8.61,9.17,8.61a15.59,15.59,0,0,0,3.18-.29,12.87,12.87,0,0,0,2.59-.81Z"/><path class="cls-1" d="M331,101.83a2.75,2.75,0,0,1,2.68,2.91h-5.55A2.81,2.81,0,0,1,331,101.83Zm5.91,8.7a14.94,14.94,0,0,1-1.81.5,11.12,11.12,0,0,1-2.21.23c-2.43,0-4.34-.81-4.65-2.74H338.6a12.06,12.06,0,0,0,.21-2.21c0-4.38-2.18-8.41-7.75-8.41-5.41,0-8.28,4.24-8.28,9,0,5.48,3.83,8.61,9.17,8.61a15.6,15.6,0,0,0,3.18-.29,12.87,12.87,0,0,0,2.59-.81Z"/><path class="cls-1" d="M260.74,92.31v22.82h5.63V92.31Z"/><path class="cls-1" d="M277.68,111.31c-1.83,0-3-1.81-3-4.6,0-2.23.81-4.61,3.05-4.61s2.93,2.46,2.93,4.58C280.64,109.49,279.47,111.31,277.68,111.31Zm-.08,4.18c4.39,0,8.84-2.77,8.84-8.95,0-3.68-2.18-8.62-8.57-8.62-6.57,0-9,4.79-9,8.9A8.28,8.28,0,0,0,277.61,115.49Z"/><path class="cls-1" d="M288.9,98.29v16.84h5.63V98.29Z"/><path class="cls-1" d="M288.9,92.32v4.37h5.63V92.32Z"/><path class="cls-1" d="M299,93.71v4.58h-2.16v4.17H299v6.9c0,3.79,1.73,6.12,5.69,6.12a16.5,16.5,0,0,0,2.35-.19,12.6,12.6,0,0,0,1.63-.33s0-4.4,0-4.41a12.16,12.16,0,0,1-1.92.28,2.18,2.18,0,0,1-1.61-.55,2.53,2.53,0,0,1-.59-1.85v-6h3.64V98.29H304.5v-5.2Z"/><path class="cls-1" d="M312,93.71v4.58h-2.16v4.17H312v6.9c0,3.79,1.73,6.12,5.69,6.12a16.47,16.47,0,0,0,2.35-.19,12.59,12.59,0,0,0,1.63-.33s0-4.4,0-4.41a12.14,12.14,0,0,1-1.92.28,2.18,2.18,0,0,1-1.61-.55,2.53,2.53,0,0,1-.59-1.85v-6h3.64V98.29h-3.64v-5.2Z"/><circle class="cls-1" cx="344.36" cy="112.38" r="3.11"/><path class="cls-1" d="M220.38,115.15h6.37c.43,0,1,0,1.36,0,8.72-.45,12.35-5.61,12.35-11.57,0-7.44-5-11.62-13.69-11.62-2.22,0-4.2.08-6.4.26Zm8.15-4.55c-.23,0-.59,0-.81,0h-1.79v-14c.62-.06,1.4-.09,1.93-.09,3.27,0,6.76,2.12,6.76,7C234.62,108.67,231.34,110.38,228.53,110.61Z"/><g id="_4IUZWY" data-name="4IUZWY"><path class="cls-1" d="M454.26,74.62c-.39,2.25-.8,4.5-1.17,6.75-.06.38-.2.47-.57.46-2.56,0-5.12,0-7.68,0-.31,0-.46,0-.52.41q-.46,2.86-1,5.71c-.07.39,0,.48.39.48,2.43,0,4.86,0,7.3,0,.38,0,.52,0,.43.49-.4,2.08-.75,4.18-1.11,6.27-.05.31-.15.45-.51.44-2.46,0-4.93,0-7.39,0-.37,0-.49.11-.54.46q-.58,3.45-1.2,6.89c-.06.34,0,.4.33.4h8.26c.4,0,.54,0,.45.5-.4,2.1-.75,4.21-1.11,6.32,0,.28-.13.4-.45.39q-7.56,0-15.12,0c-.34,0-.37-.08-.31-.4.83-4.65,1.63-9.31,2.45-14s1.7-9.59,2.55-14.38c.4-2.26.79-4.53,1.19-6.79,0-.13.06-.25.09-.37Z"/><path class="cls-1" d="M507.45,104.16a3.15,3.15,0,0,0,1.24-.42c1.21-.47,2.41-1,3.62-1.44.13-.05.27-.09.33-.25,1.35-.53,2.7-1,4-1.58a7,7,0,0,0,1.73-.78c.45.16.79-.15,1.16-.29,2.31-.91,4.6-1.85,6.91-2.76a8.68,8.68,0,0,1,1.38-.35,15.86,15.86,0,0,1-2.68,1.35l-5.65,2.46c-.1,0-.21.1-.19.24s-.27.08-.4.14l-5.2,2.38a.79.79,0,0,0-.45.12l-6.09,2.93a2.75,2.75,0,0,0-.48.36,3.68,3.68,0,0,0-.4.14l-5,2.45-1,.48a28,28,0,0,0-2.62,1.27c-1.51.75-3,1.54-4.51,2.31-1.9,1-3.8,2-5.68,3q-4.91,2.63-9.81,5.3-4.14,2.26-8.21,4.63L460.53,131a1.34,1.34,0,0,1-.94.09,11.36,11.36,0,0,0-3.29.14c-3.21.4-6.41,1-9.59,1.52-2.89.52-5.75,1.15-8.63,1.73l-8.2,1.69-1.35.3c-.19-.06-.41.11-.58-.1.7-.31,1.4-.64,2.11-.93l9.24-3.78,7.84-3.19,9.71-3.92,9.22-3.73,12.2-4.89,11.84-4.74c.13-.05.28-.08.34-.24l.4-.15,3.52-1.37c.05,0,.11,0,.11-.07h0a10.92,10.92,0,0,0,2-.73c1.1-.41,2.18-.86,3.26-1.31.18-.07.42-.1.44-.37a4.32,4.32,0,0,0,1.53-.49C503.62,105.72,505.53,104.93,507.45,104.16Z"/><path class="cls-1" d="M494.38,109.43l-3.52,1.37-.4.15a7.41,7.41,0,0,1-2.46-.27,4.25,4.25,0,0,1-3-3.56,11.94,11.94,0,0,1,.23-3.86c.05-.38,0-.88.24-1.09s.76-.07,1.16-.07c.9,0,1.79,0,2.69,0,.32,0,.4.05.35.4a9.89,9.89,0,0,0-.26,2.71,1.31,1.31,0,0,0,.87,1.21,1.47,1.47,0,0,0,1.63-.38,3.53,3.53,0,0,0,0-4.78c-.74-.73-1.56-1.37-2.35-2.05a7,7,0,0,1-2.39-6.64,11,11,0,0,1,1.53-4.6,6.35,6.35,0,0,1,7.08-2.66,4.34,4.34,0,0,1,3.06,3.54,10.45,10.45,0,0,1,0,3.91c0,.28-.17.35-.44.35-1.15,0-2.3,0-3.46,0-.4,0-.46-.14-.4-.47a7.7,7.7,0,0,0,.1-1.72,1.29,1.29,0,0,0-.85-1.32,1.46,1.46,0,0,0-1.67.63,2.91,2.91,0,0,0,.54,4c.8.69,1.6,1.37,2.42,2a6,6,0,0,1,2.3,5.08,14.66,14.66,0,0,1-1.16,5.59,8.76,8.76,0,0,1-1.68,2.42h0Z"/><path class="cls-1" d="M456.66,94.1a8.12,8.12,0,0,1,1.72-1.89,3.49,3.49,0,0,1,4.12,0,2.92,2.92,0,0,1,1.14,3c-.66,4.16-1.36,8.32-2,12.48-.13.8-.28,1.6-.38,2.41,0,.32-.13.42-.46.41-1.23,0-2.46,0-3.69,0-.39,0-.45-.11-.39-.46.31-1.83.61-3.65.91-5.48q.59-3.59,1.18-7.18a2.57,2.57,0,0,0,0-.38c0-.48,0-.95-.57-1.15a1.43,1.43,0,0,0-1.45.51,3,3,0,0,0-.46,1.44q-1,6.17-2,12.33c-.05.33-.18.37-.45.36-1.23,0-2.46,0-3.69,0-.38,0-.45-.09-.39-.45.47-2.77.91-5.54,1.37-8.32.5-3.07,1-6.14,1.5-9.21.06-.38.17-.5.56-.49,1.05,0,2.11,0,3.17,0,.58,0,.58,0,.49.59a5.13,5.13,0,0,0-.18,1.45c-.1,0-.07,0-.08.09s0,0,0,0Z"/><path class="cls-1" d="M471.57,102.12h-3.36c-.13,0-.29,0-.32.18-.15,1.2-.45,2.39-.49,3.61,0,.73.28,1.18.8,1.32a1.38,1.38,0,0,0,1.61-.73,6.49,6.49,0,0,0,.56-2.07c0-.29.16-.36.43-.36h3.65c.11,0,.34-.13.3.19a8.49,8.49,0,0,1-1.81,4.71,6.44,6.44,0,0,1-5.77,2,4.37,4.37,0,0,1-3.47-1.76,4.81,4.81,0,0,1-.67-3.55c.4-2.88.86-5.75,1.34-8.61a7.2,7.2,0,0,1,1.53-3.47,6.26,6.26,0,0,1,4.94-2.13,6.55,6.55,0,0,1,3.3.64,3.87,3.87,0,0,1,2,4.14c-.24,1.87-.56,3.73-.83,5.59,0,.29-.22.27-.41.27h-3.31Zm-1.62-3.49v0h1.2c.14,0,.28,0,.31-.2a16.42,16.42,0,0,0,.27-2.08c0-.82-.47-1.38-1.15-1.4a1.57,1.57,0,0,0-1.48,1,8.21,8.21,0,0,0-.61,2.49c0,.19.08.2.22.2Z"/><path class="cls-1" d="M507.45,104.16c-1.92.77-3.83,1.56-5.75,2.31a4.32,4.32,0,0,1-1.53.49q-.11-4.55-.23-9.11c0-1.79-.09-3.58-.16-5.37,0-.36.07-.46.44-.46q1.77,0,3.55,0c.36,0,.41.11.4.43q-.19,5.39-.36,10.78a1.41,1.41,0,0,0,.06.5c.19-.67.39-1.33.58-2q1.31-4.65,2.61-9.3c.08-.29.18-.41.5-.4,1.15,0,2.3,0,3.45,0,.34,0,.44,0,.31.42C510,96.35,508.74,100.26,507.45,104.16Z"/><path class="cls-1" d="M481.83,94.41c.27-.07.29-.27.37-.41a4.85,4.85,0,0,1,2.56-2.34c.37-.13.82-.32,1.1-.15s0,.65,0,1c-.24,1.53-.51,3.05-.74,4.58,0,.29-.15.32-.4.28a5.67,5.67,0,0,0-1.81,0,1.52,1.52,0,0,0-1.27,1,11,11,0,0,0-.47,2.29q-.79,4.75-1.55,9.5c0,.23-.12.29-.34.29H475.1c-.26,0-.27-.08-.23-.3.54-3.28,1.07-6.55,1.6-9.83.43-2.65.87-5.29,1.29-7.94,0-.28.11-.38.4-.37,1.23,0,2.46,0,3.69,0,.32,0,.38.1.32.38C482.06,93,482,93.7,481.83,94.41Z"/><path class="cls-1" d="M513.72,102.85l5.2-2.38c.13-.06.27-.09.4-.14A4.76,4.76,0,0,1,521,105a6.67,6.67,0,0,1-2.55,4.86,6.78,6.78,0,0,1-6.47.85,3.49,3.49,0,0,1-2.34-3,7.92,7.92,0,0,1,.05-2.48c0-.24.09-.34.38-.34,1.13,0,2.27,0,3.41,0,.26,0,.36,0,.31.35a4.89,4.89,0,0,0,0,1.1c0,.55.19,1.08.78,1.25a1.53,1.53,0,0,0,1.66-.46,2.25,2.25,0,0,0,.5-1.93,1.28,1.28,0,0,0-.6-.88C515.34,103.82,514.48,103.42,513.72,102.85Z"/><path class="cls-1" d="M518.4,99.69a7,7,0,0,1-1.73.78c-1.34.55-2.69,1.06-4,1.58a4.7,4.7,0,0,1-1.72-3.93,6.92,6.92,0,0,1,2-4.85A6.58,6.58,0,0,1,519.78,92a4.14,4.14,0,0,1,2.31,4.27c-.07,1.28-.07,1.28-1.34,1.28-.82,0-1.63,0-2.45,0-.34,0-.41-.11-.36-.41a5.42,5.42,0,0,0,0-.86,1.18,1.18,0,0,0-1.91-1.06,1.79,1.79,0,0,0-.26,2.83,20.36,20.36,0,0,0,2.43,1.52Z"/><path class="cls-1" d="M500.25,109.33l1-.48,5-2.45a3.68,3.68,0,0,1,.4-.14,10.65,10.65,0,0,1-.61,2c-.53,1.49-1,3-1.62,4.45a10.61,10.61,0,0,1-1,1.81,5.12,5.12,0,0,1-5.27,2.16c-.9-.1-.9-.14-.76-1s.28-1.73.4-2.6c0-.3.15-.42.46-.33a2.93,2.93,0,0,0,.52.09,1.21,1.21,0,0,0,1.39-1.17C500.27,110.83,500.25,110.08,500.25,109.33Z"/><path class="cls-1" d="M521.87,110.52v-1.89h.8a1.37,1.37,0,0,1,.44.05.43.43,0,0,1,.22.18.54.54,0,0,1,.08.3.5.5,0,0,1-.12.35.6.6,0,0,1-.37.17.89.89,0,0,1,.2.16,2.15,2.15,0,0,1,.22.31l.23.37h-.46l-.28-.41a2.68,2.68,0,0,0-.2-.28.29.29,0,0,0-.11-.08l-.19,0h-.08v.79Zm.38-1.09h.28a1.46,1.46,0,0,0,.34,0,.2.2,0,0,0,.11-.08.25.25,0,0,0,0-.14A.23.23,0,0,0,523,109a.23.23,0,0,0-.14-.07h-.58Z"/><path class="cls-1" d="M522.63,111.5a1.9,1.9,0,1,1,1.9-1.9A1.91,1.91,0,0,1,522.63,111.5Zm0-3.33a1.42,1.42,0,1,0,1.42,1.42A1.43,1.43,0,0,0,522.63,108.17Z"/></g><path class="cls-1" d="M475.79,126.2a13.1,13.1,0,0,1,1.52-.08,2.46,2.46,0,0,1,1.55.36.76.76,0,0,1,.19.91,1.77,1.77,0,0,1-.8.93,4,4,0,0,1-2,.48,3.4,3.4,0,0,1-.61,0L475,130.5h-.77Zm0,2.1a3.27,3.27,0,0,0,.62,0c.94,0,1.63-.33,1.84-.93s-.25-.85-1.11-.85a4.78,4.78,0,0,0-.75,0Z"/><path class="cls-1" d="M483.19,128.92a2.87,2.87,0,0,1-2.75,1.66c-1.17,0-1.84-.62-1.48-1.61a2.85,2.85,0,0,1,2.74-1.66C482.94,127.31,483.54,128,483.19,128.92Zm-3.43,0a.83.83,0,0,0,.87,1.2,1.92,1.92,0,0,0,1.75-1.21.82.82,0,0,0-.85-1.2A1.88,1.88,0,0,0,479.76,128.95Z"/><path class="cls-1" d="M485,127.38V129a9.14,9.14,0,0,1,0,1h0c.21-.32.48-.65.74-1l1.28-1.6h.66l.1,1.56a8.57,8.57,0,0,1,0,1h0a11.26,11.26,0,0,1,.7-1l1.19-1.57h.77l-2.53,3.13h-.71l-.12-1.49a6.81,6.81,0,0,1,0-1h0a11.61,11.61,0,0,1-.77,1l-1.24,1.49h-.71l-.16-3.13Z"/><path class="cls-1" d="M491,129c-.26.77.3,1.09,1.08,1.09a4.39,4.39,0,0,0,1.25-.16v.41a5.41,5.41,0,0,1-1.5.19c-1.33,0-1.89-.63-1.55-1.58a2.77,2.77,0,0,1,2.64-1.69c1.41,0,1.45.9,1.24,1.47a2.09,2.09,0,0,1-.12.27Zm2.45-.41c.14-.36.13-.92-.75-.92a1.77,1.77,0,0,0-1.54.92Z"/><path class="cls-1" d="M495.25,128.35c.13-.37.24-.69.32-1h.69l-.2.61h0a2,2,0,0,1,1.44-.69l.22,0-.2.54-.26,0a1.57,1.57,0,0,0-1.32.73,1.59,1.59,0,0,0-.13.26l-.61,1.67h-.77Z"/><path class="cls-1" d="M496.63,130.76l4.19-4.69h.61l-4.2,4.69Z"/><path class="cls-1" d="M502,126.15h3.23l-.17.47h-2.46l-.53,1.45h2.27l-.17.47H502l-.72,2h-.77Z"/><path class="cls-1" d="M508.38,129.65c-.12.32-.21.61-.27.85h-.69l.14-.51h0a2.56,2.56,0,0,1-1.64.58c-.68,0-1.39-.27-1-1.37l.67-1.83h.78l-.63,1.73c-.22.59-.11,1,.6,1a1.75,1.75,0,0,0,1.22-.52.93.93,0,0,0,.18-.29l.7-1.92h.78Z"/><path class="cls-1" d="M511,125.92h.78l-1.67,4.59h-.78Z"/><path class="cls-1" d="M513.14,125.92h.78l-1.67,4.59h-.78Z"/><path class="cls-1" d="M515.63,129.82a2.83,2.83,0,0,0,1.29.28c.79,0,1.37-.3,1.53-.74s-.09-.64-.82-.87c-.89-.25-1.36-.62-1.14-1.23a2.45,2.45,0,0,1,2.37-1.18,3,3,0,0,1,1.25.21l-.38.46a2.53,2.53,0,0,0-1.06-.21c-.82,0-1.26.36-1.37.65s.14.61.89.84c.91.28,1.3.64,1.07,1.28s-1.14,1.25-2.56,1.25a3.31,3.31,0,0,1-1.43-.28Z"/><path class="cls-1" d="M524.38,128.92a2.87,2.87,0,0,1-2.75,1.66c-1.17,0-1.84-.62-1.48-1.61a2.85,2.85,0,0,1,2.74-1.66C524.13,127.31,524.73,128,524.38,128.92Zm-3.43,0a.83.83,0,0,0,.87,1.2,1.92,1.92,0,0,0,1.75-1.21.82.82,0,0,0-.85-1.2A1.88,1.88,0,0,0,521,128.95Z"/><path class="cls-1" d="M526.46,125.92h.78l-1.67,4.59h-.78Z"/><path class="cls-1" d="M530.81,129.65c-.12.32-.21.61-.27.85h-.69L530,130h0a2.56,2.56,0,0,1-1.64.58c-.68,0-1.39-.27-1-1.37l.67-1.83h.78l-.63,1.73c-.22.59-.11,1,.6,1a1.75,1.75,0,0,0,1.22-.52.93.93,0,0,0,.18-.29l.7-1.92h.78Z"/><path class="cls-1" d="M534.21,126.48l-.33.9H535l-.16.43h-1.12l-.61,1.69c-.14.39-.07.61.37.61a2.62,2.62,0,0,0,.47,0l-.12.43a2.92,2.92,0,0,1-.72.08,1,1,0,0,1-.76-.24c-.16-.17-.14-.45,0-.81l.62-1.71h-.67l.16-.43h.67l.27-.75Z"/><path class="cls-1" d="M534.75,130.5l1.14-3.13h.78l-1.14,3.13Zm2.33-4a.63.63,0,0,1-.63.35c-.28,0-.42-.16-.35-.35a.66.66,0,0,1,.62-.36C537,126.14,537.16,126.3,537.08,126.5Z"/><path class="cls-1" d="M541.32,128.92a2.87,2.87,0,0,1-2.75,1.66c-1.17,0-1.84-.62-1.48-1.61a2.85,2.85,0,0,1,2.74-1.66C541.06,127.31,541.66,128,541.32,128.92Zm-3.43,0a.83.83,0,0,0,.87,1.2,1.92,1.92,0,0,0,1.75-1.21.82.82,0,0,0-.85-1.2A1.88,1.88,0,0,0,537.88,128.95Z"/><path class="cls-1" d="M542.56,128.22c.12-.32.21-.59.27-.85h.69l-.14.52h0a2.5,2.5,0,0,1,1.64-.59c.6,0,1.43.26,1,1.33l-.68,1.87h-.78l.66-1.8c.18-.5.08-.92-.66-.92a1.68,1.68,0,0,0-1.26.58.87.87,0,0,0-.15.26l-.68,1.88h-.78Z"/><path class="cls-1" d="M546.77,129.92a2.07,2.07,0,0,0,1,.23c.57,0,.91-.21,1-.47s-.07-.42-.59-.58c-.7-.2-1-.51-.82-.89a1.88,1.88,0,0,1,1.82-.92,2.29,2.29,0,0,1,1,.19l-.35.41a1.71,1.71,0,0,0-.82-.18.89.89,0,0,0-.88.43c-.09.26.12.37.63.53.67.21,1,.48.79.94s-.93.94-2,.94a2.65,2.65,0,0,1-1.13-.21Z"/><path class="cls-2" d="M643.28,117.38c4.74-2.06,12.07-13.6,13.52-16.73-.84,0-4.81.08-4.81,3.74a1.48,1.48,0,0,1-1.22-1.6c0-1.45,1.53-3,6.57-3,2.06-3.44,5.42-8,7.64-9.62.92-.61,1-.46.38.15-.69,1-1.76,2.52-2.83,4.35-1.83,3-3.74,7-6.11,11a36.27,36.27,0,0,1-7.33,8.86,17.38,17.38,0,0,1-6.34,3.51c-.61.15-.53-.31.53-.69Zm35-34.07a12.92,12.92,0,0,0-8.1,3c-3-1.22-8.86-4.89-15.2-4.89-7.64,0-12.45,4.81-12.45,10,0,4.2,3.59,7.1,7.64,7.1,6,0,6.87-4.35,6.87-4.81,0-.31-.08-.92-.38-1.07-.15-.08-.31-.08-.31.08,0,1.6-3.13,5-7,5-8.78,0-5.19-15.5,4.51-15.5,5.35,0,11,3.51,15,5.35-2.6,2.75-5.35,6.57-9.32,14.51-5.5,10.85-12.68,17.57-20.7,17.57-4.35,0-8.86-2.83-8.86-9.78,0-11.76,15.58-15,15.58-2.9,0,4.89-3.44,7.49-6.26,7.56-3.21,0-3.9-2-3.9-3.9,0-4,2-4.74,1-4.74-3.51,0-4.28,9.24,3.36,9.24,4.89,0,7.87-4.28,7.94-8.55.08-4-2.52-7.87-8.63-7.87-7.56,0-11.53,5.5-11.46,10.92s3.82,10.69,11.84,10.69c6.42,0,10.54-2.75,14.13-6.11,4-3.67,6.42-8.48,8.48-13.21a8.66,8.66,0,0,0,2.75.15c-.23.61-.38,2.22.15,2.22.23,0,.08-.46.46-1.3.53-1.07,1.53-1.6,3.44-2.9.84-.61.46-1.45-.38-1.45-1.68,0-2.44,2.67-4.43,2.67-.53-.08-1.22-.15-1.6-.23C663.74,97,667,90.58,669.86,88c1.22.53,5.42,2.6,8.4,2.6,7.18,0,8.17-7.26,0-7.26Zm-.08.61c6,0,6.26,5.35.53,5.35-2.9,0-5.88-1.68-7.64-2.44a11.15,11.15,0,0,1,7.1-2.9Zm78.59,14.66v.46l-6.8.23s-2.29,3.36-4.35,6.49c-.31.38-1.68,2.52-2.44,3.82-1.22,2.21-4.28,7.1-1.22,8.25.38.15,1.15.53.92.84a2.69,2.69,0,0,1-1.6.53c-5.8,0-1.83-7.56.46-10.54h0c-.69.76-3.28,4.12-6,4.12a1.91,1.91,0,0,1-2.14-1.91c0-3.06,5.88-7.87,3.51-7.87a4.23,4.23,0,0,0-1.68.76,16.46,16.46,0,0,0-4.2,4c-1.76,2.37-3.44,4.81-3.44,4.81l-2.6.08s4.74-7.1,4.81-7.26c-1.22,1.07-3.59,1.83-4.81.38-.23,2.75-4,7.18-7.1,7.18-2.6,0-3.21-2.6-2.52-4.66-2,2.52-4,4.35-6,4.35a2,2,0,0,1-2-2.14c0-2.21,3.9-5.58,3.9-7,0-.23-.08-.53-.46-.53a4.71,4.71,0,0,0-2.52,1.22,20,20,0,0,0-4.28,5.35c-.69,1-.61,1-2.06,3.06h-2.6l5.19-7.79c.38-.53,1.3-1.91.23-1.91-1.68,0-4.51,2.52-6.8,5.65-.92,1.37-2.75,4-2.75,4h-2.6l4.81-7.18a6.5,6.5,0,0,1-2.37.61,1.32,1.32,0,0,1-1.45-1.45,2,2,0,0,1,1.37-1.83h0c-2.29.08-5.5,3.13-8.63,7.79-.84,1.22-1.37,2.06-1.37,2.06h-2.6s1.15-1.68,2.52-3.74h0c-.23.15-3.44,3.82-5.42,3.82-1.76,0-2.22-1.83-1.91-3.36,0,0-2.37,3.36-4.66,3.36-1.68,0-2.37-1.68-2.21-3.13a.07.07,0,0,1-.08.08c-.31.53-2.22,3.13-4.58,3.06-5.27,0-1.37-10.31,4.81-10.31,1.6,0,2.44.61,2.44,2,.38-.61,1.3-1.91,1.3-1.91h2.6s-2.67,4-4,6c-1,1.45-1.6,3.51-.31,3.51,2.22,0,4.35-3.36,6.11-6,1.3-1.91,2.37-3.51,2.37-3.51h2.6s-2.44,3.67-4.2,6.34c-1.37,1.91-1.22,3.21-.31,3.21,1.83,0,6-4.2,8.17-7.48.84-1.22,1.37-2.06,1.37-2.06h2.6l-1.83,2.67v.08c1.91-1.91,4-3,5-3,2.37,0,2.14,2.44,1,3.21a4,4,0,0,0,2.52-1.45l1.07-1.53h2.67L700.64,105h0c2.06-2.06,3.74-2.6,4.81-2.6,2.67,0,1.45,2.6,1.45,2.6h0c.38-.46,2.29-2.6,4.51-2.6,1.37,0,1.91.61,1.91,1.68.08,1.45-1.22,3.13-2.9,5.88-.46.76-1.3,2-.31,2,2.44,0,6.8-6.34,6.87-6.49,1.53-2.06,3.44-3.36,5.8-3.36a2.61,2.61,0,0,1,2.44,2.22c1.3,3.59,5,.69,6.26-1.07.15-.23.38-.53.53-.76h2.6l-1.76,2.67c.31-.31,2.6-2.75,4.89-2.75a1.67,1.67,0,0,1,1.76,1.91c0,1.83-2.21,4.28-3.06,6s-.15,2.14,1.68.92c2.29-1.53,4.43-4.28,7-7.87.92-1.3,2-2.83,2.83-4-2.52,0-23.52.46-23.52.46l-1.15-1.15,25.13-.08s2.29-3.82,4.2-3.82h.15c.31,0,.15.15,0,.38-.84,1.3-2.29,3.44-2.29,3.44ZM666.49,112c2.9,0,8.48-8.78,5.19-8.78-2.6,0-8.33,8.78-5.19,8.78ZM685,97.83a1.4,1.4,0,0,0-1.45,1.45,1.39,1.39,0,0,0,1.45,1.37,1.37,1.37,0,0,0,1.37-1.37A1.39,1.39,0,0,0,685,97.83Zm33.84,8.71c-1.6,2.37-2.37,5-1.53,5.5s3-1,4.58-3.44,2.37-5,1.45-5.5-2.9,1-4.51,3.44Z"/><path class="cls-2" d="M659.77,124.11c.08,0,.08,0,.08-.08v-1.37c-.08-.23-.08-.31-.31-.31-.08,0-.15-.08-.23-.08h-.15c0-.08.08-.08.15-.08h1.76c.08,0,.15,0,.15.08h-.15c-.08,0-.08.08-.15.08-.23,0-.23.08-.23.31a4.12,4.12,0,0,0-.08,1.3V125a5.09,5.09,0,0,0,.08,1.22.35.35,0,0,0,.23.38h.31c.08,0,.15,0,.15.08h-2.06c0-.08,0-.08.08-.08h.23c.15-.08.15-.15.15-.38a5.09,5.09,0,0,0,.08-1.22v-.53c0-.08,0-.08-.08-.08h-2.44a.07.07,0,0,0-.08.08V125a5.09,5.09,0,0,0,.08,1.22.35.35,0,0,0,.23.38h.31c.08,0,.15,0,.15.08H656c0-.08,0-.08.08-.08h.23c.15-.08.15-.15.15-.38a5.09,5.09,0,0,0,.08-1.22v-2.37c0-.23-.08-.31-.31-.31-.08,0-.15-.08-.23-.08h-.15c0-.08.08-.08.15-.08h1.76c.08,0,.15,0,.15.08h-.15a.27.27,0,0,1-.15.08c-.23,0-.23.08-.23.31a4.12,4.12,0,0,0-.08,1.3V124a.07.07,0,0,0,.08.08Z"/><path class="cls-2" d="M662.52,124.49a2.41,2.41,0,0,1,2.67-2.37c1.68,0,2.67.84,2.67,2.21a2.47,2.47,0,0,1-2.67,2.44,2.36,2.36,0,0,1-2.67-2.29Zm4.43.08a2,2,0,0,0-1.91-2.14c-.76,0-1.6.38-1.6,1.83a2,2,0,0,0,2,2.22c.46,0,1.53-.15,1.53-1.91Z"/><path class="cls-2" d="M670.7,122.5l-1,.08c-.38,0-.53,0-.61.15s-.15.15-.15.23a.07.07,0,0,1-.08.08v-.15c0-.08.08-.61.08-.69l.08-.08c.08,0,.15.08.31.08h3.21a2.89,2.89,0,0,0,.61-.08c.08,0,.08.08.08.15V123a.07.07,0,0,1-.08.08c-.08,0-.08,0-.08-.08v-.08c0-.15-.23-.31-.76-.31l-.84-.08V125a5.09,5.09,0,0,0,.08,1.22c0,.23,0,.31.23.38h.31c.08,0,.15,0,.15.08h-2.14c0-.08.08-.08.15-.08h.23a.45.45,0,0,0,.15-.38,5.1,5.1,0,0,0,.08-1.22V122.5Z"/><path class="cls-2" d="M675,124v-1.3c0-.23-.08-.31-.23-.31s-.23-.08-.31-.08h-.08c0-.08,0-.08.15-.08h2.83l.08-.08a.07.07,0,0,1,.08.08,1.55,1.55,0,0,0-.08.38c0,.08,0,.31-.08.38V123c-.08,0-.08,0-.08-.08a.38.38,0,0,0-.08-.23c0-.08-.08-.15-.38-.15a4,4,0,0,0-.92-.08c-.08,0-.08,0-.08.08v1.53a.07.07,0,0,0,.08.08h1c.15-.08.31-.08.31-.15s.08-.08.15-.08v.53c-.08.08-.08.31-.08.38s0,.08-.08.08h0a.28.28,0,0,0-.08-.23c0-.15-.08-.23-.31-.23h-1v1.45c0,.38.15.46.76.46a1.68,1.68,0,0,0,.61-.08.54.54,0,0,0,.31-.38c0-.08,0-.15.08-.15s.08.08.08.15-.08.53-.08.69-.15.15-.38.15c-1,0-1.45-.08-1.83-.08h-.92c0-.08,0-.08.08-.08h.31a.45.45,0,0,0,.15-.38V124Z"/><path class="cls-2" d="M680.62,125c0,.76,0,1.15.15,1.22s.23.15.76.15a1.14,1.14,0,0,0,.76-.15.58.58,0,0,0,.15-.38.08.08,0,0,1,.15,0,2.83,2.83,0,0,1-.15.69c0,.15-.08.23-.38.23-.92,0-1.37-.08-1.91-.08h-.92c0-.08,0-.08.08-.08h.23c.15-.08.15-.15.23-.38v-3.59c0-.23-.08-.31-.31-.31a.27.27,0,0,0-.15-.08h-.15c0-.08.08-.08.15-.08h1.76c.08,0,.15,0,.15.08h-.15c-.08,0-.15.08-.23.08s-.23.08-.23.31V125Z"/><path class="cls-2" d="M684.14,126.63a.16.16,0,0,1-.15-.15c0-.38.08-.69.08-.84s0-.15.08-.15.08.08.08.15a.58.58,0,0,0,.08.31c.08.46.46.61.92.61a.78.78,0,0,0,.84-.69c0-.31-.08-.61-.61-1l-.31-.23c-.76-.46-1-.92-1-1.37,0-.69.61-1.15,1.53-1.15.38,0,.69.08.84.08a.07.07,0,0,1,.08.08V123c0,.08,0,.15-.08.15s-.08,0-.08-.08a.65.65,0,0,0-.15-.46,1,1,0,0,0-.69-.23c-.53,0-.76.23-.76.61,0,.23.15.46.69.84l.15.15c.76.53,1.07.92,1.07,1.53a1.12,1.12,0,0,1-.61,1,1.7,1.7,0,0,1-1.07.23,1.94,1.94,0,0,1-.92-.15Z"/><path class="cls-2" d="M691.78,124.11a1.32,1.32,0,0,1-.38-.92c0-.46.46-1.07,1.6-1.07a1.92,1.92,0,0,1,.76.15c.15,0,.15.08.15.15s-.08.61-.08.76l-.08.08c-.08,0-.08,0-.08-.08a1.1,1.1,0,0,0-.15-.53,1,1,0,0,0-.76-.31.73.73,0,0,0-.69.69c0,.61.53,1.07,1.07,1.6a11.7,11.7,0,0,0,1.15,1,1.45,1.45,0,0,0,.31-.92.46.46,0,0,0-.08-.31.69.69,0,0,0-.38-.08h-.08c0-.08.08-.08.15-.08H695c.15,0,.23.08.23.15a2.16,2.16,0,0,1-.69,1.37,4.4,4.4,0,0,0,.92.61,1.76,1.76,0,0,0,.69.23c.08,0,.08,0,.08.08h-.69a2.26,2.26,0,0,1-1.53-.46,1.8,1.8,0,0,1-1.53.53c-1.37,0-1.76-.76-1.76-1.3a1.71,1.71,0,0,1,1.07-1.37Zm2,2c-.38-.31-1-.92-1.15-1.07a6.2,6.2,0,0,1-.69-.76,1.08,1.08,0,0,0-.46.92,1.16,1.16,0,0,0,1.22,1.22,2.22,2.22,0,0,0,1.07-.31Z"/><path class="cls-2" d="M699.57,124v-1.3c0-.23-.08-.31-.23-.31s-.23-.08-.31-.08H699c0-.08,0-.08.15-.08h1.76a3.16,3.16,0,0,1,1.22.23,1.29,1.29,0,0,1,.46.84c0,.46-.23.84-.92,1.37.61.61,1.07,1.15,1.45,1.53a1.63,1.63,0,0,0,.69.46H704a.07.07,0,0,1,.08.08h-.76a1.51,1.51,0,0,1-.69-.08,3.4,3.4,0,0,1-.92-.92c-.23-.31-.53-.69-.61-.84h-.76v.08a5.48,5.48,0,0,0,.08,1.3.35.35,0,0,0,.23.38h.31c.08,0,.08,0,.08.08h-2c0-.08,0-.08.08-.08h.23a.35.35,0,0,0,.23-.38V124Zm.76.46c0,.08,0,.08.08.08a1.13,1.13,0,0,0,.53.08.83.83,0,0,0,.46-.08,1.15,1.15,0,0,0,.38-.92,1,1,0,0,0-1-1.07h-.38a.07.07,0,0,0-.08.08v1.83Z"/><path class="cls-2" d="M705.22,124v-1.3c0-.23-.08-.31-.31-.31a.77.77,0,0,0-.23-.08h-.08c0-.08,0-.08.08-.08h2.83c.08,0,.08-.08.15-.08v.46c0,.08-.08.31-.08.38s0,.08-.08.08V123a.77.77,0,0,1-.08-.23c-.08-.08-.08-.15-.46-.15a3.43,3.43,0,0,0-.92-.08v1.68h1.07c.15-.08.23-.08.31-.15a.07.07,0,0,0,.08-.08c.08,0,.08,0,.08.08a1.11,1.11,0,0,0-.08.46v.38c0,.08,0,.08-.08.08h-.08v-.23c0-.15-.15-.23-.38-.23h-.92v1.45c0,.38.08.46.76.46a1.68,1.68,0,0,0,.61-.08.54.54,0,0,0,.31-.38c0-.08,0-.15.08-.15v.15a2.11,2.11,0,0,1-.08.69c0,.15-.08.15-.31.15-1,0-1.45-.08-1.83-.08h-.92c0-.08,0-.08.08-.08H705c.15-.08.15-.15.23-.38V124Z"/><path class="cls-2" d="M710,126.63a.16.16,0,0,1-.15-.15c0-.38.08-.69.08-.84s0-.15.08-.15.08.08.08.15v.31a.93.93,0,0,0,1,.61.78.78,0,0,0,.84-.69c0-.31-.08-.61-.61-1l-.31-.23c-.76-.46-1-.92-1-1.37,0-.69.61-1.15,1.53-1.15.38,0,.69.08.84.08a.07.07,0,0,1,.08.08V123c0,.08,0,.15-.08.15s-.08,0-.08-.08a.65.65,0,0,0-.15-.46,1,1,0,0,0-.69-.23c-.53,0-.76.23-.76.61,0,.23.15.46.69.84l.15.15c.76.53,1.07.92,1.07,1.53a1.12,1.12,0,0,1-.61,1,1.7,1.7,0,0,1-1.07.23,1.79,1.79,0,0,1-.92-.15Z"/><path class="cls-2" d="M714.38,124.49a2.37,2.37,0,0,1,2.67-2.37c1.6,0,2.6.84,2.6,2.21a2.47,2.47,0,0,1-2.67,2.44,2.29,2.29,0,0,1-2.6-2.29Zm4.35.08a2,2,0,0,0-1.91-2.14c-.76,0-1.6.38-1.6,1.83a2,2,0,0,0,2,2.22c.46,0,1.53-.15,1.53-1.91Z"/><path class="cls-2" d="M721.49,124v-1.3c0-.23-.08-.31-.31-.31a.77.77,0,0,0-.23-.08h-.08c0-.08,0-.08.08-.08h1.83a3.46,3.46,0,0,1,1.22.23,1.24,1.24,0,0,1,.38.84c0,.46-.15.84-.84,1.37.61.61,1.07,1.15,1.45,1.53a1.63,1.63,0,0,0,.69.46h.15c.08,0,.08,0,.08.08h-.69a1.51,1.51,0,0,1-.69-.08,3.4,3.4,0,0,1-.92-.92c-.23-.31-.53-.69-.61-.84h-.76v.08a5.48,5.48,0,0,0,.08,1.3c0,.23,0,.31.23.38h.31c.08,0,.08,0,.08.08h-2c0-.08,0-.08.08-.08h.23c.15-.08.15-.15.23-.38V124Zm.76.46c0,.08,0,.08.08.08a1,1,0,0,0,.46.08c.31,0,.38,0,.46-.08a1,1,0,0,0,.38-.92,1,1,0,0,0-1-1.07h-.31a.07.07,0,0,0-.08.08v1.83Z"/><path class="cls-2" d="M727.6,122.5l-.92.08c-.38,0-.53,0-.61.15s-.15.15-.15.23a.07.07,0,0,1-.08.08.27.27,0,0,1-.08-.15c0-.08.15-.61.15-.69a.07.07,0,0,1,.08-.08c.08,0,.15.08.31.08h3.21a2.88,2.88,0,0,0,.61-.08c.08,0,.08.08.08.15s-.08.53-.08.69V123c-.08,0-.08,0-.08-.08v-.08c-.08-.15-.23-.31-.76-.31l-.84-.08v3.74c.08.23.08.31.31.38H729c.08,0,.08,0,.08.08h-2.06c0-.08,0-.08.08-.08h.23a.35.35,0,0,0,.23-.38V122.5Z"/><path class="cls-2" d="M731.49,126.63c-.15,0-.15-.08-.15-.15,0-.38.08-.69.08-.84s0-.15.08-.15a.27.27,0,0,1,.08.15v.31a.89.89,0,0,0,.92.61c.61,0,.92-.38.92-.69s-.15-.61-.69-1l-.23-.23c-.76-.46-1-.92-1-1.37,0-.69.61-1.15,1.53-1.15.38,0,.69.08.84.08a.07.07,0,0,1,.08.08V123a.27.27,0,0,1-.08.15c-.08,0-.08,0-.08-.08a1.58,1.58,0,0,0-.15-.46,1.27,1.27,0,0,0-.76-.23c-.46,0-.76.23-.76.61,0,.23.15.46.69.84l.23.15c.76.53,1.07.92,1.07,1.53a1.12,1.12,0,0,1-.61,1,1.82,1.82,0,0,1-1.07.23,1.65,1.65,0,0,1-.92-.15Z"/><path class="cls-2" d="M840.26,101.5a4,4,0,0,0-1.15,2.65c0,2.23,1.28,4,3.58,4,3,0,3.64-3.11,3.64-4.59a4.37,4.37,0,0,0,0-.49h0a6.09,6.09,0,0,0,2.37-1h0c0,1.48.08,2.92.08,3.57,0,2.05.13,2.3.77,2.3s1.06-1.39,1.7-2.72c.75-1.66,1.55-3.31,2-3.31.91,0-.73,6.12,1.46,6.12,1.55,0,3.84-6.21,4.84-6.21.77,0-.8,6.21.93,6.21,1.26,0,3.4-6.32,4.13-6.32s-.8,6.32,1.44,6.32c2,0,3.64-5.19,4.2-5.19.27,0,.76.7,1.12,1.65v0a4.31,4.31,0,0,0-1.14,2.33,1.17,1.17,0,0,0,1.24,1.19,2.2,2.2,0,0,0,1.83-2.43,5.75,5.75,0,0,0-.36-2h0a10.55,10.55,0,0,1,4.27-2.59c-.62.71-1.74,1.33-1.74,3.34a3.74,3.74,0,0,0,3.78,3.82c3,0,3.62-3.18,3.62-4.42a4.42,4.42,0,0,0-.16-1.22h0c1-.48,1.78-1.15,2.06-1.15.62,0,.38,1.88.38,3.82,0,1.46-.22,3,.86,3,.82,0,1.21-1.61,2-3s1.66-3.34,2-3.34.27,3,.27,3.53c0,.73-.13,3,1.37,3,1,0,2.92-2.85,2.92-3.22,0-.2,0-.24-.15-.24s-1.33,1.92-1.79,1.92c-.66,0-.24-2.45-.24-4.26,0-.8.11-2.56-1.21-2.56-1.68,0-3.31,4.73-3.82,4.73s.71-4.55-1.39-4.55c-.85,0-2.12,1.16-3.51,1.75h0a2.63,2.63,0,0,0-2.31-1.51,1.08,1.08,0,0,0-1.13,1,1.69,1.69,0,0,0,1.83,1.61,3.75,3.75,0,0,0,1-.15h0a3.72,3.72,0,0,1,.18,1,2.55,2.55,0,0,1-2.32,2.69,2.61,2.61,0,0,1-2.25-2.81c0-2.52,1.52-2.94,1.52-3.45,0-.22-.18-.27-.51-.27-1.7,0-4,1.41-5.8,3h0a3.57,3.57,0,0,0-.2-.31c-1.7-2.43-1-3-1.48-3s-3,6.74-4,6.74c-1.28,0,1.06-6.49-1.44-6.49-2,0-3.09,5.1-3.84,5.1s.73-5.1-1.39-5.1c-1.52,0-3.8,6.1-4.79,6.1-.84,0,.77-6-1.17-6s-3.31,4.7-3.78,4.7-.3-1.47-.29-4.17v0a9.23,9.23,0,0,0,2.58-6c0-1-.49-1.77-1.41-1.77-1.81,0-2.87,2.87-2.87,6,0,.69,0,1.57,0,2.47h0a4.23,4.23,0,0,1-2.09.94h-.41a2.62,2.62,0,0,0-2.35-2,1.19,1.19,0,0,0-1.15,1.1c0,.75.67,1.54,2.76,1.59h0a4,4,0,0,1,.08.77c0,1.17-.86,2.76-2.39,2.76-1.33,0-2.32-1.5-2.32-3.16a3.69,3.69,0,0,1,1.41-2.94c0-.09,0-.18-.07-.18-1.4,0-3.69,1.54-5.85,3.79h0a48.66,48.66,0,0,1-.53-6.61,12.05,12.05,0,0,1,.68-4.68c0-.22-.07-.31-.44-.31-.84,0-6.27,2.45-6.27,7.89a8.27,8.27,0,0,0,3.78,7.16h0c-1.59,2.36-2.72,5-2.72,7.21,0,1.28.51,2.54,1.46,2.54,1.5,0,4.37-3.18,4.37-9.7a23.91,23.91,0,0,0-.25-2.93h0a19.35,19.35,0,0,1,3.87-3.2Zm115.55.66h0c-.28-.54-.68-1-1.16-1a.45.45,0,0,0-.42.4c0,.4.38.64.95.64a3,3,0,0,0,.62-.07Zm-47.78,5c.28-.39.57-.78.87-1.15l0,0a32.3,32.3,0,0,1-.75-5.16c0-3.91,1.7-6.69,1.7-7.29,0-.4.07-.46-.22-.46s-4.09,1.66-4.09,7.51a10.32,10.32,0,0,0,2.47,6.59Zm-.31.44c-.55-.42-1.06-1.13-1.84-1.67s-2.39,0-3.89.31h0c-.13.87-.43,1.72-.73,1.72s-.28-.68-.52-1.48h0a10.89,10.89,0,0,1-1.58.21c-1,0-3.42-.46-3.42-2,0-.88,1-1.24,1.94-1.24a4.33,4.33,0,0,1,3.22,1.61,4.24,4.24,0,0,0-1-2.56c0-.24,1.17-.68,1.28-.68.46,0,.86,2.12.86,3.62,0,.07,0,.14,0,.22h0a11.9,11.9,0,0,1,3.3-.38,8.1,8.1,0,0,1-1.39-4.82c0-5.43,5.41-7.89,6.25-7.89.38,0,.46.09.46.31a11.72,11.72,0,0,0-.71,4.68,48.72,48.72,0,0,0,.53,6.62h0c2.16-2.24,4.45-3.79,5.85-3.79,0,0,.07.09.07.18a3.69,3.69,0,0,0-1.41,2.94c0,1.66,1,3.16,2.34,3.16,1.5,0,2.36-1.59,2.36-2.76a4,4,0,0,0-.08-.77h0c-2.1,0-2.76-.84-2.76-1.59a1.2,1.2,0,0,1,1.17-1.1,2.62,2.62,0,0,1,2.33,2h.41a4.24,4.24,0,0,0,2.09-.94h0c0-.9,0-1.79,0-2.48,0-3.16,1.06-6,2.87-6,.93,0,1.41.77,1.41,1.77a9.23,9.23,0,0,1-2.58,6v0c0,2.7-.1,4.17.29,4.17s1.92-4.7,3.78-4.7.35,6,1.17,6c1,0,3.27-6.1,4.79-6.1,2.12,0,.66,5.1,1.39,5.1s1.88-5.1,3.84-5.1c2.5,0,.15,6.49,1.44,6.49,1,0,3.45-6.74,4-6.74s-.22.53,1.48,3a3.52,3.52,0,0,1,.2.31h0c1.76-1.62,4.11-3,5.82-3,.31,0,.49,0,.49.27,0,.51-1.52.93-1.52,3.45a2.61,2.61,0,0,0,2.25,2.81,2.55,2.55,0,0,0,2.32-2.69,3.72,3.72,0,0,0-.18-1h0a3.68,3.68,0,0,1-1,.15,1.7,1.7,0,0,1-1.86-1.61,1.08,1.08,0,0,1,1.13-1,2.63,2.63,0,0,1,2.31,1.51h0c1.38-.6,2.65-1.75,3.5-1.75,2.1,0,.91,4.55,1.39,4.55s2.14-4.73,3.82-4.73c1.33,0,1.21,1.77,1.21,2.56,0,1.81-.42,4.26.24,4.26.46,0,1.63-1.92,1.79-1.92s.18,0,.18.24c0,.38-1.9,3.22-2.94,3.22-1.5,0-1.37-2.3-1.37-3,0-.57.18-3.53-.27-3.53s-1.19,1.92-2,3.34-1.21,3-2,3c-1.08,0-.86-1.5-.86-3,0-1.94.24-3.82-.38-3.82-.29,0-1.05.67-2.06,1.15h0a4.42,4.42,0,0,1,.16,1.21c0,1.24-.64,4.42-3.62,4.42a3.74,3.74,0,0,1-3.78-3.82c0-2,1.13-2.63,1.77-3.34a10.54,10.54,0,0,0-4.29,2.59h0a5.75,5.75,0,0,1,.36,2,2.2,2.2,0,0,1-1.83,2.43,1.17,1.17,0,0,1-1.24-1.19,4.31,4.31,0,0,1,1.14-2.33h0c-.35-1-.85-1.66-1.12-1.66-.55,0-2.16,5.19-4.2,5.19-2.23,0-.68-6.32-1.44-6.32S935.94,108,934.7,108c-1.74,0-.18-6.21-.95-6.21-1,0-3.29,6.21-4.84,6.21-2.19,0-.55-6.12-1.46-6.12-.49,0-1.28,1.66-2,3.31-.64,1.33-1,2.72-1.7,2.72s-.77-.24-.77-2.3c0-.65,0-2.09-.08-3.57h0a6.1,6.1,0,0,1-2.37,1h0a4.41,4.41,0,0,1,0,.49c0,1.48-.6,4.59-3.64,4.59-2.3,0-3.56-1.75-3.56-4a4,4,0,0,1,1.13-2.65,19.34,19.34,0,0,0-3.87,3.2v0a23.86,23.86,0,0,1,.25,2.92c0,6.52-2.85,9.7-4.37,9.7-.95,0-1.46-1.26-1.46-2.54,0-2.26,1.13-4.86,2.72-7.21Zm38-2.46h0a2.84,2.84,0,0,0-.61,1.5c0,.44.09.71.35.71s.46-.31.46-.73a5.8,5.8,0,0,0-.21-1.48Zm-21.24-5.34h0A7.73,7.73,0,0,0,926.18,95c0-.93-.07-1.46-.55-1.46-1.24,0-1.12,4.61-1.11,6.24Zm-5.13,2.56h0c-.24-.55-.61-1-1.12-1a.32.32,0,0,0-.35.31c0,.49.7.64,1.47.69ZM909,106.54h0a12.78,12.78,0,0,0-3,7.33c0,.82,0,2,1.13,2,1.39,0,2.36-2.08,2.36-5a25.57,25.57,0,0,0-.51-4.39Zm-8.49-.65h0A2.55,2.55,0,0,0,898.1,104c-.38,0-.57.33-.57.73,0,.73,1.15,1.19,2.21,1.19a5.61,5.61,0,0,0,.78-.07Zm-18.92-3.73a3,3,0,0,1-.62.07c-.6,0-.95-.24-.95-.64a.45.45,0,0,1,.42-.4c.48,0,.87.42,1.16,1Zm-10,3a5.79,5.79,0,0,1,.21,1.47c0,.42-.22.73-.46.73s-.35-.27-.35-.71a2.83,2.83,0,0,1,.6-1.49Zm-21.24-5.35c0-1.63-.14-6.23,1.11-6.23.49,0,.55.53.55,1.46a7.73,7.73,0,0,1-1.65,4.78Zm-5.13,2.57c-.78,0-1.48-.2-1.48-.69a.32.32,0,0,1,.35-.31c.52,0,.89.44,1.12,1ZM834.71,106c-.3.38-.6.77-.88,1.17h0a10.34,10.34,0,0,1-2.47-6.59c0-5.85,3.89-7.51,4.09-7.51s.2.07.2.46c0,.6-1.68,3.38-1.68,7.29a32.31,32.31,0,0,0,.75,5.16v0Zm.11.57a25.59,25.59,0,0,1,.51,4.39c0,2.89-1,5-2.36,5-1.13,0-1.13-1.22-1.13-2a12.79,12.79,0,0,1,3-7.33Z"/><polygon class="cls-2" points="1067.36 115.1 1066.16 112.18 1065.24 115.1 1067.36 115.1 1067.36 115.1"/><polygon class="cls-2" points="1104.25 115.1 1103.89 109.17 1102.14 115.1 1104.25 115.1 1104.25 115.1"/><path class="cls-2" d="M1083,104.14V86.84h-20v17.5l.67-2.23.15-.51h5.79l-.28.93-1.78,5.9,6.56-6.61.21-.21h7.39l-1.33,1.24-9.08,8.49,1.77,3.77h6.64l3.3-11Z"/><path class="cls-2" d="M1085.1,86.84V101.6h4c3.1,0,6.31-.08,7.95,1.87.93,1.11,1.2,2.66.81,4.75-.35,1.92-2,6.39-10.07,6.38h-2.61l-.11.38v.12h12l4-13,.16-.51h3.85V86.84Z"/><polygon class="cls-2" points="1115.91 115.1 1117.53 109.66 1114.01 115.1 1115.91 115.1 1115.91 115.1"/><path class="cls-2" d="M1121.52,115.1h2.29a11.84,11.84,0,0,1,.56-3.51,20.12,20.12,0,0,1,2.87-6.11V86.84h-20v14.76h1.4l.06.65a117.91,117.91,0,0,1,.48,12.5,91.06,91.06,0,0,1,7.92-12.85l.22-.3h7.57l-.22.89-3.14,12.61Z"/><path class="cls-2" d="M1129.39,86.84v16.41a11,11,0,0,1,7-2.05c3,0,5.34,1,6.62,2.79a5.15,5.15,0,0,1,.68,4.72l-.17.49H1138l.5-1s0-.1,0-.14,0-.15.06-.23a1.81,1.81,0,0,0-.06-1.56,3.25,3.25,0,0,0-2.48-.83c-2.91-.14-4.8,1.87-6.13,6.5a12.57,12.57,0,0,0-.49,2.54v.68h7l0-.09h-4.26l.29-.93.9-2.89.16-.51h9.58l-.26.91-1,3.5h7.55V86.84Z"/><polygon class="cls-2" points="1115.91 115.1 1117.53 109.66 1114.01 115.1 1115.91 115.1 1115.91 115.1"/><path class="cls-2" d="M1124,101.59h-6.65l-.22.3a91.06,91.06,0,0,0-7.92,12.85,117.91,117.91,0,0,0-.48-12.5l-.06-.65h-7.4l-.16.51-5.85,19.1-.28.93h5.1l.15-.51,3.69-12.45.74,12.29,0,.68h4.79l.21-.33,7.85-12.15-3.44,11.56-.27.92h6l.14-.54,4.76-19.11.22-.89Z"/><path class="cls-4" d="M1119.21,121.42h-4.43l4.86-16.36-10.57,16.36h-3.72l-1-16.36-4.85,16.36h-3.59l5.85-19.11H1108s.95,9.81.22,16.53c0,0,1.85-5.94,9.48-16.53H1124l-4.76,19.11Z"/><path class="cls-2" d="M1143,104c-1.28-1.8-3.63-2.79-6.62-2.79-4.39,0-9.26,1.23-12,10.4-1.21,4-.24,6.46.78,7.84a8.87,8.87,0,0,0,7,3.2,29.5,29.5,0,0,0,7.49-.9l.33-.13.1-.34,2.71-9.65.26-.91h-9.58l-.16.51-.9,2.89-.29.93h4.26l-1,3.16a7.07,7.07,0,0,1-2.39.26,3.56,3.56,0,0,1-3-1.14c-.8-1.05-.84-2.92-.12-5.41,1.33-4.63,3.22-6.63,6.13-6.5a3.25,3.25,0,0,1,2.48.83,1.81,1.81,0,0,1,.06,1.56c0,.08,0,.16-.06.23s0,.12,0,.14l-.5,1h5.59l.17-.49A5.15,5.15,0,0,0,1143,104Z"/><path class="cls-4" d="M1143,108.46h-3.93a3.34,3.34,0,0,0,.13-.47c.68-2.28-.72-3.2-3.19-3.32-3.64-.17-5.62,2.71-6.86,7-1.34,4.64-.21,7.48,3.84,7.46,3.22,0,3-.67,3-.67l1.33-4.18h-4.27l.9-2.89h8.1l-2.71,9.65a29,29,0,0,1-7.23.85c-3.84,0-9.43-2.56-7.13-10.11,2.75-9,7.51-9.89,11.36-9.89,5.62,0,7.62,3.63,6.61,6.55Z"/><path class="cls-2" d="M1081.66,101.6h-7.39l-.21.21-6.56,6.61,1.78-5.9.28-.93h-5.79l-.15.51-5.74,19.11-.28.93h5.83l.12-.57c.07-.28,1.3-4.38,2.65-8.88l3.63,9,.18.45h6.28l-.48-1-4.59-9.8,9.08-8.49,1.33-1.24Z"/><path class="cls-4" d="M1062.86,121.43h-4.29l5.74-19.11h4.29s-5.65,18.72-5.74,19.11Z"/><polygon class="cls-4" points="1066.2 110.76 1066.2 110.76 1074.58 102.31 1079.84 102.31 1070.37 111.16 1075.18 121.43 1070.52 121.43 1066.2 110.74 1066.2 110.76 1066.2 110.76"/><path class="cls-2" d="M1097.09,103.46c-1.64-1.94-4.85-1.91-7.95-1.87h-5.42l-.15.51-5.77,19.11-.28.93H1083l.15-.51,2.1-7h2.61c8,0,9.72-4.46,10.07-6.38.39-2.09.12-3.64-.81-4.75Z"/><path class="cls-4" d="M1097.19,108.08c-.57,3.08-3.26,5.8-9.37,5.79h-3.15l-2.26,7.55h-3.93l5.77-19.11h4.87c4.41-.05,9.15-.12,8.07,5.77Z"/><path class="cls-2" d="M1085.42,111.07c1.42,0,2.46,0,3.41,0,2.87-.05,3.75-1,4.4-3,1.12-3.38-1.75-3-6.06-3l-1.75,6Z"/><path class="cls-2" d="M1256.87,103l-1.21-1.13-1.13,1.13-6.63-6.63,1-1.06-1.13-1.21-1.06,1.06-1-1.06-1.21,1.21,1.06,1.06-6.71,6.63-1.13-1.13-1.13,1.13,1.13,1.13-1.13,1.21,1.13,1.13,1.13-1.13,6.71,6.63L1244.5,113l1.21,1.13,1-1,1.06,1,1.13-1.13-1-1.06,6.63-6.63,1.13,1.13,1.21-1.13-1.13-1.21,1.13-1.13Zm-10.18,7.84-6.63-6.71,6.63-6.63,6.71,6.63-6.71,6.71Zm-3.09-3.17h6.18V106h-6.18v1.58Zm0-2.71h6.18v-1.58h-6.18v1.58Zm0-2.79h6.18v-1.51h-6.18v1.51Z"/><path class="cls-2" d="M1278.58,107.63h2.49v-7.09h-2.49v7.09Zm-4.52-7.09-2.11,3.62v-3.62h-3.54l-4.52,7.09h2.79l2.79-4.83v4.83h3l2.87-4.75v4.75h2.26v-7.09Zm16.44,0h-8.59v2.11H1285v5h2.41v-5h3.09v-2.11Z"/><path class="cls-2" d="M1311.15,107.63h2.41v-7.09h-2.41v7.09Zm-3.32-7.09v4.3c0,.45-.15.68-.6.68h-3.09c-.45,0-.6-.23-.6-.68v-4.3h-2.41v4.52c0,2,.9,2.56,2.41,2.56h4.3c1.51,0,2.41-.53,2.41-2.56v-4.52Zm-14.55,0c-1.43,0-2.11.68-2.11,1.88v.9c0,.75.53,1.66,2,1.66h3.69a.69.69,0,0,1,.75.6c0,.3-.23.53-.68.53h-2.71c-.45,0-.68-.08-.75-.75h-2.34c0,1.21,0,2.49,2.19,2.49h4.75a1.8,1.8,0,0,0,1.88-2v-.83a1.73,1.73,0,0,0-1.88-1.88h-4c-.38,0-.6-.23-.6-.45s.3-.45.9-.45h5.5v-1.73Z"/><path class="cls-2" d="M1369.65,100.54h-8.59v2.11h3.09v5h2.41v-5h3.09v-2.11Zm-10.71,5.13v-5.13h-2.41v7.09h7.09v-2Zm19.07-5.13h-7.39v7.09h7.46a2,2,0,0,0,2-2.11v-3.09a2,2,0,0,0-2-1.88Zm-.38,4.6c0,.53-.23.68-.68.68h-4v-3.39h3.92a.71.71,0,0,1,.75.75v2Zm3.09,2.49H1383v-2h-2.26v2Z"/><path class="cls-2" d="M1347.64,107.63h2.19v-2h-2.19v2Zm5.35,0v-2h-2.41v3.92s2.41.15,2.41-1.88Zm-8.14-7.09h-5.73a1.9,1.9,0,0,0-2,2v3.17a1.83,1.83,0,0,0,2,1.88h5.73a1.79,1.79,0,0,0,2-1.88v-3.17a1.9,1.9,0,0,0-2-2Zm-.38,4.67a.49.49,0,0,1-.45.45h-4.07a.49.49,0,0,1-.45-.45V103a.6.6,0,0,1,.68-.68h3.62a.6.6,0,0,1,.68.68v2.26Zm-10.78-.38v.3a.43.43,0,0,1-.45.45h-3.39a.5.5,0,0,1-.53-.45V103c0-.53.23-.68.68-.68h6.11v-1.73H1329a2,2,0,0,0-2.11,2.11v3a1.9,1.9,0,0,0,2.11,2h5.05a1.88,1.88,0,0,0,2-2v-.83Zm-9,1.51-1.36-.68v-1.21h-1.81v.23l-.08.08-2.56-1.28c-.15-.08-.15-.15-.15-.23s.15-.15.23-.15h1.51a.61.61,0,0,1,.68.53H1323v-.53a1.5,1.5,0,0,0-1.73-1.43h-2.94a1.43,1.43,0,0,0-1.58,1.58,1.07,1.07,0,0,0,.3.83,1.51,1.51,0,0,0-.9,1.28v.75a1.39,1.39,0,0,0,1.58,1.51h4.22a2,2,0,0,0,1.21-.45l1,.45.6-1.28Zm-6.63-.75c0-.3.08-.53.45-.53h.53l2,1.06h-2.56c-.3,0-.38-.3-.38-.53Z"/><path id="path21908" class="cls-1" d="M1198.2,152.13l-6.61,6.61,20.82,20.82,20.83-20.82-6.61-6.61-14.22,14.22Zm40.5.06v29.45h29.45V172.3H1248V152.19h-9.34Zm-47.11,48.2,6.61,6.61,14.22-14.22L1226.64,207l6.61-6.61-20.83-20.83Z"/><path class="cls-1" d="M213.92,179.45h-8.61l-.06-.06-7.57-7.49a1.1,1.1,0,0,0-1.19-.23,1.09,1.09,0,0,0-.67,1v6.82h-2.25V162.62a1.1,1.1,0,0,0-.34-.79l-6.29-5.94a1.09,1.09,0,0,0-.75-.3H183a1.09,1.09,0,0,0-1.09,1.09v22.81h-2.23V142.87a1.09,1.09,0,0,0-.68-1,1.11,1.11,0,0,0-1.19.24l-10.42,10.58a1.08,1.08,0,0,0-.31.77v8.17l-4.27-3.19a1.11,1.11,0,0,0-1.33,0l-9.7,7.78a1.08,1.08,0,0,0-.41.85v12.41h-2.2v-6.84a4.72,4.72,0,1,0-9.43,0v6.82h-2.22v-4.64a3.7,3.7,0,1,0-7.39,0v4.64h-2.22v-.21c0-.94,0-2.13,0-2.61a3.24,3.24,0,0,0-6.46,0v2.83h-9.72a1.09,1.09,0,1,0,0,2.18h10.81a1.09,1.09,0,0,0,1.09-1.09v-3.72a1.11,1.11,0,0,1,1-1,1.08,1.08,0,0,1,1,1c0,.28,0,3.7,0,3.7a1.09,1.09,0,0,0,1.09,1.09h4.39a1.09,1.09,0,0,0,1.09-1.09v-5.73a1.52,1.52,0,1,1,3,0v5.73a1.09,1.09,0,0,0,1.09,1.09h4.4a1.09,1.09,0,0,0,1.09-1.09v-7.91a2.55,2.55,0,1,1,5.07,0v7.93a1.09,1.09,0,0,0,1.09,1.09h4.38a1.09,1.09,0,0,0,1.09-1.09v-13l.08-.06,8.56-6.86,4.9,3.66v16.25a1.09,1.09,0,0,0,1.09,1.09h4.37a1.09,1.09,0,0,0,1.09-1.09V167.05a1.1,1.1,0,0,0-.44-.87l-3.93-2.94v-9.35l.06-.06,8.18-8.3v35.05a1.09,1.09,0,0,0,1.09,1.09H183a1.09,1.09,0,0,0,1.09-1.09V157.77h1.62l.06.06,5.58,5.27v17.49a1.09,1.09,0,0,0,1.09,1.09h4.43a1.09,1.09,0,0,0,1.09-1.09v-5.3l6.1,6a1.08,1.08,0,0,0,.77.32h9.06a1.09,1.09,0,1,0,0-2.18ZM171.48,167.6v11.89h-2.19V166Z"/><path class="cls-1" d="M98.61,192.15c-1.94-.59-2.79-1-2.79-2.07s1.32-1.34,2.45-1.34a5.34,5.34,0,0,1,2.77.77.72.72,0,0,0,1-.28l.33-.66a.72.72,0,0,0-.25-.92,7.42,7.42,0,0,0-3.85-1.1c-2.81,0-4.69,1.44-4.69,3.59,0,2.79,2.35,3.49,4.24,4.06s2.84,1,2.83,2.15-1.39,1.6-2.69,1.6a5.48,5.48,0,0,1-3.43-1.43.76.76,0,0,0-.6-.21.71.71,0,0,0-.53.34l-.38.64a.71.71,0,0,0,.11.87,7.1,7.1,0,0,0,4.81,2c2.94,0,4.92-1.53,4.92-3.79,0-2.88-2.37-3.6-4.29-4.18"/><path class="cls-1" d="M111.58,187a.71.71,0,0,0-.65-.42h-.78a.71.71,0,0,0-.65.42L104,199.09a.71.71,0,0,0,.65,1h.8a.71.71,0,0,0,.65-.42l1.37-3h6.16l1.38,3a.71.71,0,0,0,.65.42h.8a.72.72,0,0,0,.65-1Zm-3.14,7.51,2.1-4.65,2.12,4.65Z"/><path class="cls-1" d="M120.7,186.58H120a.72.72,0,0,0-.72.71v12.09a.71.71,0,0,0,.72.72h.73a.71.71,0,0,0,.72-.72V187.29a.72.72,0,0,0-.72-.71"/><path class="cls-1" d="M135.79,186.58h-.71a.71.71,0,0,0-.72.71v8.81l-6.79-9.23a.71.71,0,0,0-.58-.29h-.85a.71.71,0,0,0-.71.71v12.09a.71.71,0,0,0,.71.72h.73a.71.71,0,0,0,.72-.72v-8.8l6.77,9.23a.71.71,0,0,0,.58.29h.85a.71.71,0,0,0,.72-.72V187.29a.71.71,0,0,0-.72-.71"/><path class="cls-1" d="M148.27,186.58h-8.9a.71.71,0,0,0-.71.71V188a.72.72,0,0,0,.71.71h3.37v10.67a.72.72,0,0,0,.72.72h.72a.71.71,0,0,0,.72-.72V188.72h3.37A.72.72,0,0,0,149,188v-.71a.72.72,0,0,0-.72-.71"/><path class="cls-1" d="M153.59,193.17h-3.86a.72.72,0,0,0-.72.71v.59a.72.72,0,0,0,.72.72h3.86a.71.71,0,0,0,.71-.72v-.59a.71.71,0,0,0-.71-.71"/><path class="cls-1" d="M168.62,192.74H165.8a.71.71,0,0,0-.72.72v.73a.72.72,0,0,0,.72.72h1.45v2.21a5.12,5.12,0,0,1-2.88.89,4.66,4.66,0,1,1,0-9.32,5.06,5.06,0,0,1,3.35,1.25.72.72,0,0,0,1-.08l.43-.54a.72.72,0,0,0-.09-1,7.17,7.17,0,0,0-4.73-1.77,6.78,6.78,0,1,0,0,13.56,7.38,7.38,0,0,0,4.76-1.75.71.71,0,0,0,.25-.54v-4.38a.72.72,0,0,0-.72-.72"/><path class="cls-1" d="M178.76,186.56a6.78,6.78,0,1,0,7,6.77,6.88,6.88,0,0,0-7-6.77m0,11.42a4.64,4.64,0,1,1,4.8-4.65,4.74,4.74,0,0,1-4.8,4.65"/><path class="cls-1" d="M197.19,193a3.41,3.41,0,0,0,1.13-2.67c0-2.29-1.72-3.71-4.49-3.71h-4.95a.71.71,0,0,0-.71.71v12.1a.71.71,0,0,0,.71.71h5c3.17,0,5.06-1.48,5.06-4a3.54,3.54,0,0,0-1.74-3.18m-3.37-.9h-3.49v-3.35h3.49c1.07,0,2.35.29,2.35,1.66,0,1.12-.79,1.69-2.35,1.69m-3.49,2.14h3.49c1.1,0,3,.24,3,1.85s-1.61,1.92-3,1.92h-3.49Z"/><path class="cls-1" d="M207.7,187a.72.72,0,0,0-.65-.42h-.78a.71.71,0,0,0-.65.42l-5.49,12.09a.72.72,0,0,0,.65,1h.8a.71.71,0,0,0,.65-.42l1.37-3h6.15l1.38,3a.71.71,0,0,0,.65.42h.8a.72.72,0,0,0,.65-1Zm-3.14,7.51,2.1-4.65,2.12,4.65Z"/><path class="cls-1" d="M216.83,186.58h-.73a.72.72,0,0,0-.72.71v12.09a.72.72,0,0,0,.72.72h.73a.72.72,0,0,0,.72-.72V187.29a.72.72,0,0,0-.72-.71"/><path class="cls-1" d="M231.92,186.58h-.71a.71.71,0,0,0-.71.71v8.81l-6.79-9.23a.71.71,0,0,0-.58-.29h-.85a.72.72,0,0,0-.72.71v12.09a.72.72,0,0,0,.72.72H223a.71.71,0,0,0,.71-.72v-8.8l6.77,9.23a.71.71,0,0,0,.58.29h.85a.71.71,0,0,0,.71-.72V187.29a.71.71,0,0,0-.71-.71"/><rect class="cls-1" x="358.52" y="172.46" width="1.56" height="10.65"/><path class="cls-2" d="M341.54,173.81a4,4,0,1,0,3.9,4A3.88,3.88,0,0,0,341.54,173.81Zm.06-1.45a5.42,5.42,0,1,1-5.43,5.44A5.38,5.38,0,0,1,341.61,172.36Z"/><path class="cls-2" d="M308.8,173.66a1.56,1.56,0,0,0-1.7,1.68,1.31,1.31,0,0,0,.68,1,3.6,3.6,0,0,0,.66.28l1.06.37a6.31,6.31,0,0,1,1.88.89,2.73,2.73,0,0,1,.9,2,3.37,3.37,0,0,1-3.53,3.36,3.42,3.42,0,0,1-3.59-3.28h1.5a2,2,0,0,0,2.09,1.92,1.85,1.85,0,0,0,2-1.77,1.52,1.52,0,0,0-.86-1.39,4.21,4.21,0,0,0-.61-.25l-.84-.28a9.41,9.41,0,0,1-1.61-.64,2.5,2.5,0,0,1-1.25-2.17,3.09,3.09,0,0,1,3.3-3.1,3.19,3.19,0,0,1,3.18,2.9h-1.53A1.7,1.7,0,0,0,308.8,173.66Z"/><path class="cls-2" d="M350.66,172.46h5v1.43h-4.51v3.46h4.51v1.43h-4.51v4.34h-1.56v-9.62A1,1,0,0,1,350.66,172.46Z"/><path class="cls-2" d="M326.9,174.94v8.17h-1.56v-9.67a1.08,1.08,0,0,1,1.08-1.08,1,1,0,0,1,.92.51c1.54,2.5,4.38,7.23,4.69,7.75v-8.17h1.56v9.67a1.08,1.08,0,0,1-1.08,1.08,1,1,0,0,1-.92-.51C330.05,180.19,327.21,175.46,326.9,174.94Z"/><path class="cls-2" d="M318.34,174.42l-1.57,4.3h3.14Zm-2.08,5.69-1.1,3h-1.63L317.36,173a1.06,1.06,0,0,1,2,0l3.82,10.08h-1.62l-1.1-3Z"/><path class="cls-1" d="M449.31,175.82c-2.95-4.33-6.25-.53-9.57-1s-3.41-5,.65-5.36l.3,0A9.15,9.15,0,0,1,449.31,175.82Z"/><path class="cls-2" d="M449.39,176.07a9.15,9.15,0,0,1-14.64,9.55,5.63,5.63,0,0,0,2,.35C445,186,441.49,175,449.39,176.07Z"/><path class="cls-2" d="M437.24,184.87c-1.15.7-3,.49-4.23-1.24a8.29,8.29,0,0,1-.71-1.16,9.12,9.12,0,0,1-.87-3.89,8.87,8.87,0,0,1,.07-1.09c2,2.69,4.29,2.61,5.75,3.48a2.29,2.29,0,0,1,0,3.9Z"/><path class="cls-1" d="M373.38,174.14a2.52,2.52,0,0,0-.56-1,2.74,2.74,0,0,0-1.09-.71,5,5,0,0,0-1.68-.25h-3.87v11h1.41V178.5h1.89a7.66,7.66,0,0,0,1.42-.14,4,4,0,0,0,1.3-.49,2.87,2.87,0,0,0,1-1,3.07,3.07,0,0,0,.37-1.57A4.36,4.36,0,0,0,373.38,174.14Zm-1.43,2.1a1.35,1.35,0,0,1-.49.56,2,2,0,0,1-.8.29,6.89,6.89,0,0,1-1.15.08h-1.92v-3.72h2.2a2.83,2.83,0,0,1,1.8.46,1.61,1.61,0,0,1,.53,1.33A2.29,2.29,0,0,1,371.95,176.24Z"/><polygon class="cls-1" points="391.43 173.46 394.58 173.46 394.58 183.15 395.99 183.15 395.99 173.46 399.14 173.46 399.14 172.14 391.43 172.14 391.43 173.46"/><path class="cls-1" d="M407.24,181.83v1.32H400V173.1a1,1,0,0,1,1-1h6.14v1.32h-5.68v3.34h5.13v1.32h-5.13v3.72Z"/><path class="cls-1" d="M415.24,178.66a7.42,7.42,0,0,1-.15,1.57,2.74,2.74,0,0,1-.46,1.06,1.86,1.86,0,0,1-.81.61,3.41,3.41,0,0,1-1.27.21,2.47,2.47,0,0,1-2-.78,4.36,4.36,0,0,1-.64-2.68v-6.52h-1.41v6.81a4.92,4.92,0,0,0,1,3.29,3.85,3.85,0,0,0,3.08,1.2,3.89,3.89,0,0,0,3.07-1.17,4.88,4.88,0,0,0,1-3.31v-6.81h-1.41Z"/><path class="cls-1" d="M421.13,172.26l1.11,0a9.78,9.78,0,0,1,1.54.13,3.2,3.2,0,0,1,1.75,1,2.6,2.6,0,0,1,.69,1.83,2.74,2.74,0,0,1-.47,1.59,2.92,2.92,0,0,1-1.34,1,5.81,5.81,0,0,1-1.85.34h-.19l.13.15,4.06,4.74h-1.81l-4.11-4.79v-1.4H422a5.31,5.31,0,0,0,1.67-.19,1.6,1.6,0,0,0,.8-.59,1.5,1.5,0,0,0,.29-.9,1.44,1.44,0,0,0-.29-.88,1.63,1.63,0,0,0-.76-.57,4.63,4.63,0,0,0-1.44-.17h-2.13v9.49h-1.44v-9.8a1,1,0,0,1,1-1Z"/><path class="cls-2" d="M379.4,172.89a1.06,1.06,0,0,0-2,0L373.61,183h1.63l1.1-3h4.16l1.1,3h1.63Zm-2.55,5.69,1.57-4.3,1.57,4.31Z"/><path class="cls-2" d="M387.17,173.52a1.56,1.56,0,0,0-1.7,1.68,1.31,1.31,0,0,0,.68,1,3.6,3.6,0,0,0,.66.28l1.06.37a6.31,6.31,0,0,1,1.88.89,2.73,2.73,0,0,1,.9,2,3.37,3.37,0,0,1-3.53,3.36,3.42,3.42,0,0,1-3.59-3.28H385a2,2,0,0,0,2.09,1.92,1.85,1.85,0,0,0,2-1.77,1.52,1.52,0,0,0-.86-1.39,4.21,4.21,0,0,0-.61-.25l-.84-.28a9.41,9.41,0,0,1-1.61-.64,2.5,2.5,0,0,1-1.25-2.17,3.09,3.09,0,0,1,3.3-3.1,3.19,3.19,0,0,1,3.18,2.9H388.9A1.7,1.7,0,0,0,387.17,173.52Z"/><polygon class="cls-2" points="535.83 168.75 520.65 168.75 520.65 173.98 525.94 173.98 525.94 190.49 532.84 190.49 532.84 173.98 539.16 173.98 535.83 168.75 535.83 168.75"/><polygon class="cls-2" points="553.37 184.85 546.06 184.85 546.06 182.38 553.25 182.38 553.25 176.97 546.12 176.97 546.12 173.98 553.25 173.98 553.25 168.75 539.39 168.75 539.39 190.6 553.37 190.6 553.37 184.85 553.37 184.85"/><polygon class="cls-2" points="574.58 168.75 567.68 168.75 564.46 173.24 561.01 168.75 553.37 168.75 560.61 179.44 553.77 190.49 560.32 190.49 564.17 185.02 568.09 190.49 575.67 190.49 567.86 178.81 574.58 168.75 574.58 168.75"/><path class="cls-2" d="M593.44,168.58v22h6.67V174h1.32c3.57-.17,3.62,6.33-.69,6.27-.17,0,6.9,10.41,6.9,10.35h7.3c-.11,0-6.27-10-6.38-9.95.86-.35,2.36-2.88,2.36-5.29,0-3.28-3.1-6.79-7.65-6.79Z"/><path class="cls-2" d="M634.27,179.68A11.44,11.44,0,1,0,622.83,191a11.2,11.2,0,0,0,11.44-11.33Zm-6.61,0a4.83,4.83,0,1,1-4.83-5,4.63,4.63,0,0,1,4.83,5Z"/><polygon class="cls-2" points="654.91 168.69 648.64 168.69 648.64 178.24 642.14 168.69 635.76 168.69 635.76 190.54 642.26 190.54 642.26 180.13 649.5 190.54 654.97 190.54 654.91 168.69 654.91 168.69"/><polygon class="cls-2" points="589.88 168.69 574.7 168.69 574.7 173.87 579.99 173.87 579.99 190.43 586.89 190.43 586.89 173.87 593.27 173.87 589.88 168.69 589.88 168.69"/><path class="cls-1" d="M743.33,173.95a1.6,1.6,0,0,0,3,.77c5-9,13.75-14.93,23.74-14.93,8.69,0,17.52,5.38,23.2,13.37a34,34,0,0,1-10.42,9.68,10.15,10.15,0,0,0,1.66-5.39c0-7.39-6.47-13.38-14.45-13.38A16.86,16.86,0,0,0,753,180.66c0,11.53,9.71,21,22.22,22.33h.17a1.6,1.6,0,0,0,.17-3.2c-10.9-1.12-19.36-9.26-19.36-19.13a13.66,13.66,0,0,1,13.92-13.38c6.21,0,11.24,4.56,11.24,10.17a8.24,8.24,0,0,1-8,8c-4.14,0-7.49-2.88-7.49-6.42a4.28,4.28,0,0,1,4.28-4.28,3.75,3.75,0,0,1,3.69,3.1,1.6,1.6,0,1,0,3.16-.56,7,7,0,0,0-6.85-5.75,7.49,7.49,0,0,0-7.49,7.49c0,5.32,4.79,9.63,10.7,9.63,8.24,0,17.73-6.14,23.85-15.52-6.16-9.83-16.62-16.58-27.07-16.58-11.19,0-21,6.62-26.55,16.58a1.63,1.63,0,0,0-.2.79"/><path class="cls-1" d="M806.9,158.63v9.64a1.34,1.34,0,0,1-1.44,1.45h0a1.34,1.34,0,0,1-1.43-1.45v-9.64h-2.61a.91.91,0,0,1-1-1v0a.91.91,0,0,1,1-1h8.13a.91.91,0,0,1,1,1v0a.91.91,0,0,1-1,1Z"/><path class="cls-1" d="M814.51,168.38a1.23,1.23,0,0,1-1.34,1.34h0a1.24,1.24,0,0,1-1.34-1.34v-7.26c0-.93.38-1.38,1.29-1.38h.05c.92,0,1.38.58,1.38,1.94Zm-1.34-9.31a1.45,1.45,0,0,1-1.49-1.43,1.47,1.47,0,0,1,1.49-1.46,1.46,1.46,0,0,1,1.47,1.46,1.44,1.44,0,0,1-1.47,1.43"/><path class="cls-1" d="M819.51,162.32v6.06a1.23,1.23,0,0,1-1.34,1.34h0a1.23,1.23,0,0,1-1.34-1.34v-7.26c0-.93.39-1.38,1.29-1.38h.05c.67,0,1.12.32,1.29,1.16a6,6,0,0,1,3.49-1.21,2.29,2.29,0,0,1,2.33,1.24,6.1,6.1,0,0,1,3.62-1.24c1.38,0,2.55.63,2.55,2.73v6a1.23,1.23,0,0,1-1.34,1.34h0a1.23,1.23,0,0,1-1.34-1.34v-5.26c0-.94-.32-1.25-1.14-1.25a5.92,5.92,0,0,0-2.09.46v6a1.23,1.23,0,0,1-1.34,1.34h0a1.23,1.23,0,0,1-1.34-1.34v-5.26c0-.94-.32-1.25-1.14-1.25a6.47,6.47,0,0,0-2.09.45"/><path class="cls-1" d="M835.89,163.7h3.64c-.06-1.74-.63-2.29-1.7-2.29s-1.74.47-1.94,2.29m0,1.64c.13,2,1.07,2.5,2.58,2.5s2-.8,2.67-.8.82.34.82.94V168a1.27,1.27,0,0,1-.84,1.17,6.83,6.83,0,0,1-3.06.56c-3.21,0-5-1.9-5-5s2.05-5.09,4.78-5.09c3,0,4.38,1.86,4.38,4.42,0,.79-.43,1.23-1.3,1.23Z"/><path class="cls-1" d="M813.75,173.59c.17-.8.64-1.19,1.27-1.19h.06c1,0,1.36.72,1.16,1.64L813.87,184c-.3,1.26-.93,1.66-1.92,1.66h-.11c-1,0-1.64-.43-1.94-1.7L808.3,177h0l-1.59,7a1.78,1.78,0,0,1-1.92,1.66h-.11c-1,0-1.64-.41-1.94-1.68l-2.29-9.68c-.24-1.07.2-1.88,1.26-1.88h.07a1.48,1.48,0,0,1,1.44,1.3l1.76,8.25h0l1.93-8.12c.24-1,.73-1.43,1.55-1.43h0c.8,0,1.29.43,1.53,1.45l2,8.1h0Z"/><path class="cls-1" d="M822.36,183.2v-1.86a7.85,7.85,0,0,0-1.4-.11c-1.1,0-1.81.39-1.81,1.35s.61,1.38,1.53,1.38a2.5,2.5,0,0,0,1.68-.75m.15,1.38a3.55,3.55,0,0,1-2.84,1.09,2.85,2.85,0,0,1-3.17-2.95c0-2.06,1.64-3.07,3.9-3.07a7.51,7.51,0,0,1,2,.23v-.93c0-.89-.48-1.37-1.79-1.37-1.53,0-1.81.77-2.54.77a.85.85,0,0,1-.82-.94v-.06a1.25,1.25,0,0,1,1-1.27,7.84,7.84,0,0,1,2.83-.48c2.71,0,4.09.9,4.09,3.15v5.51c0,.94-.32,1.38-1.19,1.38h-.06a1.32,1.32,0,0,1-1.32-1.07"/><path class="cls-1" d="M829.92,176.95a3.88,3.88,0,0,1,2.46-1.31c.6,0,1,.3,1,1.1v.06c0,.8-.36,1.16-1.16,1.22a7.78,7.78,0,0,0-2.2.45v5.83a1.23,1.23,0,0,1-1.34,1.34h0a1.24,1.24,0,0,1-1.35-1.34V177c0-.93.39-1.38,1.29-1.38h.06c.65,0,1.12.42,1.31,1.29"/><path class="cls-1" d="M837.55,178.23v6.07a1.23,1.23,0,0,1-1.34,1.34h0a1.23,1.23,0,0,1-1.34-1.34V177c0-.93.39-1.38,1.29-1.38h0c.67,0,1.12.31,1.29,1.17a6.31,6.31,0,0,1,3.62-1.23c1.42,0,2.63.54,2.63,2.75v6a1.23,1.23,0,0,1-1.34,1.34h0A1.24,1.24,0,0,1,841,184.3V179c0-1-.37-1.26-1.21-1.26a6.55,6.55,0,0,0-2.22.45"/><path class="cls-1" d="M848.18,179.61h3.64c-.06-1.73-.63-2.29-1.7-2.29s-1.74.46-1.94,2.29m0,1.65c.13,2,1.06,2.5,2.57,2.5s2-.8,2.67-.8.82.33.82.93v.06a1.28,1.28,0,0,1-.83,1.18,6.88,6.88,0,0,1-3.06.56c-3.21,0-5-1.91-5-5s2.05-5.09,4.78-5.09c3,0,4.38,1.87,4.38,4.42a1.14,1.14,0,0,1-1.3,1.23Z"/><path class="cls-1" d="M858.86,176.95a3.88,3.88,0,0,1,2.46-1.31c.6,0,1,.3,1,1.1v.06c0,.8-.36,1.16-1.16,1.22a7.71,7.71,0,0,0-2.2.45v5.83a1.23,1.23,0,0,1-1.34,1.34h0a1.24,1.24,0,0,1-1.35-1.34V177c0-.93.39-1.38,1.29-1.38h.06c.65,0,1.12.42,1.31,1.29"/><path class="cls-1" d="M806.58,201.61c-3.77,0-6.23-2.46-6.23-6.64s2.67-6.72,6.46-6.72a6.91,6.91,0,0,1,2.82.49,1.48,1.48,0,0,1,1,1.42v.05a1,1,0,0,1-1,1.12c-.82,0-1.29-1-3-1-2.14,0-3.41,1.59-3.41,4.49,0,3.18,1.14,4.67,3.38,4.67,2.07,0,2.26-1.29,3.17-1.29a.94.94,0,0,1,1,1v.09c0,.69-.36,1.19-1.23,1.65a7.28,7.28,0,0,1-3,.61"/><path class="cls-1" d="M818.07,199.11v-1.87a8.18,8.18,0,0,0-1.4-.11c-1.11,0-1.81.39-1.81,1.34s.62,1.38,1.53,1.38a2.51,2.51,0,0,0,1.68-.74m.14,1.38a3.55,3.55,0,0,1-2.83,1.08c-1.83,0-3.17-1-3.17-2.94s1.64-3.07,3.9-3.07a7.42,7.42,0,0,1,2,.23v-.94c0-.89-.49-1.36-1.79-1.36-1.53,0-1.81.77-2.54.77a.85.85,0,0,1-.82-.94v-.05a1.24,1.24,0,0,1,1-1.27,7.85,7.85,0,0,1,2.84-.49c2.7,0,4.09.9,4.09,3.16v5.5c0,.94-.32,1.38-1.19,1.38h-.06a1.33,1.33,0,0,1-1.33-1.06"/><path class="cls-1" d="M825.7,194.09v5a2.63,2.63,0,0,0,1.77.57c1.12,0,2.2-.48,2.2-3s-1-3.06-2.16-3.06a4.83,4.83,0,0,0-1.81.48m0-3.84v2.35a4.49,4.49,0,0,1,3-1.09c1.88,0,3.77,1.24,3.77,4.91s-2.07,5.17-4.18,5.17a4.22,4.22,0,0,1-2.83-.94,1.42,1.42,0,0,1-1.22.9h-.06c-.74,0-1.17-.4-1.17-1.38V189.69c0-.9.37-1.38,1.29-1.38h.06c1,0,1.38.58,1.38,1.94"/><path class="cls-1" d="M837,190.24v10a1.24,1.24,0,0,1-1.35,1.34h0a1.24,1.24,0,0,1-1.34-1.34V189.69c0-.9.37-1.38,1.29-1.38h.06c.93,0,1.38.58,1.38,1.94"/><path class="cls-1" d="M841.52,195.53h3.64c-.06-1.73-.63-2.3-1.7-2.3s-1.73.47-1.94,2.3m0,1.64c.13,2,1.06,2.5,2.58,2.5s2-.8,2.67-.8.82.34.82.93v.06a1.28,1.28,0,0,1-.84,1.18,6.83,6.83,0,0,1-3.06.56c-3.21,0-5-1.9-5-5s2.05-5.1,4.78-5.1c3,0,4.39,1.87,4.39,4.43,0,.78-.43,1.23-1.31,1.23Z"/><path class="cls-1" d="M851,193.4h.28c.25,0,.34-.11.34-.31s-.09-.3-.34-.3H851Zm1.12.79a.24.24,0,0,1-.21.38h0c-.14,0-.23-.08-.32-.25l-.31-.57H851v.56a.23.23,0,0,1-.26.26h0a.24.24,0,0,1-.27-.26v-1.53a.33.33,0,0,1,.37-.36h.5c.56,0,.83.24.83.66a.61.61,0,0,1-.36.57Zm-.86,1a1.64,1.64,0,1,0-1.64-1.63,1.54,1.54,0,0,0,1.64,1.63m0,.37a2,2,0,1,1,2-2,2,2,0,0,1-2,2"/><g id="E8DabR"><path class="cls-1" d="M1023.18,174h1.52l-3-4.72-.9,1.42h1v5.39h-11.11v-5.38h1l-1-1.42-3,4.72h1.66v5.08h-10V174h1.84a.22.22,0,0,0,.22-.12l5.66-9.31.08-.15h-1.36v-5.22h9.89v5.22h-1.44l2,3.12,2-3.12h-1.37v-5.22h9.89v5.22h-1.5l.09.16,5.78,9.27a.25.25,0,0,0,.25.14h1.82v5.08h-10.05Zm-16.55.62,4.13-6.5,2.06,3.35h-1.43v3.83h9.73v-3.85h-1.35l2-3.33,4,6.5h-2v3.83h8.81v-3.84c-.57,0-1.11,0-1.66,0a.36.36,0,0,1-.37-.2L1024.15,164l-.09-.17h2.1v-4h-8.5v4h2l-3.35,5.41-3.28-5.42h2v-4h-8.5v4h2l-.1.17-6.47,10.49a.24.24,0,0,1-.24.13H1000v3.84h8.66v-3.83Z"/><path class="cls-1" d="M1034.23,178.54h.23l.14.55.14-.55h.23v.76h-.16V179h0l-.09.35c-.14.06-.19,0-.21-.13a.91.91,0,0,0-.09-.28v.42h-.16Z"/><path class="cls-1" d="M1033.52,178.67c-.05-.15,0-.14.14-.14.47,0,.47,0,.48.14l-.22,0v.61h-.18v-.6Z"/><path class="cls-3" d="M1006.63,174.65h2.05v3.83H1000v-3.84h1.68a.24.24,0,0,0,.24-.13l6.47-10.49.1-.17h-2v-4h8.5v4h-2l3.28,5.42,3.35-5.41h-2v-4h8.5v4h-2.1l.09.17,6.43,10.43a.36.36,0,0,0,.37.2c.55,0,1.1,0,1.66,0v3.84h-8.81v-3.83h2l-4-6.5-2,3.33h1.35v3.85h-9.73V171.5h1.43l-2.06-3.35Zm9.65-4.39-4.36-7h2.44v-2.75h-7.28v2.76h2.57l-.1.18c-2.35,3.77-4.71,7.53-7,11.31a.9.9,0,0,1-1,.54,6.07,6.07,0,0,0-.87,0v2.6h7.43V175.1h-2.51l5.12-8.17,3.21,5.12H1012v2.69h8.51V172h-1.89l3.13-5,5.28,8.27h-2.59v2.59H1032v-2.6h-1.34a.28.28,0,0,1-.28-.16l-7.54-11.72-.09-.16h2.8v-2.76h-7.28v2.77h2.43Z"/><path class="cls-1" d="M1016.28,170.26l4.43-7h-2.43v-2.77h7.28v2.76h-2.8l.09.16,7.54,11.72a.28.28,0,0,0,.28.16H1032v2.6h-7.58v-2.59H1027l-5.28-8.27-3.13,5h1.89v2.7H1012V172h1.91l-3.21-5.12-5.12,8.17h2.51v2.76h-7.43v-2.6a6.07,6.07,0,0,1,.87,0,.9.9,0,0,0,1-.54c2.33-3.78,4.69-7.54,7-11.31l.1-.18h-2.57v-2.76h7.28v2.75h-2.44Z"/></g><path class="cls-1" d="M1087.7,194.95l1.08-2.93,1.07,2.93h-2.16Zm4,2-2.59-6.52h-.25s-2.17,5.67-2.44,6.34-.59.83-.85.83v.27h2v-.27a.59.59,0,0,1-.62-.52.89.89,0,0,1,0-.28l.49-1.32H1090l.47,1.27a1.06,1.06,0,0,1,.08.32c0,.28-.23.52-.66.52v.27h2.57v-.27a1,1,0,0,1-.77-.64"/><path class="cls-1" d="M1038.77,188.42v-.27h-2.27l-2.95,7.91-3-7.91h-2.3v.27c1,0,1.24.53,1.24,1.48v6c0,1.38-.39,1.73-1.25,1.73v.27h3v-.27c-.84,0-1.24-.36-1.24-1.73v-6.22l3.09,8.24h.28l3.14-8.39v6.37c0,1.38-.31,1.73-1.18,1.73v.27h3.43v-.27c-.84,0-1.16-.36-1.16-1.73v-6.09c0-1.1.59-1.35,1.16-1.35"/><path id="path3025" class="cls-1" d="M1014.56,197.55c-1.37,0-2.16-1.32-2.16-3.36s.79-3.36,2.16-3.36,2.15,1.32,2.15,3.36S1015.93,197.55,1014.56,197.55Zm0-7.15c-1.81,0-3.27,1.49-3.27,3.79s1.46,3.79,3.27,3.79,3.27-1.49,3.27-3.79-1.46-3.79-3.27-3.79"/><path class="cls-1" d="M1024.17,190.53h-5.33v.27c.62,0,.9.29.9.95v4.89c0,.66-.28,1-.9,1v.27h2.84v-.27a.83.83,0,0,1-.93-1v-2.36h1.52c.61,0,.94.34,1,1h.25v-2.53h-.27c0,.7-.4,1-.95,1h-1.58v-2.45c0-.27.17-.32.4-.32h1.46c.87,0,1.18.36,1.37,1.18h.25l-.06-1.65"/><path id="path3029" class="cls-1" d="M999.72,190.54l.06,1.88h-.25c-.23-1.21-.52-1.41-2.11-1.41v5.63a.84.84,0,0,0,1,1v.27h-2.95v-.27a.84.84,0,0,0,1-1V191c-1.59,0-1.89.2-2.11,1.41H994l.06-1.88h5.65"/><path class="cls-1" d="M1005.37,190.8v-.27h2.25v.27a1.57,1.57,0,0,0-1,.7l-1.81,3v2.13c0,.71.26,1,1,1v.27h-3.1v-.27c.77,0,1-.24,1-1v-2l-1.94-3.1a1.42,1.42,0,0,0-1-.72v-.27h2.89v.27c-.4,0-.68.18-.68.39a.89.89,0,0,0,.11.38l1.46,2.42,1.44-2.51a.48.48,0,0,0,.06-.24c0-.2-.11-.44-.67-.44"/><path id="path3033" class="cls-1" d="M988,190.38l.21,2.41H988c-.36-1.19-1-1.92-1.85-1.92a.93.93,0,0,0-1,1c0,.65.47,1,1.06,1.43l1.18.8a2.38,2.38,0,0,1,1.07,1.85,2,2,0,0,1-2.07,2.07c-.72,0-1.18-.36-1.54-.36-.2,0-.29.2-.34.36h-.25l-.3-2.44h.27c.45,1.25,1.1,2,2,2a1.16,1.16,0,0,0,1.2-1.24,1.5,1.5,0,0,0-.8-1.33l-1.45-1a2,2,0,0,1-.91-1.75,1.75,1.75,0,0,1,1.81-1.85c.5,0,1,.32,1.35.32a.32.32,0,0,0,.34-.32H988"/><path id="path3037" class="cls-1" d="M975.29,195.95a1.9,1.9,0,0,1-1.9,1.43h-1.16c-.43,0-.61-.15-.61-.5v-2.61h1.58c.61,0,.93.34,1,1h.25v-2.53h-.27c0,.7-.4,1-1,1h-1.63v-2.45c0-.27.17-.32.4-.32h1.41c.88,0,1.18.36,1.37,1.18H975l-.06-1.65h-5.27v.27c.62,0,.89.29.89.95v4.89c0,.66-.28,1-.89,1v.27h5.4l.48-1.9h-.31"/><path class="cls-1" d="M978.47,194v-2.47c0-.51.1-.63.67-.63,1.24,0,1.69.61,1.69,1.52,0,1.13-.85,1.58-2.11,1.58Zm3.79,3.22c-.17-.2-1.8-2.43-2.16-2.93,1.31-.28,1.78-.94,1.78-1.9,0-1.14-.86-1.9-2.42-1.9h-2.93v.27c.62,0,.89.29.89.95v4.89c0,.66-.28,1-.89,1v.27h2.84v-.27c-.61,0-.89-.29-.89-1v-2.15l.55,0,2.38,3.38H983v-.23a1,1,0,0,1-.74-.36"/><path id="path3041" class="cls-1" d="M959.77,191.74a.84.84,0,0,1,1-.95v-.27h-2.95v.27a.84.84,0,0,1,1,.95v4.89a.84.84,0,0,1-1,1v.27h2.95v-.27a.84.84,0,0,1-1-1v-4.89"/><path class="cls-1" d="M964.6,190.79v-.27h-2.68v.27c.33,0,.67.21.89.76l2.65,6.41h.17s2.11-5.9,2.3-6.41.51-.76.82-.76v-.27h-2.07v.27c.45,0,.7.25.7.57a.9.9,0,0,1-.06.29L965.78,196,964,191.59a.92.92,0,0,1-.06-.33c0-.29.24-.47.7-.47"/><path class="cls-1" d="M940,188.42c.8,0,1.22.4,1.22,1.54v4.53c0,2.29,1.26,3.5,3.44,3.5a3.11,3.11,0,0,0,3.33-3.35v-4.95c0-.76.23-1.27,1.14-1.27v-.27h-2.89v.27c.82,0,1.16.36,1.18,1.35s.08,3.57.08,5.12a2.6,2.6,0,0,1-5.19-.15v-5.06c0-.75.29-1.26,1.14-1.26v-.27H940v.27"/><path id="path3047" class="cls-1" d="M953.91,190.53v.27c.57,0,.92.44.92,1.1v3.85L951,190.53h-1.65v.27a.93.93,0,0,1,.72.32l.21.28v4.91c0,.84-.28,1.27-.95,1.27v.27h2.34v-.27c-.57,0-.91-.38-.91-1V192l4.37,5.93h.15v-5.9c0-.93.38-1.27,1-1.27v-.27h-2.34"/><path id="path3047-2" data-name="path3047" class="cls-1" d="M1048.58,190.53v.27c.57,0,.92.44.92,1.1v3.85l-3.81-5.22H1044v.27a.93.93,0,0,1,.72.32l.21.28v4.91c0,.84-.28,1.27-.95,1.27v.27h2.34v-.27c-.57,0-.91-.38-.91-1V192l4.37,5.93h.15v-5.9c0-.93.38-1.27,1-1.27v-.27h-2.34"/><path id="path3047-3" data-name="path3047" class="cls-1" d="M1056.7,190.53v.27c.57,0,.92.44.92,1.1v3.85l-3.81-5.22h-1.65v.27a.93.93,0,0,1,.72.32l.21.28v4.91c0,.84-.28,1.27-.95,1.27v.27h2.34v-.27c-.57,0-.91-.38-.91-1V192l4.37,5.93h.15v-5.9c0-.93.38-1.27,1-1.27v-.27h-2.34"/><path id="path3041-2" data-name="path3041" class="cls-1" d="M992.07,191.74a.84.84,0,0,1,1-.95v-.27h-2.95v.27a.84.84,0,0,1,1,.95v4.89a.84.84,0,0,1-1,1v.27H993v-.27a.84.84,0,0,1-1-1v-4.89"/><path id="path3041-3" data-name="path3041" class="cls-1" d="M1041.56,191.74a.84.84,0,0,1,1-.95v-.27h-2.95v.27a.84.84,0,0,1,1,.95v4.89a.84.84,0,0,1-1,1v.27h2.95v-.27a.84.84,0,0,1-1-1v-4.89"/><path id="path3037-2" data-name="path3037" class="cls-1" d="M1065.68,195.95a1.9,1.9,0,0,1-1.9,1.43h-1.16c-.43,0-.61-.15-.61-.5v-2.61h1.58c.61,0,.93.34,1,1h.25v-2.53h-.27c0,.7-.4,1-1,1H1062v-2.45c0-.27.17-.32.4-.32h1.41c.88,0,1.18.36,1.37,1.18h.25l-.06-1.65h-5.27v.27c.62,0,.89.29.89.95v4.89c0,.66-.28,1-.89,1v.27h5.4l.48-1.9h-.31"/><path id="path3033-2" data-name="path3033" class="cls-1" d="M1071.25,190.38l.21,2.41h-.27c-.36-1.19-1-1.92-1.85-1.92a.93.93,0,0,0-1,1c0,.65.47,1,1.06,1.43l1.18.8a2.38,2.38,0,0,1,1.07,1.85,2,2,0,0,1-2.07,2.07c-.72,0-1.18-.36-1.54-.36-.2,0-.29.2-.34.36h-.25l-.3-2.44h.27c.45,1.25,1.1,2,2,2a1.16,1.16,0,0,0,1.2-1.24,1.5,1.5,0,0,0-.8-1.33l-1.45-1a2,2,0,0,1-.91-1.75,1.75,1.75,0,0,1,1.81-1.85c.5,0,1,.32,1.35.32a.32.32,0,0,0,.34-.32h.27"/><path id="path3029-2" data-name="path3029" class="cls-1" d="M1086,190.54l.06,1.88h-.25c-.23-1.21-.52-1.41-2.11-1.41v5.63a.84.84,0,0,0,1,1v.27h-2.95v-.27a.84.84,0,0,0,1-1V191c-1.59,0-1.89.2-2.11,1.41h-.25l.06-1.88H1086"/><path id="path3025-2" data-name="path3025" class="cls-1" d="M1076.24,197.55c-1.37,0-2.16-1.32-2.16-3.36s.79-3.36,2.16-3.36,2.15,1.32,2.15,3.36S1077.61,197.55,1076.24,197.55Zm0-7.15c-1.81,0-3.27,1.49-3.27,3.79s1.46,3.79,3.27,3.79,3.27-1.49,3.27-3.79-1.46-3.79-3.27-3.79"/></svg>