<?xml version="1.0" encoding="utf-8"?>
<!-- Generator: Adobe Illustrator 22.0.1, SVG Export Plug-In . SVG Version: 6.00 Build 0)  -->
<svg version="1.1" id="Layer_1" xmlns="http://www.w3.org/2000/svg" xmlns:xlink="http://www.w3.org/1999/xlink" x="0px" y="0px"
	 viewBox="0 0 32 32" style="enable-background:new 0 0 32 32;" xml:space="preserve">
<style type="text/css">
	.st0{fill:#696E75;}
</style>
<title>logo</title>
<path id="Shape" class="st0" d="M7.8,11c0-0.3-0.1-0.5-0.3-0.7l-2-2.4V7.5h6.2L16.6,18l4.2-10.5h5.9v0.4L25,9.5
	c-0.1,0.1-0.2,0.3-0.2,0.5V22c0,0.2,0,0.4,0.2,0.5l1.7,1.6v0.4h-8.4v-0.4l1.7-1.7c0.2-0.2,0.2-0.2,0.2-0.5v-9.8l-4.8,12.3h-0.6
	L9.1,12.2v8.2c-0.1,0.3,0.1,0.7,0.3,0.9l2.2,2.7v0.4H5.2v-0.4l2.3-2.7c0.2-0.2,0.3-0.6,0.3-0.9V11z"/>
</svg>
