<svg id="Layer_1" data-name="Layer 1" xmlns="http://www.w3.org/2000/svg" viewBox="0 0 32 32"><defs><style>.cls-1{fill:#dc4a38;}</style></defs><title>logo</title><path class="cls-1" d="M10.47,15.48v2.3h5.4a5.3,5.3,0,0,1-5.25,4.5A6.28,6.28,0,1,1,14.9,11.4l1.77-1.53a8.6,8.6,0,1,0-6,14.73c4.56,0,7.86-3.48,7.86-8.23v-.89Z"/><polygon class="cls-1" points="29.98 15.58 26.67 15.58 26.67 12.28 24.57 12.28 24.57 15.58 21.26 15.58 21.26 17.69 24.57 17.69 24.57 20.99 26.67 20.99 26.67 17.69 29.98 17.69 29.98 15.58"/></svg>