<?xml version="1.0" encoding="utf-8"?>
<!-- Generator: Adobe Illustrator 22.0.1, SVG Export Plug-In . SVG Version: 6.00 Build 0)  -->
<svg version="1.1" id="Layer_1" xmlns="http://www.w3.org/2000/svg" xmlns:xlink="http://www.w3.org/1999/xlink" x="0px" y="0px"
	 viewBox="0 0 190.2 31.7" style="enable-background:new 0 0 190.2 31.7;" xml:space="preserve">
<style type="text/css">
	.st0{fill:#696E75;}
</style>
<g>
	<g id="Q6rY7a_1_">
		<g>
			<path class="st0" d="M90,18c0.1,0.5,0.2,1.1,0.3,1.3c-0.5,1.3-0.9,2.3-1.3,3.4c-1.8,0.7-3.1,0.4-4-1c-0.7-1.1-0.6-2.4,0.3-3.3
				C86.3,17.2,88,17,90,18z"/>
			<path class="st0" d="M96.6,28.1c-1.6,0-3-1.2-3-2.6s1.4-2.5,3-2.5s2.8,1.1,2.8,2.5C99.5,26.9,98.2,28.1,96.6,28.1z"/>
			<path class="st0" d="M97.6,28.9c1-0.8,1.8-1.5,2.7-2.3c1.6-0.1,2.8,0.7,3,2.1c0.1,1.4-1,2.6-2.6,2.7C99,31.6,97.9,30.7,97.6,28.9
				z"/>
			<path class="st0" d="M95.7,22.2c-1,0.8-2,1.6-3,2.4c-1.8-0.2-2.8-1.1-2.7-2.6c0.1-1.3,1.3-2.4,2.9-2.5
				C94.5,19.5,95.5,20.5,95.7,22.2z"/>
			<path class="st0" d="M92.4,25.8c1.1,1.1,1.9,2,2.9,3.1c-0.4,1.4-1.4,2.1-3.1,1.8c-1.5-0.2-2.4-1.2-2.4-2.5S90.7,26.1,92.4,25.8z"
				/>
			<path class="st0" d="M104.1,30.5c-0.1-1.2-0.2-2.3-0.3-3.4c1.3-0.9,3-0.9,4,0c0.8,0.8,0.9,1.9,0.3,2.8
				C107.2,31.1,105.8,31.3,104.1,30.5z"/>
			<path class="st0" d="M100.3,25.5c-0.1-0.5-0.3-1-0.5-1.7c0.3-0.3,0.6-0.5,0.9-0.8s0.5-0.6,0.7-0.9c2.8-0.5,4.3,0.8,3.7,3.3
				c-0.7,0.3-1.4,0.7-2.1,1C102.1,26.1,101.2,25.8,100.3,25.5z"/>
			<path class="st0" d="M84.7,26.9c1.4,1,2.6,1.9,3.8,2.8c-0.3,1.3-1.2,2-2.7,2c-1.4,0-2.6-0.9-2.8-2.1
				C82.7,28.4,83.3,27.5,84.7,26.9z"/>
			<path class="st0" d="M89.5,23.7c0.7,0.5,1.3,1,2.1,1.6c-1.6,0.6-2.4,1.7-2.5,3.2c-1.9,0-3.1-0.9-3.1-2.3
				C85.9,24.6,87.2,23.6,89.5,23.7z"/>
			<path class="st0" d="M99.4,23.2c-1-0.4-1.8-0.7-2.6-1c-0.4-0.9-0.8-1.7-1.2-2.5c1.5-1.4,3.3-1.4,4.6-0.1
				C101.2,20.7,100.9,22.1,99.4,23.2z"/>
			<path class="st0" d="M109.4,27.6c1.6-0.3,2.5,0.1,3,1.1c0.4,0.8,0.2,1.6-0.5,2.2c-0.9,0.9-2,0.9-3.4,0.1
				C108.8,30,109.1,28.9,109.4,27.6z"/>
			<path class="st0" d="M96.2,18.2c-0.5,0.4-0.9,0.7-1.2,1c-1.5,0-2.7,0-4,0c-0.3-1.6,0.1-2.4,1.5-2.8
				C94.2,15.8,95.6,16.4,96.2,18.2z"/>
			<path class="st0" d="M78.9,21.5c0.3-0.6,0.7-1.1,1.1-1.8c2,1.4,3.9,2.7,6.2,4.3c-0.7,0.1-1.1,0.3-1.3,0.2c-0.8-0.4-1.6-1-2.4-1.4
				C81.4,22.4,80.3,22,78.9,21.5z"/>
			<path class="st0" d="M111.1,26.8c-0.8,0.1-1.5,0.1-2.2,0.2c-0.9-0.5-1.8-1-2.7-1.5C107.7,23.7,110.1,24.3,111.1,26.8z"/>
		</g>
	</g>
	<g>
		<path class="st0" d="M16.9,1c0-0.1-0.6-0.3-1-0.4V0.4h5v0.3c-0.7,0.1-0.9,0.2-1,0.5l-7.3,14.3c0.2,0.3,0.5,0.3,0.9,0.3v0.3h-6
			v-0.3c0.6,0,0.9-0.1,0.9-0.3l-0.1-0.3l-7-14C1,0.8,0.9,0.8,0,0.7V0.4h5.5v0.3C4.6,0.9,4.6,0.9,4.6,1.1l6,12L16.9,1z"/>
		<path class="st0" d="M42.7,0.7c-0.7,0.1-1,0.2-1,0.5v14.1c0,0.3,0.2,0.4,1,0.5v0.3h-5.2v-0.3c0.7-0.1,1-0.2,1-0.5V1.2
			c0-0.3-0.2-0.4-1-0.5V0.4h5.2V0.7z"/>
		<path class="st0" d="M75.1,15.8c0.8-0.1,0.8-0.1,0.9-0.3L65,4.1v11.1c0,0.3,0.2,0.4,1,0.6v0.3h-4.8v-0.3c0.8-0.1,1-0.2,1-0.5v-14
			c0-0.3-0.2-0.4-1-0.5V0.4H67v0.3c-0.5,0-0.8,0.1-0.9,0.2l10.5,10.9V1.2c0-0.3-0.2-0.4-1-0.5V0.4h4.8v0.3c-0.8,0.1-1,0.2-1,0.5v14
			c0,0.3,0.2,0.4,1,0.5V16h-5.3V15.8z"/>
		<path class="st0" d="M116.5,13.7c-0.3-0.3-0.5-0.4-0.7-0.4s-0.6,0.2-1.1,0.6c-2.2,1.6-4.8,2.6-7.5,2.6c-6.6,0-10.2-3.9-10.2-8.2
			c0-4.9,4.2-8.3,10.2-8.3c2.4,0,4.8,0.6,7,1.6c0.5,0.2,0.8,0.3,0.9,0.3s0.3-0.1,0.7-0.5l0.4,0.2l-2.7,3.6L113.2,5
			c0.1-0.2,0.2-0.4,0.2-0.7c0-0.4-2.6-2-5.9-2c-4,0-6.8,2.4-6.8,5.9c0,3.3,2.8,5.9,6.5,5.9c3.4,0,6.9-2.5,6.9-3.1
			c0-0.2-0.2-0.4-0.4-0.6l0.3-0.2l3,3.3L116.5,13.7z"/>
		<path class="st0" d="M152.7,8.2c0,4.1-3.5,8.3-10.7,8.3s-10.7-4.2-10.7-8.3S134.8,0,142,0S152.7,4.1,152.7,8.2z M134.9,8.2
			c0,3.4,2.3,5.9,7.1,5.9s7.1-2.5,7.1-5.9s-2.3-5.9-7.1-5.9C137.2,2.4,134.9,4.8,134.9,8.2z"/>
		<path class="st0" d="M173.4,9.5v5.8c0,0.3,0.2,0.4,1,0.5v0.3h-5.2v-0.3c0.7-0.1,1-0.2,1-0.5v-14c0-0.3-0.2-0.4-1-0.5V0.4h14
			c4.9,0,6.3,2.8,6.3,4.5c0,2-1.4,4-5.2,4.4l4.6,5.7c0.4,0.5,0.6,0.8,1.3,0.8v0.3h-5.4v-0.3c0.5-0.1,0.8-0.2,0.8-0.4
			c0-0.1,0-0.1-0.1-0.2l-4.8-5.8L173.4,9.5L173.4,9.5z M173.4,2.8v4.4h9.4c1.5,0,3.1-0.5,3.1-2.2c0-1.4-1.3-2.2-3.1-2.2H173.4z"/>
	</g>
	<rect x="1" y="20.1" class="st0" width="74" height="0.9"/>
	<rect x="1" y="22.2" class="st0" width="74" height="0.5"/>
	<rect x="112.2" y="20.1" class="st0" width="78" height="0.9"/>
	<rect x="112.2" y="22.2" class="st0" width="78" height="0.5"/>
</g>
</svg>
