<?xml version="1.0" encoding="utf-8"?>
<!-- Generator: Adobe Illustrator 22.0.1, SVG Export Plug-In . SVG Version: 6.00 Build 0)  -->
<svg version="1.1" id="Layer_1" xmlns="http://www.w3.org/2000/svg" xmlns:xlink="http://www.w3.org/1999/xlink" x="0px" y="0px"
	 viewBox="0 0 122.7 122.7" style="enable-background:new 0 0 122.7 122.7;" xml:space="preserve">
<style type="text/css">
	.st0{fill:#696E75;}
	.st1{fill:#FFFFFF;}
</style>
<g>
	<rect class="st0" width="122.7" height="122.7"/>
	<g>
		<path class="st1" d="M47.9,110.8c-1.7,1.1-3.6,1.7-5.6,1.7c-3.2,0-5.1-2.1-5.1-5c0-3.8,3.5-5.8,10.7-6.7v-1c0-1.2-0.9-2-2.7-2
			c-1.7,0-3.2,0.7-4.2,2l-3-1.7c1.6-2.2,4-3.3,7.3-3.3c4.4,0,6.9,1.9,6.9,5.1c0,0,0,12.3,0,12.4h-4L47.9,110.8z M41.6,107.2
			c0,1.1,0.7,2.2,2,2.2c1.4,0,2.8-0.6,4.2-1.8v-4C43.6,104.1,41.6,105.2,41.6,107.2"/>
		<path class="st1" d="M55.9,95.7l3.7-0.5l0.4,2c2.1-1.5,3.8-2.4,5.9-2.4c3.5,0,5.3,1.9,5.3,5.6v11.9h-4.5v-11.1c0-2.1-0.5-3-2.2-3
			c-1.3,0-2.7,0.6-4.2,1.9v12.3h-4.4C55.9,112.4,55.9,95.7,55.9,95.7z"/>
		<path class="st1" d="M100.9,112.6c-5,0-8-3.2-8-8.9c0-5.7,3-8.9,8-8.9c4.9,0,7.9,3.1,7.9,8.7c0,0.3,0,0.6,0,0.9H97.3
			c0,3.2,1.4,4.9,4,4.9c1.7,0,2.8-0.7,3.9-2.2l3.3,1.8C107.1,111.3,104.5,112.6,100.9,112.6 M104.3,101.5c0-2.3-1.3-3.6-3.4-3.6
			c-2,0-3.3,1.3-3.5,3.6H104.3z"/>
		<path class="st1" d="M14.9,112.8c-4.4,0-8.5-2.8-8.5-9s4-9,8.5-9c4.4,0,8.4,2.8,8.4,9C23.4,109.9,19.4,112.8,14.9,112.8
			 M14.9,98.6c-3.4,0-4,3-4,5.2s0.6,5.2,4,5.2c3.3,0,4-3,4-5.2S18.3,98.6,14.9,98.6"/>
		<path class="st1" d="M26.5,95.2h4.3v2c0.8-1.1,2.8-2.4,4.7-2.4c0.2,0,0.4,0,0.6,0V99h-0.2c-1.9,0-4.1,0.3-4.8,1.8v11.4h-4.6
			C26.5,112.2,26.5,95.2,26.5,95.2z"/>
		<path class="st1" d="M82.2,108.6c3.4,0,3.7-3.5,3.7-5.8c0-2.7-1.3-4.8-3.7-4.8c-1.6,0-3.4,1.2-3.4,5
			C78.7,105.2,78.9,108.6,82.2,108.6 M90.2,95.1v16.2c0,2.8-0.2,7.5-8.4,7.6c-3.4,0-6.5-1.3-7.1-4.3l4.4-0.7
			c0.2,0.9,0.7,1.7,3.2,1.7c2.3,0,3.5-1.1,3.5-3.8v-2l-0.1-0.1c-0.7,1.3-1.8,2.5-4.4,2.5c-4,0-7.1-2.8-7.1-8.5s3.2-8.9,6.9-8.9
			c3.4,0,4.7,1.5,5,2.4l0,0l0.4-2L90.2,95.1L90.2,95.1z"/>
		<path class="st1" d="M110.5,89.5h-1.8v4.9h-0.9v-4.9H106v-0.8h4.5V89.5z M117.9,94.4H117v-4.7l0,0l-1.8,4.7h-0.6l-1.8-4.7l0,0v4.7
			h-0.9v-5.6h1.4l1.7,4.3l1.7-4.3h1.4v5.6H117.9z"/>
	</g>
</g>
</svg>
