<?xml version="1.0" encoding="utf-8"?>
<!-- Generator: Adobe Illustrator 22.0.1, SVG Export Plug-In . SVG Version: 6.00 Build 0)  -->
<svg version="1.1" id="Layer_1" xmlns="http://www.w3.org/2000/svg" xmlns:xlink="http://www.w3.org/1999/xlink" x="0px" y="0px"
	 viewBox="0 0 32 32" style="enable-background:new 0 0 32 32;" xml:space="preserve">
<style type="text/css">
	.st0{fill:#696E75;}
</style>
<title>logo</title>
<path class="st0" d="M3.5,23.8c2.3,1.5,5.1,2.3,7.8,2.3c8,0,14.5-6.4,14.5-14.4c0-0.3,0-0.6,0-0.8c1-0.7,1.9-1.6,2.5-2.7
	c-0.9,0.4-1.9,0.7-2.9,0.8c1.1-0.6,1.9-1.6,2.2-2.8c-1,0.6-2.1,1-3.2,1.2c-1.9-2.1-5.2-2.1-7.2-0.2c-1.3,1.2-1.9,3.1-1.5,4.9
	C11.7,11.9,7.9,10,5.3,6.8c-1.4,2.3-0.7,5.3,1.6,6.8c-0.8,0-1.6-0.2-2.3-0.6c0,2.5,1.7,4.6,4.1,5.1c-0.7,0.2-1.5,0.2-2.3,0.1
	c0.7,2.1,2.6,3.5,4.8,3.5C9,23.4,6.2,24.2,3.5,23.8z"/>
</svg>
