<?xml version="1.0" encoding="utf-8"?>
<!-- Generator: Adobe Illustrator 22.0.1, SVG Export Plug-In . SVG Version: 6.00 Build 0)  -->
<svg version="1.1" id="Layer_1" xmlns="http://www.w3.org/2000/svg" xmlns:xlink="http://www.w3.org/1999/xlink" x="0px" y="0px"
	 viewBox="0 0 126.4 45.3" style="enable-background:new 0 0 126.4 45.3;" xml:space="preserve">
<style type="text/css">
	.st0{fill:#696E75;}
</style>
<g>
	<g>
		<path class="st0" d="M52.5,34.8c-0.7-0.5-1.8-0.7-3.2-0.7h-5c-0.1,0-0.2,0.1-0.2,0.2v0.4c0,0.1,0.1,0.2,0.2,0.2
			c0.6,0.1,0.8,0.2,0.9,0.3c0.1,0,0.2,0.2,0.2,0.9V43c0,0.6-0.1,0.9-0.2,0.9c-0.1,0.1-0.3,0.2-0.9,0.3c-0.1,0-0.2,0.1-0.2,0.2v0.4
			c0,0.1,0.1,0.2,0.2,0.2h5.2c0.1,0,0.2-0.1,0.2-0.2v-0.4c0-0.1-0.1-0.2-0.2-0.2c-0.6,0-0.8-0.1-0.9-0.2c-0.1-0.1-0.2-0.3-0.2-1
			v-2.7c0.8,0,1.5,0,1.9-0.1c0.5,0,1-0.2,1.5-0.4c0.7-0.3,1.2-0.7,1.5-1.2s0.4-1,0.4-1.6C53.7,36,53.3,35.2,52.5,34.8z M48.4,39.3
			v-4c0-0.2,0.1-0.2,0.1-0.2c0.1,0,0.2-0.1,0.6-0.1c0.6,0,1,0.2,1.2,0.5c0.2,0.4,0.3,0.9,0.3,1.6c0,1-0.2,1.6-0.6,1.8
			C49.8,39.2,49.3,39.3,48.4,39.3z"/>
		<path class="st0" d="M62,44.3c-0.3-0.1-0.4-0.1-0.5-0.2c0,0-0.1-0.1-0.1-0.5v-3.8c0-0.9-0.2-1.6-0.7-2c-0.4-0.4-1-0.6-1.6-0.6
			c-0.5,0-0.9,0.1-1.3,0.3c-0.2,0.1-0.4,0.3-0.7,0.5v-3.8c0-0.1-0.1-0.2-0.2-0.2h-3c-0.1,0-0.2,0.1-0.2,0.2v0.4
			c0,0.1,0.1,0.2,0.2,0.2c0.4,0,0.5,0.1,0.5,0.2c0,0,0.1,0.2,0.1,0.5v8c0,0.4-0.1,0.5-0.1,0.5c-0.1,0.1-0.3,0.1-0.5,0.2
			c-0.1,0-0.2,0.1-0.2,0.2v0.4c0,0.1,0.1,0.2,0.2,0.2h3.8c0.1,0,0.2-0.1,0.2-0.2v-0.4c0-0.1-0.1-0.2-0.2-0.2
			c-0.3-0.1-0.4-0.1-0.5-0.2c0,0-0.1-0.1-0.1-0.5v-4.1c0,0,0-0.1,0.4-0.4c0.2-0.2,0.5-0.3,0.7-0.3c0.3,0,0.4,0.1,0.5,0.3
			c0,0.1,0.1,0.3,0.1,0.7v3.8c0,0.4-0.1,0.5-0.1,0.5s-0.1,0.1-0.5,0.2c-0.1,0-0.2,0.1-0.2,0.2v0.4c0,0.1,0.1,0.2,0.2,0.2H62
			c0.1,0,0.2-0.1,0.2-0.2v-0.4C62.2,44.4,62.1,44.3,62,44.3z"/>
		<path class="st0" d="M69.9,43.7c0-0.1-0.1-0.1-0.2-0.1s-0.1,0-0.2,0.1s-0.2,0.1-0.2,0.1s0,0-0.1,0v-0.1v-3.8c0-1-0.3-1.7-1-2.1
			c-0.6-0.4-1.4-0.5-2.3-0.5s-1.6,0.2-2.2,0.6c-0.6,0.4-1,0.9-1,1.6c0,0.4,0.1,0.7,0.4,0.9c0.3,0.2,0.6,0.3,0.9,0.3
			c0.3,0,0.6-0.1,0.8-0.3c0.3-0.2,0.4-0.5,0.4-0.9c0-0.1,0-0.3-0.1-0.4C65,39,65,38.9,64.9,38.8l-0.1-0.1c0,0,0-0.1-0.1-0.1l0,0
			c0,0,0-0.1,0.2-0.2c0.1-0.1,0.3-0.1,0.6-0.1c0.4,0,0.7,0.1,0.9,0.3c0.2,0.2,0.2,0.5,0.2,0.9v1c-1.4,0.4-2.4,0.8-3.1,1.2
			c-0.7,0.5-1.1,1.1-1.1,1.9c0,0.7,0.2,1.1,0.7,1.5c0.7,0.5,1.5,0.6,2.4,0.3c0.5-0.2,0.9-0.4,1.3-0.7c0.1,0.2,0.1,0.3,0.2,0.4
			c0.3,0.3,0.7,0.5,1.2,0.5c0.3,0,0.6-0.1,0.8-0.2c0.4-0.2,0.8-0.4,1.1-0.8c0.1-0.1,0.1-0.2,0-0.3L69.9,43.7z M65.9,41.7
			c0.2-0.2,0.5-0.3,0.7-0.4v1.9c-0.1,0.1-0.2,0.3-0.3,0.3c-0.2,0.1-0.4,0.2-0.6,0.2c-0.1,0-0.2-0.1-0.4-0.2
			c-0.1-0.1-0.2-0.3-0.2-0.6C65.2,42.4,65.5,42,65.9,41.7z"/>
		<path class="st0" d="M75.5,37.3c-0.5,0-0.9,0.1-1.3,0.4c-0.2,0.2-0.4,0.4-0.6,0.6v-0.6c0-0.1-0.1-0.2-0.2-0.2h-3
			c-0.1,0-0.2,0.1-0.2,0.2V38c0,0.1,0.1,0.2,0.2,0.2c0.4,0,0.5,0.1,0.5,0.2c0,0,0.1,0.1,0.1,0.5v4.2v0.5c0,0.3-0.1,0.4-0.1,0.5
			c0,0-0.2,0.1-0.5,0.2c-0.1,0-0.2,0.1-0.2,0.2v0.4c0,0.1,0.1,0.2,0.2,0.2h4.2c0.1,0,0.2-0.1,0.2-0.2v-0.4c0-0.1-0.1-0.2-0.2-0.2
			c-0.5,0-0.7-0.1-0.8-0.2c0,0-0.1-0.2-0.1-0.8v-3c0-0.4,0.1-0.7,0.3-1c0.2-0.2,0.3-0.3,0.4-0.3c0,0,0.1,0.1,0.4,0.4
			c0.3,0.4,0.6,0.6,1,0.6s0.7-0.1,0.9-0.4c0.2-0.2,0.3-0.5,0.3-0.9c0-0.5-0.2-0.8-0.5-1.1C76.2,37.4,75.9,37.3,75.5,37.3z"/>
		<path class="st0" d="M89.8,44.3c-0.3,0-0.4-0.1-0.5-0.1c0,0-0.1-0.1-0.1-0.5v-3.9c0-0.8-0.2-1.4-0.7-1.8c-0.5-0.4-1-0.6-1.6-0.6
			c-0.5,0-1.1,0.2-1.5,0.5c-0.2,0.2-0.5,0.4-0.7,0.7c-0.2-0.3-0.3-0.5-0.5-0.7c-0.4-0.3-0.9-0.5-1.6-0.5c-0.6,0-1.2,0.2-1.7,0.6
			c-0.1,0.1-0.3,0.2-0.4,0.3v-0.5c0-0.1-0.1-0.2-0.2-0.2h-3c-0.1,0-0.2,0.1-0.2,0.2V38c0,0.1,0.1,0.2,0.2,0.2c0.4,0,0.5,0.1,0.5,0.2
			c0,0,0.1,0.1,0.1,0.5v4.6c0,0.2,0,0.5-0.2,0.6c0,0-0.1,0.1-0.5,0.1c-0.1,0-0.2,0.1-0.2,0.2v0.4c0,0.1,0.1,0.2,0.2,0.2h3.7
			c0.1,0,0.2-0.1,0.2-0.2v-0.4c0-0.1-0.1-0.2-0.2-0.2c-0.3-0.1-0.4-0.1-0.5-0.2c0,0-0.1-0.1-0.1-0.5v-4.1c0,0,0.1-0.1,0.3-0.4
			c0.2-0.2,0.5-0.3,0.7-0.3c0.3,0,0.4,0.1,0.5,0.2c0.1,0.2,0.1,0.5,0.1,0.8v3.8c0,0.4-0.1,0.5-0.1,0.5s-0.2,0.1-0.5,0.1
			c-0.1,0-0.2,0.1-0.2,0.2v0.4c0,0.1,0.1,0.2,0.2,0.2H85c0.1,0,0.2-0.1,0.2-0.2v-0.4c0-0.1-0.1-0.2-0.2-0.2
			c-0.3-0.1-0.4-0.1-0.5-0.2c0,0-0.1-0.1-0.1-0.5v-4.1c0,0,0-0.1,0.4-0.4c0.3-0.2,0.5-0.3,0.7-0.3c0.3,0,0.4,0.1,0.5,0.2
			c0.1,0.2,0.2,0.5,0.2,0.8v3.8c0,0.4-0.1,0.5-0.1,0.5s-0.2,0.1-0.5,0.2c-0.1,0-0.2,0.1-0.2,0.2v0.4c0,0.1,0.1,0.2,0.2,0.2h3.7
			c0.1,0,0.2-0.1,0.2-0.2v-0.4C90,44.4,89.9,44.3,89.8,44.3z"/>
		<path class="st0" d="M97.9,44.1l-0.2-0.3c0-0.1-0.1-0.1-0.2-0.1s-0.1,0-0.2,0.1s-0.2,0.1-0.2,0.1s0,0-0.1,0v-0.1V40
			c0-1-0.3-1.7-1-2.1c-0.6-0.4-1.4-0.5-2.3-0.5s-1.6,0.2-2.2,0.6c-0.6,0.4-1,0.9-1,1.6c0,0.4,0.1,0.7,0.4,0.9s0.6,0.3,0.9,0.3
			s0.6-0.1,0.8-0.3c0.3-0.2,0.4-0.5,0.4-0.9c0-0.1,0-0.3-0.1-0.4c-0.1-0.1-0.1-0.2-0.2-0.3l-0.1-0.1c0,0,0-0.1-0.1-0.1l0,0
			c0,0,0-0.1,0.2-0.2c0.1-0.1,0.3-0.1,0.6-0.1c0.4,0,0.7,0.1,0.9,0.3c0.2,0.2,0.2,0.5,0.2,0.9v1C93,41,92,41.4,91.3,41.8
			c-0.7,0.5-1.1,1.1-1.1,1.9c0,0.7,0.2,1.1,0.7,1.5c0.7,0.5,1.5,0.6,2.4,0.3c0.5-0.2,0.9-0.4,1.3-0.7c0.1,0.2,0.1,0.3,0.2,0.4
			c0.3,0.3,0.7,0.5,1.2,0.5c0.3,0,0.6-0.1,0.8-0.2c0.4-0.2,0.8-0.4,1.1-0.8C98,44.3,98,44.1,97.9,44.1z M93.7,41.7
			c0.2-0.2,0.5-0.3,0.7-0.4v1.9c-0.1,0.1-0.2,0.3-0.3,0.3c-0.2,0.1-0.4,0.2-0.6,0.2c-0.1,0-0.2-0.1-0.4-0.2
			c-0.1-0.1-0.2-0.3-0.2-0.6C93,42.4,93.2,42,93.7,41.7z"/>
		<path class="st0" d="M106.4,34.8c-0.7-0.5-1.8-0.7-3.2-0.7h-5c-0.1,0-0.2,0.1-0.2,0.2v0.4c0,0.1,0.1,0.2,0.2,0.2
			c0.6,0.1,0.8,0.2,0.9,0.3c0.1,0,0.2,0.2,0.2,0.9V43c0,0.6-0.1,0.9-0.2,0.9c-0.1,0.1-0.3,0.2-0.9,0.3c-0.1,0-0.2,0.1-0.2,0.2v0.4
			c0,0.1,0.1,0.2,0.2,0.2h5.2c0.1,0,0.2-0.1,0.2-0.2v-0.4c0-0.1-0.1-0.2-0.2-0.2c-0.6,0-0.8-0.1-0.9-0.2c-0.1-0.1-0.2-0.3-0.2-1
			v-2.7c0.8,0,1.5,0,1.9-0.1c0.5,0,1-0.2,1.5-0.4c0.7-0.3,1.2-0.7,1.5-1.2s0.4-1,0.4-1.6C107.5,36,107.1,35.2,106.4,34.8z
			 M102.2,39.3v-4c0-0.2,0.1-0.2,0.1-0.2c0.1,0,0.2-0.1,0.6-0.1c0.6,0,1,0.2,1.2,0.5c0.2,0.4,0.3,0.9,0.3,1.6c0,1-0.2,1.6-0.6,1.8
			C103.6,39.2,103.2,39.3,102.2,39.3z"/>
		<path class="st0" d="M111.5,44.3c-0.3-0.1-0.4-0.2-0.5-0.2c0,0-0.1-0.1-0.1-0.5v-9.2c0-0.1-0.1-0.2-0.2-0.2h-3
			c-0.1,0-0.2,0.1-0.2,0.2v0.4c0,0.1,0.1,0.2,0.2,0.2c0.3,0.1,0.4,0.2,0.5,0.2c0,0,0.1,0.1,0.1,0.5v8c0,0.4-0.1,0.5-0.1,0.5
			c-0.1,0.1-0.2,0.1-0.5,0.2c-0.1,0-0.2,0.1-0.2,0.2V45c0,0.1,0.1,0.2,0.2,0.2h3.7c0.1,0,0.2-0.1,0.2-0.2v-0.4
			C111.7,44.4,111.6,44.3,111.5,44.3z"/>
		<path class="st0" d="M120.2,44c-0.4,0-0.5-0.1-0.6-0.2c0,0-0.1-0.2-0.1-0.5v-5.6c0-0.1-0.1-0.2-0.2-0.2h-3.1
			c-0.1,0-0.2,0.1-0.2,0.2V38c0,0.1,0.1,0.2,0.2,0.2c0.4,0,0.6,0.1,0.6,0.2c0.1,0.1,0.1,0.3,0.1,0.5v4.3c-0.2,0.2-0.3,0.3-0.4,0.3
			c-0.2,0.1-0.4,0.2-0.6,0.2c-0.4,0-0.5-0.2-0.6-0.3c0-0.1-0.1-0.2-0.1-0.6v-5.3c0-0.1-0.1-0.2-0.2-0.2h-2.9c-0.1,0-0.2,0.1-0.2,0.2
			V38c0,0.1,0.1,0.2,0.2,0.2c0.3,0.1,0.5,0.2,0.5,0.2s0.1,0.1,0.1,0.5v3.9c0,0.9,0.3,1.5,0.7,1.9c0.5,0.3,1,0.5,1.5,0.5
			s1-0.1,1.4-0.4c0.2-0.1,0.4-0.2,0.6-0.4v0.5c0,0.1,0,0.1,0.1,0.2c0.1,0,0.1,0.1,0.2,0c0.5-0.2,0.9-0.3,1.2-0.3
			c0.2,0,0.9-0.1,1.8-0.2c0.1,0,0.2-0.1,0.2-0.2V44C120.4,44.1,120.3,44,120.2,44z"/>
		<path class="st0" d="M125.7,41c-0.3-0.3-0.7-0.5-1.2-0.8l-0.9-0.4c-0.5-0.2-0.7-0.4-0.8-0.5c-0.1-0.1-0.2-0.3-0.2-0.4
			c0-0.2,0.1-0.3,0.2-0.5c0.1-0.1,0.3-0.2,0.6-0.2c0.4,0,0.7,0.1,1,0.4c0.3,0.3,0.5,0.7,0.7,1.2c0,0.1,0.1,0.2,0.2,0.2h0.4
			c0.1,0,0.2-0.1,0.2-0.2V38c0-0.1-1.6-0.7-2.7-0.7c-0.8,0-1.5,0.2-1.9,0.7c-0.5,0.5-0.7,1.1-0.7,1.7c0,0.5,0.2,1,0.5,1.4
			s0.8,0.7,1.4,1l1.2,0.6c0.3,0.1,0.4,0.2,0.5,0.3c0.2,0.2,0.2,0.3,0.2,0.6c0,0.2-0.1,0.4-0.2,0.5s-0.4,0.2-0.7,0.2
			c-0.4,0-0.8-0.1-1.1-0.4c-0.4-0.3-0.6-0.8-0.8-1.4c0-0.1-0.1-0.2-0.2-0.2H121c-0.1,0-0.2,0.1-0.2,0.2v1.8c0,0.1,1,0.6,1.1,0.6
			c0,0,0.1,0,0.2,0.1l0.3,0.1c0.3,0.1,0.6,0.2,0.8,0.2c0.2,0,0.5,0.1,0.7,0.1c0.9,0,1.6-0.3,2.1-0.8s0.7-1.1,0.7-1.8
			C126.4,42.1,126.2,41.5,125.7,41z"/>
	</g>
	<g id="bQwShp_1_">
		<g>
			<path class="st0" d="M25.7,33.5c-0.2,0-0.2,0-0.3,0c-1.4,0-2.7,0-4.1,0c-1.5,0-2.8-0.6-3.7-1.9C17,30.9,16.5,30,16,29.2
				c-1.2-1.8-2.4-3.7-3.6-5.5c-1.1-1.7-2.3-3.5-3.4-5.2c-0.1-0.1-0.2-0.2-0.3-0.2c-0.8,0-1.6,0-2.5,0c-0.3,0-0.3,0.1-0.3,0.3
				c0,3.4,0,6.8,0,10.2c0,0.1,0,0.2,0,0.3c0,0.2-0.1,0.3-0.2,0.3c-0.6,0-1.3,0-1.9,0c-1.1,0-2.3,0-3.4,0C0.1,29.4,0,29.3,0,29
				C0,19.5,0,9.9,0,0.3C0,0.1,0.1,0,0.3,0C4,0,7.7,0,11.5,0c1.8,0,3.6,0.3,5.2,1.2c2,1.1,3.2,2.7,3.7,4.9s0.4,4.5-0.2,6.7
				c-0.5,1.6-1.5,2.8-3,3.7c-0.6,0.4-1.4,0.7-2,1c0,0-0.1,0-0.1,0.1C18.6,22.9,22.1,28.2,25.7,33.5z M5.9,9.1c0,1.3,0,2.6,0,4
				c0,0.2,0,0.3,0.2,0.3c1.8,0,3.6,0,5.3,0c1.5,0,2.6-0.9,3-2.3c0.3-1.1,0.3-2.1,0.1-3.2c-0.3-1.9-1.5-3-3.2-3s-3.4,0-5.1,0
				C5.9,4.9,5.9,5,5.9,5.2C5.9,6.5,5.9,7.8,5.9,9.1z"/>
			<path class="st0" d="M79.1,22.7c0,2.1,0,4.2,0,6.3c0,0.3,0,0.3-0.3,0.3c-3.6,0-7.2,0-10.8,0c-1.3,0-2.5-0.2-3.7-0.8
				c-1.5-0.8-2.4-1.9-2.8-3.5c-0.5-1.9-0.5-3.8,0.3-5.6c0.6-1.3,1.6-2.1,2.9-2.5c0.8-0.3,1.7-0.5,2.5-0.5c2,0,4.1,0,6.1,0
				c0.4,0,0.4,0,0.4-0.4c0-0.3,0-0.5-0.1-0.8c-0.3-1.1-1-1.9-2.2-2c-0.7-0.1-1.4-0.1-2-0.2c-1.2,0-2.3,0-3.5-0.1
				c-1.6-0.1-2.8-1.4-2.8-3.1c0-0.4,0-0.8,0-1.2c0-0.2,0.1-0.3,0.3-0.3c2.6,0,5.1,0,7.7,0c1.3,0,2.7,0.3,3.9,0.8
				c1.7,0.7,2.9,2,3.5,3.8c0.5,1.4,0.6,2.9,0.6,4.4C79.1,19.2,79.1,21,79.1,22.7z M71.1,20.6L71.1,20.6c-0.8,0-1.6,0-2.5,0
				c-0.6,0-1.2,0.1-1.6,0.6c-0.6,0.7-0.6,1.5-0.3,2.3c0.2,0.6,0.6,1,1.2,1.1c0.3,0.1,0.6,0.1,0.9,0.1c1.6,0,3.2,0,4.8,0
				c0.2,0,0.3-0.1,0.3-0.3c0-1.2,0-2.5,0-3.7c0-0.2-0.1-0.3-0.3-0.3C72.7,20.6,71.9,20.6,71.1,20.6z"/>
			<path class="st0" d="M34.3,20.6c-2.1,0-4.2,0-6.3,0c-0.4,0-0.4,0-0.3,0.3c0,0.8,0.2,1.5,0.6,2.2c0.6,0.9,1.4,1.3,2.4,1.5
				c0.5,0.1,1.1,0.1,1.7,0.1c1.1,0,2.1,0,3.2,0c1.1,0,2.1,0.5,2.7,1.4c0.3,0.4,0.4,0.8,0.4,1.3s0,1.1,0,1.6c0,0.2-0.1,0.2-0.2,0.2
				c-2.3,0-4.7,0-7,0c-1.4,0-2.7-0.2-4-0.7c-2-0.7-3.4-2-4.3-3.8c-0.6-1.3-0.9-2.7-1.1-4.1c-0.1-1.4-0.1-2.7,0-4.1
				c0.3-2.3,1-4.5,2.7-6.2C26,9.1,27.6,8.4,29.3,8c1-0.2,2.1-0.3,3.1-0.2c1.8,0.1,3.5,0.5,5,1.5c1.2,0.8,2.1,1.8,2.7,3.1
				c0.9,1.8,1.1,3.7,1.1,5.7c0,0.7-0.1,1.3-0.1,2c0,0.2-0.1,0.3-0.3,0.3C38.6,20.6,36.4,20.6,34.3,20.6z M35.7,16.4
				c0-0.7-0.1-1.3-0.4-1.9c-0.3-0.9-1-1.5-1.9-1.7c-1.2-0.3-2.4-0.3-3.6,0.1c-0.8,0.3-1.5,0.8-1.8,1.7c-0.2,0.5-0.3,1-0.4,1.5
				c-0.1,0.4,0,0.4,0.3,0.4c2.4,0,4.9,0,7.3,0C35.4,16.4,35.5,16.4,35.7,16.4z"/>
			<path class="st0" d="M61.4,29.4c-1.4,0-2.7,0-4,0c-0.4,0-0.8-0.1-1.1-0.2c-1.1-0.3-1.9-1-2.6-1.9c-0.8-1.2-1.7-2.5-2.5-3.8
				c0-0.1-0.1-0.1-0.2-0.2c-0.3,0.4-0.6,0.9-0.9,1.3c-0.7,1-1.4,2-2.2,3s-1.9,1.7-3.2,1.7c-1.5,0.1-3,0-4.5,0
				c0.1-0.2,0.3-0.4,0.4-0.6c1.7-2.4,3.4-4.8,5-7.2c0.7-1,1.4-1.9,2-2.9c0.1-0.1,0.1-0.2,0-0.4c-1.8-2.6-3.6-5.3-5.3-8
				c-0.4-0.5-0.7-1.1-1.1-1.6c-0.1-0.1-0.1-0.2-0.2-0.3c0.1,0,0.2,0,0.3,0c1.1,0,2.3,0,3.4,0c1.7,0,3.1,0.7,4,2.2
				c1.7,2.5,3.3,5,5,7.5c1.9,2.8,3.7,5.6,5.6,8.4c0.6,0.9,1.1,1.7,1.7,2.5C61.3,29.1,61.3,29.2,61.4,29.4z"/>
			<path class="st0" d="M81.8,14.7c0-4.8,0-9.5,0-14.3c0-0.4,0-0.4,0.4-0.4c0.8,0,1.6,0,2.3,0.1C86,0.2,87.1,1.5,87.1,3
				c0,5.4,0,10.8,0,16.2c0,3.3,0,6.5,0,9.8c0,0.3,0,0.3-0.4,0.3c-1.5,0-3.1,0-4.6,0c-0.3,0-0.3-0.1-0.3-0.3
				C81.8,24.3,81.8,19.5,81.8,14.7z"/>
			<path class="st0" d="M95.2,16c0,4.3,0,8.7,0,13c0,0.4,0,0.4-0.4,0.4c-1.5,0-3.1,0-4.6,0c-0.2,0-0.3-0.1-0.3-0.3
				c0-9.6,0-19.1,0-28.7c0-0.2,0.1-0.3,0.3-0.3c0.7,0,1.4,0,2.1,0c1.2,0.1,2.2,0.6,2.7,1.8c0.2,0.4,0.2,0.9,0.2,1.3
				C95.2,7.4,95.2,11.7,95.2,16z"/>
			<path class="st0" d="M55.6,15.3c-0.7,0-1.3,0-2,0c-0.2,0-0.3-0.1-0.3-0.3c0-1.2,0-2.4,0-3.6c0-1.6,1.3-3,2.9-3c1.2,0,2.5,0,3.7,0
				c0.2,0,0.3,0,0.3,0.3c0,1.2,0,2.5,0,3.7c0,1.6-1.3,2.9-2.9,2.9C56.7,15.3,56.2,15.3,55.6,15.3L55.6,15.3z"/>
			<path class="st0" d="M100,0.3c-0.1,0.5-0.2,1-0.4,1.6c0,0.1,0,0.3-0.1,0.4c0,0.1-0.1,0.2-0.2,0.2s-0.2-0.1-0.2-0.2
				c-0.1-0.6-0.3-1.1-0.4-1.7c0-0.1,0-0.2-0.1-0.3c0,0.6,0,1.2,0,1.7c0,0.1,0,0.1,0,0.2c0,0.1-0.1,0.1-0.1,0.2
				c0-0.1-0.1-0.1-0.1-0.2c0-0.7,0-1.4,0-2c0-0.1,0.1-0.2,0.2-0.2s0.3,0,0.3,0.2C99,0.8,99.2,1.4,99.3,2c0,0,0,0,0,0.1
				c0.1-0.4,0.2-0.8,0.3-1.2c0.1-0.3,0.1-0.5,0.2-0.8c0-0.2,0.2-0.2,0.3-0.2c0.2,0,0.2,0.1,0.2,0.2c0,0.6,0,1.3,0,1.9
				c0,0.1-0.1,0.1-0.1,0.2c0-0.1-0.1-0.1-0.1-0.2C100,1.6,100,0.9,100,0.3L100,0.3z"/>
			<path class="st0" d="M101.8,0.3c0,0.5,0,1.1,0,1.6c0,0.1,0,0.2,0,0.3s-0.1,0.1-0.1,0.2c0-0.1-0.1-0.1-0.1-0.2c0-0.7,0-1.3,0-2
				c0-0.1,0-0.2,0.2-0.2c0.1,0,0.3,0,0.3,0.2c0.1,0.6,0.3,1.1,0.4,1.7c0,0.1,0,0.1,0.1,0.2c0.2-0.7,0.3-1.3,0.4-1.9
				c0-0.2,0.1-0.3,0.3-0.2c0.2,0,0.1,0.2,0.1,0.3c0,0.6,0,1.2,0,1.9c0,0.1-0.1,0.1-0.1,0.2c0-0.1-0.1-0.1-0.1-0.2
				c0-0.6,0-1.3-0.1-1.9c-0.1,0.2-0.1,0.4-0.2,0.6c-0.1,0.4-0.2,0.9-0.3,1.3c0,0.1-0.1,0.1-0.2,0.2c-0.1-0.1-0.1-0.1-0.2-0.2
				C102.1,1.6,102,1,101.8,0.3L101.8,0.3z"/>
			<path class="st0" d="M104,1.3c0,0.2,0.1,0.5,0.1,0.7s0.2,0.3,0.4,0.3c0.2,0,0.3-0.1,0.3-0.3V1.9c0.1-0.1,0.1-0.2,0.2-0.3
				c0,0.1,0.1,0.2,0.1,0.3c0,0.3-0.2,0.6-0.5,0.6c-0.4,0-0.6-0.1-0.7-0.5c-0.1-0.5-0.1-1,0-1.5c0.1-0.3,0.3-0.5,0.7-0.5
				c0.3,0,0.5,0.2,0.5,0.5c0,0.1-0.1,0.1-0.1,0.2c0,0-0.1-0.1-0.1-0.2c-0.1-0.2-0.2-0.4-0.4-0.4c-0.2,0-0.3,0.2-0.4,0.4
				c0,0.1,0,0.1,0,0.2C104,1,104,1.1,104,1.3L104,1.3z"/>
			<path class="st0" d="M97.3,1.3c0-0.3,0-0.5,0-0.8c0-0.2-0.1-0.3-0.3-0.3c-0.1,0-0.1,0-0.2,0l-0.1-0.1L96.8,0c0.4,0,0.8,0,1.2,0
				l0.1,0.1c0,0,0,0.1-0.1,0.1c0,0,0,0-0.1,0c-0.4,0-0.4,0-0.4,0.4c0,0.5,0,1,0,1.5c0,0.1-0.1,0.2-0.1,0.2c0-0.1-0.1-0.1-0.1-0.2
				C97.3,1.9,97.3,1.6,97.3,1.3z"/>
			<path class="st0" d="M101.3,0.1c-0.2,0.8-0.5,1.6-0.7,2.5C100.5,2.2,101.1,0.1,101.3,0.1z"/>
		</g>
	</g>
</g>
</svg>
