<?xml version="1.0" encoding="utf-8"?>
<!-- Generator: Adobe Illustrator 22.0.1, SVG Export Plug-In . SVG Version: 6.00 Build 0)  -->
<svg version="1.1" id="Layer_1" xmlns="http://www.w3.org/2000/svg" xmlns:xlink="http://www.w3.org/1999/xlink" x="0px" y="0px"
	 viewBox="0 0 111.6 43.4" style="enable-background:new 0 0 111.6 43.4;" xml:space="preserve">
<style type="text/css">
	.st0{fill:#696E75;}
</style>
<g id="Y2tjhq_1_">
	<g>
		<path class="st0" d="M7.8,0c32,0,63.9,0,95.9,0c0.1,0,0.2,0.1,0.3,0.1c4.2,0.4,7.5,3.9,7.5,8.1c0,9,0,18,0,27
			c0,4.4-3.8,8.1-8.2,8.1c-31.7,0-63.5,0-95.2,0c-4.4,0-8.2-3.7-8.2-8.1c0-9,0-18.1,0-27.1C0,4.3,2.9,1,6.6,0.2C7,0.1,7.4,0.1,7.8,0
			z M55.8,3.2c-15.5,0-31,0-46.5,0c-0.2,0-0.4,0-0.6,0C8.1,3.3,8.1,3.4,8.1,4c0,11.7,0,23.3,0,35c0,1,0.1,1.1,1.1,1.1
			c0.1,0,0.1,0,0.2,0c30.9,0,61.9,0,92.8,0c0.2,0,0.4,0,0.6,0c0.7-0.1,1.2-0.6,1.3-1.3c0-0.2,0-0.3,0-0.5c0-11.1,0-22.2,0-33.2
			c0-0.2,0-0.3,0-0.5c-0.1-0.7-0.5-1.2-1.1-1.3c-0.2,0-0.5-0.1-0.7-0.1C86.8,3.2,71.3,3.2,55.8,3.2z"/>
		<path class="st0" d="M61.6,8.1c0.2,0,0.4,0,0.5,0c7.5,0,14.9,0.1,22.4,0.1c1.9,0,3.8-0.1,5.7,0.2c0.7,0.1,1.3,0.3,1.9,0.5
			c2.1,0.8,3,2.4,3.3,4.5c0.1,0.7,0.2,1.5,0.2,2.2c0,2.5-1.3,4.3-3.4,5.5c-0.7,0.4-1.5,0.7-2.3,1.1c0.4,0.4,0.8,0.9,1.2,1.4
			c2.1,2.4,4.1,4.8,6.2,7.1c1.6,1.8,3.5,3.3,5.5,4.7c0.1,0.1,0.2,0.2,0.4,0.3c-0.2,0-0.4,0-0.5,0c-2.3,0-4.6,0-7,0
			c-1.3,0-2.6-0.2-3.9-0.7c-0.7-0.3-1.3-0.8-1.9-1.4c-1.6-2-3.3-3.9-4.9-5.9c-0.7-0.9-1.3-2-2-3c-0.6-1-1.3-2-1.9-3
			c0-0.1-0.1-0.1-0.2-0.2c0,0.1,0,0.3,0,0.4c0,2.3,0,4.6,0,7c0,0.9,0,1.8-0.1,2.7c0,0.8,0.2,1.6,1,2.1c0.1,0,0.1,0.1,0.1,0.1
			c0.3,0.7,0.6,1.3,0.9,2c-3.6,0-7.2,0-10.9,0c0.4-0.7,0.4-1.4,0.9-2c0.1-0.1,0.2-0.4,0.2-0.5c0.1-0.6,0.1-1.2,0.1-1.8
			c0-6.2,0-12.5,0-18.7c0-0.6,0-1.3-0.1-1.9c-0.1-0.4-0.3-0.8-0.5-1.2c-0.3-0.4-0.6-0.8-1-1.2c-0.4,0.9-0.7,1.7-1.1,2.6
			c-2,4.9-4.1,9.8-6.1,14.7c-1.4,3.5-2.9,6.9-4.3,10.4c-0.4,0.8-0.1,0.8-1.1,0.5c-2.5-0.6-4.7-1.8-6.1-3.9c-0.7-1-1.1-2.1-1.5-3.2
			c-1.9-4.6-3.8-9.3-5.7-13.9c-0.4-1-0.7-2-1.1-2.9c-0.4-0.9-0.9-1.8-1.7-2.4c-0.1-0.1-0.3-0.2-0.4-0.2c-0.4-0.1-0.6-0.4-0.5-0.8
			c0-0.3,0-0.6-0.1-0.9c3.6,0,7.2,0,10.8,0c-0.1,0.3-0.1,0.6-0.2,1c-0.5,1.5-0.3,3,0.3,4.4c1.6,3.6,3.1,7.2,4.7,10.8
			c0.1,0.1,0.1,0.2,0.2,0.4c0.3-0.7,0.5-1.2,0.7-1.8c1-2.6,2-5.2,3-7.8c0.5-1.3,0.9-2.7,1-4.2c0-0.3,0-0.5,0-0.8
			c0-0.1,0-0.2-0.1-0.2C61.6,9.5,61.9,8.7,61.6,8.1z M81,20.4c1.6-0.4,3.3-0.7,4.7-1.6c1.3-0.9,2-2.3,1.9-3.9
			c-0.1-1.8-1.9-3.3-3.7-3.3c-0.6,0-1.3,0-1.9,0c-0.3,0-0.7,0-1,0C81,14.5,81,17.4,81,20.4z"/>
		<path class="st0" d="M33.3,23c0-0.2,0-0.4,0-0.5c0-3.3,0-6.6,0-10c0-1.2-0.4-2.2-1.5-2.7c-0.1-0.1-0.2-0.3-0.2-0.4
			c-0.1-0.4-0.1-0.8-0.1-1.2c3.2,0,6.4,0,9.7,0c0,0.5,0,0.9,0,1.3c0,0.1,0,0.1-0.1,0.2c-0.8,0.6-0.9,1.4-0.9,2.2c0,0.7,0,1.5,0,2.2
			c0,7.4,0,14.7,0,22.1c0,0.1,0,0.3,0,0.4c-0.1,0-0.1,0.1-0.1,0.1c-2.2,0.1-4.3-0.2-6.3-1.3c-1.3-0.7-2.2-1.8-3.2-2.9
			c-3.3-3.9-6.7-7.8-10-11.7c0-0.1-0.1-0.1-0.2-0.1c0,0.1,0,0.3,0,0.4c0,2.5,0,5.1,0,7.6c0,1-0.1,2-0.1,3c0,0.6,0.1,1.3,0.2,1.9
			c0,0.3,0.3,0.5,0.4,0.7c0,0.1,0.1,0.2,0.1,0.2c0,0.4,0.1,0.8,0.1,1.3c-0.2,0-0.3,0-0.4,0c-2.6,0-5.2,0-7.8,0
			c-0.3,0-0.4-0.1-0.5-0.4c-0.2-0.7-0.1-1.2,0.4-1.7s0.7-1.3,0.7-2c0-6-0.1-11.9-0.1-17.9c0-0.6,0-1.3,0.1-1.9c0-0.8-0.3-1.5-1-2
			c-0.2-0.1-0.3-0.3-0.3-0.5c0-0.4,0-0.9,0-1.4c0.1,0,0.2,0,0.2,0c2.1,0,4.3,0,6.4,0.1c1,0,2,0.4,2.7,1.2c1.6,1.9,3.3,3.7,4.9,5.6
			c2.2,2.5,4.3,5.1,6.4,7.6C33,22.6,33.2,22.8,33.3,23z"/>
	</g>
</g>
</svg>
