<?xml version="1.0" encoding="utf-8"?>
<!-- Generator: Adobe Illustrator 22.0.1, SVG Export Plug-In . SVG Version: 6.00 Build 0)  -->
<svg version="1.1" id="Layer_1" xmlns="http://www.w3.org/2000/svg" xmlns:xlink="http://www.w3.org/1999/xlink" x="0px" y="0px"
	 viewBox="0 0 175.8 29.4" style="enable-background:new 0 0 175.8 29.4;" xml:space="preserve">
<style type="text/css">
	.st0{fill:#696E75;}
</style>
<g>
	<path class="st0" d="M43.7,7.8c0,0-6.9,0.5-10.7,0.2c0,0-0.4-0.1-0.6,0.4c0,0-0.2,0.4,0.1,0.7C32.9,9.4,34,10,34,12.5s0,4.7,0,4.7
		s0.2,2.6-1.6,3.6c0,0-0.4,0.1-0.2,0.6c0,0,0,0.5,0.5,0.4s3.4-0.3,7.4,0c0,0,0.3,0,0.4-0.2c0.1-0.2,0.1-0.2,0.1-0.2s0.3-0.3-0.2-0.7
		c-0.5-0.3-1.4-0.9-1.4-3c-0.1-2.2,0-2.2,0-2.2h0.3c0,0,1.1-0.1,1.8,1.6c0,0,1.4,3.4,1.6,3.9c0.2,0.4,0.6,1.3,2.2,1.2
		c1.5-0.1,8.8-0.7,16.4,0c0,0,0.8,0.1,1.2-0.7c0,0,1.3-3.6,1.6-4.1c0,0,2.8-0.1,4.3-0.1c0,0,0.6,1,0.6,2.1c0,1.2-1,1.4-1,1.4
		s-0.4,0.2-0.2,0.7c0,0,0.1,0.5,0.6,0.4c0.5,0,4.9-0.5,11.5,0c0,0,0.4,0.2,0.6-0.4c0,0,0.3-0.5-0.2-0.7c0,0-1.7-0.4-1.7-3.2
		s0-4.7,0-4.7s1.3,1.9,2.9,4.7s2.4,4,2.4,4s0.8,1.5,2.3,0.7c1.6-0.8,3.2-1.7,4.2-2.4c0,0,0.4-0.2,0.2-0.6L90.5,19c0,0,0-0.2-0.5-0.2
		c0,0-1.2,0.3-1.2-1.4c0-1.6-0.1-4,0-6.4c0,0,0-1.5,1.4-1.9c0,0,0.5,0,0.3-0.6l-0.1-0.3c0,0,0-0.2-0.3-0.2c-0.3,0.1-2.3,0.2-4.3,0.1
		c0,0-0.4,0-0.5,0.5c0,0-0.1,0.4,0.2,0.6c0.3,0.1,1.5,0.6,1.6,2.5s0.1,4.5,0.1,4.5s-2.8-4.1-4.6-7.3c0,0-0.3-0.9-1.4-0.8
		c-1.1,0.1-3.6,0.2-5.4,0c0,0-0.5-0.1-0.6,0.5c0,0-0.1,0.5,0.3,0.7c0,0,1.5,0.9,1.5,1.3c0,0.3,0,6.9,0,6.9s0.1,2.7-0.6,2.3
		c0,0-0.4,0.3-1.4-1.6c-1-1.8-2.3-4.5-4.4-9.6c0,0-0.4-1.4-1.4-1.4c0,0-0.5,0-1.1,0.3s-2.4,1.3-4.2,1.9c0,0-0.5,0.1-0.3,0.6
		c0,0-0.1,0.4,0.5,0.6c0.5,0.2,1,0.4,1.2,0.7c0,0-0.6,1.8-1.6,3.7s-2.4,5-6.2,5H56c0,0-0.4,0.1-0.4-0.5c0-0.5,0-4,0-4h1
		c0,0,1.6-0.3,2.4,1.7c0,0,0.2,0.6,0.7,0.4c0,0,0.6-0.1,0.6-0.7s-0.1-2.3,0-3.8c0,0,0-0.4-0.4-0.5c0,0-0.4-0.2-0.7,0.1
		s-0.9,1.1-2.3,1.1c-1.4,0-1.2,0-1.2,0V10c0,0,0-0.2,0.1-0.3c0.2,0,2.3-0.5,3.6,0.5s1.3,1.4,1.6,1.8c0,0,0.2,0.6,0.9,0.2
		c0,0,0.5-0.1,0.2-0.8c-0.2-0.8-0.3-1-0.7-2.9c0,0-0.1-0.8-0.9-0.7c-0.8,0.1-6.1,0.7-11,0.3c0,0-0.5-0.1-0.6,0.4
		c0,0-0.2,0.4,0.2,0.7c0,0,1.4,0.7,1.4,3.2c0,2.6,0,4.3,0,4.3s0.2,3.4-1,3.4c0,0-0.5,0.2-1.4-1.5s-0.9-1.8-0.9-1.8s-0.7-2.3-3.8-2.4
		c0,0,4.2-0.7,3.9-3.9c0,0-0.1-2.4-3.3-2.5h-0.3C43.7,8,43.7,7.8,43.7,7.8z M39.3,13.9v-2.4c0,0,0-1.8,1.4-1.8s1.2,1.7,1.3,2
		C42,11.8,41.9,13.9,39.3,13.9L39.3,13.9z M65.3,15.5c0,0,0.9-2.1,1.3-2.7c0,0,1.1,1.5,1.5,2.8C68.1,15.5,66.8,15.7,65.3,15.5
		L65.3,15.5z"/>
	<path class="st0" d="M112.7,16.5c0,0,0.1,3.2-1.1,3c0,0-0.4,0.3-1.4-1.6c-1-1.8-2.3-4.5-4.4-9.6c0,0-0.4-1.4-1.3-1.4
		c0,0-0.5,0-1.1,0.3s-2.4,1.3-4.2,1.9c0,0-0.5,0.1-0.3,0.6c0,0-0.1,0.4,0.5,0.6c0.5,0.2,1,0.4,1.2,0.7c0,0-0.6,1.8-1.6,3.7
		s-1.9,4.6-4.4,5.8c0,0-0.5,0.1-0.3,0.7s0.5,0.5,0.5,0.5c2.8-0.3,3.7,0,4.3,0c0.6,0.1,0.5-0.5,0.5-0.5c0.2-0.3-0.1-0.5-0.1-0.5
		l-0.3-0.3c0,0-1.1-0.3,0.4-3.3c0,0,2.8-0.1,4.3-0.1c0,0,0.6,1,0.6,2.1c0,1.2-1,1.4-1,1.4s-0.4,0.2-0.2,0.7c0,0,0.1,0.5,0.6,0.4
		c0.5,0,8.6-0.4,15.3,0c0,0,0.5,0,0.6-0.4c0,0,0.3-0.5-0.2-0.8c0,0-1.3-0.6-1.4-2.7s-0.1-6-0.1-6s-0.1-2.2,1.3-2.9
		c0,0,0.4-0.2,0.2-0.7c0,0-0.1-0.5-0.5-0.4c-0.4,0-5.1,0.3-7.3,0c0,0-0.5,0-0.6,0.4c0,0-0.2,0.4,0.2,0.7c0.4,0.3,1.5,1.1,1.5,3.3
		C112.7,14.6,112.7,16.5,112.7,16.5L112.7,16.5z M101.6,12.6c1.3,1.9,1.5,2.8,1.5,2.8c-1.1,0.2-2.8,0-2.8,0
		C100.8,13.9,101.6,12.6,101.6,12.6L101.6,12.6z"/>
	<path class="st0" d="M132.3,7.6c0,0-5.4,0.6-10.4,0.1c0,0-0.6-0.2-0.7,0.5c0,0-0.1,0.4,0.2,0.6c0.3,0.2,1.4,0.8,1.4,3.1
		c0.1,2.3,0.1,1.6,0.1,4.8c0,0,0.2,3-1.5,3.8c0,0-0.4,0.1-0.2,0.7c0,0,0.1,0.5,0.6,0.3c0,0,4-0.3,7.5,0c0,0,0.4,0.1,0.5-0.4
		c0,0,0.3-0.3-0.2-0.7c-0.5-0.4-1.4-1-1.5-2.6C128,16.3,128,15,128,15h0.3c0,0,1.2-0.1,1.9,1.7c0.8,1.8,1.3,3.1,1.3,3.1
		s0.5,1.4,1.3,1.9c0,0,0.3,0.3,1.6,0.2c0,0,2.1-0.1,4.1-1.1c0,0,0.5-0.1,0.3-0.6c0,0,0.1-0.4-0.5-0.5s-1-0.7-1.4-1.5
		s-1.1-2.1-1.1-2.1s-0.9-2.1-3.7-2.2c0,0,3.9-0.7,3.9-3.6s-3.4-2.9-3.4-2.9h-0.3L132.3,7.6L132.3,7.6z M128.1,13.8v-2.4
		c0,0,0-1.8,1.4-1.8c1.3,0,1.4,1.5,1.3,2C130.7,12.1,130.6,13.8,128.1,13.8L128.1,13.8z"/>
	<path class="st0" d="M27.7,10.1c2.5,0.8,4.3,3.1,4.3,5.8c0,0.4,0,0.8-0.1,1.2v0.1c-0.2,1.1-0.6,2.1-1.2,2.9l0,0
		c1.1-1.4,1.7-3.1,1.7-5c0-4.5-3.6-8.1-8.1-8.1c-2.1,0-3.9,0.8-5.4,2l0,0c-1.1,1-1.8,2.5-1.8,4.2c0,0.7,0.1,1.3,0.3,1.9l0,0
		c0.6,1.2,1.8,2.1,3.3,2.1c2,0,3.6-1.6,3.6-3.6v-1.5c0-0.7,0.4-1.3,1-1.6l0,0c0.5-0.3,1-0.4,1.5-0.4C27,10,27.4,10,27.7,10.1
		L27.7,10.1L27.7,10.1z"/>
	<path class="st0" d="M18,20.2c1.5,1.8,3.7,2.9,6.2,2.9c2,0,3.9-0.8,5.4-2l0,0c1.1-1,1.8-2.5,1.8-4.2c0-0.7-0.1-1.3-0.3-1.9l0,0
		c-0.6-1.2-1.8-2.1-3.3-2.1c-2,0-3.6,1.6-3.6,3.6V18c0,0.7-0.4,1.3-1,1.6l0,0c-0.5,0.3-1,0.4-1.5,0.4c-0.3,0-0.7-0.1-1-0.1l0,0
		c-2.5-0.8-4.3-3.1-4.3-5.8c0-0.4,0-0.8,0.1-1.2v-0.1c0.2-1.1,0.6-2.1,1.2-2.9l0,0c-1.1,1.4-1.7,3.1-1.7,5c0,1.3,0.3,2.5,0.9,3.6
		h-0.1c0,0-0.3,0.2-1-0.5c-0.6-0.7-4.4-5.3-4.4-5.3s2.4-2.6,4.7-3.6c0,0,0.6-0.2,0.5-0.7l-0.1-0.3c0,0,0-0.3-0.6-0.3
		c-0.5,0.1-3.1,0.3-5.6,0c0,0-0.4,0-0.5,0.3c0,0-0.2,0.4,0,0.7c0.2,0.2,1.1,0.9,1.1,1.7c0,0,0.2,0.6-1.2,1.6S7.5,13.7,7,14v-2.3
		c0,0-0.1-1.9,1.3-2.9c0,0,0.3-0.1,0.2-0.5v0.1C8.5,8.4,8.4,8,8,8c0,0-2.4,0.3-7.3,0c0,0-0.3,0-0.4,0.2L0.2,8.5c0,0-0.2,0.4,0.1,0.6
		C0.6,9.3,1.7,10,1.8,12c0,0,0.1,3.9-0.1,5.4s-0.3,2.4-1.5,3.4c0,0-0.3,0.2-0.2,0.6l0.2,0.3c0,0,0.1,0.2,0.5,0.2
		c0.4-0.1,3.4-0.3,7.3-0.1c0,0,0.3,0.1,0.4-0.2l0.2-0.3c0,0,0.2-0.3-0.2-0.6c-0.4-0.2-1.3-1-1.4-2.5c0-1.5,0-2.5,0-2.5
		s0.7,0.3,4.2,5.5c0,0,1.3,2.3,3.9,0.9C15.1,22,17.1,21,18,20.2L18,20.2L18,20.2z"/>
	<polygon class="st0" points="169.4,1.4 169.3,1.4 169.3,1.3 169.8,1.5 169.7,1.6 169.5,1.5 169.3,2 169.2,1.9 	"/>
	<polygon class="st0" points="169.8,1.5 170,1.6 169.9,2.1 169.9,2.1 170.3,1.7 170.5,1.8 170.2,2.4 170.1,2.3 170.3,1.9 170.3,1.9 
		169.9,2.3 169.8,2.2 169.9,1.7 169.9,1.7 169.7,2.1 169.6,2.1 	"/>
	<path class="st0" d="M171.2,6.4L171.2,6.4c2.1,2.2,3.5,5.1,3.8,8.3c0.5,7.2-4.9,13.4-12.1,13.9c-3.4,0.2-6.6-0.8-9-2.8l0,0
		c2.6,2.4,6.1,3.7,9.8,3.5c7.2-0.5,12.6-6.7,12.1-13.9C175.5,11.8,173.7,8.6,171.2,6.4L171.2,6.4z"/>
	<path class="st0" d="M148,21.2c-0.4,0.2-0.5,0.6-0.3,1.1s0.5,0.7,0.8,0.6s0.3-0.3,0.2-0.9v-0.2c-0.1-0.6-0.1-0.8-0.1-1.1
		c0.1-0.3,0.2-0.5,0.5-0.6c0.6-0.2,1.2,0.1,1.5,1c0.4,0.9,0.2,1.6-0.5,1.9l-0.2-0.4c0.5-0.2,0.6-0.7,0.3-1.3
		c-0.2-0.5-0.6-0.8-0.9-0.6c-0.3,0.1-0.4,0.4-0.2,1V22v0.2c0.1,0.4,0.1,0.6,0,0.8c-0.1,0.2-0.2,0.4-0.5,0.5
		c-0.6,0.2-1.1-0.1-1.4-0.9c-0.3-0.8-0.2-1.4,0.5-1.7L148,21.2L148,21.2z"/>
	<polygon class="st0" points="147.6,16.5 149.6,14.8 149.6,15.5 148,16.9 148.5,17.5 149.7,17.4 149.7,17.9 146.3,18 146.3,17.5 
		147.6,17.5 147.8,17.5 148,17.5 147.9,17.4 147.8,17.2 146.3,15.6 146.3,15 	"/>
	<path class="st0" d="M149.1,11.3l1.3,0.5l-0.2,0.5l-1.3-0.5l-2.3,0.7l0.2-0.6l1.4-0.4h0.2c0.1,0,0.1,0,0.2-0.1
		c-0.1-0.1-0.1-0.2-0.3-0.3l-0.9-1.2l0.2-0.5L149.1,11.3L149.1,11.3z"/>
	<polygon class="st0" points="151.4,5.1 150.7,6 152.8,7.7 152.3,8.4 150.2,6.6 149.5,7.5 149,7.1 150.9,4.7 	"/>
	<polygon class="st0" points="156,1.9 154.3,2.9 154.6,3.5 156.2,2.6 156.5,3.1 154.9,4 155.3,4.7 157.1,3.7 157.4,4.3 154.9,5.7 
		153.2,2.8 155.6,1.4 	"/>
	<path class="st0" d="M162.5,3.2l-0.9,0.1l-0.4-0.7l-1.4,0.2l-0.2,0.8l-0.8,0.2l0.9-3.7l0.8-0.1L162.5,3.2L162.5,3.2z M160.6,1.5
		c-0.2-0.3-0.3-0.4-0.4-0.7c0,0.2-0.1,0.4-0.1,0.8L160,2.2l1-0.2L160.6,1.5L160.6,1.5z"/>
	<path class="st0" d="M167.9,4.3L167.2,4l0.3-1c0-0.1,0.1-0.3,0.1-0.5c0.1-0.2,0.1-0.4,0.1-0.5c0-0.1,0.1-0.3,0.1-0.4l0.1-0.2
		c-0.2,0.3-0.3,0.5-0.5,0.7c-0.1,0.1-0.2,0.2-0.2,0.3l-1,1.3l-0.6-0.2L165.5,2c0-0.1,0-0.2,0-0.4s0-0.4,0-0.5s0-0.2,0-0.4l-0.1,0.4
		c-0.1,0.4-0.1,0.6-0.3,1.2l-0.3,1.1l-0.7-0.1l0.8-3.3l1.1,0.2l0.2,1.6c0,0.4,0,0.7,0,1.1c0.1-0.2,0.2-0.3,0.3-0.6
		c0.1-0.2,0.2-0.3,0.3-0.4l0.9-1.3l1.1,0.4L167.9,4.3L167.9,4.3z"/>
	<path class="st0" d="M161.5,10.8c-0.4,0.4-1.2,1.1-2,1.9l-0.9,0.8c-0.7-0.1-1.4-0.2-2.2-0.2c-1.6,0-3.1,0.5-3.8,1.2
		c-0.3,0.3-0.4,0.6-0.4,0.9c0,0.8,0.9,1.2,1.2,1.3c1.5,0.5,2.7,0.4,4-0.5c0.7-0.5,1.6-1.3,2.2-1.9c0.5,0.1,1.1,0.3,1.7,0.5l0.6,0.2
		c-0.8,0.7-1.5,1.5-2.3,2.2h-0.1c-1,0.9-1.7,1.5-2.8,1.8c-0.7,0.2-1.3,0-1.4-0.1l0,0c0.6,0.5,1.2,0.8,2.2,0.7c0.9-0.1,2-0.7,3.1-1.7
		l1.5-1.5l1-1l2.1,0.6l0,0l-1.3,1.3l-1.1,1.1c-1.2,1.1-1.8,1.7-2.5,2.2c-1.1,0.8-2.1,1.2-2.9,1.3c-0.4,0-1.1,0-1.6-0.3h-0.1
		c0.6,0.5,1.3,1.1,2.5,1c1.4,0,2.6-0.7,4.4-2.4c0.9-0.8,1.7-1.7,2.5-2.4l1.4-1.4c0.9,0.2,1.7,0.3,2.6,0.3c1.3,0,2.4-0.7,2.5-1.4
		c0-0.5-0.4-0.8-0.7-1c-0.2-0.1-0.8-0.5-1.6-0.5c-1,0-2,0.4-3.1,1.3l-0.7,0.6l-0.3-0.1l-1.9-0.5c0.6-0.5,1.1-1,1.5-1.4
		c1.1-0.9,2.2-1.3,2.9-1.4c0.5,0,1.4,0,1.7,0.3l0,0c-1-0.8-1.8-0.9-2.5-0.9s-1.7,0.2-3.1,1.2c-0.5,0.4-1.2,1.1-2,1.9l-1-0.3
		l-0.2-0.1l-1-0.3l0.6-0.6c0.7-0.7,1.4-1.3,1.9-1.8c1.9-1.6,3-1.8,3.8-1.8c0.9,0,1.6,0.2,2.1,0.5l0,0c-1-0.9-1.8-1.2-3.1-1.3
		C164.1,9,162.8,9.6,161.5,10.8L161.5,10.8z M154.1,16.4c-0.6,0-0.9-0.3-0.9-0.7c0-0.1,0-1.5,3.4-1.7c0.4,0,0.8,0,1.5,0l-0.4,0.3
		l-0.2,0.2C156.7,15.2,155.4,16.5,154.1,16.4L154.1,16.4z M167.8,15.2c1-0.7,1.8-1,2.3-1c0.3,0,0.7,0.1,0.7,0.5s-0.4,0.7-1.1,0.9
		c-0.6,0.2-1.6,0.3-2.6,0.2C167.4,15.5,167.6,15.3,167.8,15.2L167.8,15.2z"/>
	<path class="st0" d="M161.1,15.9v1V15.9z"/>
</g>
</svg>
